<svg width="316" height="280" viewBox="0 0 316 280" fill="none" xmlns="http://www.w3.org/2000/svg">
<g filter="url(#filter0_di_53148_202653)">
<rect x="40" y="40" width="236" height="40" rx="8" fill="url(#paint0_linear_53148_202653)" fill-opacity="0.3" shape-rendering="crispEdges"/>
<rect x="40.5" y="40.5" width="235" height="39" rx="7.5" stroke="url(#paint1_linear_53148_202653)" shape-rendering="crispEdges"/>
<path d="M91.5753 63.708V65.5H84.3753V54.14H86.3113V63.708H91.5753ZM100.55 61.9H94.23C94.3047 62.5613 94.5447 63.0893 94.95 63.484C95.3553 63.868 95.8887 64.06 96.55 64.06C96.9873 64.06 97.382 63.9533 97.734 63.74C98.086 63.5267 98.3367 63.2387 98.486 62.876H100.406C100.15 63.7187 99.67 64.4013 98.966 64.924C98.2727 65.436 97.4513 65.692 96.502 65.692C95.2647 65.692 94.262 65.2813 93.494 64.46C92.7367 63.6387 92.358 62.5987 92.358 61.34C92.358 60.1133 92.742 59.084 93.51 58.252C94.278 57.42 95.27 57.004 96.486 57.004C97.702 57.004 98.6833 57.4147 99.43 58.236C100.187 59.0467 100.566 60.0707 100.566 61.308L100.55 61.9ZM96.486 58.556C95.8887 58.556 95.3927 58.732 94.998 59.084C94.6033 59.436 94.358 59.9053 94.262 60.492H98.678C98.5927 59.9053 98.358 59.436 97.974 59.084C97.59 58.732 97.094 58.556 96.486 58.556ZM104.068 57.196V58.3C104.26 57.9373 104.575 57.6333 105.012 57.388C105.46 57.132 105.999 57.004 106.628 57.004C107.61 57.004 108.367 57.3027 108.9 57.9C109.444 58.4973 109.716 59.292 109.716 60.284V65.5H107.812V60.524C107.812 59.9373 107.674 59.4787 107.396 59.148C107.13 58.8067 106.719 58.636 106.164 58.636C105.556 58.636 105.076 58.8173 104.724 59.18C104.383 59.5427 104.212 60.044 104.212 60.684V65.5H102.308V57.196H104.068ZM117.901 58.284V53.5H119.805V65.5H118.045V64.316C117.48 65.2333 116.546 65.692 115.245 65.692C114.061 65.692 113.122 65.2813 112.429 64.46C111.746 63.628 111.405 62.5933 111.405 61.356C111.405 60.1187 111.746 59.084 112.429 58.252C113.122 57.42 114.061 57.004 115.245 57.004C116.45 57.004 117.336 57.4307 117.901 58.284ZM117.981 61.356C117.981 60.5773 117.768 59.9373 117.341 59.436C116.925 58.9347 116.36 58.684 115.645 58.684C114.941 58.684 114.376 58.9347 113.949 59.436C113.522 59.9373 113.309 60.5773 113.309 61.356C113.309 62.1133 113.522 62.748 113.949 63.26C114.376 63.7613 114.941 64.012 115.645 64.012C116.36 64.012 116.925 63.7613 117.341 63.26C117.768 62.7587 117.981 62.124 117.981 61.356Z" fill="#F5F5F7"/>
<g filter="url(#filter1_i_53148_202653)">
<rect x="137" y="53" width="24" height="14" rx="7" fill="white" fill-opacity="0.08"/>
</g>
<rect x="137.5" y="53.5" width="23" height="13" rx="6.5" stroke="white" stroke-opacity="0.08"/>
<circle cx="144" cy="60" r="4" fill="white"/>
<path d="M183.589 65.5H178.821V54.14H183.413C184.661 54.14 185.599 54.4227 186.229 54.988C186.858 55.5533 187.173 56.3 187.173 57.228C187.173 57.8253 187.023 58.3427 186.725 58.78C186.437 59.2173 186.037 59.5427 185.525 59.756C186.09 59.948 186.538 60.2733 186.869 60.732C187.199 61.18 187.365 61.708 187.365 62.316C187.365 63.3187 187.039 64.1027 186.389 64.668C185.738 65.2227 184.805 65.5 183.589 65.5ZM183.573 60.636H180.725V63.74H183.557C184.794 63.74 185.413 63.2227 185.413 62.188C185.413 61.6973 185.253 61.3187 184.933 61.052C184.613 60.7747 184.159 60.636 183.573 60.636ZM183.429 55.9H180.725V58.86H183.429C184.623 58.86 185.221 58.3693 185.221 57.388C185.221 56.9187 185.071 56.556 184.773 56.3C184.474 56.0333 184.026 55.9 183.429 55.9ZM193.076 65.692C191.796 65.692 190.756 65.2707 189.956 64.428C189.167 63.5853 188.772 62.5613 188.772 61.356C188.772 60.1507 189.167 59.1267 189.956 58.284C190.756 57.4307 191.796 57.004 193.076 57.004C194.367 57.004 195.407 57.4307 196.196 58.284C196.996 59.1267 197.396 60.1507 197.396 61.356C197.396 62.5613 196.996 63.5853 196.196 64.428C195.407 65.2707 194.367 65.692 193.076 65.692ZM190.676 61.356C190.676 62.1453 190.9 62.7853 191.348 63.276C191.807 63.7667 192.383 64.012 193.076 64.012C193.78 64.012 194.356 63.7667 194.804 63.276C195.263 62.7853 195.492 62.1453 195.492 61.356C195.492 60.556 195.263 59.9107 194.804 59.42C194.356 58.9293 193.78 58.684 193.076 58.684C192.383 58.684 191.807 58.9293 191.348 59.42C190.9 59.9107 190.676 60.556 190.676 61.356ZM203.64 57.132V58.908C203.49 58.8867 203.346 58.876 203.208 58.876C201.778 58.876 201.064 59.644 201.064 61.18V65.5H199.16V57.196H200.92V58.348C201.389 57.5267 202.205 57.116 203.368 57.116L203.64 57.132ZM209.499 57.132V58.908C209.35 58.8867 209.206 58.876 209.067 58.876C207.638 58.876 206.923 59.644 206.923 61.18V65.5H205.019V57.196H206.779V58.348C207.249 57.5267 208.065 57.116 209.227 57.116L209.499 57.132ZM214.279 65.692C212.999 65.692 211.959 65.2707 211.159 64.428C210.37 63.5853 209.975 62.5613 209.975 61.356C209.975 60.1507 210.37 59.1267 211.159 58.284C211.959 57.4307 212.999 57.004 214.279 57.004C215.57 57.004 216.61 57.4307 217.399 58.284C218.199 59.1267 218.599 60.1507 218.599 61.356C218.599 62.5613 218.199 63.5853 217.399 64.428C216.61 65.2707 215.57 65.692 214.279 65.692ZM211.879 61.356C211.879 62.1453 212.103 62.7853 212.551 63.276C213.01 63.7667 213.586 64.012 214.279 64.012C214.983 64.012 215.559 63.7667 216.007 63.276C216.466 62.7853 216.695 62.1453 216.695 61.356C216.695 60.556 216.466 59.9107 216.007 59.42C215.559 58.9293 214.983 58.684 214.279 58.684C213.586 58.684 213.01 58.9293 212.551 59.42C212.103 59.9107 211.879 60.556 211.879 61.356ZM227.633 65.5L225.761 59.804H225.745L223.857 65.5H222.049L219.153 57.196H221.121L222.977 63.148L224.881 57.196H226.641L228.529 63.164L230.401 57.196H232.337L229.441 65.5H227.633Z" fill="#A4A5A8"/>
</g>
<g filter="url(#filter2_i_53148_202653)">
<rect x="40" y="88" width="236" height="192" rx="8" fill="white" fill-opacity="0.04"/>
<rect x="40.5" y="88.5" width="235" height="191" rx="7.5" stroke="white" stroke-opacity="0.04"/>
<g clip-path="url(#clip0_53148_202653)">
<rect x="48" y="96" width="100" height="32" rx="8" fill="white" fill-opacity="0.06"/>
<path d="M65.8126 117H63.8236L67.2946 107.77H69.2966L72.7676 117H70.7266L70.1676 115.414H66.3716L65.8126 117ZM68.2826 110.11H68.2566L66.9826 113.711H69.5566L68.2826 110.11ZM75.4273 117H73.5813V107.25H75.4273V117ZM78.9693 117H77.1233V107.25H78.9693V117ZM85.9143 107.77L88.6183 111.345L91.3223 107.77H93.0643V117H91.2443V110.708L88.6443 114.049H88.5923L85.9923 110.708V117H84.1723V107.77H85.9143ZM98.9921 113.932L97.3541 114.205C96.6607 114.326 96.3141 114.595 96.3141 115.011C96.3141 115.488 96.6564 115.726 97.3411 115.726C97.8697 115.726 98.2771 115.587 98.5631 115.31C98.8491 115.033 98.9921 114.664 98.9921 114.205V113.932ZM96.9251 117.156C96.1624 117.156 95.5731 116.965 95.1571 116.584C94.7411 116.203 94.5331 115.696 94.5331 115.063C94.5331 114.465 94.7454 113.988 95.1701 113.633C95.6034 113.278 96.2707 113.031 97.1721 112.892L98.9921 112.619V112.554C98.9921 111.887 98.5847 111.553 97.7701 111.553C97.0074 111.553 96.5871 111.83 96.5091 112.385H94.6891C94.7497 111.718 95.0271 111.159 95.5211 110.708C96.0151 110.257 96.7604 110.032 97.7571 110.032C98.7451 110.032 99.4904 110.253 99.9931 110.695C100.496 111.137 100.747 111.761 100.747 112.567V115.778C100.747 116.289 100.812 116.697 100.942 117H99.1611C99.1524 117 99.1437 116.97 99.1351 116.909C99.1264 116.848 99.1134 116.757 99.0961 116.636C99.0874 116.506 99.0831 116.376 99.0831 116.246C98.6584 116.853 97.9391 117.156 96.9251 117.156ZM106.248 110.136V111.865C106.118 111.839 105.996 111.826 105.884 111.826C105.338 111.826 104.926 111.969 104.649 112.255C104.38 112.541 104.246 112.992 104.246 113.607V117H102.4V110.188H104.103V111.072C104.493 110.439 105.134 110.123 106.027 110.123L106.248 110.136ZM111.578 110.188H113.892L111.344 113.087L114.074 117H111.89L110.122 114.309L109.095 115.479V117H107.249V107.25H109.095V113.282L111.578 110.188ZM120.868 114.127H115.928C115.988 114.595 116.162 114.955 116.448 115.206C116.734 115.449 117.111 115.57 117.579 115.57C117.873 115.57 118.138 115.509 118.372 115.388C118.614 115.258 118.788 115.072 118.892 114.829H120.751C120.551 115.522 120.157 116.086 119.568 116.519C118.987 116.944 118.307 117.156 117.527 117.156C116.521 117.156 115.698 116.822 115.057 116.155C114.415 115.488 114.095 114.63 114.095 113.581C114.095 112.567 114.415 111.722 115.057 111.046C115.698 110.37 116.517 110.032 117.514 110.032C118.51 110.032 119.321 110.37 119.945 111.046C120.577 111.713 120.894 112.558 120.894 113.581L120.868 114.127ZM117.501 111.514C117.085 111.514 116.742 111.631 116.474 111.865C116.205 112.09 116.032 112.402 115.954 112.801H119.048C118.978 112.411 118.809 112.099 118.541 111.865C118.272 111.631 117.925 111.514 117.501 111.514ZM125.339 115.362V116.961C125.131 117.013 124.841 117.039 124.468 117.039C123.073 117.039 122.375 116.346 122.375 114.959V111.644H121.452V110.188H122.375V108.498H124.221V110.188H125.352V111.644H124.221V114.764C124.221 115.206 124.451 115.427 124.91 115.427L125.339 115.362ZM128.901 117.156C127.046 117.156 126.062 116.367 125.95 114.79H127.822C127.839 115.041 127.939 115.254 128.121 115.427C128.311 115.592 128.589 115.674 128.953 115.674C129.299 115.674 129.564 115.618 129.746 115.505C129.928 115.392 130.019 115.241 130.019 115.05C130.019 114.842 129.889 114.69 129.629 114.595C129.369 114.491 129.052 114.409 128.68 114.348C128.316 114.287 127.947 114.205 127.575 114.101C127.202 113.997 126.886 113.793 126.626 113.49C126.366 113.187 126.236 112.784 126.236 112.281C126.236 111.648 126.487 111.115 126.99 110.682C127.492 110.249 128.151 110.032 128.966 110.032C129.893 110.032 130.582 110.266 131.033 110.734C131.483 111.202 131.726 111.735 131.761 112.333H129.98C129.962 112.099 129.863 111.904 129.681 111.748C129.507 111.592 129.265 111.514 128.953 111.514C128.658 111.514 128.428 111.579 128.264 111.709C128.099 111.83 128.017 111.986 128.017 112.177C128.017 112.385 128.147 112.537 128.407 112.632C128.667 112.727 128.979 112.805 129.343 112.866C129.715 112.918 130.084 112.996 130.448 113.1C130.82 113.204 131.137 113.412 131.397 113.724C131.657 114.036 131.787 114.452 131.787 114.972C131.787 115.605 131.527 116.129 131.007 116.545C130.495 116.952 129.793 117.156 128.901 117.156Z" fill="#F5F5F7"/>
</g>
<rect x="48.5" y="96.5" width="99" height="31" rx="7.5" stroke="white" stroke-opacity="0.08"/>
<rect x="236" y="96" width="32" height="32" rx="8" fill="white" fill-opacity="0.06"/>
<rect x="236.5" y="96.5" width="31" height="31" rx="7.5" stroke="white" stroke-opacity="0.08"/>
<path d="M254.849 114.85L257.333 117.333M251.333 116C253.91 116 255.999 113.911 255.999 111.333C255.999 108.756 253.91 106.667 251.333 106.667C248.755 106.667 246.666 108.756 246.666 111.333C246.666 113.911 248.755 116 251.333 116Z" stroke="#F5F5F7" stroke-linecap="round"/>
<g filter="url(#filter3_i_53148_202653)">
<g clip-path="url(#clip1_53148_202653)">
<rect x="48" y="136" width="220" height="136" rx="8" fill="white" fill-opacity="0.04"/>
<g filter="url(#filter4_bd_53148_202653)">
<rect x="64" y="241" width="400" height="56" rx="8" fill="white" fill-opacity="0.06" shape-rendering="crispEdges"/>
<rect x="64" y="241" width="400" height="56" rx="8" fill="black" fill-opacity="0.2" shape-rendering="crispEdges"/>
<rect x="64.5" y="241.5" width="399" height="55" rx="7.5" stroke="white" stroke-opacity="0.08" shape-rendering="crispEdges"/>
<g opacity="0.2">
<g clip-path="url(#clip2_53148_202653)">
<path d="M92 281C98.6274 281 104 275.627 104 269C104 262.373 98.6274 257 92 257C85.3726 257 80 262.373 80 269C80 275.627 85.3726 281 92 281Z" fill="white"/>
<path d="M87.0776 268.147L86.9432 268.354C85.4279 270.678 85.7664 273.722 87.7569 275.673C88.9279 276.82 90.4626 277.394 91.9974 277.394C91.9974 277.394 91.9974 277.394 87.0776 268.147Z" fill="#00A3FF"/>
<path opacity="0.6" d="M91.996 270.958L87.0762 268.147C91.996 277.394 91.996 277.394 91.996 277.394C91.996 275.38 91.996 273.073 91.996 270.958Z" fill="#00A3FF"/>
<path opacity="0.6" d="M96.9218 268.147L97.0561 268.354C98.5714 270.678 98.233 273.722 96.2425 275.673C95.0715 276.82 93.5367 277.394 92.002 277.394C92.002 277.394 92.002 277.394 96.9218 268.147Z" fill="#00A3FF"/>
<path opacity="0.2" d="M92.002 270.958L96.9218 268.147C92.002 277.394 92.002 277.394 92.002 277.394C92.002 275.38 92.002 273.073 92.002 270.958Z" fill="#00A3FF"/>
<path opacity="0.2" d="M92.0039 264.68V269.527L96.2418 267.105L92.0039 264.68Z" fill="#00A3FF"/>
<path opacity="0.6" d="M92.0026 264.68L87.7617 267.105L92.0026 269.527V264.68Z" fill="#00A3FF"/>
<path d="M92.0026 260.604L87.7617 267.106L92.0026 264.674V260.604Z" fill="#00A3FF"/>
<path opacity="0.6" d="M92.0039 264.674L96.245 267.106L92.0039 260.6V264.674Z" fill="#00A3FF"/>
</g>
<path d="M116 274.692C114.859 274.692 114 274.425 113.424 273.892C112.848 273.359 112.533 272.676 112.48 271.844H114.32C114.341 272.228 114.507 272.537 114.816 272.772C115.125 273.007 115.557 273.124 116.112 273.124C116.603 273.124 116.981 273.039 117.248 272.868C117.515 272.697 117.648 272.468 117.648 272.18C117.648 271.86 117.483 271.625 117.152 271.476C116.832 271.316 116.437 271.199 115.968 271.124C115.499 271.049 115.029 270.953 114.56 270.836C114.091 270.708 113.691 270.463 113.36 270.1C113.04 269.737 112.88 269.241 112.88 268.612C112.88 267.887 113.179 267.273 113.776 266.772C114.384 266.26 115.184 266.004 116.176 266.004C116.741 266.004 117.237 266.095 117.664 266.276C118.101 266.447 118.437 266.676 118.672 266.964C118.917 267.252 119.099 267.545 119.216 267.844C119.344 268.143 119.419 268.447 119.44 268.756H117.616C117.584 268.425 117.44 268.143 117.184 267.908C116.939 267.673 116.587 267.556 116.128 267.556C115.669 267.556 115.317 267.647 115.072 267.828C114.827 267.999 114.704 268.239 114.704 268.548C114.704 268.836 114.864 269.055 115.184 269.204C115.515 269.353 115.915 269.465 116.384 269.54C116.853 269.615 117.323 269.721 117.792 269.86C118.261 269.988 118.656 270.239 118.976 270.612C119.307 270.985 119.472 271.481 119.472 272.1C119.472 272.847 119.168 273.465 118.56 273.956C117.963 274.447 117.109 274.692 116 274.692ZM124.911 272.804V274.452C124.677 274.516 124.346 274.548 123.919 274.548C122.298 274.548 121.487 273.732 121.487 272.1V267.716H120.223V266.196H121.487V264.036H123.391V266.196H124.943V267.716H123.391V271.908C123.391 272.559 123.701 272.884 124.319 272.884L124.911 272.804ZM134.641 272.708V274.5H126.657V263.14H134.641V264.932H128.593V267.844H134.369V269.636H128.593V272.708H134.641ZM144.108 263.14V264.98H140.812V274.5H138.876V264.98H135.58V263.14H144.108ZM154.827 263.14V274.5H152.891V269.636H147.499V274.5H145.563V263.14H147.499V267.844H152.891V263.14H154.827Z" fill="white"/>
</g>
<g opacity="0.2">
<rect x="190" y="265" width="48" height="8" rx="4" fill="white" fill-opacity="0.06"/>
<rect x="190.5" y="265.5" width="47" height="7" rx="3.5" stroke="white" stroke-opacity="0.08"/>
</g>
</g>
<g filter="url(#filter5_bd_53148_202653)">
<rect x="64" y="169" width="432" height="56" rx="8" fill="white" fill-opacity="0.06" shape-rendering="crispEdges"/>
<rect x="64.5" y="169.5" width="431" height="55" rx="7.5" stroke="white" stroke-opacity="0.08" shape-rendering="crispEdges"/>
<g clip-path="url(#clip3_53148_202653)">
<path d="M104 197C104 190.373 98.6274 185 92 185C85.3726 185 80 190.373 80 197C80 203.627 85.3726 209 92 209C98.6274 209 104 203.627 104 197Z" fill="url(#paint2_radial_53148_202653)"/>
<path fill-rule="evenodd" clip-rule="evenodd" d="M82.0391 197C82.0391 191.499 86.4983 187.04 91.9991 187.04C97.4999 187.04 101.959 191.499 101.959 197C101.959 202.501 97.4999 206.96 91.9991 206.96C86.4983 206.96 82.0391 202.501 82.0391 197ZM84.3183 193.416C84.2903 193.286 84.1138 193.261 84.0589 193.382C83.5558 194.484 83.2755 195.709 83.2755 197C83.2755 198.291 83.5558 199.516 84.0589 200.618C84.1138 200.739 84.2908 200.714 84.3204 200.585C84.4102 200.194 84.5365 199.792 84.6946 199.384C85.5335 197.219 87.0172 195.28 88.6481 193.649C89.3254 192.972 90.0247 192.36 90.7268 191.822C90.8046 191.762 90.7979 191.643 90.7129 191.594C90.1798 191.289 89.6612 191.039 89.1685 190.848C88.3554 190.533 87.641 190.389 87.0642 190.402C86.4917 190.414 86.0942 190.577 85.8352 190.836C85.5467 191.125 85.3755 191.588 85.4027 192.272C85.4284 192.914 85.6298 193.698 86.0144 194.573C86.0611 194.679 86.0386 194.803 85.9558 194.885L85.4003 195.479C85.2755 195.601 85.0703 195.577 84.9927 195.42C84.7074 194.844 84.4505 194.027 84.3183 193.416ZM88.3808 189.06C88.2605 189.115 88.2855 189.292 88.4144 189.321C88.8051 189.411 89.2073 189.538 89.6152 189.696C91.4345 190.401 93.4811 191.78 95.3501 193.649C95.9063 194.205 96.5076 195.21 96.6879 196.392C96.7076 196.52 96.8797 196.565 96.9509 196.456C97.4683 195.662 97.8721 194.888 98.1506 194.169C98.4657 193.356 98.6097 192.642 98.5975 192.065C98.5853 191.493 98.4219 191.095 98.163 190.836C97.8679 190.541 97.3579 190.362 96.6491 190.399C95.9862 190.434 95.3583 190.592 94.4833 190.992C94.367 191.045 94.2307 191.032 94.1285 190.955L93.4747 190.448C93.3593 190.361 93.3667 190.186 93.4904 190.111C94.2219 189.672 94.8386 189.399 95.4266 189.292C95.5683 189.267 95.6103 189.055 95.4782 188.998C94.4124 188.534 93.2358 188.276 91.9991 188.276C90.7083 188.276 89.483 188.557 88.3808 189.06ZM94.4731 199.479C95.7957 198.119 95.8429 195.89 94.4757 194.523C93.9681 194.016 93.4501 193.55 92.9309 193.128C92.3865 192.686 91.6116 192.686 91.0673 193.128C90.5473 193.55 90.0292 194.017 89.5224 194.523C88.229 195.817 88.1989 197.876 89.3385 199.272C90.5959 200.813 93.075 200.873 94.4731 199.479ZM92.5989 201.681C92.4691 201.699 92.4228 201.873 92.5325 201.945C93.3299 202.466 94.1076 202.872 94.8296 203.152C95.6427 203.467 96.3572 203.611 96.9339 203.598C97.5065 203.586 97.9039 203.423 98.163 203.164C98.4515 202.875 98.6227 202.412 98.5953 201.728C98.57 201.091 98.3731 200.328 97.9941 199.462C97.9416 199.342 97.9587 199.202 98.0413 199.101L98.6262 198.381C98.7128 198.274 98.8773 198.281 98.9474 198.399C99.3521 199.079 99.5843 199.899 99.6945 200.527C99.7182 200.662 99.9054 200.694 99.9615 200.569C100.451 199.48 100.723 198.272 100.723 197C100.723 195.709 100.442 194.484 99.9392 193.382C99.8843 193.261 99.7073 193.287 99.6777 193.415C99.588 193.806 99.4616 194.208 99.3036 194.616C98.5985 196.435 97.2191 198.482 95.3501 200.351C94.6271 201.074 93.6176 201.54 92.5989 201.681ZM95.6173 204.94C95.7377 204.885 95.7126 204.708 95.5837 204.679C95.193 204.589 94.7909 204.463 94.3829 204.304C92.5637 203.599 90.5171 202.22 88.6481 200.351C88.0651 199.768 87.4817 198.777 87.3081 197.612C87.2889 197.483 87.1164 197.438 87.0452 197.548C86.5287 198.34 86.1257 199.113 85.8475 199.831C85.5324 200.644 85.3883 201.358 85.4007 201.935C85.4129 202.507 85.5761 202.905 85.8352 203.164C86.1205 203.449 86.5767 203.62 87.2476 203.597C87.874 203.576 88.6377 203.386 89.492 203.019C89.6099 202.969 89.7464 202.985 89.8472 203.064L90.4667 203.553C90.578 203.64 90.5695 203.811 90.4466 203.882C89.7699 204.27 89.0118 204.534 88.4137 204.676C88.2851 204.707 88.2605 204.885 88.3808 204.94C89.483 205.443 90.7083 205.724 91.9991 205.724C93.2898 205.724 94.5151 205.443 95.6173 204.94Z" fill="white"/>
<path d="M91.6258 194.652C91.6314 194.647 91.6367 194.642 91.6422 194.637C91.8612 194.437 92.1982 194.441 92.4129 194.646C92.4174 194.65 92.4218 194.654 92.4264 194.659C92.4999 194.727 93.1632 195.345 93.5507 195.769C93.9472 196.255 94.0334 196.971 93.766 197.561C93.0304 199.181 91.0008 199.197 90.2439 197.589C89.9608 196.987 90.0507 196.245 90.4668 195.754C90.7808 195.402 91.539 194.729 91.6258 194.652Z" fill="white"/>
</g>
<path d="M120.384 197.732V202.5H118.48V197.524C118.48 196.265 117.957 195.636 116.912 195.636C116.347 195.636 115.893 195.817 115.552 196.18C115.221 196.543 115.056 197.039 115.056 197.668V202.5H113.152V194.196H114.912V195.3C115.115 194.927 115.424 194.617 115.84 194.372C116.256 194.127 116.773 194.004 117.392 194.004C118.544 194.004 119.376 194.441 119.888 195.316C120.592 194.441 121.531 194.004 122.704 194.004C123.675 194.004 124.421 194.308 124.944 194.916C125.467 195.513 125.728 196.303 125.728 197.284V202.5H123.824V197.524C123.824 196.265 123.301 195.636 122.256 195.636C121.68 195.636 121.221 195.823 120.88 196.196C120.549 196.559 120.384 197.071 120.384 197.732ZM128.909 192.804C128.557 192.804 128.269 192.697 128.045 192.484C127.821 192.26 127.709 191.977 127.709 191.636C127.709 191.284 127.821 190.996 128.045 190.772C128.269 190.548 128.557 190.436 128.909 190.436C129.25 190.436 129.533 190.548 129.757 190.772C129.981 190.996 130.093 191.284 130.093 191.636C130.093 191.977 129.981 192.26 129.757 192.484C129.533 192.697 129.25 192.804 128.909 192.804ZM127.949 202.5V194.196H129.853V202.5H127.949ZM134.056 202.5H132.152V190.5H134.056V202.5ZM141.795 194.196H144.195L140.979 197.7L144.435 202.5H142.163L139.715 198.948L138.259 200.516V202.5H136.355V190.5H138.259V198.244L141.795 194.196ZM152.858 191.14V192.98H149.562V202.5H147.626V192.98H144.33V191.14H152.858ZM156.249 191.14V202.5H154.313V191.14H156.249ZM159.642 202.5H157.594L161.994 191.14H164.058L168.474 202.5H166.362L165.546 200.308H160.458L159.642 202.5ZM163.018 193.54H162.986L161.098 198.548H164.906L163.018 193.54Z" fill="white"/>
<g filter="url(#filter6_d_53148_202653)">
<path d="M213.416 201.384V203H206.472V201.384H208.968V193.56H206.536V192.28L209.352 191.64H210.92V201.384H213.416ZM218.969 203.24C217.646 203.24 216.633 202.707 215.929 201.64C215.235 200.563 214.889 199.123 214.889 197.32C214.889 195.517 215.235 194.083 215.929 193.016C216.633 191.939 217.646 191.4 218.969 191.4C220.281 191.4 221.289 191.939 221.993 193.016C222.697 194.083 223.049 195.517 223.049 197.32C223.049 199.123 222.697 200.563 221.993 201.64C221.289 202.707 220.281 203.24 218.969 203.24ZM221.065 197.32C221.065 194.6 220.366 193.24 218.969 193.24C217.571 193.24 216.873 194.6 216.873 197.32C216.873 200.04 217.571 201.4 218.969 201.4C220.366 201.4 221.065 200.04 221.065 197.32ZM228.281 203.24C226.958 203.24 225.945 202.707 225.241 201.64C224.548 200.563 224.201 199.123 224.201 197.32C224.201 195.517 224.548 194.083 225.241 193.016C225.945 191.939 226.958 191.4 228.281 191.4C229.593 191.4 230.601 191.939 231.305 193.016C232.009 194.083 232.361 195.517 232.361 197.32C232.361 199.123 232.009 200.563 231.305 201.64C230.601 202.707 229.593 203.24 228.281 203.24ZM230.377 197.32C230.377 194.6 229.678 193.24 228.281 193.24C226.884 193.24 226.185 194.6 226.185 197.32C226.185 200.04 226.884 201.4 228.281 201.4C229.678 201.4 230.377 200.04 230.377 197.32ZM236.73 203L243.002 191.64H244.426L238.154 203H236.73ZM235.658 195.176C235.658 195.976 235.748 196.547 235.93 196.888C236.111 197.219 236.383 197.384 236.746 197.384C237.108 197.384 237.38 197.219 237.562 196.888C237.743 196.547 237.834 195.976 237.834 195.176C237.834 194.365 237.743 193.789 237.562 193.448C237.38 193.107 237.108 192.936 236.746 192.936C236.383 192.936 236.111 193.107 235.93 193.448C235.748 193.789 235.658 194.365 235.658 195.176ZM234.154 195.176C234.154 194.045 234.367 193.16 234.794 192.52C235.22 191.869 235.871 191.544 236.746 191.544C237.62 191.544 238.271 191.869 238.698 192.52C239.124 193.16 239.338 194.045 239.338 195.176C239.338 196.296 239.124 197.176 238.698 197.816C238.271 198.456 237.62 198.776 236.746 198.776C235.871 198.776 235.22 198.456 234.794 197.816C234.367 197.176 234.154 196.296 234.154 195.176ZM243.322 199.48C243.322 200.291 243.412 200.867 243.594 201.208C243.775 201.539 244.047 201.704 244.41 201.704C244.772 201.704 245.044 201.539 245.226 201.208C245.407 200.867 245.498 200.291 245.498 199.48C245.498 198.68 245.407 198.109 245.226 197.768C245.044 197.427 244.772 197.256 244.41 197.256C244.047 197.256 243.775 197.427 243.594 197.768C243.412 198.109 243.322 198.68 243.322 199.48ZM241.818 199.48C241.818 198.36 242.031 197.48 242.458 196.84C242.884 196.189 243.535 195.864 244.41 195.864C245.284 195.864 245.935 196.189 246.362 196.84C246.788 197.48 247.002 198.36 247.002 199.48C247.002 200.611 246.788 201.496 246.362 202.136C245.935 202.776 245.284 203.096 244.41 203.096C243.535 203.096 242.884 202.776 242.458 202.136C242.031 201.496 241.818 200.611 241.818 199.48Z" fill="white"/>
</g>
</g>
<path d="M238.96 207.563C238.902 207.563 238.839 207.552 238.781 207.534C238.602 207.47 238.48 207.307 238.48 207.127V192.871C238.48 192.697 238.596 192.54 238.768 192.47C238.832 192.447 238.896 192.435 238.96 192.435C239.081 192.435 239.197 192.476 239.286 192.552L250.795 202.313C250.942 202.435 250.987 202.627 250.917 202.79C250.846 202.959 250.667 203.069 250.469 203.069H243.915L239.305 207.429C239.209 207.517 239.088 207.563 238.96 207.563Z" fill="#1A1D1F"/>
<path d="M251.12 201.994L239.611 192.233C239.432 192.081 239.196 192 238.959 192C238.831 192 238.697 192.023 238.575 192.07C238.224 192.209 238 192.523 238 192.872V207.128C238 207.483 238.237 207.802 238.601 207.936C238.716 207.977 238.838 208 238.959 208C239.215 208 239.464 207.907 239.65 207.733L244.119 203.506H250.468C250.865 203.506 251.216 203.285 251.363 202.953C251.504 202.616 251.408 202.238 251.12 201.994ZM243.71 202.628L238.959 207.122V192.866L250.468 202.628H243.71Z" fill="white"/>
<path d="M81.664 161H80L83.575 151.77H85.252L88.84 161H87.124L86.461 159.219H82.327L81.664 161ZM84.407 153.72H84.381L82.847 157.789H85.941L84.407 153.72ZM92.0859 161.156C91.1586 161.156 90.4609 160.939 89.9929 160.506C89.5249 160.073 89.2693 159.518 89.2259 158.842H90.7209C90.7383 159.154 90.8726 159.405 91.1239 159.596C91.3753 159.787 91.7263 159.882 92.1769 159.882C92.5756 159.882 92.8833 159.813 93.0999 159.674C93.3166 159.535 93.4249 159.349 93.4249 159.115C93.4249 158.855 93.2906 158.664 93.0219 158.543C92.7619 158.413 92.4413 158.318 92.0599 158.257C91.6786 158.196 91.2973 158.118 90.9159 158.023C90.5346 157.919 90.2096 157.72 89.9409 157.425C89.6809 157.13 89.5509 156.727 89.5509 156.216C89.5509 155.627 89.7936 155.128 90.2789 154.721C90.7729 154.305 91.4229 154.097 92.2289 154.097C92.6883 154.097 93.0913 154.171 93.4379 154.318C93.7933 154.457 94.0663 154.643 94.2569 154.877C94.4563 155.111 94.6036 155.349 94.6989 155.592C94.8029 155.835 94.8636 156.082 94.8809 156.333H93.3989C93.3729 156.064 93.2559 155.835 93.0479 155.644C92.8486 155.453 92.5626 155.358 92.1899 155.358C91.8173 155.358 91.5313 155.432 91.3319 155.579C91.1326 155.718 91.0329 155.913 91.0329 156.164C91.0329 156.398 91.1629 156.576 91.4229 156.697C91.6916 156.818 92.0166 156.909 92.3979 156.97C92.7793 157.031 93.1606 157.117 93.5419 157.23C93.9233 157.334 94.2439 157.538 94.5039 157.841C94.7726 158.144 94.9069 158.547 94.9069 159.05C94.9069 159.657 94.6599 160.159 94.1659 160.558C93.6806 160.957 92.9873 161.156 92.0859 161.156ZM98.4717 161.156C97.5443 161.156 96.8467 160.939 96.3787 160.506C95.9107 160.073 95.655 159.518 95.6117 158.842H97.1067C97.124 159.154 97.2583 159.405 97.5097 159.596C97.761 159.787 98.112 159.882 98.5627 159.882C98.9613 159.882 99.269 159.813 99.4857 159.674C99.7023 159.535 99.8107 159.349 99.8107 159.115C99.8107 158.855 99.6763 158.664 99.4077 158.543C99.1477 158.413 98.827 158.318 98.4457 158.257C98.0643 158.196 97.683 158.118 97.3017 158.023C96.9203 157.919 96.5953 157.72 96.3267 157.425C96.0667 157.13 95.9367 156.727 95.9367 156.216C95.9367 155.627 96.1793 155.128 96.6647 154.721C97.1587 154.305 97.8087 154.097 98.6147 154.097C99.074 154.097 99.477 154.171 99.8237 154.318C100.179 154.457 100.452 154.643 100.643 154.877C100.842 155.111 100.989 155.349 101.085 155.592C101.189 155.835 101.249 156.082 101.267 156.333H99.7847C99.7587 156.064 99.6417 155.835 99.4337 155.644C99.2343 155.453 98.9483 155.358 98.5757 155.358C98.203 155.358 97.917 155.432 97.7177 155.579C97.5183 155.718 97.4187 155.913 97.4187 156.164C97.4187 156.398 97.5487 156.576 97.8087 156.697C98.0773 156.818 98.4023 156.909 98.7837 156.97C99.165 157.031 99.5463 157.117 99.9277 157.23C100.309 157.334 100.63 157.538 100.89 157.841C101.158 158.144 101.293 158.547 101.293 159.05C101.293 159.657 101.046 160.159 100.552 160.558C100.066 160.957 99.373 161.156 98.4717 161.156ZM108.897 158.075H103.762C103.823 158.612 104.018 159.041 104.347 159.362C104.676 159.674 105.11 159.83 105.647 159.83C106.002 159.83 106.323 159.743 106.609 159.57C106.895 159.397 107.099 159.163 107.22 158.868H108.78C108.572 159.553 108.182 160.107 107.61 160.532C107.047 160.948 106.379 161.156 105.608 161.156C104.603 161.156 103.788 160.822 103.164 160.155C102.549 159.488 102.241 158.643 102.241 157.62C102.241 156.623 102.553 155.787 103.177 155.111C103.801 154.435 104.607 154.097 105.595 154.097C106.583 154.097 107.38 154.431 107.987 155.098C108.602 155.757 108.91 156.589 108.91 157.594L108.897 158.075ZM105.595 155.358C105.11 155.358 104.707 155.501 104.386 155.787C104.065 156.073 103.866 156.454 103.788 156.931H107.376C107.307 156.454 107.116 156.073 106.804 155.787C106.492 155.501 106.089 155.358 105.595 155.358ZM113.355 159.622V160.961C113.164 161.013 112.895 161.039 112.549 161.039C111.231 161.039 110.573 160.376 110.573 159.05V155.488H109.546V154.253H110.573V152.498H112.12V154.253H113.381V155.488H112.12V158.894C112.12 159.423 112.371 159.687 112.874 159.687L113.355 159.622Z" fill="#A4A5A8"/>
<path d="M224.727 161H223.063L226.638 151.77H228.315L231.903 161H230.187L229.524 159.219H225.39L224.727 161ZM227.47 153.72H227.444L225.91 157.789H229.004L227.47 153.72ZM234.564 155.904H236.826C237.329 155.904 237.702 155.787 237.944 155.553C238.196 155.319 238.321 154.994 238.321 154.578C238.321 154.162 238.196 153.833 237.944 153.59C237.693 153.347 237.32 153.226 236.826 153.226H234.564V155.904ZM234.564 157.36V161H232.991V151.77H236.813C237.862 151.77 238.638 152.03 239.14 152.55C239.652 153.061 239.907 153.737 239.907 154.578C239.907 155.41 239.647 156.082 239.127 156.593C238.607 157.104 237.836 157.36 236.813 157.36H234.564ZM248.755 161H246.909L245.037 157.36H242.918V161H241.345V151.77H245.401C246.389 151.77 247.143 152.026 247.663 152.537C248.183 153.048 248.443 153.724 248.443 154.565C248.443 155.198 248.291 155.744 247.988 156.203C247.685 156.654 247.234 156.974 246.636 157.165L248.755 161ZM246.493 155.54C246.736 155.297 246.857 154.972 246.857 154.565C246.857 154.158 246.736 153.833 246.493 153.59C246.25 153.347 245.891 153.226 245.414 153.226H242.918V155.904H245.414C245.891 155.904 246.25 155.783 246.493 155.54Z" fill="#A4A5A8"/>
</g>
<rect x="48.5" y="136.5" width="219" height="135" rx="7.5" stroke="white" stroke-opacity="0.04"/>
</g>
</g>
<defs>
<filter id="filter0_di_53148_202653" x="0" y="0" width="316" height="120" filterUnits="userSpaceOnUse" color-interpolation-filters="sRGB">
<feFlood flood-opacity="0" result="BackgroundImageFix"/>
<feColorMatrix in="SourceAlpha" type="matrix" values="0 0 0 0 0 0 0 0 0 0 0 0 0 0 0 0 0 0 127 0" result="hardAlpha"/>
<feOffset/>
<feGaussianBlur stdDeviation="20"/>
<feComposite in2="hardAlpha" operator="out"/>
<feColorMatrix type="matrix" values="0 0 0 0 0.145098 0 0 0 0 0.317647 0 0 0 0 1 0 0 0 0.5 0"/>
<feBlend mode="normal" in2="BackgroundImageFix" result="effect1_dropShadow_53148_202653"/>
<feBlend mode="normal" in="SourceGraphic" in2="effect1_dropShadow_53148_202653" result="shape"/>
<feColorMatrix in="SourceAlpha" type="matrix" values="0 0 0 0 0 0 0 0 0 0 0 0 0 0 0 0 0 0 127 0" result="hardAlpha"/>
<feOffset dy="1"/>
<feComposite in2="hardAlpha" operator="arithmetic" k2="-1" k3="1"/>
<feColorMatrix type="matrix" values="0 0 0 0 1 0 0 0 0 1 0 0 0 0 1 0 0 0 0.08 0"/>
<feBlend mode="normal" in2="shape" result="effect2_innerShadow_53148_202653"/>
</filter>
<filter id="filter1_i_53148_202653" x="137" y="53" width="24" height="14" filterUnits="userSpaceOnUse" color-interpolation-filters="sRGB">
<feFlood flood-opacity="0" result="BackgroundImageFix"/>
<feBlend mode="normal" in="SourceGraphic" in2="BackgroundImageFix" result="shape"/>
<feColorMatrix in="SourceAlpha" type="matrix" values="0 0 0 0 0 0 0 0 0 0 0 0 0 0 0 0 0 0 127 0" result="hardAlpha"/>
<feOffset dy="1"/>
<feComposite in2="hardAlpha" operator="arithmetic" k2="-1" k3="1"/>
<feColorMatrix type="matrix" values="0 0 0 0 1 0 0 0 0 1 0 0 0 0 1 0 0 0 0.08 0"/>
<feBlend mode="normal" in2="shape" result="effect1_innerShadow_53148_202653"/>
</filter>
<filter id="filter2_i_53148_202653" x="40" y="88" width="236" height="192" filterUnits="userSpaceOnUse" color-interpolation-filters="sRGB">
<feFlood flood-opacity="0" result="BackgroundImageFix"/>
<feBlend mode="normal" in="SourceGraphic" in2="BackgroundImageFix" result="shape"/>
<feColorMatrix in="SourceAlpha" type="matrix" values="0 0 0 0 0 0 0 0 0 0 0 0 0 0 0 0 0 0 127 0" result="hardAlpha"/>
<feOffset dy="1"/>
<feComposite in2="hardAlpha" operator="arithmetic" k2="-1" k3="1"/>
<feColorMatrix type="matrix" values="0 0 0 0 1 0 0 0 0 1 0 0 0 0 1 0 0 0 0.08 0"/>
<feBlend mode="normal" in2="shape" result="effect1_innerShadow_53148_202653"/>
</filter>
<filter id="filter3_i_53148_202653" x="48" y="136" width="220" height="136" filterUnits="userSpaceOnUse" color-interpolation-filters="sRGB">
<feFlood flood-opacity="0" result="BackgroundImageFix"/>
<feBlend mode="normal" in="SourceGraphic" in2="BackgroundImageFix" result="shape"/>
<feColorMatrix in="SourceAlpha" type="matrix" values="0 0 0 0 0 0 0 0 0 0 0 0 0 0 0 0 0 0 127 0" result="hardAlpha"/>
<feOffset dy="1"/>
<feComposite in2="hardAlpha" operator="arithmetic" k2="-1" k3="1"/>
<feColorMatrix type="matrix" values="0 0 0 0 1 0 0 0 0 1 0 0 0 0 1 0 0 0 0.08 0"/>
<feBlend mode="normal" in2="shape" result="effect1_innerShadow_53148_202653"/>
</filter>
<filter id="filter4_bd_53148_202653" x="34" y="211" width="460" height="116" filterUnits="userSpaceOnUse" color-interpolation-filters="sRGB">
<feFlood flood-opacity="0" result="BackgroundImageFix"/>
<feGaussianBlur in="BackgroundImageFix" stdDeviation="15"/>
<feComposite in2="SourceAlpha" operator="in" result="effect1_backgroundBlur_53148_202653"/>
<feColorMatrix in="SourceAlpha" type="matrix" values="0 0 0 0 0 0 0 0 0 0 0 0 0 0 0 0 0 0 127 0" result="hardAlpha"/>
<feOffset dy="4"/>
<feGaussianBlur stdDeviation="6"/>
<feComposite in2="hardAlpha" operator="out"/>
<feColorMatrix type="matrix" values="0 0 0 0 0 0 0 0 0 0 0 0 0 0 0 0 0 0 0.25 0"/>
<feBlend mode="normal" in2="effect1_backgroundBlur_53148_202653" result="effect2_dropShadow_53148_202653"/>
<feBlend mode="normal" in="SourceGraphic" in2="effect2_dropShadow_53148_202653" result="shape"/>
</filter>
<filter id="filter5_bd_53148_202653" x="34" y="139" width="492" height="116" filterUnits="userSpaceOnUse" color-interpolation-filters="sRGB">
<feFlood flood-opacity="0" result="BackgroundImageFix"/>
<feGaussianBlur in="BackgroundImageFix" stdDeviation="15"/>
<feComposite in2="SourceAlpha" operator="in" result="effect1_backgroundBlur_53148_202653"/>
<feColorMatrix in="SourceAlpha" type="matrix" values="0 0 0 0 0 0 0 0 0 0 0 0 0 0 0 0 0 0 127 0" result="hardAlpha"/>
<feOffset dy="4"/>
<feGaussianBlur stdDeviation="6"/>
<feComposite in2="hardAlpha" operator="out"/>
<feColorMatrix type="matrix" values="0 0 0 0 0 0 0 0 0 0 0 0 0 0 0 0 0 0 0.25 0"/>
<feBlend mode="normal" in2="effect1_backgroundBlur_53148_202653" result="effect2_dropShadow_53148_202653"/>
<feBlend mode="normal" in="SourceGraphic" in2="effect2_dropShadow_53148_202653" result="shape"/>
</filter>
<filter id="filter6_d_53148_202653" x="174.473" y="159.4" width="104.529" height="75.8401" filterUnits="userSpaceOnUse" color-interpolation-filters="sRGB">
<feFlood flood-opacity="0" result="BackgroundImageFix"/>
<feColorMatrix in="SourceAlpha" type="matrix" values="0 0 0 0 0 0 0 0 0 0 0 0 0 0 0 0 0 0 127 0" result="hardAlpha"/>
<feOffset/>
<feGaussianBlur stdDeviation="16"/>
<feComposite in2="hardAlpha" operator="out"/>
<feColorMatrix type="matrix" values="0 0 0 0 1 0 0 0 0 1 0 0 0 0 1 0 0 0 1 0"/>
<feBlend mode="normal" in2="BackgroundImageFix" result="effect1_dropShadow_53148_202653"/>
<feBlend mode="normal" in="SourceGraphic" in2="effect1_dropShadow_53148_202653" result="shape"/>
</filter>
<linearGradient id="paint0_linear_53148_202653" x1="276" y1="60" x2="40" y2="60.0001" gradientUnits="userSpaceOnUse">
<stop stop-color="#482BFF"/>
<stop offset="1" stop-color="#007AFF"/>
</linearGradient>
<linearGradient id="paint1_linear_53148_202653" x1="276" y1="60" x2="40" y2="60.0001" gradientUnits="userSpaceOnUse">
<stop stop-color="#482BFF"/>
<stop offset="1" stop-color="#007AFF"/>
</linearGradient>
<radialGradient id="paint2_radial_53148_202653" cx="0" cy="0" r="1" gradientUnits="userSpaceOnUse" gradientTransform="translate(104 184.46) rotate(134.363) scale(34.325 22.9646)">
<stop stop-color="#5278FF"/>
<stop offset="0.361196" stop-color="#BE7CFF"/>
<stop offset="0.756992" stop-color="#E69EFE"/>
<stop offset="1" stop-color="#F7D4F5"/>
</radialGradient>
<clipPath id="clip0_53148_202653">
<rect x="48" y="96" width="100" height="32" rx="8" fill="white"/>
</clipPath>
<clipPath id="clip1_53148_202653">
<rect x="48" y="136" width="220" height="136" rx="8" fill="white"/>
</clipPath>
<clipPath id="clip2_53148_202653">
<rect width="24" height="24" fill="white" transform="translate(80 257)"/>
</clipPath>
<clipPath id="clip3_53148_202653">
<rect width="24" height="24" fill="white" transform="translate(80 185)"/>
</clipPath>
</defs>
</svg>
