<svg width="654" height="206" viewBox="0 0 654 206" fill="none" xmlns="http://www.w3.org/2000/svg">
<g filter="url(#filter0_d_7097_134201)">
<path fill-rule="evenodd" clip-rule="evenodd" d="M582.615 104.397C575.49 101.057 569.822 99.7475 568.822 101.475C567.823 103.203 571.778 107.461 578.221 111.98C571.755 116.475 567.784 120.72 568.776 122.45C569.769 124.181 575.454 122.886 582.612 119.564C583.29 127.424 584.996 133 586.992 133C588.985 133 590.689 127.441 591.369 119.599C598.497 122.942 604.162 124.253 605.161 122.524C606.161 120.799 602.205 116.538 595.764 112.018C602.229 107.524 606.199 103.278 605.207 101.549C604.214 99.8172 598.53 101.112 591.372 104.435C590.694 96.575 588.988 91 586.992 91C584.999 91 583.296 96.5573 582.615 104.397ZM582.531 105.45C582.44 106.686 582.375 107.973 582.337 109.299C581.191 110 580.094 110.706 579.056 111.408C576.312 109.442 574.392 107.83 574.392 107.83C570.015 104.144 569.686 102.347 569.686 102.347L569.684 102.342C569.492 101.886 569.898 101.777 569.898 101.777C571.693 101.438 574.215 102.21 574.215 102.21C576.587 102.75 579.602 104.02 582.531 105.45ZM583.424 105.892C583.396 106.192 583.368 106.499 583.342 106.813C583.342 106.813 583.317 107.529 583.302 108.716C583.745 108.452 584.195 108.189 584.651 107.927C585.084 107.679 585.515 107.436 585.945 107.199C585.131 106.764 584.284 106.324 583.424 105.892ZM587.008 106.62C585.824 105.978 584.66 105.381 583.528 104.832C584.534 95.039 586.145 92.6159 586.715 92.0514C586.778 91.9901 586.859 91.9527 586.946 91.9456C587.033 91.9386 587.12 91.9625 587.191 92.013C588.072 92.6376 588.811 95.2495 588.811 95.2495C589.748 98.7249 590.246 102.109 590.51 104.842C589.371 105.387 588.2 105.981 587.008 106.62ZM586.96 107.748C585.921 108.337 584.656 109.072 583.291 109.902C583.286 111.124 583.294 112.631 583.337 114.274C584.203 114.81 585.091 115.329 585.98 115.808C585.98 115.808 586.334 116.026 586.979 116.386C587.928 115.881 588.876 115.345 589.786 114.786C589.786 114.786 590.151 114.588 590.787 114.21C590.822 113.13 590.829 112.036 590.797 110.962C590.797 110.962 590.806 110.59 590.798 109.923C589.745 109.305 588.424 108.548 586.96 107.748ZM590.77 108.773C590.304 108.492 589.831 108.212 589.351 107.934C588.898 107.671 588.446 107.415 587.997 107.164C589.039 106.585 589.674 106.248 589.674 106.248C589.989 106.102 590.296 105.961 590.597 105.824C590.691 106.967 590.742 107.967 590.77 108.773ZM591.673 110.441C591.682 110.956 591.686 111.476 591.686 112C591.686 112.563 591.681 113.121 591.672 113.673C592.362 113.244 593.211 112.697 594.166 112.04C593.888 111.842 593.603 111.641 593.311 111.436C593.311 111.436 592.7 111.053 591.673 110.441ZM594.976 111.473C593.924 110.753 592.811 110.029 591.648 109.31C591.61 107.976 591.544 106.682 591.452 105.438C600.473 101.423 603.383 101.617 604.156 101.83C604.24 101.853 604.314 101.906 604.363 101.978C604.412 102.051 604.434 102.138 604.425 102.225C604.326 103.301 602.424 105.241 602.424 105.241C599.886 107.774 597.21 109.885 594.976 111.473ZM594.93 112.589C593.891 113.292 592.794 113.998 591.648 114.7C591.609 116.058 591.541 117.375 591.447 118.639C593.939 119.777 597.108 121.037 600.573 121.966C600.573 121.966 603.204 122.636 604.186 122.186C604.266 122.15 604.33 122.087 604.368 122.008C604.405 121.93 604.414 121.84 604.392 121.755C604.189 120.981 602.901 118.371 594.93 112.589ZM590.545 118.22C590.627 117.272 590.697 116.27 590.746 115.244C590.282 115.521 589.81 115.797 589.332 116.071C588.849 116.349 588.367 116.619 587.889 116.883C588.604 117.265 589.502 117.724 590.545 118.22ZM586.054 116.869C585.585 116.608 585.113 116.34 584.639 116.065C584.21 115.817 583.786 115.567 583.369 115.316C583.4 116.227 583.443 117.168 583.5 118.117C584.324 117.733 585.185 117.315 586.054 116.869ZM582.312 113.627C582.303 113.09 582.298 112.548 582.298 112C582.298 111.497 582.302 110.998 582.31 110.504C581.529 110.989 580.727 111.498 579.926 112.024C580.68 112.551 581.481 113.092 582.312 113.627ZM579.089 112.58C580.117 113.282 581.203 113.987 582.336 114.687C582.374 116.022 582.44 117.318 582.532 118.562C579.44 119.959 577.07 120.82 577.07 120.82C571.689 122.759 569.967 122.141 569.967 122.141C569.473 122.079 569.584 121.673 569.584 121.673C570.191 119.949 572.119 118.153 572.119 118.153C573.776 116.371 576.384 114.398 579.089 112.58ZM586.979 117.377C588.163 118.019 589.327 118.616 590.459 119.165C590.133 122.526 589.703 124.995 589.703 124.995C588.709 130.628 587.316 131.815 587.316 131.815C587.02 132.21 586.723 131.914 586.723 131.914C585.53 130.53 584.933 127.961 584.933 127.961C584.209 125.631 583.795 122.374 583.565 119.113C584.675 118.58 585.817 118 586.979 117.377Z" fill="#6F7390"/>
<path d="M598.505 102.463C598.505 103.282 597.864 103.946 597.072 103.946C596.281 103.946 595.639 103.282 595.639 102.463C595.639 101.645 596.281 100.981 597.072 100.981C597.864 100.981 598.505 101.645 598.505 102.463Z" fill="#B7B9C8"/>
<path d="M589.413 111.95C589.413 113.315 588.307 114.421 586.943 114.421C585.578 114.421 584.472 113.315 584.472 111.95C584.472 110.586 585.578 109.48 586.943 109.48C588.307 109.48 589.413 110.586 589.413 111.95Z" fill="#B7B9C8"/>
<path d="M573.552 108.986C574.344 108.986 574.985 108.322 574.985 107.503C574.985 106.685 574.344 106.021 573.552 106.021C572.761 106.021 572.119 106.685 572.119 107.503C572.119 108.322 572.761 108.986 573.552 108.986Z" fill="#B7B9C8"/>
<path d="M585.46 125.687C585.46 126.505 584.819 127.169 584.027 127.169C583.236 127.169 582.594 126.505 582.594 125.687C582.594 124.868 583.236 124.204 584.027 124.204C584.819 124.204 585.46 124.868 585.46 125.687Z" fill="#B7B9C8"/>
</g>
<path d="M472.333 64C472.333 65.4728 473.527 66.6667 475 66.6667C476.473 66.6667 477.667 65.4728 477.667 64C477.667 62.5272 476.473 61.3333 475 61.3333C473.527 61.3333 472.333 62.5272 472.333 64ZM435.419 92.0789L435.846 92.3387L435.419 92.0789ZM451.331 65.9211L451.758 66.181L451.331 65.9211ZM372 94.5H432.001V93.5H372V94.5ZM435.846 92.3387L451.758 66.181L450.904 65.6613L434.992 91.819L435.846 92.3387ZM454.749 64.5H475V63.5H454.749V64.5ZM432.001 94.5C433.572 94.5 435.029 93.6808 435.846 92.3387L434.992 91.819C434.357 92.8629 433.223 93.5 432.001 93.5V94.5ZM451.758 66.181C452.393 65.1371 453.527 64.5 454.749 64.5V63.5C453.178 63.5 451.721 64.3192 450.904 65.6613L451.758 66.181Z" fill="url(#paint0_linear_7097_134201)"/>
<path d="M428.333 73C428.333 74.4728 429.527 75.6667 431 75.6667C432.473 75.6667 433.667 74.4728 433.667 73C433.667 71.5272 432.473 70.3333 431 70.3333C429.527 70.3333 428.333 71.5272 428.333 73ZM400.202 86.9246L399.764 86.684L400.202 86.9246ZM406.706 75.0754L407.144 75.316L406.706 75.0754ZM372 89.5H396.696V88.5H372V89.5ZM400.641 87.1651L407.144 75.316L406.267 74.8349L399.764 86.684L400.641 87.1651ZM410.212 73.5H431V72.5H410.212V73.5ZM396.696 89.5C398.338 89.5 399.85 88.6051 400.641 87.1651L399.764 86.684C399.149 87.8039 397.973 88.5 396.696 88.5V89.5ZM407.144 75.316C407.759 74.1961 408.935 73.5 410.212 73.5V72.5C408.57 72.5 407.058 73.3949 406.267 74.8349L407.144 75.316Z" fill="url(#paint1_linear_7097_134201)"/>
<path d="M534.333 139C534.333 137.527 535.527 136.333 537 136.333C538.473 136.333 539.667 137.527 539.667 139C539.667 140.473 538.473 141.667 537 141.667C535.527 141.667 534.333 140.473 534.333 139ZM508.481 138.278L508.194 138.688L508.481 138.278ZM372 109.5H466.786V110.5H372V109.5ZM469.365 110.312L508.768 137.868L508.194 138.688L468.792 111.132L469.365 110.312ZM510.773 138.5H537V139.5H510.773V138.5ZM466.786 109.5C467.709 109.5 468.609 109.784 469.365 110.312L468.792 111.132C468.204 110.721 467.504 110.5 466.786 110.5V109.5ZM508.768 137.868C509.356 138.279 510.056 138.5 510.773 138.5V139.5C509.851 139.5 508.95 139.216 508.194 138.688L508.768 137.868Z" fill="url(#paint2_linear_7097_134201)"/>
<path d="M105.667 78C105.667 79.4728 104.473 80.6667 103 80.6667C101.527 80.6667 100.333 79.4728 100.333 78C100.333 76.5272 101.527 75.3333 103 75.3333C104.473 75.3333 105.667 76.5272 105.667 78ZM172.76 93.2203L172.463 93.6229L172.76 93.2203ZM153.16 78.7797L152.864 79.1822L153.16 78.7797ZM292 94.5H175.132V93.5H292V94.5ZM172.463 93.6229L152.864 79.1822L153.457 78.3771L173.056 92.8178L172.463 93.6229ZM150.788 78.5H103V77.5H150.788V78.5ZM175.132 94.5C174.172 94.5 173.236 94.1926 172.463 93.6229L173.056 92.8178C173.658 93.2609 174.385 93.5 175.132 93.5V94.5ZM152.864 79.1822C152.262 78.7391 151.535 78.5 150.788 78.5V77.5C151.748 77.5 152.683 77.8074 153.457 78.3771L152.864 79.1822Z" fill="url(#paint3_linear_7097_134201)"/>
<path d="M215.667 75C215.667 76.4728 214.473 77.6667 213 77.6667C211.527 77.6667 210.333 76.4728 210.333 75C210.333 73.5272 211.527 72.3333 213 72.3333C214.473 72.3333 215.667 73.5272 215.667 75ZM236.793 76.3099L237.163 75.9736L236.793 76.3099ZM292 86.5H247.369V85.5H292V86.5ZM244.038 85.0264L236.423 76.6461L237.163 75.9736L244.778 84.3539L244.038 85.0264ZM233.833 75.5H213V74.5H233.833V75.5ZM247.369 86.5C246.101 86.5 244.891 85.9649 244.038 85.0264L244.778 84.3539C245.442 85.0838 246.382 85.5 247.369 85.5V86.5ZM236.423 76.6461C235.759 75.9162 234.819 75.5 233.833 75.5V74.5C235.101 74.5 236.31 75.0351 237.163 75.9736L236.423 76.6461Z" fill="url(#paint4_linear_7097_134201)"/>
<path d="M201.667 152C201.667 150.527 200.473 149.333 199 149.333C197.527 149.333 196.333 150.527 196.333 152C196.333 153.473 197.527 154.667 199 154.667C200.473 154.667 201.667 153.473 201.667 152ZM256.398 107.535L256.791 107.843L256.398 107.535ZM222.804 150.465L223.197 150.773L222.804 150.465ZM292 105.5H259.548V106.5H292V105.5ZM256.004 107.227L222.41 150.157L223.197 150.773L256.791 107.843L256.004 107.227ZM219.653 151.5H199V152.5H219.653V151.5ZM259.548 105.5C258.164 105.5 256.857 106.137 256.004 107.227L256.791 107.843C257.455 106.995 258.471 106.5 259.548 106.5V105.5ZM222.41 150.157C221.746 151.005 220.73 151.5 219.653 151.5V152.5C221.037 152.5 222.344 151.863 223.197 150.773L222.41 150.157Z" fill="url(#paint5_linear_7097_134201)"/>
<path d="M205.667 64C205.667 65.4728 204.473 66.6667 203 66.6667C201.527 66.6667 200.333 65.4728 200.333 64C200.333 62.5272 201.527 61.3333 203 61.3333C204.473 61.3333 205.667 62.5272 205.667 64ZM266.634 94.3407L239.895 65.6153L240.627 64.934L267.366 93.6593L266.634 94.3407ZM237.334 64.5H203V63.5H237.334V64.5ZM239.895 65.6153C239.233 64.904 238.305 64.5 237.334 64.5V63.5C238.583 63.5 239.776 64.0194 240.627 64.934L239.895 65.6153Z" fill="url(#paint6_linear_7097_134201)"/>
<path d="M186.667 138C186.667 136.527 185.473 135.333 184 135.333C182.527 135.333 181.333 136.527 181.333 138C181.333 139.473 182.527 140.667 184 140.667C185.473 140.667 186.667 139.473 186.667 138ZM223.266 123.549L223.661 123.855L223.266 123.549ZM213.259 136.451L212.864 136.145L213.259 136.451ZM292 121.5H226.427V122.5H292V121.5ZM222.871 123.242L212.864 136.145L213.654 136.758L223.661 123.855L222.871 123.242ZM210.099 137.5H184V138.5H210.099V137.5ZM226.427 121.5C225.036 121.5 223.724 122.143 222.871 123.242L223.661 123.855C224.324 123 225.345 122.5 226.427 122.5V121.5ZM212.864 136.145C212.201 137 211.18 137.5 210.099 137.5V138.5C211.489 138.5 212.802 137.857 213.654 136.758L212.864 136.145Z" fill="url(#paint7_linear_7097_134201)"/>
<path d="M552.333 112C552.333 110.527 553.527 109.333 555 109.333C556.473 109.333 557.667 110.527 557.667 112C557.667 113.473 556.473 114.667 555 114.667C553.527 114.667 552.333 113.473 552.333 112ZM503.205 103.723L503.492 103.314L503.205 103.723ZM513.991 111.277L513.704 111.686L513.991 111.277ZM372 102.5H500.91V103.5H372V102.5ZM503.492 103.314L514.278 110.867L513.704 111.686L502.918 104.133L503.492 103.314ZM516.286 111.5H555V112.5H516.286V111.5ZM500.91 102.5C501.834 102.5 502.735 102.784 503.492 103.314L502.918 104.133C502.33 103.721 501.629 103.5 500.91 103.5V102.5ZM514.278 110.867C514.866 111.279 515.567 111.5 516.286 111.5V112.5C515.362 112.5 514.461 112.216 513.704 111.686L514.278 110.867Z" fill="url(#paint8_linear_7097_134201)"/>
<path d="M433.333 140C433.333 138.527 434.527 137.333 436 137.333C437.473 137.333 438.667 138.527 438.667 140C438.667 141.473 437.473 142.667 436 142.667C434.527 142.667 433.333 141.473 433.333 140ZM401.873 117.342L401.499 117.674L401.873 117.342ZM420.826 138.658L421.2 138.326L420.826 138.658ZM372 115.5H398.884V116.5H372V115.5ZM402.247 117.01L421.2 138.326L420.452 138.99L401.499 117.674L402.247 117.01ZM423.815 139.5H436V140.5H423.815V139.5ZM398.884 115.5C400.169 115.5 401.393 116.049 402.247 117.01L401.499 117.674C400.835 116.927 399.883 116.5 398.884 116.5V115.5ZM421.2 138.326C421.864 139.073 422.816 139.5 423.815 139.5V140.5C422.53 140.5 421.306 139.951 420.452 138.99L421.2 138.326Z" fill="url(#paint9_linear_7097_134201)"/>
<g filter="url(#filter1_d_7097_134201)">
<path d="M330 49.1547C331.238 48.4402 332.762 48.4402 334 49.1547L377.631 74.3453C378.869 75.0598 379.631 76.3803 379.631 77.8094V128.191C379.631 129.62 378.869 130.94 377.631 131.655L334 156.845C332.762 157.56 331.238 157.56 330 156.845L286.369 131.655C285.131 130.94 284.369 129.62 284.369 128.191V77.8094C284.369 76.3803 285.131 75.0598 286.369 74.3453L330 49.1547Z" fill="#272A2E"/>
<path d="M330.25 49.5877C331.333 48.9625 332.667 48.9625 333.75 49.5877L377.381 74.7783C378.464 75.4035 379.131 76.559 379.131 77.8094V128.191C379.131 129.441 378.464 130.596 377.381 131.222L333.75 156.412C332.667 157.037 331.333 157.037 330.25 156.412L286.619 131.222C285.536 130.596 284.869 129.441 284.869 128.191V77.8094C284.869 76.559 285.536 75.4035 286.619 74.7783L330.25 49.5877Z" stroke="white" stroke-opacity="0.08"/>
</g>
<circle cx="332" cy="103" r="32" fill="url(#paint10_linear_7097_134201)"/>
<path d="M311.557 104.644C309.463 109.854 311.967 115.784 317.152 117.889L324.737 99.0226C319.553 96.9177 313.652 99.4347 311.557 104.644Z" fill="white"/>
<path d="M324.168 108.197C321.774 114.151 324.637 120.928 330.562 123.333C336.487 125.739 343.231 122.862 345.625 116.908L324.168 108.197Z" fill="white"/>
<path d="M344.134 81.8169C351.541 84.8239 355.119 93.2948 352.127 100.737C349.134 108.18 340.704 111.776 333.298 108.769L344.134 81.8169Z" fill="white"/>
<path d="M317.775 93.0606C319.57 88.5951 324.628 86.4377 329.072 88.2419C333.515 90.0461 335.662 95.1287 333.867 99.5942L317.775 93.0606Z" fill="white"/>
<path d="M500.905 43L501.162 43.875V69.264L500.905 69.521L489.144 62.5547L500.905 43Z" fill="#7F7CFF"/>
<path d="M500.906 43L512.667 62.5547L500.906 69.5211V57.198V43Z" fill="#7F7CFF"/>
<path d="M500.905 73.3553L501.05 73.5322V82.5763L500.905 83L489.137 66.3926L500.905 73.3553Z" fill="#7F7CFF"/>
<path d="M500.906 83.0001V73.3553L512.667 66.3926L500.906 83.0001Z" fill="#7F7CFF"/>
<path d="M500.905 69.5211L489.144 62.555L500.905 57.1982V69.5211Z" fill="#7F7CFF"/>
<path d="M512.667 62.5545L500.906 69.5207V57.1978L512.667 62.5545Z" fill="#7F7CFF"/>
<g filter="url(#filter2_d_7097_134201)">
<path d="M168.784 124.078C168.406 122.648 167.191 121.217 165.004 119.624C163.249 118.355 161.387 117.626 159.902 117.626C159.605 117.626 159.335 117.653 159.065 117.707C158.39 117.842 157.796 118.328 157.418 119.057C156.959 119.921 156.851 121.082 157.148 121.784C157.256 122 157.391 122.27 157.553 122.513C156.122 123.377 155.312 123.619 155.204 123.646C158.93 124.888 162.035 127.48 163.978 130.855L164.005 130.531C164.086 129.64 164.356 128.614 164.734 127.561C165.112 127.669 165.49 127.723 165.868 127.723C166.867 127.723 167.731 127.318 168.271 126.589C168.811 125.86 169.027 124.888 168.784 124.078Z" fill="#5E12A0"/>
<path d="M164.896 126.778C167.353 127.453 168.352 125.563 168.028 124.294C167.677 123.025 166.543 121.729 164.545 120.271C162.547 118.814 160.522 118.22 159.226 118.49C157.931 118.76 157.553 120.73 157.877 121.486C158.012 121.783 158.308 122.215 158.713 122.701C158.201 123.052 157.715 123.322 157.31 123.565C159.793 124.672 161.953 126.4 163.573 128.56C163.762 127.831 164.032 127.183 164.275 126.616C164.464 126.643 164.68 126.697 164.896 126.778Z" fill="url(#paint11_radial_7097_134201)"/>
<path d="M150.829 153.235C159.164 153.235 165.921 146.479 165.921 138.144C165.921 129.809 159.164 123.052 150.829 123.052C142.494 123.052 135.737 129.809 135.737 138.144C135.737 146.479 142.494 153.235 150.829 153.235Z" fill="url(#paint12_radial_7097_134201)"/>
<path d="M166.786 123.053C164.734 120.893 163.006 120.326 160.927 119.867C159.307 119.489 159.739 118.571 161.71 118.76C160.765 118.436 159.874 118.355 159.226 118.49C157.93 118.76 157.553 120.731 157.877 121.487C158.011 121.784 158.308 122.216 158.713 122.702C157.984 123.188 157.364 123.539 156.851 123.809C157.094 123.917 157.391 124.052 157.742 124.241C158.659 124.727 159.658 125.537 159.658 125.537C158.146 124.241 158.47 123.647 160.549 122.189C161.197 121.73 162.385 121.784 163.492 122.351C164.599 122.918 165.895 124.349 165.895 124.349L164.653 126.725C164.734 126.752 164.815 126.779 164.896 126.806C165.679 127.022 166.3 126.968 166.786 126.779C167.353 126.428 168.838 125.24 166.786 123.053Z" fill="#A98698" fill-opacity="0.6"/>
<path d="M160.9 121.163C161.44 121.379 162.142 121.757 163.005 122.324C164.031 122.999 164.922 123.755 165.489 124.349C164.544 125.591 163.923 127.291 163.545 128.479C163.734 128.749 163.95 129.019 164.139 129.289C164.328 128.614 164.652 127.615 165.084 126.616C165.192 126.643 165.327 126.643 165.462 126.643C165.786 126.643 166.164 126.589 166.461 126.347C166.677 126.185 166.92 125.888 166.893 125.348C166.893 124.835 166.488 124.187 165.651 123.404C165.057 122.837 164.247 122.216 163.437 121.649C161.116 120.11 159.496 119.678 158.767 120.407C158.281 120.893 158.335 121.487 158.497 121.919C157.633 122.486 156.904 122.891 156.418 123.161C156.742 123.269 157.039 123.404 157.363 123.539C158.227 123.08 159.469 122.297 160.9 121.163ZM166.002 125.024C166.083 125.159 166.11 125.294 166.11 125.375C166.11 125.618 166.029 125.699 165.975 125.753C165.867 125.834 165.651 125.888 165.462 125.888C165.624 125.564 165.813 125.294 166.002 125.024ZM159.334 121.001C159.415 120.92 159.631 120.866 159.982 120.92C159.712 121.136 159.442 121.325 159.172 121.514C159.145 121.325 159.172 121.136 159.334 121.001Z" fill="#5E12A0"/>
<path d="M150.829 122.161C142.001 122.161 134.847 129.316 134.847 138.144C134.847 146.972 142.001 154.127 150.829 154.127C159.658 154.127 166.812 146.972 166.812 138.144C166.812 129.316 159.631 122.161 150.829 122.161ZM150.829 153.236C142.487 153.236 135.738 146.486 135.738 138.144C135.738 129.802 142.487 123.052 150.829 123.052C159.172 123.052 165.921 129.802 165.921 138.144C165.921 146.486 159.145 153.236 150.829 153.236Z" fill="#5E12A0"/>
<path d="M150.829 153.235C159.164 153.235 165.921 146.479 165.921 138.144C165.921 129.809 159.164 123.052 150.829 123.052C142.494 123.052 135.737 129.809 135.737 138.144C135.737 146.479 142.494 153.235 150.829 153.235Z" fill="url(#paint13_linear_7097_134201)"/>
<path d="M150.721 151.4C142.487 150.077 136.898 142.329 138.248 134.095C138.842 130.45 140.678 127.345 143.27 125.104C139.49 127.291 136.682 131.098 135.926 135.742C134.603 143.976 140.192 151.724 148.399 153.047C152.989 153.803 157.417 152.372 160.683 149.565C157.795 151.238 154.285 151.967 150.721 151.4Z" fill="#A98698" fill-opacity="0.6"/>
<path d="M153.233 123.268C149.427 122.647 145.728 123.511 142.704 125.428C142.65 125.482 142.596 125.536 142.596 125.536C143.757 124.834 145.458 124.213 145.458 124.213C141.084 126.751 139.734 129.64 139.734 129.64C141.435 126.346 146.43 124.024 150.345 123.862C154.259 123.7 156.824 124.861 159.956 127.372C163.088 129.91 164.977 135.093 164.788 139.197C164.626 143.301 162.467 146.621 162.467 146.621C163.951 144.705 164.842 143.301 165.409 141.87C165.517 141.438 165.625 141.006 165.679 140.547C167.029 132.34 161.468 124.591 153.233 123.268Z" fill="url(#paint14_linear_7097_134201)"/>
<path d="M165.166 138.009C165.166 145.919 158.741 152.345 150.831 152.345C142.92 152.345 136.468 145.919 136.468 138.009H165.166Z" fill="url(#paint15_linear_7097_134201)"/>
<path d="M164.033 138.009C164.033 145.73 157.931 152.048 150.264 152.345H150.831C158.741 152.345 165.166 145.919 165.166 138.009H164.033Z" fill="url(#paint16_linear_7097_134201)"/>
<path d="M138.493 138.009H136.468C136.468 145.919 142.893 152.345 150.804 152.345C151.155 152.345 151.479 152.345 151.803 152.318C144.378 151.778 138.493 145.568 138.493 138.009Z" fill="url(#paint17_linear_7097_134201)"/>
<path d="M165.139 138.144C165.139 136.497 162.278 135.552 158.471 135.228C155.717 135.012 152.936 135.282 149.751 136.254C146.997 137.064 144.513 136.929 142.704 136.713C138.682 136.254 136.468 136.2 136.468 138.144C136.468 140.952 142.191 144.461 150.777 143.246C155.123 142.625 157.364 141.356 159.929 140.493C162.71 139.575 165.139 139.602 165.139 138.144Z" fill="url(#paint18_linear_7097_134201)"/>
<path d="M155.526 131.341C156.869 131.341 157.956 130.253 157.956 128.911C157.956 127.569 156.869 126.481 155.526 126.481C154.184 126.481 153.097 127.569 153.097 128.911C153.097 130.253 154.184 131.341 155.526 131.341Z" fill="white"/>
<path d="M159.496 133.149C160.062 133.149 160.522 132.69 160.522 132.123C160.522 131.556 160.062 131.097 159.496 131.097C158.929 131.097 158.47 131.556 158.47 132.123C158.47 132.69 158.929 133.149 159.496 133.149Z" fill="white"/>
<path d="M163.169 126.967H163.115C162.953 126.94 162.845 126.778 162.872 126.589C163.115 125.347 164.141 124.159 164.195 124.105C164.303 123.97 164.519 123.97 164.627 124.078C164.762 124.186 164.762 124.402 164.654 124.51C164.627 124.537 163.682 125.644 163.466 126.724C163.439 126.886 163.304 126.967 163.169 126.967Z" fill="url(#paint19_linear_7097_134201)"/>
<path d="M149.83 149.402C150.248 149.402 150.586 149.063 150.586 148.646C150.586 148.229 150.248 147.89 149.83 147.89C149.413 147.89 149.074 148.229 149.074 148.646C149.074 149.063 149.413 149.402 149.83 149.402Z" fill="white" fill-opacity="0.2"/>
<path d="M149.398 149.132C149.101 148.835 149.101 148.349 149.398 148.052C149.452 147.998 149.506 147.971 149.56 147.917C149.452 147.944 149.371 147.998 149.29 148.079C148.993 148.376 148.993 148.862 149.29 149.159C149.533 149.402 149.911 149.456 150.208 149.294C149.938 149.402 149.614 149.348 149.398 149.132Z" fill="url(#paint20_linear_7097_134201)"/>
<path d="M150.1 148.43C150.19 148.43 150.262 148.358 150.262 148.268C150.262 148.179 150.19 148.106 150.1 148.106C150.011 148.106 149.938 148.179 149.938 148.268C149.938 148.358 150.011 148.43 150.1 148.43Z" fill="white" fill-opacity="0.3"/>
<path d="M153.773 149.024C154.19 149.024 154.528 148.685 154.528 148.268C154.528 147.85 154.19 147.512 153.773 147.512C153.355 147.512 153.017 147.85 153.017 148.268C153.017 148.685 153.355 149.024 153.773 149.024Z" fill="white" fill-opacity="0.2"/>
<path d="M153.34 148.754C153.044 148.457 153.044 147.972 153.34 147.675C153.394 147.621 153.448 147.594 153.502 147.54C153.394 147.567 153.313 147.621 153.232 147.702C152.936 147.999 152.936 148.484 153.232 148.781C153.475 149.024 153.853 149.078 154.15 148.916C153.88 149.024 153.556 148.97 153.34 148.754Z" fill="url(#paint21_linear_7097_134201)"/>
<path d="M154.042 148.052C154.131 148.052 154.204 147.98 154.204 147.891C154.204 147.801 154.131 147.729 154.042 147.729C153.953 147.729 153.88 147.801 153.88 147.891C153.88 147.98 153.953 148.052 154.042 148.052Z" fill="white" fill-opacity="0.3"/>
<path d="M151.83 150.779C152.143 150.779 152.397 150.526 152.397 150.212C152.397 149.899 152.143 149.646 151.83 149.646C151.516 149.646 151.263 149.899 151.263 150.212C151.263 150.526 151.516 150.779 151.83 150.779Z" fill="white" fill-opacity="0.2"/>
<path d="M151.506 150.563C151.29 150.347 151.29 149.969 151.506 149.753C151.533 149.726 151.587 149.699 151.614 149.672C151.533 149.699 151.479 149.753 151.425 149.807C151.209 150.023 151.209 150.401 151.425 150.617C151.614 150.806 151.884 150.833 152.127 150.698C151.911 150.779 151.668 150.725 151.506 150.563Z" fill="url(#paint22_linear_7097_134201)"/>
<path d="M152.018 150.023C152.078 150.023 152.126 149.975 152.126 149.915C152.126 149.855 152.078 149.807 152.018 149.807C151.958 149.807 151.91 149.855 151.91 149.915C151.91 149.975 151.958 150.023 152.018 150.023Z" fill="white" fill-opacity="0.3"/>
<path d="M155.311 150.374C155.624 150.374 155.878 150.12 155.878 149.807C155.878 149.494 155.624 149.24 155.311 149.24C154.998 149.24 154.744 149.494 154.744 149.807C154.744 150.12 154.998 150.374 155.311 150.374Z" fill="white" fill-opacity="0.2"/>
<path d="M154.987 150.159C154.771 149.943 154.771 149.565 154.987 149.349C155.014 149.322 155.068 149.295 155.095 149.268C155.014 149.295 154.96 149.349 154.906 149.403C154.69 149.619 154.69 149.997 154.906 150.213C155.095 150.401 155.365 150.428 155.608 150.293C155.392 150.374 155.149 150.32 154.987 150.159Z" fill="url(#paint23_linear_7097_134201)"/>
<path d="M155.5 149.617C155.559 149.617 155.608 149.569 155.608 149.509C155.608 149.45 155.559 149.401 155.5 149.401C155.44 149.401 155.392 149.45 155.392 149.509C155.392 149.569 155.44 149.617 155.5 149.617Z" fill="white" fill-opacity="0.3"/>
<path d="M146.618 149.132C147.304 149.132 147.86 148.576 147.86 147.89C147.86 147.205 147.304 146.648 146.618 146.648C145.932 146.648 145.376 147.205 145.376 147.89C145.376 148.576 145.932 149.132 146.618 149.132Z" fill="white" fill-opacity="0.2"/>
<path d="M145.916 148.673C145.43 148.187 145.43 147.404 145.916 146.918C145.997 146.837 146.078 146.783 146.186 146.729C146.024 146.783 145.889 146.891 145.754 146.999C145.268 147.485 145.268 148.268 145.754 148.754C146.159 149.159 146.78 149.24 147.266 148.943C146.807 149.132 146.267 149.051 145.916 148.673Z" fill="url(#paint24_linear_7097_134201)"/>
<path d="M147.049 147.513C147.198 147.513 147.319 147.392 147.319 147.243C147.319 147.094 147.198 146.973 147.049 146.973C146.9 146.973 146.779 147.094 146.779 147.243C146.779 147.392 146.9 147.513 147.049 147.513Z" fill="white" fill-opacity="0.3"/>
<path d="M157.715 146.081C158.401 146.081 158.956 145.525 158.956 144.839C158.956 144.153 158.401 143.597 157.715 143.597C157.029 143.597 156.473 144.153 156.473 144.839C156.473 145.525 157.029 146.081 157.715 146.081Z" fill="white" fill-opacity="0.2"/>
<path d="M156.985 145.623C156.499 145.137 156.499 144.354 156.985 143.868C157.066 143.787 157.147 143.733 157.255 143.679C157.093 143.733 156.958 143.841 156.823 143.949C156.337 144.435 156.337 145.218 156.823 145.704C157.228 146.109 157.849 146.19 158.335 145.893C157.876 146.082 157.363 146.001 156.985 145.623Z" fill="url(#paint25_linear_7097_134201)"/>
<path d="M158.147 144.461C158.296 144.461 158.417 144.34 158.417 144.191C158.417 144.042 158.296 143.921 158.147 143.921C157.998 143.921 157.877 144.042 157.877 144.191C157.877 144.34 157.998 144.461 158.147 144.461Z" fill="white" fill-opacity="0.3"/>
</g>
<g filter="url(#filter3_d_7097_134201)">
<path fill-rule="evenodd" clip-rule="evenodd" d="M447.5 124.312L468.437 134.022L473.799 131.711L452.947 122L447.5 124.312Z" fill="#036F7D"/>
<path fill-rule="evenodd" clip-rule="evenodd" d="M468.437 133.994L473.799 131.682V136.855L468.437 139.166V133.994Z" fill="#299197"/>
<path fill-rule="evenodd" clip-rule="evenodd" d="M447.5 124.321V129.541L461.995 136.277L447.5 143.155V148.309L468.437 158V152.818L454.217 146.196L468.437 139.195V134.022L447.5 124.321Z" fill="#29CCC4"/>
<path fill-rule="evenodd" clip-rule="evenodd" d="M468.437 157.962L473.799 155.651V139.498L468.437 141.838V157.962Z" fill="#299197"/>
</g>
<g filter="url(#filter4_d_7097_134201)">
<path d="M60.26 74.8L68 67L75.78 74.78L80.3 70.26L68 58L55.74 70.28L60.26 74.8ZM48 78L52.52 73.48L57.06 78L52.54 82.52L48 78ZM60.24 81.2L68 89L75.78 81.22L80.3 85.74L68 98L55.74 85.72L60.24 81.2ZM79 78L83.52 73.48L88 78L83.5 82.52L79 78ZM68 82.58L72.6 78L68 73.42L64.64 76.8L64.24 77.18L63.44 78L68 82.58Z" fill="#F3BA2F"/>
</g>
<circle cx="176" cy="64.0002" r="16.6667" stroke="#F0827D" stroke-width="0.6"/>
<path d="M176 56.0835V71.9926M174.182 70.1744H177.818M172.364 57.4471L179.636 64.7199M172.364 64.7199L179.636 57.4471M171 61.0835H181" stroke="white" stroke-width="0.8" stroke-linecap="round" stroke-linejoin="round"/>
<defs>
<filter id="filter0_d_7097_134201" x="518" y="43" width="138" height="138" filterUnits="userSpaceOnUse" color-interpolation-filters="sRGB">
<feFlood flood-opacity="0" result="BackgroundImageFix"/>
<feColorMatrix in="SourceAlpha" type="matrix" values="0 0 0 0 0 0 0 0 0 0 0 0 0 0 0 0 0 0 127 0" result="hardAlpha"/>
<feOffset/>
<feGaussianBlur stdDeviation="24"/>
<feColorMatrix type="matrix" values="0 0 0 0 0 0 0 0 0 0 0 0 0 0 0 0 0 0 0.64 0"/>
<feBlend mode="normal" in2="BackgroundImageFix" result="effect1_dropShadow_7097_134201"/>
<feBlend mode="normal" in="SourceGraphic" in2="effect1_dropShadow_7097_134201" result="shape"/>
</filter>
<filter id="filter1_d_7097_134201" x="236.368" y="0.618652" width="191.264" height="204.763" filterUnits="userSpaceOnUse" color-interpolation-filters="sRGB">
<feFlood flood-opacity="0" result="BackgroundImageFix"/>
<feColorMatrix in="SourceAlpha" type="matrix" values="0 0 0 0 0 0 0 0 0 0 0 0 0 0 0 0 0 0 127 0" result="hardAlpha"/>
<feOffset/>
<feGaussianBlur stdDeviation="24"/>
<feColorMatrix type="matrix" values="0 0 0 0 0 0 0 0 0 0 0 0 0 0 0 0 0 0 0.64 0"/>
<feBlend mode="normal" in2="BackgroundImageFix" result="effect1_dropShadow_7097_134201"/>
<feBlend mode="normal" in="SourceGraphic" in2="effect1_dropShadow_7097_134201" result="shape"/>
</filter>
<filter id="filter2_d_7097_134201" x="78" y="65" width="146" height="146" filterUnits="userSpaceOnUse" color-interpolation-filters="sRGB">
<feFlood flood-opacity="0" result="BackgroundImageFix"/>
<feColorMatrix in="SourceAlpha" type="matrix" values="0 0 0 0 0 0 0 0 0 0 0 0 0 0 0 0 0 0 127 0" result="hardAlpha"/>
<feOffset/>
<feGaussianBlur stdDeviation="24"/>
<feColorMatrix type="matrix" values="0 0 0 0 0 0 0 0 0 0 0 0 0 0 0 0 0 0 0.64 0"/>
<feBlend mode="normal" in2="BackgroundImageFix" result="effect1_dropShadow_7097_134201"/>
<feBlend mode="normal" in="SourceGraphic" in2="effect1_dropShadow_7097_134201" result="shape"/>
</filter>
<filter id="filter3_d_7097_134201" x="395" y="74" width="132" height="132" filterUnits="userSpaceOnUse" color-interpolation-filters="sRGB">
<feFlood flood-opacity="0" result="BackgroundImageFix"/>
<feColorMatrix in="SourceAlpha" type="matrix" values="0 0 0 0 0 0 0 0 0 0 0 0 0 0 0 0 0 0 127 0" result="hardAlpha"/>
<feOffset/>
<feGaussianBlur stdDeviation="24"/>
<feColorMatrix type="matrix" values="0 0 0 0 0 0 0 0 0 0 0 0 0 0 0 0 0 0 0.64 0"/>
<feBlend mode="normal" in2="BackgroundImageFix" result="effect1_dropShadow_7097_134201"/>
<feBlend mode="normal" in="SourceGraphic" in2="effect1_dropShadow_7097_134201" result="shape"/>
</filter>
<filter id="filter4_d_7097_134201" x="0" y="10" width="136" height="136" filterUnits="userSpaceOnUse" color-interpolation-filters="sRGB">
<feFlood flood-opacity="0" result="BackgroundImageFix"/>
<feColorMatrix in="SourceAlpha" type="matrix" values="0 0 0 0 0 0 0 0 0 0 0 0 0 0 0 0 0 0 127 0" result="hardAlpha"/>
<feOffset/>
<feGaussianBlur stdDeviation="24"/>
<feColorMatrix type="matrix" values="0 0 0 0 0 0 0 0 0 0 0 0 0 0 0 0 0 0 0.64 0"/>
<feBlend mode="normal" in2="BackgroundImageFix" result="effect1_dropShadow_7097_134201"/>
<feBlend mode="normal" in="SourceGraphic" in2="effect1_dropShadow_7097_134201" result="shape"/>
</filter>
<linearGradient id="paint0_linear_7097_134201" x1="475" y1="79" x2="372" y2="79" gradientUnits="userSpaceOnUse">
<stop stop-color="#482BFF"/>
<stop offset="1" stop-color="#007AFF"/>
</linearGradient>
<linearGradient id="paint1_linear_7097_134201" x1="431" y1="81" x2="372" y2="81" gradientUnits="userSpaceOnUse">
<stop stop-color="#482BFF"/>
<stop offset="1" stop-color="#007AFF"/>
</linearGradient>
<linearGradient id="paint2_linear_7097_134201" x1="537" y1="124.5" x2="372" y2="124.5" gradientUnits="userSpaceOnUse">
<stop stop-color="#482BFF"/>
<stop offset="1" stop-color="#007AFF"/>
</linearGradient>
<linearGradient id="paint3_linear_7097_134201" x1="103" y1="86" x2="292" y2="86.0001" gradientUnits="userSpaceOnUse">
<stop stop-color="#482BFF"/>
<stop offset="1" stop-color="#007AFF"/>
</linearGradient>
<linearGradient id="paint4_linear_7097_134201" x1="213" y1="80.5" x2="292" y2="80.5" gradientUnits="userSpaceOnUse">
<stop stop-color="#482BFF"/>
<stop offset="1" stop-color="#007AFF"/>
</linearGradient>
<linearGradient id="paint5_linear_7097_134201" x1="199" y1="129" x2="292" y2="129" gradientUnits="userSpaceOnUse">
<stop stop-color="#482BFF"/>
<stop offset="1" stop-color="#007AFF"/>
</linearGradient>
<linearGradient id="paint6_linear_7097_134201" x1="203" y1="79" x2="267" y2="79" gradientUnits="userSpaceOnUse">
<stop stop-color="#482BFF"/>
<stop offset="1" stop-color="#007AFF"/>
</linearGradient>
<linearGradient id="paint7_linear_7097_134201" x1="184" y1="130" x2="292" y2="130" gradientUnits="userSpaceOnUse">
<stop stop-color="#482BFF"/>
<stop offset="1" stop-color="#007AFF"/>
</linearGradient>
<linearGradient id="paint8_linear_7097_134201" x1="555" y1="107.5" x2="372" y2="107.5" gradientUnits="userSpaceOnUse">
<stop stop-color="#482BFF"/>
<stop offset="1" stop-color="#007AFF"/>
</linearGradient>
<linearGradient id="paint9_linear_7097_134201" x1="436" y1="128" x2="372" y2="128" gradientUnits="userSpaceOnUse">
<stop stop-color="#482BFF"/>
<stop offset="1" stop-color="#007AFF"/>
</linearGradient>
<linearGradient id="paint10_linear_7097_134201" x1="364" y1="103" x2="300" y2="103" gradientUnits="userSpaceOnUse">
<stop stop-color="#482BFF"/>
<stop offset="1" stop-color="#007AFF"/>
</linearGradient>
<radialGradient id="paint11_radial_7097_134201" cx="0" cy="0" r="1" gradientUnits="userSpaceOnUse" gradientTransform="translate(167.535 122.593) scale(12.0665 12.0665)">
<stop stop-color="#FFEAFF" stop-opacity="0.6"/>
<stop offset="0.68" stop-color="#A087C9"/>
<stop offset="1" stop-color="#10002F"/>
</radialGradient>
<radialGradient id="paint12_radial_7097_134201" cx="0" cy="0" r="1" gradientUnits="userSpaceOnUse" gradientTransform="translate(160.821 127.739) scale(29.5224 29.5224)">
<stop stop-color="#FFEAFF" stop-opacity="0.6"/>
<stop offset="0.68" stop-color="#A087C9"/>
<stop offset="1" stop-color="#10002F"/>
</radialGradient>
<linearGradient id="paint13_linear_7097_134201" x1="148.408" y1="153.021" x2="153.235" y2="123.241" gradientUnits="userSpaceOnUse">
<stop stop-color="#81FFFF" stop-opacity="0.6"/>
<stop offset="0.62" stop-color="white" stop-opacity="0"/>
<stop offset="1" stop-color="white" stop-opacity="0"/>
</linearGradient>
<linearGradient id="paint14_linear_7097_134201" x1="161.466" y1="127.895" x2="148.987" y2="139.345" gradientUnits="userSpaceOnUse">
<stop stop-color="white" stop-opacity="0.6"/>
<stop offset="0.29" stop-color="white" stop-opacity="0.6"/>
<stop offset="0.78" stop-color="white" stop-opacity="0"/>
<stop offset="1" stop-color="white" stop-opacity="0"/>
</linearGradient>
<linearGradient id="paint15_linear_7097_134201" x1="136.48" y1="145.168" x2="165.159" y2="145.168" gradientUnits="userSpaceOnUse">
<stop stop-color="#0002E9"/>
<stop offset="1" stop-color="#FF00C7"/>
</linearGradient>
<linearGradient id="paint16_linear_7097_134201" x1="166.517" y1="139.267" x2="150.907" y2="154.019" gradientUnits="userSpaceOnUse">
<stop stop-color="white" stop-opacity="0.6"/>
<stop offset="0.29" stop-color="white" stop-opacity="0.6"/>
<stop offset="0.78" stop-color="white" stop-opacity="0"/>
<stop offset="1" stop-color="white" stop-opacity="0"/>
</linearGradient>
<linearGradient id="paint17_linear_7097_134201" x1="136.48" y1="145.168" x2="151.823" y2="145.168" gradientUnits="userSpaceOnUse">
<stop stop-color="#000292" stop-opacity="0.7"/>
<stop offset="1" stop-color="#7D00C7" stop-opacity="0.7"/>
</linearGradient>
<linearGradient id="paint18_linear_7097_134201" x1="136.499" y1="139.335" x2="165.14" y2="139.335" gradientUnits="userSpaceOnUse">
<stop stop-color="#000292"/>
<stop offset="1" stop-color="#BE00C7"/>
</linearGradient>
<linearGradient id="paint19_linear_7097_134201" x1="164.671" y1="123.974" x2="162.613" y2="127.319" gradientUnits="userSpaceOnUse">
<stop stop-color="white" stop-opacity="0.6"/>
<stop offset="0.29" stop-color="white" stop-opacity="0.6"/>
<stop offset="0.78" stop-color="white" stop-opacity="0"/>
<stop offset="1" stop-color="white" stop-opacity="0"/>
</linearGradient>
<linearGradient id="paint20_linear_7097_134201" x1="149.067" y1="148.67" x2="150.209" y2="148.67" gradientUnits="userSpaceOnUse">
<stop stop-color="white" stop-opacity="0.6"/>
<stop offset="0.29" stop-color="white" stop-opacity="0.6"/>
<stop offset="0.78" stop-color="white" stop-opacity="0"/>
<stop offset="1" stop-color="white" stop-opacity="0"/>
</linearGradient>
<linearGradient id="paint21_linear_7097_134201" x1="153.006" y1="148.287" x2="154.149" y2="148.287" gradientUnits="userSpaceOnUse">
<stop stop-color="white" stop-opacity="0.6"/>
<stop offset="0.29" stop-color="white" stop-opacity="0.6"/>
<stop offset="0.78" stop-color="white" stop-opacity="0"/>
<stop offset="1" stop-color="white" stop-opacity="0"/>
</linearGradient>
<linearGradient id="paint22_linear_7097_134201" x1="151.259" y1="150.218" x2="152.117" y2="150.218" gradientUnits="userSpaceOnUse">
<stop stop-color="white" stop-opacity="0.6"/>
<stop offset="0.29" stop-color="white" stop-opacity="0.6"/>
<stop offset="0.78" stop-color="white" stop-opacity="0"/>
<stop offset="1" stop-color="white" stop-opacity="0"/>
</linearGradient>
<linearGradient id="paint23_linear_7097_134201" x1="154.729" y1="149.813" x2="155.586" y2="149.813" gradientUnits="userSpaceOnUse">
<stop stop-color="white" stop-opacity="0.6"/>
<stop offset="0.29" stop-color="white" stop-opacity="0.6"/>
<stop offset="0.78" stop-color="white" stop-opacity="0"/>
<stop offset="1" stop-color="white" stop-opacity="0"/>
</linearGradient>
<linearGradient id="paint24_linear_7097_134201" x1="145.377" y1="147.922" x2="147.243" y2="147.922" gradientUnits="userSpaceOnUse">
<stop stop-color="white" stop-opacity="0.6"/>
<stop offset="0.29" stop-color="white" stop-opacity="0.6"/>
<stop offset="0.78" stop-color="white" stop-opacity="0"/>
<stop offset="1" stop-color="white" stop-opacity="0"/>
</linearGradient>
<linearGradient id="paint25_linear_7097_134201" x1="156.457" y1="144.87" x2="158.322" y2="144.87" gradientUnits="userSpaceOnUse">
<stop stop-color="white" stop-opacity="0.6"/>
<stop offset="0.29" stop-color="white" stop-opacity="0.6"/>
<stop offset="0.78" stop-color="white" stop-opacity="0"/>
<stop offset="1" stop-color="white" stop-opacity="0"/>
</linearGradient>
</defs>
</svg>
