<svg width="550" height="223" viewBox="0 0 550 223" fill="none" xmlns="http://www.w3.org/2000/svg">
<g filter="url(#filter0_d_11_230)">
<path fill-rule="evenodd" clip-rule="evenodd" d="M469.615 115.397C462.49 112.057 456.822 110.747 455.822 112.475C454.823 114.203 458.778 118.461 465.221 122.98C458.755 127.475 454.784 131.72 455.776 133.45C456.769 135.181 462.454 133.886 469.612 130.564C470.29 138.424 471.996 144 473.992 144C475.985 144 477.689 138.441 478.369 130.599C485.497 133.942 491.162 135.253 492.161 133.524C493.161 131.799 489.205 127.538 482.764 123.018C489.229 118.524 493.199 114.278 492.207 112.549C491.214 110.817 485.53 112.112 478.372 115.435C477.694 107.575 475.988 102 473.992 102C471.999 102 470.296 107.557 469.615 115.397ZM469.531 116.45C469.44 117.686 469.375 118.973 469.337 120.299C468.191 121 467.094 121.706 466.056 122.408C463.312 120.442 461.392 118.83 461.392 118.83C457.015 115.144 456.686 113.347 456.686 113.347L456.684 113.342C456.492 112.886 456.898 112.777 456.898 112.777C458.693 112.438 461.215 113.21 461.215 113.21C463.587 113.75 466.602 115.02 469.531 116.45ZM470.424 116.892C470.396 117.192 470.368 117.499 470.342 117.813C470.342 117.813 470.317 118.529 470.302 119.716C470.745 119.452 471.195 119.189 471.651 118.927C472.084 118.679 472.515 118.436 472.945 118.199C472.131 117.764 471.284 117.324 470.424 116.892ZM474.008 117.62C472.824 116.978 471.66 116.381 470.528 115.832C471.534 106.039 473.145 103.616 473.715 103.051C473.778 102.99 473.859 102.953 473.946 102.946C474.033 102.939 474.12 102.962 474.191 103.013C475.072 103.638 475.811 106.25 475.811 106.25C476.748 109.725 477.246 113.109 477.51 115.842C476.371 116.387 475.2 116.981 474.008 117.62ZM473.96 118.748C472.921 119.337 471.656 120.072 470.291 120.902C470.286 122.124 470.294 123.631 470.337 125.274C471.203 125.81 472.091 126.329 472.98 126.808C472.98 126.808 473.334 127.026 473.979 127.386C474.928 126.881 475.876 126.345 476.786 125.786C476.786 125.786 477.151 125.588 477.787 125.21C477.822 124.13 477.829 123.036 477.797 121.962C477.797 121.962 477.806 121.59 477.798 120.923C476.745 120.305 475.424 119.548 473.96 118.748ZM477.77 119.773C477.304 119.492 476.831 119.212 476.351 118.934C475.898 118.671 475.446 118.415 474.997 118.164C476.039 117.585 476.674 117.248 476.674 117.248C476.989 117.102 477.296 116.961 477.597 116.824C477.691 117.967 477.742 118.967 477.77 119.773ZM478.673 121.441C478.682 121.956 478.686 122.476 478.686 123C478.686 123.563 478.681 124.121 478.672 124.673C479.362 124.244 480.211 123.697 481.166 123.04C480.888 122.842 480.603 122.641 480.311 122.436C480.311 122.436 479.7 122.053 478.673 121.441ZM481.976 122.473C480.924 121.753 479.811 121.029 478.648 120.31C478.61 118.976 478.544 117.682 478.452 116.438C487.473 112.423 490.383 112.617 491.156 112.83C491.24 112.853 491.314 112.906 491.363 112.978C491.412 113.051 491.434 113.138 491.425 113.225C491.326 114.301 489.424 116.241 489.424 116.241C486.886 118.774 484.21 120.885 481.976 122.473ZM481.93 123.589C480.891 124.292 479.794 124.998 478.648 125.7C478.609 127.058 478.541 128.375 478.447 129.639C480.939 130.777 484.108 132.037 487.573 132.966C487.573 132.966 490.204 133.636 491.186 133.186C491.266 133.15 491.33 133.087 491.368 133.008C491.405 132.93 491.414 132.84 491.392 132.755C491.189 131.981 489.901 129.371 481.93 123.589ZM477.545 129.22C477.627 128.272 477.697 127.27 477.746 126.244C477.282 126.521 476.81 126.797 476.332 127.071C475.849 127.349 475.367 127.619 474.889 127.883C475.604 128.265 476.502 128.724 477.545 129.22ZM473.054 127.869C472.585 127.608 472.113 127.34 471.639 127.065C471.21 126.817 470.786 126.567 470.369 126.316C470.4 127.227 470.443 128.168 470.5 129.117C471.324 128.733 472.185 128.315 473.054 127.869ZM469.312 124.627C469.303 124.09 469.298 123.548 469.298 123C469.298 122.497 469.302 121.998 469.31 121.504C468.529 121.989 467.727 122.498 466.926 123.024C467.68 123.551 468.481 124.092 469.312 124.627ZM466.089 123.58C467.117 124.282 468.203 124.987 469.336 125.687C469.374 127.022 469.44 128.318 469.532 129.562C466.44 130.959 464.07 131.82 464.07 131.82C458.689 133.759 456.967 133.141 456.967 133.141C456.473 133.079 456.584 132.673 456.584 132.673C457.191 130.949 459.119 129.153 459.119 129.153C460.776 127.371 463.384 125.398 466.089 123.58ZM473.979 128.377C475.163 129.019 476.327 129.616 477.459 130.165C477.133 133.526 476.703 135.995 476.703 135.995C475.709 141.628 474.316 142.815 474.316 142.815C474.02 143.21 473.723 142.914 473.723 142.914C472.53 141.53 471.933 138.961 471.933 138.961C471.209 136.631 470.795 133.374 470.565 130.113C471.675 129.58 472.817 129 473.979 128.377Z" fill="#6F7390"/>
<path d="M485.505 113.463C485.505 114.282 484.864 114.946 484.072 114.946C483.281 114.946 482.639 114.282 482.639 113.463C482.639 112.645 483.281 111.981 484.072 111.981C484.864 111.981 485.505 112.645 485.505 113.463Z" fill="#B7B9C8"/>
<path d="M476.413 122.95C476.413 124.315 475.307 125.421 473.943 125.421C472.578 125.421 471.472 124.315 471.472 122.95C471.472 121.586 472.578 120.48 473.943 120.48C475.307 120.48 476.413 121.586 476.413 122.95Z" fill="#B7B9C8"/>
<path d="M460.552 119.986C461.344 119.986 461.985 119.322 461.985 118.503C461.985 117.685 461.344 117.021 460.552 117.021C459.761 117.021 459.119 117.685 459.119 118.503C459.119 119.322 459.761 119.986 460.552 119.986Z" fill="#B7B9C8"/>
<path d="M472.461 136.687C472.461 137.505 471.819 138.169 471.028 138.169C470.236 138.169 469.595 137.505 469.595 136.687C469.595 135.868 470.236 135.204 471.028 135.204C471.819 135.204 472.461 135.868 472.461 136.687Z" fill="#B7B9C8"/>
</g>
<path d="M111.667 87C111.667 88.4728 110.473 89.6667 109 89.6667C107.527 89.6667 106.333 88.4728 106.333 87C106.333 85.5272 107.527 84.3333 109 84.3333C110.473 84.3333 111.667 85.5272 111.667 87ZM152.142 101.59L152.523 101.266L152.142 101.59ZM140.941 88.4098L140.56 88.7336L140.941 88.4098ZM227.335 103.5H155.19V102.5H227.335V103.5ZM151.761 101.914L140.56 88.7336L141.322 88.086L152.523 101.266L151.761 101.914ZM137.893 87.5H109V86.5H137.893V87.5ZM155.19 103.5C153.87 103.5 152.616 102.92 151.761 101.914L152.523 101.266C153.188 102.049 154.163 102.5 155.19 102.5V103.5ZM140.56 88.7336C139.895 87.951 138.92 87.5 137.893 87.5V86.5C139.214 86.5 140.467 87.0799 141.322 88.086L140.56 88.7336Z" fill="url(#paint0_linear_11_230)"/>
<path d="M180.539 84C180.539 85.4728 179.345 86.6667 177.872 86.6667C176.399 86.6667 175.206 85.4728 175.206 84C175.206 82.5272 176.399 81.3333 177.872 81.3333C179.345 81.3333 180.539 82.5272 180.539 84ZM197.132 92.9781L197.567 92.7309L197.132 92.9781ZM193.174 86.0219L193.609 85.7746L193.174 86.0219ZM227.335 95.5H200.609V94.5H227.335V95.5ZM196.698 93.2254L192.74 86.2691L193.609 85.7746L197.567 92.7309L196.698 93.2254ZM189.698 84.5H177.872V83.5H189.698V84.5ZM200.609 95.5C198.991 95.5 197.498 94.6316 196.698 93.2254L197.567 92.7309C198.189 93.8245 199.351 94.5 200.609 94.5V95.5ZM192.74 86.2691C192.117 85.1755 190.956 84.5 189.698 84.5V83.5C191.315 83.5 192.809 84.3684 193.609 85.7746L192.74 86.2691Z" fill="url(#paint1_linear_11_230)"/>
<path d="M171.773 161C171.773 159.527 170.579 158.333 169.107 158.333C167.634 158.333 166.44 159.527 166.44 161C166.44 162.473 167.634 163.667 169.107 163.667C170.579 163.667 171.773 162.473 171.773 161ZM184.356 158.76L183.907 158.54L184.356 158.76ZM227.335 114.5H208.29V115.5H227.335V114.5ZM204.249 117.02L183.907 158.54L184.805 158.98L205.147 117.46L204.249 117.02ZM180.764 160.5H169.107V161.5H180.764V160.5ZM208.29 114.5C206.573 114.5 205.005 115.478 204.249 117.02L205.147 117.46C205.735 116.26 206.955 115.5 208.29 115.5V114.5ZM183.907 158.54C183.319 159.74 182.1 160.5 180.764 160.5V161.5C182.481 161.5 184.049 160.522 184.805 158.98L183.907 158.54Z" fill="url(#paint2_linear_11_230)"/>
<path d="M174.278 73C174.278 74.4728 173.084 75.6667 171.611 75.6667C170.139 75.6667 168.945 74.4728 168.945 73C168.945 71.5272 170.139 70.3333 171.611 70.3333C173.084 70.3333 174.278 71.5272 174.278 73ZM211.25 103.252L194.924 75.2376L195.788 74.7341L212.114 102.748L211.25 103.252ZM191.9 73.5H171.611V72.5H191.9V73.5ZM194.924 75.2376C194.297 74.1617 193.145 73.5 191.9 73.5V72.5C193.501 72.5 194.981 73.3508 195.788 74.7341L194.924 75.2376Z" fill="url(#paint3_linear_11_230)"/>
<path d="M162.382 147C162.382 145.527 161.188 144.333 159.715 144.333C158.242 144.333 157.048 145.527 157.048 147C157.048 148.473 158.242 149.667 159.715 149.667C161.188 149.667 162.382 148.473 162.382 147ZM183.958 133.253L184.408 133.471L183.958 133.253ZM227.335 130.5H187.556V131.5H227.335V130.5ZM183.508 133.034L177.927 144.529L178.826 144.966L184.408 133.471L183.508 133.034ZM174.778 146.5H159.715V147.5H174.778V146.5ZM187.556 130.5C185.833 130.5 184.261 131.484 183.508 133.034L184.408 133.471C184.993 132.265 186.216 131.5 187.556 131.5V130.5ZM177.927 144.529C177.341 145.735 176.119 146.5 174.778 146.5V147.5C176.502 147.5 178.073 146.516 178.826 144.966L177.927 144.529Z" fill="url(#paint4_linear_11_230)"/>
<path d="M388.291 73C388.291 74.4728 389.485 75.6667 390.958 75.6667C392.431 75.6667 393.624 74.4728 393.624 73C393.624 71.5272 392.431 70.3333 390.958 70.3333C389.485 70.3333 388.291 71.5272 388.291 73ZM364.949 100.496L364.486 100.309L364.949 100.496ZM375.03 75.5038L375.494 75.6908L375.03 75.5038ZM322.666 103.5H361.24V102.5H322.666V103.5ZM365.413 100.683L375.494 75.6908L374.566 75.3167L364.486 100.309L365.413 100.683ZM378.739 73.5H390.958V72.5H378.739V73.5ZM361.24 103.5C363.075 103.5 364.727 102.385 365.413 100.683L364.486 100.309C363.952 101.633 362.667 102.5 361.24 102.5V103.5ZM375.494 75.6908C376.028 74.3669 377.312 73.5 378.739 73.5V72.5C376.904 72.5 375.253 73.6146 374.566 75.3167L375.494 75.6908Z" fill="url(#paint5_linear_11_230)"/>
<path d="M359.118 82C359.118 83.4728 360.312 84.6667 361.785 84.6667C363.257 84.6667 364.451 83.4728 364.451 82C364.451 80.5272 363.257 79.3333 361.785 79.3333C360.312 79.3333 359.118 80.5272 359.118 82ZM345.474 84.6321L345.004 84.4612L345.474 84.6321ZM322.666 98.5H337.809V97.5H322.666V98.5ZM342.037 95.5388L345.944 84.8031L345.004 84.4612L341.098 95.1969L342.037 95.5388ZM349.233 82.5H361.785V81.5H349.233V82.5ZM337.809 98.5C339.7 98.5 341.39 97.3167 342.037 95.5388L341.098 95.1969C340.594 96.5796 339.28 97.5 337.809 97.5V98.5ZM345.944 84.8031C346.447 83.4204 347.762 82.5 349.233 82.5V81.5C347.341 81.5 345.651 82.6833 345.004 84.4612L345.944 84.8031Z" fill="url(#paint6_linear_11_230)"/>
<path d="M429.399 148C429.399 146.527 430.593 145.333 432.066 145.333C433.538 145.333 434.732 146.527 434.732 148C434.732 149.473 433.538 150.667 432.066 150.667C430.593 150.667 429.399 149.473 429.399 148ZM322.666 118.5H384.628V119.5H322.666V118.5ZM387.893 119.904L413.021 146.408L412.295 147.096L387.168 120.592L387.893 119.904ZM415.561 147.5H432.066V148.5H415.561V147.5ZM384.628 118.5C385.863 118.5 387.043 119.008 387.893 119.904L387.168 120.592C386.507 119.895 385.588 119.5 384.628 119.5V118.5ZM413.021 146.408C413.682 147.105 414.6 147.5 415.561 147.5V148.5C414.326 148.5 413.145 147.992 412.295 147.096L413.021 146.408Z" fill="url(#paint7_linear_11_230)"/>
<path d="M441.333 121C441.333 119.527 442.527 118.333 444 118.333C445.473 118.333 446.667 119.527 446.667 121C446.667 122.473 445.473 123.667 444 123.667C442.527 123.667 441.333 122.473 441.333 121ZM410.157 113.25L409.794 113.594L410.157 113.25ZM416.312 119.75L416.675 119.406L416.312 119.75ZM322.666 111.5H407.252V112.5H322.666V111.5ZM410.52 112.906L416.675 119.406L415.949 120.094L409.794 113.594L410.52 112.906ZM419.216 120.5H444V121.5H419.216V120.5ZM407.252 111.5C408.488 111.5 409.67 112.008 410.52 112.906L409.794 113.594C409.133 112.895 408.214 112.5 407.252 112.5V111.5ZM416.675 119.406C417.336 120.105 418.255 120.5 419.216 120.5V121.5C417.98 121.5 416.798 120.992 415.949 120.094L416.675 119.406Z" fill="url(#paint8_linear_11_230)"/>
<path d="M362.433 149C362.433 147.527 363.627 146.333 365.1 146.333C366.573 146.333 367.766 147.527 367.766 149C367.766 150.473 366.573 151.667 365.1 151.667C363.627 151.667 362.433 150.473 362.433 149ZM342.842 126.969L342.411 127.223L342.842 126.969ZM354.67 147.031L354.239 147.285L354.67 147.031ZM322.666 124.5H339.396V125.5H322.666V124.5ZM343.273 126.715L355.1 146.777L354.239 147.285L342.411 127.223L343.273 126.715ZM358.115 148.5H365.1V149.5H358.115V148.5ZM339.396 124.5C340.989 124.5 342.464 125.342 343.273 126.715L342.411 127.223C341.782 126.155 340.635 125.5 339.396 125.5V124.5ZM355.1 146.777C355.73 147.845 356.876 148.5 358.115 148.5V149.5C356.522 149.5 355.048 148.658 354.239 147.285L355.1 146.777Z" fill="url(#paint9_linear_11_230)"/>
<g filter="url(#filter1_d_11_230)">
<path d="M273 58.1547C274.238 57.4402 275.762 57.4402 277 58.1547L320.631 83.3453C321.869 84.0598 322.631 85.3803 322.631 86.8094V137.191C322.631 138.62 321.869 139.94 320.631 140.655L277 165.845C275.762 166.56 274.238 166.56 273 165.845L229.369 140.655C228.131 139.94 227.369 138.62 227.369 137.191V86.8094C227.369 85.3803 228.131 84.0598 229.369 83.3453L273 58.1547Z" fill="#272A2E"/>
<path d="M276.75 58.5877L320.381 83.7783C321.464 84.4035 322.131 85.559 322.131 86.8094V137.191C322.131 138.441 321.464 139.596 320.381 140.222L276.75 165.412C275.667 166.037 274.333 166.037 273.25 165.412L229.619 140.222C228.536 139.596 227.869 138.441 227.869 137.191V86.8094C227.869 85.559 228.536 84.4035 229.619 83.7783L273.25 58.5877C274.333 57.9625 275.667 57.9625 276.75 58.5877Z" stroke="white" stroke-opacity="0.08"/>
</g>
<circle cx="275" cy="112" r="32" fill="url(#paint10_linear_11_230)"/>
<path d="M254.557 113.644C252.462 118.854 254.967 124.784 260.151 126.889L267.737 108.023C262.552 105.918 256.651 108.435 254.557 113.644Z" fill="white"/>
<path d="M267.168 117.197C264.774 123.151 267.637 129.928 273.562 132.333C279.487 134.739 286.23 131.862 288.624 125.908L267.168 117.197Z" fill="white"/>
<path d="M287.134 90.8169C294.54 93.8239 298.118 102.295 295.126 109.737C292.134 117.18 283.704 120.776 276.298 117.769L287.134 90.8169Z" fill="white"/>
<path d="M260.774 102.061C262.57 97.5951 267.627 95.4377 272.071 97.2419C276.515 99.0461 278.662 104.129 276.866 108.594L260.774 102.061Z" fill="white"/>
<path d="M420.981 52L421.238 52.875V78.264L420.981 78.521L409.22 71.5547L420.981 52Z" fill="#7F7CFF"/>
<path d="M420.981 52L432.742 71.5547L420.981 78.5211V66.198V52Z" fill="#7F7CFF"/>
<path d="M420.981 82.3553L421.126 82.5321V91.5763L420.981 91.9999L409.213 75.3925L420.981 82.3553Z" fill="#7F7CFF"/>
<path d="M420.981 92V82.3553L432.742 75.3925L420.981 92Z" fill="#7F7CFF"/>
<path d="M420.981 78.5209L409.22 71.5547L420.981 66.198V78.5209Z" fill="#7F7CFF"/>
<path d="M432.742 71.5547L420.981 78.5209V66.198L432.742 71.5547Z" fill="#7F7CFF"/>
<g filter="url(#filter2_d_11_230)">
<path d="M149.059 136.477C148.723 135.206 147.644 133.934 145.7 132.518C144.14 131.39 142.484 130.742 141.164 130.742C140.9 130.742 140.66 130.766 140.42 130.814C139.82 130.934 139.292 131.366 138.956 132.014C138.548 132.782 138.452 133.814 138.716 134.438C138.812 134.63 138.932 134.87 139.076 135.086C137.804 135.853 137.084 136.069 136.988 136.093C140.3 137.197 143.06 139.501 144.788 142.501L144.812 142.213C144.884 141.421 145.124 140.509 145.46 139.573C145.796 139.669 146.132 139.717 146.468 139.717C147.356 139.717 148.124 139.357 148.604 138.709C149.083 138.061 149.275 137.197 149.059 136.477Z" fill="#5E12A0"/>
<path d="M145.603 138.877C147.787 139.477 148.675 137.797 148.387 136.669C148.075 135.541 147.067 134.389 145.291 133.093C143.515 131.797 141.715 131.269 140.563 131.509C139.411 131.749 139.075 133.501 139.363 134.173C139.483 134.437 139.747 134.821 140.107 135.253C139.651 135.565 139.219 135.805 138.859 136.021C141.067 137.005 142.987 138.541 144.427 140.461C144.595 139.813 144.835 139.237 145.051 138.733C145.219 138.757 145.411 138.805 145.603 138.877Z" fill="url(#paint11_radial_11_230)"/>
<path d="M133.1 162.394C140.509 162.394 146.515 156.388 146.515 148.979C146.515 141.57 140.509 135.564 133.1 135.564C125.691 135.564 119.685 141.57 119.685 148.979C119.685 156.388 125.691 162.394 133.1 162.394Z" fill="url(#paint12_radial_11_230)"/>
<path d="M147.284 135.565C145.46 133.645 143.924 133.141 142.076 132.733C140.636 132.397 141.02 131.582 142.772 131.75C141.932 131.462 141.14 131.39 140.564 131.51C139.412 131.75 139.076 133.501 139.364 134.173C139.484 134.437 139.748 134.821 140.108 135.253C139.46 135.685 138.908 135.997 138.452 136.237C138.668 136.333 138.932 136.453 139.244 136.621C140.06 137.053 140.948 137.773 140.948 137.773C139.604 136.621 139.892 136.093 141.74 134.797C142.316 134.389 143.372 134.437 144.356 134.941C145.34 135.445 146.492 136.717 146.492 136.717L145.388 138.829C145.46 138.853 145.532 138.877 145.604 138.901C146.3 139.093 146.852 139.045 147.284 138.877C147.788 138.565 149.108 137.509 147.284 135.565Z" fill="#A98698" fill-opacity="0.6"/>
<path d="M142.051 133.885C142.531 134.077 143.155 134.413 143.923 134.917C144.835 135.517 145.627 136.189 146.131 136.717C145.291 137.821 144.739 139.333 144.403 140.389C144.571 140.629 144.763 140.869 144.931 141.109C145.099 140.509 145.387 139.621 145.771 138.733C145.867 138.757 145.987 138.757 146.107 138.757C146.395 138.757 146.731 138.709 146.995 138.493C147.187 138.349 147.403 138.085 147.379 137.605C147.379 137.149 147.019 136.573 146.275 135.877C145.747 135.373 145.027 134.821 144.307 134.317C142.243 132.949 140.803 132.565 140.155 133.213C139.723 133.645 139.771 134.173 139.915 134.557C139.147 135.061 138.5 135.421 138.068 135.661C138.356 135.757 138.619 135.877 138.907 135.997C139.675 135.589 140.779 134.893 142.051 133.885ZM146.587 137.317C146.659 137.437 146.683 137.557 146.683 137.629C146.683 137.845 146.611 137.917 146.563 137.965C146.467 138.037 146.275 138.085 146.107 138.085C146.251 137.797 146.419 137.557 146.587 137.317ZM140.659 133.741C140.731 133.669 140.923 133.621 141.235 133.669C140.995 133.861 140.755 134.029 140.515 134.197C140.491 134.029 140.515 133.861 140.659 133.741Z" fill="#5E12A0"/>
<path d="M133.1 134.773C125.252 134.773 118.893 141.132 118.893 148.98C118.893 156.827 125.252 163.187 133.1 163.187C140.947 163.187 147.307 156.827 147.307 148.98C147.307 141.132 140.923 134.773 133.1 134.773ZM133.1 162.395C125.684 162.395 119.685 156.395 119.685 148.98C119.685 141.564 125.684 135.565 133.1 135.565C140.515 135.565 146.515 141.564 146.515 148.98C146.515 156.395 140.491 162.395 133.1 162.395Z" fill="#5E12A0"/>
<path d="M133.1 162.394C140.509 162.394 146.515 156.388 146.515 148.979C146.515 141.57 140.509 135.564 133.1 135.564C125.691 135.564 119.685 141.57 119.685 148.979C119.685 156.388 125.691 162.394 133.1 162.394Z" fill="url(#paint13_linear_11_230)"/>
<path d="M133.004 160.763C125.685 159.587 120.717 152.7 121.917 145.38C122.445 142.141 124.077 139.381 126.381 137.389C123.021 139.333 120.525 142.717 119.853 146.844C118.677 154.164 123.645 161.051 130.94 162.227C135.02 162.899 138.956 161.627 141.859 159.131C139.292 160.619 136.172 161.267 133.004 160.763Z" fill="#A98698" fill-opacity="0.6"/>
<path d="M135.237 135.757C131.853 135.205 128.565 135.973 125.877 137.677C125.829 137.725 125.781 137.773 125.781 137.773C126.813 137.149 128.325 136.597 128.325 136.597C124.437 138.852 123.237 141.42 123.237 141.42C124.749 138.492 129.189 136.429 132.669 136.285C136.148 136.141 138.428 137.173 141.212 139.404C143.996 141.66 145.676 146.268 145.508 149.916C145.364 153.563 143.444 156.515 143.444 156.515C144.764 154.811 145.556 153.563 146.06 152.291C146.156 151.907 146.252 151.523 146.3 151.115C147.5 143.82 142.556 136.933 135.237 135.757Z" fill="url(#paint14_linear_11_230)"/>
<path d="M145.844 148.86C145.844 155.891 140.133 161.603 133.101 161.603C126.07 161.603 120.334 155.891 120.334 148.86H145.844Z" fill="url(#paint15_linear_11_230)"/>
<path d="M144.836 148.86C144.836 155.723 139.412 161.339 132.597 161.603H133.101C140.132 161.603 145.844 155.891 145.844 148.86H144.836Z" fill="url(#paint16_linear_11_230)"/>
<path d="M122.134 148.86H120.334C120.334 155.891 126.046 161.603 133.077 161.603C133.389 161.603 133.677 161.603 133.965 161.579C127.366 161.099 122.134 155.579 122.134 148.86Z" fill="url(#paint17_linear_11_230)"/>
<path d="M145.82 148.98C145.82 147.516 143.276 146.676 139.893 146.388C137.445 146.196 134.973 146.436 132.141 147.3C129.693 148.02 127.486 147.9 125.878 147.708C122.302 147.3 120.334 147.252 120.334 148.98C120.334 151.476 125.422 154.596 133.053 153.516C136.917 152.964 138.909 151.836 141.188 151.068C143.66 150.252 145.82 150.276 145.82 148.98Z" fill="url(#paint18_linear_11_230)"/>
<path d="M137.275 142.932C138.468 142.932 139.435 141.965 139.435 140.772C139.435 139.579 138.468 138.613 137.275 138.613C136.082 138.613 135.115 139.579 135.115 140.772C135.115 141.965 136.082 142.932 137.275 142.932Z" fill="white"/>
<path d="M140.803 144.54C141.307 144.54 141.715 144.131 141.715 143.628C141.715 143.124 141.307 142.716 140.803 142.716C140.3 142.716 139.892 143.124 139.892 143.628C139.892 144.131 140.3 144.54 140.803 144.54Z" fill="white"/>
<path d="M144.068 139.045H144.02C143.876 139.021 143.78 138.877 143.804 138.709C144.02 137.605 144.932 136.549 144.98 136.501C145.076 136.381 145.268 136.381 145.364 136.477C145.484 136.573 145.484 136.765 145.388 136.861C145.364 136.885 144.524 137.869 144.332 138.829C144.308 138.973 144.188 139.045 144.068 139.045Z" fill="url(#paint19_linear_11_230)"/>
<path d="M132.212 158.987C132.583 158.987 132.884 158.686 132.884 158.315C132.884 157.944 132.583 157.643 132.212 157.643C131.841 157.643 131.54 157.944 131.54 158.315C131.54 158.686 131.841 158.987 132.212 158.987Z" fill="white" fill-opacity="0.2"/>
<path d="M131.828 158.747C131.564 158.483 131.564 158.051 131.828 157.787C131.876 157.739 131.924 157.715 131.972 157.667C131.876 157.691 131.804 157.739 131.732 157.811C131.468 158.075 131.468 158.507 131.732 158.771C131.948 158.987 132.284 159.035 132.548 158.891C132.308 158.987 132.02 158.939 131.828 158.747Z" fill="url(#paint20_linear_11_230)"/>
<path d="M132.452 158.123C132.531 158.123 132.596 158.059 132.596 157.979C132.596 157.9 132.531 157.835 132.452 157.835C132.372 157.835 132.308 157.9 132.308 157.979C132.308 158.059 132.372 158.123 132.452 158.123Z" fill="white" fill-opacity="0.3"/>
<path d="M135.716 158.651C136.087 158.651 136.388 158.35 136.388 157.979C136.388 157.608 136.087 157.307 135.716 157.307C135.345 157.307 135.044 157.608 135.044 157.979C135.044 158.35 135.345 158.651 135.716 158.651Z" fill="white" fill-opacity="0.2"/>
<path d="M135.332 158.411C135.068 158.147 135.068 157.715 135.332 157.451C135.38 157.403 135.428 157.379 135.476 157.331C135.38 157.355 135.308 157.403 135.236 157.475C134.972 157.739 134.972 158.171 135.236 158.435C135.452 158.651 135.788 158.699 136.052 158.555C135.812 158.651 135.524 158.603 135.332 158.411Z" fill="url(#paint21_linear_11_230)"/>
<path d="M135.956 157.787C136.035 157.787 136.1 157.723 136.1 157.643C136.1 157.564 136.035 157.499 135.956 157.499C135.876 157.499 135.812 157.564 135.812 157.643C135.812 157.723 135.876 157.787 135.956 157.787Z" fill="white" fill-opacity="0.3"/>
<path d="M133.989 160.211C134.267 160.211 134.493 159.986 134.493 159.707C134.493 159.429 134.267 159.203 133.989 159.203C133.71 159.203 133.485 159.429 133.485 159.707C133.485 159.986 133.71 160.211 133.989 160.211Z" fill="white" fill-opacity="0.2"/>
<path d="M133.701 160.019C133.509 159.827 133.509 159.491 133.701 159.299C133.725 159.275 133.773 159.251 133.797 159.227C133.725 159.251 133.677 159.299 133.629 159.347C133.437 159.539 133.437 159.875 133.629 160.067C133.797 160.235 134.037 160.259 134.253 160.139C134.061 160.211 133.845 160.163 133.701 160.019Z" fill="url(#paint22_linear_11_230)"/>
<path d="M134.157 159.539C134.21 159.539 134.253 159.496 134.253 159.443C134.253 159.39 134.21 159.347 134.157 159.347C134.104 159.347 134.061 159.39 134.061 159.443C134.061 159.496 134.104 159.539 134.157 159.539Z" fill="white" fill-opacity="0.3"/>
<path d="M137.083 159.851C137.362 159.851 137.587 159.625 137.587 159.347C137.587 159.069 137.362 158.843 137.083 158.843C136.805 158.843 136.579 159.069 136.579 159.347C136.579 159.625 136.805 159.851 137.083 159.851Z" fill="white" fill-opacity="0.2"/>
<path d="M136.795 159.659C136.603 159.467 136.603 159.132 136.795 158.94C136.819 158.916 136.867 158.892 136.891 158.868C136.819 158.892 136.771 158.94 136.723 158.988C136.531 159.18 136.531 159.515 136.723 159.707C136.891 159.875 137.131 159.899 137.347 159.779C137.155 159.851 136.939 159.803 136.795 159.659Z" fill="url(#paint23_linear_11_230)"/>
<path d="M137.251 159.179C137.304 159.179 137.347 159.136 137.347 159.083C137.347 159.03 137.304 158.987 137.251 158.987C137.198 158.987 137.155 159.03 137.155 159.083C137.155 159.136 137.198 159.179 137.251 159.179Z" fill="white" fill-opacity="0.3"/>
<path d="M129.356 158.747C129.966 158.747 130.46 158.253 130.46 157.643C130.46 157.034 129.966 156.539 129.356 156.539C128.747 156.539 128.252 157.034 128.252 157.643C128.252 158.253 128.747 158.747 129.356 158.747Z" fill="white" fill-opacity="0.2"/>
<path d="M128.732 158.339C128.3 157.907 128.3 157.211 128.732 156.779C128.804 156.707 128.876 156.659 128.972 156.611C128.828 156.659 128.708 156.755 128.588 156.851C128.156 157.283 128.156 157.979 128.588 158.411C128.948 158.771 129.5 158.843 129.932 158.579C129.524 158.747 129.044 158.675 128.732 158.339Z" fill="url(#paint24_linear_11_230)"/>
<path d="M129.74 157.307C129.873 157.307 129.98 157.2 129.98 157.067C129.98 156.935 129.873 156.827 129.74 156.827C129.608 156.827 129.5 156.935 129.5 157.067C129.5 157.2 129.608 157.307 129.74 157.307Z" fill="white" fill-opacity="0.3"/>
<path d="M139.22 156.035C139.83 156.035 140.324 155.541 140.324 154.931C140.324 154.322 139.83 153.827 139.22 153.827C138.611 153.827 138.116 154.322 138.116 154.931C138.116 155.541 138.611 156.035 139.22 156.035Z" fill="white" fill-opacity="0.2"/>
<path d="M138.572 155.627C138.14 155.195 138.14 154.499 138.572 154.067C138.644 153.995 138.716 153.947 138.812 153.899C138.668 153.947 138.548 154.043 138.428 154.139C137.996 154.571 137.996 155.267 138.428 155.699C138.788 156.059 139.34 156.131 139.772 155.867C139.364 156.035 138.908 155.963 138.572 155.627Z" fill="url(#paint25_linear_11_230)"/>
<path d="M139.605 154.595C139.737 154.595 139.845 154.488 139.845 154.355C139.845 154.223 139.737 154.115 139.605 154.115C139.472 154.115 139.365 154.223 139.365 154.355C139.365 154.488 139.472 154.595 139.605 154.595Z" fill="white" fill-opacity="0.3"/>
</g>
<g filter="url(#filter3_d_11_230)">
<path fill-rule="evenodd" clip-rule="evenodd" d="M377.458 133.312L398.395 143.022L403.757 140.711L382.905 131L377.458 133.312Z" fill="#036F7D"/>
<path fill-rule="evenodd" clip-rule="evenodd" d="M398.395 142.994L403.757 140.682V145.855L398.395 148.166V142.994Z" fill="#299197"/>
<path fill-rule="evenodd" clip-rule="evenodd" d="M377.458 133.321V138.541L391.953 145.277L377.458 152.155V157.308L398.395 167V161.818L384.175 155.196L398.395 148.195V143.022L377.458 133.321Z" fill="#29CCC4"/>
<path fill-rule="evenodd" clip-rule="evenodd" d="M398.395 166.962L403.757 164.65V148.498L398.395 150.838V166.962Z" fill="#299197"/>
</g>
<g filter="url(#filter4_d_11_230)">
<path d="M67.26 83.8L75 76L82.78 83.78L87.3 79.26L75 67L62.74 79.28L67.26 83.8ZM55 87L59.52 82.48L64.06 87L59.54 91.52L55 87ZM67.24 90.2L75 98L82.78 90.22L87.3 94.74L75 107L62.74 94.72L67.24 90.2ZM86 87L90.52 82.48L95 87L90.5 91.52L86 87ZM75 91.58L79.6 87L75 82.42L71.64 85.8L71.24 86.18L70.44 87L75 91.58Z" fill="#F3BA2F"/>
</g>
<circle cx="143.921" cy="73" r="18.3333" fill="#1A1D1F"/>
<circle cx="143.921" cy="73" r="16.6667" stroke="#F0827D" stroke-width="0.6"/>
<path d="M143.921 65.0833V80.9924M142.103 79.1742H145.739M140.285 66.447L147.557 73.7197M140.285 73.7197L147.557 66.447M138.921 70.0833H148.921" stroke="white" stroke-width="0.8" stroke-linecap="round" stroke-linejoin="round"/>
<defs>
<filter id="filter0_d_11_230" x="405" y="54" width="138" height="138" filterUnits="userSpaceOnUse" color-interpolation-filters="sRGB">
<feFlood flood-opacity="0" result="BackgroundImageFix"/>
<feColorMatrix in="SourceAlpha" type="matrix" values="0 0 0 0 0 0 0 0 0 0 0 0 0 0 0 0 0 0 127 0" result="hardAlpha"/>
<feOffset/>
<feGaussianBlur stdDeviation="24"/>
<feColorMatrix type="matrix" values="0 0 0 0 0 0 0 0 0 0 0 0 0 0 0 0 0 0 0.64 0"/>
<feBlend mode="normal" in2="BackgroundImageFix" result="effect1_dropShadow_11_230"/>
<feBlend mode="normal" in="SourceGraphic" in2="effect1_dropShadow_11_230" result="shape"/>
</filter>
<filter id="filter1_d_11_230" x="179.369" y="9.6188" width="191.263" height="204.762" filterUnits="userSpaceOnUse" color-interpolation-filters="sRGB">
<feFlood flood-opacity="0" result="BackgroundImageFix"/>
<feColorMatrix in="SourceAlpha" type="matrix" values="0 0 0 0 0 0 0 0 0 0 0 0 0 0 0 0 0 0 127 0" result="hardAlpha"/>
<feOffset/>
<feGaussianBlur stdDeviation="24"/>
<feColorMatrix type="matrix" values="0 0 0 0 0 0 0 0 0 0 0 0 0 0 0 0 0 0 0.64 0"/>
<feBlend mode="normal" in2="BackgroundImageFix" result="effect1_dropShadow_11_230"/>
<feBlend mode="normal" in="SourceGraphic" in2="effect1_dropShadow_11_230" result="shape"/>
</filter>
<filter id="filter2_d_11_230" x="61" y="74" width="146" height="146" filterUnits="userSpaceOnUse" color-interpolation-filters="sRGB">
<feFlood flood-opacity="0" result="BackgroundImageFix"/>
<feColorMatrix in="SourceAlpha" type="matrix" values="0 0 0 0 0 0 0 0 0 0 0 0 0 0 0 0 0 0 127 0" result="hardAlpha"/>
<feOffset/>
<feGaussianBlur stdDeviation="24"/>
<feColorMatrix type="matrix" values="0 0 0 0 0 0 0 0 0 0 0 0 0 0 0 0 0 0 0.64 0"/>
<feBlend mode="normal" in2="BackgroundImageFix" result="effect1_dropShadow_11_230"/>
<feBlend mode="normal" in="SourceGraphic" in2="effect1_dropShadow_11_230" result="shape"/>
</filter>
<filter id="filter3_d_11_230" x="324.958" y="83" width="132" height="132" filterUnits="userSpaceOnUse" color-interpolation-filters="sRGB">
<feFlood flood-opacity="0" result="BackgroundImageFix"/>
<feColorMatrix in="SourceAlpha" type="matrix" values="0 0 0 0 0 0 0 0 0 0 0 0 0 0 0 0 0 0 127 0" result="hardAlpha"/>
<feOffset/>
<feGaussianBlur stdDeviation="24"/>
<feColorMatrix type="matrix" values="0 0 0 0 0 0 0 0 0 0 0 0 0 0 0 0 0 0 0.64 0"/>
<feBlend mode="normal" in2="BackgroundImageFix" result="effect1_dropShadow_11_230"/>
<feBlend mode="normal" in="SourceGraphic" in2="effect1_dropShadow_11_230" result="shape"/>
</filter>
<filter id="filter4_d_11_230" x="7" y="19" width="136" height="136" filterUnits="userSpaceOnUse" color-interpolation-filters="sRGB">
<feFlood flood-opacity="0" result="BackgroundImageFix"/>
<feColorMatrix in="SourceAlpha" type="matrix" values="0 0 0 0 0 0 0 0 0 0 0 0 0 0 0 0 0 0 127 0" result="hardAlpha"/>
<feOffset/>
<feGaussianBlur stdDeviation="24"/>
<feColorMatrix type="matrix" values="0 0 0 0 0 0 0 0 0 0 0 0 0 0 0 0 0 0 0.64 0"/>
<feBlend mode="normal" in2="BackgroundImageFix" result="effect1_dropShadow_11_230"/>
<feBlend mode="normal" in="SourceGraphic" in2="effect1_dropShadow_11_230" result="shape"/>
</filter>
<linearGradient id="paint0_linear_11_230" x1="109" y1="95" x2="227.335" y2="95" gradientUnits="userSpaceOnUse">
<stop stop-color="#482BFF"/>
<stop offset="1" stop-color="#007AFF"/>
</linearGradient>
<linearGradient id="paint1_linear_11_230" x1="177.872" y1="89.5" x2="227.335" y2="89.5" gradientUnits="userSpaceOnUse">
<stop stop-color="#482BFF"/>
<stop offset="1" stop-color="#007AFF"/>
</linearGradient>
<linearGradient id="paint2_linear_11_230" x1="169.107" y1="138" x2="227.335" y2="138" gradientUnits="userSpaceOnUse">
<stop stop-color="#482BFF"/>
<stop offset="1" stop-color="#007AFF"/>
</linearGradient>
<linearGradient id="paint3_linear_11_230" x1="171.611" y1="88" x2="211.682" y2="88" gradientUnits="userSpaceOnUse">
<stop stop-color="#482BFF"/>
<stop offset="1" stop-color="#007AFF"/>
</linearGradient>
<linearGradient id="paint4_linear_11_230" x1="159.715" y1="139" x2="227.335" y2="139" gradientUnits="userSpaceOnUse">
<stop stop-color="#482BFF"/>
<stop offset="1" stop-color="#007AFF"/>
</linearGradient>
<linearGradient id="paint5_linear_11_230" x1="390.958" y1="88" x2="322.666" y2="88" gradientUnits="userSpaceOnUse">
<stop stop-color="#482BFF"/>
<stop offset="1" stop-color="#007AFF"/>
</linearGradient>
<linearGradient id="paint6_linear_11_230" x1="361.785" y1="90" x2="322.666" y2="90" gradientUnits="userSpaceOnUse">
<stop stop-color="#482BFF"/>
<stop offset="1" stop-color="#007AFF"/>
</linearGradient>
<linearGradient id="paint7_linear_11_230" x1="432.066" y1="133.5" x2="322.666" y2="133.5" gradientUnits="userSpaceOnUse">
<stop stop-color="#482BFF"/>
<stop offset="1" stop-color="#007AFF"/>
</linearGradient>
<linearGradient id="paint8_linear_11_230" x1="444" y1="116.5" x2="322.666" y2="116.5" gradientUnits="userSpaceOnUse">
<stop stop-color="#482BFF"/>
<stop offset="1" stop-color="#007AFF"/>
</linearGradient>
<linearGradient id="paint9_linear_11_230" x1="365.1" y1="137" x2="322.666" y2="137" gradientUnits="userSpaceOnUse">
<stop stop-color="#482BFF"/>
<stop offset="1" stop-color="#007AFF"/>
</linearGradient>
<linearGradient id="paint10_linear_11_230" x1="307" y1="112" x2="243" y2="112" gradientUnits="userSpaceOnUse">
<stop stop-color="#482BFF"/>
<stop offset="1" stop-color="#007AFF"/>
</linearGradient>
<radialGradient id="paint11_radial_11_230" cx="0" cy="0" r="1" gradientUnits="userSpaceOnUse" gradientTransform="translate(147.949 135.157) scale(10.7258 10.7258)">
<stop stop-color="#FFEAFF" stop-opacity="0.6"/>
<stop offset="0.68" stop-color="#A087C9"/>
<stop offset="1" stop-color="#10002F"/>
</radialGradient>
<radialGradient id="paint12_radial_11_230" cx="0" cy="0" r="1" gradientUnits="userSpaceOnUse" gradientTransform="translate(141.982 139.731) scale(26.2421 26.2421)">
<stop stop-color="#FFEAFF" stop-opacity="0.6"/>
<stop offset="0.68" stop-color="#A087C9"/>
<stop offset="1" stop-color="#10002F"/>
</radialGradient>
<linearGradient id="paint13_linear_11_230" x1="130.948" y1="162.204" x2="135.239" y2="135.732" gradientUnits="userSpaceOnUse">
<stop stop-color="#81FFFF" stop-opacity="0.6"/>
<stop offset="0.62" stop-color="white" stop-opacity="0"/>
<stop offset="1" stop-color="white" stop-opacity="0"/>
</linearGradient>
<linearGradient id="paint14_linear_11_230" x1="142.555" y1="139.869" x2="131.462" y2="150.047" gradientUnits="userSpaceOnUse">
<stop stop-color="white" stop-opacity="0.6"/>
<stop offset="0.29" stop-color="white" stop-opacity="0.6"/>
<stop offset="0.78" stop-color="white" stop-opacity="0"/>
<stop offset="1" stop-color="white" stop-opacity="0"/>
</linearGradient>
<linearGradient id="paint15_linear_11_230" x1="120.345" y1="155.224" x2="145.838" y2="155.224" gradientUnits="userSpaceOnUse">
<stop stop-color="#0002E9"/>
<stop offset="1" stop-color="#FF00C7"/>
</linearGradient>
<linearGradient id="paint16_linear_11_230" x1="147.044" y1="149.978" x2="133.169" y2="163.091" gradientUnits="userSpaceOnUse">
<stop stop-color="white" stop-opacity="0.6"/>
<stop offset="0.29" stop-color="white" stop-opacity="0.6"/>
<stop offset="0.78" stop-color="white" stop-opacity="0"/>
<stop offset="1" stop-color="white" stop-opacity="0"/>
</linearGradient>
<linearGradient id="paint17_linear_11_230" x1="120.345" y1="155.224" x2="133.984" y2="155.224" gradientUnits="userSpaceOnUse">
<stop stop-color="#000292" stop-opacity="0.7"/>
<stop offset="1" stop-color="#7D00C7" stop-opacity="0.7"/>
</linearGradient>
<linearGradient id="paint18_linear_11_230" x1="120.362" y1="150.039" x2="145.821" y2="150.039" gradientUnits="userSpaceOnUse">
<stop stop-color="#000292"/>
<stop offset="1" stop-color="#BE00C7"/>
</linearGradient>
<linearGradient id="paint19_linear_11_230" x1="145.403" y1="136.384" x2="143.574" y2="139.358" gradientUnits="userSpaceOnUse">
<stop stop-color="white" stop-opacity="0.6"/>
<stop offset="0.29" stop-color="white" stop-opacity="0.6"/>
<stop offset="0.78" stop-color="white" stop-opacity="0"/>
<stop offset="1" stop-color="white" stop-opacity="0"/>
</linearGradient>
<linearGradient id="paint20_linear_11_230" x1="131.533" y1="158.336" x2="132.549" y2="158.336" gradientUnits="userSpaceOnUse">
<stop stop-color="white" stop-opacity="0.6"/>
<stop offset="0.29" stop-color="white" stop-opacity="0.6"/>
<stop offset="0.78" stop-color="white" stop-opacity="0"/>
<stop offset="1" stop-color="white" stop-opacity="0"/>
</linearGradient>
<linearGradient id="paint21_linear_11_230" x1="135.035" y1="157.995" x2="136.05" y2="157.995" gradientUnits="userSpaceOnUse">
<stop stop-color="white" stop-opacity="0.6"/>
<stop offset="0.29" stop-color="white" stop-opacity="0.6"/>
<stop offset="0.78" stop-color="white" stop-opacity="0"/>
<stop offset="1" stop-color="white" stop-opacity="0"/>
</linearGradient>
<linearGradient id="paint22_linear_11_230" x1="133.482" y1="159.713" x2="134.244" y2="159.713" gradientUnits="userSpaceOnUse">
<stop stop-color="white" stop-opacity="0.6"/>
<stop offset="0.29" stop-color="white" stop-opacity="0.6"/>
<stop offset="0.78" stop-color="white" stop-opacity="0"/>
<stop offset="1" stop-color="white" stop-opacity="0"/>
</linearGradient>
<linearGradient id="paint23_linear_11_230" x1="136.566" y1="159.352" x2="137.328" y2="159.352" gradientUnits="userSpaceOnUse">
<stop stop-color="white" stop-opacity="0.6"/>
<stop offset="0.29" stop-color="white" stop-opacity="0.6"/>
<stop offset="0.78" stop-color="white" stop-opacity="0"/>
<stop offset="1" stop-color="white" stop-opacity="0"/>
</linearGradient>
<linearGradient id="paint24_linear_11_230" x1="128.253" y1="157.671" x2="129.912" y2="157.671" gradientUnits="userSpaceOnUse">
<stop stop-color="white" stop-opacity="0.6"/>
<stop offset="0.29" stop-color="white" stop-opacity="0.6"/>
<stop offset="0.78" stop-color="white" stop-opacity="0"/>
<stop offset="1" stop-color="white" stop-opacity="0"/>
</linearGradient>
<linearGradient id="paint25_linear_11_230" x1="138.102" y1="154.959" x2="139.76" y2="154.959" gradientUnits="userSpaceOnUse">
<stop stop-color="white" stop-opacity="0.6"/>
<stop offset="0.29" stop-color="white" stop-opacity="0.6"/>
<stop offset="0.78" stop-color="white" stop-opacity="0"/>
<stop offset="1" stop-color="white" stop-opacity="0"/>
</linearGradient>
</defs>
</svg>
