<svg width="440" height="128" viewBox="0 0 440 128" fill="none" xmlns="http://www.w3.org/2000/svg">
<g clip-path="url(#clip0_1_94)">
<g filter="url(#filter0_d_1_94)">
<path fill-rule="evenodd" clip-rule="evenodd" d="M414.615 67.3973C407.49 64.057 401.822 62.7475 400.822 64.4751C399.823 66.2028 403.778 70.4613 410.221 74.9805C403.755 79.4746 399.784 83.7203 400.776 85.4495C401.769 87.1808 407.454 85.886 414.612 82.5635C415.29 90.4242 416.996 96 418.992 96C420.985 96 422.689 90.4409 423.369 82.5989C430.497 85.9415 436.162 87.2525 437.161 85.5242C438.161 83.7993 434.205 79.5384 427.764 75.0177C434.229 70.5238 438.199 66.2784 437.207 64.5492C436.214 62.8172 430.53 64.1124 423.372 67.4348C422.694 59.575 420.988 54 418.992 54C416.999 54 415.296 59.5573 414.615 67.3973ZM414.531 68.4499C414.44 69.6862 414.375 70.9732 414.337 72.2988C413.191 72.9999 412.094 73.7059 411.056 74.4082C408.312 72.4416 406.392 70.8305 406.392 70.8305C402.015 67.1445 401.686 65.3469 401.686 65.3469L401.684 65.3419C401.492 64.8864 401.898 64.7767 401.898 64.7767C403.693 64.4376 406.215 65.2103 406.215 65.2103C408.587 65.7505 411.602 67.02 414.531 68.4499ZM415.424 68.8919C415.396 69.1923 415.368 69.4992 415.342 69.8126C415.342 69.8126 415.317 70.5287 415.302 71.7161C415.745 71.452 416.195 71.1889 416.651 70.9274C417.084 70.6791 417.515 70.4363 417.945 70.1991C417.131 69.7642 416.284 69.3236 415.424 68.8919ZM419.008 69.62C417.824 68.9781 416.66 68.381 415.528 67.8323C416.534 58.039 418.145 55.6159 418.715 55.0514C418.778 54.9901 418.859 54.9527 418.946 54.9456C419.033 54.9386 419.12 54.9625 419.191 55.013C420.072 55.6376 420.811 58.2495 420.811 58.2495C421.748 61.7249 422.246 65.1093 422.51 67.8416C421.371 68.387 420.2 68.981 419.008 69.62ZM418.96 70.7477C417.921 71.3371 416.656 72.0723 415.291 72.9017C415.286 74.1244 415.294 75.6312 415.337 77.2744C416.203 77.8097 417.091 78.3288 417.98 78.8084C417.98 78.8084 418.334 79.0256 418.979 79.3862C419.928 78.8807 420.876 78.3449 421.786 77.7856C421.786 77.7856 422.151 77.5883 422.787 77.2105C422.822 76.1303 422.829 75.036 422.797 73.9624C422.797 73.9624 422.806 73.5903 422.798 72.923C421.745 72.305 420.424 71.5475 418.96 70.7477ZM422.77 71.7734C422.304 71.4923 421.831 71.2124 421.351 70.934C420.898 70.6714 420.446 70.4147 419.997 70.1642C421.039 69.5845 421.674 69.2483 421.674 69.2483C421.989 69.1022 422.296 68.9606 422.597 68.8235C422.691 69.9672 422.742 70.9671 422.77 71.7734ZM423.673 73.4412C423.682 73.9559 423.686 74.4757 423.686 75C423.686 75.5631 423.681 76.121 423.672 76.6729C424.362 76.244 425.211 75.6965 426.166 75.0397C425.888 74.8421 425.603 74.641 425.311 74.4364C425.311 74.4364 424.7 74.0534 423.673 73.4412ZM426.976 74.4725C425.924 73.7528 424.811 73.0288 423.648 72.3096C423.61 70.9761 423.544 69.6817 423.452 68.4385C432.473 64.4233 435.383 64.617 436.156 64.8297C436.24 64.8532 436.314 64.9058 436.363 64.9782C436.412 65.0506 436.434 65.138 436.425 65.2251C436.326 66.3009 434.424 68.2412 434.424 68.2412C431.886 70.7745 429.21 72.8855 426.976 74.4725ZM426.93 75.5892C425.891 76.2918 424.794 76.9981 423.648 77.6995C423.609 79.0577 423.541 80.3752 423.447 81.6393C425.939 82.7772 429.108 84.0368 432.573 84.966C432.573 84.966 435.204 85.636 436.186 85.1863C436.266 85.1502 436.33 85.0872 436.368 85.0084C436.405 84.9295 436.414 84.8399 436.392 84.7554C436.189 83.981 434.901 81.3706 426.93 75.5892ZM422.545 81.2197C422.627 80.2721 422.697 79.27 422.746 78.2444C422.282 78.5214 421.81 78.7972 421.332 79.0714C420.849 79.3486 420.367 79.6191 419.889 79.8827C420.604 80.2647 421.502 80.7241 422.545 81.2197ZM418.054 79.8692C417.585 79.6079 417.113 79.3399 416.639 79.0653C416.21 78.8167 415.786 78.5669 415.369 78.3161C415.4 79.2269 415.443 80.1683 415.5 81.1174C416.324 80.7326 417.185 80.3147 418.054 79.8692ZM414.312 76.6271C414.303 76.0902 414.298 75.5475 414.298 75C414.298 74.4971 414.302 73.9984 414.31 73.5044C413.529 73.9886 412.727 74.4981 411.926 75.0241C412.68 75.5505 413.481 76.0922 414.312 76.6271ZM411.089 75.5804C412.117 76.2816 413.203 76.9866 414.336 77.6871C414.374 79.0219 414.44 80.3176 414.532 81.5619C411.44 82.9593 409.07 83.8196 409.07 83.8196C403.689 85.7586 401.967 85.141 401.967 85.141C401.473 85.0787 401.584 84.6726 401.584 84.6726C402.191 82.9492 404.119 81.1525 404.119 81.1525C405.776 79.3707 408.384 77.3985 411.089 75.5804ZM418.979 80.3771C420.163 81.0189 421.327 81.6161 422.459 82.1647C422.133 85.526 421.703 87.9953 421.703 87.9953C420.709 93.628 419.316 94.8149 419.316 94.8149C419.02 95.2102 418.723 94.9136 418.723 94.9136C417.53 93.5304 416.933 90.9607 416.933 90.9607C416.209 88.6307 415.795 85.3741 415.565 82.1134C416.675 81.5796 417.817 80.9997 418.979 80.3771Z" fill="#6F7390"/>
<path d="M430.505 65.4633C430.505 66.282 429.864 66.9456 429.072 66.9456C428.281 66.9456 427.639 66.282 427.639 65.4633C427.639 64.6446 428.281 63.9809 429.072 63.9809C429.864 63.9809 430.505 64.6446 430.505 65.4633Z" fill="#B7B9C8"/>
<path d="M421.413 74.9504C421.413 76.3148 420.307 77.4209 418.943 77.4209C417.578 77.4209 416.472 76.3148 416.472 74.9504C416.472 73.5859 417.578 72.4798 418.943 72.4798C420.307 72.4798 421.413 73.5859 421.413 74.9504Z" fill="#B7B9C8"/>
<path d="M405.552 71.9857C406.344 71.9857 406.985 71.322 406.985 70.5033C406.985 69.6847 406.344 69.021 405.552 69.021C404.761 69.021 404.119 69.6847 404.119 70.5033C404.119 71.322 404.761 71.9857 405.552 71.9857Z" fill="#B7B9C8"/>
<path d="M417.461 88.6868C417.461 89.5055 416.819 90.1691 416.028 90.1691C415.236 90.1691 414.594 89.5055 414.594 88.6868C414.594 87.8681 415.236 87.2045 416.028 87.2045C416.819 87.2045 417.461 87.8681 417.461 88.6868Z" fill="#B7B9C8"/>
</g>
<path d="M56.6667 39C56.6667 40.4728 55.4728 41.6667 54 41.6667C52.5272 41.6667 51.3333 40.4728 51.3333 39C51.3333 37.5272 52.5272 36.3333 54 36.3333C55.4728 36.3333 56.6667 37.5272 56.6667 39ZM97.1419 53.5902L97.5229 53.2664L97.1419 53.5902ZM85.9413 40.4098L85.5603 40.7336L85.9413 40.4098ZM172.335 55.5H100.19V54.5H172.335V55.5ZM96.7609 53.914L85.5603 40.7336L86.3223 40.086L97.5229 53.2664L96.7609 53.914ZM82.8932 39.5H54V38.5H82.8932V39.5ZM100.19 55.5C98.8696 55.5 97.6159 54.9201 96.7609 53.914L97.5229 53.2664C98.1879 54.049 99.163 54.5 100.19 54.5V55.5ZM85.5603 40.7336C84.8953 39.951 83.9201 39.5 82.8932 39.5V38.5C84.2136 38.5 85.4673 39.0799 86.3223 40.086L85.5603 40.7336Z" fill="url(#paint0_linear_1_94)"/>
<path d="M125.539 36C125.539 37.4728 124.345 38.6667 122.872 38.6667C121.399 38.6667 120.206 37.4728 120.206 36C120.206 34.5272 121.399 33.3333 122.872 33.3333C124.345 33.3333 125.539 34.5272 125.539 36ZM142.132 44.9781L142.567 44.7309L142.132 44.9781ZM138.174 38.0219L138.609 37.7746L138.174 38.0219ZM172.335 47.5H145.609V46.5H172.335V47.5ZM141.698 45.2254L137.74 38.2691L138.609 37.7746L142.567 44.7309L141.698 45.2254ZM134.698 36.5H122.872V35.5H134.698V36.5ZM145.609 47.5C143.991 47.5 142.498 46.6316 141.698 45.2254L142.567 44.7309C143.189 45.8245 144.351 46.5 145.609 46.5V47.5ZM137.74 38.2691C137.117 37.1755 135.956 36.5 134.698 36.5V35.5C136.315 35.5 137.809 36.3684 138.609 37.7746L137.74 38.2691Z" fill="url(#paint1_linear_1_94)"/>
<path d="M116.773 113C116.773 111.527 115.579 110.333 114.107 110.333C112.634 110.333 111.44 111.527 111.44 113C111.44 114.473 112.634 115.667 114.107 115.667C115.579 115.667 116.773 114.473 116.773 113ZM129.356 110.76L128.907 110.54L129.356 110.76ZM172.335 66.5H153.29V67.5H172.335V66.5ZM149.249 69.0201L128.907 110.54L129.805 110.98L150.147 69.4601L149.249 69.0201ZM125.764 112.5H114.107V113.5H125.764V112.5ZM153.29 66.5C151.573 66.5 150.005 67.4777 149.249 69.0201L150.147 69.4601C150.735 68.2604 151.955 67.5 153.29 67.5V66.5ZM128.907 110.54C128.319 111.74 127.1 112.5 125.764 112.5V113.5C127.481 113.5 129.049 112.522 129.805 110.98L128.907 110.54Z" fill="url(#paint2_linear_1_94)"/>
<path d="M119.278 25C119.278 26.4728 118.084 27.6667 116.611 27.6667C115.139 27.6667 113.945 26.4728 113.945 25C113.945 23.5272 115.139 22.3333 116.611 22.3333C118.084 22.3333 119.278 23.5272 119.278 25ZM156.25 55.2518L139.924 27.2376L140.788 26.7341L157.114 54.7482L156.25 55.2518ZM136.9 25.5H116.611V24.5H136.9V25.5ZM139.924 27.2376C139.297 26.1617 138.145 25.5 136.9 25.5V24.5C138.501 24.5 139.981 25.3508 140.788 26.7341L139.924 27.2376Z" fill="url(#paint3_linear_1_94)"/>
<path d="M107.382 99C107.382 97.5272 106.188 96.3333 104.715 96.3333C103.242 96.3333 102.048 97.5272 102.048 99C102.048 100.473 103.242 101.667 104.715 101.667C106.188 101.667 107.382 100.473 107.382 99ZM128.958 85.2527L129.408 85.4711L128.958 85.2527ZM172.335 82.5H132.556V83.5H172.335V82.5ZM128.508 85.0343L122.927 96.5289L123.826 96.9657L129.408 85.4711L128.508 85.0343ZM119.778 98.5H104.715V99.5H119.778V98.5ZM132.556 82.5C130.833 82.5 129.261 83.4841 128.508 85.0343L129.408 85.4711C129.993 84.2654 131.216 83.5 132.556 83.5V82.5ZM122.927 96.5289C122.341 97.7346 121.119 98.5 119.778 98.5V99.5C121.502 99.5 123.073 98.5159 123.826 96.9657L122.927 96.5289Z" fill="url(#paint4_linear_1_94)"/>
<path d="M333.291 25C333.291 26.4728 334.485 27.6667 335.958 27.6667C337.431 27.6667 338.624 26.4728 338.624 25C338.624 23.5272 337.431 22.3333 335.958 22.3333C334.485 22.3333 333.291 23.5272 333.291 25ZM309.949 52.4962L309.486 52.3092L309.949 52.4962ZM320.03 27.5038L320.494 27.6908L320.03 27.5038ZM267.666 55.5H306.24V54.5H267.666V55.5ZM310.413 52.6833L320.494 27.6908L319.566 27.3167L309.486 52.3092L310.413 52.6833ZM323.739 25.5H335.958V24.5H323.739V25.5ZM306.24 55.5C308.075 55.5 309.727 54.3854 310.413 52.6833L309.486 52.3092C308.952 53.6331 307.667 54.5 306.24 54.5V55.5ZM320.494 27.6908C321.028 26.3669 322.312 25.5 323.739 25.5V24.5C321.904 24.5 320.253 25.6146 319.566 27.3167L320.494 27.6908Z" fill="url(#paint5_linear_1_94)"/>
<path d="M304.118 34C304.118 35.4728 305.312 36.6667 306.785 36.6667C308.257 36.6667 309.451 35.4728 309.451 34C309.451 32.5272 308.257 31.3333 306.785 31.3333C305.312 31.3333 304.118 32.5272 304.118 34ZM290.474 36.6321L290.004 36.4612L290.474 36.6321ZM267.666 50.5H282.809V49.5H267.666V50.5ZM287.037 47.5388L290.944 36.8031L290.004 36.4612L286.098 47.1969L287.037 47.5388ZM294.233 34.5H306.785V33.5H294.233V34.5ZM282.809 50.5C284.7 50.5 286.39 49.3167 287.037 47.5388L286.098 47.1969C285.594 48.5796 284.28 49.5 282.809 49.5V50.5ZM290.944 36.8031C291.447 35.4204 292.762 34.5 294.233 34.5V33.5C292.341 33.5 290.651 34.6833 290.004 36.4612L290.944 36.8031Z" fill="url(#paint6_linear_1_94)"/>
<path d="M374.399 100C374.399 98.5272 375.593 97.3333 377.066 97.3333C378.538 97.3333 379.732 98.5272 379.732 100C379.732 101.473 378.538 102.667 377.066 102.667C375.593 102.667 374.399 101.473 374.399 100ZM267.666 70.5H329.628V71.5H267.666V70.5ZM332.893 71.9039L358.021 98.408L357.295 99.0961L332.168 72.592L332.893 71.9039ZM360.561 99.5H377.066V100.5H360.561V99.5ZM329.628 70.5C330.863 70.5 332.043 71.0076 332.893 71.9039L332.168 72.592C331.507 71.8948 330.588 71.5 329.628 71.5V70.5ZM358.021 98.408C358.682 99.1052 359.6 99.5 360.561 99.5V100.5C359.326 100.5 358.145 99.9924 357.295 99.0961L358.021 98.408Z" fill="url(#paint7_linear_1_94)"/>
<path d="M386.333 73C386.333 71.5272 387.527 70.3333 389 70.3333C390.473 70.3333 391.667 71.5272 391.667 73C391.667 74.4728 390.473 75.6667 389 75.6667C387.527 75.6667 386.333 74.4728 386.333 73ZM355.157 65.2498L354.794 65.5936L355.157 65.2498ZM361.312 71.7502L361.675 71.4064L361.312 71.7502ZM267.666 63.5H352.252V64.5H267.666V63.5ZM355.52 64.9061L361.675 71.4064L360.949 72.0939L354.794 65.5936L355.52 64.9061ZM364.216 72.5H389V73.5H364.216V72.5ZM352.252 63.5C353.488 63.5 354.67 64.0085 355.52 64.9061L354.794 65.5936C354.133 64.8955 353.214 64.5 352.252 64.5V63.5ZM361.675 71.4064C362.336 72.1045 363.255 72.5 364.216 72.5V73.5C362.98 73.5 361.798 72.9915 360.949 72.0939L361.675 71.4064Z" fill="url(#paint8_linear_1_94)"/>
<path d="M307.433 101C307.433 99.5272 308.627 98.3333 310.1 98.3333C311.573 98.3333 312.766 99.5272 312.766 101C312.766 102.473 311.573 103.667 310.1 103.667C308.627 103.667 307.433 102.473 307.433 101ZM287.842 78.9686L287.411 79.2225L287.842 78.9686ZM299.67 99.0314L299.239 99.2853L299.67 99.0314ZM267.666 76.5H284.396V77.5H267.666V76.5ZM288.273 78.7147L300.1 98.7775L299.239 99.2853L287.411 79.2225L288.273 78.7147ZM303.115 100.5H310.1V101.5H303.115V100.5ZM284.396 76.5C285.989 76.5 287.464 77.3423 288.273 78.7147L287.411 79.2225C286.782 78.1551 285.635 77.5 284.396 77.5V76.5ZM300.1 98.7775C300.73 99.8449 301.876 100.5 303.115 100.5V101.5C301.522 101.5 300.048 100.658 299.239 99.2853L300.1 98.7775Z" fill="url(#paint9_linear_1_94)"/>
<g filter="url(#filter1_d_1_94)">
<path d="M218 10.1547C219.238 9.44017 220.762 9.44017 222 10.1547L265.631 35.3453C266.869 36.0598 267.631 37.3803 267.631 38.8094V89.1906C267.631 90.6197 266.869 91.9402 265.631 92.6547L222 117.845C220.762 118.56 219.238 118.56 218 117.845L174.369 92.6547C173.131 91.9402 172.369 90.6197 172.369 89.1906V38.8094C172.369 37.3803 173.131 36.0598 174.369 35.3453L218 10.1547Z" fill="#272A2E"/>
<path d="M221.75 10.5877L265.381 35.7783C266.464 36.4035 267.131 37.559 267.131 38.8094V89.1906C267.131 90.441 266.464 91.5965 265.381 92.2217L221.75 117.412C220.667 118.037 219.333 118.037 218.25 117.412L174.619 92.2217C173.536 91.5965 172.869 90.441 172.869 89.1906V38.8094C172.869 37.559 173.536 36.4035 174.619 35.7783L218.25 10.5877C219.333 9.9625 220.667 9.9625 221.75 10.5877Z" stroke="white" stroke-opacity="0.08"/>
</g>
<circle cx="220" cy="64" r="32" fill="url(#paint10_linear_1_94)"/>
<path d="M199.557 65.6444C197.462 70.8542 199.967 76.7839 205.151 78.8888L212.737 60.0226C207.552 57.9177 201.651 60.4347 199.557 65.6444Z" fill="white"/>
<path d="M212.168 69.197C209.774 75.151 212.637 81.9278 218.562 84.3334C224.487 86.7389 231.23 83.8624 233.624 77.9084L212.168 69.197Z" fill="white"/>
<path d="M232.134 42.8169C239.54 45.8239 243.118 54.2948 240.126 61.7373C237.134 69.1798 228.704 72.7756 221.298 69.7686L232.134 42.8169Z" fill="white"/>
<path d="M205.774 54.0606C207.57 49.5951 212.627 47.4377 217.071 49.2419C221.515 51.0461 223.662 56.1287 221.866 60.5942L205.774 54.0606Z" fill="white"/>
<path d="M365.981 4L366.238 4.87495V30.264L365.981 30.521L354.22 23.5547L365.981 4Z" fill="#7F7CFF"/>
<path d="M365.981 4L377.742 23.5547L365.981 30.5211V18.198V4Z" fill="#7F7CFF"/>
<path d="M365.981 34.3553L366.126 34.5321V43.5763L365.981 43.9999L354.213 27.3925L365.981 34.3553Z" fill="#7F7CFF"/>
<path d="M365.981 44V34.3553L377.742 27.3925L365.981 44Z" fill="#7F7CFF"/>
<path d="M365.981 30.5209L354.22 23.5547L365.981 18.198V30.5209Z" fill="#7F7CFF"/>
<path d="M377.742 23.5547L365.981 30.5209V18.198L377.742 23.5547Z" fill="#7F7CFF"/>
<g filter="url(#filter2_d_1_94)">
<path d="M94.0595 88.4774C93.7235 87.2055 92.6436 85.9336 90.6997 84.5177C89.1399 83.3898 87.484 82.7419 86.1641 82.7419C85.9001 82.7419 85.6601 82.7658 85.4202 82.8138C84.8202 82.9338 84.2922 83.3658 83.9563 84.0138C83.5483 84.7817 83.4523 85.8136 83.7163 86.4376C83.8123 86.6295 83.9323 86.8695 84.0763 87.0855C82.8044 87.8534 82.0844 88.0694 81.9884 88.0934C85.3002 89.1973 88.0599 91.5012 89.7878 94.5009L89.8118 94.2129C89.8838 93.421 90.1238 92.5091 90.4598 91.5731C90.7957 91.6691 91.1317 91.7171 91.4677 91.7171C92.3556 91.7171 93.1235 91.3572 93.6035 90.7092C94.0835 90.0613 94.2754 89.1973 94.0595 88.4774Z" fill="#5E12A0"/>
<path d="M90.603 90.8767C92.7868 91.4766 93.6747 89.7967 93.3867 88.6688C93.0748 87.5409 92.0668 86.389 90.291 85.0931C88.5151 83.7972 86.7153 83.2693 85.5634 83.5092C84.4115 83.7492 84.0755 85.5011 84.3635 86.173C84.4834 86.437 84.7474 86.821 85.1074 87.2529C84.6514 87.5649 84.2195 87.8049 83.8595 88.0209C86.0673 89.0048 87.9872 90.5407 89.4271 92.4605C89.595 91.8126 89.835 91.2366 90.051 90.7327C90.219 90.7567 90.411 90.8047 90.603 90.8767Z" fill="url(#paint11_radial_1_94)"/>
<path d="M78.0998 114.394C85.5087 114.394 91.5147 108.388 91.5147 100.979C91.5147 93.5705 85.5087 87.5645 78.0998 87.5645C70.6908 87.5645 64.6848 93.5705 64.6848 100.979C64.6848 108.388 70.6908 114.394 78.0998 114.394Z" fill="url(#paint12_radial_1_94)"/>
<path d="M92.2837 87.5652C90.4599 85.6454 88.924 85.1414 87.0762 84.7334C85.6363 84.3975 86.0202 83.5815 87.7721 83.7495C86.9322 83.4615 86.1402 83.3896 85.5643 83.5095C84.4124 83.7495 84.0764 85.5014 84.3644 86.1733C84.4844 86.4373 84.7484 86.8213 85.1083 87.2532C84.4604 87.6852 83.9084 87.9972 83.4525 88.2372C83.6684 88.3332 83.9324 88.4531 84.2444 88.6211C85.0603 89.0531 85.9483 89.773 85.9483 89.773C84.6044 88.6211 84.8923 88.0932 86.7402 86.7973C87.3161 86.3893 88.3721 86.4373 89.356 86.9413C90.3399 87.4452 91.4918 88.7171 91.4918 88.7171L90.3879 90.829C90.4599 90.853 90.5319 90.877 90.6039 90.901C91.2998 91.0929 91.8518 91.0449 92.2837 90.877C92.7877 90.565 94.1076 89.5091 92.2837 87.5652Z" fill="#A98698" fill-opacity="0.6"/>
<path d="M87.0512 85.8853C87.5312 86.0773 88.1551 86.4133 88.9231 86.9172C89.835 87.5172 90.6269 88.1891 91.1309 88.7171C90.291 89.821 89.739 91.3329 89.403 92.3888C89.571 92.6288 89.763 92.8687 89.931 93.1087C90.099 92.5088 90.387 91.6208 90.7709 90.7329C90.8669 90.7569 90.9869 90.7569 91.1069 90.7569C91.3949 90.7569 91.7308 90.7089 91.9948 90.4929C92.1868 90.3489 92.4028 90.085 92.3788 89.605C92.3788 89.149 92.0188 88.5731 91.2749 87.8771C90.7469 87.3732 90.027 86.8212 89.307 86.3173C87.2432 84.9494 85.8033 84.5654 85.1554 85.2133C84.7234 85.6453 84.7714 86.1733 84.9154 86.5572C84.1474 87.0612 83.4995 87.4212 83.0675 87.6612C83.3555 87.7571 83.6195 87.8771 83.9075 87.9971C84.6754 87.5892 85.7793 86.8932 87.0512 85.8853ZM91.5869 89.317C91.6589 89.437 91.6828 89.557 91.6828 89.629C91.6828 89.845 91.6109 89.917 91.5629 89.965C91.4669 90.037 91.2749 90.085 91.1069 90.085C91.2509 89.797 91.4189 89.557 91.5869 89.317ZM85.6593 85.7413C85.7313 85.6693 85.9233 85.6213 86.2353 85.6693C85.9953 85.8613 85.7553 86.0293 85.5153 86.1973C85.4913 86.0293 85.5153 85.8613 85.6593 85.7413Z" fill="#5E12A0"/>
<path d="M78.0997 86.7728C70.2524 86.7728 63.8929 93.1323 63.8929 100.98C63.8929 108.827 70.2524 115.187 78.0997 115.187C85.9471 115.187 92.3066 108.827 92.3066 100.98C92.3066 93.1323 85.9231 86.7728 78.0997 86.7728ZM78.0997 114.395C70.6843 114.395 64.6848 108.395 64.6848 100.98C64.6848 93.5643 70.6843 87.5648 78.0997 87.5648C85.5152 87.5648 91.5147 93.5643 91.5147 100.98C91.5147 108.395 85.4912 114.395 78.0997 114.395Z" fill="#5E12A0"/>
<path d="M78.0998 114.394C85.5087 114.394 91.5147 108.388 91.5147 100.979C91.5147 93.5705 85.5087 87.5645 78.0998 87.5645C70.6908 87.5645 64.6848 93.5705 64.6848 100.979C64.6848 108.388 70.6908 114.394 78.0998 114.394Z" fill="url(#paint13_linear_1_94)"/>
<path d="M78.004 112.763C70.6846 111.587 65.717 104.7 66.9169 97.3804C67.4449 94.1406 69.0767 91.3808 71.3805 89.389C68.0208 91.3329 65.525 94.7166 64.8531 98.8443C63.6772 106.164 68.6448 113.051 75.9402 114.227C80.0199 114.899 83.9555 113.627 86.8593 111.131C84.2915 112.619 81.1718 113.267 78.004 112.763Z" fill="#A98698" fill-opacity="0.6"/>
<path d="M80.2365 87.7567C76.8528 87.2048 73.5651 87.9727 70.8773 89.6766C70.8293 89.7246 70.7813 89.7726 70.7813 89.7726C71.8132 89.1486 73.3251 88.5967 73.3251 88.5967C69.4374 90.8525 68.2375 93.4203 68.2375 93.4203C69.7494 90.4925 74.189 88.4287 77.6687 88.2847C81.1485 88.1407 83.4283 89.1726 86.2121 91.4044C88.9958 93.6602 90.6757 98.2679 90.5077 101.916C90.3637 105.563 88.4439 108.515 88.4439 108.515C89.7638 106.811 90.5557 105.563 91.0597 104.291C91.1557 103.907 91.2516 103.523 91.2996 103.115C92.4995 95.8201 87.5559 88.9326 80.2365 87.7567Z" fill="url(#paint14_linear_1_94)"/>
<path d="M90.8441 100.86C90.8441 107.891 85.1325 113.603 78.1011 113.603C71.0696 113.603 65.3341 107.891 65.3341 100.86H90.8441Z" fill="url(#paint15_linear_1_94)"/>
<path d="M89.8359 100.86C89.8359 107.723 84.4123 113.339 77.5969 113.603H78.1009C85.1323 113.603 90.8438 107.891 90.8438 100.86H89.8359Z" fill="url(#paint16_linear_1_94)"/>
<path d="M67.134 100.86H65.3341C65.3341 107.891 71.0457 113.603 78.0771 113.603C78.3891 113.603 78.677 113.603 78.965 113.579C72.3655 113.099 67.134 107.579 67.134 100.86Z" fill="url(#paint17_linear_1_94)"/>
<path d="M90.8201 100.98C90.8201 99.5161 88.2763 98.6762 84.8925 98.3882C82.4447 98.1962 79.9729 98.4362 77.1412 99.3001C74.6934 100.02 72.4855 99.9001 70.8777 99.7081C67.3019 99.3001 65.3341 99.2521 65.3341 100.98C65.3341 103.476 70.4217 106.596 78.0531 105.516C81.9168 104.964 83.9086 103.836 86.1884 103.068C88.6602 102.252 90.8201 102.276 90.8201 100.98Z" fill="url(#paint18_linear_1_94)"/>
<path d="M82.2752 94.9322C83.4681 94.9322 84.435 93.9653 84.435 92.7724C84.435 91.5794 83.4681 90.6125 82.2752 90.6125C81.0822 90.6125 80.1153 91.5794 80.1153 92.7724C80.1153 93.9653 81.0822 94.9322 82.2752 94.9322Z" fill="white"/>
<path d="M85.8035 96.5396C86.3072 96.5396 86.7154 96.1314 86.7154 95.6277C86.7154 95.1239 86.3072 94.7157 85.8035 94.7157C85.2997 94.7157 84.8915 95.1239 84.8915 95.6277C84.8915 96.1314 85.2997 96.5396 85.8035 96.5396Z" fill="white"/>
<path d="M89.0684 91.045H89.0204C88.8765 91.021 88.7805 90.877 88.8045 90.709C89.0204 89.6051 89.9324 88.5492 89.9804 88.5012C90.0764 88.3812 90.2683 88.3812 90.3643 88.4772C90.4843 88.5732 90.4843 88.7652 90.3883 88.8612C90.3643 88.8852 89.5244 89.8691 89.3324 90.829C89.3084 90.973 89.1884 91.045 89.0684 91.045Z" fill="url(#paint19_linear_1_94)"/>
<path d="M77.212 110.987C77.583 110.987 77.8839 110.686 77.8839 110.315C77.8839 109.944 77.583 109.643 77.212 109.643C76.841 109.643 76.54 109.944 76.54 110.315C76.54 110.686 76.841 110.987 77.212 110.987Z" fill="white" fill-opacity="0.2"/>
<path d="M76.8279 110.747C76.5639 110.483 76.5639 110.051 76.8279 109.787C76.8759 109.739 76.9239 109.715 76.9719 109.667C76.8759 109.691 76.8039 109.739 76.7319 109.811C76.4679 110.075 76.4679 110.507 76.7319 110.771C76.9479 110.987 77.2839 111.035 77.5479 110.891C77.3079 110.987 77.0199 110.939 76.8279 110.747Z" fill="url(#paint20_linear_1_94)"/>
<path d="M77.4517 110.123C77.5311 110.123 77.5957 110.059 77.5957 109.979C77.5957 109.9 77.5311 109.835 77.4517 109.835C77.3723 109.835 77.3077 109.9 77.3077 109.979C77.3077 110.059 77.3723 110.123 77.4517 110.123Z" fill="white" fill-opacity="0.3"/>
<path d="M80.716 110.651C81.087 110.651 81.3879 110.35 81.3879 109.979C81.3879 109.608 81.087 109.307 80.716 109.307C80.3449 109.307 80.044 109.608 80.044 109.979C80.044 110.35 80.3449 110.651 80.716 110.651Z" fill="white" fill-opacity="0.2"/>
<path d="M80.3319 110.411C80.0679 110.147 80.0679 109.715 80.3319 109.451C80.3799 109.403 80.4279 109.379 80.4759 109.331C80.3799 109.355 80.3079 109.403 80.2359 109.475C79.9719 109.739 79.9719 110.171 80.2359 110.435C80.4519 110.651 80.7878 110.699 81.0518 110.555C80.8118 110.651 80.5239 110.603 80.3319 110.411Z" fill="url(#paint21_linear_1_94)"/>
<path d="M80.9558 109.787C81.0352 109.787 81.0998 109.723 81.0998 109.643C81.0998 109.564 81.0352 109.499 80.9558 109.499C80.8764 109.499 80.8118 109.564 80.8118 109.643C80.8118 109.723 80.8764 109.787 80.9558 109.787Z" fill="white" fill-opacity="0.3"/>
<path d="M78.9887 112.211C79.2671 112.211 79.4927 111.986 79.4927 111.707C79.4927 111.429 79.2671 111.203 78.9887 111.203C78.7103 111.203 78.4847 111.429 78.4847 111.707C78.4847 111.986 78.7103 112.211 78.9887 112.211Z" fill="white" fill-opacity="0.2"/>
<path d="M78.7007 112.019C78.5087 111.827 78.5087 111.491 78.7007 111.299C78.7247 111.275 78.7727 111.251 78.7967 111.227C78.7247 111.251 78.6767 111.299 78.6287 111.347C78.4367 111.539 78.4367 111.875 78.6287 112.067C78.7967 112.235 79.0367 112.259 79.2527 112.139C79.0607 112.211 78.8447 112.163 78.7007 112.019Z" fill="url(#paint22_linear_1_94)"/>
<path d="M79.1566 111.539C79.2097 111.539 79.2526 111.496 79.2526 111.443C79.2526 111.39 79.2097 111.347 79.1566 111.347C79.1036 111.347 79.0606 111.39 79.0606 111.443C79.0606 111.496 79.1036 111.539 79.1566 111.539Z" fill="white" fill-opacity="0.3"/>
<path d="M82.0833 111.851C82.3617 111.851 82.5873 111.625 82.5873 111.347C82.5873 111.069 82.3617 110.843 82.0833 110.843C81.805 110.843 81.5794 111.069 81.5794 111.347C81.5794 111.625 81.805 111.851 82.0833 111.851Z" fill="white" fill-opacity="0.2"/>
<path d="M81.7954 111.659C81.6034 111.468 81.6034 111.132 81.7954 110.94C81.8194 110.916 81.8674 110.892 81.8914 110.868C81.8194 110.892 81.7714 110.94 81.7234 110.988C81.5314 111.18 81.5314 111.516 81.7234 111.707C81.8914 111.875 82.1313 111.899 82.3473 111.779C82.1553 111.851 81.9393 111.803 81.7954 111.659Z" fill="url(#paint23_linear_1_94)"/>
<path d="M82.2513 111.179C82.3043 111.179 82.3473 111.136 82.3473 111.083C82.3473 111.03 82.3043 110.987 82.2513 110.987C82.1982 110.987 82.1553 111.03 82.1553 111.083C82.1553 111.136 82.1982 111.179 82.2513 111.179Z" fill="white" fill-opacity="0.3"/>
<path d="M74.3562 110.747C74.966 110.747 75.4601 110.253 75.4601 109.643C75.4601 109.034 74.966 108.539 74.3562 108.539C73.7466 108.539 73.2523 109.034 73.2523 109.643C73.2523 110.253 73.7466 110.747 74.3562 110.747Z" fill="white" fill-opacity="0.2"/>
<path d="M73.7324 110.339C73.3005 109.907 73.3005 109.211 73.7324 108.779C73.8044 108.707 73.8764 108.659 73.9724 108.611C73.8284 108.659 73.7084 108.755 73.5884 108.851C73.1565 109.283 73.1565 109.979 73.5884 110.411C73.9484 110.771 74.5004 110.843 74.9323 110.579C74.5244 110.747 74.0444 110.675 73.7324 110.339Z" fill="url(#paint24_linear_1_94)"/>
<path d="M74.7401 109.307C74.8725 109.307 74.9801 109.2 74.9801 109.067C74.9801 108.935 74.8725 108.827 74.7401 108.827C74.6076 108.827 74.5001 108.935 74.5001 109.067C74.5001 109.2 74.6076 109.307 74.7401 109.307Z" fill="white" fill-opacity="0.3"/>
<path d="M84.2203 108.035C84.8301 108.035 85.3242 107.541 85.3242 106.931C85.3242 106.322 84.8301 105.827 84.2203 105.827C83.6107 105.827 83.1164 106.322 83.1164 106.931C83.1164 107.541 83.6107 108.035 84.2203 108.035Z" fill="white" fill-opacity="0.2"/>
<path d="M83.5721 107.627C83.1402 107.195 83.1402 106.499 83.5721 106.067C83.6441 105.995 83.7161 105.947 83.8121 105.899C83.6681 105.947 83.5481 106.043 83.4281 106.139C82.9962 106.571 82.9962 107.267 83.4281 107.699C83.7881 108.059 84.3401 108.131 84.772 107.867C84.3641 108.035 83.9081 107.963 83.5721 107.627Z" fill="url(#paint25_linear_1_94)"/>
<path d="M84.6047 106.595C84.7372 106.595 84.8447 106.488 84.8447 106.355C84.8447 106.223 84.7372 106.115 84.6047 106.115C84.4723 106.115 84.3647 106.223 84.3647 106.355C84.3647 106.488 84.4723 106.595 84.6047 106.595Z" fill="white" fill-opacity="0.3"/>
</g>
<g filter="url(#filter3_d_1_94)">
<path fill-rule="evenodd" clip-rule="evenodd" d="M322.458 85.3116L343.395 95.0221L348.757 92.7105L327.905 83L322.458 85.3116Z" fill="#036F7D"/>
<path fill-rule="evenodd" clip-rule="evenodd" d="M343.395 94.9936L348.757 92.6821V97.8547L343.395 100.166V94.9936Z" fill="#299197"/>
<path fill-rule="evenodd" clip-rule="evenodd" d="M322.458 85.3211V90.5411L336.953 97.2769L322.458 104.155V109.308L343.395 119V113.818L329.175 107.196L343.395 100.195V95.0221L322.458 85.3211Z" fill="#29CCC4"/>
<path fill-rule="evenodd" clip-rule="evenodd" d="M343.395 118.962L348.757 116.65V100.498L343.395 102.838V118.962Z" fill="#299197"/>
</g>
<g filter="url(#filter4_d_1_94)">
<path d="M12.26 35.8L20 28L27.78 35.78L32.3 31.26L20 19L7.74 31.28L12.26 35.8ZM0 39L4.52 34.48L9.06 39L4.54 43.52L0 39ZM12.24 42.2L20 50L27.78 42.22L32.3 46.74L20 59L7.74 46.72L12.24 42.2ZM31 39L35.52 34.48L40 39L35.5 43.52L31 39ZM20 43.58L24.6 39L20 34.42L16.64 37.8L16.24 38.18L15.44 39L20 43.58Z" fill="#F3BA2F"/>
</g>
<circle cx="88.9209" cy="25" r="18.3333" fill="#1A1D1F"/>
<circle cx="88.9209" cy="25" r="16.6667" stroke="#F0827D" stroke-width="0.6"/>
<path d="M88.9209 17.0833V32.9924M87.1027 31.1742H90.7391M85.2845 18.447L92.5573 25.7197M85.2845 25.7197L92.5573 18.447M83.9209 22.0833H93.9209" stroke="white" stroke-width="0.8" stroke-linecap="round" stroke-linejoin="round"/>
</g>
<defs>
<filter id="filter0_d_1_94" x="350" y="6" width="138" height="138" filterUnits="userSpaceOnUse" color-interpolation-filters="sRGB">
<feFlood flood-opacity="0" result="BackgroundImageFix"/>
<feColorMatrix in="SourceAlpha" type="matrix" values="0 0 0 0 0 0 0 0 0 0 0 0 0 0 0 0 0 0 127 0" result="hardAlpha"/>
<feOffset/>
<feGaussianBlur stdDeviation="24"/>
<feColorMatrix type="matrix" values="0 0 0 0 0 0 0 0 0 0 0 0 0 0 0 0 0 0 0.64 0"/>
<feBlend mode="normal" in2="BackgroundImageFix" result="effect1_dropShadow_1_94"/>
<feBlend mode="normal" in="SourceGraphic" in2="effect1_dropShadow_1_94" result="shape"/>
</filter>
<filter id="filter1_d_1_94" x="124.369" y="-38.3812" width="191.263" height="204.762" filterUnits="userSpaceOnUse" color-interpolation-filters="sRGB">
<feFlood flood-opacity="0" result="BackgroundImageFix"/>
<feColorMatrix in="SourceAlpha" type="matrix" values="0 0 0 0 0 0 0 0 0 0 0 0 0 0 0 0 0 0 127 0" result="hardAlpha"/>
<feOffset/>
<feGaussianBlur stdDeviation="24"/>
<feColorMatrix type="matrix" values="0 0 0 0 0 0 0 0 0 0 0 0 0 0 0 0 0 0 0.64 0"/>
<feBlend mode="normal" in2="BackgroundImageFix" result="effect1_dropShadow_1_94"/>
<feBlend mode="normal" in="SourceGraphic" in2="effect1_dropShadow_1_94" result="shape"/>
</filter>
<filter id="filter2_d_1_94" x="6" y="26" width="146" height="146" filterUnits="userSpaceOnUse" color-interpolation-filters="sRGB">
<feFlood flood-opacity="0" result="BackgroundImageFix"/>
<feColorMatrix in="SourceAlpha" type="matrix" values="0 0 0 0 0 0 0 0 0 0 0 0 0 0 0 0 0 0 127 0" result="hardAlpha"/>
<feOffset/>
<feGaussianBlur stdDeviation="24"/>
<feColorMatrix type="matrix" values="0 0 0 0 0 0 0 0 0 0 0 0 0 0 0 0 0 0 0.64 0"/>
<feBlend mode="normal" in2="BackgroundImageFix" result="effect1_dropShadow_1_94"/>
<feBlend mode="normal" in="SourceGraphic" in2="effect1_dropShadow_1_94" result="shape"/>
</filter>
<filter id="filter3_d_1_94" x="269.958" y="35" width="132" height="132" filterUnits="userSpaceOnUse" color-interpolation-filters="sRGB">
<feFlood flood-opacity="0" result="BackgroundImageFix"/>
<feColorMatrix in="SourceAlpha" type="matrix" values="0 0 0 0 0 0 0 0 0 0 0 0 0 0 0 0 0 0 127 0" result="hardAlpha"/>
<feOffset/>
<feGaussianBlur stdDeviation="24"/>
<feColorMatrix type="matrix" values="0 0 0 0 0 0 0 0 0 0 0 0 0 0 0 0 0 0 0.64 0"/>
<feBlend mode="normal" in2="BackgroundImageFix" result="effect1_dropShadow_1_94"/>
<feBlend mode="normal" in="SourceGraphic" in2="effect1_dropShadow_1_94" result="shape"/>
</filter>
<filter id="filter4_d_1_94" x="-48" y="-29" width="136" height="136" filterUnits="userSpaceOnUse" color-interpolation-filters="sRGB">
<feFlood flood-opacity="0" result="BackgroundImageFix"/>
<feColorMatrix in="SourceAlpha" type="matrix" values="0 0 0 0 0 0 0 0 0 0 0 0 0 0 0 0 0 0 127 0" result="hardAlpha"/>
<feOffset/>
<feGaussianBlur stdDeviation="24"/>
<feColorMatrix type="matrix" values="0 0 0 0 0 0 0 0 0 0 0 0 0 0 0 0 0 0 0.64 0"/>
<feBlend mode="normal" in2="BackgroundImageFix" result="effect1_dropShadow_1_94"/>
<feBlend mode="normal" in="SourceGraphic" in2="effect1_dropShadow_1_94" result="shape"/>
</filter>
<linearGradient id="paint0_linear_1_94" x1="54" y1="47" x2="172.335" y2="47" gradientUnits="userSpaceOnUse">
<stop stop-color="#482BFF"/>
<stop offset="1" stop-color="#007AFF"/>
</linearGradient>
<linearGradient id="paint1_linear_1_94" x1="122.872" y1="41.5" x2="172.335" y2="41.5" gradientUnits="userSpaceOnUse">
<stop stop-color="#482BFF"/>
<stop offset="1" stop-color="#007AFF"/>
</linearGradient>
<linearGradient id="paint2_linear_1_94" x1="114.107" y1="90" x2="172.335" y2="90" gradientUnits="userSpaceOnUse">
<stop stop-color="#482BFF"/>
<stop offset="1" stop-color="#007AFF"/>
</linearGradient>
<linearGradient id="paint3_linear_1_94" x1="116.611" y1="40" x2="156.682" y2="40" gradientUnits="userSpaceOnUse">
<stop stop-color="#482BFF"/>
<stop offset="1" stop-color="#007AFF"/>
</linearGradient>
<linearGradient id="paint4_linear_1_94" x1="104.715" y1="91" x2="172.335" y2="91" gradientUnits="userSpaceOnUse">
<stop stop-color="#482BFF"/>
<stop offset="1" stop-color="#007AFF"/>
</linearGradient>
<linearGradient id="paint5_linear_1_94" x1="335.958" y1="40" x2="267.666" y2="40" gradientUnits="userSpaceOnUse">
<stop stop-color="#482BFF"/>
<stop offset="1" stop-color="#007AFF"/>
</linearGradient>
<linearGradient id="paint6_linear_1_94" x1="306.785" y1="42" x2="267.666" y2="42" gradientUnits="userSpaceOnUse">
<stop stop-color="#482BFF"/>
<stop offset="1" stop-color="#007AFF"/>
</linearGradient>
<linearGradient id="paint7_linear_1_94" x1="377.066" y1="85.5" x2="267.666" y2="85.5" gradientUnits="userSpaceOnUse">
<stop stop-color="#482BFF"/>
<stop offset="1" stop-color="#007AFF"/>
</linearGradient>
<linearGradient id="paint8_linear_1_94" x1="389" y1="68.5" x2="267.666" y2="68.5" gradientUnits="userSpaceOnUse">
<stop stop-color="#482BFF"/>
<stop offset="1" stop-color="#007AFF"/>
</linearGradient>
<linearGradient id="paint9_linear_1_94" x1="310.1" y1="89" x2="267.666" y2="89" gradientUnits="userSpaceOnUse">
<stop stop-color="#482BFF"/>
<stop offset="1" stop-color="#007AFF"/>
</linearGradient>
<linearGradient id="paint10_linear_1_94" x1="252" y1="64" x2="188" y2="64" gradientUnits="userSpaceOnUse">
<stop stop-color="#482BFF"/>
<stop offset="1" stop-color="#007AFF"/>
</linearGradient>
<radialGradient id="paint11_radial_1_94" cx="0" cy="0" r="1" gradientUnits="userSpaceOnUse" gradientTransform="translate(92.949 87.1569) scale(10.7258 10.7258)">
<stop stop-color="#FFEAFF" stop-opacity="0.6"/>
<stop offset="0.68" stop-color="#A087C9"/>
<stop offset="1" stop-color="#10002F"/>
</radialGradient>
<radialGradient id="paint12_radial_1_94" cx="0" cy="0" r="1" gradientUnits="userSpaceOnUse" gradientTransform="translate(86.9816 91.7309) scale(26.2421 26.2421)">
<stop stop-color="#FFEAFF" stop-opacity="0.6"/>
<stop offset="0.68" stop-color="#A087C9"/>
<stop offset="1" stop-color="#10002F"/>
</radialGradient>
<linearGradient id="paint13_linear_1_94" x1="75.9479" y1="114.204" x2="80.2387" y2="87.7324" gradientUnits="userSpaceOnUse">
<stop stop-color="#81FFFF" stop-opacity="0.6"/>
<stop offset="0.62" stop-color="white" stop-opacity="0"/>
<stop offset="1" stop-color="white" stop-opacity="0"/>
</linearGradient>
<linearGradient id="paint14_linear_1_94" x1="87.5547" y1="91.8692" x2="76.4619" y2="102.047" gradientUnits="userSpaceOnUse">
<stop stop-color="white" stop-opacity="0.6"/>
<stop offset="0.29" stop-color="white" stop-opacity="0.6"/>
<stop offset="0.78" stop-color="white" stop-opacity="0"/>
<stop offset="1" stop-color="white" stop-opacity="0"/>
</linearGradient>
<linearGradient id="paint15_linear_1_94" x1="65.3449" y1="107.224" x2="90.8378" y2="107.224" gradientUnits="userSpaceOnUse">
<stop stop-color="#0002E9"/>
<stop offset="1" stop-color="#FF00C7"/>
</linearGradient>
<linearGradient id="paint16_linear_1_94" x1="92.0445" y1="101.978" x2="78.1687" y2="115.091" gradientUnits="userSpaceOnUse">
<stop stop-color="white" stop-opacity="0.6"/>
<stop offset="0.29" stop-color="white" stop-opacity="0.6"/>
<stop offset="0.78" stop-color="white" stop-opacity="0"/>
<stop offset="1" stop-color="white" stop-opacity="0"/>
</linearGradient>
<linearGradient id="paint17_linear_1_94" x1="65.3449" y1="107.224" x2="78.9835" y2="107.224" gradientUnits="userSpaceOnUse">
<stop stop-color="#000292" stop-opacity="0.7"/>
<stop offset="1" stop-color="#7D00C7" stop-opacity="0.7"/>
</linearGradient>
<linearGradient id="paint18_linear_1_94" x1="65.362" y1="102.039" x2="90.8209" y2="102.039" gradientUnits="userSpaceOnUse">
<stop stop-color="#000292"/>
<stop offset="1" stop-color="#BE00C7"/>
</linearGradient>
<linearGradient id="paint19_linear_1_94" x1="90.4032" y1="88.3843" x2="88.5736" y2="91.3577" gradientUnits="userSpaceOnUse">
<stop stop-color="white" stop-opacity="0.6"/>
<stop offset="0.29" stop-color="white" stop-opacity="0.6"/>
<stop offset="0.78" stop-color="white" stop-opacity="0"/>
<stop offset="1" stop-color="white" stop-opacity="0"/>
</linearGradient>
<linearGradient id="paint20_linear_1_94" x1="76.5333" y1="110.336" x2="77.5486" y2="110.336" gradientUnits="userSpaceOnUse">
<stop stop-color="white" stop-opacity="0.6"/>
<stop offset="0.29" stop-color="white" stop-opacity="0.6"/>
<stop offset="0.78" stop-color="white" stop-opacity="0"/>
<stop offset="1" stop-color="white" stop-opacity="0"/>
</linearGradient>
<linearGradient id="paint21_linear_1_94" x1="80.0348" y1="109.995" x2="81.0501" y2="109.995" gradientUnits="userSpaceOnUse">
<stop stop-color="white" stop-opacity="0.6"/>
<stop offset="0.29" stop-color="white" stop-opacity="0.6"/>
<stop offset="0.78" stop-color="white" stop-opacity="0"/>
<stop offset="1" stop-color="white" stop-opacity="0"/>
</linearGradient>
<linearGradient id="paint22_linear_1_94" x1="78.4816" y1="111.713" x2="79.2439" y2="111.713" gradientUnits="userSpaceOnUse">
<stop stop-color="white" stop-opacity="0.6"/>
<stop offset="0.29" stop-color="white" stop-opacity="0.6"/>
<stop offset="0.78" stop-color="white" stop-opacity="0"/>
<stop offset="1" stop-color="white" stop-opacity="0"/>
</linearGradient>
<linearGradient id="paint23_linear_1_94" x1="81.5659" y1="111.352" x2="82.3281" y2="111.352" gradientUnits="userSpaceOnUse">
<stop stop-color="white" stop-opacity="0.6"/>
<stop offset="0.29" stop-color="white" stop-opacity="0.6"/>
<stop offset="0.78" stop-color="white" stop-opacity="0"/>
<stop offset="1" stop-color="white" stop-opacity="0"/>
</linearGradient>
<linearGradient id="paint24_linear_1_94" x1="73.2535" y1="109.671" x2="74.9116" y2="109.671" gradientUnits="userSpaceOnUse">
<stop stop-color="white" stop-opacity="0.6"/>
<stop offset="0.29" stop-color="white" stop-opacity="0.6"/>
<stop offset="0.78" stop-color="white" stop-opacity="0"/>
<stop offset="1" stop-color="white" stop-opacity="0"/>
</linearGradient>
<linearGradient id="paint25_linear_1_94" x1="83.1023" y1="106.959" x2="84.7605" y2="106.959" gradientUnits="userSpaceOnUse">
<stop stop-color="white" stop-opacity="0.6"/>
<stop offset="0.29" stop-color="white" stop-opacity="0.6"/>
<stop offset="0.78" stop-color="white" stop-opacity="0"/>
<stop offset="1" stop-color="white" stop-opacity="0"/>
</linearGradient>
<clipPath id="clip0_1_94">
<rect width="440" height="128" fill="white"/>
</clipPath>
</defs>
</svg>
