<svg width="599" height="211" viewBox="0 0 599 211" fill="none" xmlns="http://www.w3.org/2000/svg">
<line x1="14" y1="71.75" x2="582" y2="71.75" stroke="white" stroke-opacity="0.08" stroke-width="0.5"/>
<line x1="77.75" y1="176" x2="77.75" y2="48" stroke="white" stroke-opacity="0.08" stroke-width="0.5"/>
<line x1="97.75" y1="176" x2="97.75" y2="48" stroke="white" stroke-opacity="0.08" stroke-width="0.5"/>
<line x1="117.75" y1="176" x2="117.75" y2="48" stroke="white" stroke-opacity="0.08" stroke-width="0.5"/>
<line x1="137.75" y1="176" x2="137.75" y2="48" stroke="white" stroke-opacity="0.08" stroke-width="0.5"/>
<line x1="157.75" y1="176" x2="157.75" y2="48" stroke="white" stroke-opacity="0.08" stroke-width="0.5"/>
<line x1="177.75" y1="176" x2="177.75" y2="48" stroke="white" stroke-opacity="0.08" stroke-width="0.5"/>
<line x1="197.75" y1="176" x2="197.75" y2="48" stroke="white" stroke-opacity="0.08" stroke-width="0.5"/>
<line x1="217.75" y1="176" x2="217.75" y2="48" stroke="white" stroke-opacity="0.08" stroke-width="0.5"/>
<line x1="237.75" y1="176" x2="237.75" y2="48" stroke="white" stroke-opacity="0.08" stroke-width="0.5"/>
<line x1="257.75" y1="176" x2="257.75" y2="48" stroke="white" stroke-opacity="0.08" stroke-width="0.5"/>
<line x1="277.75" y1="176" x2="277.75" y2="48" stroke="white" stroke-opacity="0.08" stroke-width="0.5"/>
<line x1="297.75" y1="176" x2="297.75" y2="48" stroke="white" stroke-opacity="0.08" stroke-width="0.5"/>
<line x1="317.75" y1="176" x2="317.75" y2="48" stroke="white" stroke-opacity="0.08" stroke-width="0.5"/>
<line x1="337.75" y1="176" x2="337.75" y2="48" stroke="white" stroke-opacity="0.08" stroke-width="0.5"/>
<line x1="357.75" y1="176" x2="357.75" y2="48" stroke="white" stroke-opacity="0.08" stroke-width="0.5"/>
<line x1="377.75" y1="176" x2="377.75" y2="48" stroke="white" stroke-opacity="0.08" stroke-width="0.5"/>
<line x1="397.75" y1="176" x2="397.75" y2="48" stroke="white" stroke-opacity="0.08" stroke-width="0.5"/>
<line x1="417.75" y1="176" x2="417.75" y2="48" stroke="white" stroke-opacity="0.08" stroke-width="0.5"/>
<line x1="437.75" y1="176" x2="437.75" y2="48" stroke="white" stroke-opacity="0.08" stroke-width="0.5"/>
<line x1="457.75" y1="176" x2="457.75" y2="48" stroke="white" stroke-opacity="0.08" stroke-width="0.5"/>
<line x1="477.75" y1="176" x2="477.75" y2="48" stroke="white" stroke-opacity="0.08" stroke-width="0.5"/>
<line x1="497.75" y1="176" x2="497.75" y2="48" stroke="white" stroke-opacity="0.08" stroke-width="0.5"/>
<line x1="517.75" y1="176" x2="517.75" y2="48" stroke="white" stroke-opacity="0.08" stroke-width="0.5"/>
<line x1="14" y1="91.75" x2="582" y2="91.75" stroke="white" stroke-opacity="0.08" stroke-width="0.5"/>
<line x1="14" y1="111.75" x2="582" y2="111.75" stroke="white" stroke-opacity="0.08" stroke-width="0.5"/>
<line x1="14" y1="131.75" x2="582" y2="131.75" stroke="white" stroke-opacity="0.08" stroke-width="0.5"/>
<line x1="14" y1="151.75" x2="582" y2="151.75" stroke="white" stroke-opacity="0.08" stroke-width="0.5"/>
<path d="M198 112H398M398 112L394.312 109M398 112L394.312 115" stroke="url(#paint0_linear_7089_138214)" stroke-linecap="round" stroke-linejoin="round"/>
<path d="M298 176V48M298 48L295 51M298 48L301 51" stroke="url(#paint1_linear_7089_138214)" stroke-linecap="round" stroke-linejoin="round"/>
<path d="M234 176C234 176 255.074 112 298 112C340.926 112 362 48 362 48" stroke="url(#paint2_linear_7089_138214)" stroke-width="2" stroke-linecap="round"/>
<line x1="382" y1="49.4142" x2="278.414" y2="153" stroke="url(#paint3_linear_7089_138214)" stroke-width="2" stroke-linecap="round"/>
<path d="M390 86.2143C390 86.7666 390.448 87.2143 391 87.2143C391.552 87.2143 392 86.7666 392 86.2143H390ZM382 97.7857C382 97.2334 381.552 96.7857 381 96.7857C380.448 96.7857 380 97.2334 380 97.7857H382ZM383.5 88.4286C382.948 88.4286 382.5 88.8763 382.5 89.4286C382.5 89.9809 382.948 90.4286 383.5 90.4286V88.4286ZM388.5 90.4286C389.052 90.4286 389.5 89.9809 389.5 89.4286C389.5 88.8763 389.052 88.4286 388.5 88.4286V90.4286ZM391.717 95.1601C391.332 94.7641 390.699 94.7552 390.303 95.1401C389.907 95.5251 389.898 96.1582 390.283 96.5542L391.717 95.1601ZM395.283 101.697C395.668 102.093 396.301 102.102 396.697 101.717C397.093 101.332 397.102 100.699 396.717 100.303L395.283 101.697ZM396.717 96.5542C397.102 96.1582 397.093 95.5251 396.697 95.1401C396.301 94.7552 395.668 94.7641 395.283 95.1601L396.717 96.5542ZM390.283 100.303C389.898 100.699 389.907 101.332 390.303 101.717C390.699 102.102 391.332 102.093 391.717 101.697L390.283 100.303ZM387 98.5V85.5H385V98.5H387ZM390 85.5V86.2143H392V85.5H390ZM380 97.7857V98.5H382V97.7857H380ZM383.5 90.4286H388.5V88.4286H383.5V90.4286ZM390.283 96.5542L395.283 101.697L396.717 100.303L391.717 95.1601L390.283 96.5542ZM395.283 95.1601L390.283 100.303L391.717 101.697L396.717 96.5542L395.283 95.1601ZM383.5 102C385.433 102 387 100.433 387 98.5H385C385 99.3284 384.328 100 383.5 100V102ZM383.5 100C382.672 100 382 99.3284 382 98.5H380C380 100.433 381.567 102 383.5 102V100ZM388.5 84C389.328 84 390 84.6716 390 85.5H392C392 83.567 390.433 82 388.5 82V84ZM388.5 82C386.567 82 385 83.567 385 85.5H387C387 84.6716 387.672 84 388.5 84V82Z" fill="url(#paint4_linear_7089_138214)"/>
<path d="M365.134 84.5C365.519 83.8333 366.481 83.8333 366.866 84.5L375.526 99.5C375.911 100.167 375.43 101 374.66 101H357.34C356.57 101 356.089 100.167 356.474 99.5L365.134 84.5Z" stroke="url(#paint5_linear_7089_138214)" stroke-width="2"/>
<g filter="url(#filter0_d_7089_138214)">
<path d="M478.292 87.8723C474.634 96.9721 479.009 107.329 488.064 111.006L501.313 78.0527C492.258 74.3762 481.951 78.7726 478.292 87.8723Z" fill="#272A2E"/>
<path d="M500.32 94.0775C496.139 104.477 501.139 116.314 511.488 120.516C521.837 124.718 533.616 119.693 537.797 109.293L500.32 94.0775Z" fill="#272A2E"/>
<path d="M535.194 48C548.13 53.2522 554.38 68.0482 549.154 81.0479C543.927 94.0475 529.203 100.328 516.267 95.0759L535.194 48Z" fill="#272A2E"/>
<path d="M489.152 67.6392C492.288 59.8394 501.122 56.0711 508.884 59.2224C516.646 62.3737 520.396 71.2513 517.26 79.0511L489.152 67.6392Z" fill="#272A2E"/>
<path d="M500.661 78.3352L487.79 110.347C479.306 106.615 475.263 96.7482 478.756 88.0588C482.25 79.3696 491.978 75.0955 500.661 78.3352ZM511.676 120.053C501.738 116.018 496.855 104.762 500.602 94.7318L537.142 109.567C532.905 119.398 521.613 124.087 511.676 120.053ZM516.918 94.7955L535.469 48.6566C547.834 53.9663 553.752 68.2719 548.69 80.8614C543.628 93.4507 529.483 99.6093 516.918 94.7955ZM489.809 67.3665C492.999 60.1346 501.346 56.7016 508.696 59.6857C516.046 62.6698 519.679 70.9667 516.976 78.396L489.809 67.3665Z" stroke="white" stroke-opacity="0.08"/>
</g>
<g filter="url(#filter1_d_7089_138214)">
<path d="M53.1838 125.648C53.1838 108.721 67.0701 95 84.1998 95C101.329 95 115.216 108.721 115.216 125.648V125.658C110.74 127.502 105.829 128.521 100.678 128.521C98.7986 128.521 96.9516 128.385 95.146 128.124C91.7992 138.891 81.6559 146.718 69.6624 146.718C66.3061 146.718 63.0948 146.105 60.1367 144.986C55.7899 139.711 53.1838 132.98 53.1838 125.648Z" fill="#272A2E"/>
<path d="M103.101 130.916C109.985 130.916 116.44 129.097 122 125.919C121.853 146.423 104.986 163 84.2003 163C67.1193 163 52.6844 151.805 48 136.436C48.3238 136.623 48.6519 136.803 48.9842 136.977C53.2705 145.853 62.4374 151.986 73.0539 151.986C86.0187 151.986 96.8215 142.84 99.2144 130.721C100.492 130.85 101.788 130.916 103.101 130.916Z" fill="#272A2E"/>
<path d="M95.2177 127.629L94.7953 127.568L94.6686 127.975C91.3859 138.536 81.4341 146.218 69.6624 146.218C66.4145 146.218 63.306 145.633 60.4381 144.565C56.2127 139.392 53.6838 132.812 53.6838 125.648C53.6838 109.003 67.3406 95.5 84.1998 95.5C100.949 95.5 114.538 108.828 114.714 125.323C110.382 127.062 105.644 128.021 100.678 128.021C98.8226 128.021 96.9996 127.887 95.2177 127.629ZM103.101 131.416C109.761 131.416 116.026 129.735 121.484 126.779C120.879 146.603 104.424 162.5 84.2003 162.5C68.2169 162.5 54.5847 152.569 49.2745 138.616C53.9017 146.887 62.8173 152.486 73.0539 152.486C86.0995 152.486 97.0014 143.393 99.6134 131.261C100.762 131.363 101.925 131.416 103.101 131.416Z" stroke="white" stroke-opacity="0.08"/>
</g>
<defs>
<filter id="filter0_d_7089_138214" x="429" y="0" width="170" height="170" filterUnits="userSpaceOnUse" color-interpolation-filters="sRGB">
<feFlood flood-opacity="0" result="BackgroundImageFix"/>
<feColorMatrix in="SourceAlpha" type="matrix" values="0 0 0 0 0 0 0 0 0 0 0 0 0 0 0 0 0 0 127 0" result="hardAlpha"/>
<feOffset/>
<feGaussianBlur stdDeviation="24"/>
<feColorMatrix type="matrix" values="0 0 0 0 0 0 0 0 0 0 0 0 0 0 0 0 0 0 0.64 0"/>
<feBlend mode="normal" in2="BackgroundImageFix" result="effect1_dropShadow_7089_138214"/>
<feBlend mode="normal" in="SourceGraphic" in2="effect1_dropShadow_7089_138214" result="shape"/>
</filter>
<filter id="filter1_d_7089_138214" x="0" y="47" width="170" height="164" filterUnits="userSpaceOnUse" color-interpolation-filters="sRGB">
<feFlood flood-opacity="0" result="BackgroundImageFix"/>
<feColorMatrix in="SourceAlpha" type="matrix" values="0 0 0 0 0 0 0 0 0 0 0 0 0 0 0 0 0 0 127 0" result="hardAlpha"/>
<feOffset/>
<feGaussianBlur stdDeviation="24"/>
<feColorMatrix type="matrix" values="0 0 0 0 0 0 0 0 0 0 0 0 0 0 0 0 0 0 0.64 0"/>
<feBlend mode="normal" in2="BackgroundImageFix" result="effect1_dropShadow_7089_138214"/>
<feBlend mode="normal" in="SourceGraphic" in2="effect1_dropShadow_7089_138214" result="shape"/>
</filter>
<linearGradient id="paint0_linear_7089_138214" x1="398" y1="112" x2="198" y2="112" gradientUnits="userSpaceOnUse">
<stop stop-color="#482BFF"/>
<stop offset="1" stop-color="#007AFF"/>
</linearGradient>
<linearGradient id="paint1_linear_7089_138214" x1="298" y1="48" x2="298" y2="176" gradientUnits="userSpaceOnUse">
<stop stop-color="#482BFF"/>
<stop offset="1" stop-color="#007AFF"/>
</linearGradient>
<linearGradient id="paint2_linear_7089_138214" x1="234" y1="112" x2="362" y2="112" gradientUnits="userSpaceOnUse">
<stop stop-color="#FFA800"/>
<stop offset="1" stop-color="#FF5107"/>
</linearGradient>
<linearGradient id="paint3_linear_7089_138214" x1="276.637" y1="152.637" x2="381.637" y2="47.6365" gradientUnits="userSpaceOnUse">
<stop stop-color="#00A862"/>
<stop offset="1" stop-color="#00AF92"/>
</linearGradient>
<linearGradient id="paint4_linear_7089_138214" x1="381" y1="92" x2="396" y2="92" gradientUnits="userSpaceOnUse">
<stop stop-color="#FFA800"/>
<stop offset="1" stop-color="#FF5107"/>
</linearGradient>
<linearGradient id="paint5_linear_7089_138214" x1="354" y1="95" x2="378" y2="95" gradientUnits="userSpaceOnUse">
<stop stop-color="#FFA800"/>
<stop offset="1" stop-color="#FF5107"/>
</linearGradient>
</defs>
</svg>
