<svg width="236" height="164" viewBox="0 0 236 164" fill="none" xmlns="http://www.w3.org/2000/svg">
<g clip-path="url(#clip0_52518_47809)">
<g opacity="0.2" filter="url(#filter0_f_52518_47809)">
<g clip-path="url(#clip1_52518_47809)">
<path d="M16.5339 19.021C15.7933 18.273 15.4229 17.294 15.4229 16.084C15.4229 14.874 15.7933 13.895 16.5339 13.147C17.2746 12.399 18.2133 12.025 19.3499 12.025C20.3399 12.025 21.1796 12.3 21.8689 12.85C22.5656 13.4 22.9873 14.1443 23.1339 15.083H21.4179C21.3006 14.599 21.0586 14.225 20.6919 13.961C20.3253 13.6897 19.8779 13.554 19.3499 13.554C18.6459 13.554 18.0959 13.7813 17.6999 14.236C17.3113 14.6907 17.1169 15.3067 17.1169 16.084C17.1169 16.8613 17.3113 17.4773 17.6999 17.932C18.0959 18.3867 18.6459 18.614 19.3499 18.614C19.8779 18.614 20.3253 18.482 20.6919 18.218C21.0586 17.9467 21.3006 17.569 21.4179 17.085H23.1339C22.9873 18.0237 22.5656 18.768 21.8689 19.318C21.1796 19.868 20.3399 20.143 19.3499 20.143C18.2133 20.143 17.2746 19.769 16.5339 19.021ZM27.4935 14.192V15.655C27.3835 15.633 27.2808 15.622 27.1855 15.622C26.7235 15.622 26.3751 15.743 26.1405 15.985C25.9131 16.227 25.7995 16.6083 25.7995 17.129V20H24.2375V14.236H25.6785V14.984C26.0085 14.4487 26.5511 14.181 27.3065 14.181L27.4935 14.192ZM32.9449 19.263C32.3876 19.8423 31.6579 20.132 30.7559 20.132C29.8539 20.132 29.1242 19.8423 28.5669 19.263C28.0096 18.6763 27.7309 17.9613 27.7309 17.118C27.7309 16.2747 28.0096 15.5633 28.5669 14.984C29.1242 14.3973 29.8539 14.104 30.7559 14.104C31.6579 14.104 32.3876 14.3973 32.9449 14.984C33.5022 15.5633 33.7809 16.2747 33.7809 17.118C33.7809 17.9613 33.5022 18.6763 32.9449 19.263ZM29.6999 15.919C29.4286 16.2123 29.2929 16.612 29.2929 17.118C29.2929 17.624 29.4286 18.0237 29.6999 18.317C29.9786 18.6103 30.3306 18.757 30.7559 18.757C31.1812 18.757 31.5296 18.6103 31.8009 18.317C32.0796 18.0237 32.2189 17.624 32.2189 17.118C32.2189 16.612 32.0796 16.2123 31.8009 15.919C31.5296 15.6257 31.1812 15.479 30.7559 15.479C30.3306 15.479 29.9786 15.6257 29.6999 15.919ZM36.8967 20.132C35.3274 20.132 34.4951 19.4647 34.3997 18.13H35.9837C35.9984 18.3427 36.0827 18.5223 36.2367 18.669C36.3981 18.8083 36.6327 18.878 36.9407 18.878C37.2341 18.878 37.4577 18.8303 37.6117 18.735C37.7657 18.6397 37.8427 18.5113 37.8427 18.35C37.8427 18.174 37.7327 18.0457 37.5127 17.965C37.2927 17.877 37.0251 17.8073 36.7097 17.756C36.4017 17.7047 36.0901 17.635 35.7747 17.547C35.4594 17.459 35.1917 17.2867 34.9717 17.03C34.7517 16.7733 34.6417 16.4323 34.6417 16.007C34.6417 15.4717 34.8544 15.0207 35.2797 14.654C35.7051 14.2873 36.2624 14.104 36.9517 14.104C37.7364 14.104 38.3194 14.302 38.7007 14.698C39.0821 15.094 39.2874 15.545 39.3167 16.051H37.8097C37.7951 15.853 37.7107 15.688 37.5567 15.556C37.4101 15.424 37.2047 15.358 36.9407 15.358C36.6914 15.358 36.4971 15.413 36.3577 15.523C36.2184 15.6257 36.1487 15.7577 36.1487 15.919C36.1487 16.095 36.2587 16.2233 36.4787 16.304C36.6987 16.3847 36.9627 16.4507 37.2707 16.502C37.5861 16.546 37.8977 16.612 38.2057 16.7C38.5211 16.788 38.7887 16.964 39.0087 17.228C39.2287 17.492 39.3387 17.844 39.3387 18.284C39.3387 18.8193 39.1187 19.263 38.6787 19.615C38.2461 19.9597 37.6521 20.132 36.8967 20.132ZM42.2893 20.132C40.72 20.132 39.8877 19.4647 39.7923 18.13H41.3763C41.391 18.3427 41.4753 18.5223 41.6293 18.669C41.7907 18.8083 42.0253 18.878 42.3333 18.878C42.6267 18.878 42.8503 18.8303 43.0043 18.735C43.1583 18.6397 43.2353 18.5113 43.2353 18.35C43.2353 18.174 43.1253 18.0457 42.9053 17.965C42.6853 17.877 42.4177 17.8073 42.1023 17.756C41.7943 17.7047 41.4827 17.635 41.1673 17.547C40.852 17.459 40.5843 17.2867 40.3643 17.03C40.1443 16.7733 40.0343 16.4323 40.0343 16.007C40.0343 15.4717 40.247 15.0207 40.6723 14.654C41.0977 14.2873 41.655 14.104 42.3443 14.104C43.129 14.104 43.712 14.302 44.0933 14.698C44.4747 15.094 44.68 15.545 44.7093 16.051H43.2023C43.1877 15.853 43.1033 15.688 42.9493 15.556C42.8027 15.424 42.5973 15.358 42.3333 15.358C42.084 15.358 41.8897 15.413 41.7503 15.523C41.611 15.6257 41.5413 15.7577 41.5413 15.919C41.5413 16.095 41.6513 16.2233 41.8713 16.304C42.0913 16.3847 42.3553 16.4507 42.6633 16.502C42.9787 16.546 43.2903 16.612 43.5983 16.7C43.9137 16.788 44.1813 16.964 44.4013 17.228C44.6213 17.492 44.7313 17.844 44.7313 18.284C44.7313 18.8193 44.5113 19.263 44.0713 19.615C43.6387 19.9597 43.0447 20.132 42.2893 20.132Z" fill="#F5F5F7"/>
</g>
<rect x="0.5" y="4.5" width="59" height="23" rx="3.5" stroke="#444546"/>
</g>
<g clip-path="url(#clip2_52518_47809)">
<rect x="68" y="4" width="52" height="24" rx="4" fill="white" fill-opacity="0.06"/>
<path d="M87.0583 18.68V20H82.1303V18.68H83.7913V13.774H82.1633V12.729L84.0993 12.19H85.3973V18.68H87.0583ZM92.9107 19.054C92.4267 19.7947 91.7227 20.165 90.7987 20.165C89.8747 20.165 89.1707 19.7947 88.6867 19.054C88.2027 18.306 87.9607 17.3197 87.9607 16.095C87.9607 14.8703 88.2027 13.8877 88.6867 13.147C89.1707 12.399 89.8747 12.025 90.7987 12.025C91.7227 12.025 92.4267 12.399 92.9107 13.147C93.3947 13.8877 93.6367 14.8703 93.6367 16.095C93.6367 17.3197 93.3947 18.306 92.9107 19.054ZM91.7117 14.159C91.5137 13.7483 91.2093 13.543 90.7987 13.543C90.388 13.543 90.0837 13.7483 89.8857 14.159C89.6877 14.5697 89.5887 15.215 89.5887 16.095C89.5887 16.975 89.6877 17.6203 89.8857 18.031C90.0837 18.4417 90.388 18.647 90.7987 18.647C91.2093 18.647 91.5137 18.4417 91.7117 18.031C91.9097 17.6203 92.0087 16.975 92.0087 16.095C92.0087 15.215 91.9097 14.5697 91.7117 14.159ZM99.313 19.054C98.829 19.7947 98.125 20.165 97.201 20.165C96.277 20.165 95.573 19.7947 95.089 19.054C94.605 18.306 94.363 17.3197 94.363 16.095C94.363 14.8703 94.605 13.8877 95.089 13.147C95.573 12.399 96.277 12.025 97.201 12.025C98.125 12.025 98.829 12.399 99.313 13.147C99.797 13.8877 100.039 14.8703 100.039 16.095C100.039 17.3197 99.797 18.306 99.313 19.054ZM98.114 14.159C97.916 13.7483 97.6117 13.543 97.201 13.543C96.7903 13.543 96.486 13.7483 96.288 14.159C96.09 14.5697 95.991 15.215 95.991 16.095C95.991 16.975 96.09 17.6203 96.288 18.031C96.486 18.4417 96.7903 18.647 97.201 18.647C97.6117 18.647 97.916 18.4417 98.114 18.031C98.312 17.6203 98.411 16.975 98.411 16.095C98.411 15.215 98.312 14.5697 98.114 14.159ZM100.886 15.446L101.931 14.401L103.603 16.073L105.275 14.401L106.32 15.446L104.648 17.118L106.32 18.79L105.275 19.835L103.603 18.163L101.931 19.835L100.886 18.79L102.558 17.118L100.886 15.446Z" fill="#F5F5F7"/>
</g>
<rect x="68.5" y="4.5" width="51" height="23" rx="3.5" stroke="white" stroke-opacity="0.08"/>
<g opacity="0.2" filter="url(#filter1_f_52518_47809)">
<g clip-path="url(#clip3_52518_47809)">
<path d="M152.471 18.724C152.904 18.724 153.241 18.647 153.483 18.493C153.725 18.3317 153.846 18.108 153.846 17.822C153.846 17.6167 153.769 17.448 153.615 17.316C153.461 17.184 153.259 17.0813 153.01 17.008C152.768 16.9347 152.497 16.8687 152.196 16.81C151.903 16.744 151.606 16.6633 151.305 16.568C151.012 16.4653 150.74 16.337 150.491 16.183C150.249 16.0217 150.051 15.7943 149.897 15.501C149.743 15.2003 149.666 14.8447 149.666 14.434C149.666 13.752 149.923 13.18 150.436 12.718C150.949 12.256 151.642 12.025 152.515 12.025C153.395 12.025 154.092 12.2743 154.605 12.773C155.126 13.2717 155.397 13.8913 155.419 14.632H153.846C153.831 14.28 153.703 13.9977 153.461 13.785C153.226 13.565 152.904 13.455 152.493 13.455C152.119 13.455 151.818 13.5393 151.591 13.708C151.364 13.8693 151.25 14.0783 151.25 14.335C151.25 14.5477 151.327 14.72 151.481 14.852C151.635 14.984 151.837 15.0867 152.086 15.16C152.335 15.2333 152.61 15.303 152.911 15.369C153.212 15.4277 153.512 15.5083 153.813 15.611C154.114 15.7137 154.389 15.8457 154.638 16.007C154.887 16.161 155.089 16.3883 155.243 16.689C155.397 16.9897 155.474 17.349 155.474 17.767C155.474 18.471 155.188 19.0467 154.616 19.494C154.051 19.934 153.307 20.154 152.383 20.154C151.862 20.154 151.404 20.0807 151.008 19.934C150.612 19.78 150.3 19.5747 150.073 19.318C149.846 19.0613 149.673 18.7827 149.556 18.482C149.446 18.1813 149.384 17.8623 149.369 17.525H150.953C150.975 17.8697 151.114 18.1557 151.371 18.383C151.628 18.6103 151.994 18.724 152.471 18.724ZM158.144 13.224C157.968 13.4 157.741 13.488 157.462 13.488C157.184 13.488 156.956 13.4 156.78 13.224C156.604 13.048 156.516 12.8243 156.516 12.553C156.516 12.2817 156.604 12.058 156.78 11.882C156.956 11.6987 157.184 11.607 157.462 11.607C157.741 11.607 157.968 11.6987 158.144 11.882C158.32 12.058 158.408 12.2817 158.408 12.553C158.408 12.8243 158.32 13.048 158.144 13.224ZM156.681 20V14.236H158.243V20H156.681ZM161.119 14.236V14.94C161.42 14.3827 161.992 14.104 162.835 14.104C163.517 14.104 164.042 14.313 164.408 14.731C164.775 15.1417 164.958 15.699 164.958 16.403V20H163.396V16.579C163.396 15.8237 163.07 15.446 162.417 15.446C162.043 15.446 161.754 15.5597 161.548 15.787C161.343 16.007 161.24 16.3113 161.24 16.7V20H159.678V14.236H161.119ZM170.409 14.94V14.236H171.85V19.78C171.85 20.55 171.6 21.1807 171.102 21.672C170.603 22.1633 169.925 22.409 169.067 22.409C168.253 22.409 167.618 22.1927 167.164 21.76C166.716 21.3273 166.467 20.8433 166.416 20.308H167.978C168.08 20.814 168.451 21.067 169.089 21.067C169.477 21.067 169.774 20.968 169.98 20.77C170.185 20.572 170.288 20.297 170.288 19.945V19.142C169.914 19.6407 169.353 19.89 168.605 19.89C167.82 19.89 167.186 19.615 166.702 19.065C166.218 18.5077 165.976 17.8183 165.976 16.997C165.976 16.1757 166.218 15.49 166.702 14.94C167.186 14.3827 167.82 14.104 168.605 14.104C169.426 14.104 170.027 14.3827 170.409 14.94ZM169.947 18.097C170.203 17.8183 170.332 17.4517 170.332 16.997C170.332 16.5423 170.203 16.1757 169.947 15.897C169.69 15.6183 169.353 15.479 168.935 15.479C168.517 15.479 168.179 15.6183 167.923 15.897C167.666 16.1757 167.538 16.5423 167.538 16.997C167.538 17.4517 167.666 17.8183 167.923 18.097C168.179 18.3757 168.517 18.515 168.935 18.515C169.353 18.515 169.69 18.3757 169.947 18.097ZM174.786 20H173.224V11.75H174.786V20ZM181.589 17.569H177.409C177.461 17.965 177.607 18.2693 177.849 18.482C178.091 18.6873 178.41 18.79 178.806 18.79C179.056 18.79 179.279 18.7387 179.477 18.636C179.683 18.526 179.829 18.3683 179.917 18.163H181.49C181.322 18.7497 180.988 19.2263 180.489 19.593C179.998 19.9523 179.422 20.132 178.762 20.132C177.912 20.132 177.215 19.8497 176.672 19.285C176.13 18.7203 175.858 17.9943 175.858 17.107C175.858 16.249 176.13 15.534 176.672 14.962C177.215 14.39 177.908 14.104 178.751 14.104C179.595 14.104 180.28 14.39 180.808 14.962C181.344 15.5267 181.611 16.2417 181.611 17.107L181.589 17.569ZM178.74 15.358C178.388 15.358 178.099 15.457 177.871 15.655C177.644 15.8457 177.497 16.1097 177.431 16.447H180.049C179.991 16.117 179.848 15.853 179.62 15.655C179.393 15.457 179.1 15.358 178.74 15.358ZM185.989 16.381V17.855H182.436V16.381H185.989ZM188.135 20H186.452L189.389 12.19H191.083L194.02 20H192.293L191.82 18.658H188.608L188.135 20ZM190.225 14.17H190.203L189.125 17.217H191.303L190.225 14.17ZM196.755 20.132C195.185 20.132 194.353 19.4647 194.258 18.13H195.842C195.856 18.3427 195.941 18.5223 196.095 18.669C196.256 18.8083 196.491 18.878 196.799 18.878C197.092 18.878 197.316 18.8303 197.47 18.735C197.624 18.6397 197.701 18.5113 197.701 18.35C197.701 18.174 197.591 18.0457 197.371 17.965C197.151 17.877 196.883 17.8073 196.568 17.756C196.26 17.7047 195.948 17.635 195.633 17.547C195.317 17.459 195.05 17.2867 194.83 17.03C194.61 16.7733 194.5 16.4323 194.5 16.007C194.5 15.4717 194.712 15.0207 195.138 14.654C195.563 14.2873 196.12 14.104 196.81 14.104C197.594 14.104 198.177 14.302 198.559 14.698C198.94 15.094 199.145 15.545 199.175 16.051H197.668C197.653 15.853 197.569 15.688 197.415 15.556C197.268 15.424 197.063 15.358 196.799 15.358C196.549 15.358 196.355 15.413 196.216 15.523C196.076 15.6257 196.007 15.7577 196.007 15.919C196.007 16.095 196.117 16.2233 196.337 16.304C196.557 16.3847 196.821 16.4507 197.129 16.502C197.444 16.546 197.756 16.612 198.064 16.7C198.379 16.788 198.647 16.964 198.867 17.228C199.087 17.492 199.197 17.844 199.197 18.284C199.197 18.8193 198.977 19.263 198.537 19.615C198.104 19.9597 197.51 20.132 196.755 20.132ZM202.147 20.132C200.578 20.132 199.746 19.4647 199.65 18.13H201.234C201.249 18.3427 201.333 18.5223 201.487 18.669C201.649 18.8083 201.883 18.878 202.191 18.878C202.485 18.878 202.708 18.8303 202.862 18.735C203.016 18.6397 203.093 18.5113 203.093 18.35C203.093 18.174 202.983 18.0457 202.763 17.965C202.543 17.877 202.276 17.8073 201.96 17.756C201.652 17.7047 201.341 17.635 201.025 17.547C200.71 17.459 200.442 17.2867 200.222 17.03C200.002 16.7733 199.892 16.4323 199.892 16.007C199.892 15.4717 200.105 15.0207 200.53 14.654C200.956 14.2873 201.513 14.104 202.202 14.104C202.987 14.104 203.57 14.302 203.951 14.698C204.333 15.094 204.538 15.545 204.567 16.051H203.06C203.046 15.853 202.961 15.688 202.807 15.556C202.661 15.424 202.455 15.358 202.191 15.358C201.942 15.358 201.748 15.413 201.608 15.523C201.469 15.6257 201.399 15.7577 201.399 15.919C201.399 16.095 201.509 16.2233 201.729 16.304C201.949 16.3847 202.213 16.4507 202.521 16.502C202.837 16.546 203.148 16.612 203.456 16.7C203.772 16.788 204.039 16.964 204.259 17.228C204.479 17.492 204.589 17.844 204.589 18.284C204.589 18.8193 204.369 19.263 203.929 19.615C203.497 19.9597 202.903 20.132 202.147 20.132ZM210.98 17.569H206.8C206.851 17.965 206.998 18.2693 207.24 18.482C207.482 18.6873 207.801 18.79 208.197 18.79C208.446 18.79 208.67 18.7387 208.868 18.636C209.073 18.526 209.22 18.3683 209.308 18.163H210.881C210.712 18.7497 210.379 19.2263 209.88 19.593C209.389 19.9523 208.813 20.132 208.153 20.132C207.302 20.132 206.606 19.8497 206.063 19.285C205.52 18.7203 205.249 17.9943 205.249 17.107C205.249 16.249 205.52 15.534 206.063 14.962C206.606 14.39 207.299 14.104 208.142 14.104C208.985 14.104 209.671 14.39 210.199 14.962C210.734 15.5267 211.002 16.2417 211.002 17.107L210.98 17.569ZM208.131 15.358C207.779 15.358 207.489 15.457 207.262 15.655C207.035 15.8457 206.888 16.1097 206.822 16.447H209.44C209.381 16.117 209.238 15.853 209.011 15.655C208.784 15.457 208.49 15.358 208.131 15.358ZM214.763 18.614V19.967C214.587 20.011 214.342 20.033 214.026 20.033C212.846 20.033 212.255 19.4463 212.255 18.273V15.468H211.474V14.236H212.255V12.806H213.817V14.236H214.774V15.468H213.817V18.108C213.817 18.482 214.012 18.669 214.4 18.669L214.763 18.614Z" fill="#F5F5F7"/>
</g>
<rect x="128.5" y="4.5" width="107" height="23" rx="3.5" stroke="#444546"/>
</g>
<g clip-path="url(#clip4_52518_47809)">
<rect y="40" width="236" height="182" rx="8" fill="white" fill-opacity="0.06"/>
<g opacity="0.5" filter="url(#filter2_f_52518_47809)">
<path d="M12 58L15.8039 54M12 58L15.8039 62M12 58H20" stroke="#A4A5A8" stroke-width="1.5" stroke-linecap="round" stroke-linejoin="round"/>
<path d="M42.3624 62.5H40.3734L43.8444 53.27H45.8464L49.3174 62.5H47.2764L46.7174 60.914H42.9214L42.3624 62.5ZM44.8324 55.61H44.8064L43.5324 59.211H46.1064L44.8324 55.61ZM54.7105 56.416V52.75H56.5565V62.5H54.8535V61.668C54.4028 62.3267 53.6835 62.656 52.6955 62.656C51.7335 62.656 50.9708 62.318 50.4075 61.642C49.8442 60.966 49.5625 60.1167 49.5625 59.094C49.5625 58.0713 49.8442 57.222 50.4075 56.546C50.9708 55.87 51.7335 55.532 52.6955 55.532C53.1462 55.532 53.5448 55.6187 53.8915 55.792C54.2468 55.9567 54.5198 56.1647 54.7105 56.416ZM54.2945 60.485C54.6065 60.121 54.7625 59.6573 54.7625 59.094C54.7625 58.5307 54.6065 58.067 54.2945 57.703C53.9912 57.339 53.5882 57.157 53.0855 57.157C52.5828 57.157 52.1755 57.339 51.8635 57.703C51.5602 58.067 51.4085 58.5307 51.4085 59.094C51.4085 59.6573 51.5602 60.121 51.8635 60.485C52.1755 60.849 52.5828 61.031 53.0855 61.031C53.5882 61.031 53.9912 60.849 54.2945 60.485ZM59.9724 54.492C59.7644 54.7 59.4958 54.804 59.1664 54.804C58.8371 54.804 58.5684 54.7 58.3604 54.492C58.1524 54.284 58.0484 54.0197 58.0484 53.699C58.0484 53.3783 58.1524 53.114 58.3604 52.906C58.5684 52.6893 58.8371 52.581 59.1664 52.581C59.4958 52.581 59.7644 52.6893 59.9724 52.906C60.1804 53.114 60.2844 53.3783 60.2844 53.699C60.2844 54.0197 60.1804 54.284 59.9724 54.492ZM57.3074 65.321V63.735C57.3594 63.7437 57.4288 63.748 57.5154 63.748C57.7581 63.748 57.9401 63.696 58.0614 63.592C58.1828 63.4967 58.2434 63.3147 58.2434 63.046V55.688H60.0894V63.007C60.0894 63.7957 59.8814 64.3807 59.4654 64.762C59.0581 65.152 58.4948 65.347 57.7754 65.347L57.3074 65.321ZM66.0624 59.562V55.688H67.9084V62.5H66.2054V61.668C65.8501 62.3267 65.1828 62.656 64.2034 62.656C63.4061 62.656 62.7908 62.4133 62.3574 61.928C61.9328 61.434 61.7204 60.771 61.7204 59.939V55.688H63.5664V59.731C63.5664 60.6237 63.9434 61.07 64.6974 61.07C65.1481 61.07 65.4861 60.94 65.7114 60.68C65.9454 60.42 66.0624 60.0473 66.0624 59.562ZM72.011 62.656C70.1564 62.656 69.1727 61.8673 69.06 60.29H70.932C70.9494 60.5413 71.049 60.7537 71.231 60.927C71.4217 61.0917 71.699 61.174 72.063 61.174C72.4097 61.174 72.674 61.1177 72.856 61.005C73.038 60.8923 73.129 60.7407 73.129 60.55C73.129 60.342 72.999 60.1903 72.739 60.095C72.479 59.991 72.1627 59.9087 71.79 59.848C71.426 59.7873 71.0577 59.705 70.685 59.601C70.3124 59.497 69.996 59.2933 69.736 58.99C69.476 58.6867 69.346 58.2837 69.346 57.781C69.346 57.1483 69.5974 56.6153 70.1 56.182C70.6027 55.7487 71.2614 55.532 72.076 55.532C73.0034 55.532 73.6924 55.766 74.143 56.234C74.5937 56.702 74.8364 57.235 74.871 57.833H73.09C73.0727 57.599 72.973 57.404 72.791 57.248C72.6177 57.092 72.375 57.014 72.063 57.014C71.7684 57.014 71.5387 57.079 71.374 57.209C71.2094 57.3303 71.127 57.4863 71.127 57.677C71.127 57.885 71.257 58.0367 71.517 58.132C71.777 58.2273 72.089 58.3053 72.453 58.366C72.8257 58.418 73.194 58.496 73.558 58.6C73.9307 58.704 74.247 58.912 74.507 59.224C74.767 59.536 74.897 59.952 74.897 60.472C74.897 61.1047 74.637 61.629 74.117 62.045C73.6057 62.4523 72.9037 62.656 72.011 62.656ZM79.3037 60.862V62.461C79.0957 62.513 78.8054 62.539 78.4327 62.539C77.0374 62.539 76.3397 61.8457 76.3397 60.459V57.144H75.4167V55.688H76.3397V53.998H78.1857V55.688H79.3167V57.144H78.1857V60.264C78.1857 60.706 78.4154 60.927 78.8747 60.927L79.3037 60.862ZM89.9475 60.758V62.5H83.9545V53.27H85.8525V60.758H89.9475ZM96.9859 59.627H92.0459C92.1065 60.095 92.2799 60.4547 92.5659 60.706C92.8519 60.9487 93.2289 61.07 93.6969 61.07C93.9915 61.07 94.2559 61.0093 94.4899 60.888C94.7325 60.758 94.9059 60.5717 95.0099 60.329H96.8689C96.6695 61.0223 96.2752 61.5857 95.6859 62.019C95.1052 62.4437 94.4249 62.656 93.6449 62.656C92.6395 62.656 91.8162 62.3223 91.1749 61.655C90.5335 60.9877 90.2129 60.1297 90.2129 59.081C90.2129 58.067 90.5335 57.222 91.1749 56.546C91.8162 55.87 92.6352 55.532 93.6319 55.532C94.6285 55.532 95.4389 55.87 96.0629 56.546C96.6955 57.2133 97.0119 58.0583 97.0119 59.081L96.9859 59.627ZM93.6189 57.014C93.2029 57.014 92.8605 57.131 92.5919 57.365C92.3232 57.5903 92.1499 57.9023 92.0719 58.301H95.1659C95.0965 57.911 94.9275 57.599 94.6589 57.365C94.3902 57.131 94.0435 57.014 93.6189 57.014ZM100.723 60.277L102.387 55.688H104.298L101.568 62.5H99.8521L97.1221 55.688H99.0721L100.723 60.277ZM111.192 59.627H106.252C106.313 60.095 106.486 60.4547 106.772 60.706C107.058 60.9487 107.435 61.07 107.903 61.07C108.198 61.07 108.462 61.0093 108.696 60.888C108.939 60.758 109.112 60.5717 109.216 60.329H111.075C110.876 61.0223 110.481 61.5857 109.892 62.019C109.311 62.4437 108.631 62.656 107.851 62.656C106.846 62.656 106.022 62.3223 105.381 61.655C104.74 60.9877 104.419 60.1297 104.419 59.081C104.419 58.067 104.74 57.222 105.381 56.546C106.022 55.87 106.841 55.532 107.838 55.532C108.835 55.532 109.645 55.87 110.269 56.546C110.902 57.2133 111.218 58.0583 111.218 59.081L111.192 59.627ZM107.825 57.014C107.409 57.014 107.067 57.131 106.798 57.365C106.529 57.5903 106.356 57.9023 106.278 58.301H109.372C109.303 57.911 109.134 57.599 108.865 57.365C108.596 57.131 108.25 57.014 107.825 57.014ZM116.313 55.636V57.365C116.183 57.339 116.062 57.326 115.949 57.326C115.403 57.326 114.991 57.469 114.714 57.755C114.445 58.041 114.311 58.4917 114.311 59.107V62.5H112.465V55.688H114.168V56.572C114.558 55.9393 115.199 55.623 116.092 55.623L116.313 55.636ZM121.283 59.432L119.645 59.705C118.952 59.8263 118.605 60.095 118.605 60.511C118.605 60.9877 118.947 61.226 119.632 61.226C120.161 61.226 120.568 61.0873 120.854 60.81C121.14 60.5327 121.283 60.1643 121.283 59.705V59.432ZM119.216 62.656C118.453 62.656 117.864 62.4653 117.448 62.084C117.032 61.7027 116.824 61.1957 116.824 60.563C116.824 59.965 117.036 59.4883 117.461 59.133C117.894 58.7777 118.562 58.5307 119.463 58.392L121.283 58.119V58.054C121.283 57.3867 120.876 57.053 120.061 57.053C119.298 57.053 118.878 57.3303 118.8 57.885H116.98C117.041 57.2177 117.318 56.6587 117.812 56.208C118.306 55.7573 119.051 55.532 120.048 55.532C121.036 55.532 121.781 55.753 122.284 56.195C122.787 56.637 123.038 57.261 123.038 58.067V61.278C123.038 61.7893 123.103 62.1967 123.233 62.5H121.452C121.443 62.5 121.435 62.4697 121.426 62.409C121.417 62.3483 121.404 62.2573 121.387 62.136C121.378 62.006 121.374 61.876 121.374 61.746C120.949 62.3527 120.23 62.656 119.216 62.656ZM129.501 56.52V55.688H131.204V62.24C131.204 63.15 130.909 63.8953 130.32 64.476C129.73 65.0567 128.929 65.347 127.915 65.347C126.953 65.347 126.203 65.0913 125.666 64.58C125.137 64.0687 124.842 63.4967 124.782 62.864H126.628C126.749 63.462 127.187 63.761 127.941 63.761C128.4 63.761 128.751 63.644 128.994 63.41C129.236 63.176 129.358 62.851 129.358 62.435V61.486C128.916 62.0753 128.253 62.37 127.369 62.37C126.441 62.37 125.692 62.045 125.12 61.395C124.548 60.7363 124.262 59.9217 124.262 58.951C124.262 57.9803 124.548 57.17 125.12 56.52C125.692 55.8613 126.441 55.532 127.369 55.532C128.339 55.532 129.05 55.8613 129.501 56.52ZM128.955 60.251C129.258 59.9217 129.41 59.4883 129.41 58.951C129.41 58.4137 129.258 57.9803 128.955 57.651C128.651 57.3217 128.253 57.157 127.759 57.157C127.265 57.157 126.866 57.3217 126.563 57.651C126.259 57.9803 126.108 58.4137 126.108 58.951C126.108 59.4883 126.259 59.9217 126.563 60.251C126.866 60.5803 127.265 60.745 127.759 60.745C128.253 60.745 128.651 60.5803 128.955 60.251ZM139.172 59.627H134.232C134.293 60.095 134.466 60.4547 134.752 60.706C135.038 60.9487 135.415 61.07 135.883 61.07C136.178 61.07 136.442 61.0093 136.676 60.888C136.919 60.758 137.092 60.5717 137.196 60.329H139.055C138.856 61.0223 138.462 61.5857 137.872 62.019C137.292 62.4437 136.611 62.656 135.831 62.656C134.826 62.656 134.003 62.3223 133.361 61.655C132.72 60.9877 132.399 60.1297 132.399 59.081C132.399 58.067 132.72 57.222 133.361 56.546C134.003 55.87 134.822 55.532 135.818 55.532C136.815 55.532 137.625 55.87 138.249 56.546C138.882 57.2133 139.198 58.0583 139.198 59.081L139.172 59.627ZM135.805 57.014C135.389 57.014 135.047 57.131 134.778 57.365C134.51 57.5903 134.336 57.9023 134.258 58.301H137.352C137.283 57.911 137.114 57.599 136.845 57.365C136.577 57.131 136.23 57.014 135.805 57.014Z" fill="#F5F5F7"/>
<path fill-rule="evenodd" clip-rule="evenodd" d="M220.834 53C220.834 52.2636 220.237 51.6666 219.5 51.6666C218.764 51.6666 218.167 52.2636 218.167 53C218.167 53.7363 218.764 54.3333 219.5 54.3333C220.237 54.3333 220.834 53.7363 220.834 53ZM219.5 52.6666C219.684 52.6666 219.834 52.8159 219.834 53C219.834 53.1841 219.684 53.3333 219.5 53.3333C219.316 53.3333 219.167 53.1841 219.167 53C219.167 52.8159 219.316 52.6666 219.5 52.6666ZM220.834 58C220.834 57.2636 220.237 56.6666 219.5 56.6666C218.764 56.6666 218.167 57.2636 218.167 58C218.167 58.7363 218.764 59.3333 219.5 59.3333C220.237 59.3333 220.834 58.7363 220.834 58ZM219.5 57.6666C219.684 57.6666 219.834 57.8159 219.834 58C219.834 58.1841 219.684 58.3333 219.5 58.3333C219.316 58.3333 219.167 58.1841 219.167 58C219.167 57.8159 219.316 57.6666 219.5 57.6666ZM220.834 63C220.834 62.2636 220.237 61.6666 219.5 61.6666C218.764 61.6666 218.167 62.2636 218.167 63C218.167 63.7363 218.764 64.3333 219.5 64.3333C220.237 64.3333 220.834 63.7363 220.834 63ZM219.5 62.6666C219.684 62.6666 219.834 62.8159 219.834 63C219.834 63.1841 219.684 63.3333 219.5 63.3333C219.316 63.3333 219.167 63.1841 219.167 63C219.167 62.8159 219.316 62.6666 219.5 62.6666ZM225.834 53C225.834 52.2636 225.237 51.6666 224.5 51.6666C223.764 51.6666 223.167 52.2636 223.167 53C223.167 53.7363 223.764 54.3333 224.5 54.3333C225.237 54.3333 225.834 53.7363 225.834 53ZM224.5 52.6666C224.684 52.6666 224.834 52.8159 224.834 53C224.834 53.1841 224.684 53.3333 224.5 53.3333C224.316 53.3333 224.167 53.1841 224.167 53C224.167 52.8159 224.316 52.6666 224.5 52.6666ZM225.834 58C225.834 57.2636 225.237 56.6666 224.5 56.6666C223.764 56.6666 223.167 57.2636 223.167 58C223.167 58.7363 223.764 59.3333 224.5 59.3333C225.237 59.3333 225.834 58.7363 225.834 58ZM224.5 57.6666C224.684 57.6666 224.834 57.8159 224.834 58C224.834 58.1841 224.684 58.3333 224.5 58.3333C224.316 58.3333 224.167 58.1841 224.167 58C224.167 57.8159 224.316 57.6666 224.5 57.6666ZM225.834 63C225.834 62.2636 225.237 61.6666 224.5 61.6666C223.764 61.6666 223.167 62.2636 223.167 63C223.167 63.7363 223.764 64.3333 224.5 64.3333C225.237 64.3333 225.834 63.7363 225.834 63ZM224.5 62.6666C224.684 62.6666 224.834 62.8159 224.834 63C224.834 63.1841 224.684 63.3333 224.5 63.3333C224.316 63.3333 224.167 63.1841 224.167 63C224.167 62.8159 224.316 62.6666 224.5 62.6666Z" fill="#A4A5A8"/>
<line y1="75.5" x2="236" y2="75.5" stroke="white" stroke-opacity="0.08"/>
</g>
<path d="M19.0426 103.044V104.5H13.1926V95.27H14.7656V103.044H19.0426ZM26.3346 101.575H21.1996C21.2602 102.112 21.4552 102.541 21.7846 102.862C22.1139 103.174 22.5472 103.33 23.0846 103.33C23.4399 103.33 23.7606 103.243 24.0466 103.07C24.3326 102.897 24.5362 102.663 24.6576 102.368H26.2176C26.0096 103.053 25.6196 103.607 25.0476 104.032C24.4842 104.448 23.8169 104.656 23.0456 104.656C22.0402 104.656 21.2256 104.322 20.6016 103.655C19.9862 102.988 19.6786 102.143 19.6786 101.12C19.6786 100.123 19.9906 99.287 20.6146 98.611C21.2386 97.935 22.0446 97.597 23.0326 97.597C24.0206 97.597 24.8179 97.9307 25.4246 98.598C26.0399 99.2567 26.3476 100.089 26.3476 101.094L26.3346 101.575ZM23.0326 98.858C22.5472 98.858 22.1442 99.001 21.8236 99.287C21.5029 99.573 21.3036 99.9543 21.2256 100.431H24.8136C24.7442 99.9543 24.5536 99.573 24.2416 99.287C23.9296 99.001 23.5266 98.858 23.0326 98.858ZM30.0842 102.667L31.9562 97.753H33.5552L30.7992 104.5H29.3432L26.6002 97.753H28.2382L30.0842 102.667ZM40.4771 101.575H35.3421C35.4028 102.112 35.5978 102.541 35.9271 102.862C36.2565 103.174 36.6898 103.33 37.2271 103.33C37.5825 103.33 37.9031 103.243 38.1891 103.07C38.4751 102.897 38.6788 102.663 38.8001 102.368H40.3601C40.1521 103.053 39.7621 103.607 39.1901 104.032C38.6268 104.448 37.9595 104.656 37.1881 104.656C36.1828 104.656 35.3681 104.322 34.7441 103.655C34.1288 102.988 33.8211 102.143 33.8211 101.12C33.8211 100.123 34.1331 99.287 34.7571 98.611C35.3811 97.935 36.1871 97.597 37.1751 97.597C38.1631 97.597 38.9605 97.9307 39.5671 98.598C40.1825 99.2567 40.4901 100.089 40.4901 101.094L40.4771 101.575ZM37.1751 98.858C36.6898 98.858 36.2868 99.001 35.9661 99.287C35.6455 99.573 35.4461 99.9543 35.3681 100.431H38.9561C38.8868 99.9543 38.6961 99.573 38.3841 99.287C38.0721 99.001 37.6691 98.858 37.1751 98.858ZM45.5457 97.701V99.144C45.4244 99.1267 45.3074 99.118 45.1947 99.118C44.0334 99.118 43.4527 99.742 43.4527 100.99V104.5H41.9057V97.753H43.3357V98.689C43.7171 98.0217 44.3801 97.688 45.3247 97.688L45.5457 97.701ZM50.6868 101.328L48.8928 101.601C48.0522 101.731 47.6318 102.052 47.6318 102.563C47.6318 103.152 48.0305 103.447 48.8278 103.447C49.4258 103.447 49.8852 103.287 50.2058 102.966C50.5265 102.645 50.6868 102.242 50.6868 101.757V101.328ZM48.5158 104.656C47.7185 104.656 47.1248 104.47 46.7348 104.097C46.3448 103.724 46.1498 103.23 46.1498 102.615C46.1498 101.436 47.0122 100.726 48.7368 100.483L50.6868 100.21V100.106C50.6868 99.2827 50.2058 98.871 49.2438 98.871C48.4032 98.871 47.9265 99.2047 47.8138 99.872H46.3058C46.3752 99.2133 46.6482 98.6717 47.1248 98.247C47.6102 97.8137 48.3295 97.597 49.2828 97.597C50.2448 97.597 50.9685 97.818 51.4538 98.26C51.9478 98.702 52.1948 99.3217 52.1948 100.119V103.226C52.1948 103.772 52.2598 104.197 52.3898 104.5H50.9208C50.9122 104.5 50.8992 104.47 50.8818 104.409C50.8732 104.34 50.8602 104.231 50.8428 104.084C50.8342 103.937 50.8298 103.781 50.8298 103.616C50.3705 104.309 49.5992 104.656 48.5158 104.656ZM58.9438 98.715V97.753H60.3738V104.214C60.3738 105.133 60.0878 105.882 59.5158 106.463C58.9524 107.052 58.1638 107.347 57.1498 107.347C56.2224 107.347 55.4944 107.109 54.9658 106.632C54.4458 106.155 54.1424 105.609 54.0558 104.994H55.6028C55.7934 105.679 56.3178 106.021 57.1758 106.021C57.6958 106.021 58.0988 105.874 58.3848 105.579C58.6794 105.293 58.8268 104.907 58.8268 104.422V103.369C58.3761 104.062 57.6654 104.409 56.6948 104.409C55.7588 104.409 55.0048 104.084 54.4328 103.434C53.8694 102.775 53.5878 101.965 53.5878 101.003C53.5878 100.041 53.8694 99.235 54.4328 98.585C55.0048 97.9263 55.7588 97.597 56.6948 97.597C57.7261 97.597 58.4758 97.9697 58.9438 98.715ZM58.8918 101.003C58.8918 100.405 58.7184 99.9153 58.3718 99.534C58.0251 99.1527 57.5701 98.962 57.0068 98.962C56.4521 98.962 56.0014 99.1527 55.6548 99.534C55.3081 99.9153 55.1348 100.405 55.1348 101.003C55.1348 101.592 55.3081 102.082 55.6548 102.472C56.0014 102.853 56.4521 103.044 57.0068 103.044C57.5701 103.044 58.0251 102.853 58.3718 102.472C58.7184 102.082 58.8918 101.592 58.8918 101.003ZM68.4068 101.575H63.2718C63.3325 102.112 63.5275 102.541 63.8568 102.862C64.1862 103.174 64.6195 103.33 65.1568 103.33C65.5122 103.33 65.8328 103.243 66.1188 103.07C66.4048 102.897 66.6085 102.663 66.7298 102.368H68.2898C68.0818 103.053 67.6918 103.607 67.1198 104.032C66.5565 104.448 65.8892 104.656 65.1178 104.656C64.1125 104.656 63.2978 104.322 62.6738 103.655C62.0585 102.988 61.7508 102.143 61.7508 101.12C61.7508 100.123 62.0628 99.287 62.6868 98.611C63.3108 97.935 64.1168 97.597 65.1048 97.597C66.0928 97.597 66.8902 97.9307 67.4968 98.598C68.1122 99.2567 68.4198 100.089 68.4198 101.094L68.4068 101.575ZM65.1048 98.858C64.6195 98.858 64.2165 99.001 63.8958 99.287C63.5752 99.573 63.3758 99.9543 63.2978 100.431H66.8858C66.8165 99.9543 66.6258 99.573 66.3138 99.287C66.0018 99.001 65.5988 98.858 65.1048 98.858Z" fill="#F5F5F7"/>
<rect x="75" y="92" width="34" height="16" rx="4" fill="url(#paint0_linear_52518_47809)"/>
<path d="M84.9813 102.889V104H80.2073V102.889H81.9233V97.51H80.2513V96.63L82.1873 96.19H83.2653V102.889H84.9813ZM88.7987 104.165C87.8893 104.165 87.1927 103.798 86.7087 103.065C86.232 102.324 85.9937 101.334 85.9937 100.095C85.9937 98.8557 86.232 97.8693 86.7087 97.136C87.1927 96.3953 87.8893 96.025 88.7987 96.025C89.7007 96.025 90.3937 96.3953 90.8777 97.136C91.3617 97.8693 91.6037 98.8557 91.6037 100.095C91.6037 101.334 91.3617 102.324 90.8777 103.065C90.3937 103.798 89.7007 104.165 88.7987 104.165ZM90.2397 100.095C90.2397 98.225 89.7593 97.29 88.7987 97.29C87.838 97.29 87.3577 98.225 87.3577 100.095C87.3577 101.965 87.838 102.9 88.7987 102.9C89.7593 102.9 90.2397 101.965 90.2397 100.095ZM95.201 104.165C94.2917 104.165 93.595 103.798 93.111 103.065C92.6343 102.324 92.396 101.334 92.396 100.095C92.396 98.8557 92.6343 97.8693 93.111 97.136C93.595 96.3953 94.2917 96.025 95.201 96.025C96.103 96.025 96.796 96.3953 97.28 97.136C97.764 97.8693 98.006 98.8557 98.006 100.095C98.006 101.334 97.764 102.324 97.28 103.065C96.796 103.798 96.103 104.165 95.201 104.165ZM96.642 100.095C96.642 98.225 96.1617 97.29 95.201 97.29C94.2403 97.29 93.76 98.225 93.76 100.095C93.76 101.965 94.2403 102.9 95.201 102.9C96.1617 102.9 96.642 101.965 96.642 100.095ZM98.9633 99.38L99.8323 98.5L101.603 100.271L103.363 98.511L104.243 99.38L102.472 101.151L104.243 102.911L103.363 103.791L101.603 102.02L99.8323 103.791L98.9633 102.911L100.723 101.151L98.9633 99.38Z" fill="white"/>
<path d="M173.532 103.296C172.924 103.875 172.146 104.165 171.2 104.165C170.254 104.165 169.477 103.875 168.868 103.296C168.26 102.717 167.955 101.881 167.955 100.788V96.19H169.286V100.843C169.286 101.488 169.448 101.998 169.77 102.372C170.1 102.746 170.577 102.933 171.2 102.933C171.824 102.933 172.297 102.746 172.619 102.372C172.949 101.998 173.114 101.488 173.114 100.843V96.19H174.445V100.788C174.445 101.881 174.141 102.717 173.532 103.296ZM177.395 103.252V106.288H176.086V98.291H177.296V99.105C177.699 98.4743 178.341 98.159 179.221 98.159C180.042 98.159 180.688 98.445 181.157 99.017C181.634 99.589 181.872 100.3 181.872 101.151C181.872 102.002 181.634 102.713 181.157 103.285C180.688 103.85 180.042 104.132 179.221 104.132C178.385 104.132 177.776 103.839 177.395 103.252ZM177.351 101.151C177.351 101.679 177.494 102.115 177.78 102.46C178.073 102.805 178.466 102.977 178.957 102.977C179.441 102.977 179.83 102.805 180.123 102.46C180.416 102.108 180.563 101.672 180.563 101.151C180.563 100.616 180.416 100.172 180.123 99.82C179.83 99.468 179.441 99.292 178.957 99.292C178.466 99.292 178.073 99.468 177.78 99.82C177.494 100.165 177.351 100.608 177.351 101.151ZM188.5 102.834V103.967C188.338 104.011 188.111 104.033 187.818 104.033C186.703 104.033 186.146 103.472 186.146 102.35V99.336H185.277V98.291H186.146V96.806H187.455V98.291H188.522V99.336H187.455V102.218C187.455 102.665 187.667 102.889 188.093 102.889L188.5 102.834ZM192.034 104.132C191.154 104.132 190.439 103.842 189.889 103.263C189.347 102.684 189.075 101.98 189.075 101.151C189.075 100.322 189.347 99.6183 189.889 99.039C190.439 98.4523 191.154 98.159 192.034 98.159C192.922 98.159 193.637 98.4523 194.179 99.039C194.729 99.6183 195.004 100.322 195.004 101.151C195.004 101.98 194.729 102.684 194.179 103.263C193.637 103.842 192.922 104.132 192.034 104.132ZM190.384 101.151C190.384 101.694 190.538 102.134 190.846 102.471C191.162 102.808 191.558 102.977 192.034 102.977C192.518 102.977 192.914 102.808 193.222 102.471C193.538 102.134 193.695 101.694 193.695 101.151C193.695 100.601 193.538 100.157 193.222 99.82C192.914 99.4827 192.518 99.314 192.034 99.314C191.558 99.314 191.162 99.4827 190.846 99.82C190.538 100.157 190.384 100.601 190.384 101.151ZM204.068 102.889V104H199.294V102.889H201.01V97.51H199.338V96.63L201.274 96.19H202.352V102.889H204.068ZM207.886 104.165C206.976 104.165 206.28 103.798 205.796 103.065C205.319 102.324 205.081 101.334 205.081 100.095C205.081 98.8557 205.319 97.8693 205.796 97.136C206.28 96.3953 206.976 96.025 207.886 96.025C208.788 96.025 209.481 96.3953 209.965 97.136C210.449 97.8693 210.691 98.8557 210.691 100.095C210.691 101.334 210.449 102.324 209.965 103.065C209.481 103.798 208.788 104.165 207.886 104.165ZM209.327 100.095C209.327 98.225 208.846 97.29 207.886 97.29C206.925 97.29 206.445 98.225 206.445 100.095C206.445 101.965 206.925 102.9 207.886 102.9C208.846 102.9 209.327 101.965 209.327 100.095ZM214.288 104.165C213.379 104.165 212.682 103.798 212.198 103.065C211.721 102.324 211.483 101.334 211.483 100.095C211.483 98.8557 211.721 97.8693 212.198 97.136C212.682 96.3953 213.379 96.025 214.288 96.025C215.19 96.025 215.883 96.3953 216.367 97.136C216.851 97.8693 217.093 98.8557 217.093 100.095C217.093 101.334 216.851 102.324 216.367 103.065C215.883 103.798 215.19 104.165 214.288 104.165ZM215.729 100.095C215.729 98.225 215.249 97.29 214.288 97.29C213.327 97.29 212.847 98.225 212.847 100.095C212.847 101.965 213.327 102.9 214.288 102.9C215.249 102.9 215.729 101.965 215.729 100.095ZM218.05 99.38L218.919 98.5L220.69 100.271L222.45 98.511L223.33 99.38L221.559 101.151L223.33 102.911L222.45 103.791L220.69 102.02L218.919 103.791L218.05 102.911L219.81 101.151L218.05 99.38Z" fill="#A4A5A8"/>
<path fill-rule="evenodd" clip-rule="evenodd" d="M17.1716 133.485C16.5245 132.838 15.4755 132.838 14.8284 133.485L12.4853 135.828C11.8382 136.475 11.8382 137.525 12.4853 138.172L14.8284 140.515C15.4755 141.162 16.5245 141.162 17.1716 140.515L19.5147 138.172C19.6418 138.045 19.7439 137.902 19.821 137.75L44.179 137.75C44.2561 137.902 44.3582 138.045 44.4853 138.172L46.8284 140.515C47.4755 141.162 48.5245 141.162 49.1716 140.515L51.5147 138.172C51.6418 138.045 51.7439 137.902 51.821 137.75L76.179 137.75C76.2561 137.902 76.3582 138.045 76.4853 138.172L78.8284 140.515C79.4755 141.162 80.5245 141.162 81.1716 140.515L83.5147 138.172C83.6418 138.045 83.7439 137.902 83.821 137.75L108.179 137.75C108.256 137.902 108.358 138.045 108.485 138.172L110.828 140.515C111.475 141.162 112.525 141.162 113.172 140.515L115.515 138.172C115.642 138.045 115.744 137.902 115.821 137.75L140.179 137.75C140.256 137.902 140.358 138.045 140.485 138.172L142.828 140.515C143.475 141.162 144.525 141.162 145.172 140.515L147.515 138.172C148.162 137.525 148.162 136.475 147.515 135.828L145.172 133.485C144.525 132.838 143.475 132.838 142.828 133.485L140.485 135.828C140.358 135.955 140.256 136.098 140.179 136.25L115.821 136.25C115.744 136.098 115.642 135.955 115.515 135.828L113.172 133.485C112.525 132.838 111.475 132.838 110.828 133.485L108.485 135.828C108.358 135.955 108.256 136.098 108.179 136.25L83.821 136.25C83.7439 136.098 83.6418 135.955 83.5147 135.828L81.1716 133.485C80.5245 132.838 79.4755 132.838 78.8284 133.485L76.4853 135.828C76.3582 135.955 76.2561 136.098 76.179 136.25L51.821 136.25C51.7439 136.098 51.6418 135.955 51.5147 135.828L49.1716 133.485C48.5245 132.838 47.4755 132.838 46.8284 133.485L44.4853 135.828C44.3582 135.955 44.2561 136.098 44.179 136.25L19.821 136.25C19.7439 136.098 19.6418 135.955 19.5147 135.828L17.1716 133.485Z" fill="#414447"/>
<path d="M13 137H143" stroke="url(#paint1_linear_52518_47809)" stroke-width="1.5" stroke-linecap="round"/>
<path d="M14.8284 133.485C15.4755 132.838 16.5245 132.838 17.1716 133.485L19.5147 135.828C20.1618 136.475 20.1618 137.525 19.5147 138.172L17.1716 140.515C16.5245 141.162 15.4755 141.162 14.8284 140.515L12.4853 138.172C11.8382 137.525 11.8382 136.475 12.4853 135.828L14.8284 133.485Z" fill="url(#paint2_linear_52518_47809)"/>
<path d="M46.8284 133.485C47.4755 132.838 48.5245 132.838 49.1716 133.485L51.5147 135.828C52.1618 136.475 52.1618 137.525 51.5147 138.172L49.1716 140.515C48.5245 141.162 47.4755 141.162 46.8284 140.515L44.4853 138.172C43.8382 137.525 43.8382 136.475 44.4853 135.828L46.8284 133.485Z" fill="url(#paint3_linear_52518_47809)"/>
<path d="M78.8284 133.485C79.4755 132.838 80.5245 132.838 81.1716 133.485L83.5147 135.828C84.1618 136.475 84.1618 137.525 83.5147 138.172L81.1716 140.515C80.5245 141.162 79.4755 141.162 78.8284 140.515L76.4853 138.172C75.8382 137.525 75.8382 136.475 76.4853 135.828L78.8284 133.485Z" fill="url(#paint4_linear_52518_47809)"/>
<path d="M110.828 133.485C111.475 132.838 112.525 132.838 113.172 133.485L115.515 135.828C116.162 136.475 116.162 137.525 115.515 138.172L113.172 140.515C112.525 141.162 111.475 141.162 110.828 140.515L108.485 138.172C107.838 137.525 107.838 136.475 108.485 135.828L110.828 133.485Z" fill="url(#paint5_linear_52518_47809)"/>
<path d="M142.828 133.485C143.475 132.838 144.525 132.838 145.172 133.485L147.515 135.828C148.162 136.475 148.162 137.525 147.515 138.172L145.172 140.515C144.525 141.162 143.475 141.162 142.828 140.515L140.485 138.172C139.838 137.525 139.838 136.475 140.485 135.828L142.828 133.485Z" fill="#482BFF"/>
<g filter="url(#filter3_d_52518_47809)">
<circle cx="144" cy="137" r="8" fill="white" fill-opacity="0.06"/>
<g filter="url(#filter4_i_52518_47809)">
<circle cx="144" cy="137" r="6" fill="url(#paint6_linear_52518_47809)"/>
<circle cx="144" cy="137" r="6" fill="black" fill-opacity="0.5"/>
</g>
<circle cx="144" cy="137" r="5.25" stroke="url(#paint7_linear_52518_47809)" stroke-width="1.5"/>
</g>
<rect x="164" y="116" width="60" height="42" rx="4" fill="white" fill-opacity="0.06"/>
<path d="M182.838 140.187V141.5H177.196V140.187H179.224V133.83H177.248V132.79L179.536 132.27H180.81V140.187H182.838ZM187.349 141.695C186.275 141.695 185.451 141.262 184.879 140.395C184.316 139.52 184.034 138.35 184.034 136.885C184.034 135.42 184.316 134.255 184.879 133.388C185.451 132.513 186.275 132.075 187.349 132.075C188.415 132.075 189.234 132.513 189.806 133.388C190.378 134.255 190.664 135.42 190.664 136.885C190.664 138.35 190.378 139.52 189.806 140.395C189.234 141.262 188.415 141.695 187.349 141.695ZM189.052 136.885C189.052 134.675 188.485 133.57 187.349 133.57C186.214 133.57 185.646 134.675 185.646 136.885C185.646 139.095 186.214 140.2 187.349 140.2C188.485 140.2 189.052 139.095 189.052 136.885ZM194.916 141.695C193.841 141.695 193.018 141.262 192.446 140.395C191.882 139.52 191.601 138.35 191.601 136.885C191.601 135.42 191.882 134.255 192.446 133.388C193.018 132.513 193.841 132.075 194.916 132.075C195.982 132.075 196.801 132.513 197.373 133.388C197.945 134.255 198.231 135.42 198.231 136.885C198.231 138.35 197.945 139.52 197.373 140.395C196.801 141.262 195.982 141.695 194.916 141.695ZM196.619 136.885C196.619 134.675 196.051 133.57 194.916 133.57C193.78 133.57 193.213 134.675 193.213 136.885C193.213 139.095 193.78 140.2 194.916 140.2C196.051 140.2 196.619 139.095 196.619 136.885Z" fill="#F5F5F7"/>
<path d="M205.097 136.04L206.124 135L208.217 137.093L210.297 135.013L211.337 136.04L209.244 138.133L211.337 140.213L210.297 141.253L208.217 139.16L206.124 141.253L205.097 140.213L207.177 138.133L205.097 136.04Z" fill="#A4A5A8"/>
</g>
<rect x="0.5" y="40.5" width="235" height="181" rx="7.5" stroke="white" stroke-opacity="0.08"/>
<path d="M145.871 156.563C145.819 156.563 145.761 156.552 145.709 156.534C145.546 156.47 145.436 156.308 145.436 156.127V141.871C145.436 141.697 145.54 141.54 145.697 141.47C145.755 141.447 145.813 141.435 145.871 141.435C145.982 141.435 146.087 141.476 146.168 141.552L156.631 151.313C156.764 151.435 156.805 151.627 156.741 151.79C156.677 151.959 156.515 152.069 156.334 152.069H150.376L146.185 156.43C146.098 156.517 145.988 156.563 145.871 156.563Z" fill="#1A1D1F"/>
<path d="M156.928 150.994L146.465 141.233C146.302 141.081 146.087 141 145.872 141C145.756 141 145.634 141.023 145.523 141.07C145.203 141.209 145 141.523 145 141.872V156.128C145 156.483 145.215 156.802 145.546 156.936C145.651 156.977 145.761 157 145.872 157C146.104 157 146.331 156.907 146.5 156.733L150.563 152.506H156.335C156.695 152.506 157.015 152.285 157.148 151.953C157.276 151.616 157.189 151.238 156.928 150.994ZM150.191 151.628L145.872 156.122V141.866L156.335 151.628H150.191Z" fill="white"/>
</g>
<defs>
<filter id="filter0_f_52518_47809" x="-1" y="3" width="62" height="26" filterUnits="userSpaceOnUse" color-interpolation-filters="sRGB">
<feFlood flood-opacity="0" result="BackgroundImageFix"/>
<feBlend mode="normal" in="SourceGraphic" in2="BackgroundImageFix" result="shape"/>
<feGaussianBlur stdDeviation="0.5" result="effect1_foregroundBlur_52518_47809"/>
</filter>
<filter id="filter1_f_52518_47809" x="127" y="3" width="110" height="26" filterUnits="userSpaceOnUse" color-interpolation-filters="sRGB">
<feFlood flood-opacity="0" result="BackgroundImageFix"/>
<feBlend mode="normal" in="SourceGraphic" in2="BackgroundImageFix" result="shape"/>
<feGaussianBlur stdDeviation="0.5" result="effect1_foregroundBlur_52518_47809"/>
</filter>
<filter id="filter2_f_52518_47809" x="-1" y="39" width="238" height="38" filterUnits="userSpaceOnUse" color-interpolation-filters="sRGB">
<feFlood flood-opacity="0" result="BackgroundImageFix"/>
<feBlend mode="normal" in="SourceGraphic" in2="BackgroundImageFix" result="shape"/>
<feGaussianBlur stdDeviation="0.5" result="effect1_foregroundBlur_52518_47809"/>
</filter>
<filter id="filter3_d_52518_47809" x="112" y="105" width="64" height="64" filterUnits="userSpaceOnUse" color-interpolation-filters="sRGB">
<feFlood flood-opacity="0" result="BackgroundImageFix"/>
<feColorMatrix in="SourceAlpha" type="matrix" values="0 0 0 0 0 0 0 0 0 0 0 0 0 0 0 0 0 0 127 0" result="hardAlpha"/>
<feOffset/>
<feGaussianBlur stdDeviation="12"/>
<feColorMatrix type="matrix" values="0 0 0 0 0.145098 0 0 0 0 0.317647 0 0 0 0 1 0 0 0 1 0"/>
<feBlend mode="normal" in2="BackgroundImageFix" result="effect1_dropShadow_52518_47809"/>
<feBlend mode="normal" in="SourceGraphic" in2="effect1_dropShadow_52518_47809" result="shape"/>
</filter>
<filter id="filter4_i_52518_47809" x="138" y="131" width="12" height="12" filterUnits="userSpaceOnUse" color-interpolation-filters="sRGB">
<feFlood flood-opacity="0" result="BackgroundImageFix"/>
<feBlend mode="normal" in="SourceGraphic" in2="BackgroundImageFix" result="shape"/>
<feColorMatrix in="SourceAlpha" type="matrix" values="0 0 0 0 0 0 0 0 0 0 0 0 0 0 0 0 0 0 127 0" result="hardAlpha"/>
<feOffset/>
<feGaussianBlur stdDeviation="2"/>
<feComposite in2="hardAlpha" operator="arithmetic" k2="-1" k3="1"/>
<feColorMatrix type="matrix" values="0 0 0 0 0 0 0 0 0 0 0 0 0 0 0 0 0 0 0.5 0"/>
<feBlend mode="normal" in2="shape" result="effect1_innerShadow_52518_47809"/>
</filter>
<linearGradient id="paint0_linear_52518_47809" x1="109" y1="100" x2="75" y2="100" gradientUnits="userSpaceOnUse">
<stop stop-color="#482BFF"/>
<stop offset="1" stop-color="#007AFF"/>
</linearGradient>
<linearGradient id="paint1_linear_52518_47809" x1="143" y1="137.5" x2="13" y2="137.5" gradientUnits="userSpaceOnUse">
<stop stop-color="#482BFF"/>
<stop offset="1" stop-color="#007AFF"/>
</linearGradient>
<linearGradient id="paint2_linear_52518_47809" x1="20" y1="137" x2="12" y2="137" gradientUnits="userSpaceOnUse">
<stop stop-color="#0475FF"/>
<stop offset="1" stop-color="#007AFF"/>
</linearGradient>
<linearGradient id="paint3_linear_52518_47809" x1="52" y1="137" x2="44" y2="137" gradientUnits="userSpaceOnUse">
<stop stop-color="#1562FF"/>
<stop offset="1" stop-color="#1167FF"/>
</linearGradient>
<linearGradient id="paint4_linear_52518_47809" x1="84" y1="137" x2="76" y2="137" gradientUnits="userSpaceOnUse">
<stop stop-color="#274EFF"/>
<stop offset="1" stop-color="#2253FF"/>
</linearGradient>
<linearGradient id="paint5_linear_52518_47809" x1="116" y1="137" x2="108" y2="137" gradientUnits="userSpaceOnUse">
<stop stop-color="#393BFF"/>
<stop offset="1" stop-color="#3440FF"/>
</linearGradient>
<linearGradient id="paint6_linear_52518_47809" x1="150" y1="137" x2="138" y2="137" gradientUnits="userSpaceOnUse">
<stop stop-color="#007AFF"/>
<stop offset="1" stop-color="#482BFF"/>
</linearGradient>
<linearGradient id="paint7_linear_52518_47809" x1="150" y1="137" x2="138" y2="137" gradientUnits="userSpaceOnUse">
<stop stop-color="#482BFF"/>
<stop offset="1" stop-color="#007AFF"/>
</linearGradient>
<clipPath id="clip0_52518_47809">
<rect width="236" height="164" rx="8" fill="white"/>
</clipPath>
<clipPath id="clip1_52518_47809">
<rect y="4" width="60" height="24" rx="4" fill="white"/>
</clipPath>
<clipPath id="clip2_52518_47809">
<rect x="68" y="4" width="52" height="24" rx="4" fill="white"/>
</clipPath>
<clipPath id="clip3_52518_47809">
<rect x="128" y="4" width="108" height="24" rx="4" fill="white"/>
</clipPath>
<clipPath id="clip4_52518_47809">
<rect y="40" width="236" height="182" rx="8" fill="white"/>
</clipPath>
</defs>
</svg>
