<svg width="550" height="223" viewBox="0 0 550 223" fill="none" xmlns="http://www.w3.org/2000/svg">
<g clip-path="url(#clip0_1_116)">
<g filter="url(#filter0_d_1_116)">
<rect x="24" y="50.75" width="358.816" height="110" rx="4" fill="#1A1D1F"/>
</g>
<path d="M153.114 98.88C152.412 98.88 151.584 98.802 150.631 98.646V97.71C151.636 97.918 152.477 98.022 153.153 98.022C153.682 98.022 154.067 97.9483 154.31 97.801C154.561 97.645 154.687 97.3937 154.687 97.047V95.37C154.687 95.006 154.531 94.772 154.219 94.668C154.072 94.6247 153.933 94.5987 153.803 94.59C153.682 94.5727 153.521 94.564 153.322 94.564H150.826V90.313H155.688V91.197H151.996V93.758H153.946C154.293 93.758 154.6 93.8013 154.869 93.888C155.138 93.966 155.376 94.1047 155.584 94.304C155.801 94.5207 155.909 94.8023 155.909 95.149V97.073C155.909 97.3763 155.853 97.645 155.74 97.879C155.636 98.1043 155.493 98.282 155.311 98.412C155.146 98.5333 154.934 98.633 154.674 98.711C154.423 98.789 154.171 98.8367 153.92 98.854C153.608 98.8713 153.339 98.88 153.114 98.88ZM160.798 98.88C160.417 98.88 160.105 98.867 159.862 98.841C159.628 98.815 159.377 98.763 159.108 98.685C158.822 98.607 158.592 98.4943 158.419 98.347C158.254 98.191 158.116 97.9743 158.003 97.697C157.89 97.437 157.834 97.112 157.834 96.722V92.458C157.834 92.068 157.89 91.7257 158.003 91.431C158.116 91.1363 158.263 90.9023 158.445 90.729C158.61 90.5817 158.826 90.4647 159.095 90.378C159.372 90.2827 159.65 90.222 159.927 90.196C160.239 90.1787 160.529 90.17 160.798 90.17C161.179 90.17 161.487 90.183 161.721 90.209C161.964 90.235 162.219 90.287 162.488 90.365C162.774 90.4517 163.004 90.573 163.177 90.729C163.359 90.885 163.506 91.106 163.619 91.392C163.732 91.678 163.788 92.029 163.788 92.445V96.722C163.788 97.0773 163.732 97.3937 163.619 97.671C163.506 97.9483 163.359 98.165 163.177 98.321C163.004 98.4683 162.783 98.5897 162.514 98.685C162.245 98.7717 161.972 98.8237 161.695 98.841C161.452 98.867 161.153 98.88 160.798 98.88ZM160.824 98.113C161.283 98.113 161.639 98.0827 161.89 98.022C162.141 97.9527 162.323 97.8227 162.436 97.632C162.549 97.4413 162.605 97.1597 162.605 96.787V92.367C162.605 91.9597 162.544 91.6563 162.423 91.457C162.31 91.249 162.128 91.1103 161.877 91.041C161.634 90.9717 161.279 90.937 160.811 90.937C160.334 90.937 159.97 90.9717 159.719 91.041C159.476 91.1103 159.299 91.249 159.186 91.457C159.073 91.6563 159.017 91.9597 159.017 92.367V96.787C159.017 97.1597 159.073 97.4413 159.186 97.632C159.307 97.8227 159.494 97.9527 159.745 98.022C159.996 98.0827 160.356 98.113 160.824 98.113ZM171.797 90.17H172.798L168.586 98.88H167.585L171.797 90.17ZM167.234 94.681C166.913 94.681 166.649 94.668 166.441 94.642C166.242 94.616 166.038 94.564 165.83 94.486C165.397 94.33 165.18 93.966 165.18 93.394V91.769C165.18 91.223 165.349 90.846 165.687 90.638C166.034 90.4213 166.549 90.313 167.234 90.313C167.919 90.313 168.43 90.4213 168.768 90.638C169.106 90.846 169.275 91.223 169.275 91.769V93.394C169.275 93.966 169.063 94.33 168.638 94.486C168.43 94.564 168.222 94.616 168.014 94.642C167.815 94.668 167.555 94.681 167.234 94.681ZM167.234 94.005C167.615 94.005 167.88 93.9617 168.027 93.875C168.183 93.7883 168.261 93.6107 168.261 93.342V91.717C168.261 91.4223 168.187 91.2273 168.04 91.132C167.893 91.0367 167.624 90.989 167.234 90.989C166.844 90.989 166.571 91.0367 166.415 91.132C166.268 91.2273 166.194 91.4223 166.194 91.717V93.342C166.194 93.6107 166.272 93.7883 166.428 93.875C166.584 93.9617 166.853 94.005 167.234 94.005ZM173.058 98.88C172.737 98.88 172.473 98.867 172.265 98.841C172.066 98.815 171.862 98.763 171.654 98.685C171.221 98.529 171.004 98.165 171.004 97.593V95.968C171.004 95.422 171.173 95.045 171.511 94.837C171.858 94.6203 172.373 94.512 173.058 94.512C173.743 94.512 174.254 94.6203 174.592 94.837C174.93 95.045 175.099 95.422 175.099 95.968V97.593C175.099 98.165 174.887 98.529 174.462 98.685C174.254 98.763 174.046 98.815 173.838 98.841C173.639 98.867 173.379 98.88 173.058 98.88ZM173.058 98.204C173.439 98.204 173.704 98.1607 173.851 98.074C174.007 97.9873 174.085 97.8097 174.085 97.541V95.916C174.085 95.6213 174.011 95.4263 173.864 95.331C173.717 95.2357 173.448 95.188 173.058 95.188C172.668 95.188 172.395 95.2357 172.239 95.331C172.092 95.4263 172.018 95.6213 172.018 95.916V97.541C172.018 97.8097 172.096 97.9873 172.252 98.074C172.408 98.1607 172.677 98.204 173.058 98.204ZM182.222 98.88C181.503 98.88 180.645 98.8107 179.648 98.672V97.619C180.654 97.8357 181.538 97.944 182.3 97.944C182.942 97.944 183.41 97.8747 183.704 97.736C183.999 97.5887 184.146 97.32 184.146 96.93V95.838C184.146 95.474 184.042 95.2183 183.834 95.071C183.626 94.9237 183.262 94.85 182.742 94.85H181.754C180.931 94.85 180.346 94.6853 179.999 94.356C179.653 94.0267 179.479 93.5153 179.479 92.822V92.146C179.479 91.6867 179.579 91.314 179.778 91.028C179.986 90.742 180.329 90.5297 180.805 90.391C181.291 90.2523 181.954 90.183 182.794 90.183C183.358 90.183 184.081 90.2307 184.965 90.326V91.275C183.977 91.1277 183.223 91.054 182.703 91.054C181.897 91.054 181.364 91.132 181.104 91.288C180.836 91.4527 180.701 91.7257 180.701 92.107V93.069C180.701 93.3637 180.805 93.5803 181.013 93.719C181.23 93.849 181.598 93.914 182.118 93.914H183.132C183.713 93.914 184.164 93.9833 184.484 94.122C184.814 94.2607 185.043 94.473 185.173 94.759C185.312 95.0363 185.381 95.4133 185.381 95.89V96.501C185.381 97.099 185.269 97.5713 185.043 97.918C184.827 98.2647 184.489 98.5117 184.029 98.659C183.57 98.8063 182.968 98.88 182.222 98.88ZM186.205 90.313H187.544L189.637 97.554H189.663L191.756 90.313H193.095L195.188 97.554H195.214L197.307 90.313H198.581L195.864 98.75H194.395L192.38 91.73L190.313 98.75H188.844L186.205 90.313ZM201.854 91.197H198.994V90.313H205.975V91.197H203.128V98.75H201.854V91.197ZM207.378 90.313H208.639V93.953H213.124V90.313H214.385V98.75H213.124V94.837H208.639V98.75H207.378V90.313Z" fill="#F5F5F7"/>
<rect x="223.5" y="87.75" width="43" height="14" rx="4" fill="#53C2C1"/>
<path d="M231.251 97.86C229.249 97.86 228.248 97.2147 228.248 95.924V92.536C228.248 91.172 229.249 90.49 231.251 90.49C231.933 90.49 232.586 90.5597 233.209 90.699V91.491C232.505 91.315 231.86 91.227 231.273 91.227C230.987 91.227 230.738 91.2453 230.525 91.282C230.312 91.3113 230.107 91.3663 229.909 91.447C229.484 91.6303 229.271 91.9897 229.271 92.525V95.869C229.271 96.6903 229.953 97.101 231.317 97.101C231.904 97.101 232.549 97.013 233.253 96.837V97.651C232.63 97.7903 231.962 97.86 231.251 97.86ZM236.25 97.86C235.744 97.86 235.352 97.8123 235.073 97.717C234.802 97.6217 234.604 97.453 234.479 97.211C234.362 96.969 234.303 96.6207 234.303 96.166C234.303 95.7627 234.358 95.451 234.468 95.231C234.585 95.0037 234.78 94.8423 235.051 94.747C235.33 94.6517 235.722 94.604 236.228 94.604H237.823V93.757C237.823 93.559 237.783 93.4087 237.702 93.306C237.629 93.196 237.5 93.119 237.317 93.075C237.141 93.031 236.881 93.009 236.536 93.009C235.986 93.009 235.377 93.053 234.71 93.141V92.415C235.436 92.349 236.092 92.316 236.679 92.316C237.295 92.316 237.75 92.3637 238.043 92.459C238.336 92.547 238.538 92.7047 238.648 92.932C238.758 93.1593 238.813 93.5113 238.813 93.988V97.75H237.856V97.244C237.775 97.6547 237.24 97.86 236.25 97.86ZM236.415 97.211C236.774 97.211 237.079 97.1853 237.328 97.134C237.658 97.068 237.823 96.914 237.823 96.672V95.22H236.294C235.979 95.22 235.751 95.2457 235.612 95.297C235.473 95.341 235.381 95.429 235.337 95.561C235.293 95.693 235.271 95.9057 235.271 96.199C235.271 96.463 235.297 96.6683 235.348 96.815C235.399 96.9543 235.491 97.057 235.623 97.123C235.755 97.1817 235.953 97.211 236.217 97.211H236.415ZM240.53 92.426H241.465V93.295C241.465 93.1263 241.538 92.9687 241.685 92.822C241.832 92.668 242.019 92.547 242.246 92.459C242.473 92.3637 242.697 92.316 242.917 92.316H243.401V93.163H242.851C242.382 93.163 242.041 93.2253 241.828 93.35C241.623 93.4673 241.52 93.6837 241.52 93.999V97.75H240.53V92.426ZM246.762 97.86C246.366 97.86 246.047 97.838 245.805 97.794C245.571 97.7573 245.336 97.684 245.101 97.574C244.625 97.3467 244.386 96.826 244.386 96.012V90.05H245.376V91.645V92.272C245.369 92.4627 245.365 92.6753 245.365 92.91C245.402 92.7413 245.556 92.5983 245.827 92.481C246.106 92.371 246.509 92.316 247.037 92.316C248.504 92.316 249.237 92.8183 249.237 93.823V96.012C249.237 96.3273 249.19 96.6023 249.094 96.837C249.006 97.0717 248.889 97.255 248.742 97.387C248.61 97.5117 248.427 97.6107 248.192 97.684C247.965 97.7573 247.738 97.805 247.51 97.827C247.305 97.849 247.056 97.86 246.762 97.86ZM246.784 97.211C247.166 97.211 247.455 97.1853 247.653 97.134C247.859 97.0753 248.005 96.9727 248.093 96.826C248.181 96.6793 248.225 96.4557 248.225 96.155V94.065C248.225 93.7643 248.181 93.5407 248.093 93.394C248.005 93.24 247.859 93.141 247.653 93.097C247.455 93.0457 247.162 93.02 246.773 93.02C246.414 93.02 246.135 93.0493 245.937 93.108C245.739 93.1667 245.596 93.273 245.508 93.427C245.42 93.5737 245.376 93.7863 245.376 94.065V96.155C245.376 96.4557 245.417 96.6793 245.497 96.826C245.585 96.9727 245.728 97.0753 245.926 97.134C246.124 97.1853 246.41 97.211 246.784 97.211ZM253.011 97.86C252.542 97.86 252.19 97.8417 251.955 97.805C251.721 97.7757 251.486 97.706 251.251 97.596C251.009 97.486 250.833 97.31 250.723 97.068C250.613 96.8187 250.558 96.485 250.558 96.067V94.219C250.558 93.889 250.599 93.5993 250.679 93.35C250.76 93.1007 250.866 92.9063 250.998 92.767C251.108 92.6423 251.273 92.547 251.493 92.481C251.721 92.4077 251.952 92.36 252.186 92.338C252.45 92.3233 252.725 92.316 253.011 92.316C253.393 92.316 253.679 92.327 253.869 92.349C254.067 92.3637 254.276 92.4003 254.496 92.459C254.724 92.525 254.9 92.624 255.024 92.756C255.149 92.888 255.255 93.0787 255.343 93.328C255.424 93.5847 255.464 93.8817 255.464 94.219V96.067C255.464 96.6903 255.321 97.145 255.035 97.431C254.918 97.5483 254.749 97.64 254.529 97.706C254.309 97.772 254.082 97.816 253.847 97.838C253.569 97.8527 253.29 97.86 253.011 97.86ZM253.011 97.211C253.319 97.211 253.543 97.2037 253.682 97.189C253.822 97.1743 253.957 97.134 254.089 97.068C254.221 97.0093 254.313 96.914 254.364 96.782C254.423 96.6427 254.452 96.452 254.452 96.21V94.054C254.452 93.724 254.412 93.4857 254.331 93.339C254.251 93.185 254.111 93.086 253.913 93.042C253.723 92.9907 253.422 92.965 253.011 92.965C252.601 92.965 252.296 92.9907 252.098 93.042C251.908 93.086 251.772 93.185 251.691 93.339C251.611 93.4857 251.57 93.724 251.57 94.054V96.21C251.57 96.452 251.596 96.6427 251.647 96.782C251.706 96.914 251.801 97.0093 251.933 97.068C252.065 97.134 252.201 97.1743 252.34 97.189C252.48 97.2037 252.703 97.211 253.011 97.211ZM257.008 92.426H257.998V93.075C258.101 92.569 258.684 92.316 259.747 92.316C260.429 92.316 260.906 92.4407 261.177 92.69C261.456 92.932 261.595 93.317 261.595 93.845V97.75H260.605V93.9C260.605 93.7607 260.594 93.647 260.572 93.559C260.55 93.471 260.506 93.383 260.44 93.295C260.294 93.1117 259.967 93.02 259.461 93.02C259.073 93.02 258.772 93.0493 258.559 93.108C258.354 93.1593 258.207 93.2473 258.119 93.372C258.039 93.4967 257.998 93.6727 257.998 93.9V97.75H257.008V92.426Z" fill="white"/>
<path d="M153.114 122.88C152.412 122.88 151.584 122.802 150.631 122.646V121.71C151.636 121.918 152.477 122.022 153.153 122.022C153.682 122.022 154.067 121.948 154.31 121.801C154.561 121.645 154.687 121.394 154.687 121.047V119.37C154.687 119.006 154.531 118.772 154.219 118.668C154.072 118.625 153.933 118.599 153.803 118.59C153.682 118.573 153.521 118.564 153.322 118.564H150.826V114.313H155.688V115.197H151.996V117.758H153.946C154.293 117.758 154.6 117.801 154.869 117.888C155.138 117.966 155.376 118.105 155.584 118.304C155.801 118.521 155.909 118.802 155.909 119.149V121.073C155.909 121.376 155.853 121.645 155.74 121.879C155.636 122.104 155.493 122.282 155.311 122.412C155.146 122.533 154.934 122.633 154.674 122.711C154.423 122.789 154.171 122.837 153.92 122.854C153.608 122.871 153.339 122.88 153.114 122.88ZM160.798 122.88C160.417 122.88 160.105 122.867 159.862 122.841C159.628 122.815 159.377 122.763 159.108 122.685C158.822 122.607 158.592 122.494 158.419 122.347C158.254 122.191 158.116 121.974 158.003 121.697C157.89 121.437 157.834 121.112 157.834 120.722V116.458C157.834 116.068 157.89 115.726 158.003 115.431C158.116 115.136 158.263 114.902 158.445 114.729C158.61 114.582 158.826 114.465 159.095 114.378C159.372 114.283 159.65 114.222 159.927 114.196C160.239 114.179 160.529 114.17 160.798 114.17C161.179 114.17 161.487 114.183 161.721 114.209C161.964 114.235 162.219 114.287 162.488 114.365C162.774 114.452 163.004 114.573 163.177 114.729C163.359 114.885 163.506 115.106 163.619 115.392C163.732 115.678 163.788 116.029 163.788 116.445V120.722C163.788 121.077 163.732 121.394 163.619 121.671C163.506 121.948 163.359 122.165 163.177 122.321C163.004 122.468 162.783 122.59 162.514 122.685C162.245 122.772 161.972 122.824 161.695 122.841C161.452 122.867 161.153 122.88 160.798 122.88ZM160.824 122.113C161.283 122.113 161.639 122.083 161.89 122.022C162.141 121.953 162.323 121.823 162.436 121.632C162.549 121.441 162.605 121.16 162.605 120.787V116.367C162.605 115.96 162.544 115.656 162.423 115.457C162.31 115.249 162.128 115.11 161.877 115.041C161.634 114.972 161.279 114.937 160.811 114.937C160.334 114.937 159.97 114.972 159.719 115.041C159.476 115.11 159.299 115.249 159.186 115.457C159.073 115.656 159.017 115.96 159.017 116.367V120.787C159.017 121.16 159.073 121.441 159.186 121.632C159.307 121.823 159.494 121.953 159.745 122.022C159.996 122.083 160.356 122.113 160.824 122.113ZM171.797 114.17H172.798L168.586 122.88H167.585L171.797 114.17ZM167.234 118.681C166.913 118.681 166.649 118.668 166.441 118.642C166.242 118.616 166.038 118.564 165.83 118.486C165.397 118.33 165.18 117.966 165.18 117.394V115.769C165.18 115.223 165.349 114.846 165.687 114.638C166.034 114.421 166.549 114.313 167.234 114.313C167.919 114.313 168.43 114.421 168.768 114.638C169.106 114.846 169.275 115.223 169.275 115.769V117.394C169.275 117.966 169.063 118.33 168.638 118.486C168.43 118.564 168.222 118.616 168.014 118.642C167.815 118.668 167.555 118.681 167.234 118.681ZM167.234 118.005C167.615 118.005 167.88 117.962 168.027 117.875C168.183 117.788 168.261 117.611 168.261 117.342V115.717C168.261 115.422 168.187 115.227 168.04 115.132C167.893 115.037 167.624 114.989 167.234 114.989C166.844 114.989 166.571 115.037 166.415 115.132C166.268 115.227 166.194 115.422 166.194 115.717V117.342C166.194 117.611 166.272 117.788 166.428 117.875C166.584 117.962 166.853 118.005 167.234 118.005ZM173.058 122.88C172.737 122.88 172.473 122.867 172.265 122.841C172.066 122.815 171.862 122.763 171.654 122.685C171.221 122.529 171.004 122.165 171.004 121.593V119.968C171.004 119.422 171.173 119.045 171.511 118.837C171.858 118.62 172.373 118.512 173.058 118.512C173.743 118.512 174.254 118.62 174.592 118.837C174.93 119.045 175.099 119.422 175.099 119.968V121.593C175.099 122.165 174.887 122.529 174.462 122.685C174.254 122.763 174.046 122.815 173.838 122.841C173.639 122.867 173.379 122.88 173.058 122.88ZM173.058 122.204C173.439 122.204 173.704 122.161 173.851 122.074C174.007 121.987 174.085 121.81 174.085 121.541V119.916C174.085 119.621 174.011 119.426 173.864 119.331C173.717 119.236 173.448 119.188 173.058 119.188C172.668 119.188 172.395 119.236 172.239 119.331C172.092 119.426 172.018 119.621 172.018 119.916V121.541C172.018 121.81 172.096 121.987 172.252 122.074C172.408 122.161 172.677 122.204 173.058 122.204ZM179.791 114.313H182.807C183.527 114.313 184.099 114.387 184.523 114.534C184.913 114.673 185.173 114.846 185.303 115.054C185.442 115.262 185.511 115.548 185.511 115.912V117.043C185.511 117.381 185.416 117.645 185.225 117.836C185.035 118.018 184.744 118.152 184.354 118.239V118.291C184.814 118.369 185.182 118.529 185.459 118.772C185.745 119.006 185.888 119.301 185.888 119.656V121.073C185.888 121.688 185.659 122.122 185.199 122.373C184.74 122.624 183.973 122.75 182.898 122.75H179.791V114.313ZM182.846 118.005C183.375 118.005 183.752 117.927 183.977 117.771C184.211 117.606 184.328 117.351 184.328 117.004V116.016C184.328 115.695 184.211 115.47 183.977 115.34C183.743 115.21 183.353 115.145 182.807 115.145H181.052V118.005H182.846ZM182.898 121.879C183.531 121.879 183.977 121.814 184.237 121.684C184.497 121.554 184.627 121.333 184.627 121.021V119.747C184.627 119.522 184.58 119.344 184.484 119.214C184.398 119.075 184.259 118.976 184.068 118.915C183.878 118.863 183.709 118.833 183.561 118.824C183.414 118.807 183.193 118.798 182.898 118.798H181.052V121.879H182.898ZM191.053 122.88C190.594 122.88 190.191 122.85 189.844 122.789C189.506 122.728 189.172 122.624 188.843 122.477C188.496 122.321 188.228 122.083 188.037 121.762C187.855 121.441 187.764 121.051 187.764 120.592V114.313H188.973V120.579C188.973 121.108 189.151 121.485 189.506 121.71C189.861 121.927 190.386 122.035 191.079 122.035C191.772 122.035 192.288 121.927 192.626 121.71C192.973 121.485 193.146 121.108 193.146 120.579V114.313H194.355V120.592C194.355 122.117 193.254 122.88 191.053 122.88ZM198.98 122.88C198.261 122.88 197.403 122.811 196.406 122.672V121.619C197.411 121.836 198.295 121.944 199.058 121.944C199.699 121.944 200.167 121.875 200.462 121.736C200.757 121.589 200.904 121.32 200.904 120.93V119.838C200.904 119.474 200.8 119.218 200.592 119.071C200.384 118.924 200.02 118.85 199.5 118.85H198.512C197.689 118.85 197.104 118.685 196.757 118.356C196.41 118.027 196.237 117.515 196.237 116.822V116.146C196.237 115.687 196.337 115.314 196.536 115.028C196.744 114.742 197.086 114.53 197.563 114.391C198.048 114.252 198.711 114.183 199.552 114.183C200.115 114.183 200.839 114.231 201.723 114.326V115.275C200.735 115.128 199.981 115.054 199.461 115.054C198.655 115.054 198.122 115.132 197.862 115.288C197.593 115.453 197.459 115.726 197.459 116.107V117.069C197.459 117.364 197.563 117.58 197.771 117.719C197.988 117.849 198.356 117.914 198.876 117.914H199.89C200.471 117.914 200.921 117.983 201.242 118.122C201.571 118.261 201.801 118.473 201.931 118.759C202.07 119.036 202.139 119.413 202.139 119.89V120.501C202.139 121.099 202.026 121.571 201.801 121.918C201.584 122.265 201.246 122.512 200.787 122.659C200.328 122.806 199.725 122.88 198.98 122.88ZM203.95 114.313H207.304C209.67 114.313 210.853 115.119 210.853 116.731V120.462C210.853 121.987 209.675 122.75 207.317 122.75H203.95V114.313ZM207.226 121.892C208.838 121.892 209.644 121.407 209.644 120.436V116.718C209.644 116.406 209.579 116.142 209.449 115.925C209.319 115.708 209.137 115.548 208.903 115.444C208.669 115.349 208.427 115.284 208.175 115.249C207.924 115.206 207.629 115.184 207.291 115.184H205.211V121.892H207.226Z" fill="#F5F5F7"/>
<rect x="220.5" y="111.75" width="28" height="14" rx="4" fill="#FFB900"/>
<path d="M225.815 114.611H228.367C228.976 114.611 229.46 114.673 229.819 114.798C230.149 114.915 230.369 115.062 230.479 115.238C230.596 115.414 230.655 115.656 230.655 115.964V116.921C230.655 117.207 230.574 117.431 230.413 117.592C230.252 117.746 230.006 117.86 229.676 117.933V117.977C230.065 118.043 230.376 118.179 230.611 118.384C230.853 118.582 230.974 118.831 230.974 119.132V120.331C230.974 120.852 230.78 121.218 230.391 121.431C230.002 121.644 229.353 121.75 228.444 121.75H225.815V114.611ZM228.4 117.735C228.847 117.735 229.166 117.669 229.357 117.537C229.555 117.398 229.654 117.181 229.654 116.888V116.052C229.654 115.781 229.555 115.59 229.357 115.48C229.159 115.37 228.829 115.315 228.367 115.315H226.882V117.735H228.4ZM228.444 121.013C228.979 121.013 229.357 120.958 229.577 120.848C229.797 120.738 229.907 120.551 229.907 120.287V119.209C229.907 119.018 229.867 118.868 229.786 118.758C229.713 118.641 229.595 118.556 229.434 118.505C229.273 118.461 229.13 118.435 229.005 118.428C228.88 118.413 228.693 118.406 228.444 118.406H226.882V121.013H228.444ZM234.618 121.86C234.01 121.86 233.284 121.801 232.44 121.684V120.793C233.291 120.976 234.039 121.068 234.684 121.068C235.227 121.068 235.623 121.009 235.872 120.892C236.122 120.767 236.246 120.54 236.246 120.21V119.286C236.246 118.978 236.158 118.762 235.982 118.637C235.806 118.512 235.498 118.45 235.058 118.45H234.222C233.526 118.45 233.031 118.311 232.737 118.032C232.444 117.753 232.297 117.321 232.297 116.734V116.162C232.297 115.773 232.382 115.458 232.55 115.216C232.726 114.974 233.016 114.794 233.419 114.677C233.83 114.56 234.391 114.501 235.102 114.501C235.579 114.501 236.191 114.541 236.939 114.622V115.425C236.103 115.3 235.465 115.238 235.025 115.238C234.343 115.238 233.892 115.304 233.672 115.436C233.445 115.575 233.331 115.806 233.331 116.129V116.943C233.331 117.192 233.419 117.376 233.595 117.493C233.779 117.603 234.09 117.658 234.53 117.658H235.388C235.88 117.658 236.261 117.717 236.532 117.834C236.811 117.951 237.005 118.131 237.115 118.373C237.233 118.608 237.291 118.927 237.291 119.33V119.847C237.291 120.353 237.196 120.753 237.005 121.046C236.822 121.339 236.536 121.548 236.147 121.673C235.759 121.798 235.249 121.86 234.618 121.86ZM241.607 121.86C239.605 121.86 238.604 121.215 238.604 119.924V116.536C238.604 115.172 239.605 114.49 241.607 114.49C242.289 114.49 242.942 114.56 243.565 114.699V115.491C242.861 115.315 242.216 115.227 241.629 115.227C241.343 115.227 241.094 115.245 240.881 115.282C240.668 115.311 240.463 115.366 240.265 115.447C239.84 115.63 239.627 115.99 239.627 116.525V119.869C239.627 120.69 240.309 121.101 241.673 121.101C242.26 121.101 242.905 121.013 243.609 120.837V121.651C242.986 121.79 242.318 121.86 241.607 121.86Z" fill="white"/>
<g filter="url(#filter1_d_1_116)">
<ellipse cx="99.3" cy="113.25" rx="22.8182" ry="25" fill="#FFB900"/>
<path d="M103.477 99.2433L99.2491 94.5L88.604 106.275L92.8315 110.906L103.477 99.2433Z" fill="white"/>
<path d="M109.894 106.275L105.667 101.531L88.604 120.337L92.8315 124.969L109.894 106.275Z" fill="white"/>
<path d="M86.4138 108.562L90.6413 113.306L86.4138 117.937L82.1864 113.306L86.4138 108.562Z" fill="white"/>
<path d="M116.312 113.306L112.084 108.562L95.0216 127.368L99.2491 132L116.312 113.306Z" fill="white"/>
</g>
<g filter="url(#filter2_d_1_116)">
<path d="M362.85 41C362.85 38.7909 364.641 37 366.85 37H491.195C493.405 37 495.195 38.7909 495.195 41V170.45C495.195 172.659 493.405 174.45 491.195 174.45H366.85C364.641 174.45 362.85 172.659 362.85 170.45V121.003C362.85 120.444 362.615 119.909 362.203 119.531L348.479 106.916C347.617 106.124 347.617 104.764 348.479 103.971L362.203 91.3568C362.615 90.978 362.85 90.444 362.85 89.8843V41Z" fill="#272A2E"/>
<path d="M362.85 41C362.85 38.7909 364.641 37 366.85 37H491.195C493.405 37 495.195 38.7909 495.195 41V170.45C495.195 172.659 493.405 174.45 491.195 174.45H366.85C364.641 174.45 362.85 172.659 362.85 170.45V121.003C362.85 120.444 362.615 119.909 362.203 119.531L348.479 106.916C347.617 106.124 347.617 104.764 348.479 103.971L362.203 91.3568C362.615 90.978 362.85 90.444 362.85 89.8843V41Z" stroke="white" stroke-opacity="0.08"/>
</g>
<path d="M380.961 69.5L385.953 58.3H388.513L393.521 69.5H390.801L386.705 59.612H387.729L383.617 69.5H380.961ZM383.457 67.1L384.145 65.132H389.905L390.609 67.1H383.457ZM394.683 69.5V58.3H399.531C400.533 58.3 401.397 58.4653 402.123 58.796C402.848 59.116 403.408 59.58 403.803 60.188C404.197 60.796 404.395 61.5213 404.395 62.364C404.395 63.196 404.197 63.916 403.803 64.524C403.408 65.132 402.848 65.6013 402.123 65.932C401.397 66.252 400.533 66.412 399.531 66.412H396.123L397.275 65.244V69.5H394.683ZM397.275 65.532L396.123 64.3H399.387C400.187 64.3 400.784 64.1293 401.179 63.788C401.573 63.4467 401.771 62.972 401.771 62.364C401.771 61.7453 401.573 61.2653 401.179 60.924C400.784 60.5827 400.187 60.412 399.387 60.412H396.123L397.275 59.18V65.532ZM406.245 69.5V58.3H411.093C412.096 58.3 412.96 58.4653 413.685 58.796C414.41 59.116 414.97 59.58 415.365 60.188C415.76 60.796 415.957 61.5213 415.957 62.364C415.957 63.196 415.76 63.916 415.365 64.524C414.97 65.1213 414.41 65.58 413.685 65.9C412.96 66.22 412.096 66.38 411.093 66.38H407.685L408.837 65.244V69.5H406.245ZM413.365 69.5L410.565 65.436H413.333L416.165 69.5H413.365ZM408.837 65.532L407.685 64.316H410.949C411.749 64.316 412.346 64.1453 412.741 63.804C413.136 63.452 413.333 62.972 413.333 62.364C413.333 61.7453 413.136 61.2653 412.741 60.924C412.346 60.5827 411.749 60.412 410.949 60.412H407.685L408.837 59.18V65.532Z" fill="#F5F5F7"/>
<path d="M382.816 151.375L382.816 97.625M405.634 151.375L405.634 97.625M428.452 151.375V97.625M451.27 151.375V97.625M474.089 151.375V97.625" stroke="white" stroke-opacity="0.08" stroke-linecap="round"/>
<path d="M474.659 97C474.659 125.995 433.795 149.5 383.386 149.5" stroke="url(#paint0_linear_1_116)" stroke-width="2" stroke-linecap="round"/>
<rect x="464.391" y="87" width="20.5364" height="22.5" rx="10.2682" fill="url(#paint1_linear_1_116)"/>
<path d="M514.853 64.874C510.417 67.9613 499.409 75.9372 496.559 80.9642C496.158 81.6727 496.329 82.551 496.831 83.1817L502.184 89.9086C502.823 90.711 503.873 90.9702 504.776 90.5527C508.371 88.8921 517.592 84.7695 523.991 83.1258C525.609 82.7101 526.538 80.6483 525.664 79.1304L517.889 65.6237C517.245 64.5043 515.882 64.1577 514.853 64.874Z" fill="url(#paint2_linear_1_116)"/>
<path d="M504.889 126.204C501.955 122.716 495.752 115.035 494.167 110.632C493.844 109.732 494.25 108.787 494.968 108.253L499.424 104.938C500.258 104.318 501.343 104.36 502.14 105.038C504.597 107.125 510.006 111.602 514.308 114.331C515.849 115.308 516.254 117.866 514.951 119.214L508.093 126.311C507.171 127.265 505.751 127.228 504.889 126.204Z" fill="url(#paint3_linear_1_116)"/>
<path d="M480.239 51.4457C479.318 55.2664 477.797 62.3127 478.128 65.9596C478.213 66.886 478.955 67.4898 479.809 67.6211L483.728 68.2229C484.831 68.3922 485.904 67.7566 486.379 66.6699C487.437 64.2482 489.406 59.908 491.324 56.5801C492.311 54.8667 491.609 52.3246 489.819 51.7402L483.313 49.6165C481.984 49.1828 480.588 49.997 480.239 51.4457Z" fill="url(#paint4_linear_1_116)"/>
<path d="M453.666 58.782C456.745 61.4235 462.55 66.6803 464.228 70.122C464.563 70.8081 464.352 71.6003 463.864 72.1777L460.493 76.1716C459.77 77.0275 458.579 77.2446 457.615 76.7083C455.218 75.3746 450.639 72.9253 446.926 71.5212C445.312 70.9109 444.443 68.7528 445.383 67.2515L450.341 59.3379C451.081 58.1558 452.622 57.8857 453.666 58.782Z" fill="url(#paint5_linear_1_116)"/>
<g filter="url(#filter3_d_1_116)">
<ellipse cx="67.3546" cy="98.25" rx="22.8182" ry="25" fill="#4FC1C0"/>
<ellipse cx="67.3546" cy="98.25" rx="22.8182" ry="25" fill="url(#paint6_linear_1_116)"/>
<path d="M50.3053 102.117C50.4734 102.122 50.6421 102.125 50.8114 102.125C54.2923 102.125 57.5398 101.03 60.2828 99.1377C61.4056 105.47 66.4943 110.25 72.6021 110.25C77.6008 110.25 81.917 107.048 83.9351 102.414C84.0916 102.323 84.2461 102.229 84.3985 102.132C82.193 110.156 75.3964 116 67.3539 116C59.3066 116 52.5066 110.149 50.3053 102.117Z" fill="url(#paint7_radial_1_116)"/>
<path d="M50.3053 102.117C50.4734 102.122 50.6421 102.125 50.8114 102.125C54.2923 102.125 57.5398 101.03 60.2828 99.1377C61.4056 105.47 66.4943 110.25 72.6021 110.25C77.6008 110.25 81.917 107.048 83.9351 102.414C84.0916 102.323 84.2461 102.229 84.3985 102.132C82.193 110.156 75.3964 116 67.3539 116C59.3066 116 52.5066 110.149 50.3053 102.117Z" fill="#04171E" fill-opacity="0.88"/>
<path d="M50.3906 102.42C50.5305 102.423 50.6707 102.425 50.8114 102.425C54.3133 102.425 57.579 101.317 60.3324 99.4033C61.5487 105.603 66.58 110.25 72.6021 110.25C77.6008 110.25 81.917 107.048 83.9351 102.414C84.0916 102.323 84.2461 102.229 84.3985 102.132C82.1929 110.156 75.3964 116 67.3539 116C59.4079 116 52.6781 110.295 50.3906 102.42Z" fill="url(#paint8_radial_1_116)"/>
<path d="M50.3906 102.42C50.5305 102.423 50.6707 102.425 50.8114 102.425C54.3133 102.425 57.579 101.317 60.3324 99.4033C61.5487 105.603 66.58 110.25 72.6021 110.25C77.6008 110.25 81.917 107.048 83.9351 102.414C84.0916 102.323 84.2461 102.229 84.3985 102.132C82.1929 110.156 75.3964 116 67.3539 116C59.4079 116 52.6781 110.295 50.3906 102.42Z" fill="#04171E" fill-opacity="0.4"/>
<path d="M75.7743 109.807C73.2437 112.113 69.9906 113.5 66.4418 113.5C59.8176 113.5 54.2234 108.668 52.4358 102.045C55.3016 101.761 57.9713 100.732 60.2827 99.1377C61.4056 105.47 66.4943 110.25 72.602 110.25C73.6979 110.25 74.761 110.096 75.7743 109.807Z" fill="url(#paint9_linear_1_116)" fill-opacity="0.64"/>
<path d="M81.9582 96.5C81.9582 105.337 75.4199 112.5 67.3546 112.5C59.2892 112.5 52.7509 105.337 52.7509 96.5C52.7509 87.6634 59.2892 80.5 67.3546 80.5C75.4199 80.5 81.9582 87.6634 81.9582 96.5Z" fill="url(#paint10_radial_1_116)"/>
<path d="M80.9874 93.4956C80.9874 99.7088 76.3902 104.746 70.7192 104.746C65.0482 104.746 60.451 99.7088 60.451 93.4956C60.451 87.2824 65.0482 82.2456 70.7192 82.2456C76.3902 82.2456 80.9874 87.2824 80.9874 93.4956Z" fill="url(#paint11_radial_1_116)" fill-opacity="0.6"/>
<path d="M68.312 82.2658C68.083 82.2524 67.8523 82.2456 67.6202 82.2456C65.4355 82.2456 63.3792 82.8478 61.5821 83.9091C62.5432 83.677 63.5419 83.5547 64.5667 83.5547C65.6112 83.5547 66.6287 83.6818 67.6069 83.9226L68.312 82.2658Z" fill="url(#paint12_linear_1_116)" fill-opacity="0.64"/>
<path d="M69.1569 84.4108C74.5259 86.4837 78.3738 92.0905 78.3738 98.682C78.3738 101.392 77.7234 103.935 76.5843 106.135C78.9189 103.604 80.3652 100.092 80.3652 96.2092C80.3652 89.3796 75.8899 83.6951 69.977 82.4839L69.1569 84.4108Z" fill="url(#paint13_linear_1_116)" fill-opacity="0.64"/>
<path d="M75.1588 110.026C72.9013 111.593 70.2246 112.5 67.3545 112.5C62.806 112.5 58.7432 110.222 56.0648 106.65C56.8032 106.798 57.5641 106.876 58.3415 106.876C63.9865 106.876 68.7611 102.792 70.3386 97.1745C70.8591 97.2247 71.386 97.2503 71.9184 97.2503C75.5654 97.2503 78.9563 96.0485 81.779 93.9866C81.8969 94.8055 81.9582 95.645 81.9582 96.5003C81.9582 97.0311 81.9346 97.556 81.8885 98.0736C81.0681 102.927 78.6069 107.151 75.1588 110.026Z" fill="url(#paint14_linear_1_116)" fill-opacity="0.64"/>
<path d="M50.3099 102.132C52.5153 110.156 59.312 116 67.3547 116C77.1465 116 85.0915 107.337 85.1526 96.6248C84.1757 96.6181 83.2175 96.5251 82.2841 96.3525C80.0903 97.4118 77.6643 98 75.113 98C74.2283 98 73.3587 97.9293 72.5086 97.7927C70.9328 103.414 66.1568 107.5 60.5097 107.5C56.5718 107.5 53.0575 105.513 50.7566 102.404C50.6059 102.317 50.4569 102.226 50.3099 102.132Z" fill="url(#paint15_linear_1_116)"/>
<path d="M85.1525 96.6418C82.5347 98.3008 79.4955 99.2503 76.2539 99.2503C75.6361 99.2503 75.0256 99.2158 74.4241 99.1485C73.2974 105.475 68.211 110.25 62.1066 110.25C57.1079 110.25 52.7917 107.048 50.7736 102.414C50.6171 102.324 50.4626 102.23 50.3102 102.132C52.5157 110.156 59.3123 116 67.3548 116C77.1414 116 85.0831 107.346 85.1525 96.6418Z" fill="url(#paint16_radial_1_116)"/>
<path d="M83.8548 97.3877C82.7828 97.9433 81.6519 98.385 80.4753 98.6985C80.3228 100.122 80.0294 101.55 79.5859 102.962C78.505 106.401 76.6649 109.318 74.3416 111.565C78.3143 109.47 81.5511 105.705 83.0999 100.777C83.4525 99.6544 83.7024 98.5207 83.8548 97.3877Z" fill="url(#paint17_linear_1_116)" fill-opacity="0.64"/>
<path opacity="0.2" fill-rule="evenodd" clip-rule="evenodd" d="M72.501 97.8263C72.5212 97.7968 72.5586 97.7913 72.5848 97.814C73.1789 98.3304 73.8209 98.7859 74.5092 99.1723C74.5387 99.1888 74.5507 99.2293 74.536 99.2626C74.5213 99.296 74.4855 99.3096 74.456 99.293C73.7608 98.9026 73.1121 98.4425 72.5119 97.9209C72.4858 97.8982 72.4809 97.8558 72.501 97.8263Z" fill="url(#paint18_linear_1_116)"/>
</g>
</g>
<defs>
<filter id="filter0_d_1_116" x="-24" y="2.75" width="454.816" height="206" filterUnits="userSpaceOnUse" color-interpolation-filters="sRGB">
<feFlood flood-opacity="0" result="BackgroundImageFix"/>
<feColorMatrix in="SourceAlpha" type="matrix" values="0 0 0 0 0 0 0 0 0 0 0 0 0 0 0 0 0 0 127 0" result="hardAlpha"/>
<feOffset/>
<feGaussianBlur stdDeviation="24"/>
<feColorMatrix type="matrix" values="0 0 0 0 0 0 0 0 0 0 0 0 0 0 0 0 0 0 0.64 0"/>
<feBlend mode="normal" in2="BackgroundImageFix" result="effect1_dropShadow_1_116"/>
<feBlend mode="normal" in="SourceGraphic" in2="effect1_dropShadow_1_116" result="shape"/>
</filter>
<filter id="filter1_d_1_116" x="60.4818" y="72.25" width="77.6364" height="82" filterUnits="userSpaceOnUse" color-interpolation-filters="sRGB">
<feFlood flood-opacity="0" result="BackgroundImageFix"/>
<feColorMatrix in="SourceAlpha" type="matrix" values="0 0 0 0 0 0 0 0 0 0 0 0 0 0 0 0 0 0 127 0" result="hardAlpha"/>
<feOffset/>
<feGaussianBlur stdDeviation="8"/>
<feComposite in2="hardAlpha" operator="out"/>
<feColorMatrix type="matrix" values="0 0 0 0 0 0 0 0 0 0 0 0 0 0 0 0 0 0 0.64 0"/>
<feBlend mode="normal" in2="BackgroundImageFix" result="effect1_dropShadow_1_116"/>
<feBlend mode="normal" in="SourceGraphic" in2="effect1_dropShadow_1_116" result="shape"/>
</filter>
<filter id="filter2_d_1_116" x="299.333" y="-11.5" width="244.363" height="234.45" filterUnits="userSpaceOnUse" color-interpolation-filters="sRGB">
<feFlood flood-opacity="0" result="BackgroundImageFix"/>
<feColorMatrix in="SourceAlpha" type="matrix" values="0 0 0 0 0 0 0 0 0 0 0 0 0 0 0 0 0 0 127 0" result="hardAlpha"/>
<feOffset/>
<feGaussianBlur stdDeviation="24"/>
<feColorMatrix type="matrix" values="0 0 0 0 0 0 0 0 0 0 0 0 0 0 0 0 0 0 0.64 0"/>
<feBlend mode="normal" in2="BackgroundImageFix" result="effect1_dropShadow_1_116"/>
<feBlend mode="normal" in="SourceGraphic" in2="effect1_dropShadow_1_116" result="shape"/>
</filter>
<filter id="filter3_d_1_116" x="28.5364" y="57.25" width="77.6364" height="82" filterUnits="userSpaceOnUse" color-interpolation-filters="sRGB">
<feFlood flood-opacity="0" result="BackgroundImageFix"/>
<feColorMatrix in="SourceAlpha" type="matrix" values="0 0 0 0 0 0 0 0 0 0 0 0 0 0 0 0 0 0 127 0" result="hardAlpha"/>
<feOffset/>
<feGaussianBlur stdDeviation="8"/>
<feComposite in2="hardAlpha" operator="out"/>
<feColorMatrix type="matrix" values="0 0 0 0 0 0 0 0 0 0 0 0 0 0 0 0 0 0 0.64 0"/>
<feBlend mode="normal" in2="BackgroundImageFix" result="effect1_dropShadow_1_116"/>
<feBlend mode="normal" in="SourceGraphic" in2="effect1_dropShadow_1_116" result="shape"/>
</filter>
<linearGradient id="paint0_linear_1_116" x1="474.659" y1="123.25" x2="383.386" y2="123.25" gradientUnits="userSpaceOnUse">
<stop stop-color="#482BFF"/>
<stop offset="1" stop-color="#007AFF"/>
</linearGradient>
<linearGradient id="paint1_linear_1_116" x1="484.927" y1="98.25" x2="464.391" y2="98.25" gradientUnits="userSpaceOnUse">
<stop stop-color="#482BFF"/>
<stop offset="1" stop-color="#007AFF"/>
</linearGradient>
<linearGradient id="paint2_linear_1_116" x1="496.336" y1="77.625" x2="526" y2="77.625" gradientUnits="userSpaceOnUse">
<stop stop-color="#FFA800"/>
<stop offset="1" stop-color="#FF5107"/>
</linearGradient>
<linearGradient id="paint3_linear_1_116" x1="515.732" y1="116.054" x2="494.055" y2="116.054" gradientUnits="userSpaceOnUse">
<stop stop-color="#00A862"/>
<stop offset="1" stop-color="#00AF92"/>
</linearGradient>
<linearGradient id="paint4_linear_1_116" x1="491.773" y1="59.1284" x2="478.082" y2="59.1284" gradientUnits="userSpaceOnUse">
<stop stop-color="#E84747"/>
<stop offset="1" stop-color="#FF5107"/>
</linearGradient>
<linearGradient id="paint5_linear_1_116" x1="464.391" y1="67.625" x2="444.995" y2="67.625" gradientUnits="userSpaceOnUse">
<stop stop-color="#007AFF"/>
<stop offset="1" stop-color="#00B1F0"/>
</linearGradient>
<linearGradient id="paint6_linear_1_116" x1="44.5364" y1="98.25" x2="86.6431" y2="76.5473" gradientUnits="userSpaceOnUse">
<stop stop-color="#063C4F"/>
<stop offset="1" stop-color="#00F0FF"/>
</linearGradient>
<radialGradient id="paint7_radial_1_116" cx="0" cy="0" r="1" gradientUnits="userSpaceOnUse" gradientTransform="translate(84.3985 111.881) rotate(179.943) scale(129.23 411.397)">
<stop offset="0.104167" stop-color="#24537E"/>
<stop offset="0.520341" stop-color="#4FC1C0"/>
<stop offset="1" stop-color="#DAFFF4"/>
</radialGradient>
<radialGradient id="paint8_radial_1_116" cx="0" cy="0" r="1" gradientUnits="userSpaceOnUse" gradientTransform="translate(84.3985 111.881) rotate(179.943) scale(129.23 411.397)">
<stop offset="0.104167" stop-color="#24537E"/>
<stop offset="0.520341" stop-color="#4FC1C0"/>
<stop offset="1" stop-color="#DAFFF4"/>
</radialGradient>
<linearGradient id="paint9_linear_1_116" x1="75.3378" y1="116.195" x2="68.3397" y2="82.9716" gradientUnits="userSpaceOnUse">
<stop stop-color="#04171E"/>
<stop offset="1" stop-color="#04171E" stop-opacity="0"/>
</linearGradient>
<radialGradient id="paint10_radial_1_116" cx="0" cy="0" r="1" gradientUnits="userSpaceOnUse" gradientTransform="translate(56.6673 109.009) rotate(-59.8617) scale(27.4993 382.075)">
<stop offset="0.104167" stop-color="#3A78B1"/>
<stop offset="0.520341" stop-color="#4FC1C0"/>
<stop offset="1" stop-color="#8CF2FD"/>
</radialGradient>
<radialGradient id="paint11_radial_1_116" cx="0" cy="0" r="1" gradientUnits="userSpaceOnUse" gradientTransform="translate(80.9314 82.25) rotate(141.754) scale(26.1491 26.6264)">
<stop offset="0.216485" stop-color="white"/>
<stop offset="0.906332" stop-color="white" stop-opacity="0"/>
</radialGradient>
<linearGradient id="paint12_linear_1_116" x1="76.5959" y1="88.5" x2="61.124" y2="94.6515" gradientUnits="userSpaceOnUse">
<stop stop-color="white"/>
<stop offset="0.732381" stop-color="white" stop-opacity="0"/>
</linearGradient>
<linearGradient id="paint13_linear_1_116" x1="76.5959" y1="88.5" x2="61.124" y2="94.6515" gradientUnits="userSpaceOnUse">
<stop stop-color="white"/>
<stop offset="0.732381" stop-color="white" stop-opacity="0"/>
</linearGradient>
<linearGradient id="paint14_linear_1_116" x1="104.55" y1="54.3113" x2="38.4335" y2="104.588" gradientUnits="userSpaceOnUse">
<stop stop-color="#04171E"/>
<stop offset="1" stop-color="#04171E" stop-opacity="0"/>
</linearGradient>
<linearGradient id="paint15_linear_1_116" x1="78.6495" y1="99.0625" x2="55.1105" y2="106.648" gradientUnits="userSpaceOnUse">
<stop stop-color="#0E6585"/>
<stop offset="1" stop-color="#04171E"/>
</linearGradient>
<radialGradient id="paint16_radial_1_116" cx="0" cy="0" r="1" gradientUnits="userSpaceOnUse" gradientTransform="translate(54.9822 113.888) rotate(-41.1362) scale(21.8695 346.712)">
<stop offset="0.104167" stop-color="#3A78B1"/>
<stop offset="0.520341" stop-color="#4FC1C0"/>
<stop offset="1" stop-color="#8CF2FD"/>
</radialGradient>
<linearGradient id="paint17_linear_1_116" x1="83.8977" y1="97.375" x2="73.8435" y2="111.285" gradientUnits="userSpaceOnUse">
<stop stop-color="white" stop-opacity="0.64"/>
<stop offset="1" stop-color="white" stop-opacity="0"/>
</linearGradient>
<linearGradient id="paint18_linear_1_116" x1="74.5303" y1="99.229" x2="71.5022" y2="97.5204" gradientUnits="userSpaceOnUse">
<stop stop-color="#8CF2FD"/>
<stop offset="1" stop-color="#8CF2FD" stop-opacity="0"/>
</linearGradient>
<clipPath id="clip0_1_116">
<rect width="550" height="223" fill="white"/>
</clipPath>
</defs>
</svg>
