<svg width="440" height="128" viewBox="0 0 440 128" fill="none" xmlns="http://www.w3.org/2000/svg">
<g clip-path="url(#clip0_1_116)">
<g filter="url(#filter0_d_1_116)">
<rect y="15" width="314.5" height="88" rx="4" fill="#1A1D1F"/>
</g>
<path d="M113.614 52.13C112.912 52.13 112.084 52.052 111.131 51.896V50.96C112.136 51.168 112.977 51.272 113.653 51.272C114.182 51.272 114.567 51.1983 114.81 51.051C115.061 50.895 115.187 50.6437 115.187 50.297V48.62C115.187 48.256 115.031 48.022 114.719 47.918C114.572 47.8747 114.433 47.8487 114.303 47.84C114.182 47.8227 114.021 47.814 113.822 47.814H111.326V43.563H116.188V44.447H112.496V47.008H114.446C114.793 47.008 115.1 47.0513 115.369 47.138C115.638 47.216 115.876 47.3547 116.084 47.554C116.301 47.7707 116.409 48.0523 116.409 48.399V50.323C116.409 50.6263 116.353 50.895 116.24 51.129C116.136 51.3543 115.993 51.532 115.811 51.662C115.646 51.7833 115.434 51.883 115.174 51.961C114.923 52.039 114.671 52.0867 114.42 52.104C114.108 52.1213 113.839 52.13 113.614 52.13ZM121.298 52.13C120.917 52.13 120.605 52.117 120.362 52.091C120.128 52.065 119.877 52.013 119.608 51.935C119.322 51.857 119.092 51.7443 118.919 51.597C118.754 51.441 118.616 51.2243 118.503 50.947C118.39 50.687 118.334 50.362 118.334 49.972V45.708C118.334 45.318 118.39 44.9757 118.503 44.681C118.616 44.3863 118.763 44.1523 118.945 43.979C119.11 43.8317 119.326 43.7147 119.595 43.628C119.872 43.5327 120.15 43.472 120.427 43.446C120.739 43.4287 121.029 43.42 121.298 43.42C121.679 43.42 121.987 43.433 122.221 43.459C122.464 43.485 122.719 43.537 122.988 43.615C123.274 43.7017 123.504 43.823 123.677 43.979C123.859 44.135 124.006 44.356 124.119 44.642C124.232 44.928 124.288 45.279 124.288 45.695V49.972C124.288 50.3273 124.232 50.6437 124.119 50.921C124.006 51.1983 123.859 51.415 123.677 51.571C123.504 51.7183 123.283 51.8397 123.014 51.935C122.745 52.0217 122.472 52.0737 122.195 52.091C121.952 52.117 121.653 52.13 121.298 52.13ZM121.324 51.363C121.783 51.363 122.139 51.3327 122.39 51.272C122.641 51.2027 122.823 51.0727 122.936 50.882C123.049 50.6913 123.105 50.4097 123.105 50.037V45.617C123.105 45.2097 123.044 44.9063 122.923 44.707C122.81 44.499 122.628 44.3603 122.377 44.291C122.134 44.2217 121.779 44.187 121.311 44.187C120.834 44.187 120.47 44.2217 120.219 44.291C119.976 44.3603 119.799 44.499 119.686 44.707C119.573 44.9063 119.517 45.2097 119.517 45.617V50.037C119.517 50.4097 119.573 50.6913 119.686 50.882C119.807 51.0727 119.994 51.2027 120.245 51.272C120.496 51.3327 120.856 51.363 121.324 51.363ZM132.297 43.42H133.298L129.086 52.13H128.085L132.297 43.42ZM127.734 47.931C127.413 47.931 127.149 47.918 126.941 47.892C126.742 47.866 126.538 47.814 126.33 47.736C125.897 47.58 125.68 47.216 125.68 46.644V45.019C125.68 44.473 125.849 44.096 126.187 43.888C126.534 43.6713 127.049 43.563 127.734 43.563C128.419 43.563 128.93 43.6713 129.268 43.888C129.606 44.096 129.775 44.473 129.775 45.019V46.644C129.775 47.216 129.563 47.58 129.138 47.736C128.93 47.814 128.722 47.866 128.514 47.892C128.315 47.918 128.055 47.931 127.734 47.931ZM127.734 47.255C128.115 47.255 128.38 47.2117 128.527 47.125C128.683 47.0383 128.761 46.8607 128.761 46.592V44.967C128.761 44.6723 128.687 44.4773 128.54 44.382C128.393 44.2867 128.124 44.239 127.734 44.239C127.344 44.239 127.071 44.2867 126.915 44.382C126.768 44.4773 126.694 44.6723 126.694 44.967V46.592C126.694 46.8607 126.772 47.0383 126.928 47.125C127.084 47.2117 127.353 47.255 127.734 47.255ZM133.558 52.13C133.237 52.13 132.973 52.117 132.765 52.091C132.566 52.065 132.362 52.013 132.154 51.935C131.721 51.779 131.504 51.415 131.504 50.843V49.218C131.504 48.672 131.673 48.295 132.011 48.087C132.358 47.8703 132.873 47.762 133.558 47.762C134.243 47.762 134.754 47.8703 135.092 48.087C135.43 48.295 135.599 48.672 135.599 49.218V50.843C135.599 51.415 135.387 51.779 134.962 51.935C134.754 52.013 134.546 52.065 134.338 52.091C134.139 52.117 133.879 52.13 133.558 52.13ZM133.558 51.454C133.939 51.454 134.204 51.4107 134.351 51.324C134.507 51.2373 134.585 51.0597 134.585 50.791V49.166C134.585 48.8713 134.511 48.6763 134.364 48.581C134.217 48.4857 133.948 48.438 133.558 48.438C133.168 48.438 132.895 48.4857 132.739 48.581C132.592 48.6763 132.518 48.8713 132.518 49.166V50.791C132.518 51.0597 132.596 51.2373 132.752 51.324C132.908 51.4107 133.177 51.454 133.558 51.454ZM142.722 52.13C142.003 52.13 141.145 52.0607 140.148 51.922V50.869C141.154 51.0857 142.038 51.194 142.8 51.194C143.442 51.194 143.91 51.1247 144.204 50.986C144.499 50.8387 144.646 50.57 144.646 50.18V49.088C144.646 48.724 144.542 48.4683 144.334 48.321C144.126 48.1737 143.762 48.1 143.242 48.1H142.254C141.431 48.1 140.846 47.9353 140.499 47.606C140.153 47.2767 139.979 46.7653 139.979 46.072V45.396C139.979 44.9367 140.079 44.564 140.278 44.278C140.486 43.992 140.829 43.7797 141.305 43.641C141.791 43.5023 142.454 43.433 143.294 43.433C143.858 43.433 144.581 43.4807 145.465 43.576V44.525C144.477 44.3777 143.723 44.304 143.203 44.304C142.397 44.304 141.864 44.382 141.604 44.538C141.336 44.7027 141.201 44.9757 141.201 45.357V46.319C141.201 46.6137 141.305 46.8303 141.513 46.969C141.73 47.099 142.098 47.164 142.618 47.164H143.632C144.213 47.164 144.664 47.2333 144.984 47.372C145.314 47.5107 145.543 47.723 145.673 48.009C145.812 48.2863 145.881 48.6633 145.881 49.14V49.751C145.881 50.349 145.769 50.8213 145.543 51.168C145.327 51.5147 144.989 51.7617 144.529 51.909C144.07 52.0563 143.468 52.13 142.722 52.13ZM146.705 43.563H148.044L150.137 50.804H150.163L152.256 43.563H153.595L155.688 50.804H155.714L157.807 43.563H159.081L156.364 52H154.895L152.88 44.98L150.813 52H149.344L146.705 43.563ZM162.354 44.447H159.494V43.563H166.475V44.447H163.628V52H162.354V44.447ZM167.878 43.563H169.139V47.203H173.624V43.563H174.885V52H173.624V48.087H169.139V52H167.878V43.563Z" fill="#F5F5F7"/>
<rect x="184" y="41" width="43" height="14" rx="4" fill="#53C2C1"/>
<path d="M191.751 51.11C189.749 51.11 188.748 50.4647 188.748 49.174V45.786C188.748 44.422 189.749 43.74 191.751 43.74C192.433 43.74 193.086 43.8097 193.709 43.949V44.741C193.005 44.565 192.36 44.477 191.773 44.477C191.487 44.477 191.238 44.4953 191.025 44.532C190.812 44.5613 190.607 44.6163 190.409 44.697C189.984 44.8803 189.771 45.2397 189.771 45.775V49.119C189.771 49.9403 190.453 50.351 191.817 50.351C192.404 50.351 193.049 50.263 193.753 50.087V50.901C193.13 51.0403 192.462 51.11 191.751 51.11ZM196.75 51.11C196.244 51.11 195.852 51.0623 195.573 50.967C195.302 50.8717 195.104 50.703 194.979 50.461C194.862 50.219 194.803 49.8707 194.803 49.416C194.803 49.0127 194.858 48.701 194.968 48.481C195.085 48.2537 195.28 48.0923 195.551 47.997C195.83 47.9017 196.222 47.854 196.728 47.854H198.323V47.007C198.323 46.809 198.283 46.6587 198.202 46.556C198.129 46.446 198 46.369 197.817 46.325C197.641 46.281 197.381 46.259 197.036 46.259C196.486 46.259 195.877 46.303 195.21 46.391V45.665C195.936 45.599 196.592 45.566 197.179 45.566C197.795 45.566 198.25 45.6137 198.543 45.709C198.836 45.797 199.038 45.9547 199.148 46.182C199.258 46.4093 199.313 46.7613 199.313 47.238V51H198.356V50.494C198.275 50.9047 197.74 51.11 196.75 51.11ZM196.915 50.461C197.274 50.461 197.579 50.4353 197.828 50.384C198.158 50.318 198.323 50.164 198.323 49.922V48.47H196.794C196.479 48.47 196.251 48.4957 196.112 48.547C195.973 48.591 195.881 48.679 195.837 48.811C195.793 48.943 195.771 49.1557 195.771 49.449C195.771 49.713 195.797 49.9183 195.848 50.065C195.899 50.2043 195.991 50.307 196.123 50.373C196.255 50.4317 196.453 50.461 196.717 50.461H196.915ZM201.03 45.676H201.965V46.545C201.965 46.3763 202.038 46.2187 202.185 46.072C202.332 45.918 202.519 45.797 202.746 45.709C202.973 45.6137 203.197 45.566 203.417 45.566H203.901V46.413H203.351C202.882 46.413 202.541 46.4753 202.328 46.6C202.123 46.7173 202.02 46.9337 202.02 47.249V51H201.03V45.676ZM207.262 51.11C206.866 51.11 206.547 51.088 206.305 51.044C206.071 51.0073 205.836 50.934 205.601 50.824C205.125 50.5967 204.886 50.076 204.886 49.262V43.3H205.876V44.895V45.522C205.869 45.7127 205.865 45.9253 205.865 46.16C205.902 45.9913 206.056 45.8483 206.327 45.731C206.606 45.621 207.009 45.566 207.537 45.566C209.004 45.566 209.737 46.0683 209.737 47.073V49.262C209.737 49.5773 209.69 49.8523 209.594 50.087C209.506 50.3217 209.389 50.505 209.242 50.637C209.11 50.7617 208.927 50.8607 208.692 50.934C208.465 51.0073 208.238 51.055 208.01 51.077C207.805 51.099 207.556 51.11 207.262 51.11ZM207.284 50.461C207.666 50.461 207.955 50.4353 208.153 50.384C208.359 50.3253 208.505 50.2227 208.593 50.076C208.681 49.9293 208.725 49.7057 208.725 49.405V47.315C208.725 47.0143 208.681 46.7907 208.593 46.644C208.505 46.49 208.359 46.391 208.153 46.347C207.955 46.2957 207.662 46.27 207.273 46.27C206.914 46.27 206.635 46.2993 206.437 46.358C206.239 46.4167 206.096 46.523 206.008 46.677C205.92 46.8237 205.876 47.0363 205.876 47.315V49.405C205.876 49.7057 205.917 49.9293 205.997 50.076C206.085 50.2227 206.228 50.3253 206.426 50.384C206.624 50.4353 206.91 50.461 207.284 50.461ZM213.511 51.11C213.042 51.11 212.69 51.0917 212.455 51.055C212.221 51.0257 211.986 50.956 211.751 50.846C211.509 50.736 211.333 50.56 211.223 50.318C211.113 50.0687 211.058 49.735 211.058 49.317V47.469C211.058 47.139 211.099 46.8493 211.179 46.6C211.26 46.3507 211.366 46.1563 211.498 46.017C211.608 45.8923 211.773 45.797 211.993 45.731C212.221 45.6577 212.452 45.61 212.686 45.588C212.95 45.5733 213.225 45.566 213.511 45.566C213.893 45.566 214.179 45.577 214.369 45.599C214.567 45.6137 214.776 45.6503 214.996 45.709C215.224 45.775 215.4 45.874 215.524 46.006C215.649 46.138 215.755 46.3287 215.843 46.578C215.924 46.8347 215.964 47.1317 215.964 47.469V49.317C215.964 49.9403 215.821 50.395 215.535 50.681C215.418 50.7983 215.249 50.89 215.029 50.956C214.809 51.022 214.582 51.066 214.347 51.088C214.069 51.1027 213.79 51.11 213.511 51.11ZM213.511 50.461C213.819 50.461 214.043 50.4537 214.182 50.439C214.322 50.4243 214.457 50.384 214.589 50.318C214.721 50.2593 214.813 50.164 214.864 50.032C214.923 49.8927 214.952 49.702 214.952 49.46V47.304C214.952 46.974 214.912 46.7357 214.831 46.589C214.751 46.435 214.611 46.336 214.413 46.292C214.223 46.2407 213.922 46.215 213.511 46.215C213.101 46.215 212.796 46.2407 212.598 46.292C212.408 46.336 212.272 46.435 212.191 46.589C212.111 46.7357 212.07 46.974 212.07 47.304V49.46C212.07 49.702 212.096 49.8927 212.147 50.032C212.206 50.164 212.301 50.2593 212.433 50.318C212.565 50.384 212.701 50.4243 212.84 50.439C212.98 50.4537 213.203 50.461 213.511 50.461ZM217.508 45.676H218.498V46.325C218.601 45.819 219.184 45.566 220.247 45.566C220.929 45.566 221.406 45.6907 221.677 45.94C221.956 46.182 222.095 46.567 222.095 47.095V51H221.105V47.15C221.105 47.0107 221.094 46.897 221.072 46.809C221.05 46.721 221.006 46.633 220.94 46.545C220.794 46.3617 220.467 46.27 219.961 46.27C219.573 46.27 219.272 46.2993 219.059 46.358C218.854 46.4093 218.707 46.4973 218.619 46.622C218.539 46.7467 218.498 46.9227 218.498 47.15V51H217.508V45.676Z" fill="white"/>
<path d="M113.614 76.13C112.912 76.13 112.084 76.052 111.131 75.896V74.96C112.136 75.168 112.977 75.272 113.653 75.272C114.182 75.272 114.567 75.1983 114.81 75.051C115.061 74.895 115.187 74.6437 115.187 74.297V72.62C115.187 72.256 115.031 72.022 114.719 71.918C114.572 71.8747 114.433 71.8487 114.303 71.84C114.182 71.8227 114.021 71.814 113.822 71.814H111.326V67.563H116.188V68.447H112.496V71.008H114.446C114.793 71.008 115.1 71.0513 115.369 71.138C115.638 71.216 115.876 71.3547 116.084 71.554C116.301 71.7707 116.409 72.0523 116.409 72.399V74.323C116.409 74.6263 116.353 74.895 116.24 75.129C116.136 75.3543 115.993 75.532 115.811 75.662C115.646 75.7833 115.434 75.883 115.174 75.961C114.923 76.039 114.671 76.0867 114.42 76.104C114.108 76.1213 113.839 76.13 113.614 76.13ZM121.298 76.13C120.917 76.13 120.605 76.117 120.362 76.091C120.128 76.065 119.877 76.013 119.608 75.935C119.322 75.857 119.092 75.7443 118.919 75.597C118.754 75.441 118.616 75.2243 118.503 74.947C118.39 74.687 118.334 74.362 118.334 73.972V69.708C118.334 69.318 118.39 68.9757 118.503 68.681C118.616 68.3863 118.763 68.1523 118.945 67.979C119.11 67.8317 119.326 67.7147 119.595 67.628C119.872 67.5327 120.15 67.472 120.427 67.446C120.739 67.4287 121.029 67.42 121.298 67.42C121.679 67.42 121.987 67.433 122.221 67.459C122.464 67.485 122.719 67.537 122.988 67.615C123.274 67.7017 123.504 67.823 123.677 67.979C123.859 68.135 124.006 68.356 124.119 68.642C124.232 68.928 124.288 69.279 124.288 69.695V73.972C124.288 74.3273 124.232 74.6437 124.119 74.921C124.006 75.1983 123.859 75.415 123.677 75.571C123.504 75.7183 123.283 75.8397 123.014 75.935C122.745 76.0217 122.472 76.0737 122.195 76.091C121.952 76.117 121.653 76.13 121.298 76.13ZM121.324 75.363C121.783 75.363 122.139 75.3327 122.39 75.272C122.641 75.2027 122.823 75.0727 122.936 74.882C123.049 74.6913 123.105 74.4097 123.105 74.037V69.617C123.105 69.2097 123.044 68.9063 122.923 68.707C122.81 68.499 122.628 68.3603 122.377 68.291C122.134 68.2217 121.779 68.187 121.311 68.187C120.834 68.187 120.47 68.2217 120.219 68.291C119.976 68.3603 119.799 68.499 119.686 68.707C119.573 68.9063 119.517 69.2097 119.517 69.617V74.037C119.517 74.4097 119.573 74.6913 119.686 74.882C119.807 75.0727 119.994 75.2027 120.245 75.272C120.496 75.3327 120.856 75.363 121.324 75.363ZM132.297 67.42H133.298L129.086 76.13H128.085L132.297 67.42ZM127.734 71.931C127.413 71.931 127.149 71.918 126.941 71.892C126.742 71.866 126.538 71.814 126.33 71.736C125.897 71.58 125.68 71.216 125.68 70.644V69.019C125.68 68.473 125.849 68.096 126.187 67.888C126.534 67.6713 127.049 67.563 127.734 67.563C128.419 67.563 128.93 67.6713 129.268 67.888C129.606 68.096 129.775 68.473 129.775 69.019V70.644C129.775 71.216 129.563 71.58 129.138 71.736C128.93 71.814 128.722 71.866 128.514 71.892C128.315 71.918 128.055 71.931 127.734 71.931ZM127.734 71.255C128.115 71.255 128.38 71.2117 128.527 71.125C128.683 71.0383 128.761 70.8607 128.761 70.592V68.967C128.761 68.6723 128.687 68.4773 128.54 68.382C128.393 68.2867 128.124 68.239 127.734 68.239C127.344 68.239 127.071 68.2867 126.915 68.382C126.768 68.4773 126.694 68.6723 126.694 68.967V70.592C126.694 70.8607 126.772 71.0383 126.928 71.125C127.084 71.2117 127.353 71.255 127.734 71.255ZM133.558 76.13C133.237 76.13 132.973 76.117 132.765 76.091C132.566 76.065 132.362 76.013 132.154 75.935C131.721 75.779 131.504 75.415 131.504 74.843V73.218C131.504 72.672 131.673 72.295 132.011 72.087C132.358 71.8703 132.873 71.762 133.558 71.762C134.243 71.762 134.754 71.8703 135.092 72.087C135.43 72.295 135.599 72.672 135.599 73.218V74.843C135.599 75.415 135.387 75.779 134.962 75.935C134.754 76.013 134.546 76.065 134.338 76.091C134.139 76.117 133.879 76.13 133.558 76.13ZM133.558 75.454C133.939 75.454 134.204 75.4107 134.351 75.324C134.507 75.2373 134.585 75.0597 134.585 74.791V73.166C134.585 72.8713 134.511 72.6763 134.364 72.581C134.217 72.4857 133.948 72.438 133.558 72.438C133.168 72.438 132.895 72.4857 132.739 72.581C132.592 72.6763 132.518 72.8713 132.518 73.166V74.791C132.518 75.0597 132.596 75.2373 132.752 75.324C132.908 75.4107 133.177 75.454 133.558 75.454ZM140.291 67.563H143.307C144.027 67.563 144.599 67.6367 145.023 67.784C145.413 67.9227 145.673 68.096 145.803 68.304C145.942 68.512 146.011 68.798 146.011 69.162V70.293C146.011 70.631 145.916 70.8953 145.725 71.086C145.535 71.268 145.244 71.4023 144.854 71.489V71.541C145.314 71.619 145.682 71.7793 145.959 72.022C146.245 72.256 146.388 72.5507 146.388 72.906V74.323C146.388 74.9383 146.159 75.3717 145.699 75.623C145.24 75.8743 144.473 76 143.398 76H140.291V67.563ZM143.346 71.255C143.875 71.255 144.252 71.177 144.477 71.021C144.711 70.8563 144.828 70.6007 144.828 70.254V69.266C144.828 68.9453 144.711 68.72 144.477 68.59C144.243 68.46 143.853 68.395 143.307 68.395H141.552V71.255H143.346ZM143.398 75.129C144.031 75.129 144.477 75.064 144.737 74.934C144.997 74.804 145.127 74.583 145.127 74.271V72.997C145.127 72.7717 145.08 72.594 144.984 72.464C144.898 72.3253 144.759 72.2257 144.568 72.165C144.378 72.113 144.209 72.0827 144.061 72.074C143.914 72.0567 143.693 72.048 143.398 72.048H141.552V75.129H143.398ZM151.553 76.13C151.094 76.13 150.691 76.0997 150.344 76.039C150.006 75.9783 149.672 75.8743 149.343 75.727C148.996 75.571 148.728 75.3327 148.537 75.012C148.355 74.6913 148.264 74.3013 148.264 73.842V67.563H149.473V73.829C149.473 74.3577 149.651 74.7347 150.006 74.96C150.361 75.1767 150.886 75.285 151.579 75.285C152.272 75.285 152.788 75.1767 153.126 74.96C153.473 74.7347 153.646 74.3577 153.646 73.829V67.563H154.855V73.842C154.855 75.3673 153.754 76.13 151.553 76.13ZM159.48 76.13C158.761 76.13 157.903 76.0607 156.906 75.922V74.869C157.911 75.0857 158.795 75.194 159.558 75.194C160.199 75.194 160.667 75.1247 160.962 74.986C161.257 74.8387 161.404 74.57 161.404 74.18V73.088C161.404 72.724 161.3 72.4683 161.092 72.321C160.884 72.1737 160.52 72.1 160 72.1H159.012C158.189 72.1 157.604 71.9353 157.257 71.606C156.91 71.2767 156.737 70.7653 156.737 70.072V69.396C156.737 68.9367 156.837 68.564 157.036 68.278C157.244 67.992 157.586 67.7797 158.063 67.641C158.548 67.5023 159.211 67.433 160.052 67.433C160.615 67.433 161.339 67.4807 162.223 67.576V68.525C161.235 68.3777 160.481 68.304 159.961 68.304C159.155 68.304 158.622 68.382 158.362 68.538C158.093 68.7027 157.959 68.9757 157.959 69.357V70.319C157.959 70.6137 158.063 70.8303 158.271 70.969C158.488 71.099 158.856 71.164 159.376 71.164H160.39C160.971 71.164 161.421 71.2333 161.742 71.372C162.071 71.5107 162.301 71.723 162.431 72.009C162.57 72.2863 162.639 72.6633 162.639 73.14V73.751C162.639 74.349 162.526 74.8213 162.301 75.168C162.084 75.5147 161.746 75.7617 161.287 75.909C160.828 76.0563 160.225 76.13 159.48 76.13ZM164.45 67.563H167.804C170.17 67.563 171.353 68.369 171.353 69.981V73.712C171.353 75.2373 170.175 76 167.817 76H164.45V67.563ZM167.726 75.142C169.338 75.142 170.144 74.6567 170.144 73.686V69.968C170.144 69.656 170.079 69.3917 169.949 69.175C169.819 68.9583 169.637 68.798 169.403 68.694C169.169 68.5987 168.927 68.5337 168.675 68.499C168.424 68.4557 168.129 68.434 167.791 68.434H165.711V75.142H167.726Z" fill="#F5F5F7"/>
<rect x="181" y="65" width="28" height="14" rx="4" fill="#FFB900"/>
<path d="M186.315 67.861H188.867C189.476 67.861 189.96 67.9233 190.319 68.048C190.649 68.1653 190.869 68.312 190.979 68.488C191.096 68.664 191.155 68.906 191.155 69.214V70.171C191.155 70.457 191.074 70.6807 190.913 70.842C190.752 70.996 190.506 71.1097 190.176 71.183V71.227C190.565 71.293 190.876 71.4287 191.111 71.634C191.353 71.832 191.474 72.0813 191.474 72.382V73.581C191.474 74.1017 191.28 74.4683 190.891 74.681C190.502 74.8937 189.853 75 188.944 75H186.315V67.861ZM188.9 70.985C189.347 70.985 189.666 70.919 189.857 70.787C190.055 70.6477 190.154 70.4313 190.154 70.138V69.302C190.154 69.0307 190.055 68.84 189.857 68.73C189.659 68.62 189.329 68.565 188.867 68.565H187.382V70.985H188.9ZM188.944 74.263C189.479 74.263 189.857 74.208 190.077 74.098C190.297 73.988 190.407 73.801 190.407 73.537V72.459C190.407 72.2683 190.367 72.118 190.286 72.008C190.213 71.8907 190.095 71.8063 189.934 71.755C189.773 71.711 189.63 71.6853 189.505 71.678C189.38 71.6633 189.193 71.656 188.944 71.656H187.382V74.263H188.944ZM195.118 75.11C194.51 75.11 193.784 75.0513 192.94 74.934V74.043C193.791 74.2263 194.539 74.318 195.184 74.318C195.727 74.318 196.123 74.2593 196.372 74.142C196.622 74.0173 196.746 73.79 196.746 73.46V72.536C196.746 72.228 196.658 72.0117 196.482 71.887C196.306 71.7623 195.998 71.7 195.558 71.7H194.722C194.026 71.7 193.531 71.5607 193.237 71.282C192.944 71.0033 192.797 70.5707 192.797 69.984V69.412C192.797 69.0233 192.882 68.708 193.05 68.466C193.226 68.224 193.516 68.0443 193.919 67.927C194.33 67.8097 194.891 67.751 195.602 67.751C196.079 67.751 196.691 67.7913 197.439 67.872V68.675C196.603 68.5503 195.965 68.488 195.525 68.488C194.843 68.488 194.392 68.554 194.172 68.686C193.945 68.8253 193.831 69.0563 193.831 69.379V70.193C193.831 70.4423 193.919 70.6257 194.095 70.743C194.279 70.853 194.59 70.908 195.03 70.908H195.888C196.38 70.908 196.761 70.9667 197.032 71.084C197.311 71.2013 197.505 71.381 197.615 71.623C197.733 71.8577 197.791 72.1767 197.791 72.58V73.097C197.791 73.603 197.696 74.0027 197.505 74.296C197.322 74.5893 197.036 74.7983 196.647 74.923C196.259 75.0477 195.749 75.11 195.118 75.11ZM202.107 75.11C200.105 75.11 199.104 74.4647 199.104 73.174V69.786C199.104 68.422 200.105 67.74 202.107 67.74C202.789 67.74 203.442 67.8097 204.065 67.949V68.741C203.361 68.565 202.716 68.477 202.129 68.477C201.843 68.477 201.594 68.4953 201.381 68.532C201.168 68.5613 200.963 68.6163 200.765 68.697C200.34 68.8803 200.127 69.2397 200.127 69.775V73.119C200.127 73.9403 200.809 74.351 202.173 74.351C202.76 74.351 203.405 74.263 204.109 74.087V74.901C203.486 75.0403 202.818 75.11 202.107 75.11Z" fill="white"/>
<g filter="url(#filter1_d_1_116)">
<circle cx="66" cy="65" r="20" fill="#FFB900"/>
<path d="M69.6607 53.7946L65.9553 50L56.625 59.4196L60.3304 63.125L69.6607 53.7946Z" fill="white"/>
<path d="M75.2857 59.4196L71.5804 55.625L56.625 70.6696L60.3304 74.375L75.2857 59.4196Z" fill="white"/>
<path d="M54.7054 61.25L58.4107 65.0446L54.7054 68.75L51 65.0446L54.7054 61.25Z" fill="white"/>
<path d="M80.9107 65.0446L77.2053 61.25L62.25 76.2946L65.9554 80L80.9107 65.0446Z" fill="white"/>
</g>
<g filter="url(#filter2_d_1_116)">
<path d="M297 8C297 5.79086 298.791 4 301 4H409C411.209 4 413 5.79086 413 8V109.96C413 112.169 411.209 113.96 409 113.96H301C298.791 113.96 297 112.169 297 109.96V71.4327C297 70.8415 296.738 70.2805 296.285 69.9005L284.826 60.2872C283.874 59.4879 283.874 58.0221 284.826 57.2228L296.285 47.6095C296.738 47.2295 297 46.6685 297 46.0772V8Z" fill="#272A2E"/>
<path d="M297 8C297 5.79086 298.791 4 301 4H409C411.209 4 413 5.79086 413 8V109.96C413 112.169 411.209 113.96 409 113.96H301C298.791 113.96 297 112.169 297 109.96V71.4327C297 70.8415 296.738 70.2805 296.285 69.9005L284.826 60.2872C283.874 59.4879 283.874 58.0221 284.826 57.2228L296.285 47.6095C296.738 47.2295 297 46.6685 297 46.0772V8Z" stroke="white" stroke-opacity="0.08"/>
</g>
<path d="M312.856 33L317.848 21.8H320.408L325.416 33H322.696L318.6 23.112H319.624L315.512 33H312.856ZM315.352 30.6L316.04 28.632H321.8L322.504 30.6H315.352ZM326.578 33V21.8H331.426C332.429 21.8 333.293 21.9653 334.018 22.296C334.743 22.616 335.303 23.08 335.698 23.688C336.093 24.296 336.29 25.0213 336.29 25.864C336.29 26.696 336.093 27.416 335.698 28.024C335.303 28.632 334.743 29.1013 334.018 29.432C333.293 29.752 332.429 29.912 331.426 29.912H328.018L329.17 28.744V33H326.578ZM329.17 29.032L328.018 27.8H331.282C332.082 27.8 332.679 27.6293 333.074 27.288C333.469 26.9467 333.666 26.472 333.666 25.864C333.666 25.2453 333.469 24.7653 333.074 24.424C332.679 24.0827 332.082 23.912 331.282 23.912H328.018L329.17 22.68V29.032ZM338.141 33V21.8H342.989C343.991 21.8 344.855 21.9653 345.581 22.296C346.306 22.616 346.866 23.08 347.261 23.688C347.655 24.296 347.853 25.0213 347.853 25.864C347.853 26.696 347.655 27.416 347.261 28.024C346.866 28.6213 346.306 29.08 345.581 29.4C344.855 29.72 343.991 29.88 342.989 29.88H339.581L340.733 28.744V33H338.141ZM345.26 33L342.461 28.936H345.229L348.061 33H345.26ZM340.733 29.032L339.581 27.816H342.845C343.645 27.816 344.242 27.6453 344.637 27.304C345.031 26.952 345.229 26.472 345.229 25.864C345.229 25.2453 345.031 24.7653 344.637 24.424C344.242 24.0827 343.645 23.912 342.845 23.912H339.581L340.733 22.68V29.032Z" fill="#F5F5F7"/>
<path d="M314.5 95.5L314.5 52.5M334.5 95.5L334.5 52.5M354.5 95.5V52.5M374.5 95.5V52.5M394.5 95.5V52.5" stroke="white" stroke-opacity="0.08" stroke-linecap="round"/>
<path d="M395 52C395 75.196 359.183 94 315 94" stroke="url(#paint0_linear_1_116)" stroke-width="2" stroke-linecap="round"/>
<rect x="386" y="44" width="18" height="18" rx="9" fill="url(#paint1_linear_1_116)"/>
<path d="M430.23 26.2992C426.341 28.769 416.693 35.1498 414.196 39.1714C413.844 39.7382 413.993 40.4408 414.433 40.9454L419.126 46.3269C419.685 46.9688 420.605 47.1762 421.398 46.8421C424.548 45.5136 432.631 42.2156 438.239 40.9007C439.657 40.5681 440.472 38.9186 439.706 37.7043L432.891 26.899C432.326 26.0034 431.132 25.7261 430.23 26.2992Z" fill="url(#paint2_linear_1_116)"/>
<path d="M421.496 75.3629C418.925 72.573 413.488 66.4281 412.099 62.9053C411.815 62.186 412.171 61.4294 412.801 61.0023L416.706 58.3505C417.437 57.8545 418.388 57.8884 419.087 58.4304C421.24 60.0997 425.981 63.6815 429.752 65.8644C431.102 66.646 431.458 68.6931 430.316 69.7715L424.305 75.4485C423.497 76.2119 422.252 76.1822 421.496 75.3629Z" fill="url(#paint3_linear_1_116)"/>
<path d="M399.891 15.5565C399.083 18.6131 397.75 24.2501 398.041 27.1677C398.115 27.9088 398.765 28.3919 399.514 28.4969L402.949 28.9783C403.916 29.1138 404.856 28.6053 405.272 27.7359C406.2 25.7986 407.926 22.3264 409.606 19.664C410.472 18.2933 409.857 16.2597 408.287 15.7922L402.585 14.0932C401.421 13.7462 400.197 14.3976 399.891 15.5565Z" fill="url(#paint4_linear_1_116)"/>
<path d="M376.6 21.4256C379.299 23.5388 384.386 27.7442 385.857 30.4976C386.151 31.0465 385.966 31.6803 385.538 32.1422L382.583 35.3373C381.95 36.022 380.906 36.1957 380.061 35.7666C377.96 34.6997 373.947 32.7402 370.692 31.617C369.277 31.1287 368.516 29.4022 369.34 28.2012L373.685 21.8703C374.334 20.9247 375.684 20.7085 376.6 21.4256Z" fill="url(#paint5_linear_1_116)"/>
<g filter="url(#filter3_d_1_116)">
<circle cx="38" cy="53" r="20" fill="#4FC1C0"/>
<circle cx="38" cy="53" r="20" fill="url(#paint6_linear_1_116)"/>
<path d="M23.0564 56.0938C23.2038 56.098 23.3516 56.1 23.5 56.1C26.551 56.1 29.3975 55.2242 31.8016 53.7101C32.7858 58.7758 37.246 62.6 42.5994 62.6C46.9808 62.6 50.7639 60.0385 52.5328 56.3313C52.6699 56.2588 52.8053 56.1835 52.939 56.1054C51.0058 62.5245 45.0486 67.2 37.9994 67.2C30.946 67.2 24.9859 62.5189 23.0564 56.0938Z" fill="url(#paint7_radial_1_116)"/>
<path d="M23.0564 56.0938C23.2038 56.098 23.3516 56.1 23.5 56.1C26.551 56.1 29.3975 55.2242 31.8016 53.7101C32.7858 58.7758 37.246 62.6 42.5994 62.6C46.9808 62.6 50.7639 60.0385 52.5328 56.3313C52.6699 56.2588 52.8053 56.1835 52.939 56.1054C51.0058 62.5245 45.0486 67.2 37.9994 67.2C30.946 67.2 24.9859 62.5189 23.0564 56.0938Z" fill="#04171E" fill-opacity="0.88"/>
<path d="M23.1312 56.3358C23.2538 56.3386 23.3767 56.34 23.5 56.34C26.5694 56.34 29.4318 55.4536 31.8451 53.9227C32.9111 58.8823 37.3211 62.6 42.5994 62.6C46.9808 62.6 50.7638 60.0384 52.5327 56.3312C52.6699 56.2588 52.8053 56.1834 52.9389 56.1054C51.0057 62.5245 45.0486 67.2 37.9994 67.2C31.0348 67.2 25.1362 62.636 23.1312 56.3358Z" fill="url(#paint8_radial_1_116)"/>
<path d="M23.1312 56.3358C23.2538 56.3386 23.3767 56.34 23.5 56.34C26.5694 56.34 29.4318 55.4536 31.8451 53.9227C32.9111 58.8823 37.3211 62.6 42.5994 62.6C46.9808 62.6 50.7638 60.0384 52.5327 56.3312C52.6699 56.2588 52.8053 56.1834 52.9389 56.1054C51.0057 62.5245 45.0486 67.2 37.9994 67.2C31.0348 67.2 25.1362 62.636 23.1312 56.3358Z" fill="#04171E" fill-opacity="0.4"/>
<path d="M45.3798 62.2456C43.1618 64.0904 40.3105 65.1998 37.2 65.1998C31.3939 65.1998 26.4907 61.334 24.9238 56.0359C27.4356 55.8086 29.7756 54.986 31.8016 53.7101C32.7857 58.7758 37.246 62.6 42.5994 62.6C43.5599 62.6 44.4917 62.4769 45.3798 62.2456Z" fill="url(#paint9_linear_1_116)" fill-opacity="0.64"/>
<path d="M50.8 51.6C50.8 58.6692 45.0693 64.4 38 64.4C30.9308 64.4 25.2 58.6692 25.2 51.6C25.2 44.5307 30.9308 38.8 38 38.8C45.0693 38.8 50.8 44.5307 50.8 51.6Z" fill="url(#paint10_radial_1_116)"/>
<path d="M49.9491 49.1965C49.9491 54.167 45.9197 58.1965 40.9491 58.1965C35.9785 58.1965 31.9491 54.167 31.9491 49.1965C31.9491 44.2259 35.9785 40.1965 40.9491 40.1965C45.9197 40.1965 49.9491 44.2259 49.9491 49.1965Z" fill="url(#paint11_radial_1_116)" fill-opacity="0.6"/>
<path d="M38.8392 40.2126C38.6385 40.2019 38.4363 40.1965 38.2329 40.1965C36.318 40.1965 34.5157 40.6783 32.9405 41.5272C33.7829 41.3416 34.6583 41.2437 35.5565 41.2437C36.472 41.2437 37.3638 41.3454 38.2212 41.5381L38.8392 40.2126Z" fill="url(#paint12_linear_1_116)" fill-opacity="0.64"/>
<path d="M39.5798 41.9286C44.2856 43.5869 47.6583 48.0724 47.6583 53.3456C47.6583 55.5135 47.0883 57.5483 46.0899 59.3082C48.1361 57.2834 49.4038 54.4735 49.4038 51.3674C49.4038 45.9036 45.4812 41.3561 40.2986 40.3871L39.5798 41.9286Z" fill="url(#paint13_linear_1_116)" fill-opacity="0.64"/>
<path d="M44.8404 62.4211C42.8617 63.6745 40.5156 64.4002 38 64.4002C34.0132 64.4002 30.4522 62.5776 28.1046 59.7201C28.7518 59.8387 29.4187 59.9006 30.1001 59.9006C35.048 59.9006 39.2328 56.6339 40.6155 52.1396C41.0717 52.1797 41.5336 52.2002 42.0002 52.2002C45.1968 52.2002 48.1688 51.2388 50.6429 49.5893C50.7463 50.2444 50.8 50.916 50.8 51.6002C50.8 52.0249 50.7793 52.4448 50.7389 52.8588C50.0199 56.742 47.8626 60.1205 44.8404 62.4211Z" fill="url(#paint14_linear_1_116)" fill-opacity="0.64"/>
<path d="M23.0605 56.1053C24.9935 62.5246 30.9508 67.2004 38.0002 67.2004C46.5826 67.2004 53.5463 60.2697 53.5999 51.6999C52.7437 51.6945 51.9038 51.6201 51.0856 51.482C49.1628 52.3295 47.0365 52.8 44.8003 52.8C44.0248 52.8 43.2626 52.7434 42.5175 52.6342C41.1363 57.131 36.9502 60.4002 32.0006 60.4002C28.549 60.4002 25.4688 58.8105 23.452 56.3234C23.3199 56.2533 23.1894 56.1805 23.0605 56.1053Z" fill="url(#paint15_linear_1_116)"/>
<path d="M53.5998 51.7135C51.3053 53.0407 48.6415 53.8002 45.8002 53.8002C45.2587 53.8002 44.7236 53.7727 44.1964 53.7188C43.2089 58.7803 38.7506 62.6002 33.4002 62.6002C29.0188 62.6002 25.2357 60.0387 23.4668 56.3315C23.3297 56.259 23.1943 56.1837 23.0607 56.1057C24.9939 62.5247 30.951 67.2002 38.0002 67.2002C46.5781 67.2002 53.5389 60.277 53.5998 51.7135Z" fill="url(#paint16_radial_1_116)"/>
<path d="M52.4624 52.3102C51.5227 52.7546 50.5315 53.108 49.5003 53.3588C49.3666 54.498 49.1094 55.6403 48.7207 56.7692C47.7733 59.5209 46.1605 61.8544 44.1241 63.6518C47.6061 61.9762 50.4432 58.9636 51.8007 55.0213C52.1098 54.1235 52.3288 53.2165 52.4624 52.3102Z" fill="url(#paint17_linear_1_116)" fill-opacity="0.64"/>
<path opacity="0.2" fill-rule="evenodd" clip-rule="evenodd" d="M42.5109 52.6611C42.5285 52.6375 42.5613 52.6331 42.5842 52.6512C43.105 53.0643 43.6677 53.4287 44.271 53.7378C44.2968 53.7511 44.3074 53.7835 44.2945 53.8101C44.2816 53.8368 44.2502 53.8477 44.2244 53.8344C43.615 53.5221 43.0465 53.154 42.5204 52.7367C42.4975 52.7185 42.4932 52.6847 42.5109 52.6611Z" fill="url(#paint18_linear_1_116)"/>
</g>
</g>
<defs>
<filter id="filter0_d_1_116" x="-48" y="-33" width="410.5" height="184" filterUnits="userSpaceOnUse" color-interpolation-filters="sRGB">
<feFlood flood-opacity="0" result="BackgroundImageFix"/>
<feColorMatrix in="SourceAlpha" type="matrix" values="0 0 0 0 0 0 0 0 0 0 0 0 0 0 0 0 0 0 127 0" result="hardAlpha"/>
<feOffset/>
<feGaussianBlur stdDeviation="24"/>
<feColorMatrix type="matrix" values="0 0 0 0 0 0 0 0 0 0 0 0 0 0 0 0 0 0 0.64 0"/>
<feBlend mode="normal" in2="BackgroundImageFix" result="effect1_dropShadow_1_116"/>
<feBlend mode="normal" in="SourceGraphic" in2="effect1_dropShadow_1_116" result="shape"/>
</filter>
<filter id="filter1_d_1_116" x="30" y="29" width="72" height="72" filterUnits="userSpaceOnUse" color-interpolation-filters="sRGB">
<feFlood flood-opacity="0" result="BackgroundImageFix"/>
<feColorMatrix in="SourceAlpha" type="matrix" values="0 0 0 0 0 0 0 0 0 0 0 0 0 0 0 0 0 0 127 0" result="hardAlpha"/>
<feOffset/>
<feGaussianBlur stdDeviation="8"/>
<feComposite in2="hardAlpha" operator="out"/>
<feColorMatrix type="matrix" values="0 0 0 0 0 0 0 0 0 0 0 0 0 0 0 0 0 0 0.64 0"/>
<feBlend mode="normal" in2="BackgroundImageFix" result="effect1_dropShadow_1_116"/>
<feBlend mode="normal" in="SourceGraphic" in2="effect1_dropShadow_1_116" result="shape"/>
</filter>
<filter id="filter2_d_1_116" x="235.612" y="-44.5" width="225.888" height="206.96" filterUnits="userSpaceOnUse" color-interpolation-filters="sRGB">
<feFlood flood-opacity="0" result="BackgroundImageFix"/>
<feColorMatrix in="SourceAlpha" type="matrix" values="0 0 0 0 0 0 0 0 0 0 0 0 0 0 0 0 0 0 127 0" result="hardAlpha"/>
<feOffset/>
<feGaussianBlur stdDeviation="24"/>
<feColorMatrix type="matrix" values="0 0 0 0 0 0 0 0 0 0 0 0 0 0 0 0 0 0 0.64 0"/>
<feBlend mode="normal" in2="BackgroundImageFix" result="effect1_dropShadow_1_116"/>
<feBlend mode="normal" in="SourceGraphic" in2="effect1_dropShadow_1_116" result="shape"/>
</filter>
<filter id="filter3_d_1_116" x="2" y="17" width="72" height="72" filterUnits="userSpaceOnUse" color-interpolation-filters="sRGB">
<feFlood flood-opacity="0" result="BackgroundImageFix"/>
<feColorMatrix in="SourceAlpha" type="matrix" values="0 0 0 0 0 0 0 0 0 0 0 0 0 0 0 0 0 0 127 0" result="hardAlpha"/>
<feOffset/>
<feGaussianBlur stdDeviation="8"/>
<feComposite in2="hardAlpha" operator="out"/>
<feColorMatrix type="matrix" values="0 0 0 0 0 0 0 0 0 0 0 0 0 0 0 0 0 0 0.64 0"/>
<feBlend mode="normal" in2="BackgroundImageFix" result="effect1_dropShadow_1_116"/>
<feBlend mode="normal" in="SourceGraphic" in2="effect1_dropShadow_1_116" result="shape"/>
</filter>
<linearGradient id="paint0_linear_1_116" x1="395" y1="73" x2="315" y2="73" gradientUnits="userSpaceOnUse">
<stop stop-color="#482BFF"/>
<stop offset="1" stop-color="#007AFF"/>
</linearGradient>
<linearGradient id="paint1_linear_1_116" x1="404" y1="53" x2="386" y2="53" gradientUnits="userSpaceOnUse">
<stop stop-color="#482BFF"/>
<stop offset="1" stop-color="#007AFF"/>
</linearGradient>
<linearGradient id="paint2_linear_1_116" x1="414" y1="36.5" x2="440" y2="36.5" gradientUnits="userSpaceOnUse">
<stop stop-color="#FFA800"/>
<stop offset="1" stop-color="#FF5107"/>
</linearGradient>
<linearGradient id="paint3_linear_1_116" x1="431" y1="67.2432" x2="412" y2="67.2432" gradientUnits="userSpaceOnUse">
<stop stop-color="#00A862"/>
<stop offset="1" stop-color="#00AF92"/>
</linearGradient>
<linearGradient id="paint4_linear_1_116" x1="410" y1="21.7027" x2="398" y2="21.7027" gradientUnits="userSpaceOnUse">
<stop stop-color="#E84747"/>
<stop offset="1" stop-color="#FF5107"/>
</linearGradient>
<linearGradient id="paint5_linear_1_116" x1="386" y1="28.5" x2="369" y2="28.5" gradientUnits="userSpaceOnUse">
<stop stop-color="#007AFF"/>
<stop offset="1" stop-color="#00B1F0"/>
</linearGradient>
<linearGradient id="paint6_linear_1_116" x1="18" y1="53" x2="53.4167" y2="33" gradientUnits="userSpaceOnUse">
<stop stop-color="#063C4F"/>
<stop offset="1" stop-color="#00F0FF"/>
</linearGradient>
<radialGradient id="paint7_radial_1_116" cx="0" cy="0" r="1" gradientUnits="userSpaceOnUse" gradientTransform="translate(52.9389 63.9049) rotate(179.948) scale(113.269 329.117)">
<stop offset="0.104167" stop-color="#24537E"/>
<stop offset="0.520341" stop-color="#4FC1C0"/>
<stop offset="1" stop-color="#DAFFF4"/>
</radialGradient>
<radialGradient id="paint8_radial_1_116" cx="0" cy="0" r="1" gradientUnits="userSpaceOnUse" gradientTransform="translate(52.9389 63.905) rotate(179.948) scale(113.269 329.117)">
<stop offset="0.104167" stop-color="#24537E"/>
<stop offset="0.520341" stop-color="#4FC1C0"/>
<stop offset="1" stop-color="#DAFFF4"/>
</radialGradient>
<linearGradient id="paint9_linear_1_116" x1="44.9973" y1="67.3563" x2="39.8509" y2="40.5875" gradientUnits="userSpaceOnUse">
<stop stop-color="#04171E"/>
<stop offset="1" stop-color="#04171E" stop-opacity="0"/>
</linearGradient>
<radialGradient id="paint10_radial_1_116" cx="0" cy="0" r="1" gradientUnits="userSpaceOnUse" gradientTransform="translate(28.6327 61.6073) rotate(-57.5402) scale(22.5482 326.736)">
<stop offset="0.104167" stop-color="#3A78B1"/>
<stop offset="0.520341" stop-color="#4FC1C0"/>
<stop offset="1" stop-color="#8CF2FD"/>
</radialGradient>
<radialGradient id="paint11_radial_1_116" cx="0" cy="0" r="1" gradientUnits="userSpaceOnUse" gradientTransform="translate(49.9 40.2) rotate(144.267) scale(22.1744 22.017)">
<stop offset="0.216485" stop-color="white"/>
<stop offset="0.906332" stop-color="white" stop-opacity="0"/>
</radialGradient>
<linearGradient id="paint12_linear_1_116" x1="46.1" y1="45.2" x2="32.9" y2="50.95" gradientUnits="userSpaceOnUse">
<stop stop-color="white"/>
<stop offset="0.732381" stop-color="white" stop-opacity="0"/>
</linearGradient>
<linearGradient id="paint13_linear_1_116" x1="46.1" y1="45.2" x2="32.9" y2="50.95" gradientUnits="userSpaceOnUse">
<stop stop-color="white"/>
<stop offset="0.732381" stop-color="white" stop-opacity="0"/>
</linearGradient>
<linearGradient id="paint14_linear_1_116" x1="70.6015" y1="17.8491" x2="16.6144" y2="62.8277" gradientUnits="userSpaceOnUse">
<stop stop-color="#04171E"/>
<stop offset="1" stop-color="#04171E" stop-opacity="0"/>
</linearGradient>
<linearGradient id="paint15_linear_1_116" x1="47.9" y1="53.65" x2="27.6499" y2="60.8" gradientUnits="userSpaceOnUse">
<stop stop-color="#0E6585"/>
<stop offset="1" stop-color="#04171E"/>
</linearGradient>
<radialGradient id="paint16_radial_1_116" cx="0" cy="0" r="1" gradientUnits="userSpaceOnUse" gradientTransform="translate(27.1557 65.5108) rotate(-38.5632) scale(18.4631 287.966)">
<stop offset="0.104167" stop-color="#3A78B1"/>
<stop offset="0.520341" stop-color="#4FC1C0"/>
<stop offset="1" stop-color="#8CF2FD"/>
</radialGradient>
<linearGradient id="paint17_linear_1_116" x1="52.5" y1="52.3" x2="44.7124" y2="64.1041" gradientUnits="userSpaceOnUse">
<stop stop-color="white" stop-opacity="0.64"/>
<stop offset="1" stop-color="white" stop-opacity="0"/>
</linearGradient>
<linearGradient id="paint18_linear_1_116" x1="44.2895" y1="53.7832" x2="41.7578" y2="52.2182" gradientUnits="userSpaceOnUse">
<stop stop-color="#8CF2FD"/>
<stop offset="1" stop-color="#8CF2FD" stop-opacity="0"/>
</linearGradient>
<clipPath id="clip0_1_116">
<rect width="440" height="128" fill="white"/>
</clipPath>
</defs>
</svg>
