<svg width="638" height="208" viewBox="0 0 638 208" fill="none" xmlns="http://www.w3.org/2000/svg">
<g filter="url(#filter0_d_1_74)">
<rect x="48" y="60" width="438" height="88" rx="4" fill="#1A1D1F"/>
</g>
<path d="M161.614 97.13C160.912 97.13 160.084 97.052 159.131 96.896V95.96C160.136 96.168 160.977 96.272 161.653 96.272C162.182 96.272 162.567 96.1983 162.81 96.051C163.061 95.895 163.187 95.6437 163.187 95.297V93.62C163.187 93.256 163.031 93.022 162.719 92.918C162.572 92.8747 162.433 92.8487 162.303 92.84C162.182 92.8227 162.021 92.814 161.822 92.814H159.326V88.563H164.188V89.447H160.496V92.008H162.446C162.793 92.008 163.1 92.0513 163.369 92.138C163.638 92.216 163.876 92.3547 164.084 92.554C164.301 92.7707 164.409 93.0523 164.409 93.399V95.323C164.409 95.6263 164.353 95.895 164.24 96.129C164.136 96.3543 163.993 96.532 163.811 96.662C163.646 96.7833 163.434 96.883 163.174 96.961C162.923 97.039 162.671 97.0867 162.42 97.104C162.108 97.1213 161.839 97.13 161.614 97.13ZM169.298 97.13C168.917 97.13 168.605 97.117 168.362 97.091C168.128 97.065 167.877 97.013 167.608 96.935C167.322 96.857 167.092 96.7443 166.919 96.597C166.754 96.441 166.616 96.2243 166.503 95.947C166.39 95.687 166.334 95.362 166.334 94.972V90.708C166.334 90.318 166.39 89.9757 166.503 89.681C166.616 89.3863 166.763 89.1523 166.945 88.979C167.11 88.8317 167.326 88.7147 167.595 88.628C167.872 88.5327 168.15 88.472 168.427 88.446C168.739 88.4287 169.029 88.42 169.298 88.42C169.679 88.42 169.987 88.433 170.221 88.459C170.464 88.485 170.719 88.537 170.988 88.615C171.274 88.7017 171.504 88.823 171.677 88.979C171.859 89.135 172.006 89.356 172.119 89.642C172.232 89.928 172.288 90.279 172.288 90.695V94.972C172.288 95.3273 172.232 95.6437 172.119 95.921C172.006 96.1983 171.859 96.415 171.677 96.571C171.504 96.7183 171.283 96.8397 171.014 96.935C170.745 97.0217 170.472 97.0737 170.195 97.091C169.952 97.117 169.653 97.13 169.298 97.13ZM169.324 96.363C169.783 96.363 170.139 96.3327 170.39 96.272C170.641 96.2027 170.823 96.0727 170.936 95.882C171.049 95.6913 171.105 95.4097 171.105 95.037V90.617C171.105 90.2097 171.044 89.9063 170.923 89.707C170.81 89.499 170.628 89.3603 170.377 89.291C170.134 89.2217 169.779 89.187 169.311 89.187C168.834 89.187 168.47 89.2217 168.219 89.291C167.976 89.3603 167.799 89.499 167.686 89.707C167.573 89.9063 167.517 90.2097 167.517 90.617V95.037C167.517 95.4097 167.573 95.6913 167.686 95.882C167.807 96.0727 167.994 96.2027 168.245 96.272C168.496 96.3327 168.856 96.363 169.324 96.363ZM180.297 88.42H181.298L177.086 97.13H176.085L180.297 88.42ZM175.734 92.931C175.413 92.931 175.149 92.918 174.941 92.892C174.742 92.866 174.538 92.814 174.33 92.736C173.897 92.58 173.68 92.216 173.68 91.644V90.019C173.68 89.473 173.849 89.096 174.187 88.888C174.534 88.6713 175.049 88.563 175.734 88.563C176.419 88.563 176.93 88.6713 177.268 88.888C177.606 89.096 177.775 89.473 177.775 90.019V91.644C177.775 92.216 177.563 92.58 177.138 92.736C176.93 92.814 176.722 92.866 176.514 92.892C176.315 92.918 176.055 92.931 175.734 92.931ZM175.734 92.255C176.115 92.255 176.38 92.2117 176.527 92.125C176.683 92.0383 176.761 91.8607 176.761 91.592V89.967C176.761 89.6723 176.687 89.4773 176.54 89.382C176.393 89.2867 176.124 89.239 175.734 89.239C175.344 89.239 175.071 89.2867 174.915 89.382C174.768 89.4773 174.694 89.6723 174.694 89.967V91.592C174.694 91.8607 174.772 92.0383 174.928 92.125C175.084 92.2117 175.353 92.255 175.734 92.255ZM181.558 97.13C181.237 97.13 180.973 97.117 180.765 97.091C180.566 97.065 180.362 97.013 180.154 96.935C179.721 96.779 179.504 96.415 179.504 95.843V94.218C179.504 93.672 179.673 93.295 180.011 93.087C180.358 92.8703 180.873 92.762 181.558 92.762C182.243 92.762 182.754 92.8703 183.092 93.087C183.43 93.295 183.599 93.672 183.599 94.218V95.843C183.599 96.415 183.387 96.779 182.962 96.935C182.754 97.013 182.546 97.065 182.338 97.091C182.139 97.117 181.879 97.13 181.558 97.13ZM181.558 96.454C181.939 96.454 182.204 96.4107 182.351 96.324C182.507 96.2373 182.585 96.0597 182.585 95.791V94.166C182.585 93.8713 182.511 93.6763 182.364 93.581C182.217 93.4857 181.948 93.438 181.558 93.438C181.168 93.438 180.895 93.4857 180.739 93.581C180.592 93.6763 180.518 93.8713 180.518 94.166V95.791C180.518 96.0597 180.596 96.2373 180.752 96.324C180.908 96.4107 181.177 96.454 181.558 96.454ZM190.722 97.13C190.003 97.13 189.145 97.0607 188.148 96.922V95.869C189.154 96.0857 190.038 96.194 190.8 96.194C191.442 96.194 191.91 96.1247 192.204 95.986C192.499 95.8387 192.646 95.57 192.646 95.18V94.088C192.646 93.724 192.542 93.4683 192.334 93.321C192.126 93.1737 191.762 93.1 191.242 93.1H190.254C189.431 93.1 188.846 92.9353 188.499 92.606C188.153 92.2767 187.979 91.7653 187.979 91.072V90.396C187.979 89.9367 188.079 89.564 188.278 89.278C188.486 88.992 188.829 88.7797 189.305 88.641C189.791 88.5023 190.454 88.433 191.294 88.433C191.858 88.433 192.581 88.4807 193.465 88.576V89.525C192.477 89.3777 191.723 89.304 191.203 89.304C190.397 89.304 189.864 89.382 189.604 89.538C189.336 89.7027 189.201 89.9757 189.201 90.357V91.319C189.201 91.6137 189.305 91.8303 189.513 91.969C189.73 92.099 190.098 92.164 190.618 92.164H191.632C192.213 92.164 192.664 92.2333 192.984 92.372C193.314 92.5107 193.543 92.723 193.673 93.009C193.812 93.2863 193.881 93.6633 193.881 94.14V94.751C193.881 95.349 193.769 95.8213 193.543 96.168C193.327 96.5147 192.989 96.7617 192.529 96.909C192.07 97.0563 191.468 97.13 190.722 97.13ZM194.705 88.563H196.044L198.137 95.804H198.163L200.256 88.563H201.595L203.688 95.804H203.714L205.807 88.563H207.081L204.364 97H202.895L200.88 89.98L198.813 97H197.344L194.705 88.563ZM210.354 89.447H207.494V88.563H214.475V89.447H211.628V97H210.354V89.447ZM215.878 88.563H217.139V92.203H221.624V88.563H222.885V97H221.624V93.087H217.139V97H215.878V88.563Z" fill="#F5F5F7"/>
<rect x="232" y="86" width="43" height="14" rx="4" fill="#53C2C1"/>
<path d="M239.751 96.11C237.749 96.11 236.748 95.4647 236.748 94.174V90.786C236.748 89.422 237.749 88.74 239.751 88.74C240.433 88.74 241.086 88.8097 241.709 88.949V89.741C241.005 89.565 240.36 89.477 239.773 89.477C239.487 89.477 239.238 89.4953 239.025 89.532C238.812 89.5613 238.607 89.6163 238.409 89.697C237.984 89.8803 237.771 90.2397 237.771 90.775V94.119C237.771 94.9403 238.453 95.351 239.817 95.351C240.404 95.351 241.049 95.263 241.753 95.087V95.901C241.13 96.0403 240.462 96.11 239.751 96.11ZM244.75 96.11C244.244 96.11 243.852 96.0623 243.573 95.967C243.302 95.8717 243.104 95.703 242.979 95.461C242.862 95.219 242.803 94.8707 242.803 94.416C242.803 94.0127 242.858 93.701 242.968 93.481C243.085 93.2537 243.28 93.0923 243.551 92.997C243.83 92.9017 244.222 92.854 244.728 92.854H246.323V92.007C246.323 91.809 246.283 91.6587 246.202 91.556C246.129 91.446 246 91.369 245.817 91.325C245.641 91.281 245.381 91.259 245.036 91.259C244.486 91.259 243.877 91.303 243.21 91.391V90.665C243.936 90.599 244.592 90.566 245.179 90.566C245.795 90.566 246.25 90.6137 246.543 90.709C246.836 90.797 247.038 90.9547 247.148 91.182C247.258 91.4093 247.313 91.7613 247.313 92.238V96H246.356V95.494C246.275 95.9047 245.74 96.11 244.75 96.11ZM244.915 95.461C245.274 95.461 245.579 95.4353 245.828 95.384C246.158 95.318 246.323 95.164 246.323 94.922V93.47H244.794C244.479 93.47 244.251 93.4957 244.112 93.547C243.973 93.591 243.881 93.679 243.837 93.811C243.793 93.943 243.771 94.1557 243.771 94.449C243.771 94.713 243.797 94.9183 243.848 95.065C243.899 95.2043 243.991 95.307 244.123 95.373C244.255 95.4317 244.453 95.461 244.717 95.461H244.915ZM249.03 90.676H249.965V91.545C249.965 91.3763 250.038 91.2187 250.185 91.072C250.332 90.918 250.519 90.797 250.746 90.709C250.973 90.6137 251.197 90.566 251.417 90.566H251.901V91.413H251.351C250.882 91.413 250.541 91.4753 250.328 91.6C250.123 91.7173 250.02 91.9337 250.02 92.249V96H249.03V90.676ZM255.262 96.11C254.866 96.11 254.547 96.088 254.305 96.044C254.071 96.0073 253.836 95.934 253.601 95.824C253.125 95.5967 252.886 95.076 252.886 94.262V88.3H253.876V89.895V90.522C253.869 90.7127 253.865 90.9253 253.865 91.16C253.902 90.9913 254.056 90.8483 254.327 90.731C254.606 90.621 255.009 90.566 255.537 90.566C257.004 90.566 257.737 91.0683 257.737 92.073V94.262C257.737 94.5773 257.69 94.8523 257.594 95.087C257.506 95.3217 257.389 95.505 257.242 95.637C257.11 95.7617 256.927 95.8607 256.692 95.934C256.465 96.0073 256.238 96.055 256.01 96.077C255.805 96.099 255.556 96.11 255.262 96.11ZM255.284 95.461C255.666 95.461 255.955 95.4353 256.153 95.384C256.359 95.3253 256.505 95.2227 256.593 95.076C256.681 94.9293 256.725 94.7057 256.725 94.405V92.315C256.725 92.0143 256.681 91.7907 256.593 91.644C256.505 91.49 256.359 91.391 256.153 91.347C255.955 91.2957 255.662 91.27 255.273 91.27C254.914 91.27 254.635 91.2993 254.437 91.358C254.239 91.4167 254.096 91.523 254.008 91.677C253.92 91.8237 253.876 92.0363 253.876 92.315V94.405C253.876 94.7057 253.917 94.9293 253.997 95.076C254.085 95.2227 254.228 95.3253 254.426 95.384C254.624 95.4353 254.91 95.461 255.284 95.461ZM261.511 96.11C261.042 96.11 260.69 96.0917 260.455 96.055C260.221 96.0257 259.986 95.956 259.751 95.846C259.509 95.736 259.333 95.56 259.223 95.318C259.113 95.0687 259.058 94.735 259.058 94.317V92.469C259.058 92.139 259.099 91.8493 259.179 91.6C259.26 91.3507 259.366 91.1563 259.498 91.017C259.608 90.8923 259.773 90.797 259.993 90.731C260.221 90.6577 260.452 90.61 260.686 90.588C260.95 90.5733 261.225 90.566 261.511 90.566C261.893 90.566 262.179 90.577 262.369 90.599C262.567 90.6137 262.776 90.6503 262.996 90.709C263.224 90.775 263.4 90.874 263.524 91.006C263.649 91.138 263.755 91.3287 263.843 91.578C263.924 91.8347 263.964 92.1317 263.964 92.469V94.317C263.964 94.9403 263.821 95.395 263.535 95.681C263.418 95.7983 263.249 95.89 263.029 95.956C262.809 96.022 262.582 96.066 262.347 96.088C262.069 96.1027 261.79 96.11 261.511 96.11ZM261.511 95.461C261.819 95.461 262.043 95.4537 262.182 95.439C262.322 95.4243 262.457 95.384 262.589 95.318C262.721 95.2593 262.813 95.164 262.864 95.032C262.923 94.8927 262.952 94.702 262.952 94.46V92.304C262.952 91.974 262.912 91.7357 262.831 91.589C262.751 91.435 262.611 91.336 262.413 91.292C262.223 91.2407 261.922 91.215 261.511 91.215C261.101 91.215 260.796 91.2407 260.598 91.292C260.408 91.336 260.272 91.435 260.191 91.589C260.111 91.7357 260.07 91.974 260.07 92.304V94.46C260.07 94.702 260.096 94.8927 260.147 95.032C260.206 95.164 260.301 95.2593 260.433 95.318C260.565 95.384 260.701 95.4243 260.84 95.439C260.98 95.4537 261.203 95.461 261.511 95.461ZM265.508 90.676H266.498V91.325C266.601 90.819 267.184 90.566 268.247 90.566C268.929 90.566 269.406 90.6907 269.677 90.94C269.956 91.182 270.095 91.567 270.095 92.095V96H269.105V92.15C269.105 92.0107 269.094 91.897 269.072 91.809C269.05 91.721 269.006 91.633 268.94 91.545C268.794 91.3617 268.467 91.27 267.961 91.27C267.573 91.27 267.272 91.2993 267.059 91.358C266.854 91.4093 266.707 91.4973 266.619 91.622C266.539 91.7467 266.498 91.9227 266.498 92.15V96H265.508V90.676Z" fill="white"/>
<path d="M161.614 121.13C160.912 121.13 160.084 121.052 159.131 120.896V119.96C160.136 120.168 160.977 120.272 161.653 120.272C162.182 120.272 162.567 120.198 162.81 120.051C163.061 119.895 163.187 119.644 163.187 119.297V117.62C163.187 117.256 163.031 117.022 162.719 116.918C162.572 116.875 162.433 116.849 162.303 116.84C162.182 116.823 162.021 116.814 161.822 116.814H159.326V112.563H164.188V113.447H160.496V116.008H162.446C162.793 116.008 163.1 116.051 163.369 116.138C163.638 116.216 163.876 116.355 164.084 116.554C164.301 116.771 164.409 117.052 164.409 117.399V119.323C164.409 119.626 164.353 119.895 164.24 120.129C164.136 120.354 163.993 120.532 163.811 120.662C163.646 120.783 163.434 120.883 163.174 120.961C162.923 121.039 162.671 121.087 162.42 121.104C162.108 121.121 161.839 121.13 161.614 121.13ZM169.298 121.13C168.917 121.13 168.605 121.117 168.362 121.091C168.128 121.065 167.877 121.013 167.608 120.935C167.322 120.857 167.092 120.744 166.919 120.597C166.754 120.441 166.616 120.224 166.503 119.947C166.39 119.687 166.334 119.362 166.334 118.972V114.708C166.334 114.318 166.39 113.976 166.503 113.681C166.616 113.386 166.763 113.152 166.945 112.979C167.11 112.832 167.326 112.715 167.595 112.628C167.872 112.533 168.15 112.472 168.427 112.446C168.739 112.429 169.029 112.42 169.298 112.42C169.679 112.42 169.987 112.433 170.221 112.459C170.464 112.485 170.719 112.537 170.988 112.615C171.274 112.702 171.504 112.823 171.677 112.979C171.859 113.135 172.006 113.356 172.119 113.642C172.232 113.928 172.288 114.279 172.288 114.695V118.972C172.288 119.327 172.232 119.644 172.119 119.921C172.006 120.198 171.859 120.415 171.677 120.571C171.504 120.718 171.283 120.84 171.014 120.935C170.745 121.022 170.472 121.074 170.195 121.091C169.952 121.117 169.653 121.13 169.298 121.13ZM169.324 120.363C169.783 120.363 170.139 120.333 170.39 120.272C170.641 120.203 170.823 120.073 170.936 119.882C171.049 119.691 171.105 119.41 171.105 119.037V114.617C171.105 114.21 171.044 113.906 170.923 113.707C170.81 113.499 170.628 113.36 170.377 113.291C170.134 113.222 169.779 113.187 169.311 113.187C168.834 113.187 168.47 113.222 168.219 113.291C167.976 113.36 167.799 113.499 167.686 113.707C167.573 113.906 167.517 114.21 167.517 114.617V119.037C167.517 119.41 167.573 119.691 167.686 119.882C167.807 120.073 167.994 120.203 168.245 120.272C168.496 120.333 168.856 120.363 169.324 120.363ZM180.297 112.42H181.298L177.086 121.13H176.085L180.297 112.42ZM175.734 116.931C175.413 116.931 175.149 116.918 174.941 116.892C174.742 116.866 174.538 116.814 174.33 116.736C173.897 116.58 173.68 116.216 173.68 115.644V114.019C173.68 113.473 173.849 113.096 174.187 112.888C174.534 112.671 175.049 112.563 175.734 112.563C176.419 112.563 176.93 112.671 177.268 112.888C177.606 113.096 177.775 113.473 177.775 114.019V115.644C177.775 116.216 177.563 116.58 177.138 116.736C176.93 116.814 176.722 116.866 176.514 116.892C176.315 116.918 176.055 116.931 175.734 116.931ZM175.734 116.255C176.115 116.255 176.38 116.212 176.527 116.125C176.683 116.038 176.761 115.861 176.761 115.592V113.967C176.761 113.672 176.687 113.477 176.54 113.382C176.393 113.287 176.124 113.239 175.734 113.239C175.344 113.239 175.071 113.287 174.915 113.382C174.768 113.477 174.694 113.672 174.694 113.967V115.592C174.694 115.861 174.772 116.038 174.928 116.125C175.084 116.212 175.353 116.255 175.734 116.255ZM181.558 121.13C181.237 121.13 180.973 121.117 180.765 121.091C180.566 121.065 180.362 121.013 180.154 120.935C179.721 120.779 179.504 120.415 179.504 119.843V118.218C179.504 117.672 179.673 117.295 180.011 117.087C180.358 116.87 180.873 116.762 181.558 116.762C182.243 116.762 182.754 116.87 183.092 117.087C183.43 117.295 183.599 117.672 183.599 118.218V119.843C183.599 120.415 183.387 120.779 182.962 120.935C182.754 121.013 182.546 121.065 182.338 121.091C182.139 121.117 181.879 121.13 181.558 121.13ZM181.558 120.454C181.939 120.454 182.204 120.411 182.351 120.324C182.507 120.237 182.585 120.06 182.585 119.791V118.166C182.585 117.871 182.511 117.676 182.364 117.581C182.217 117.486 181.948 117.438 181.558 117.438C181.168 117.438 180.895 117.486 180.739 117.581C180.592 117.676 180.518 117.871 180.518 118.166V119.791C180.518 120.06 180.596 120.237 180.752 120.324C180.908 120.411 181.177 120.454 181.558 120.454ZM188.291 112.563H191.307C192.027 112.563 192.599 112.637 193.023 112.784C193.413 112.923 193.673 113.096 193.803 113.304C193.942 113.512 194.011 113.798 194.011 114.162V115.293C194.011 115.631 193.916 115.895 193.725 116.086C193.535 116.268 193.244 116.402 192.854 116.489V116.541C193.314 116.619 193.682 116.779 193.959 117.022C194.245 117.256 194.388 117.551 194.388 117.906V119.323C194.388 119.938 194.159 120.372 193.699 120.623C193.24 120.874 192.473 121 191.398 121H188.291V112.563ZM191.346 116.255C191.875 116.255 192.252 116.177 192.477 116.021C192.711 115.856 192.828 115.601 192.828 115.254V114.266C192.828 113.945 192.711 113.72 192.477 113.59C192.243 113.46 191.853 113.395 191.307 113.395H189.552V116.255H191.346ZM191.398 120.129C192.031 120.129 192.477 120.064 192.737 119.934C192.997 119.804 193.127 119.583 193.127 119.271V117.997C193.127 117.772 193.08 117.594 192.984 117.464C192.898 117.325 192.759 117.226 192.568 117.165C192.378 117.113 192.209 117.083 192.061 117.074C191.914 117.057 191.693 117.048 191.398 117.048H189.552V120.129H191.398ZM199.553 121.13C199.094 121.13 198.691 121.1 198.344 121.039C198.006 120.978 197.672 120.874 197.343 120.727C196.996 120.571 196.728 120.333 196.537 120.012C196.355 119.691 196.264 119.301 196.264 118.842V112.563H197.473V118.829C197.473 119.358 197.651 119.735 198.006 119.96C198.361 120.177 198.886 120.285 199.579 120.285C200.272 120.285 200.788 120.177 201.126 119.96C201.473 119.735 201.646 119.358 201.646 118.829V112.563H202.855V118.842C202.855 120.367 201.754 121.13 199.553 121.13ZM207.48 121.13C206.761 121.13 205.903 121.061 204.906 120.922V119.869C205.911 120.086 206.795 120.194 207.558 120.194C208.199 120.194 208.667 120.125 208.962 119.986C209.257 119.839 209.404 119.57 209.404 119.18V118.088C209.404 117.724 209.3 117.468 209.092 117.321C208.884 117.174 208.52 117.1 208 117.1H207.012C206.189 117.1 205.604 116.935 205.257 116.606C204.91 116.277 204.737 115.765 204.737 115.072V114.396C204.737 113.937 204.837 113.564 205.036 113.278C205.244 112.992 205.586 112.78 206.063 112.641C206.548 112.502 207.211 112.433 208.052 112.433C208.615 112.433 209.339 112.481 210.223 112.576V113.525C209.235 113.378 208.481 113.304 207.961 113.304C207.155 113.304 206.622 113.382 206.362 113.538C206.093 113.703 205.959 113.976 205.959 114.357V115.319C205.959 115.614 206.063 115.83 206.271 115.969C206.488 116.099 206.856 116.164 207.376 116.164H208.39C208.971 116.164 209.421 116.233 209.742 116.372C210.071 116.511 210.301 116.723 210.431 117.009C210.57 117.286 210.639 117.663 210.639 118.14V118.751C210.639 119.349 210.526 119.821 210.301 120.168C210.084 120.515 209.746 120.762 209.287 120.909C208.828 121.056 208.225 121.13 207.48 121.13ZM212.45 112.563H215.804C218.17 112.563 219.353 113.369 219.353 114.981V118.712C219.353 120.237 218.175 121 215.817 121H212.45V112.563ZM215.726 120.142C217.338 120.142 218.144 119.657 218.144 118.686V114.968C218.144 114.656 218.079 114.392 217.949 114.175C217.819 113.958 217.637 113.798 217.403 113.694C217.169 113.599 216.927 113.534 216.675 113.499C216.424 113.456 216.129 113.434 215.791 113.434H213.711V120.142H215.726Z" fill="#F5F5F7"/>
<rect x="229" y="110" width="28" height="14" rx="4" fill="#FFB900"/>
<path d="M234.315 112.861H236.867C237.476 112.861 237.96 112.923 238.319 113.048C238.649 113.165 238.869 113.312 238.979 113.488C239.096 113.664 239.155 113.906 239.155 114.214V115.171C239.155 115.457 239.074 115.681 238.913 115.842C238.752 115.996 238.506 116.11 238.176 116.183V116.227C238.565 116.293 238.876 116.429 239.111 116.634C239.353 116.832 239.474 117.081 239.474 117.382V118.581C239.474 119.102 239.28 119.468 238.891 119.681C238.502 119.894 237.853 120 236.944 120H234.315V112.861ZM236.9 115.985C237.347 115.985 237.666 115.919 237.857 115.787C238.055 115.648 238.154 115.431 238.154 115.138V114.302C238.154 114.031 238.055 113.84 237.857 113.73C237.659 113.62 237.329 113.565 236.867 113.565H235.382V115.985H236.9ZM236.944 119.263C237.479 119.263 237.857 119.208 238.077 119.098C238.297 118.988 238.407 118.801 238.407 118.537V117.459C238.407 117.268 238.367 117.118 238.286 117.008C238.213 116.891 238.095 116.806 237.934 116.755C237.773 116.711 237.63 116.685 237.505 116.678C237.38 116.663 237.193 116.656 236.944 116.656H235.382V119.263H236.944ZM243.118 120.11C242.51 120.11 241.784 120.051 240.94 119.934V119.043C241.791 119.226 242.539 119.318 243.184 119.318C243.727 119.318 244.123 119.259 244.372 119.142C244.622 119.017 244.746 118.79 244.746 118.46V117.536C244.746 117.228 244.658 117.012 244.482 116.887C244.306 116.762 243.998 116.7 243.558 116.7H242.722C242.026 116.7 241.531 116.561 241.237 116.282C240.944 116.003 240.797 115.571 240.797 114.984V114.412C240.797 114.023 240.882 113.708 241.05 113.466C241.226 113.224 241.516 113.044 241.919 112.927C242.33 112.81 242.891 112.751 243.602 112.751C244.079 112.751 244.691 112.791 245.439 112.872V113.675C244.603 113.55 243.965 113.488 243.525 113.488C242.843 113.488 242.392 113.554 242.172 113.686C241.945 113.825 241.831 114.056 241.831 114.379V115.193C241.831 115.442 241.919 115.626 242.095 115.743C242.279 115.853 242.59 115.908 243.03 115.908H243.888C244.38 115.908 244.761 115.967 245.032 116.084C245.311 116.201 245.505 116.381 245.615 116.623C245.733 116.858 245.791 117.177 245.791 117.58V118.097C245.791 118.603 245.696 119.003 245.505 119.296C245.322 119.589 245.036 119.798 244.647 119.923C244.259 120.048 243.749 120.11 243.118 120.11ZM250.107 120.11C248.105 120.11 247.104 119.465 247.104 118.174V114.786C247.104 113.422 248.105 112.74 250.107 112.74C250.789 112.74 251.442 112.81 252.065 112.949V113.741C251.361 113.565 250.716 113.477 250.129 113.477C249.843 113.477 249.594 113.495 249.381 113.532C249.168 113.561 248.963 113.616 248.765 113.697C248.34 113.88 248.127 114.24 248.127 114.775V118.119C248.127 118.94 248.809 119.351 250.173 119.351C250.76 119.351 251.405 119.263 252.109 119.087V119.901C251.486 120.04 250.818 120.11 250.107 120.11Z" fill="white"/>
<g filter="url(#filter1_d_1_74)">
<circle cx="114" cy="110" r="20" fill="#FFB900"/>
<path d="M117.661 98.7946L113.955 95L104.625 104.42L108.33 108.125L117.661 98.7946Z" fill="white"/>
<path d="M123.286 104.42L119.58 100.625L104.625 115.67L108.33 119.375L123.286 104.42Z" fill="white"/>
<path d="M102.705 106.25L106.411 110.045L102.705 113.75L99 110.045L102.705 106.25Z" fill="white"/>
<path d="M128.911 110.045L125.205 106.25L110.25 121.295L113.955 125L128.911 110.045Z" fill="white"/>
</g>
<g filter="url(#filter2_d_1_74)">
<path d="M473 53C473 50.7909 474.791 49 477 49H585C587.209 49 589 50.7909 589 53V154.96C589 157.169 587.209 158.96 585 158.96H477C474.791 158.96 473 157.169 473 154.96V116.433C473 115.841 472.738 115.281 472.285 114.901L460.826 105.287C459.874 104.488 459.874 103.022 460.826 102.223L472.285 92.6095C472.738 92.2295 473 91.6685 473 91.0772V53Z" fill="#272A2E"/>
<path d="M473 53C473 50.7909 474.791 49 477 49H585C587.209 49 589 50.7909 589 53V154.96C589 157.169 587.209 158.96 585 158.96H477C474.791 158.96 473 157.169 473 154.96V116.433C473 115.841 472.738 115.281 472.285 114.901L460.826 105.287C459.874 104.488 459.874 103.022 460.826 102.223L472.285 92.6095C472.738 92.2295 473 91.6685 473 91.0772V53Z" stroke="white" stroke-opacity="0.08"/>
</g>
<path d="M497.704 75.6H492.504L491.512 78H488.856L493.848 66.8H496.408L501.416 78H498.696L497.704 75.6ZM496.888 73.632L495.112 69.344L493.336 73.632H496.888ZM507.426 66.8C508.418 66.8 509.277 66.9653 510.002 67.296C510.738 67.6267 511.303 68.096 511.698 68.704C512.093 69.312 512.29 70.032 512.29 70.864C512.29 71.6853 512.093 72.4053 511.698 73.024C511.303 73.632 510.738 74.1013 510.002 74.432C509.277 74.752 508.418 74.912 507.426 74.912H505.17V78H502.578V66.8H507.426ZM507.282 72.8C508.061 72.8 508.653 72.6347 509.058 72.304C509.463 71.9627 509.666 71.4827 509.666 70.864C509.666 70.2347 509.463 69.7547 509.058 69.424C508.653 69.0827 508.061 68.912 507.282 68.912H505.17V72.8H507.282ZM521.277 78L519.117 74.88H518.989H516.733V78H514.141V66.8H518.989C519.981 66.8 520.839 66.9653 521.565 67.296C522.301 67.6267 522.866 68.096 523.261 68.704C523.655 69.312 523.853 70.032 523.853 70.864C523.853 71.696 523.65 72.416 523.245 73.024C522.85 73.6213 522.285 74.08 521.549 74.4L524.061 78H521.277ZM521.229 70.864C521.229 70.2347 521.026 69.7547 520.621 69.424C520.215 69.0827 519.623 68.912 518.845 68.912H516.733V72.816H518.845C519.623 72.816 520.215 72.6453 520.621 72.304C521.026 71.9627 521.229 71.4827 521.229 70.864Z" fill="#F5F5F7"/>
<path d="M490.5 140.5L490.5 97.5M510.5 140.5L510.5 97.5M530.5 140.5V97.5M550.5 140.5V97.5M570.5 140.5V97.5" stroke="white" stroke-opacity="0.08" stroke-linecap="round"/>
<path d="M571 97C571 120.196 535.183 139 491 139" stroke="url(#paint0_linear_1_74)" stroke-width="2" stroke-linecap="round"/>
<rect x="562" y="89" width="18" height="18" rx="9" fill="url(#paint1_linear_1_74)"/>
<path d="M606.23 71.2992C602.341 73.769 592.693 80.1498 590.196 84.1714C589.844 84.7382 589.993 85.4408 590.433 85.9454L595.126 91.3269C595.685 91.9688 596.605 92.1762 597.398 91.8421C600.548 90.5136 608.631 87.2156 614.239 85.9007C615.657 85.5681 616.472 83.9186 615.706 82.7043L608.891 71.899C608.326 71.0034 607.132 70.7261 606.23 71.2992Z" fill="url(#paint2_linear_1_74)"/>
<path d="M597.496 120.363C594.925 117.573 589.488 111.428 588.099 107.905C587.815 107.186 588.171 106.429 588.801 106.002L592.706 103.35C593.437 102.854 594.388 102.888 595.087 103.43C597.24 105.1 601.981 108.682 605.752 110.864C607.102 111.646 607.458 113.693 606.316 114.771L600.305 120.448C599.497 121.212 598.252 121.182 597.496 120.363Z" fill="url(#paint3_linear_1_74)"/>
<path d="M575.891 60.5565C575.083 63.6131 573.75 69.2501 574.041 72.1677C574.115 72.9088 574.765 73.3919 575.514 73.4969L578.949 73.9783C579.916 74.1138 580.856 73.6053 581.272 72.7359C582.2 70.7986 583.926 67.3264 585.606 64.664C586.472 63.2933 585.857 61.2597 584.287 60.7922L578.585 59.0932C577.421 58.7462 576.197 59.3976 575.891 60.5565Z" fill="url(#paint4_linear_1_74)"/>
<path d="M552.6 66.4256C555.299 68.5388 560.386 72.7442 561.857 75.4976C562.151 76.0465 561.966 76.6803 561.538 77.1422L558.583 80.3373C557.95 81.022 556.906 81.1957 556.061 80.7666C553.96 79.6997 549.947 77.7402 546.692 76.617C545.277 76.1287 544.516 74.4022 545.34 73.2012L549.685 66.8703C550.334 65.9247 551.684 65.7085 552.6 66.4256Z" fill="url(#paint5_linear_1_74)"/>
<g filter="url(#filter3_d_1_74)">
<circle cx="86" cy="98" r="20" fill="#4FC1C0"/>
<circle cx="86" cy="98" r="20" fill="url(#paint6_linear_1_74)"/>
<path d="M71.0564 101.094C71.2038 101.098 71.3516 101.1 71.5 101.1C74.551 101.1 77.3975 100.224 79.8016 98.7102C80.7858 103.776 85.246 107.6 90.5994 107.6C94.9808 107.6 98.7639 105.038 100.533 101.331C100.67 101.259 100.805 101.183 100.939 101.105C99.0058 107.525 93.0486 112.2 85.9994 112.2C78.946 112.2 72.9859 107.519 71.0564 101.094Z" fill="url(#paint7_radial_1_74)"/>
<path d="M71.0564 101.094C71.2038 101.098 71.3516 101.1 71.5 101.1C74.551 101.1 77.3975 100.224 79.8016 98.7102C80.7858 103.776 85.246 107.6 90.5994 107.6C94.9808 107.6 98.7639 105.038 100.533 101.331C100.67 101.259 100.805 101.183 100.939 101.105C99.0058 107.525 93.0486 112.2 85.9994 112.2C78.946 112.2 72.9859 107.519 71.0564 101.094Z" fill="#04171E" fill-opacity="0.88"/>
<path d="M71.1312 101.336C71.2538 101.339 71.3767 101.34 71.5 101.34C74.5694 101.34 77.4318 100.454 79.8451 98.9227C80.9111 103.882 85.3211 107.6 90.5994 107.6C94.9808 107.6 98.7639 105.038 100.533 101.331C100.67 101.259 100.805 101.183 100.939 101.105C99.0057 107.524 93.0486 112.2 85.9994 112.2C79.0348 112.2 73.1362 107.636 71.1312 101.336Z" fill="url(#paint8_radial_1_74)"/>
<path d="M71.1312 101.336C71.2538 101.339 71.3767 101.34 71.5 101.34C74.5694 101.34 77.4318 100.454 79.8451 98.9227C80.9111 103.882 85.3211 107.6 90.5994 107.6C94.9808 107.6 98.7639 105.038 100.533 101.331C100.67 101.259 100.805 101.183 100.939 101.105C99.0057 107.524 93.0486 112.2 85.9994 112.2C79.0348 112.2 73.1362 107.636 71.1312 101.336Z" fill="#04171E" fill-opacity="0.4"/>
<path d="M93.3798 107.246C91.1618 109.09 88.3105 110.2 85.2 110.2C79.3939 110.2 74.4907 106.334 72.9238 101.036C75.4356 100.809 77.7756 99.986 79.8016 98.7102C80.7857 103.776 85.246 107.6 90.5994 107.6C91.5599 107.6 92.4917 107.477 93.3798 107.246Z" fill="url(#paint9_linear_1_74)" fill-opacity="0.64"/>
<path d="M98.8 96.6C98.8 103.669 93.0692 109.4 86 109.4C78.9308 109.4 73.2 103.669 73.2 96.6C73.2 89.5308 78.9308 83.8 86 83.8C93.0692 83.8 98.8 89.5308 98.8 96.6Z" fill="url(#paint10_radial_1_74)"/>
<path d="M97.9491 94.1965C97.9491 99.167 93.9197 103.196 88.9491 103.196C83.9785 103.196 79.9491 99.167 79.9491 94.1965C79.9491 89.2259 83.9785 85.1965 88.9491 85.1965C93.9197 85.1965 97.9491 89.2259 97.9491 94.1965Z" fill="url(#paint11_radial_1_74)" fill-opacity="0.6"/>
<path d="M86.8392 85.2127C86.6384 85.2019 86.4363 85.1965 86.2328 85.1965C84.318 85.1965 82.5157 85.6783 80.9405 86.5272C81.7829 86.3416 82.6583 86.2438 83.5565 86.2438C84.472 86.2438 85.3638 86.3454 86.2211 86.5381L86.8392 85.2127Z" fill="url(#paint12_linear_1_74)" fill-opacity="0.64"/>
<path d="M87.5798 86.9286C92.2856 88.5869 95.6583 93.0724 95.6583 98.3456C95.6583 100.513 95.0882 102.548 94.0899 104.308C96.1361 102.283 97.4037 99.4735 97.4037 96.3674C97.4037 90.9036 93.4812 86.3561 88.2986 85.3871L87.5798 86.9286Z" fill="url(#paint13_linear_1_74)" fill-opacity="0.64"/>
<path d="M92.8404 107.421C90.8617 108.675 88.5156 109.4 86 109.4C82.0132 109.4 78.4522 107.578 76.1046 104.72C76.7518 104.839 77.4187 104.901 78.1001 104.901C83.048 104.901 87.2328 101.634 88.6155 97.1396C89.0717 97.1797 89.5336 97.2002 90.0002 97.2002C93.1968 97.2002 96.1688 96.2388 98.6429 94.5893C98.7463 95.2444 98.8 95.916 98.8 96.6002C98.8 97.0249 98.7793 97.4448 98.7389 97.8588C98.0199 101.742 95.8626 105.12 92.8404 107.421Z" fill="url(#paint14_linear_1_74)" fill-opacity="0.64"/>
<path d="M71.0605 101.105C72.9935 107.525 78.9508 112.2 86.0002 112.2C94.5826 112.2 101.546 105.27 101.6 96.6999C100.744 96.6945 99.9038 96.6201 99.0856 96.482C97.1628 97.3295 95.0365 97.8 92.8003 97.8C92.0248 97.8 91.2626 97.7434 90.5175 97.6342C89.1363 102.131 84.9502 105.4 80.0006 105.4C76.549 105.4 73.4688 103.811 71.452 101.323C71.3199 101.253 71.1893 101.181 71.0605 101.105Z" fill="url(#paint15_linear_1_74)"/>
<path d="M101.6 96.7135C99.3053 98.0407 96.6415 98.8003 93.8002 98.8003C93.2587 98.8003 92.7236 98.7727 92.1964 98.7188C91.2089 103.78 86.7506 107.6 81.4002 107.6C77.0188 107.6 73.2357 105.039 71.4668 101.332C71.3297 101.259 71.1943 101.184 71.0607 101.106C72.9939 107.525 78.951 112.2 86.0002 112.2C94.5781 112.2 101.539 105.277 101.6 96.7135Z" fill="url(#paint16_radial_1_74)"/>
<path d="M100.462 97.3102C99.5227 97.7546 98.5316 98.108 97.5003 98.3588C97.3666 99.498 97.1094 100.64 96.7207 101.769C95.7733 104.521 94.1605 106.854 92.1241 108.652C95.6061 106.976 98.4432 103.964 99.8007 100.021C100.11 99.1235 100.329 98.2165 100.462 97.3102Z" fill="url(#paint17_linear_1_74)" fill-opacity="0.64"/>
<path opacity="0.2" fill-rule="evenodd" clip-rule="evenodd" d="M90.5109 97.6611C90.5285 97.6375 90.5613 97.6331 90.5842 97.6512C91.105 98.0643 91.6677 98.4287 92.271 98.7378C92.2968 98.7511 92.3074 98.7834 92.2945 98.8101C92.2816 98.8368 92.2502 98.8476 92.2244 98.8344C91.615 98.5221 91.0465 98.154 90.5204 97.7367C90.4975 97.7185 90.4932 97.6847 90.5109 97.6611Z" fill="url(#paint18_linear_1_74)"/>
</g>
<defs>
<filter id="filter0_d_1_74" x="0" y="12" width="534" height="184" filterUnits="userSpaceOnUse" color-interpolation-filters="sRGB">
<feFlood flood-opacity="0" result="BackgroundImageFix"/>
<feColorMatrix in="SourceAlpha" type="matrix" values="0 0 0 0 0 0 0 0 0 0 0 0 0 0 0 0 0 0 127 0" result="hardAlpha"/>
<feOffset/>
<feGaussianBlur stdDeviation="24"/>
<feColorMatrix type="matrix" values="0 0 0 0 0 0 0 0 0 0 0 0 0 0 0 0 0 0 0.64 0"/>
<feBlend mode="normal" in2="BackgroundImageFix" result="effect1_dropShadow_1_74"/>
<feBlend mode="normal" in="SourceGraphic" in2="effect1_dropShadow_1_74" result="shape"/>
</filter>
<filter id="filter1_d_1_74" x="78" y="74" width="72" height="72" filterUnits="userSpaceOnUse" color-interpolation-filters="sRGB">
<feFlood flood-opacity="0" result="BackgroundImageFix"/>
<feColorMatrix in="SourceAlpha" type="matrix" values="0 0 0 0 0 0 0 0 0 0 0 0 0 0 0 0 0 0 127 0" result="hardAlpha"/>
<feOffset/>
<feGaussianBlur stdDeviation="8"/>
<feComposite in2="hardAlpha" operator="out"/>
<feColorMatrix type="matrix" values="0 0 0 0 0 0 0 0 0 0 0 0 0 0 0 0 0 0 0.64 0"/>
<feBlend mode="normal" in2="BackgroundImageFix" result="effect1_dropShadow_1_74"/>
<feBlend mode="normal" in="SourceGraphic" in2="effect1_dropShadow_1_74" result="shape"/>
</filter>
<filter id="filter2_d_1_74" x="411.612" y="0.5" width="225.888" height="206.96" filterUnits="userSpaceOnUse" color-interpolation-filters="sRGB">
<feFlood flood-opacity="0" result="BackgroundImageFix"/>
<feColorMatrix in="SourceAlpha" type="matrix" values="0 0 0 0 0 0 0 0 0 0 0 0 0 0 0 0 0 0 127 0" result="hardAlpha"/>
<feOffset/>
<feGaussianBlur stdDeviation="24"/>
<feColorMatrix type="matrix" values="0 0 0 0 0 0 0 0 0 0 0 0 0 0 0 0 0 0 0.64 0"/>
<feBlend mode="normal" in2="BackgroundImageFix" result="effect1_dropShadow_1_74"/>
<feBlend mode="normal" in="SourceGraphic" in2="effect1_dropShadow_1_74" result="shape"/>
</filter>
<filter id="filter3_d_1_74" x="50" y="62" width="72" height="72" filterUnits="userSpaceOnUse" color-interpolation-filters="sRGB">
<feFlood flood-opacity="0" result="BackgroundImageFix"/>
<feColorMatrix in="SourceAlpha" type="matrix" values="0 0 0 0 0 0 0 0 0 0 0 0 0 0 0 0 0 0 127 0" result="hardAlpha"/>
<feOffset/>
<feGaussianBlur stdDeviation="8"/>
<feComposite in2="hardAlpha" operator="out"/>
<feColorMatrix type="matrix" values="0 0 0 0 0 0 0 0 0 0 0 0 0 0 0 0 0 0 0.64 0"/>
<feBlend mode="normal" in2="BackgroundImageFix" result="effect1_dropShadow_1_74"/>
<feBlend mode="normal" in="SourceGraphic" in2="effect1_dropShadow_1_74" result="shape"/>
</filter>
<linearGradient id="paint0_linear_1_74" x1="571" y1="118" x2="491" y2="118" gradientUnits="userSpaceOnUse">
<stop stop-color="#482BFF"/>
<stop offset="1" stop-color="#007AFF"/>
</linearGradient>
<linearGradient id="paint1_linear_1_74" x1="580" y1="98" x2="562" y2="98" gradientUnits="userSpaceOnUse">
<stop stop-color="#482BFF"/>
<stop offset="1" stop-color="#007AFF"/>
</linearGradient>
<linearGradient id="paint2_linear_1_74" x1="590" y1="81.5" x2="616" y2="81.5" gradientUnits="userSpaceOnUse">
<stop stop-color="#FFA800"/>
<stop offset="1" stop-color="#FF5107"/>
</linearGradient>
<linearGradient id="paint3_linear_1_74" x1="607" y1="112.243" x2="588" y2="112.243" gradientUnits="userSpaceOnUse">
<stop stop-color="#00A862"/>
<stop offset="1" stop-color="#00AF92"/>
</linearGradient>
<linearGradient id="paint4_linear_1_74" x1="586" y1="66.7027" x2="574" y2="66.7027" gradientUnits="userSpaceOnUse">
<stop stop-color="#E84747"/>
<stop offset="1" stop-color="#FF5107"/>
</linearGradient>
<linearGradient id="paint5_linear_1_74" x1="562" y1="73.5" x2="545" y2="73.5" gradientUnits="userSpaceOnUse">
<stop stop-color="#007AFF"/>
<stop offset="1" stop-color="#00B1F0"/>
</linearGradient>
<linearGradient id="paint6_linear_1_74" x1="66" y1="98" x2="101.417" y2="78" gradientUnits="userSpaceOnUse">
<stop stop-color="#063C4F"/>
<stop offset="1" stop-color="#00F0FF"/>
</linearGradient>
<radialGradient id="paint7_radial_1_74" cx="0" cy="0" r="1" gradientUnits="userSpaceOnUse" gradientTransform="translate(100.939 108.905) rotate(179.948) scale(113.269 329.117)">
<stop offset="0.104167" stop-color="#24537E"/>
<stop offset="0.520341" stop-color="#4FC1C0"/>
<stop offset="1" stop-color="#DAFFF4"/>
</radialGradient>
<radialGradient id="paint8_radial_1_74" cx="0" cy="0" r="1" gradientUnits="userSpaceOnUse" gradientTransform="translate(100.939 108.905) rotate(179.948) scale(113.269 329.117)">
<stop offset="0.104167" stop-color="#24537E"/>
<stop offset="0.520341" stop-color="#4FC1C0"/>
<stop offset="1" stop-color="#DAFFF4"/>
</radialGradient>
<linearGradient id="paint9_linear_1_74" x1="92.9973" y1="112.356" x2="87.8509" y2="85.5875" gradientUnits="userSpaceOnUse">
<stop stop-color="#04171E"/>
<stop offset="1" stop-color="#04171E" stop-opacity="0"/>
</linearGradient>
<radialGradient id="paint10_radial_1_74" cx="0" cy="0" r="1" gradientUnits="userSpaceOnUse" gradientTransform="translate(76.6327 106.607) rotate(-57.5402) scale(22.5482 326.736)">
<stop offset="0.104167" stop-color="#3A78B1"/>
<stop offset="0.520341" stop-color="#4FC1C0"/>
<stop offset="1" stop-color="#8CF2FD"/>
</radialGradient>
<radialGradient id="paint11_radial_1_74" cx="0" cy="0" r="1" gradientUnits="userSpaceOnUse" gradientTransform="translate(97.9 85.2) rotate(144.267) scale(22.1744 22.017)">
<stop offset="0.216485" stop-color="white"/>
<stop offset="0.906332" stop-color="white" stop-opacity="0"/>
</radialGradient>
<linearGradient id="paint12_linear_1_74" x1="94.1" y1="90.2" x2="80.9" y2="95.95" gradientUnits="userSpaceOnUse">
<stop stop-color="white"/>
<stop offset="0.732381" stop-color="white" stop-opacity="0"/>
</linearGradient>
<linearGradient id="paint13_linear_1_74" x1="94.1" y1="90.2" x2="80.9" y2="95.95" gradientUnits="userSpaceOnUse">
<stop stop-color="white"/>
<stop offset="0.732381" stop-color="white" stop-opacity="0"/>
</linearGradient>
<linearGradient id="paint14_linear_1_74" x1="118.601" y1="62.8491" x2="64.6144" y2="107.828" gradientUnits="userSpaceOnUse">
<stop stop-color="#04171E"/>
<stop offset="1" stop-color="#04171E" stop-opacity="0"/>
</linearGradient>
<linearGradient id="paint15_linear_1_74" x1="95.9" y1="98.65" x2="75.6499" y2="105.8" gradientUnits="userSpaceOnUse">
<stop stop-color="#0E6585"/>
<stop offset="1" stop-color="#04171E"/>
</linearGradient>
<radialGradient id="paint16_radial_1_74" cx="0" cy="0" r="1" gradientUnits="userSpaceOnUse" gradientTransform="translate(75.1557 110.511) rotate(-38.5632) scale(18.4631 287.966)">
<stop offset="0.104167" stop-color="#3A78B1"/>
<stop offset="0.520341" stop-color="#4FC1C0"/>
<stop offset="1" stop-color="#8CF2FD"/>
</radialGradient>
<linearGradient id="paint17_linear_1_74" x1="100.5" y1="97.3" x2="92.7124" y2="109.104" gradientUnits="userSpaceOnUse">
<stop stop-color="white" stop-opacity="0.64"/>
<stop offset="1" stop-color="white" stop-opacity="0"/>
</linearGradient>
<linearGradient id="paint18_linear_1_74" x1="92.2895" y1="98.7832" x2="89.7578" y2="97.2182" gradientUnits="userSpaceOnUse">
<stop stop-color="#8CF2FD"/>
<stop offset="1" stop-color="#8CF2FD" stop-opacity="0"/>
</linearGradient>
</defs>
</svg>
