<svg width="440" height="128" viewBox="0 0 440 128" fill="none" xmlns="http://www.w3.org/2000/svg">
<g clip-path="url(#clip0_1_72)">
<g filter="url(#filter0_d_1_72)">
<path d="M112.024 86.6668L114.911 89.5535L117.798 86.6668L114.911 83.78L112.024 86.6668ZM332.575 41.334L329.688 38.4472L326.801 41.334L329.688 44.2207L332.575 41.334ZM114.911 87.1668C160.999 87.1668 191.503 75.805 222.075 64.4692C252.632 53.1391 283.26 41.834 329.688 41.834V40.834C283.07 40.834 252.301 52.1952 221.728 63.5316C191.169 74.8622 160.808 86.1668 114.911 86.1668V87.1668Z" fill="#6F7073"/>
</g>
<g filter="url(#filter1_d_1_72)">
<path d="M112.024 41.3337L114.911 38.447L117.798 41.3337L114.911 44.2205L112.024 41.3337ZM332.575 86.6665L329.688 89.5533L326.801 86.6665L329.688 83.7798L332.575 86.6665ZM114.911 40.8337C160.999 40.8337 191.503 52.1955 222.075 63.5313C252.632 74.8614 283.26 86.1665 329.688 86.1665V87.1665C283.07 87.1665 252.301 75.8052 221.728 64.4689C191.169 53.1383 160.808 41.8337 114.911 41.8337V40.8337Z" fill="#6F7073"/>
</g>
<g filter="url(#filter2_d_1_72)">
<path d="M348.327 73.7548V110.053C348.327 110.952 348.905 111.659 349.676 111.659H413.276C413.982 111.659 414.625 110.952 414.625 110.053V19.1473C414.625 18.2479 414.046 17.5412 413.276 17.5412L349.611 17.6697C348.905 17.6697 348.262 18.3763 348.262 19.2758V59.1714C348.262 64.0824 348.327 69.8986 348.327 73.7548Z" fill="#272A2E"/>
<path d="M413.621 14.6015L349.461 14.731C347.324 14.731 345.511 16.6092 345.511 18.9409V82.6905C345.511 83.4029 345.558 83.9858 346.27 83.9858C346.982 83.9858 347.072 83.4029 347.072 82.6905V18.8761C347.072 17.9535 348.044 16.2275 349.461 16.2275L413.621 16.098C415.089 16.098 416.01 17.8398 416.01 18.7466V110.392C416.01 111.633 414.571 113.04 413.621 113.04H349.525C348.537 113.04 347.136 111.741 347.136 110.392V73.7984C347.136 73.0859 347.062 72.503 346.35 72.503C345.59 72.503 345.576 73.0859 345.576 73.7984V110.392C345.576 112.723 347.324 114.601 349.525 114.601H413.621C415.757 114.601 417.57 112.723 417.57 110.392V85.9098V18.8113C417.57 16.4797 415.822 14.6015 413.621 14.6015Z" fill="white" fill-opacity="0.08"/>
<path d="M392.028 22.94C392.023 23.3268 392.133 23.7062 392.344 24.0302C392.556 24.3541 392.859 24.6079 393.215 24.7592C393.571 24.9106 393.964 24.9527 394.344 24.8802C394.723 24.8077 395.073 24.6239 395.348 24.3521C395.624 24.0803 395.812 23.7328 395.889 23.3538C395.966 22.9748 395.929 22.5814 395.782 22.2236C395.635 21.8657 395.385 21.5597 395.064 21.3443C394.743 21.1288 394.365 21.0138 393.978 21.0138C393.464 21.0116 392.971 21.2131 392.605 21.5741C392.239 21.9351 392.032 22.4262 392.028 22.94V22.94Z" fill="#6F7073"/>
<path d="M399.631 22.94C399.626 23.3271 399.737 23.7069 399.949 24.031C400.16 24.3551 400.464 24.6089 400.82 24.76C401.177 24.9111 401.57 24.9528 401.95 24.8796C402.33 24.8065 402.68 24.6218 402.955 24.3492C403.23 24.0766 403.417 23.7284 403.494 23.3488C403.57 22.9693 403.532 22.5756 403.384 22.2179C403.236 21.8603 402.984 21.5547 402.662 21.3403C402.34 21.1259 401.961 21.0122 401.574 21.0138C401.061 21.0138 400.57 21.2162 400.206 21.577C399.842 21.9377 399.636 22.4276 399.631 22.94V22.94Z" fill="#6F7073"/>
<path d="M407.175 22.94C407.17 23.3268 407.28 23.7062 407.492 24.0302C407.703 24.3541 408.006 24.6079 408.362 24.7592C408.718 24.9106 409.111 24.9527 409.491 24.8802C409.871 24.8077 410.221 24.6239 410.496 24.3521C410.771 24.0803 410.959 23.7328 411.036 23.3538C411.114 22.9748 411.077 22.5814 410.93 22.2236C410.783 21.8657 410.533 21.5597 410.212 21.3443C409.89 21.1288 409.512 21.0138 409.125 21.0138C408.612 21.0116 408.118 21.2131 407.752 21.5741C407.387 21.9351 407.179 22.4262 407.175 22.94V22.94Z" fill="#6F7073"/>
<path d="M387.547 37.9101H368.56V40.1924H387.547V37.9101Z" fill="#FFA600" fill-opacity="0.5"/>
<path d="M403.74 37.9101H390.297V40.1924H403.74V37.9101Z" fill="#FFA600" fill-opacity="0.5"/>
<path d="M364.74 37.91H359.01V40.1923H364.74V37.91Z" fill="#FFA600" fill-opacity="0.5"/>
<path d="M377.746 46.8122H374.509V49.0945H377.746V46.8122Z" fill="#FFA600" fill-opacity="0.5"/>
<path d="M399.966 46.8122H379.489V49.0945H399.966V46.8122Z" fill="url(#paint0_linear_1_72)"/>
<path d="M372.768 46.8119H366.342V49.0943H372.768V46.8119Z" fill="#FFA600" fill-opacity="0.5"/>
<path d="M382.132 55.7006H376.118V57.9829H382.132V55.7006Z" fill="#FFA600" fill-opacity="0.5"/>
<path d="M388.548 55.7006H385.456V57.9829H388.548V55.7006Z" fill="#FFA600" fill-opacity="0.5"/>
<path d="M374.379 55.7006H366.342V57.9829H374.379V55.7006Z" fill="#FFA600" fill-opacity="0.5"/>
<path d="M369.871 64.6016H365.169V66.8839H369.871V64.6016Z" fill="url(#paint1_linear_1_72)"/>
<path d="M363.429 64.6018H359.01V66.8841H363.429V64.6018Z" fill="#FFA600" fill-opacity="0.5"/>
<path d="M377.763 73.5031H372.332V75.7854H377.763V73.5031Z" fill="#FFA600" fill-opacity="0.5"/>
<path d="M396.588 73.5031H380.928V75.7854H396.588V73.5031Z" fill="#FFA600" fill-opacity="0.5"/>
<path d="M370.429 73.503H366.342V75.7853H370.429V73.503Z" fill="#FFA600" fill-opacity="0.5"/>
<path d="M374.819 82.3907H371.137V84.673H374.819V82.3907Z" fill="#FFA600" fill-opacity="0.5"/>
<path d="M384.778 82.3908H376.862V84.6731H384.778V82.3908Z" fill="#FFA600" fill-opacity="0.5"/>
<path d="M369.409 82.3907H366.342V84.673H369.409V82.3907Z" fill="#FFA600" fill-opacity="0.5"/>
<path d="M379.364 91.2924H375.981V93.5747H379.364V91.2924Z" fill="#FFA600" fill-opacity="0.5"/>
<path d="M396.765 91.2924H381.541V93.5747H396.765V91.2924Z" fill="#FFA600" fill-opacity="0.5"/>
<path d="M373.09 91.2924H366.073V93.5747H373.09V91.2924Z" fill="url(#paint2_linear_1_72)"/>
<path d="M376.139 100.181H367.35V102.463H376.139V100.181Z" fill="#FFA600" fill-opacity="0.5"/>
<path d="M365.768 100.181H359.01V102.463H365.768V100.181Z" fill="#FFA600" fill-opacity="0.5"/>
<g filter="url(#filter3_d_1_72)">
<circle cx="413.68" cy="104.993" r="20" fill="#272A2E"/>
<circle cx="413.677" cy="104.992" r="16.6667" fill="#1A1D1F"/>
<path d="M413.063 115.319C412.912 115.319 412.796 115.266 412.713 115.159C412.631 115.067 412.59 114.944 412.59 114.791V113.185C411.59 113.093 410.747 112.841 410.062 112.428C409.377 111.999 408.856 111.487 408.5 110.89C408.144 110.293 407.952 109.658 407.925 108.985C407.925 108.863 407.966 108.756 408.048 108.664C408.144 108.557 408.254 108.503 408.377 108.503H409.446C409.596 108.503 409.713 108.549 409.795 108.641C409.877 108.733 409.932 108.84 409.959 108.962C410.042 109.329 410.213 109.697 410.473 110.064C410.734 110.416 411.103 110.714 411.583 110.959C412.076 111.188 412.707 111.303 413.474 111.303C414.652 111.303 415.515 111.073 416.063 110.615C416.625 110.14 416.906 109.513 416.906 108.733C416.906 108.197 416.755 107.769 416.454 107.447C416.166 107.111 415.721 106.813 415.118 106.552C414.515 106.292 413.734 106.009 412.775 105.703C411.775 105.382 410.946 105.03 410.288 104.648C409.631 104.265 409.137 103.791 408.809 103.225C408.493 102.659 408.336 101.94 408.336 101.067C408.336 99.9506 408.706 98.9944 409.446 98.1988C410.185 97.3879 411.234 96.9136 412.59 96.7759V95.1924C412.59 95.0394 412.631 94.917 412.713 94.8252C412.796 94.7181 412.912 94.6646 413.063 94.6646H413.844C413.981 94.6646 414.09 94.7181 414.173 94.8252C414.268 94.917 414.316 95.0394 414.316 95.1924V96.7989C415.234 96.9213 416.002 97.2043 416.618 97.648C417.235 98.0917 417.701 98.6042 418.016 99.1856C418.331 99.767 418.495 100.333 418.509 100.884C418.509 100.991 418.475 101.098 418.406 101.205C418.338 101.297 418.228 101.343 418.077 101.343H416.988C416.892 101.343 416.789 101.312 416.68 101.251C416.584 101.19 416.509 101.075 416.454 100.907C416.372 100.28 416.056 99.7517 415.508 99.3233C414.96 98.8949 414.248 98.6807 413.371 98.6807C412.48 98.6807 411.754 98.872 411.193 99.2545C410.644 99.637 410.37 100.234 410.37 101.045C410.37 101.565 410.501 102.001 410.761 102.353C411.021 102.689 411.432 102.988 411.994 103.248C412.556 103.508 413.289 103.783 414.193 104.074C415.289 104.41 416.187 104.77 416.885 105.153C417.584 105.52 418.098 105.986 418.427 106.552C418.769 107.103 418.941 107.815 418.941 108.687C418.941 109.544 418.749 110.301 418.365 110.959C417.995 111.601 417.461 112.114 416.762 112.496C416.077 112.879 415.262 113.116 414.316 113.208V114.791C414.316 114.944 414.268 115.067 414.173 115.159C414.09 115.266 413.981 115.319 413.844 115.319H413.063Z" fill="#272A2E"/>
<path d="M413.557 115.319C413.406 115.319 413.29 115.266 413.208 115.159C413.125 115.067 413.084 114.944 413.084 114.791V113.185C412.084 113.093 411.241 112.841 410.556 112.428C409.871 111.999 409.351 111.487 408.994 110.89C408.638 110.293 408.446 109.658 408.419 108.985C408.419 108.863 408.46 108.756 408.542 108.664C408.638 108.557 408.748 108.503 408.871 108.503H409.94C410.09 108.503 410.207 108.549 410.289 108.641C410.371 108.733 410.426 108.84 410.454 108.962C410.536 109.329 410.707 109.697 410.967 110.064C411.228 110.416 411.598 110.714 412.077 110.959C412.57 111.188 413.201 111.303 413.968 111.303C415.146 111.303 416.009 111.073 416.557 110.615C417.119 110.14 417.4 109.513 417.4 108.733C417.4 108.197 417.249 107.769 416.948 107.447C416.66 107.111 416.215 106.813 415.612 106.552C415.009 106.292 414.228 106.009 413.269 105.703C412.269 105.382 411.44 105.03 410.782 104.648C410.125 104.265 409.631 103.791 409.303 103.225C408.988 102.659 408.83 101.94 408.83 101.067C408.83 99.9506 409.2 98.9944 409.94 98.1988C410.68 97.3879 411.728 96.9136 413.084 96.7759V95.1924C413.084 95.0394 413.125 94.917 413.208 94.8252C413.29 94.7181 413.406 94.6646 413.557 94.6646H414.338C414.475 94.6646 414.584 94.7181 414.667 94.8252C414.763 94.917 414.811 95.0394 414.811 95.1924V96.7989C415.729 96.9213 416.496 97.2043 417.112 97.648C417.729 98.0917 418.195 98.6042 418.51 99.1856C418.825 99.767 418.989 100.333 419.003 100.884C419.003 100.991 418.969 101.098 418.9 101.205C418.832 101.297 418.722 101.343 418.572 101.343H417.482C417.386 101.343 417.284 101.312 417.174 101.251C417.078 101.19 417.003 101.075 416.948 100.907C416.866 100.28 416.551 99.7517 416.003 99.3233C415.455 98.8949 414.742 98.6807 413.865 98.6807C412.975 98.6807 412.248 98.872 411.687 99.2545C411.139 99.637 410.865 100.234 410.865 101.045C410.865 101.565 410.995 102.001 411.255 102.353C411.515 102.689 411.926 102.988 412.488 103.248C413.05 103.508 413.783 103.783 414.687 104.074C415.783 104.41 416.681 104.77 417.38 105.153C418.078 105.52 418.592 105.986 418.921 106.552C419.263 107.103 419.435 107.815 419.435 108.687C419.435 109.544 419.243 110.301 418.859 110.959C418.489 111.601 417.955 112.114 417.256 112.496C416.571 112.879 415.756 113.116 414.811 113.208V114.791C414.811 114.944 414.763 115.067 414.667 115.159C414.584 115.266 414.475 115.319 414.338 115.319H413.557Z" fill="url(#paint3_linear_1_72)"/>
</g>
</g>
<g filter="url(#filter4_d_1_72)">
<rect x="179.592" y="44.9161" width="85.4112" height="66.3376" rx="3.5" fill="#272A2E" stroke="url(#paint4_linear_1_72)"/>
<path d="M180.311 98.223L264.438 98.223" stroke="url(#paint5_linear_1_72)" stroke-width="1.5" stroke-linecap="round"/>
<path d="M224.063 105.491H222.113C221.583 105.491 221.153 104.98 221.153 104.349C221.153 103.717 221.583 103.207 222.113 103.207H224.063C224.594 103.207 225.023 103.717 225.023 104.349C225.023 104.98 224.594 105.491 224.063 105.491Z" fill="white" fill-opacity="0.08"/>
<path d="M234.313 72.3715C227.366 72.3715 221.715 66.7198 221.715 59.7736V44.9085C221.715 44.5821 221.98 44.317 222.306 44.317H237.163C237.367 44.317 237.558 44.4229 237.667 44.5991C237.667 44.5992 237.667 44.5993 237.667 44.5994L246.823 59.4624C246.823 59.4627 246.823 59.4629 246.823 59.4632C246.88 59.5568 246.911 59.6651 246.911 59.7736C246.911 66.7198 241.259 72.3715 234.313 72.3715Z" fill="#272A2E" stroke="url(#paint6_linear_1_72)"/>
<path d="M245.711 59.9422L245.714 60.0774C245.875 66.8839 251.463 72.3718 258.308 72.3718C265.254 72.3718 270.906 66.7201 270.906 59.7738C270.906 59.6034 270.833 59.4435 270.709 59.3348L270.706 59.3325L253.947 44.4677L245.711 59.9422ZM245.711 59.9422L245.64 59.827M245.711 59.9422L245.64 59.827M245.64 59.827L236.643 45.2208M245.64 59.827L236.643 45.2208M236.643 45.2208C236.643 45.2206 236.643 45.2204 236.642 45.2202M236.643 45.2208L236.642 45.2202M236.642 45.2202C236.53 45.0358 236.526 44.8069 236.63 44.6215C236.734 44.4342 236.932 44.3183 237.146 44.3183H253.555C253.698 44.3183 253.838 44.3711 253.947 44.4674L236.642 45.2202Z" fill="#272A2E" stroke="url(#paint7_linear_1_72)"/>
<path d="M197.77 59.4645L197.77 59.4639L206.926 44.5991C207.034 44.424 207.225 44.3171 207.431 44.3171H222.287C222.613 44.3171 222.879 44.5822 222.879 44.9086V59.7737C222.879 66.7199 217.227 72.3716 210.281 72.3716C203.334 72.3716 197.683 66.7199 197.683 59.7737C197.683 59.6632 197.713 59.5557 197.77 59.4645Z" fill="#272A2E" stroke="url(#paint8_linear_1_72)"/>
<path d="M190.642 44.4661L190.643 44.4654C190.75 44.3698 190.889 44.317 191.035 44.317H207.444C207.657 44.317 207.855 44.4329 207.96 44.6202C208.064 44.8059 208.06 45.0358 207.948 45.2185C207.948 45.2187 207.947 45.2188 207.947 45.2189L198.95 59.8257L198.879 59.9408L198.875 60.076C198.714 66.8837 193.126 72.3715 186.281 72.3715C179.334 72.3715 173.683 66.7198 173.683 59.7736C173.683 59.6044 173.756 59.4426 173.881 59.3312C173.881 59.3312 173.881 59.3311 173.881 59.3311L190.642 44.4661Z" fill="#272A2E" stroke="url(#paint9_linear_1_72)"/>
<path d="M270.326 60.866H174.274C173.672 60.866 173.183 60.377 173.183 59.7745C173.183 59.172 173.672 58.683 174.274 58.683H270.326C270.929 58.683 271.417 59.172 271.417 59.7745C271.417 60.377 270.929 60.866 270.326 60.866Z" fill="url(#paint10_linear_1_72)"/>
<path fill-rule="evenodd" clip-rule="evenodd" d="M203.287 30.0441L196.07 30.0441C193.37 30.0441 191.173 32.3275 191.173 35.1349V42.7295C191.173 43.332 191.643 43.821 192.223 43.821H222.083C218.908 43.7745 215.912 42.9926 213.256 41.638H193.273V35.1349C193.273 33.5314 194.528 32.2271 196.07 32.2271H204.157C203.826 31.5209 203.535 30.7922 203.287 30.0441ZM231.51 41.638H251.496V35.1349C251.496 33.5314 250.242 32.2271 248.699 32.2271H240.61C240.94 31.5209 241.231 30.7922 241.479 30.0441L248.699 30.0441C251.399 30.0441 253.596 32.3275 253.596 35.1349V42.7295C253.596 43.332 253.126 43.821 252.546 43.821H222.684C225.858 43.7745 228.855 42.9926 231.51 41.638Z" fill="white" fill-opacity="0.08"/>
<path d="M224.732 36.7418C224.732 38.0869 223.641 39.1773 222.296 39.1773C220.95 39.1773 219.86 38.0869 219.86 36.7418C219.86 35.3968 220.95 34.3064 222.296 34.3064C223.641 34.3064 224.732 35.3968 224.732 36.7418Z" fill="url(#paint11_linear_1_72)"/>
<path d="M224.731 10.1429C224.731 11.4879 223.641 12.5783 222.295 12.5783C220.95 12.5783 219.859 11.4879 219.859 10.1429C219.859 8.79782 220.95 7.70744 222.295 7.70744C223.641 7.70744 224.731 8.79782 224.731 10.1429Z" fill="url(#paint12_linear_1_72)"/>
<path d="M224.732 4.18934C224.732 5.53439 223.642 6.62477 222.296 6.62477C220.951 6.62477 219.86 5.53439 219.86 4.18934C219.86 2.84429 220.951 1.75391 222.296 1.75391C223.642 1.75391 224.732 2.84429 224.732 4.18934Z" fill="url(#paint13_linear_1_72)"/>
<path d="M208.086 13.7805C208.086 15.1256 206.995 16.2159 205.65 16.2159C204.305 16.2159 203.214 15.1256 203.214 13.7805C203.214 12.4354 204.305 11.3451 205.65 11.3451C206.995 11.3451 208.086 12.4354 208.086 13.7805Z" fill="url(#paint14_linear_1_72)"/>
<path d="M238.942 16.2159C237.596 16.2159 236.506 15.1256 236.506 13.7805C236.506 12.4354 237.596 11.3451 238.942 11.3451C240.287 11.3451 241.378 12.4354 241.378 13.7805C241.378 15.1256 240.287 16.2159 238.942 16.2159Z" fill="url(#paint15_linear_1_72)"/>
<path d="M210.757 37.3582C210.757 38.7033 209.667 39.7936 208.321 39.7936C206.976 39.7936 205.885 38.7033 205.885 37.3582C205.885 36.0132 206.976 34.9228 208.321 34.9228C209.667 34.9228 210.757 36.0132 210.757 37.3582Z" fill="url(#paint16_linear_1_72)"/>
<path d="M236.244 39.7936C234.899 39.7936 233.808 38.7033 233.808 37.3582C233.808 36.0132 234.899 34.9228 236.244 34.9228C237.59 34.9228 238.68 36.0132 238.68 37.3582C238.68 38.7033 237.59 39.7936 236.244 39.7936Z" fill="url(#paint17_linear_1_72)"/>
<path fill-rule="evenodd" clip-rule="evenodd" d="M222.296 35.6994C229.023 35.6994 234.476 30.2475 234.476 23.5222C234.476 16.797 229.023 11.3451 222.296 11.3451C215.569 11.3451 210.116 16.797 210.116 23.5222C210.116 30.2475 215.569 35.6994 222.296 35.6994ZM222.296 37.7289C230.144 37.7289 236.506 31.3684 236.506 23.5222C236.506 15.6761 230.144 9.31554 222.296 9.31554C214.448 9.31554 208.086 15.6761 208.086 23.5222C208.086 31.3684 214.448 37.7289 222.296 37.7289Z" fill="url(#paint18_linear_1_72)"/>
<path fill-rule="evenodd" clip-rule="evenodd" d="M222.296 41.788C232.386 41.788 240.566 33.6101 240.566 23.5222C240.566 13.4343 232.386 5.25648 222.296 5.25648C212.206 5.25648 204.026 13.4343 204.026 23.5222C204.026 33.6101 212.206 41.788 222.296 41.788ZM222.296 43.8175C233.507 43.8175 242.596 34.731 242.596 23.5222C242.596 12.3135 233.507 3.22696 222.296 3.22696C211.084 3.22696 201.996 12.3135 201.996 23.5222C201.996 34.731 211.084 43.8175 222.296 43.8175Z" fill="url(#paint19_linear_1_72)"/>
<path d="M218.236 19.2107H220.336L224.509 25.0967V19.2107H226.356V27.8337H224.256L220.083 21.8548V27.8337H218.236V19.2107Z" fill="url(#paint20_linear_1_72)"/>
</g>
<g filter="url(#filter5_d_1_72)">
<path d="M95.3313 51.754H42.8794C41.933 51.7468 41.0277 51.3657 40.3611 50.6939C39.6944 50.0221 39.3203 49.1139 39.3203 48.1675V20.3337C39.3221 19.3884 39.697 18.4821 40.3635 17.8117C41.03 17.1414 41.9341 16.7613 42.8794 16.754H95.3313C96.2814 16.7558 97.1919 17.1345 97.863 17.8069C98.5341 18.4794 98.911 19.3906 98.911 20.3406V48.1675C98.911 49.1175 98.5341 50.0287 97.863 50.7011C97.1919 51.3735 96.2814 51.7522 95.3313 51.754Z" fill="#272A2E"/>
<path d="M42.8813 51.254L95.3304 51.254L95.3313 51.254M42.8813 51.254L95.3313 16.754C96.2814 16.7558 97.1919 17.1345 97.863 17.8069C98.5341 18.4794 98.911 19.3906 98.911 20.3406V48.1675C98.911 49.1175 98.5341 50.0287 97.863 50.7011C97.1919 51.3735 96.2814 51.7522 95.3313 51.754V51.254M42.8813 51.254C42.0675 51.2473 41.2893 50.9194 40.716 50.3417C40.1422 49.7635 39.8203 48.982 39.8203 48.1675V20.3342C39.822 19.5209 40.1446 18.7411 40.7181 18.1643C41.2912 17.5878 42.0686 17.2607 42.8814 17.254H95.3308M42.8813 51.254C42.882 51.254 42.8826 51.254 42.8832 51.254L42.8794 51.754L95.3308 17.254M95.3313 51.254C96.1486 51.2522 96.9318 50.9264 97.5091 50.3479C98.0867 49.7692 98.411 48.985 98.411 48.1675V20.3406C98.411 19.523 98.0867 18.7388 97.5091 18.1602C96.9316 17.5816 96.1483 17.2557 95.3308 17.254M95.3313 51.254L95.3308 17.254" stroke="white" stroke-opacity="0.08"/>
<path d="M69.885 27.549H92.5257" stroke="white" stroke-opacity="0.08" stroke-width="3" stroke-linecap="round"/>
<path d="M69.885 34.254H92.5257" stroke="white" stroke-opacity="0.08" stroke-width="3" stroke-linecap="round"/>
<path d="M69.885 40.9588H92.5257" stroke="white" stroke-opacity="0.08" stroke-width="3" stroke-linecap="round"/>
<path d="M54.6044 44.3469C60.1596 44.3469 64.663 39.8279 64.663 34.2534C64.663 28.679 60.1596 24.16 54.6044 24.16C49.0492 24.16 44.5458 28.679 44.5458 34.2534C44.5458 39.8279 49.0492 44.3469 54.6044 44.3469Z" fill="white" fill-opacity="0.08"/>
<path fill-rule="evenodd" clip-rule="evenodd" d="M52.1215 35.3683C52.7311 35.9991 53.562 36.3683 54.4387 36.3978C54.521 36.3874 54.6044 36.3874 54.6868 36.3978C55.5747 36.3668 56.4149 35.9881 57.0262 35.3433C57.6375 34.6986 57.971 33.8394 57.9547 32.9511C57.9384 32.0628 57.5737 31.2164 56.9392 30.5945C56.3047 29.9726 55.4512 29.6249 54.5627 29.6265C52.6812 29.6265 51.1719 31.1461 51.1719 33.0173C51.1714 33.8945 51.5119 34.7375 52.1215 35.3683ZM57.9372 37.3236C56.0922 36.089 53.0532 36.089 51.1945 37.3236C48.292 39.2767 45.3686 44.3476 54.6473 44.3476C63.9259 44.3476 60.8268 39.257 57.9372 37.3236Z" fill="url(#paint21_linear_1_72)"/>
<path d="M95.3313 111.246H42.8794C41.933 111.239 41.0277 110.858 40.3611 110.186C39.6944 109.514 39.3203 108.606 39.3203 107.66V79.8262C39.3221 78.8809 39.697 77.9745 40.3635 77.3042C41.03 76.6338 41.9341 76.2537 42.8794 76.2465H95.3313C96.2814 76.2483 97.1919 76.627 97.863 77.2994C98.5341 77.9718 98.911 78.883 98.911 79.833V107.66C98.911 108.61 98.5341 109.521 97.863 110.194C97.1919 110.866 96.2814 111.245 95.3313 111.246Z" fill="#272A2E"/>
<path d="M42.8813 110.746L95.3304 110.746L95.3313 110.746M42.8813 110.746L95.3313 76.2465C96.2814 76.2483 97.1919 76.627 97.863 77.2994C98.5341 77.9718 98.911 78.883 98.911 79.833V107.66C98.911 108.61 98.5341 109.521 97.863 110.194C97.1919 110.866 96.2814 111.245 95.3313 111.246V110.746M42.8813 110.746C42.0675 110.74 41.2893 110.412 40.716 109.834C40.1422 109.256 39.8203 108.474 39.8203 107.66V79.8266C39.822 79.0133 40.1446 78.2335 40.7181 77.6567C41.2912 77.0802 42.0686 76.7532 42.8814 76.7465H95.3308M42.8813 110.746C42.882 110.746 42.8826 110.746 42.8832 110.746L42.8794 111.246L95.3308 76.7465M95.3313 110.746C96.1486 110.745 96.9318 110.419 97.5091 109.84C98.0867 109.262 98.411 108.477 98.411 107.66V79.833C98.411 79.0154 98.0867 78.2313 97.5091 77.6526C96.9316 77.074 96.1483 76.7481 95.3308 76.7465M95.3313 110.746L95.3308 76.7465" stroke="white" stroke-opacity="0.08"/>
<path d="M69.885 87.0415H92.5257" stroke="white" stroke-opacity="0.08" stroke-width="3" stroke-linecap="round"/>
<path d="M69.885 93.7465H92.5257" stroke="white" stroke-opacity="0.08" stroke-width="3" stroke-linecap="round"/>
<path d="M69.885 100.451H92.5257" stroke="white" stroke-opacity="0.08" stroke-width="3" stroke-linecap="round"/>
<path d="M54.6044 103.839C60.1596 103.839 64.663 99.3203 64.663 93.7459C64.663 88.1714 60.1596 83.6524 54.6044 83.6524C49.0492 83.6524 44.5458 88.1714 44.5458 93.7459C44.5458 99.3203 49.0492 103.839 54.6044 103.839Z" fill="white" fill-opacity="0.08"/>
<path fill-rule="evenodd" clip-rule="evenodd" d="M52.1215 94.8608C52.7311 95.4916 53.562 95.8607 54.4387 95.8902C54.521 95.8799 54.6044 95.8799 54.6868 95.8902C55.5747 95.8592 56.4149 95.4805 57.0262 94.8358C57.6375 94.191 57.971 93.3319 57.9547 92.4435C57.9384 91.5552 57.5737 90.7088 56.9392 90.0869C56.3047 89.465 55.4512 89.1173 54.5627 89.1189C52.6812 89.1189 51.1719 90.6386 51.1719 92.5097C51.1714 93.3869 51.5119 94.23 52.1215 94.8608ZM57.9372 96.816C56.0922 95.5814 53.0532 95.5814 51.1945 96.816C48.292 98.7691 45.3686 103.84 54.6473 103.84C63.9259 103.84 60.8268 98.7494 57.9372 96.816Z" fill="url(#paint22_linear_1_72)"/>
</g>
</g>
<defs>
<filter id="filter0_d_1_72" x="96.0244" y="22.4472" width="252.551" height="83.1063" filterUnits="userSpaceOnUse" color-interpolation-filters="sRGB">
<feFlood flood-opacity="0" result="BackgroundImageFix"/>
<feColorMatrix in="SourceAlpha" type="matrix" values="0 0 0 0 0 0 0 0 0 0 0 0 0 0 0 0 0 0 127 0" result="hardAlpha"/>
<feOffset/>
<feGaussianBlur stdDeviation="8"/>
<feComposite in2="hardAlpha" operator="out"/>
<feColorMatrix type="matrix" values="0 0 0 0 0 0 0 0 0 0 0 0 0 0 0 0 0 0 0.64 0"/>
<feBlend mode="normal" in2="BackgroundImageFix" result="effect1_dropShadow_1_72"/>
<feBlend mode="normal" in="SourceGraphic" in2="effect1_dropShadow_1_72" result="shape"/>
</filter>
<filter id="filter1_d_1_72" x="96.0244" y="22.447" width="252.551" height="83.1063" filterUnits="userSpaceOnUse" color-interpolation-filters="sRGB">
<feFlood flood-opacity="0" result="BackgroundImageFix"/>
<feColorMatrix in="SourceAlpha" type="matrix" values="0 0 0 0 0 0 0 0 0 0 0 0 0 0 0 0 0 0 127 0" result="hardAlpha"/>
<feOffset/>
<feGaussianBlur stdDeviation="8"/>
<feComposite in2="hardAlpha" operator="out"/>
<feColorMatrix type="matrix" values="0 0 0 0 0 0 0 0 0 0 0 0 0 0 0 0 0 0 0.64 0"/>
<feBlend mode="normal" in2="BackgroundImageFix" result="effect1_dropShadow_1_72"/>
<feBlend mode="normal" in="SourceGraphic" in2="effect1_dropShadow_1_72" result="shape"/>
</filter>
<filter id="filter2_d_1_72" x="297.511" y="-33.3985" width="184.168" height="206.391" filterUnits="userSpaceOnUse" color-interpolation-filters="sRGB">
<feFlood flood-opacity="0" result="BackgroundImageFix"/>
<feColorMatrix in="SourceAlpha" type="matrix" values="0 0 0 0 0 0 0 0 0 0 0 0 0 0 0 0 0 0 127 0" result="hardAlpha"/>
<feOffset/>
<feGaussianBlur stdDeviation="24"/>
<feColorMatrix type="matrix" values="0 0 0 0 0 0 0 0 0 0 0 0 0 0 0 0 0 0 0.64 0"/>
<feBlend mode="normal" in2="BackgroundImageFix" result="effect1_dropShadow_1_72"/>
<feBlend mode="normal" in="SourceGraphic" in2="effect1_dropShadow_1_72" result="shape"/>
</filter>
<filter id="filter3_d_1_72" x="369.564" y="60.8773" width="88.2308" height="88.2308" filterUnits="userSpaceOnUse" color-interpolation-filters="sRGB">
<feFlood flood-opacity="0" result="BackgroundImageFix"/>
<feColorMatrix in="SourceAlpha" type="matrix" values="0 0 0 0 0 0 0 0 0 0 0 0 0 0 0 0 0 0 127 0" result="hardAlpha"/>
<feOffset/>
<feGaussianBlur stdDeviation="12.0577"/>
<feColorMatrix type="matrix" values="0 0 0 0 0 0 0 0 0 0 0 0 0 0 0 0 0 0 0.64 0"/>
<feBlend mode="normal" in2="BackgroundImageFix" result="effect1_dropShadow_1_72"/>
<feBlend mode="normal" in="SourceGraphic" in2="effect1_dropShadow_1_72" result="shape"/>
</filter>
<filter id="filter4_d_1_72" x="157.183" y="-14.2461" width="130.235" height="142" filterUnits="userSpaceOnUse" color-interpolation-filters="sRGB">
<feFlood flood-opacity="0" result="BackgroundImageFix"/>
<feColorMatrix in="SourceAlpha" type="matrix" values="0 0 0 0 0 0 0 0 0 0 0 0 0 0 0 0 0 0 127 0" result="hardAlpha"/>
<feOffset/>
<feGaussianBlur stdDeviation="8"/>
<feComposite in2="hardAlpha" operator="out"/>
<feColorMatrix type="matrix" values="0 0 0 0 0 0 0 0 0 0 0 0 0 0 0 0 0 0 0.64 0"/>
<feBlend mode="normal" in2="BackgroundImageFix" result="effect1_dropShadow_1_72"/>
<feBlend mode="normal" in="SourceGraphic" in2="effect1_dropShadow_1_72" result="shape"/>
</filter>
<filter id="filter5_d_1_72" x="-8.67969" y="-31.246" width="155.591" height="190.492" filterUnits="userSpaceOnUse" color-interpolation-filters="sRGB">
<feFlood flood-opacity="0" result="BackgroundImageFix"/>
<feColorMatrix in="SourceAlpha" type="matrix" values="0 0 0 0 0 0 0 0 0 0 0 0 0 0 0 0 0 0 127 0" result="hardAlpha"/>
<feOffset/>
<feGaussianBlur stdDeviation="24"/>
<feColorMatrix type="matrix" values="0 0 0 0 0 0 0 0 0 0 0 0 0 0 0 0 0 0 0.64 0"/>
<feBlend mode="normal" in2="BackgroundImageFix" result="effect1_dropShadow_1_72"/>
<feBlend mode="normal" in="SourceGraphic" in2="effect1_dropShadow_1_72" result="shape"/>
</filter>
<linearGradient id="paint0_linear_1_72" x1="379.489" y1="47.9533" x2="399.966" y2="47.9533" gradientUnits="userSpaceOnUse">
<stop stop-color="#FFA800"/>
<stop offset="1" stop-color="#FF5107"/>
</linearGradient>
<linearGradient id="paint1_linear_1_72" x1="365.169" y1="65.7427" x2="369.871" y2="65.7427" gradientUnits="userSpaceOnUse">
<stop stop-color="#FFA800"/>
<stop offset="1" stop-color="#FF5107"/>
</linearGradient>
<linearGradient id="paint2_linear_1_72" x1="366.073" y1="92.4336" x2="373.09" y2="92.4336" gradientUnits="userSpaceOnUse">
<stop stop-color="#FFA800"/>
<stop offset="1" stop-color="#FF5107"/>
</linearGradient>
<linearGradient id="paint3_linear_1_72" x1="408.419" y1="104.992" x2="419.435" y2="104.992" gradientUnits="userSpaceOnUse">
<stop stop-color="#FFA800"/>
<stop offset="1" stop-color="#FF5107"/>
</linearGradient>
<linearGradient id="paint4_linear_1_72" x1="179.092" y1="78.0849" x2="265.503" y2="78.0849" gradientUnits="userSpaceOnUse">
<stop stop-color="#FFA800"/>
<stop offset="1" stop-color="#FF5107"/>
</linearGradient>
<linearGradient id="paint5_linear_1_72" x1="180.311" y1="98.723" x2="264.438" y2="98.723" gradientUnits="userSpaceOnUse">
<stop stop-color="#FFA800"/>
<stop offset="1" stop-color="#FF5107"/>
</linearGradient>
<linearGradient id="paint6_linear_1_72" x1="221.215" y1="58.3442" x2="247.411" y2="58.3442" gradientUnits="userSpaceOnUse">
<stop stop-color="#FFA800"/>
<stop offset="1" stop-color="#FF5107"/>
</linearGradient>
<linearGradient id="paint7_linear_1_72" x1="236.055" y1="58.345" x2="271.406" y2="58.345" gradientUnits="userSpaceOnUse">
<stop stop-color="#FFA800"/>
<stop offset="1" stop-color="#FF5107"/>
</linearGradient>
<linearGradient id="paint8_linear_1_72" x1="197.183" y1="58.3443" x2="223.379" y2="58.3443" gradientUnits="userSpaceOnUse">
<stop stop-color="#FFA800"/>
<stop offset="1" stop-color="#FF5107"/>
</linearGradient>
<linearGradient id="paint9_linear_1_72" x1="173.183" y1="58.3442" x2="208.535" y2="58.3442" gradientUnits="userSpaceOnUse">
<stop stop-color="#FFA800"/>
<stop offset="1" stop-color="#FF5107"/>
</linearGradient>
<linearGradient id="paint10_linear_1_72" x1="173.183" y1="59.7745" x2="271.417" y2="59.7746" gradientUnits="userSpaceOnUse">
<stop stop-color="#FFA800"/>
<stop offset="1" stop-color="#FF5107"/>
</linearGradient>
<linearGradient id="paint11_linear_1_72" x1="201.996" y1="22.7857" x2="242.596" y2="22.7857" gradientUnits="userSpaceOnUse">
<stop stop-color="#FFA800"/>
<stop offset="1" stop-color="#FF5107"/>
</linearGradient>
<linearGradient id="paint12_linear_1_72" x1="201.996" y1="22.7857" x2="242.596" y2="22.7857" gradientUnits="userSpaceOnUse">
<stop stop-color="#FFA800"/>
<stop offset="1" stop-color="#FF5107"/>
</linearGradient>
<linearGradient id="paint13_linear_1_72" x1="201.996" y1="22.7857" x2="242.596" y2="22.7857" gradientUnits="userSpaceOnUse">
<stop stop-color="#FFA800"/>
<stop offset="1" stop-color="#FF5107"/>
</linearGradient>
<linearGradient id="paint14_linear_1_72" x1="201.996" y1="22.7857" x2="242.596" y2="22.7857" gradientUnits="userSpaceOnUse">
<stop stop-color="#FFA800"/>
<stop offset="1" stop-color="#FF5107"/>
</linearGradient>
<linearGradient id="paint15_linear_1_72" x1="201.996" y1="22.7857" x2="242.596" y2="22.7857" gradientUnits="userSpaceOnUse">
<stop stop-color="#FFA800"/>
<stop offset="1" stop-color="#FF5107"/>
</linearGradient>
<linearGradient id="paint16_linear_1_72" x1="201.996" y1="22.7857" x2="242.596" y2="22.7857" gradientUnits="userSpaceOnUse">
<stop stop-color="#FFA800"/>
<stop offset="1" stop-color="#FF5107"/>
</linearGradient>
<linearGradient id="paint17_linear_1_72" x1="201.996" y1="22.7857" x2="242.596" y2="22.7857" gradientUnits="userSpaceOnUse">
<stop stop-color="#FFA800"/>
<stop offset="1" stop-color="#FF5107"/>
</linearGradient>
<linearGradient id="paint18_linear_1_72" x1="201.996" y1="22.7857" x2="242.596" y2="22.7857" gradientUnits="userSpaceOnUse">
<stop stop-color="#FFA800"/>
<stop offset="1" stop-color="#FF5107"/>
</linearGradient>
<linearGradient id="paint19_linear_1_72" x1="201.996" y1="22.7857" x2="242.596" y2="22.7857" gradientUnits="userSpaceOnUse">
<stop stop-color="#FFA800"/>
<stop offset="1" stop-color="#FF5107"/>
</linearGradient>
<linearGradient id="paint20_linear_1_72" x1="201.996" y1="22.7857" x2="242.596" y2="22.7857" gradientUnits="userSpaceOnUse">
<stop stop-color="#FFA800"/>
<stop offset="1" stop-color="#FF5107"/>
</linearGradient>
<linearGradient id="paint21_linear_1_72" x1="48.3508" y1="36.987" x2="60.8556" y2="36.987" gradientUnits="userSpaceOnUse">
<stop stop-color="#FFA800"/>
<stop offset="1" stop-color="#FF5107"/>
</linearGradient>
<linearGradient id="paint22_linear_1_72" x1="48.3508" y1="96.4794" x2="60.8556" y2="96.4794" gradientUnits="userSpaceOnUse">
<stop stop-color="#FFA800"/>
<stop offset="1" stop-color="#FF5107"/>
</linearGradient>
<clipPath id="clip0_1_72">
<rect width="440" height="128" fill="white"/>
</clipPath>
</defs>
</svg>
