<svg width="442" height="130" viewBox="0 0 442 130" fill="none" xmlns="http://www.w3.org/2000/svg">
<g clip-path="url(#clip0_1_2)">
<mask id="mask0_1_2" style="mask-type:alpha" maskUnits="userSpaceOnUse" x="0" y="0" width="442" height="130">
<rect x="1" y="1" width="440" height="128" rx="4" fill="#C4C4C4" stroke="black"/>
</mask>
<g mask="url(#mask0_1_2)">
<path d="M1 5H4.72881V43.0822H20.887V46.589H33.6271V64.1233H46.3672V81.6575H69.0508V84.463H122.808V87.7945H184.955V93.0548H202.045V119.005H209.814V122.512H221V129H1V5Z" fill="url(#green)" stroke="url(#paint1_linear_1_2)"/>
<path d="M441 129H221V125.339H232.186V123.361H239.955V108.719H257.045V105.751H319.192V93.3022H342.812V91.7193H395.633V88.8719H408.373V78.9787H421.113V77L441 77V129Z" fill="url(#red)" stroke="url(#paint3_linear_1_2)"/>
<path d="M298.031 1V129" stroke="url(#paint4_linear_1_2)" stroke-dasharray="2 2"/>
<rect x="294.031" y="101" width="8" height="8" rx="4" fill="url(#paint5_linear_1_2)"/>
<path d="M157.088 1V129" stroke="url(#paint6_linear_1_2)" stroke-dasharray="2 2"/>
<rect x="153.088" y="83" width="8" height="8" rx="4" fill="url(#paint7_linear_1_2)"/>
<g filter="url(#filter0_d_1_2)">
<rect x="180" y="35" width="82" height="40" rx="4" fill="#272A2E"/>
<rect x="180" y="35" width="82" height="40" rx="4" stroke="white" stroke-opacity="0.08"/>
</g>
<rect x="203" y="44" width="49" height="8" rx="4" fill="white" fill-opacity="0.06"/>
<rect x="203" y="58" width="49" height="8" rx="4" fill="white" fill-opacity="0.06"/>
<rect x="190" y="44" width="8" height="8" rx="4" fill="url(#paint8_linear_1_2)"/>
<rect x="190" y="58" width="8" height="8" rx="4" fill="url(#paint9_linear_1_2)"/>
</g>
<rect x="1" y="1" width="440" height="128" stroke="black"/>
</g>
<rect x="1" y="1" width="440" height="128" stroke="black"/>
<defs>
<filter id="filter0_d_1_2" x="131.5" y="-13.5" width="179" height="137" filterUnits="userSpaceOnUse" color-interpolation-filters="sRGB">
<feFlood flood-opacity="0" result="BackgroundImageFix"/>
<feColorMatrix in="SourceAlpha" type="matrix" values="0 0 0 0 0 0 0 0 0 0 0 0 0 0 0 0 0 0 127 0" result="hardAlpha"/>
<feOffset/>
<feGaussianBlur stdDeviation="24"/>
<feColorMatrix type="matrix" values="0 0 0 0 0 0 0 0 0 0 0 0 0 0 0 0 0 0 0.64 0"/>
<feBlend mode="normal" in2="BackgroundImageFix" result="effect1_dropShadow_1_2"/>
<feBlend mode="normal" in="SourceGraphic" in2="effect1_dropShadow_1_2" result="shape"/>
</filter>
<linearGradient id="green" x1="111.389" y1="1" x2="111.76" y2="153.499" gradientUnits="userSpaceOnUse">
<stop offset="0.275901" stop-color="#01AF92"/>
<stop offset="1" stop-color="#1A1D1F" stop-opacity="0"/>
</linearGradient>
<linearGradient id="paint1_linear_1_2" x1="221" y1="68.6757" x2="1" y2="68.6757" gradientUnits="userSpaceOnUse">
<stop stop-color="#00A862"/>
<stop offset="1" stop-color="#00AF92"/>
</linearGradient>
<linearGradient id="red" x1="331" y1="43.2703" x2="331" y2="142" gradientUnits="userSpaceOnUse">
<stop offset="0.342869" stop-color="#FE500D"/>
<stop offset="1" stop-color="#1A1D1F" stop-opacity="0"/>
</linearGradient>
<linearGradient id="paint3_linear_1_2" x1="221" y1="103.703" x2="441" y2="103.703" gradientUnits="userSpaceOnUse">
<stop stop-color="#E84747"/>
<stop offset="1" stop-color="#FF5107"/>
</linearGradient>
<linearGradient id="paint4_linear_1_2" x1="299.031" y1="66.7297" x2="298.031" y2="66.7297" gradientUnits="userSpaceOnUse">
<stop stop-color="#E84747"/>
<stop offset="1" stop-color="#FF5107"/>
</linearGradient>
<linearGradient id="paint5_linear_1_2" x1="302.031" y1="105.108" x2="294.031" y2="105.108" gradientUnits="userSpaceOnUse">
<stop stop-color="#E84747"/>
<stop offset="1" stop-color="#FF5107"/>
</linearGradient>
<linearGradient id="paint6_linear_1_2" x1="158.088" y1="66.7297" x2="157.088" y2="66.7297" gradientUnits="userSpaceOnUse">
<stop stop-color="#00A862"/>
<stop offset="1" stop-color="#00AF92"/>
</linearGradient>
<linearGradient id="paint7_linear_1_2" x1="161.088" y1="87.1081" x2="153.088" y2="87.1081" gradientUnits="userSpaceOnUse">
<stop stop-color="#00A862"/>
<stop offset="1" stop-color="#00AF92"/>
</linearGradient>
<linearGradient id="paint8_linear_1_2" x1="198" y1="48.1081" x2="190" y2="48.1081" gradientUnits="userSpaceOnUse">
<stop stop-color="#00A862"/>
<stop offset="1" stop-color="#00AF92"/>
</linearGradient>
<linearGradient id="paint9_linear_1_2" x1="198" y1="62.1081" x2="190" y2="62.1081" gradientUnits="userSpaceOnUse">
<stop stop-color="#E84747"/>
<stop offset="1" stop-color="#FF5107"/>
</linearGradient>
<clipPath id="clip0_1_2">
<rect x="1" y="1" width="440" height="128" fill="white"/>
</clipPath>
</defs>
</svg>
