<svg width="440" height="128" viewBox="0 0 440 128" fill="none" xmlns="http://www.w3.org/2000/svg">
<g clip-path="url(#clip0_1_2)">
<mask id="mask0_1_2" style="mask-type:alpha" maskUnits="userSpaceOnUse" x="0" y="0" width="440" height="128">
<rect width="440" height="128" rx="4" fill="#C4C4C4"/>
</mask>
<g mask="url(#mask0_1_2)">
<path d="M0 3.5H-0.5V4V128V128.5H0H220H220.5V128V121.512V121.012H220H209.314V118.005V117.505H208.814H201.545V92.0548V91.5548H201.045H184.455V86.7945V86.2945H183.955H122.308V83.463V82.963H121.808H68.5508V80.6575V80.1575H68.0508H45.8672V63.1233V62.6233H45.3672H33.1271V45.589V45.089H32.6271H20.387V42.0822V41.5822H19.887H4.22881V4V3.5H3.72881H0Z" fill="url(#paint0_linear_1_2)" stroke="url(#paint1_linear_1_2)"/>
<path d="M220 128.5H219.5V128V124.339V123.839H220H230.686V122.361V121.861H231.186H238.455V107.719V107.219H238.955H255.545V104.751V104.251H256.045H317.692V92.3022V91.8022H318.192H341.312V90.7193V90.2193H341.812H394.133V87.8719V87.3719H394.633H406.873V77.9787V77.4787H407.373H419.613V76V75.5L420.113 75.5L440 75.5L440.5 75.5V76V128V128.5H440H220Z" fill="url(#paint2_linear_1_2)" stroke="url(#paint3_linear_1_2)"/>
<path d="M297.031 0V128" stroke="url(#paint4_linear_1_2)" stroke-dasharray="2 2"/>
<rect x="293.031" y="100" width="8" height="8" rx="4" fill="url(#paint5_linear_1_2)"/>
<path d="M156.088 0V128" stroke="url(#paint6_linear_1_2)" stroke-dasharray="2 2"/>
<rect x="152.088" y="82" width="8" height="8" rx="4" fill="url(#paint7_linear_1_2)"/>
<g filter="url(#filter0_d_1_2)">
<rect x="179" y="34" width="82" height="40" rx="4" fill="#272A2E"/>
<rect x="179.5" y="34.5" width="81" height="39" rx="3.5" stroke="white" stroke-opacity="0.08"/>
</g>
<rect x="202" y="43" width="49" height="8" rx="4" fill="white" fill-opacity="0.06"/>
<rect x="202" y="57" width="49" height="8" rx="4" fill="white" fill-opacity="0.06"/>
<rect x="189" y="43" width="8" height="8" rx="4" fill="url(#paint8_linear_1_2)"/>
<rect x="189" y="57" width="8" height="8" rx="4" fill="url(#paint9_linear_1_2)"/>
</g>
</g>
<defs>
<filter id="filter0_d_1_2" x="131" y="-14" width="178" height="136" filterUnits="userSpaceOnUse" color-interpolation-filters="sRGB">
<feFlood flood-opacity="0" result="BackgroundImageFix"/>
<feColorMatrix in="SourceAlpha" type="matrix" values="0 0 0 0 0 0 0 0 0 0 0 0 0 0 0 0 0 0 127 0" result="hardAlpha"/>
<feOffset/>
<feGaussianBlur stdDeviation="24"/>
<feColorMatrix type="matrix" values="0 0 0 0 0 0 0 0 0 0 0 0 0 0 0 0 0 0 0.64 0"/>
<feBlend mode="normal" in2="BackgroundImageFix" result="effect1_dropShadow_1_2"/>
<feBlend mode="normal" in="SourceGraphic" in2="effect1_dropShadow_1_2" result="shape"/>
</filter>
<linearGradient id="paint0_linear_1_2" x1="110.389" y1="-4.51209e-07" x2="110.76" y2="152.499" gradientUnits="userSpaceOnUse">
<stop offset="0.275901" stop-color="#01AF92"/>
<stop offset="1" stop-color="#1A1D1F" stop-opacity="0"/>
</linearGradient>
<linearGradient id="paint1_linear_1_2" x1="220" y1="67.6757" x2="2.74839e-06" y2="67.6757" gradientUnits="userSpaceOnUse">
<stop stop-color="#00A862"/>
<stop offset="1" stop-color="#00AF92"/>
</linearGradient>
<linearGradient id="paint2_linear_1_2" x1="330" y1="42.2703" x2="330" y2="141" gradientUnits="userSpaceOnUse">
<stop offset="0.342869" stop-color="#FE500D"/>
<stop offset="1" stop-color="#1A1D1F" stop-opacity="0"/>
</linearGradient>
<linearGradient id="paint3_linear_1_2" x1="220" y1="102.703" x2="440" y2="102.703" gradientUnits="userSpaceOnUse">
<stop stop-color="#E84747"/>
<stop offset="1" stop-color="#FF5107"/>
</linearGradient>
<linearGradient id="paint4_linear_1_2" x1="298.031" y1="65.7297" x2="297.031" y2="65.7297" gradientUnits="userSpaceOnUse">
<stop stop-color="#E84747"/>
<stop offset="1" stop-color="#FF5107"/>
</linearGradient>
<linearGradient id="paint5_linear_1_2" x1="301.031" y1="104.108" x2="293.031" y2="104.108" gradientUnits="userSpaceOnUse">
<stop stop-color="#E84747"/>
<stop offset="1" stop-color="#FF5107"/>
</linearGradient>
<linearGradient id="paint6_linear_1_2" x1="157.088" y1="65.7297" x2="156.088" y2="65.7297" gradientUnits="userSpaceOnUse">
<stop stop-color="#00A862"/>
<stop offset="1" stop-color="#00AF92"/>
</linearGradient>
<linearGradient id="paint7_linear_1_2" x1="160.088" y1="86.1081" x2="152.088" y2="86.1081" gradientUnits="userSpaceOnUse">
<stop stop-color="#00A862"/>
<stop offset="1" stop-color="#00AF92"/>
</linearGradient>
<linearGradient id="paint8_linear_1_2" x1="197" y1="47.1081" x2="189" y2="47.1081" gradientUnits="userSpaceOnUse">
<stop stop-color="#00A862"/>
<stop offset="1" stop-color="#00AF92"/>
</linearGradient>
<linearGradient id="paint9_linear_1_2" x1="197" y1="61.1081" x2="189" y2="61.1081" gradientUnits="userSpaceOnUse">
<stop stop-color="#E84747"/>
<stop offset="1" stop-color="#FF5107"/>
</linearGradient>
<clipPath id="clip0_1_2">
<rect width="440" height="128" fill="white"/>
</clipPath>
</defs>
</svg>
