<svg width="264" height="126" viewBox="0 0 264 126" fill="none" xmlns="http://www.w3.org/2000/svg">
<g clip-path="url(#clip0_52518_47876)">
<g opacity="0.5" filter="url(#filter0_f_52518_47876)">
<rect x="80" y="19" width="236" height="131" rx="8" fill="white" fill-opacity="0.06"/>
<rect x="80.5" y="19.5" width="235" height="130" rx="7.5" stroke="white" stroke-opacity="0.08"/>
<rect x="92" y="35" width="212" height="59" rx="4" fill="white" fill-opacity="0.06"/>
<path d="M110.952 50.687V52H105.31V50.687H107.338V44.33H105.362V43.29L107.65 42.77H108.924V50.687H110.952ZM114.047 51.818C113.847 52.0087 113.592 52.104 113.28 52.104C112.968 52.104 112.708 52.0087 112.5 51.818C112.3 51.6187 112.201 51.363 112.201 51.051C112.201 50.7477 112.3 50.4963 112.5 50.297C112.708 50.089 112.968 49.985 113.28 49.985C113.583 49.985 113.834 50.089 114.034 50.297C114.242 50.4963 114.346 50.7477 114.346 51.051C114.346 51.363 114.246 51.6187 114.047 51.818ZM118.65 52.195C117.576 52.195 116.752 51.7617 116.18 50.895C115.617 50.0197 115.335 48.8497 115.335 47.385C115.335 45.9203 115.617 44.7547 116.18 43.888C116.752 43.0127 117.576 42.575 118.65 42.575C119.716 42.575 120.535 43.0127 121.107 43.888C121.679 44.7547 121.965 45.9203 121.965 47.385C121.965 48.8497 121.679 50.0197 121.107 50.895C120.535 51.7617 119.716 52.195 118.65 52.195ZM120.353 47.385C120.353 45.175 119.786 44.07 118.65 44.07C117.515 44.07 116.947 45.175 116.947 47.385C116.947 49.595 117.515 50.7 118.65 50.7C119.786 50.7 120.353 49.595 120.353 47.385ZM126.217 52.195C125.142 52.195 124.319 51.7617 123.747 50.895C123.183 50.0197 122.902 48.8497 122.902 47.385C122.902 45.9203 123.183 44.7547 123.747 43.888C124.319 43.0127 125.142 42.575 126.217 42.575C127.283 42.575 128.102 43.0127 128.674 43.888C129.246 44.7547 129.532 45.9203 129.532 47.385C129.532 48.8497 129.246 50.0197 128.674 50.895C128.102 51.7617 127.283 52.195 126.217 52.195ZM127.92 47.385C127.92 45.175 127.352 44.07 126.217 44.07C125.081 44.07 124.514 45.175 124.514 47.385C124.514 49.595 125.081 50.7 126.217 50.7C127.352 50.7 127.92 49.595 127.92 47.385Z" fill="#F5F5F7"/>
<path d="M107.926 65.125H107.341V64.126C106.663 64.09 106.144 63.88 105.784 63.496C105.43 63.106 105.247 62.626 105.235 62.056H106.315C106.339 62.35 106.435 62.593 106.603 62.785C106.777 62.971 107.023 63.085 107.341 63.127V61.228L106.954 61.111C105.94 60.805 105.433 60.202 105.433 59.302C105.433 58.816 105.607 58.405 105.955 58.069C106.309 57.733 106.771 57.541 107.341 57.493V56.485H107.926V57.493C108.526 57.553 108.991 57.772 109.321 58.15C109.651 58.522 109.822 58.987 109.834 59.545H108.745C108.733 59.293 108.658 59.074 108.52 58.888C108.382 58.696 108.184 58.57 107.926 58.51V60.274L108.133 60.328C108.721 60.49 109.15 60.73 109.42 61.048C109.696 61.366 109.834 61.771 109.834 62.263C109.834 62.755 109.663 63.169 109.321 63.505C108.985 63.841 108.52 64.042 107.926 64.108V65.125ZM106.522 59.266C106.522 59.494 106.579 59.662 106.693 59.77C106.813 59.878 107.029 59.992 107.341 60.112V58.483C107.089 58.513 106.888 58.597 106.738 58.735C106.594 58.873 106.522 59.05 106.522 59.266ZM108.727 62.272C108.727 62.056 108.664 61.879 108.538 61.741C108.418 61.597 108.214 61.48 107.926 61.39V63.109C108.172 63.067 108.367 62.974 108.511 62.83C108.655 62.686 108.727 62.5 108.727 62.272ZM114.892 63.091V64H110.986V63.091H112.39V58.69H111.022V57.97L112.606 57.61H113.488V63.091H114.892ZM116.026 62.749H117.223L116.485 65.179H115.531L116.026 62.749ZM120.168 57.475C120.852 57.475 121.401 57.697 121.815 58.141C122.229 58.579 122.436 59.125 122.436 59.779C122.436 60.469 122.241 61.156 121.851 61.84C121.461 62.524 120.915 63.244 120.213 64H118.863C119.805 63.082 120.477 62.254 120.879 61.516C120.603 61.702 120.294 61.795 119.952 61.795C119.334 61.795 118.839 61.591 118.467 61.183C118.095 60.775 117.909 60.271 117.909 59.671C117.909 59.059 118.119 58.54 118.539 58.114C118.965 57.688 119.508 57.475 120.168 57.475ZM119.34 58.78C119.13 59.008 119.025 59.305 119.025 59.671C119.025 60.037 119.13 60.334 119.34 60.562C119.556 60.79 119.832 60.904 120.168 60.904C120.504 60.904 120.777 60.79 120.987 60.562C121.203 60.334 121.311 60.037 121.311 59.671C121.311 59.305 121.203 59.008 120.987 58.78C120.777 58.552 120.504 58.438 120.168 58.438C119.832 58.438 119.556 58.552 119.34 58.78ZM125.406 57.475C126.09 57.475 126.639 57.697 127.053 58.141C127.467 58.579 127.674 59.125 127.674 59.779C127.674 60.469 127.479 61.156 127.089 61.84C126.699 62.524 126.153 63.244 125.451 64H124.101C125.043 63.082 125.715 62.254 126.117 61.516C125.841 61.702 125.532 61.795 125.19 61.795C124.572 61.795 124.077 61.591 123.705 61.183C123.333 60.775 123.147 60.271 123.147 59.671C123.147 59.059 123.357 58.54 123.777 58.114C124.203 57.688 124.746 57.475 125.406 57.475ZM124.578 58.78C124.368 59.008 124.263 59.305 124.263 59.671C124.263 60.037 124.368 60.334 124.578 60.562C124.794 60.79 125.07 60.904 125.406 60.904C125.742 60.904 126.015 60.79 126.225 60.562C126.441 60.334 126.549 60.037 126.549 59.671C126.549 59.305 126.441 59.008 126.225 58.78C126.015 58.552 125.742 58.438 125.406 58.438C125.07 58.438 124.794 58.552 124.578 58.78ZM130.644 57.475C131.328 57.475 131.877 57.697 132.291 58.141C132.705 58.579 132.912 59.125 132.912 59.779C132.912 60.469 132.717 61.156 132.327 61.84C131.937 62.524 131.391 63.244 130.689 64H129.339C130.281 63.082 130.953 62.254 131.355 61.516C131.079 61.702 130.77 61.795 130.428 61.795C129.81 61.795 129.315 61.591 128.943 61.183C128.571 60.775 128.385 60.271 128.385 59.671C128.385 59.059 128.595 58.54 129.015 58.114C129.441 57.688 129.984 57.475 130.644 57.475ZM129.816 58.78C129.606 59.008 129.501 59.305 129.501 59.671C129.501 60.037 129.606 60.334 129.816 60.562C130.032 60.79 130.308 60.904 130.644 60.904C130.98 60.904 131.253 60.79 131.463 60.562C131.679 60.334 131.787 60.037 131.787 59.671C131.787 59.305 131.679 59.008 131.463 58.78C131.253 58.552 130.98 58.438 130.644 58.438C130.308 58.438 130.032 58.552 129.816 58.78ZM134.955 63.874C134.817 64.006 134.64 64.072 134.424 64.072C134.208 64.072 134.028 64.006 133.884 63.874C133.746 63.736 133.677 63.559 133.677 63.343C133.677 63.133 133.746 62.959 133.884 62.821C134.028 62.677 134.208 62.605 134.424 62.605C134.634 62.605 134.808 62.677 134.946 62.821C135.09 62.959 135.162 63.133 135.162 63.343C135.162 63.559 135.093 63.736 134.955 63.874ZM138.142 64.135C137.398 64.135 136.828 63.835 136.432 63.235C136.042 62.629 135.847 61.819 135.847 60.805C135.847 59.791 136.042 58.984 136.432 58.384C136.828 57.778 137.398 57.475 138.142 57.475C138.88 57.475 139.447 57.778 139.843 58.384C140.239 58.984 140.437 59.791 140.437 60.805C140.437 61.819 140.239 62.629 139.843 63.235C139.447 63.835 138.88 64.135 138.142 64.135ZM139.321 60.805C139.321 59.275 138.928 58.51 138.142 58.51C137.356 58.51 136.963 59.275 136.963 60.805C136.963 62.335 137.356 63.1 138.142 63.1C138.928 63.1 139.321 62.335 139.321 60.805ZM143.381 64.135C142.637 64.135 142.067 63.835 141.671 63.235C141.281 62.629 141.086 61.819 141.086 60.805C141.086 59.791 141.281 58.984 141.671 58.384C142.067 57.778 142.637 57.475 143.381 57.475C144.119 57.475 144.686 57.778 145.082 58.384C145.478 58.984 145.676 59.791 145.676 60.805C145.676 61.819 145.478 62.629 145.082 63.235C144.686 63.835 144.119 64.135 143.381 64.135ZM144.56 60.805C144.56 59.275 144.167 58.51 143.381 58.51C142.595 58.51 142.202 59.275 142.202 60.805C142.202 62.335 142.595 63.1 143.381 63.1C144.167 63.1 144.56 62.335 144.56 60.805Z" fill="#6F7073"/>
<circle cx="211" cy="51" r="8" fill="#ECEFF0"/>
<path d="M211 45.3334L210.927 45.5813V52.7748L211 52.8476L214.332 50.8739L211 45.3334Z" fill="#333333"/>
<path d="M210.999 45.3334L207.667 50.8739L210.999 52.8477V49.3561V45.3334Z" fill="#8C8C8C"/>
<path d="M210.999 53.934L210.958 53.9841V56.5466L210.999 56.6666L214.333 51.9612L210.999 53.934Z" fill="#333333"/>
<path d="M210.999 56.6666V53.934L207.667 51.9612L210.999 56.6666Z" fill="#8C8C8C"/>
<path d="M210.999 52.8477L214.331 50.8739L210.999 49.3562V52.8477Z" fill="#141414"/>
<path d="M207.667 50.8738L210.999 52.8476V49.3561L207.667 50.8738Z" fill="#383838"/>
<path d="M234.579 54.044V55.5H228.092V46.27H234.579V47.726H229.665V50.092H234.358V51.548H229.665V54.044H234.579ZM242.272 46.27V47.765H239.594V55.5H238.021V47.765H235.343V46.27H242.272ZM250.98 46.27V55.5H249.407V51.548H245.026V55.5H243.453V46.27H245.026V50.092H249.407V46.27H250.98ZM256.779 51.405V52.848H252.645V51.405H256.779ZM260.019 50.404H262.281C262.784 50.404 263.157 50.287 263.399 50.053C263.651 49.819 263.776 49.494 263.776 49.078C263.776 48.662 263.651 48.3327 263.399 48.09C263.148 47.8473 262.775 47.726 262.281 47.726H260.019V50.404ZM260.019 51.86V55.5H258.446V46.27H262.268C263.317 46.27 264.093 46.53 264.595 47.05C265.107 47.5613 265.362 48.2373 265.362 49.078C265.362 49.91 265.102 50.5817 264.582 51.093C264.062 51.6043 263.291 51.86 262.268 51.86H260.019ZM273.287 54.044V55.5H266.8V46.27H273.287V47.726H268.373V50.092H273.066V51.548H268.373V54.044H273.287ZM282.475 55.5H280.629L278.757 51.86H276.638V55.5H275.065V46.27H279.121C280.109 46.27 280.863 46.5257 281.383 47.037C281.903 47.5483 282.163 48.2243 282.163 49.065C282.163 49.6977 282.011 50.2437 281.708 50.703C281.404 51.1537 280.954 51.4743 280.356 51.665L282.475 55.5ZM280.213 50.04C280.455 49.7973 280.577 49.4723 280.577 49.065C280.577 48.6577 280.455 48.3327 280.213 48.09C279.97 47.8473 279.61 47.726 279.134 47.726H276.638V50.404H279.134C279.61 50.404 279.97 50.2827 280.213 50.04ZM285.385 50.404H287.647C288.149 50.404 288.522 50.287 288.765 50.053C289.016 49.819 289.142 49.494 289.142 49.078C289.142 48.662 289.016 48.3327 288.765 48.09C288.513 47.8473 288.141 47.726 287.647 47.726H285.385V50.404ZM285.385 51.86V55.5H283.812V46.27H287.634C288.682 46.27 289.458 46.53 289.961 47.05C290.472 47.5613 290.728 48.2373 290.728 49.078C290.728 49.91 290.468 50.5817 289.948 51.093C289.428 51.6043 288.656 51.86 287.634 51.86H285.385Z" fill="#F5F5F7"/>
<path d="M92 70H304V90C304 92.2091 302.209 94 300 94H96C93.7909 94 92 92.2091 92 90V70Z" fill="white" fill-opacity="0.06"/>
<path d="M106.255 81.688H108.169C108.594 81.688 108.91 81.589 109.115 81.391C109.328 81.193 109.434 80.918 109.434 80.566C109.434 80.214 109.328 79.9353 109.115 79.73C108.902 79.5247 108.587 79.422 108.169 79.422H106.255V81.688ZM106.255 82.92V86H104.924V78.19H108.158C109.045 78.19 109.702 78.41 110.127 78.85C110.56 79.2827 110.776 79.8547 110.776 80.566C110.776 81.27 110.556 81.8383 110.116 82.271C109.676 82.7037 109.023 82.92 108.158 82.92H106.255ZM114.102 86.132C113.222 86.132 112.507 85.8423 111.957 85.263C111.414 84.6837 111.143 83.9797 111.143 83.151C111.143 82.3223 111.414 81.6183 111.957 81.039C112.507 80.4523 113.222 80.159 114.102 80.159C114.989 80.159 115.704 80.4523 116.247 81.039C116.797 81.6183 117.072 82.3223 117.072 83.151C117.072 83.9797 116.797 84.6837 116.247 85.263C115.704 85.8423 114.989 86.132 114.102 86.132ZM112.452 83.151C112.452 83.6937 112.606 84.1337 112.914 84.471C113.229 84.8083 113.625 84.977 114.102 84.977C114.586 84.977 114.982 84.8083 115.29 84.471C115.605 84.1337 115.763 83.6937 115.763 83.151C115.763 82.601 115.605 82.1573 115.29 81.82C114.982 81.4827 114.586 81.314 114.102 81.314C113.625 81.314 113.229 81.4827 112.914 81.82C112.606 82.1573 112.452 82.601 112.452 83.151ZM120.242 86.132C119.458 86.132 118.867 85.9487 118.471 85.582C118.075 85.2153 117.859 84.746 117.822 84.174H119.087C119.102 84.438 119.216 84.6507 119.428 84.812C119.641 84.9733 119.938 85.054 120.319 85.054C120.657 85.054 120.917 84.9953 121.1 84.878C121.284 84.7607 121.375 84.603 121.375 84.405C121.375 84.185 121.262 84.0237 121.034 83.921C120.814 83.811 120.543 83.7303 120.22 83.679C119.898 83.6277 119.575 83.5617 119.252 83.481C118.93 83.393 118.655 83.2243 118.427 82.975C118.207 82.7257 118.097 82.3847 118.097 81.952C118.097 81.4533 118.303 81.0317 118.713 80.687C119.131 80.335 119.681 80.159 120.363 80.159C120.752 80.159 121.093 80.2213 121.386 80.346C121.687 80.4633 121.918 80.621 122.079 80.819C122.248 81.017 122.373 81.2187 122.453 81.424C122.541 81.6293 122.593 81.8383 122.607 82.051H121.353C121.331 81.8237 121.232 81.6293 121.056 81.468C120.888 81.3067 120.646 81.226 120.33 81.226C120.015 81.226 119.773 81.2883 119.604 81.413C119.436 81.5303 119.351 81.6953 119.351 81.908C119.351 82.106 119.461 82.2563 119.681 82.359C119.909 82.4617 120.184 82.5387 120.506 82.59C120.829 82.6413 121.152 82.7147 121.474 82.81C121.797 82.898 122.068 83.0703 122.288 83.327C122.516 83.5837 122.629 83.9247 122.629 84.35C122.629 84.8633 122.42 85.2887 122.002 85.626C121.592 85.9633 121.005 86.132 120.242 86.132ZM124.466 79.334C124.224 79.334 124.026 79.2607 123.872 79.114C123.718 78.96 123.641 78.7657 123.641 78.531C123.641 78.289 123.718 78.091 123.872 77.937C124.026 77.783 124.224 77.706 124.466 77.706C124.7 77.706 124.895 77.783 125.049 77.937C125.203 78.091 125.28 78.289 125.28 78.531C125.28 78.7657 125.203 78.96 125.049 79.114C124.895 79.2607 124.7 79.334 124.466 79.334ZM123.806 86V80.291H125.115V86H123.806ZM129.258 84.834V85.967C129.097 86.011 128.87 86.033 128.576 86.033C127.462 86.033 126.904 85.472 126.904 84.35V81.336H126.035V80.291H126.904V78.806H128.213V80.291H129.28V81.336H128.213V84.218C128.213 84.6653 128.426 84.889 128.851 84.889L129.258 84.834ZM130.986 79.334C130.744 79.334 130.546 79.2607 130.392 79.114C130.238 78.96 130.161 78.7657 130.161 78.531C130.161 78.289 130.238 78.091 130.392 77.937C130.546 77.783 130.744 77.706 130.986 77.706C131.221 77.706 131.415 77.783 131.569 77.937C131.723 78.091 131.8 78.289 131.8 78.531C131.8 78.7657 131.723 78.96 131.569 79.114C131.415 79.2607 131.221 79.334 130.986 79.334ZM130.326 86V80.291H131.635V86H130.326ZM135.801 86.132C134.921 86.132 134.206 85.8423 133.656 85.263C133.113 84.6837 132.842 83.9797 132.842 83.151C132.842 82.3223 133.113 81.6183 133.656 81.039C134.206 80.4523 134.921 80.159 135.801 80.159C136.688 80.159 137.403 80.4523 137.946 81.039C138.496 81.6183 138.771 82.3223 138.771 83.151C138.771 83.9797 138.496 84.6837 137.946 85.263C137.403 85.8423 136.688 86.132 135.801 86.132ZM134.151 83.151C134.151 83.6937 134.305 84.1337 134.613 84.471C134.928 84.8083 135.324 84.977 135.801 84.977C136.285 84.977 136.681 84.8083 136.989 84.471C137.304 84.1337 137.462 83.6937 137.462 83.151C137.462 82.601 137.304 82.1573 136.989 81.82C136.681 81.4827 136.285 81.314 135.801 81.314C135.324 81.314 134.928 81.4827 134.613 81.82C134.305 82.1573 134.151 82.601 134.151 83.151ZM141.193 80.291V81.05C141.325 80.8007 141.542 80.5917 141.842 80.423C142.15 80.247 142.521 80.159 142.953 80.159C143.628 80.159 144.149 80.3643 144.515 80.775C144.889 81.1857 145.076 81.732 145.076 82.414V86H143.767V82.579C143.767 82.1757 143.672 81.8603 143.481 81.633C143.298 81.3983 143.016 81.281 142.634 81.281C142.216 81.281 141.886 81.4057 141.644 81.655C141.41 81.9043 141.292 82.249 141.292 82.689V86H139.983V80.291H141.193Z" fill="#A4A5A8"/>
<rect x="186" y="75" width="32" height="14" rx="4" fill="#6F7073"/>
<path d="M192.305 80.41V85H191.234V78.61H192.341L195.446 83.209V78.61H196.517V85H195.401L192.305 80.41ZM200.034 85.108C199.314 85.108 198.729 84.871 198.279 84.397C197.835 83.923 197.613 83.347 197.613 82.669C197.613 81.991 197.835 81.415 198.279 80.941C198.729 80.461 199.314 80.221 200.034 80.221C200.76 80.221 201.345 80.461 201.789 80.941C202.239 81.415 202.464 81.991 202.464 82.669C202.464 83.347 202.239 83.923 201.789 84.397C201.345 84.871 200.76 85.108 200.034 85.108ZM198.684 82.669C198.684 83.113 198.81 83.473 199.062 83.749C199.32 84.025 199.644 84.163 200.034 84.163C200.43 84.163 200.754 84.025 201.006 83.749C201.264 83.473 201.393 83.113 201.393 82.669C201.393 82.219 201.264 81.856 201.006 81.58C200.754 81.304 200.43 81.166 200.034 81.166C199.644 81.166 199.32 81.304 199.062 81.58C198.81 81.856 198.684 82.219 198.684 82.669ZM204.447 80.329V80.95C204.555 80.746 204.732 80.575 204.978 80.437C205.23 80.293 205.533 80.221 205.887 80.221C206.439 80.221 206.865 80.389 207.165 80.725C207.471 81.061 207.624 81.508 207.624 82.066V85H206.553V82.201C206.553 81.871 206.475 81.613 206.319 81.427C206.169 81.235 205.938 81.139 205.626 81.139C205.284 81.139 205.014 81.241 204.816 81.445C204.624 81.649 204.528 81.931 204.528 82.291V85H203.457V80.329H204.447ZM213.181 82.975H209.626C209.668 83.347 209.803 83.644 210.031 83.866C210.259 84.082 210.559 84.19 210.931 84.19C211.177 84.19 211.399 84.13 211.597 84.01C211.795 83.89 211.936 83.728 212.02 83.524H213.1C212.956 83.998 212.686 84.382 212.29 84.676C211.9 84.964 211.438 85.108 210.904 85.108C210.208 85.108 209.644 84.877 209.212 84.415C208.786 83.953 208.573 83.368 208.573 82.66C208.573 81.97 208.789 81.391 209.221 80.923C209.653 80.455 210.211 80.221 210.895 80.221C211.579 80.221 212.131 80.452 212.551 80.914C212.977 81.37 213.19 81.946 213.19 82.642L213.181 82.975ZM210.895 81.094C210.559 81.094 210.28 81.193 210.058 81.391C209.836 81.589 209.698 81.853 209.644 82.183H212.128C212.08 81.853 211.948 81.589 211.732 81.391C211.516 81.193 211.237 81.094 210.895 81.094Z" fill="white"/>
<path d="M232 82L228.196 78M232 82L228.196 86M232 82H224" stroke="#A4A5A8" stroke-width="1.5" stroke-linecap="round" stroke-linejoin="round"/>
<rect x="238" y="75" width="30" height="14" rx="4" fill="#00A862"/>
<path d="M247.048 83.992V85H242.998V78.61H244.087V83.992H247.048ZM249.909 85.108C249.189 85.108 248.604 84.871 248.154 84.397C247.71 83.923 247.488 83.347 247.488 82.669C247.488 81.991 247.71 81.415 248.154 80.941C248.604 80.461 249.189 80.221 249.909 80.221C250.635 80.221 251.22 80.461 251.664 80.941C252.114 81.415 252.339 81.991 252.339 82.669C252.339 83.347 252.114 83.923 251.664 84.397C251.22 84.871 250.635 85.108 249.909 85.108ZM248.559 82.669C248.559 83.113 248.685 83.473 248.937 83.749C249.195 84.025 249.519 84.163 249.909 84.163C250.305 84.163 250.629 84.025 250.881 83.749C251.139 83.473 251.268 83.113 251.268 82.669C251.268 82.219 251.139 81.856 250.881 81.58C250.629 81.304 250.305 81.166 249.909 81.166C249.519 81.166 249.195 81.304 248.937 81.58C248.685 81.856 248.559 82.219 248.559 82.669ZM254.322 80.329V80.95C254.43 80.746 254.607 80.575 254.853 80.437C255.105 80.293 255.408 80.221 255.762 80.221C256.314 80.221 256.74 80.389 257.04 80.725C257.346 81.061 257.499 81.508 257.499 82.066V85H256.428V82.201C256.428 81.871 256.35 81.613 256.194 81.427C256.044 81.235 255.813 81.139 255.501 81.139C255.159 81.139 254.889 81.241 254.691 81.445C254.499 81.649 254.403 81.931 254.403 82.291V85H253.332V80.329H254.322ZM262.156 80.995V80.329H263.146V84.802C263.146 85.438 262.948 85.957 262.552 86.359C262.162 86.767 261.616 86.971 260.914 86.971C260.272 86.971 259.768 86.806 259.402 86.476C259.042 86.146 258.832 85.768 258.772 85.342H259.843C259.975 85.816 260.338 86.053 260.932 86.053C261.292 86.053 261.571 85.951 261.769 85.747C261.973 85.549 262.075 85.282 262.075 84.946V84.217C261.763 84.697 261.271 84.937 260.599 84.937C259.951 84.937 259.429 84.712 259.033 84.262C258.643 83.806 258.448 83.245 258.448 82.579C258.448 81.913 258.643 81.355 259.033 80.905C259.429 80.449 259.951 80.221 260.599 80.221C261.313 80.221 261.832 80.479 262.156 80.995ZM262.12 82.579C262.12 82.165 262 81.826 261.76 81.562C261.52 81.298 261.205 81.166 260.815 81.166C260.431 81.166 260.119 81.298 259.879 81.562C259.639 81.826 259.519 82.165 259.519 82.579C259.519 82.987 259.639 83.326 259.879 83.596C260.119 83.86 260.431 83.992 260.815 83.992C261.205 83.992 261.52 83.86 261.76 83.596C262 83.326 262.12 82.987 262.12 82.579Z" fill="white"/>
<rect x="92" y="102" width="172" height="32" rx="4" fill="url(#paint0_linear_52518_47876)"/>
<path d="M149.357 122.5H145.288V113.27H149.188C150.202 113.27 150.965 113.508 151.476 113.985C151.996 114.453 152.256 115.06 152.256 115.805C152.256 116.282 152.139 116.698 151.905 117.053C151.68 117.4 151.368 117.664 150.969 117.846C151.402 118.011 151.745 118.271 151.996 118.626C152.256 118.981 152.386 119.402 152.386 119.887C152.386 120.702 152.126 121.343 151.606 121.811C151.086 122.27 150.336 122.5 149.357 122.5ZM149.305 118.691H147.134V120.797H149.305C150.085 120.797 150.475 120.446 150.475 119.744C150.475 119.423 150.375 119.168 150.176 118.977C149.985 118.786 149.695 118.691 149.305 118.691ZM149.175 114.973H147.134V116.975H149.175C149.548 116.975 149.834 116.893 150.033 116.728C150.241 116.555 150.345 116.303 150.345 115.974C150.345 115.679 150.245 115.441 150.046 115.259C149.855 115.068 149.565 114.973 149.175 114.973ZM158.08 119.562V115.688H159.926V122.5H158.223V121.668C157.868 122.327 157.201 122.656 156.221 122.656C155.424 122.656 154.809 122.413 154.375 121.928C153.951 121.434 153.738 120.771 153.738 119.939V115.688H155.584V119.731C155.584 120.624 155.961 121.07 156.715 121.07C157.166 121.07 157.504 120.94 157.729 120.68C157.963 120.42 158.08 120.047 158.08 119.562ZM162.313 125.204L163.457 122.383L160.766 115.688H162.729L164.367 120.238L166.018 115.688H167.942L164.133 125.204H162.313ZM171.602 122.5L175.359 113.27H177.218L173.461 122.5H171.602ZM187.843 120.758V122.5H181.85V113.27H183.748V120.758H187.843ZM194.271 121.629C193.612 122.314 192.75 122.656 191.684 122.656C190.618 122.656 189.756 122.314 189.097 121.629C188.438 120.936 188.109 120.091 188.109 119.094C188.109 118.097 188.438 117.257 189.097 116.572C189.756 115.879 190.618 115.532 191.684 115.532C192.75 115.532 193.612 115.879 194.271 116.572C194.93 117.257 195.259 118.097 195.259 119.094C195.259 120.091 194.93 120.936 194.271 121.629ZM190.436 117.677C190.115 118.024 189.955 118.496 189.955 119.094C189.955 119.692 190.115 120.164 190.436 120.511C190.765 120.858 191.181 121.031 191.684 121.031C192.187 121.031 192.598 120.858 192.919 120.511C193.248 120.164 193.413 119.692 193.413 119.094C193.413 118.496 193.248 118.024 192.919 117.677C192.598 117.33 192.187 117.157 191.684 117.157C191.181 117.157 190.765 117.33 190.436 117.677ZM198.226 115.688V116.52C198.582 115.861 199.258 115.532 200.254 115.532C201.06 115.532 201.68 115.779 202.113 116.273C202.547 116.758 202.763 117.417 202.763 118.249V122.5H200.917V118.457C200.917 117.564 200.532 117.118 199.76 117.118C199.318 117.118 198.976 117.252 198.733 117.521C198.491 117.781 198.369 118.141 198.369 118.6V122.5H196.523V115.688H198.226ZM209.204 116.52V115.688H210.907V122.24C210.907 123.15 210.613 123.895 210.023 124.476C209.434 125.057 208.632 125.347 207.618 125.347C206.656 125.347 205.907 125.091 205.369 124.58C204.841 124.069 204.546 123.497 204.485 122.864H206.331C206.453 123.462 206.89 123.761 207.644 123.761C208.104 123.761 208.455 123.644 208.697 123.41C208.94 123.176 209.061 122.851 209.061 122.435V121.486C208.619 122.075 207.956 122.37 207.072 122.37C206.145 122.37 205.395 122.045 204.823 121.395C204.251 120.736 203.965 119.922 203.965 118.951C203.965 117.98 204.251 117.17 204.823 116.52C205.395 115.861 206.145 115.532 207.072 115.532C208.043 115.532 208.754 115.861 209.204 116.52ZM208.658 120.251C208.962 119.922 209.113 119.488 209.113 118.951C209.113 118.414 208.962 117.98 208.658 117.651C208.355 117.322 207.956 117.157 207.462 117.157C206.968 117.157 206.57 117.322 206.266 117.651C205.963 117.98 205.811 118.414 205.811 118.951C205.811 119.488 205.963 119.922 206.266 120.251C206.57 120.58 206.968 120.745 207.462 120.745C207.956 120.745 208.355 120.58 208.658 120.251Z" fill="white"/>
</g>
<g filter="url(#filter1_bd_52518_47876)">
<rect width="218" height="68" rx="8" fill="url(#paint1_linear_52518_47876)" fill-opacity="0.3" shape-rendering="crispEdges"/>
<rect x="0.5" y="0.5" width="217" height="67" rx="7.5" stroke="url(#paint2_linear_52518_47876)" shape-rendering="crispEdges"/>
<path d="M8 12.2667C8 10.7732 8 10.0265 8.29065 9.45603C8.54631 8.95426 8.95426 8.54631 9.45603 8.29065C10.0265 8 10.7732 8 12.2667 8H15.7333C17.2268 8 17.9735 8 18.544 8.29065C19.0457 8.54631 19.4537 8.95426 19.7094 9.45603C20 10.0265 20 10.7732 20 12.2667V15.7333C20 17.2268 20 17.9735 19.7094 18.544C19.4537 19.0457 19.0457 19.4537 18.544 19.7094C17.9735 20 17.2268 20 15.7333 20H12.2667C10.7732 20 10.0265 20 9.45603 19.7094C8.95426 19.4537 8.54631 19.0457 8.29065 18.544C8 17.9735 8 17.2268 8 15.7333V12.2667Z" fill="url(#paint3_linear_52518_47876)"/>
<path d="M10.5751 14.2755C10.2242 15.1484 10.6439 16.142 11.5125 16.4946L12.7835 13.3335C11.9148 12.9809 10.9261 13.4026 10.5751 14.2755Z" fill="white"/>
<path d="M12.6882 14.8708C12.2871 15.8684 12.7667 17.0038 13.7595 17.4069C14.7522 17.81 15.8822 17.328 16.2833 16.3304L12.6882 14.8708Z" fill="white"/>
<path d="M16.0335 10.4507C17.2745 10.9545 17.874 12.3738 17.3727 13.6209C16.8713 14.8679 15.4588 15.4704 14.2179 14.9665L16.0335 10.4507Z" fill="white"/>
<path d="M11.6169 12.3346C11.9177 11.5864 12.7652 11.2249 13.5097 11.5272C14.2543 11.8295 14.614 12.6811 14.3132 13.4293L11.6169 12.3346Z" fill="white"/>
<path d="M31.575 18H28.924V10.19H31.575C32.895 10.19 33.9217 10.5493 34.655 11.268C35.3957 11.9793 35.766 12.9217 35.766 14.095C35.766 15.2683 35.3957 16.2143 34.655 16.933C33.9217 17.6443 32.895 18 31.575 18ZM33.643 16.064C34.1197 15.5873 34.358 14.931 34.358 14.095C34.358 13.259 34.1197 12.6063 33.643 12.137C33.1737 11.6603 32.4697 11.422 31.531 11.422H30.255V16.768H31.531C32.4697 16.768 33.1737 16.5333 33.643 16.064ZM42.3215 15.525H37.9765C38.0278 15.9797 38.1928 16.3427 38.4715 16.614C38.7502 16.878 39.1168 17.01 39.5715 17.01C39.8722 17.01 40.1435 16.9367 40.3855 16.79C40.6275 16.6433 40.7998 16.4453 40.9025 16.196H42.2225C42.0465 16.7753 41.7165 17.2447 41.2325 17.604C40.7558 17.956 40.1912 18.132 39.5385 18.132C38.6878 18.132 37.9985 17.8497 37.4705 17.285C36.9498 16.7203 36.6895 16.0053 36.6895 15.14C36.6895 14.2967 36.9535 13.589 37.4815 13.017C38.0095 12.445 38.6915 12.159 39.5275 12.159C40.3635 12.159 41.0382 12.4413 41.5515 13.006C42.0722 13.5633 42.3325 14.2673 42.3325 15.118L42.3215 15.525ZM39.5275 13.226C39.1168 13.226 38.7758 13.347 38.5045 13.589C38.2332 13.831 38.0645 14.1537 37.9985 14.557H41.0345C40.9758 14.1537 40.8145 13.831 40.5505 13.589C40.2865 13.347 39.9455 13.226 39.5275 13.226ZM48.5023 14.722V18H47.1933V14.579C47.1933 13.7137 46.8339 13.281 46.1153 13.281C45.7266 13.281 45.4149 13.4057 45.1803 13.655C44.9529 13.9043 44.8393 14.2453 44.8393 14.678V18H43.5303V12.291H44.7403V13.05C44.8796 12.7933 45.0923 12.5807 45.3783 12.412C45.6643 12.2433 46.0199 12.159 46.4453 12.159C47.2373 12.159 47.8093 12.4597 48.1613 13.061C48.6453 12.4597 49.2906 12.159 50.0973 12.159C50.7646 12.159 51.2779 12.368 51.6373 12.786C51.9966 13.1967 52.1763 13.7393 52.1763 14.414V18H50.8673V14.579C50.8673 13.7137 50.5079 13.281 49.7893 13.281C49.3933 13.281 49.0779 13.4093 48.8433 13.666C48.6159 13.9153 48.5023 14.2673 48.5023 14.722ZM58.9611 15.525H54.6161C54.6675 15.9797 54.8325 16.3427 55.1111 16.614C55.3898 16.878 55.7565 17.01 56.2111 17.01C56.5118 17.01 56.7831 16.9367 57.0251 16.79C57.2671 16.6433 57.4395 16.4453 57.5421 16.196H58.8621C58.6861 16.7753 58.3561 17.2447 57.8721 17.604C57.3955 17.956 56.8308 18.132 56.1781 18.132C55.3275 18.132 54.6381 17.8497 54.1101 17.285C53.5895 16.7203 53.3291 16.0053 53.3291 15.14C53.3291 14.2967 53.5931 13.589 54.1211 13.017C54.6491 12.445 55.3311 12.159 56.1671 12.159C57.0031 12.159 57.6778 12.4413 58.1911 13.006C58.7118 13.5633 58.9721 14.2673 58.9721 15.118L58.9611 15.525ZM56.1671 13.226C55.7565 13.226 55.4155 13.347 55.1441 13.589C54.8728 13.831 54.7041 14.1537 54.6381 14.557H57.6741C57.6155 14.1537 57.4541 13.831 57.1901 13.589C56.9261 13.347 56.5851 13.226 56.1671 13.226ZM64.9726 12.291L62.8056 15.107L65.0496 18H63.4656L62.0686 16.086L60.6606 18H59.0876L61.3206 15.107L59.1536 12.291H60.7266L62.0686 14.117L63.3996 12.291H64.9726Z" fill="#F5F5F7"/>
<path opacity="0.5" d="M184.009 12.39V18H182.7V10.19H184.053L187.848 15.811V10.19H189.157V18H187.793L184.009 12.39ZM193.457 18.132C192.577 18.132 191.862 17.8423 191.312 17.263C190.769 16.6837 190.498 15.9797 190.498 15.151C190.498 14.3223 190.769 13.6183 191.312 13.039C191.862 12.4523 192.577 12.159 193.457 12.159C194.344 12.159 195.059 12.4523 195.602 13.039C196.152 13.6183 196.427 14.3223 196.427 15.151C196.427 15.9797 196.152 16.6837 195.602 17.263C195.059 17.8423 194.344 18.132 193.457 18.132ZM191.807 15.151C191.807 15.6937 191.961 16.1337 192.269 16.471C192.584 16.8083 192.98 16.977 193.457 16.977C193.941 16.977 194.337 16.8083 194.645 16.471C194.96 16.1337 195.118 15.6937 195.118 15.151C195.118 14.601 194.96 14.1573 194.645 13.82C194.337 13.4827 193.941 13.314 193.457 13.314C192.98 13.314 192.584 13.4827 192.269 13.82C191.961 14.1573 191.807 14.601 191.807 15.151ZM202.638 18L201.351 14.084H201.34L200.042 18H198.799L196.808 12.291H198.161L199.437 16.383L200.746 12.291H201.956L203.254 16.394L204.541 12.291H205.872L203.881 18H202.638Z" fill="white"/>
<path d="M14.64 34.071C14.1487 34.5843 13.903 35.259 13.903 36.095C13.903 36.931 14.1487 37.6057 14.64 38.119C15.1313 38.6323 15.762 38.889 16.532 38.889C17.302 38.889 17.9327 38.6323 18.424 38.119C18.9153 37.6057 19.161 36.931 19.161 36.095C19.161 35.259 18.9153 34.5843 18.424 34.071C17.9327 33.5577 17.302 33.301 16.532 33.301C15.762 33.301 15.1313 33.5577 14.64 34.071ZM13.628 39.01C12.8727 38.2327 12.495 37.261 12.495 36.095C12.495 34.929 12.8727 33.961 13.628 33.191C14.3833 32.4137 15.3513 32.025 16.532 32.025C17.7127 32.025 18.6807 32.4137 19.436 33.191C20.1913 33.961 20.569 34.929 20.569 36.095C20.569 37.261 20.1913 38.2327 19.436 39.01C18.6807 39.78 17.7127 40.165 16.532 40.165C15.3513 40.165 14.3833 39.78 13.628 39.01ZM24.9384 34.247V35.468C24.8357 35.4533 24.7367 35.446 24.6414 35.446C23.6587 35.446 23.1674 35.974 23.1674 37.03V40H21.8584V34.291H23.0684V35.083C23.3911 34.5183 23.9521 34.236 24.7514 34.236L24.9384 34.247ZM29.7317 35.039V31.75H31.0407V40H29.8307V39.186C29.442 39.8167 28.8003 40.132 27.9057 40.132C27.0917 40.132 26.4463 39.8497 25.9697 39.285C25.5003 38.713 25.2657 38.0017 25.2657 37.151C25.2657 36.3003 25.5003 35.589 25.9697 35.017C26.4463 34.445 27.0917 34.159 27.9057 34.159C28.7343 34.159 29.343 34.4523 29.7317 35.039ZM29.7867 37.151C29.7867 36.6157 29.64 36.1757 29.3467 35.831C29.0607 35.4863 28.672 35.314 28.1807 35.314C27.6967 35.314 27.308 35.4863 27.0147 35.831C26.7213 36.1757 26.5747 36.6157 26.5747 37.151C26.5747 37.6717 26.7213 38.108 27.0147 38.46C27.308 38.8047 27.6967 38.977 28.1807 38.977C28.672 38.977 29.0607 38.8047 29.3467 38.46C29.64 38.1153 29.7867 37.679 29.7867 37.151ZM37.8908 37.525H33.5458C33.5972 37.9797 33.7622 38.3427 34.0408 38.614C34.3195 38.878 34.6862 39.01 35.1408 39.01C35.4415 39.01 35.7128 38.9367 35.9548 38.79C36.1968 38.6433 36.3692 38.4453 36.4718 38.196H37.7918C37.6158 38.7753 37.2858 39.2447 36.8018 39.604C36.3252 39.956 35.7605 40.132 35.1078 40.132C34.2572 40.132 33.5678 39.8497 33.0398 39.285C32.5192 38.7203 32.2588 38.0053 32.2588 37.14C32.2588 36.2967 32.5228 35.589 33.0508 35.017C33.5788 34.445 34.2608 34.159 35.0968 34.159C35.9328 34.159 36.6075 34.4413 37.1208 35.006C37.6415 35.5633 37.9018 36.2673 37.9018 37.118L37.8908 37.525ZM35.0968 35.226C34.6862 35.226 34.3452 35.347 34.0738 35.589C33.8025 35.831 33.6338 36.1537 33.5678 36.557H36.6038C36.5452 36.1537 36.3838 35.831 36.1198 35.589C35.8558 35.347 35.5148 35.226 35.0968 35.226ZM42.1796 34.247V35.468C42.077 35.4533 41.978 35.446 41.8826 35.446C40.9 35.446 40.4086 35.974 40.4086 37.03V40H39.0996V34.291H40.3096V35.083C40.6323 34.5183 41.1933 34.236 41.9926 34.236L42.1796 34.247ZM47.4484 40H46.1174V32.19H51.2214V33.422H47.4484V35.424H51.0344V36.656H47.4484V40ZM53.0047 33.334C52.7627 33.334 52.5647 33.2607 52.4107 33.114C52.2567 32.96 52.1797 32.7657 52.1797 32.531C52.1797 32.289 52.2567 32.091 52.4107 31.937C52.5647 31.783 52.7627 31.706 53.0047 31.706C53.2394 31.706 53.4337 31.783 53.5877 31.937C53.7417 32.091 53.8187 32.289 53.8187 32.531C53.8187 32.7657 53.7417 32.96 53.5877 33.114C53.4337 33.2607 53.2394 33.334 53.0047 33.334ZM52.3447 40V34.291H53.6537V40H52.3447ZM56.5434 40H55.2344V31.75H56.5434V40ZM59.433 40H58.124V31.75H59.433V40ZM66.2717 37.525H61.9267C61.978 37.9797 62.143 38.3427 62.4217 38.614C62.7003 38.878 63.067 39.01 63.5217 39.01C63.8223 39.01 64.0937 38.9367 64.3357 38.79C64.5777 38.6433 64.75 38.4453 64.8527 38.196H66.1727C65.9967 38.7753 65.6667 39.2447 65.1827 39.604C64.706 39.956 64.1413 40.132 63.4887 40.132C62.638 40.132 61.9487 39.8497 61.4207 39.285C60.9 38.7203 60.6397 38.0053 60.6397 37.14C60.6397 36.2967 60.9037 35.589 61.4317 35.017C61.9597 34.445 62.6417 34.159 63.4777 34.159C64.3137 34.159 64.9883 34.4413 65.5017 35.006C66.0223 35.5633 66.2827 36.2673 66.2827 37.118L66.2717 37.525ZM63.4777 35.226C63.067 35.226 62.726 35.347 62.4547 35.589C62.1833 35.831 62.0147 36.1537 61.9487 36.557H64.9847C64.926 36.1537 64.7647 35.831 64.5007 35.589C64.2367 35.347 63.8957 35.226 63.4777 35.226ZM71.5725 35.039V31.75H72.8815V40H71.6715V39.186C71.2828 39.8167 70.6411 40.132 69.7465 40.132C68.9325 40.132 68.2871 39.8497 67.8105 39.285C67.3411 38.713 67.1065 38.0017 67.1065 37.151C67.1065 36.3003 67.3411 35.589 67.8105 35.017C68.2871 34.445 68.9325 34.159 69.7465 34.159C70.5751 34.159 71.1838 34.4523 71.5725 35.039ZM71.6275 37.151C71.6275 36.6157 71.4808 36.1757 71.1875 35.831C70.9015 35.4863 70.5128 35.314 70.0215 35.314C69.5375 35.314 69.1488 35.4863 68.8555 35.831C68.5621 36.1757 68.4155 36.6157 68.4155 37.151C68.4155 37.6717 68.5621 38.108 68.8555 38.46C69.1488 38.8047 69.5375 38.977 70.0215 38.977C70.5128 38.977 70.9015 38.8047 71.1875 38.46C71.4808 38.1153 71.6275 37.679 71.6275 37.151Z" fill="#A4A5A8"/>
<path d="M18.413 54.768V56H12.924V48.19H18.413V49.422H14.255V51.424H18.226V52.656H14.255V54.768H18.413ZM24.9222 48.19V49.455H22.6562V56H21.3252V49.455H19.0592V48.19H24.9222ZM32.291 48.19V56H30.96V52.656H27.253V56H25.922V48.19H27.253V51.424H30.96V48.19H32.291ZM37.1978 52.535V53.756H33.6998V52.535H37.1978ZM39.9396 51.688H41.8536C42.2789 51.688 42.5942 51.589 42.7996 51.391C43.0122 51.193 43.1186 50.918 43.1186 50.566C43.1186 50.214 43.0122 49.9353 42.7996 49.73C42.5869 49.5247 42.2716 49.422 41.8536 49.422H39.9396V51.688ZM39.9396 52.92V56H38.6086V48.19H41.8426C42.7299 48.19 43.3862 48.41 43.8116 48.85C44.2442 49.2827 44.4606 49.8547 44.4606 50.566C44.4606 51.27 44.2406 51.8383 43.8006 52.271C43.3606 52.7037 42.7079 52.92 41.8426 52.92H39.9396ZM51.1659 54.768V56H45.6769V48.19H51.1659V49.422H47.0079V51.424H50.9789V52.656H47.0079V54.768H51.1659ZM58.9401 56H57.3781L55.7941 52.92H54.0011V56H52.6701V48.19H56.1021C56.9381 48.19 57.5761 48.4063 58.0161 48.839C58.4561 49.2717 58.6761 49.8437 58.6761 50.555C58.6761 51.0903 58.5478 51.5523 58.2911 51.941C58.0344 52.3223 57.6531 52.5937 57.1471 52.755L58.9401 56ZM57.0261 51.38C57.2314 51.1747 57.3341 50.8997 57.3341 50.555C57.3341 50.2103 57.2314 49.9353 57.0261 49.73C56.8208 49.5247 56.5164 49.422 56.1131 49.422H54.0011V51.688H56.1131C56.5164 51.688 56.8208 51.5853 57.0261 51.38ZM61.4025 51.688H63.3165C63.7418 51.688 64.0571 51.589 64.2625 51.391C64.4751 51.193 64.5815 50.918 64.5815 50.566C64.5815 50.214 64.4751 49.9353 64.2625 49.73C64.0498 49.5247 63.7345 49.422 63.3165 49.422H61.4025V51.688ZM61.4025 52.92V56H60.0715V48.19H63.3055C64.1928 48.19 64.8491 48.41 65.2745 48.85C65.7071 49.2827 65.9235 49.8547 65.9235 50.566C65.9235 51.27 65.7035 51.8383 65.2635 52.271C64.8235 52.7037 64.1708 52.92 63.3055 52.92H61.4025ZM71.1742 56H69.8652V47.75H71.1742V56ZM73.4149 49.334C73.1729 49.334 72.9749 49.2607 72.8209 49.114C72.6669 48.96 72.5899 48.7657 72.5899 48.531C72.5899 48.289 72.6669 48.091 72.8209 47.937C72.9749 47.783 73.1729 47.706 73.4149 47.706C73.6496 47.706 73.8439 47.783 73.9979 47.937C74.1519 48.091 74.2289 48.289 74.2289 48.531C74.2289 48.7657 74.1519 48.96 73.9979 49.114C73.8439 49.2607 73.6496 49.334 73.4149 49.334ZM72.7549 56V50.291H74.0639V56H72.7549ZM80.6165 52.722V56H79.3075V52.579C79.3075 51.7137 78.9482 51.281 78.2295 51.281C77.8409 51.281 77.5292 51.4057 77.2945 51.655C77.0672 51.9043 76.9535 52.2453 76.9535 52.678V56H75.6445V50.291H76.8545V51.05C76.9939 50.7933 77.2065 50.5807 77.4925 50.412C77.7785 50.2433 78.1342 50.159 78.5595 50.159C79.3515 50.159 79.9235 50.4597 80.2755 51.061C80.7595 50.4597 81.4049 50.159 82.2115 50.159C82.8789 50.159 83.3922 50.368 83.7515 50.786C84.1109 51.1967 84.2905 51.7393 84.2905 52.414V56H82.9815V52.579C82.9815 51.7137 82.6222 51.281 81.9035 51.281C81.5075 51.281 81.1922 51.4093 80.9575 51.666C80.7302 51.9153 80.6165 52.2673 80.6165 52.722ZM86.4774 49.334C86.2354 49.334 86.0374 49.2607 85.8834 49.114C85.7294 48.96 85.6524 48.7657 85.6524 48.531C85.6524 48.289 85.7294 48.091 85.8834 47.937C86.0374 47.783 86.2354 47.706 86.4774 47.706C86.7121 47.706 86.9064 47.783 87.0604 47.937C87.2144 48.091 87.2914 48.289 87.2914 48.531C87.2914 48.7657 87.2144 48.96 87.0604 49.114C86.9064 49.2607 86.7121 49.334 86.4774 49.334ZM85.8174 56V50.291H87.1264V56H85.8174ZM91.27 54.834V55.967C91.1087 56.011 90.8814 56.033 90.588 56.033C89.4734 56.033 88.916 55.472 88.916 54.35V51.336H88.047V50.291H88.916V48.806H90.225V50.291H91.292V51.336H90.225V54.218C90.225 54.6653 90.4377 54.889 90.863 54.889L91.27 54.834ZM97.7803 56.132C96.9003 56.132 96.1853 55.8423 95.6353 55.263C95.0927 54.6837 94.8213 53.9797 94.8213 53.151C94.8213 52.3223 95.0927 51.6183 95.6353 51.039C96.1853 50.4523 96.9003 50.159 97.7803 50.159C98.6677 50.159 99.3827 50.4523 99.9253 51.039C100.475 51.6183 100.75 52.3223 100.75 53.151C100.75 53.9797 100.475 54.6837 99.9253 55.263C99.3827 55.8423 98.6677 56.132 97.7803 56.132ZM96.1303 53.151C96.1303 53.6937 96.2843 54.1337 96.5923 54.471C96.9077 54.8083 97.3037 54.977 97.7803 54.977C98.2643 54.977 98.6603 54.8083 98.9683 54.471C99.2837 54.1337 99.4413 53.6937 99.4413 53.151C99.4413 52.601 99.2837 52.1573 98.9683 51.82C98.6603 51.4827 98.2643 51.314 97.7803 51.314C97.3037 51.314 96.9077 51.4827 96.5923 51.82C96.2843 52.1573 96.1303 52.601 96.1303 53.151ZM105.043 50.247V51.468C104.94 51.4533 104.841 51.446 104.746 51.446C103.763 51.446 103.272 51.974 103.272 53.03V56H101.963V50.291H103.173V51.083C103.496 50.5183 104.057 50.236 104.856 50.236L105.043 50.247ZM109.836 51.039V47.75H111.145V56H109.935V55.186C109.546 55.8167 108.905 56.132 108.01 56.132C107.196 56.132 106.551 55.8497 106.074 55.285C105.605 54.713 105.37 54.0017 105.37 53.151C105.37 52.3003 105.605 51.589 106.074 51.017C106.551 50.445 107.196 50.159 108.01 50.159C108.839 50.159 109.447 50.4523 109.836 51.039ZM109.891 53.151C109.891 52.6157 109.744 52.1757 109.451 51.831C109.165 51.4863 108.776 51.314 108.285 51.314C107.801 51.314 107.412 51.4863 107.119 51.831C106.826 52.1757 106.679 52.6157 106.679 53.151C106.679 53.6717 106.826 54.108 107.119 54.46C107.412 54.8047 107.801 54.977 108.285 54.977C108.776 54.977 109.165 54.8047 109.451 54.46C109.744 54.1153 109.891 53.679 109.891 53.151ZM117.995 53.525H113.65C113.702 53.9797 113.867 54.3427 114.145 54.614C114.424 54.878 114.791 55.01 115.245 55.01C115.546 55.01 115.817 54.9367 116.059 54.79C116.301 54.6433 116.474 54.4453 116.576 54.196H117.896C117.72 54.7753 117.39 55.2447 116.906 55.604C116.43 55.956 115.865 56.132 115.212 56.132C114.362 56.132 113.672 55.8497 113.144 55.285C112.624 54.7203 112.363 54.0053 112.363 53.14C112.363 52.2967 112.627 51.589 113.155 51.017C113.683 50.445 114.365 50.159 115.201 50.159C116.037 50.159 116.712 50.4413 117.225 51.006C117.746 51.5633 118.006 52.2673 118.006 53.118L117.995 53.525ZM115.201 51.226C114.791 51.226 114.45 51.347 114.178 51.589C113.907 51.831 113.738 52.1537 113.672 52.557H116.708C116.65 52.1537 116.488 51.831 116.224 51.589C115.96 51.347 115.619 51.226 115.201 51.226ZM122.284 50.247V51.468C122.181 51.4533 122.082 51.446 121.987 51.446C121.004 51.446 120.513 51.974 120.513 53.03V56H119.204V50.291H120.414V51.083C120.737 50.5183 121.298 50.236 122.097 50.236L122.284 50.247ZM126.365 50.291V49.686C126.365 49.0407 126.53 48.5567 126.86 48.234C127.19 47.9113 127.641 47.75 128.213 47.75L128.653 47.783V48.938C128.609 48.9233 128.528 48.916 128.411 48.916C128.147 48.916 127.956 48.982 127.839 49.114C127.729 49.2387 127.674 49.455 127.674 49.763V50.291H128.686V51.336H127.674V56H126.365V51.336H125.452V50.291H126.365ZM130.281 49.334C130.039 49.334 129.841 49.2607 129.687 49.114C129.533 48.96 129.456 48.7657 129.456 48.531C129.456 48.289 129.533 48.091 129.687 47.937C129.841 47.783 130.039 47.706 130.281 47.706C130.516 47.706 130.71 47.783 130.864 47.937C131.018 48.091 131.095 48.289 131.095 48.531C131.095 48.7657 131.018 48.96 130.864 49.114C130.71 49.2607 130.516 49.334 130.281 49.334ZM129.621 56V50.291H130.93V56H129.621ZM133.984 56H132.675V47.75H133.984V56ZM136.873 56H135.564V47.75H136.873V56ZM143.712 53.525H139.367C139.418 53.9797 139.583 54.3427 139.862 54.614C140.141 54.878 140.507 55.01 140.962 55.01C141.263 55.01 141.534 54.9367 141.776 54.79C142.018 54.6433 142.19 54.4453 142.293 54.196H143.613C143.437 54.7753 143.107 55.2447 142.623 55.604C142.146 55.956 141.582 56.132 140.929 56.132C140.078 56.132 139.389 55.8497 138.861 55.285C138.34 54.7203 138.08 54.0053 138.08 53.14C138.08 52.2967 138.344 51.589 138.872 51.017C139.4 50.445 140.082 50.159 140.918 50.159C141.754 50.159 142.429 50.4413 142.942 51.006C143.463 51.5633 143.723 52.2673 143.723 53.118L143.712 53.525ZM140.918 51.226C140.507 51.226 140.166 51.347 139.895 51.589C139.624 51.831 139.455 52.1537 139.389 52.557H142.425C142.366 52.1537 142.205 51.831 141.941 51.589C141.677 51.347 141.336 51.226 140.918 51.226ZM149.013 51.039V47.75H150.322V56H149.112V55.186C148.723 55.8167 148.082 56.132 147.187 56.132C146.373 56.132 145.728 55.8497 145.251 55.285C144.782 54.713 144.547 54.0017 144.547 53.151C144.547 52.3003 144.782 51.589 145.251 51.017C145.728 50.445 146.373 50.159 147.187 50.159C148.016 50.159 148.624 50.4523 149.013 51.039ZM149.068 53.151C149.068 52.6157 148.921 52.1757 148.628 51.831C148.342 51.4863 147.953 51.314 147.462 51.314C146.978 51.314 146.589 51.4863 146.296 51.831C146.003 52.1757 145.856 52.6157 145.856 53.151C145.856 53.6717 146.003 54.108 146.296 54.46C146.589 54.8047 146.978 54.977 147.462 54.977C147.953 54.977 148.342 54.8047 148.628 54.46C148.921 54.1153 149.068 53.679 149.068 53.151ZM158.291 53.316L156.773 53.547C156.062 53.657 155.706 53.9283 155.706 54.361C155.706 54.8597 156.044 55.109 156.718 55.109C157.224 55.109 157.613 54.9733 157.884 54.702C158.156 54.4307 158.291 54.0897 158.291 53.679V53.316ZM156.454 56.132C155.78 56.132 155.277 55.9743 154.947 55.659C154.617 55.3437 154.452 54.9257 154.452 54.405C154.452 53.4077 155.182 52.8063 156.641 52.601L158.291 52.37V52.282C158.291 51.5853 157.884 51.237 157.07 51.237C156.359 51.237 155.956 51.5193 155.86 52.084H154.584C154.643 51.5267 154.874 51.0683 155.277 50.709C155.688 50.3423 156.297 50.159 157.103 50.159C157.917 50.159 158.53 50.346 158.94 50.72C159.358 51.094 159.567 51.6183 159.567 52.293V54.922C159.567 55.384 159.622 55.7433 159.732 56H158.489C158.482 56 158.471 55.9743 158.456 55.923C158.449 55.8643 158.438 55.7727 158.423 55.648C158.416 55.5233 158.412 55.3913 158.412 55.252C158.024 55.8387 157.371 56.132 156.454 56.132ZM163.565 54.834V55.967C163.404 56.011 163.176 56.033 162.883 56.033C161.768 56.033 161.211 55.472 161.211 54.35V51.336H160.342V50.291H161.211V48.806H162.52V50.291H163.587V51.336H162.52V54.218C162.52 54.6653 162.733 54.889 163.158 54.889L163.565 54.834ZM170.372 57.375H169.657V56.154C168.829 56.11 168.194 55.8533 167.754 55.384C167.322 54.9073 167.098 54.3207 167.083 53.624H168.403C168.433 53.9833 168.55 54.2803 168.755 54.515C168.968 54.7423 169.269 54.8817 169.657 54.933V52.612L169.184 52.469C167.945 52.095 167.325 51.358 167.325 50.258C167.325 49.664 167.538 49.1617 167.963 48.751C168.396 48.3403 168.961 48.1057 169.657 48.047V46.815H170.372V48.047C171.106 48.1203 171.674 48.388 172.077 48.85C172.481 49.3047 172.69 49.873 172.704 50.555H171.373C171.359 50.247 171.267 49.9793 171.098 49.752C170.93 49.5173 170.688 49.3633 170.372 49.29V51.446L170.625 51.512C171.344 51.71 171.868 52.0033 172.198 52.392C172.536 52.7807 172.704 53.2757 172.704 53.877C172.704 54.4783 172.495 54.9843 172.077 55.395C171.667 55.8057 171.098 56.0513 170.372 56.132V57.375ZM168.656 50.214C168.656 50.4927 168.726 50.698 168.865 50.83C169.012 50.962 169.276 51.1013 169.657 51.248V49.257C169.349 49.2937 169.104 49.3963 168.92 49.565C168.744 49.7337 168.656 49.95 168.656 50.214ZM171.351 53.888C171.351 53.624 171.274 53.4077 171.12 53.239C170.974 53.063 170.724 52.92 170.372 52.81V54.911C170.673 54.8597 170.911 54.746 171.087 54.57C171.263 54.394 171.351 54.1667 171.351 53.888ZM178.887 54.889V56H174.113V54.889H175.829V49.51H174.157V48.63L176.093 48.19H177.171V54.889H178.887ZM180.273 54.471H181.736L180.834 57.441H179.668L180.273 54.471ZM185.334 48.025C186.17 48.025 186.841 48.2963 187.347 48.839C187.853 49.3743 188.106 50.0417 188.106 50.841C188.106 51.6843 187.868 52.524 187.391 53.36C186.915 54.196 186.247 55.076 185.389 56H183.739C184.891 54.878 185.712 53.866 186.203 52.964C185.866 53.1913 185.488 53.305 185.07 53.305C184.315 53.305 183.71 53.0557 183.255 52.557C182.801 52.0583 182.573 51.4423 182.573 50.709C182.573 49.961 182.83 49.3267 183.343 48.806C183.864 48.2853 184.528 48.025 185.334 48.025ZM184.322 49.62C184.066 49.8987 183.937 50.2617 183.937 50.709C183.937 51.1563 184.066 51.5193 184.322 51.798C184.586 52.0767 184.924 52.216 185.334 52.216C185.745 52.216 186.079 52.0767 186.335 51.798C186.599 51.5193 186.731 51.1563 186.731 50.709C186.731 50.2617 186.599 49.8987 186.335 49.62C186.079 49.3413 185.745 49.202 185.334 49.202C184.924 49.202 184.586 49.3413 184.322 49.62ZM191.737 48.025C192.573 48.025 193.244 48.2963 193.75 48.839C194.256 49.3743 194.509 50.0417 194.509 50.841C194.509 51.6843 194.27 52.524 193.794 53.36C193.317 54.196 192.65 55.076 191.792 56H190.142C191.293 54.878 192.114 53.866 192.606 52.964C192.268 53.1913 191.891 53.305 191.473 53.305C190.717 53.305 190.112 53.0557 189.658 52.557C189.203 52.0583 188.976 51.4423 188.976 50.709C188.976 49.961 189.232 49.3267 189.746 48.806C190.266 48.2853 190.93 48.025 191.737 48.025ZM190.725 49.62C190.468 49.8987 190.34 50.2617 190.34 50.709C190.34 51.1563 190.468 51.5193 190.725 51.798C190.989 52.0767 191.326 52.216 191.737 52.216C192.147 52.216 192.481 52.0767 192.738 51.798C193.002 51.5193 193.134 51.1563 193.134 50.709C193.134 50.2617 193.002 49.8987 192.738 49.62C192.481 49.3413 192.147 49.202 191.737 49.202C191.326 49.202 190.989 49.3413 190.725 49.62ZM198.139 48.025C198.975 48.025 199.646 48.2963 200.152 48.839C200.658 49.3743 200.911 50.0417 200.911 50.841C200.911 51.6843 200.673 52.524 200.196 53.36C199.719 54.196 199.052 55.076 198.194 56H196.544C197.695 54.878 198.517 53.866 199.008 52.964C198.671 53.1913 198.293 53.305 197.875 53.305C197.12 53.305 196.515 53.0557 196.06 52.557C195.605 52.0583 195.378 51.4423 195.378 50.709C195.378 49.961 195.635 49.3267 196.148 48.806C196.669 48.2853 197.332 48.025 198.139 48.025ZM197.127 49.62C196.87 49.8987 196.742 50.2617 196.742 50.709C196.742 51.1563 196.87 51.5193 197.127 51.798C197.391 52.0767 197.728 52.216 198.139 52.216C198.55 52.216 198.883 52.0767 199.14 51.798C199.404 51.5193 199.536 51.1563 199.536 50.709C199.536 50.2617 199.404 49.8987 199.14 49.62C198.883 49.3413 198.55 49.202 198.139 49.202C197.728 49.202 197.391 49.3413 197.127 49.62Z" fill="white"/>
</g>
<path d="M250.659 125.563C250.602 125.563 250.538 125.552 250.48 125.534C250.301 125.47 250.18 125.308 250.18 125.127V110.871C250.18 110.697 250.295 110.54 250.467 110.47C250.531 110.447 250.595 110.435 250.659 110.435C250.781 110.435 250.896 110.476 250.985 110.552L262.494 120.313C262.641 120.435 262.686 120.627 262.616 120.79C262.546 120.959 262.367 121.069 262.168 121.069H255.615L251.005 125.43C250.909 125.517 250.787 125.563 250.659 125.563Z" fill="#1A1D1F"/>
<path d="M262.821 119.994L251.311 110.233C251.132 110.081 250.896 110 250.659 110C250.531 110 250.397 110.023 250.276 110.07C249.924 110.209 249.7 110.523 249.7 110.872V125.128C249.7 125.483 249.937 125.802 250.301 125.936C250.416 125.977 250.538 126 250.659 126C250.915 126 251.164 125.907 251.35 125.733L255.819 121.506H262.168C262.565 121.506 262.916 121.285 263.064 120.953C263.204 120.616 263.108 120.238 262.821 119.994ZM255.41 120.628L250.659 125.122V110.866L262.168 120.628H255.41Z" fill="white"/>
</g>
<defs>
<filter id="filter0_f_52518_47876" x="79" y="18" width="238" height="133" filterUnits="userSpaceOnUse" color-interpolation-filters="sRGB">
<feFlood flood-opacity="0" result="BackgroundImageFix"/>
<feBlend mode="normal" in="SourceGraphic" in2="BackgroundImageFix" result="shape"/>
<feGaussianBlur stdDeviation="0.5" result="effect1_foregroundBlur_52518_47876"/>
</filter>
<filter id="filter1_bd_52518_47876" x="-30" y="-30" width="278" height="128" filterUnits="userSpaceOnUse" color-interpolation-filters="sRGB">
<feFlood flood-opacity="0" result="BackgroundImageFix"/>
<feGaussianBlur in="BackgroundImageFix" stdDeviation="15"/>
<feComposite in2="SourceAlpha" operator="in" result="effect1_backgroundBlur_52518_47876"/>
<feColorMatrix in="SourceAlpha" type="matrix" values="0 0 0 0 0 0 0 0 0 0 0 0 0 0 0 0 0 0 127 0" result="hardAlpha"/>
<feOffset dy="4"/>
<feGaussianBlur stdDeviation="6"/>
<feComposite in2="hardAlpha" operator="out"/>
<feColorMatrix type="matrix" values="0 0 0 0 0 0 0 0 0 0 0 0 0 0 0 0 0 0 0.25 0"/>
<feBlend mode="normal" in2="effect1_backgroundBlur_52518_47876" result="effect2_dropShadow_52518_47876"/>
<feBlend mode="normal" in="SourceGraphic" in2="effect2_dropShadow_52518_47876" result="shape"/>
</filter>
<linearGradient id="paint0_linear_52518_47876" x1="264" y1="118.432" x2="92" y2="118.432" gradientUnits="userSpaceOnUse">
<stop stop-color="#00A862"/>
<stop offset="1" stop-color="#00AF92"/>
</linearGradient>
<linearGradient id="paint1_linear_52518_47876" x1="218" y1="34" x2="2.86831e-06" y2="34" gradientUnits="userSpaceOnUse">
<stop stop-color="#482BFF"/>
<stop offset="1" stop-color="#007AFF"/>
</linearGradient>
<linearGradient id="paint2_linear_52518_47876" x1="218" y1="34" x2="2.86831e-06" y2="34" gradientUnits="userSpaceOnUse">
<stop stop-color="#482BFF"/>
<stop offset="1" stop-color="#007AFF"/>
</linearGradient>
<linearGradient id="paint3_linear_52518_47876" x1="20" y1="14" x2="8" y2="14" gradientUnits="userSpaceOnUse">
<stop stop-color="#482BFF"/>
<stop offset="1" stop-color="#007AFF"/>
</linearGradient>
<clipPath id="clip0_52518_47876">
<rect width="264" height="126" fill="white"/>
</clipPath>
</defs>
</svg>
