<svg fill="none" height="126" viewBox="0 0 264 126" width="264" xmlns="http://www.w3.org/2000/svg" xmlns:xlink="http://www.w3.org/1999/xlink"><filter id="a" color-interpolation-filters="sRGB" filterUnits="userSpaceOnUse" height="133" width="238" x="79" y="18"><feFlood flood-opacity="0" result="BackgroundImageFix"/><feBlend in="SourceGraphic" in2="BackgroundImageFix" mode="normal" result="shape"/><feGaussianBlur result="effect1_foregroundBlur_52518_47876" stdDeviation=".5"/></filter><filter id="b" color-interpolation-filters="sRGB" filterUnits="userSpaceOnUse" height="128" width="278" x="-30" y="-30"><feFlood flood-opacity="0" result="BackgroundImageFix"/><feGaussianBlur in="BackgroundImageFix" stdDeviation="15"/><feComposite in2="SourceAlpha" operator="in" result="effect1_backgroundBlur_52518_47876"/><feColorMatrix in="SourceAlpha" result="hardAlpha" type="matrix" values="0 0 0 0 0 0 0 0 0 0 0 0 0 0 0 0 0 0 127 0"/><feOffset dy="4"/><feGaussianBlur stdDeviation="6"/><feComposite in2="hardAlpha" operator="out"/><feColorMatrix type="matrix" values="0 0 0 0 0 0 0 0 0 0 0 0 0 0 0 0 0 0 0.25 0"/><feBlend in2="effect1_backgroundBlur_52518_47876" mode="normal" result="effect2_dropShadow_52518_47876"/><feBlend in="SourceGraphic" in2="effect2_dropShadow_52518_47876" mode="normal" result="shape"/></filter><linearGradient id="c" gradientUnits="userSpaceOnUse" x1="264" x2="92" y1="118.432" y2="118.432"><stop offset="0" stop-color="#00a862"/><stop offset="1" stop-color="#00af92"/></linearGradient><linearGradient id="d"><stop offset="0" stop-color="#482bff"/><stop offset="1" stop-color="#007aff"/></linearGradient><linearGradient id="e" gradientUnits="userSpaceOnUse" x1="218" x2=".000003" xlink:href="#d" y1="34" y2="34"/><linearGradient id="f" gradientUnits="userSpaceOnUse" x1="20" x2="8" xlink:href="#d" y1="14" y2="14"/><clipPath id="g"><path d="m0 0h264v126h-264z"/></clipPath><g clip-path="url(#g)"><g filter="url(#a)" opacity=".5"><rect fill="#fff" fill-opacity=".06" height="131" rx="8" width="236" x="80" y="19"/><rect height="130" rx="7.5" stroke="#fff" stroke-opacity=".08" width="235" x="80.5" y="19.5"/><rect fill="#fff" fill-opacity=".06" height="59" rx="4" width="212" x="92" y="35"/><path d="m110.952 50.687v1.313h-5.642v-1.313h2.028v-6.357h-1.976v-1.04l2.288-.52h1.274v7.917zm3.095 1.131c-.2.1907-.455.286-.767.286s-.572-.0953-.78-.286c-.2-.1993-.299-.455-.299-.767 0-.3033.099-.5547.299-.754.208-.208.468-.312.78-.312.303 0 .554.104.754.312.208.1993.312.4507.312.754 0 .312-.1.5677-.299.767zm4.603.377c-1.074 0-1.898-.4333-2.47-1.3-.563-.8753-.845-2.0453-.845-3.51s.282-2.6303.845-3.497c.572-.8753 1.396-1.313 2.47-1.313 1.066 0 1.885.4377 2.457 1.313.572.8667.858 2.0323.858 3.497s-.286 2.6347-.858 3.51c-.572.8667-1.391 1.3-2.457 1.3zm1.703-4.81c0-2.21-.567-3.315-1.703-3.315-1.135 0-1.703 1.105-1.703 3.315s.568 3.315 1.703 3.315c1.136 0 1.703-1.105 1.703-3.315zm5.864 4.81c-1.075 0-1.898-.4333-2.47-1.3-.564-.8753-.845-2.0453-.845-3.51s.281-2.6303.845-3.497c.572-.8753 1.395-1.313 2.47-1.313 1.066 0 1.885.4377 2.457 1.313.572.8667.858 2.0323.858 3.497s-.286 2.6347-.858 3.51c-.572.8667-1.391 1.3-2.457 1.3zm1.703-4.81c0-2.21-.568-3.315-1.703-3.315-1.136 0-1.703 1.105-1.703 3.315s.567 3.315 1.703 3.315c1.135 0 1.703-1.105 1.703-3.315z" fill="#f5f5f7"/><path d="m107.926 65.125h-.585v-.999c-.678-.036-1.197-.246-1.557-.63-.354-.39-.537-.87-.549-1.44h1.08c.024.294.12.537.288.729.174.186.42.3.738.342v-1.899l-.387-.117c-1.014-.306-1.521-.909-1.521-1.809 0-.486.174-.897.522-1.233.354-.336.816-.528 1.386-.576v-1.008h.585v1.008c.6.06 1.065.279 1.395.657.33.372.501.837.513 1.395h-1.089c-.012-.252-.087-.471-.225-.657-.138-.192-.336-.318-.594-.378v1.764l.207.054c.588.162 1.017.402 1.287.72.276.318.414.723.414 1.215s-.171.906-.513 1.242c-.336.336-.801.537-1.395.603zm-1.404-5.859c0 .228.057.396.171.504.12.108.336.222.648.342v-1.629c-.252.03-.453.114-.603.252-.144.138-.216.315-.216.531zm2.205 3.006c0-.216-.063-.393-.189-.531-.12-.144-.324-.261-.612-.351v1.719c.246-.042.441-.135.585-.279s.216-.33.216-.558zm6.165.819v.909h-3.906v-.909h1.404v-4.401h-1.368v-.72l1.584-.36h.882v5.481zm1.134-.342h1.197l-.738 2.43h-.954zm4.142-5.274c.684 0 1.233.222 1.647.666.414.438.621.984.621 1.638 0 .69-.195 1.377-.585 2.061s-.936 1.404-1.638 2.16h-1.35c.942-.918 1.614-1.746 2.016-2.484-.276.186-.585.279-.927.279-.618 0-1.113-.204-1.485-.612s-.558-.912-.558-1.512c0-.612.21-1.131.63-1.557.426-.426.969-.639 1.629-.639zm-.828 1.305c-.21.228-.315.525-.315.891s.105.663.315.891c.216.228.492.342.828.342s.609-.114.819-.342c.216-.228.324-.525.324-.891s-.108-.663-.324-.891c-.21-.228-.483-.342-.819-.342s-.612.114-.828.342zm6.066-1.305c.684 0 1.233.222 1.647.666.414.438.621.984.621 1.638 0 .69-.195 1.377-.585 2.061s-.936 1.404-1.638 2.16h-1.35c.942-.918 1.614-1.746 2.016-2.484-.276.186-.585.279-.927.279-.618 0-1.113-.204-1.485-.612s-.558-.912-.558-1.512c0-.612.21-1.131.63-1.557.426-.426.969-.639 1.629-.639zm-.828 1.305c-.21.228-.315.525-.315.891s.105.663.315.891c.216.228.492.342.828.342s.609-.114.819-.342c.216-.228.324-.525.324-.891s-.108-.663-.324-.891c-.21-.228-.483-.342-.819-.342s-.612.114-.828.342zm6.066-1.305c.684 0 1.233.222 1.647.666.414.438.621.984.621 1.638 0 .69-.195 1.377-.585 2.061s-.936 1.404-1.638 2.16h-1.35c.942-.918 1.614-1.746 2.016-2.484-.276.186-.585.279-.927.279-.618 0-1.113-.204-1.485-.612s-.558-.912-.558-1.512c0-.612.21-1.131.63-1.557.426-.426.969-.639 1.629-.639zm-.828 1.305c-.21.228-.315.525-.315.891s.105.663.315.891c.216.228.492.342.828.342s.609-.114.819-.342c.216-.228.324-.525.324-.891s-.108-.663-.324-.891c-.21-.228-.483-.342-.819-.342s-.612.114-.828.342zm5.139 5.094c-.138.132-.315.198-.531.198s-.396-.066-.54-.198c-.138-.138-.207-.315-.207-.531 0-.21.069-.384.207-.522.144-.144.324-.216.54-.216.21 0 .384.072.522.216.144.138.216.312.216.522 0 .216-.069.393-.207.531zm3.187.261c-.744 0-1.314-.3-1.71-.9-.39-.606-.585-1.416-.585-2.43s.195-1.821.585-2.421c.396-.606.966-.909 1.71-.909.738 0 1.305.303 1.701.909.396.6.594 1.407.594 2.421s-.198 1.824-.594 2.43c-.396.6-.963.9-1.701.9zm1.179-3.33c0-1.53-.393-2.295-1.179-2.295s-1.179.765-1.179 2.295.393 2.295 1.179 2.295 1.179-.765 1.179-2.295zm4.06 3.33c-.744 0-1.314-.3-1.71-.9-.39-.606-.585-1.416-.585-2.43s.195-1.821.585-2.421c.396-.606.966-.909 1.71-.909.738 0 1.305.303 1.701.909.396.6.594 1.407.594 2.421s-.198 1.824-.594 2.43c-.396.6-.963.9-1.701.9zm1.179-3.33c0-1.53-.393-2.295-1.179-2.295s-1.179.765-1.179 2.295.393 2.295 1.179 2.295 1.179-.765 1.179-2.295z" fill="#6f7073"/><circle cx="211" cy="51" fill="#eceff0" r="8"/><path d="m211 45.3334-.073.2479v7.1935l.073.0728 3.332-1.9737z" fill="#333"/><path d="m210.999 45.3334-3.332 5.5405 3.332 1.9738v-3.4916z" fill="#8c8c8c"/><path d="m210.999 53.934-.041.0501v2.5625l.041.12 3.334-4.7054z" fill="#333"/><path d="m210.999 56.6666v-2.7326l-3.332-1.9728z" fill="#8c8c8c"/><path d="m210.999 52.8477 3.332-1.9738-3.332-1.5177z" fill="#141414"/><path d="m207.667 50.8738 3.332 1.9738v-3.4915z" fill="#383838"/><path d="m234.579 54.044v1.456h-6.487v-9.23h6.487v1.456h-4.914v2.366h4.693v1.456h-4.693v2.496zm7.693-7.774v1.495h-2.678v7.735h-1.573v-7.735h-2.678v-1.495zm8.708 0v9.23h-1.573v-3.952h-4.381v3.952h-1.573v-9.23h1.573v3.822h4.381v-3.822zm5.799 5.135v1.443h-4.134v-1.443zm3.24-1.001h2.262c.503 0 .876-.117 1.118-.351.252-.234.377-.559.377-.975s-.125-.7453-.377-.988c-.251-.2427-.624-.364-1.118-.364h-2.262zm0 1.456v3.64h-1.573v-9.23h3.822c1.049 0 1.825.26 2.327.78.512.5113.767 1.1873.767 2.028 0 .832-.26 1.5037-.78 2.015s-1.291.767-2.314.767zm13.268 2.184v1.456h-6.487v-9.23h6.487v1.456h-4.914v2.366h4.693v1.456h-4.693v2.496zm9.188 1.456h-1.846l-1.872-3.64h-2.119v3.64h-1.573v-9.23h4.056c.988 0 1.742.2557 2.262.767s.78 1.1873.78 2.028c0 .6327-.152 1.1787-.455 1.638-.304.4507-.754.7713-1.352.962zm-2.262-5.46c.242-.2427.364-.5677.364-.975s-.122-.7323-.364-.975c-.243-.2427-.603-.364-1.079-.364h-2.496v2.678h2.496c.476 0 .836-.1213 1.079-.364zm5.172.364h2.262c.502 0 .875-.117 1.118-.351.251-.234.377-.559.377-.975s-.126-.7453-.377-.988c-.252-.2427-.624-.364-1.118-.364h-2.262zm0 1.456v3.64h-1.573v-9.23h3.822c1.048 0 1.824.26 2.327.78.511.5113.767 1.1873.767 2.028 0 .832-.26 1.5037-.78 2.015s-1.292.767-2.314.767z" fill="#f5f5f7"/><path d="m92 70h212v20c0 2.2091-1.791 4-4 4h-204c-2.2091 0-4-1.7909-4-4z" fill="#fff" fill-opacity=".06"/><path d="m106.255 81.688h1.914c.425 0 .741-.099.946-.297.213-.198.319-.473.319-.825s-.106-.6307-.319-.836-.528-.308-.946-.308h-1.914zm0 1.232v3.08h-1.331v-7.81h3.234c.887 0 1.544.22 1.969.66.433.4327.649 1.0047.649 1.716 0 .704-.22 1.2723-.66 1.705s-1.093.649-1.958.649zm7.847 3.212c-.88 0-1.595-.2897-2.145-.869-.543-.5793-.814-1.2833-.814-2.112s.271-1.5327.814-2.112c.55-.5867 1.265-.88 2.145-.88.887 0 1.602.2933 2.145.88.55.5793.825 1.2833.825 2.112s-.275 1.5327-.825 2.112c-.543.5793-1.258.869-2.145.869zm-1.65-2.981c0 .5427.154.9827.462 1.32.315.3373.711.506 1.188.506.484 0 .88-.1687 1.188-.506.315-.3373.473-.7773.473-1.32 0-.55-.158-.9937-.473-1.331-.308-.3373-.704-.506-1.188-.506-.477 0-.873.1687-1.188.506-.308.3373-.462.781-.462 1.331zm7.79 2.981c-.784 0-1.375-.1833-1.771-.55s-.612-.836-.649-1.408h1.265c.015.264.129.4767.341.638.213.1613.51.242.891.242.338 0 .598-.0587.781-.176.184-.1173.275-.275.275-.473 0-.22-.113-.3813-.341-.484-.22-.11-.491-.1907-.814-.242-.322-.0513-.645-.1173-.968-.198-.322-.088-.597-.2567-.825-.506-.22-.2493-.33-.5903-.33-1.023 0-.4987.206-.9203.616-1.265.418-.352.968-.528 1.65-.528.389 0 .73.0623 1.023.187.301.1173.532.275.693.473.169.198.294.3997.374.605.088.2053.14.4143.154.627h-1.254c-.022-.2273-.121-.4217-.297-.583-.168-.1613-.41-.242-.726-.242-.315 0-.557.0623-.726.187-.168.1173-.253.2823-.253.495 0 .198.11.3483.33.451.228.1027.503.1797.825.231.323.0513.646.1247.968.22.323.088.594.2603.814.517.228.2567.341.5977.341 1.023 0 .5133-.209.9387-.627 1.276-.41.3373-.997.506-1.76.506zm4.224-6.798c-.242 0-.44-.0733-.594-.22-.154-.154-.231-.3483-.231-.583 0-.242.077-.44.231-.594s.352-.231.594-.231c.234 0 .429.077.583.231s.231.352.231.594c0 .2347-.077.429-.231.583-.154.1467-.349.22-.583.22zm-.66 6.666v-5.709h1.309v5.709zm5.452-1.166v1.133c-.161.044-.388.066-.682.066-1.114 0-1.672-.561-1.672-1.683v-3.014h-.869v-1.045h.869v-1.485h1.309v1.485h1.067v1.045h-1.067v2.882c0 .4473.213.671.638.671zm1.728-5.5c-.242 0-.44-.0733-.594-.22-.154-.154-.231-.3483-.231-.583 0-.242.077-.44.231-.594s.352-.231.594-.231c.235 0 .429.077.583.231s.231.352.231.594c0 .2347-.077.429-.231.583-.154.1467-.348.22-.583.22zm-.66 6.666v-5.709h1.309v5.709zm5.475.132c-.88 0-1.595-.2897-2.145-.869-.543-.5793-.814-1.2833-.814-2.112s.271-1.5327.814-2.112c.55-.5867 1.265-.88 2.145-.88.887 0 1.602.2933 2.145.88.55.5793.825 1.2833.825 2.112s-.275 1.5327-.825 2.112c-.543.5793-1.258.869-2.145.869zm-1.65-2.981c0 .5427.154.9827.462 1.32.315.3373.711.506 1.188.506.484 0 .88-.1687 1.188-.506.315-.3373.473-.7773.473-1.32 0-.55-.158-.9937-.473-1.331-.308-.3373-.704-.506-1.188-.506-.477 0-.873.1687-1.188.506-.308.3373-.462.781-.462 1.331zm7.042-2.86v.759c.132-.2493.349-.4583.649-.627.308-.176.679-.264 1.111-.264.675 0 1.196.2053 1.562.616.374.4107.561.957.561 1.639v3.586h-1.309v-3.421c0-.4033-.095-.7187-.286-.946-.183-.2347-.465-.352-.847-.352-.418 0-.748.1247-.99.374-.234.2493-.352.594-.352 1.034v3.311h-1.309v-5.709z" fill="#a4a5a8"/><rect fill="#6f7073" height="14" rx="4" width="32" x="186" y="75"/><path d="m192.305 80.41v4.59h-1.071v-6.39h1.107l3.105 4.599v-4.599h1.071v6.39h-1.116zm7.729 4.698c-.72 0-1.305-.237-1.755-.711-.444-.474-.666-1.05-.666-1.728s.222-1.254.666-1.728c.45-.48 1.035-.72 1.755-.72.726 0 1.311.24 1.755.72.45.474.675 1.05.675 1.728s-.225 1.254-.675 1.728c-.444.474-1.029.711-1.755.711zm-1.35-2.439c0 .444.126.804.378 1.08.258.276.582.414.972.414.396 0 .72-.138.972-.414.258-.276.387-.636.387-1.08 0-.45-.129-.813-.387-1.089-.252-.276-.576-.414-.972-.414-.39 0-.714.138-.972.414-.252.276-.378.639-.378 1.089zm5.763-2.34v.621c.108-.204.285-.375.531-.513.252-.144.555-.216.909-.216.552 0 .978.168 1.278.504.306.336.459.783.459 1.341v2.934h-1.071v-2.799c0-.33-.078-.588-.234-.774-.15-.192-.381-.288-.693-.288-.342 0-.612.102-.81.306-.192.204-.288.486-.288.846v2.709h-1.071v-4.671zm8.734 2.646h-3.555c.042.372.177.669.405.891.228.216.528.324.9.324.246 0 .468-.06.666-.18s.339-.282.423-.486h1.08c-.144.474-.414.858-.81 1.152-.39.288-.852.432-1.386.432-.696 0-1.26-.231-1.692-.693-.426-.462-.639-1.047-.639-1.755 0-.69.216-1.269.648-1.737s.99-.702 1.674-.702 1.236.231 1.656.693c.426.456.639 1.032.639 1.728zm-2.286-1.881c-.336 0-.615.099-.837.297s-.36.462-.414.792h2.484c-.048-.33-.18-.594-.396-.792s-.495-.297-.837-.297z" fill="#fff"/><path d="m232 82-3.804-4m3.804 4-3.804 4m3.804-4h-8" stroke="#a4a5a8" stroke-linecap="round" stroke-linejoin="round" stroke-width="1.5"/><rect fill="#00a862" height="14" rx="4" width="30" x="238" y="75"/><path d="m247.048 83.992v1.008h-4.05v-6.39h1.089v5.382zm2.861 1.116c-.72 0-1.305-.237-1.755-.711-.444-.474-.666-1.05-.666-1.728s.222-1.254.666-1.728c.45-.48 1.035-.72 1.755-.72.726 0 1.311.24 1.755.72.45.474.675 1.05.675 1.728s-.225 1.254-.675 1.728c-.444.474-1.029.711-1.755.711zm-1.35-2.439c0 .444.126.804.378 1.08.258.276.582.414.972.414.396 0 .72-.138.972-.414.258-.276.387-.636.387-1.08 0-.45-.129-.813-.387-1.089-.252-.276-.576-.414-.972-.414-.39 0-.714.138-.972.414-.252.276-.378.639-.378 1.089zm5.763-2.34v.621c.108-.204.285-.375.531-.513.252-.144.555-.216.909-.216.552 0 .978.168 1.278.504.306.336.459.783.459 1.341v2.934h-1.071v-2.799c0-.33-.078-.588-.234-.774-.15-.192-.381-.288-.693-.288-.342 0-.612.102-.81.306-.192.204-.288.486-.288.846v2.709h-1.071v-4.671zm7.834.666v-.666h.99v4.473c0 .636-.198 1.155-.594 1.557-.39.408-.936.612-1.638.612-.642 0-1.146-.165-1.512-.495-.36-.33-.57-.708-.63-1.134h1.071c.132.474.495.711 1.089.711.36 0 .639-.102.837-.306.204-.198.306-.465.306-.801v-.729c-.312.48-.804.72-1.476.72-.648 0-1.17-.225-1.566-.675-.39-.456-.585-1.017-.585-1.683s.195-1.224.585-1.674c.396-.456.918-.684 1.566-.684.714 0 1.233.258 1.557.774zm-.036 1.584c0-.414-.12-.753-.36-1.017s-.555-.396-.945-.396c-.384 0-.696.132-.936.396s-.36.603-.36 1.017c0 .408.12.747.36 1.017.24.264.552.396.936.396.39 0 .705-.132.945-.396.24-.27.36-.609.36-1.017z" fill="#fff"/><rect fill="url(#c)" height="32" rx="4" width="172" x="92" y="102"/><path d="m149.357 122.5h-4.069v-9.23h3.9c1.014 0 1.777.238 2.288.715.52.468.78 1.075.78 1.82 0 .477-.117.893-.351 1.248-.225.347-.537.611-.936.793.433.165.776.425 1.027.78.26.355.39.776.39 1.261 0 .815-.26 1.456-.78 1.924-.52.459-1.27.689-2.249.689zm-.052-3.809h-2.171v2.106h2.171c.78 0 1.17-.351 1.17-1.053 0-.321-.1-.576-.299-.767-.191-.191-.481-.286-.871-.286zm-.13-3.718h-2.041v2.002h2.041c.373 0 .659-.082.858-.247.208-.173.312-.425.312-.754 0-.295-.1-.533-.299-.715-.191-.191-.481-.286-.871-.286zm8.905 4.589v-3.874h1.846v6.812h-1.703v-.832c-.355.659-1.022.988-2.002.988-.797 0-1.412-.243-1.846-.728-.424-.494-.637-1.157-.637-1.989v-4.251h1.846v4.043c0 .893.377 1.339 1.131 1.339.451 0 .789-.13 1.014-.39.234-.26.351-.633.351-1.118zm4.233 5.642 1.144-2.821-2.691-6.695h1.963l1.638 4.55 1.651-4.55h1.924l-3.809 9.516zm9.289-2.704 3.757-9.23h1.859l-3.757 9.23zm16.241-1.742v1.742h-5.993v-9.23h1.898v7.488zm6.428.871c-.659.685-1.521 1.027-2.587 1.027s-1.928-.342-2.587-1.027c-.659-.693-.988-1.538-.988-2.535s.329-1.837.988-2.522c.659-.693 1.521-1.04 2.587-1.04s1.928.347 2.587 1.04c.659.685.988 1.525.988 2.522s-.329 1.842-.988 2.535zm-3.835-3.952c-.321.347-.481.819-.481 1.417s.16 1.07.481 1.417c.329.347.745.52 1.248.52s.914-.173 1.235-.52c.329-.347.494-.819.494-1.417s-.165-1.07-.494-1.417c-.321-.347-.732-.52-1.235-.52s-.919.173-1.248.52zm7.79-1.989v.832c.356-.659 1.032-.988 2.028-.988.806 0 1.426.247 1.859.741.434.485.65 1.144.65 1.976v4.251h-1.846v-4.043c0-.893-.385-1.339-1.157-1.339-.442 0-.784.134-1.027.403-.242.26-.364.62-.364 1.079v3.9h-1.846v-6.812zm10.978.832v-.832h1.703v6.552c0 .91-.294 1.655-.884 2.236-.589.581-1.391.871-2.405.871-.962 0-1.711-.256-2.249-.767-.528-.511-.823-1.083-.884-1.716h1.846c.122.598.559.897 1.313.897.46 0 .811-.117 1.053-.351.243-.234.364-.559.364-.975v-.949c-.442.589-1.105.884-1.989.884-.927 0-1.677-.325-2.249-.975-.572-.659-.858-1.473-.858-2.444s.286-1.781.858-2.431c.572-.659 1.322-.988 2.249-.988.971 0 1.682.329 2.132.988zm-.546 3.731c.304-.329.455-.763.455-1.3s-.151-.971-.455-1.3c-.303-.329-.702-.494-1.196-.494s-.892.165-1.196.494c-.303.329-.455.763-.455 1.3s.152.971.455 1.3c.304.329.702.494 1.196.494s.893-.165 1.196-.494z" fill="#fff"/></g><g filter="url(#b)"><rect fill="url(#e)" fill-opacity=".3" height="68" rx="8" shape-rendering="crispEdges" width="218"/><rect height="67" rx="7.5" shape-rendering="crispEdges" stroke="url(#e)" width="217" x=".5" y=".5"/><path d="m8 12.2667c0-1.4935 0-2.2402.29065-2.81067.25566-.50177.66361-.90972 1.16538-1.16538.57047-.29065 1.31717-.29065 2.81067-.29065h3.4666c1.4935 0 2.2402 0 2.8107.29065.5017.25566.9097.66361 1.1654 1.16538.2906.57047.2906 1.31717.2906 2.81067v3.4666c0 1.4935 0 2.2402-.2906 2.8107-.2557.5017-.6637.9097-1.1654 1.1654-.5705.2906-1.3172.2906-2.8107.2906h-3.4666c-1.4935 0-2.2402 0-2.81067-.2906-.50177-.2557-.90972-.6637-1.16538-1.1654-.29065-.5705-.29065-1.3172-.29065-2.8107z" fill="url(#f)"/><g fill="#fff"><path d="m10.5751 14.2755c-.3509.8729.0688 1.8665.9374 2.2191l1.271-3.1611c-.8687-.3526-1.8574.0691-2.2084.942z"/><path d="m12.6882 14.8708c-.4011.9976.0785 2.133 1.0713 2.5361.9927.4031 2.1227-.0789 2.5238-1.0765z"/><path d="m16.0335 10.4507c1.241.5038 1.8405 1.9231 1.3392 3.1702-.5014 1.247-1.9139 1.8495-3.1548 1.3456z"/><path d="m11.6169 12.3346c.3008-.7482 1.1483-1.1097 1.8928-.8074.7446.3023 1.1043 1.1539.8035 1.9021z"/></g><path d="m31.575 18h-2.651v-7.81h2.651c1.32 0 2.3467.3593 3.08 1.078.7407.7113 1.111 1.6537 1.111 2.827s-.3703 2.1193-1.111 2.838c-.7333.7113-1.76 1.067-3.08 1.067zm2.068-1.936c.4767-.4767.715-1.133.715-1.969s-.2383-1.4887-.715-1.958c-.4693-.4767-1.1733-.715-2.112-.715h-1.276v5.346h1.276c.9387 0 1.6427-.2347 2.112-.704zm8.6785-.539h-4.345c.0513.4547.2163.8177.495 1.089.2787.264.6453.396 1.1.396.3007 0 .572-.0733.814-.22s.4143-.3447.517-.594h1.32c-.176.5793-.506 1.0487-.99 1.408-.4767.352-1.0413.528-1.694.528-.8507 0-1.54-.2823-2.068-.847-.5207-.5647-.781-1.2797-.781-2.145 0-.8433.264-1.551.792-2.123s1.21-.858 2.046-.858 1.5107.2823 2.024.847c.5207.5573.781 1.2613.781 2.112zm-2.794-2.299c-.4107 0-.7517.121-1.023.363s-.44.5647-.506.968h3.036c-.0587-.4033-.22-.726-.484-.968s-.605-.363-1.023-.363zm8.9748 1.496v3.278h-1.309v-3.421c0-.8653-.3594-1.298-1.078-1.298-.3887 0-.7004.1247-.935.374-.2274.2493-.341.5903-.341 1.023v3.322h-1.309v-5.709h1.21v.759c.1393-.2567.352-.4693.638-.638s.6416-.253 1.067-.253c.792 0 1.364.3007 1.716.902.484-.6013 1.1293-.902 1.936-.902.6673 0 1.1806.209 1.54.627.3593.4107.539.9533.539 1.628v3.586h-1.309v-3.421c0-.8653-.3594-1.298-1.078-1.298-.396 0-.7114.1283-.946.385-.2274.2493-.341.6013-.341 1.056zm10.4588.803h-4.345c.0514.4547.2164.8177.495 1.089.2787.264.6454.396 1.1.396.3007 0 .572-.0733.814-.22s.4144-.3447.517-.594h1.32c-.176.5793-.506 1.0487-.99 1.408-.4766.352-1.0413.528-1.694.528-.8506 0-1.54-.2823-2.068-.847-.5206-.5647-.781-1.2797-.781-2.145 0-.8433.264-1.551.792-2.123s1.21-.858 2.046-.858 1.5107.2823 2.024.847c.5207.5573.781 1.2613.781 2.112zm-2.794-2.299c-.4106 0-.7516.121-1.023.363-.2713.242-.44.5647-.506.968h3.036c-.0586-.4033-.22-.726-.484-.968s-.605-.363-1.023-.363zm8.8055-.935-2.167 2.816 2.244 2.893h-1.584l-1.397-1.914-1.408 1.914h-1.573l2.233-2.893-2.167-2.816h1.573l1.342 1.826 1.331-1.826z" fill="#f5f5f7"/><path d="m184.009 12.39v5.61h-1.309v-7.81h1.353l3.795 5.621v-5.621h1.309v7.81h-1.364zm9.448 5.742c-.88 0-1.595-.2897-2.145-.869-.543-.5793-.814-1.2833-.814-2.112s.271-1.5327.814-2.112c.55-.5867 1.265-.88 2.145-.88.887 0 1.602.2933 2.145.88.55.5793.825 1.2833.825 2.112s-.275 1.5327-.825 2.112c-.543.5793-1.258.869-2.145.869zm-1.65-2.981c0 .5427.154.9827.462 1.32.315.3373.711.506 1.188.506.484 0 .88-.1687 1.188-.506.315-.3373.473-.7773.473-1.32 0-.55-.158-.9937-.473-1.331-.308-.3373-.704-.506-1.188-.506-.477 0-.873.1687-1.188.506-.308.3373-.462.781-.462 1.331zm10.831 2.849-1.287-3.916h-.011l-1.298 3.916h-1.243l-1.991-5.709h1.353l1.276 4.092 1.309-4.092h1.21l1.298 4.103 1.287-4.103h1.331l-1.991 5.709z" fill="#fff" opacity=".5"/><path d="m14.64 34.071c-.4913.5133-.737 1.188-.737 2.024s.2457 1.5107.737 2.024 1.122.77 1.892.77 1.4007-.2567 1.892-.77.737-1.188.737-2.024-.2457-1.5107-.737-2.024-1.122-.77-1.892-.77-1.4007.2567-1.892.77zm-1.012 4.939c-.7553-.7773-1.133-1.749-1.133-2.915s.3777-2.134 1.133-2.904c.7553-.7773 1.7233-1.166 2.904-1.166s2.1487.3887 2.904 1.166c.7553.77 1.133 1.738 1.133 2.904s-.3777 2.1377-1.133 2.915c-.7553.77-1.7233 1.155-2.904 1.155s-2.1487-.385-2.904-1.155zm11.3104-4.763v1.221c-.1027-.0147-.2017-.022-.297-.022-.9827 0-1.474.528-1.474 1.584v2.97h-1.309v-5.709h1.21v.792c.3227-.5647.8837-.847 1.683-.847zm4.7933.792v-3.289h1.309v8.25h-1.21v-.814c-.3887.6307-1.0304.946-1.925.946-.814 0-1.4594-.2823-1.936-.847-.4694-.572-.704-1.2833-.704-2.134s.2346-1.562.704-2.134c.4766-.572 1.122-.858 1.936-.858.8286 0 1.4373.2933 1.826.88zm.055 2.112c0-.5353-.1467-.9753-.44-1.32-.286-.3447-.6747-.517-1.166-.517-.484 0-.8727.1723-1.166.517-.2934.3447-.44.7847-.44 1.32 0 .5207.1466.957.44 1.309.2933.3447.682.517 1.166.517.4913 0 .88-.1723 1.166-.517.2933-.3447.44-.781.44-1.309zm8.1041.374h-4.345c.0514.4547.2164.8177.495 1.089.2787.264.6454.396 1.1.396.3007 0 .572-.0733.814-.22s.4144-.3447.517-.594h1.32c-.176.5793-.506 1.0487-.99 1.408-.4766.352-1.0413.528-1.694.528-.8506 0-1.54-.2823-2.068-.847-.5206-.5647-.781-1.2797-.781-2.145 0-.8433.264-1.551.792-2.123s1.21-.858 2.046-.858 1.5107.2823 2.024.847c.5207.5573.781 1.2613.781 2.112zm-2.794-2.299c-.4106 0-.7516.121-1.023.363-.2713.242-.44.5647-.506.968h3.036c-.0586-.4033-.22-.726-.484-.968s-.605-.363-1.023-.363zm7.0828-.979v1.221c-.1026-.0147-.2016-.022-.297-.022-.9826 0-1.474.528-1.474 1.584v2.97h-1.309v-5.709h1.21v.792c.3227-.5647.8837-.847 1.683-.847zm5.2688 5.753h-1.331v-7.81h5.104v1.232h-3.773v2.002h3.586v1.232h-3.586zm5.5563-6.666c-.242 0-.44-.0733-.594-.22-.154-.154-.231-.3483-.231-.583 0-.242.077-.44.231-.594s.352-.231.594-.231c.2347 0 .429.077.583.231s.231.352.231.594c0 .2347-.077.429-.231.583-.154.1467-.3483.22-.583.22zm-.66 6.666v-5.709h1.309v5.709zm4.1987 0h-1.309v-8.25h1.309zm2.8896 0h-1.309v-8.25h1.309zm6.8387-2.475h-4.345c.0513.4547.2163.8177.495 1.089.2786.264.6453.396 1.1.396.3006 0 .572-.0733.814-.22s.4143-.3447.517-.594h1.32c-.176.5793-.506 1.0487-.99 1.408-.4767.352-1.0414.528-1.694.528-.8507 0-1.54-.2823-2.068-.847-.5207-.5647-.781-1.2797-.781-2.145 0-.8433.264-1.551.792-2.123s1.21-.858 2.046-.858 1.5106.2823 2.024.847c.5206.5573.781 1.2613.781 2.112zm-2.794-2.299c-.4107 0-.7517.121-1.023.363-.2714.242-.44.5647-.506.968h3.036c-.0587-.4033-.22-.726-.484-.968s-.605-.363-1.023-.363zm8.0948-.187v-3.289h1.309v8.25h-1.21v-.814c-.3887.6307-1.0304.946-1.925.946-.814 0-1.4594-.2823-1.936-.847-.4694-.572-.704-1.2833-.704-2.134s.2346-1.562.704-2.134c.4766-.572 1.122-.858 1.936-.858.8286 0 1.4373.2933 1.826.88zm.055 2.112c0-.5353-.1467-.9753-.44-1.32-.286-.3447-.6747-.517-1.166-.517-.484 0-.8727.1723-1.166.517-.2934.3447-.44.7847-.44 1.32 0 .5207.1466.957.44 1.309.2933.3447.682.517 1.166.517.4913 0 .88-.1723 1.166-.517.2933-.3447.44-.781.44-1.309z" fill="#a4a5a8"/><path d="m18.413 54.768v1.232h-5.489v-7.81h5.489v1.232h-4.158v2.002h3.971v1.232h-3.971v2.112zm6.5092-6.578v1.265h-2.266v6.545h-1.331v-6.545h-2.266v-1.265zm7.3688 0v7.81h-1.331v-3.344h-3.707v3.344h-1.331v-7.81h1.331v3.234h3.707v-3.234zm4.9068 4.345v1.221h-3.498v-1.221zm2.7418-.847h1.914c.4253 0 .7406-.099.946-.297.2126-.198.319-.473.319-.825s-.1064-.6307-.319-.836c-.2127-.2053-.528-.308-.946-.308h-1.914zm0 1.232v3.08h-1.331v-7.81h3.234c.8873 0 1.5436.22 1.969.66.4326.4327.649 1.0047.649 1.716 0 .704-.22 1.2723-.66 1.705s-1.0927.649-1.958.649zm11.2263 1.848v1.232h-5.489v-7.81h5.489v1.232h-4.158v2.002h3.971v1.232h-3.971v2.112zm7.7742 1.232h-1.562l-1.584-3.08h-1.793v3.08h-1.331v-7.81h3.432c.836 0 1.474.2163 1.914.649s.66 1.0047.66 1.716c0 .5353-.1283.9973-.385 1.386-.2567.3813-.638.6527-1.144.814zm-1.914-4.62c.2053-.2053.308-.4803.308-.825s-.1027-.6197-.308-.825-.5097-.308-.913-.308h-2.112v2.266h2.112c.4033 0 .7077-.1027.913-.308zm4.3764.308h1.914c.4253 0 .7406-.099.946-.297.2126-.198.319-.473.319-.825s-.1064-.6307-.319-.836c-.2127-.2053-.528-.308-.946-.308h-1.914zm0 1.232v3.08h-1.331v-7.81h3.234c.8873 0 1.5436.22 1.969.66.4326.4327.649 1.0047.649 1.716 0 .704-.22 1.2723-.66 1.705s-1.0927.649-1.958.649zm9.7717 3.08h-1.309v-8.25h1.309zm2.2407-6.666c-.242 0-.44-.0733-.594-.22-.154-.154-.231-.3483-.231-.583 0-.242.077-.44.231-.594s.352-.231.594-.231c.2347 0 .429.077.583.231s.231.352.231.594c0 .2347-.077.429-.231.583-.154.1467-.3483.22-.583.22zm-.66 6.666v-5.709h1.309v5.709zm7.8616-3.278v3.278h-1.309v-3.421c0-.8653-.3593-1.298-1.078-1.298-.3886 0-.7003.1247-.935.374-.2273.2493-.341.5903-.341 1.023v3.322h-1.309v-5.709h1.21v.759c.1394-.2567.352-.4693.638-.638s.6417-.253 1.067-.253c.792 0 1.364.3007 1.716.902.484-.6013 1.1294-.902 1.936-.902.6674 0 1.1807.209 1.54.627.3594.4107.539.9533.539 1.628v3.586h-1.309v-3.421c0-.8653-.3593-1.298-1.078-1.298-.396 0-.7113.1283-.946.385-.2273.2493-.341.6013-.341 1.056zm5.8609-3.388c-.242 0-.44-.0733-.594-.22-.154-.154-.231-.3483-.231-.583 0-.242.077-.44.231-.594s.352-.231.594-.231c.2347 0 .429.077.583.231s.231.352.231.594c0 .2347-.077.429-.231.583-.154.1467-.3483.22-.583.22zm-.66 6.666v-5.709h1.309v5.709zm5.4526-1.166v1.133c-.1613.044-.3886.066-.682.066-1.1146 0-1.672-.561-1.672-1.683v-3.014h-.869v-1.045h.869v-1.485h1.309v1.485h1.067v1.045h-1.067v2.882c0 .4473.2127.671.638.671zm6.5103 1.298c-.88 0-1.595-.2897-2.145-.869-.5426-.5793-.814-1.2833-.814-2.112s.2714-1.5327.814-2.112c.55-.5867 1.265-.88 2.145-.88.8874 0 1.6024.2933 2.145.88.5497.5793.8247 1.2833.8247 2.112s-.275 1.5327-.8247 2.112c-.5426.5793-1.2576.869-2.145.869zm-1.65-2.981c0 .5427.154.9827.462 1.32.3154.3373.7114.506 1.188.506.484 0 .88-.1687 1.188-.506.3154-.3373.473-.7773.473-1.32 0-.55-.1576-.9937-.473-1.331-.308-.3373-.704-.506-1.188-.506-.4766 0-.8726.1687-1.188.506-.308.3373-.462.781-.462 1.331zm8.9127-2.904v1.221c-.103-.0147-.202-.022-.297-.022-.983 0-1.474.528-1.474 1.584v2.97h-1.309v-5.709h1.21v.792c.323-.5647.884-.847 1.683-.847zm4.793.792v-3.289h1.309v8.25h-1.21v-.814c-.389.6307-1.03.946-1.925.946-.814 0-1.459-.2823-1.936-.847-.469-.572-.704-1.2833-.704-2.134s.235-1.562.704-2.134c.477-.572 1.122-.858 1.936-.858.829 0 1.437.2933 1.826.88zm.055 2.112c0-.5353-.147-.9753-.44-1.32-.286-.3447-.675-.517-1.166-.517-.484 0-.873.1723-1.166.517s-.44.7847-.44 1.32c0 .5207.147.957.44 1.309.293.3447.682.517 1.166.517.491 0 .88-.1723 1.166-.517.293-.3447.44-.781.44-1.309zm8.104.374h-4.345c.052.4547.217.8177.495 1.089.279.264.646.396 1.1.396.301 0 .572-.0733.814-.22s.415-.3447.517-.594h1.32c-.176.5793-.506 1.0487-.99 1.408-.476.352-1.041.528-1.694.528-.85 0-1.54-.2823-2.068-.847-.52-.5647-.781-1.2797-.781-2.145 0-.8433.264-1.551.792-2.123s1.21-.858 2.046-.858 1.511.2823 2.024.847c.521.5573.781 1.2613.781 2.112zm-2.794-2.299c-.41 0-.751.121-1.023.363-.271.242-.44.5647-.506.968h3.036c-.058-.4033-.22-.726-.484-.968s-.605-.363-1.023-.363zm7.083-.979v1.221c-.103-.0147-.202-.022-.297-.022-.983 0-1.474.528-1.474 1.584v2.97h-1.309v-5.709h1.21v.792c.323-.5647.884-.847 1.683-.847zm4.081.044v-.605c0-.6453.165-1.1293.495-1.452s.781-.484 1.353-.484l.44.033v1.155c-.044-.0147-.125-.022-.242-.022-.264 0-.455.066-.572.198-.11.1247-.165.341-.165.649v.528h1.012v1.045h-1.012v4.664h-1.309v-4.664h-.913v-1.045zm3.916-.957c-.242 0-.44-.0733-.594-.22-.154-.154-.231-.3483-.231-.583 0-.242.077-.44.231-.594s.352-.231.594-.231c.235 0 .429.077.583.231s.231.352.231.594c0 .2347-.077.429-.231.583-.154.1467-.348.22-.583.22zm-.66 6.666v-5.709h1.309v5.709zm4.363 0h-1.309v-8.25h1.309zm2.889 0h-1.309v-8.25h1.309zm6.839-2.475h-4.345c.051.4547.216.8177.495 1.089.279.264.645.396 1.1.396.301 0 .572-.0733.814-.22s.414-.3447.517-.594h1.32c-.176.5793-.506 1.0487-.99 1.408-.477.352-1.041.528-1.694.528-.851 0-1.54-.2823-2.068-.847-.521-.5647-.781-1.2797-.781-2.145 0-.8433.264-1.551.792-2.123s1.21-.858 2.046-.858 1.511.2823 2.024.847c.521.5573.781 1.2613.781 2.112zm-2.794-2.299c-.411 0-.752.121-1.023.363s-.44.5647-.506.968h3.036c-.059-.4033-.22-.726-.484-.968s-.605-.363-1.023-.363zm8.095-.187v-3.289h1.309v8.25h-1.21v-.814c-.389.6307-1.03.946-1.925.946-.814 0-1.459-.2823-1.936-.847-.469-.572-.704-1.2833-.704-2.134s.235-1.562.704-2.134c.477-.572 1.122-.858 1.936-.858.829 0 1.437.2933 1.826.88zm.055 2.112c0-.5353-.147-.9753-.44-1.32-.286-.3447-.675-.517-1.166-.517-.484 0-.873.1723-1.166.517s-.44.7847-.44 1.32c0 .5207.147.957.44 1.309.293.3447.682.517 1.166.517.491 0 .88-.1723 1.166-.517.293-.3447.44-.781.44-1.309zm9.223.165-1.518.231c-.711.11-1.067.3813-1.067.814 0 .4987.338.748 1.012.748.506 0 .895-.1357 1.166-.407.272-.2713.407-.6123.407-1.023zm-1.837 2.816c-.674 0-1.177-.1577-1.507-.473s-.495-.7333-.495-1.254c0-.9973.73-1.5987 2.189-1.804l1.65-.231v-.088c0-.6967-.407-1.045-1.221-1.045-.711 0-1.114.2823-1.21.847h-1.276c.059-.5573.29-1.0157.693-1.375.411-.3667 1.02-.55 1.826-.55.814 0 1.427.187 1.837.561.418.374.627.8983.627 1.573v2.629c0 .462.055.8213.165 1.078h-1.243c-.007 0-.018-.0257-.033-.077-.007-.0587-.018-.1503-.033-.275-.007-.1247-.011-.2567-.011-.396-.388.5867-1.041.88-1.958.88zm7.111-1.298v1.133c-.161.044-.389.066-.682.066-1.115 0-1.672-.561-1.672-1.683v-3.014h-.869v-1.045h.869v-1.485h1.309v1.485h1.067v1.045h-1.067v2.882c0 .4473.213.671.638.671zm6.807 2.541h-.715v-1.221c-.828-.044-1.463-.3007-1.903-.77-.432-.4767-.656-1.0633-.671-1.76h1.32c.03.3593.147.6563.352.891.213.2273.514.3667.902.418v-2.321l-.473-.143c-1.239-.374-1.859-1.111-1.859-2.211 0-.594.213-1.0963.638-1.507.433-.4107.998-.6453 1.694-.704v-1.232h.715v1.232c.734.0733 1.302.341 1.705.803.404.4547.613 1.023.627 1.705h-1.331c-.014-.308-.106-.5757-.275-.803-.168-.2347-.41-.3887-.726-.462v2.156l.253.066c.719.198 1.243.4913 1.573.88.338.3887.506.8837.506 1.485s-.209 1.1073-.627 1.518c-.41.4107-.979.6563-1.705.737zm-1.716-7.161c0 .2787.07.484.209.616.147.132.411.2713.792.418v-1.991c-.308.0367-.553.1393-.737.308-.176.1687-.264.385-.264.649zm2.695 3.674c0-.264-.077-.4803-.231-.649-.146-.176-.396-.319-.748-.429v2.101c.301-.0513.539-.165.715-.341s.264-.4033.264-.682zm7.536 1.001v1.111h-4.774v-1.111h1.716v-5.379h-1.672v-.88l1.936-.44h1.078v6.699zm1.386-.418h1.463l-.902 2.97h-1.166zm5.061-6.446c.836 0 1.507.2713 2.013.814.506.5353.759 1.2027.759 2.002 0 .8433-.238 1.683-.715 2.519-.476.836-1.144 1.716-2.002 2.64h-1.65c1.152-1.122 1.973-2.134 2.464-3.036-.337.2273-.715.341-1.133.341-.755 0-1.36-.2493-1.815-.748-.454-.4987-.682-1.1147-.682-1.848 0-.748.257-1.3823.77-1.903.521-.5207 1.185-.781 1.991-.781zm-1.012 1.595c-.256.2787-.385.6417-.385 1.089s.129.8103.385 1.089c.264.2787.602.418 1.012.418.411 0 .745-.1393 1.001-.418.264-.2787.396-.6417.396-1.089s-.132-.8103-.396-1.089c-.256-.2787-.59-.418-1.001-.418-.41 0-.748.1393-1.012.418zm7.415-1.595c.836 0 1.507.2713 2.013.814.506.5353.759 1.2027.759 2.002 0 .8433-.239 1.683-.715 2.519-.477.836-1.144 1.716-2.002 2.64h-1.65c1.151-1.122 1.972-2.134 2.464-3.036-.338.2273-.715.341-1.133.341-.756 0-1.361-.2493-1.815-.748-.455-.4987-.682-1.1147-.682-1.848 0-.748.256-1.3823.77-1.903.52-.5207 1.184-.781 1.991-.781zm-1.012 1.595c-.257.2787-.385.6417-.385 1.089s.128.8103.385 1.089c.264.2787.601.418 1.012.418.41 0 .744-.1393 1.001-.418.264-.2787.396-.6417.396-1.089s-.132-.8103-.396-1.089c-.257-.2787-.591-.418-1.001-.418-.411 0-.748.1393-1.012.418zm7.414-1.595c.836 0 1.507.2713 2.013.814.506.5353.759 1.2027.759 2.002 0 .8433-.238 1.683-.715 2.519s-1.144 1.716-2.002 2.64h-1.65c1.151-1.122 1.973-2.134 2.464-3.036-.337.2273-.715.341-1.133.341-.755 0-1.36-.2493-1.815-.748s-.682-1.1147-.682-1.848c0-.748.257-1.3823.77-1.903.521-.5207 1.184-.781 1.991-.781zm-1.012 1.595c-.257.2787-.385.6417-.385 1.089s.128.8103.385 1.089c.264.2787.601.418 1.012.418s.744-.1393 1.001-.418c.264-.2787.396-.6417.396-1.089s-.132-.8103-.396-1.089c-.257-.2787-.59-.418-1.001-.418s-.748.1393-1.012.418z" fill="#fff"/></g><path d="m250.659 125.563c-.057 0-.121-.011-.179-.029-.179-.064-.3-.226-.3-.407v-14.256c0-.174.115-.331.287-.401.064-.023.128-.035.192-.035.122 0 .237.041.326.117l11.509 9.761c.147.122.192.314.122.477-.07.169-.249.279-.448.279h-6.553l-4.61 4.361c-.096.087-.218.133-.346.133z" fill="#1a1d1f"/><path d="m262.821 119.994-11.51-9.761c-.179-.152-.415-.233-.652-.233-.128 0-.262.023-.383.07-.352.139-.576.453-.576.802v14.256c0 .355.237.674.601.808.115.041.237.064.358.064.256 0 .505-.093.691-.267l4.469-4.227h6.349c.397 0 .748-.221.896-.553.14-.337.044-.715-.243-.959zm-7.411.634-4.751 4.494v-14.256l11.509 9.762z" fill="#fff"/></g></svg>