<?xml version="1.0" encoding="UTF-8"?>
<svg width="577px" height="379px" viewBox="0 0 577 379" version="1.1" xmlns="http://www.w3.org/2000/svg" xmlns:xlink="http://www.w3.org/1999/xlink">
    <title>graphic</title>
    <defs>
        <path d="M74.2,8.4 C37.2489763,8.4 8.4,25.2739296 8.4,43.4 C8.4,61.5260704 37.2489763,78.4 74.2,78.4 C111.151024,78.4 140,61.5260704 140,43.4 C140,25.2739296 111.151024,8.4 74.2,8.4 Z" id="path-1"></path>
        <filter x="-0.8%" y="-1.4%" width="101.5%" height="102.9%" filterUnits="objectBoundingBox" id="filter-2">
            <feOffset dx="0" dy="2" in="SourceAlpha" result="shadowOffsetInner1"></feOffset>
            <feComposite in="shadowOffsetInner1" in2="SourceAlpha" operator="arithmetic" k2="-1" k3="1" result="shadowInnerInner1"></feComposite>
            <feColorMatrix values="0 0 0 0 0.231458487   0 0 0 0 0.448121834   0 0 0 0 0.790589706  0 0 0 1 0" type="matrix" in="shadowInnerInner1"></feColorMatrix>
        </filter>
        <path d="M91.4247666,31.4 C54.473743,31.4 25.6247666,48.2739296 25.6247666,66.4 C25.6247666,84.5260704 54.473743,101.4 91.4247666,101.4 C128.37579,101.4 157.224767,84.5260704 157.224767,66.4 C157.224767,48.2739296 128.37579,31.4 91.4247666,31.4 Z" id="path-3"></path>
        <filter x="-0.8%" y="-1.4%" width="101.5%" height="102.9%" filterUnits="objectBoundingBox" id="filter-4">
            <feOffset dx="0" dy="2" in="SourceAlpha" result="shadowOffsetInner1"></feOffset>
            <feComposite in="shadowOffsetInner1" in2="SourceAlpha" operator="arithmetic" k2="-1" k3="1" result="shadowInnerInner1"></feComposite>
            <feColorMatrix values="0 0 0 0 0.231458487   0 0 0 0 0.448121834   0 0 0 0 0.790589706  0 0 0 1 0" type="matrix" in="shadowInnerInner1"></feColorMatrix>
        </filter>
        <path d="M74.2,8.4 C37.2489763,8.4 8.4,25.2739296 8.4,43.4 C8.4,61.5260704 37.2489763,78.4 74.2,78.4 C111.151024,78.4 140,61.5260704 140,43.4 C140,25.2739296 111.151024,8.4 74.2,8.4 Z" id="path-5"></path>
        <filter x="-0.8%" y="-1.4%" width="101.5%" height="102.9%" filterUnits="objectBoundingBox" id="filter-6">
            <feOffset dx="0" dy="2" in="SourceAlpha" result="shadowOffsetInner1"></feOffset>
            <feComposite in="shadowOffsetInner1" in2="SourceAlpha" operator="arithmetic" k2="-1" k3="1" result="shadowInnerInner1"></feComposite>
            <feColorMatrix values="0 0 0 0 0.231458487   0 0 0 0 0.448121834   0 0 0 0 0.790589706  0 0 0 1 0" type="matrix" in="shadowInnerInner1"></feColorMatrix>
        </filter>
        <path d="M74.2,8.4 C37.2489763,8.4 8.4,25.2739296 8.4,43.4 C8.4,61.5260704 37.2489763,78.4 74.2,78.4 C111.151024,78.4 140,61.5260704 140,43.4 C140,25.2739296 111.151024,8.4 74.2,8.4 Z" id="path-7"></path>
        <filter x="-0.8%" y="-1.4%" width="101.5%" height="102.9%" filterUnits="objectBoundingBox" id="filter-8">
            <feOffset dx="0" dy="2" in="SourceAlpha" result="shadowOffsetInner1"></feOffset>
            <feComposite in="shadowOffsetInner1" in2="SourceAlpha" operator="arithmetic" k2="-1" k3="1" result="shadowInnerInner1"></feComposite>
            <feColorMatrix values="0 0 0 0 0.231458487   0 0 0 0 0.448121834   0 0 0 0 0.790589706  0 0 0 1 0" type="matrix" in="shadowInnerInner1"></feColorMatrix>
        </filter>
        <path d="M101.157829,56.5724967 C60.5117026,56.5724967 28.7778286,75.1338192 28.7778286,95.0724967 C28.7778286,115.011174 60.5117026,133.572497 101.157829,133.572497 C141.803955,133.572497 173.537829,115.011174 173.537829,95.0724967 C173.537829,75.1338192 141.803955,56.5724967 101.157829,56.5724967 Z" id="path-9"></path>
        <filter x="-0.7%" y="-1.3%" width="101.4%" height="102.6%" filterUnits="objectBoundingBox" id="filter-10">
            <feOffset dx="0" dy="2" in="SourceAlpha" result="shadowOffsetInner1"></feOffset>
            <feComposite in="shadowOffsetInner1" in2="SourceAlpha" operator="arithmetic" k2="-1" k3="1" result="shadowInnerInner1"></feComposite>
            <feColorMatrix values="0 0 0 0 0.231372549   0 0 0 0 0.447058824   0 0 0 0 0.792156863  0 0 0 1 0" type="matrix" in="shadowInnerInner1"></feColorMatrix>
        </filter>
    </defs>
    <g id="Marketing-Collaterals" stroke="none" stroke-width="1" fill="none" fill-rule="evenodd">
        <g id="graphic">
            <ellipse id="Oval" fill="#F1F3F8" cx="288.5" cy="347.5" rx="288.5" ry="31.5"></ellipse>
            <g id="Group-7" transform="translate(313.000000, 232.000000)">
                <path d="M74.2,18.2 C100.154794,18.2 122.997082,25.9945829 136.257905,37.8000178 L145.6,37.8 C147.146397,37.8 148.4,39.0536027 148.4,40.6 L148.4,67.2 C148.4,68.1666623 147.910145,69.0189128 147.165128,69.52206 C140.801697,89.708069 110.554009,105 74.2,105 C37.8459908,105 7.59830279,89.708069 1.23312264,69.5215991 C0.489854706,69.0189128 -1.54723505e-15,68.1666623 0,67.2 L0,40.6 C-1.8937905e-16,39.0536027 1.2536027,37.8 2.8,37.8 L12.1420951,37.8000178 C25.4029178,25.9945829 48.2452059,18.2 74.2,18.2 Z" id="Combined-Shape" fill="#3362CC"></path>
                <path d="M74.2,105 C37.8459908,105 7.59830279,89.708069 1.23312264,69.5215991 C0.489854706,69.0189128 -1.54723505e-15,68.1666623 0,67.2 L0,40.6 C-1.8937905e-16,39.0536027 1.2536027,37.8 2.8,37.8 L20.2413898,37.7999521 C32.583462,30.9214211 50.5696654,24.3881037 74.2,18.2 L74.2,18.2 Z" id="Combined-Shape" fill="#193869"></path>
                <path d="M74.2,0 C115.179528,0 148.4,19.4308419 148.4,43.4 C148.4,67.3691581 115.179528,86.8 74.2,86.8 C33.2204716,86.8 0,67.3691581 0,43.4 C0,19.4308419 33.2204716,0 74.2,0 Z M74.2,8.4 C37.2489763,8.4 8.4,25.2739296 8.4,43.4 C8.4,61.5260704 37.2489763,78.4 74.2,78.4 C111.151024,78.4 140,61.5260704 140,43.4 C140,25.2739296 111.151024,8.4 74.2,8.4 Z" id="Oval" fill="#6595FF" fill-rule="nonzero"></path>
                <g id="Path" fill-rule="nonzero">
                    <use fill="#3C72EA" xlink:href="#path-1"></use>
                    <use fill="black" fill-opacity="1" filter="url(#filter-2)" xlink:href="#path-1"></use>
                </g>
            </g>
            <g id="Group-3" transform="translate(375.106873, 189.305335)">
                <path d="M85.2,40.1024057 C111.154794,40.1024057 133.997082,47.8969886 147.257905,59.7024235 L156.6,59.7024057 C158.146397,59.7024057 159.4,60.9560084 159.4,62.5024057 L159.4,89.1024057 C159.4,90.069068 158.910145,90.9213185 158.165128,91.4244657 C151.801697,111.610475 121.554009,126.902406 85.2,126.902406 C48.8459908,126.902406 18.5983028,111.610475 12.2331226,91.4240048 C11.4898547,90.9213185 11,90.069068 11,89.1024057 L11,62.5024057 C11,60.9560084 12.2536027,59.7024057 13.8,59.7024057 L23.1420951,59.7024235 C36.4029178,47.8969886 59.2452059,40.1024057 85.2,40.1024057 Z" id="Combined-Shape" fill="#3362CC" transform="translate(85.200000, 83.502406) rotate(20.000000) translate(-85.200000, -83.502406) "></path>
                <path d="M87.4374038,114.213458 C51.0833945,114.213458 20.8357066,98.9215274 14.4705264,78.7350575 C13.7272585,78.2323712 13.2374038,77.3801206 13.2374038,76.4134584 L13.2374038,49.8134584 C13.2374038,48.2670611 14.4910065,47.0134584 16.0374038,47.0134584 L33.4787935,47.0134104 C45.8208657,40.1348794 63.8070692,33.6015621 87.4374038,27.4134584 L87.4374038,27.4134584 Z" id="Combined-Shape" fill="#193869" transform="translate(50.337404, 70.813458) rotate(20.000000) translate(-50.337404, -70.813458) "></path>
                <path d="M91.4247666,23 C132.404295,23 165.624767,42.4308419 165.624767,66.4 C165.624767,90.3691581 132.404295,109.8 91.4247666,109.8 C50.4452382,109.8 17.2247666,90.3691581 17.2247666,66.4 C17.2247666,42.4308419 50.4452382,23 91.4247666,23 Z M91.4247666,31.4 C54.473743,31.4 25.6247666,48.2739296 25.6247666,66.4 C25.6247666,84.5260704 54.473743,101.4 91.4247666,101.4 C128.37579,101.4 157.224767,84.5260704 157.224767,66.4 C157.224767,48.2739296 128.37579,31.4 91.4247666,31.4 Z" id="Oval" fill="#6595FF" fill-rule="nonzero" transform="translate(91.424767, 66.400000) rotate(20.000000) translate(-91.424767, -66.400000) "></path>
                <g id="Path" fill-rule="nonzero" transform="translate(91.424767, 66.400000) rotate(20.000000) translate(-91.424767, -66.400000) ">
                    <use fill="#3C72EA" xlink:href="#path-3"></use>
                    <use fill="black" fill-opacity="1" filter="url(#filter-4)" xlink:href="#path-3"></use>
                </g>
                <path d="M81.4605686,51.2197982 L98.6944954,47 L90.3559203,63.4605272 L111.364593,86.9788418 L93.7493066,91 L73,67.7720351 L81.4605686,51.2197982 Z M99.8616439,48.306573 L121,71.9700623 L103.26272,76.0829302 L92.1099675,63.597899 L99.8616439,48.306573 Z" id="Combined-Shape" fill="#E0F5FE" transform="translate(97.000000, 69.000000) rotate(-16.000000) translate(-97.000000, -69.000000) "></path>
            </g>
            <g id="Group-7" transform="translate(280.000000, 281.000000) rotate(-10.000000) translate(-280.000000, -281.000000) translate(205.000000, 228.000000)">
                <path d="M74.2,18.2 C100.154794,18.2 122.997082,25.9945829 136.257905,37.8000178 L145.6,37.8 C147.146397,37.8 148.4,39.0536027 148.4,40.6 L148.4,67.2 C148.4,68.1666623 147.910145,69.0189128 147.165128,69.52206 C140.801697,89.708069 110.554009,105 74.2,105 C37.8459908,105 7.59830279,89.708069 1.23312264,69.5215991 C0.489854706,69.0189128 -1.54723505e-15,68.1666623 0,67.2 L0,40.6 C-1.8937905e-16,39.0536027 1.2536027,37.8 2.8,37.8 L12.1420951,37.8000178 C25.4029178,25.9945829 48.2452059,18.2 74.2,18.2 Z" id="Combined-Shape" fill="#3362CC"></path>
                <path d="M74.2,105 C37.8459908,105 7.59830279,89.708069 1.23312264,69.5215991 C0.489854706,69.0189128 -1.54723505e-15,68.1666623 0,67.2 L0,40.6 C-1.8937905e-16,39.0536027 1.2536027,37.8 2.8,37.8 L20.2413898,37.7999521 C32.583462,30.9214211 50.5696654,24.3881037 74.2,18.2 L74.2,18.2 Z" id="Combined-Shape" fill="#193869"></path>
                <path d="M74.2,0 C115.179528,0 148.4,19.4308419 148.4,43.4 C148.4,67.3691581 115.179528,86.8 74.2,86.8 C33.2204716,86.8 0,67.3691581 0,43.4 C0,19.4308419 33.2204716,0 74.2,0 Z M74.2,8.4 C37.2489763,8.4 8.4,25.2739296 8.4,43.4 C8.4,61.5260704 37.2489763,78.4 74.2,78.4 C111.151024,78.4 140,61.5260704 140,43.4 C140,25.2739296 111.151024,8.4 74.2,8.4 Z" id="Oval" fill="#6595FF" fill-rule="nonzero"></path>
                <g id="Path" fill-rule="nonzero">
                    <use fill="#407BFE" xlink:href="#path-5"></use>
                    <use fill="black" fill-opacity="1" filter="url(#filter-6)" xlink:href="#path-5"></use>
                </g>
                <path d="M84.682942,46.4205516 L78.8351892,30 L38,37.1119098 L65.5334708,58.0508733 L84.682942,46.4205516 Z M108,51.5711328 L84.3103333,31.8180864 L90.293329,48.2900627 L70.8717894,60 L108,51.5711328 Z" id="Shape" fill="#E0F5FE"></path>
            </g>
            <g id="Group-7" transform="translate(303.000000, 190.000000)">
                <path d="M74.2,18.2 C100.154138,18.2 122.995928,25.9941891 136.2569,37.7991231 L145.6,37.8 C147.146397,37.8 148.4,39.0536027 148.4,40.6 L148.4,67.2 C148.4,68.1666623 147.910145,69.0189128 147.165128,69.52206 C140.801697,89.708069 110.554009,105 74.2,105 C37.8459908,105 7.59830279,89.708069 1.23312264,69.5215991 C0.489854706,69.0189128 -1.54723505e-15,68.1666623 0,67.2 L0,40.6 C-1.8937905e-16,39.0536027 1.2536027,37.8 2.8,37.8 L12.1431001,37.7991231 C25.4040718,25.9941891 48.2458615,18.2 74.2,18.2 Z" id="Combined-Shape" fill="#3362CC"></path>
                <path d="M74.2,105 C37.8459908,105 7.59830279,89.708069 1.23312264,69.5215991 C0.489854706,69.0189128 -1.54723505e-15,68.1666623 0,67.2 L0,40.6 C-1.8937905e-16,39.0536027 1.2536027,37.8 2.8,37.8 L20.2423848,37.7993975 C32.5844286,30.9210699 50.5703004,24.3879374 74.2,18.2 L74.2,18.2 Z" id="Combined-Shape" fill="#193869"></path>
                <path d="M74.2,0 C115.179528,0 148.4,19.4308419 148.4,43.4 C148.4,67.3691581 115.179528,86.8 74.2,86.8 C33.2204716,86.8 0,67.3691581 0,43.4 C0,19.4308419 33.2204716,0 74.2,0 Z M74.2,8.4 C37.2489763,8.4 8.4,25.2739296 8.4,43.4 C8.4,61.5260704 37.2489763,78.4 74.2,78.4 C111.151024,78.4 140,61.5260704 140,43.4 C140,25.2739296 111.151024,8.4 74.2,8.4 Z" id="Oval" fill="#6595FF" fill-rule="nonzero"></path>
                <g id="Path" fill-rule="nonzero">
                    <use fill="#407BFE" xlink:href="#path-7"></use>
                    <use fill="black" fill-opacity="1" filter="url(#filter-8)" xlink:href="#path-7"></use>
                </g>
                <polygon id="Fill-1" fill="#E0F5FE" points="40.0713531 36.4567157 44.0134452 44.3047895 72.7653114 34.9303792 55.9431492 65.2099081 67.7557754 66.100555 82.6173598 35.7573629 98.7677381 52.8113138 107.120062 48.763352 83.154459 22.5967315"></polygon>
            </g>
            <g id="Group" transform="translate(371.000000, 0.000000)">
                <path d="M83.82,57.3424967 C112.370163,57.3424967 137.496597,65.9164718 152.083527,78.9023661 L162.36,78.9024967 C164.061037,78.9024967 165.44,80.2814597 165.44,81.9824967 L165.44,111.242497 C165.44,112.305645 164.901343,113.242983 164.082057,113.796481 C157.081409,136.001604 123.809135,152.822497 83.82,152.822497 C43.8308648,152.822497 10.5585906,136.001604 3.55657933,113.796714 C2.73865741,113.242983 2.2,112.305645 2.2,111.242497 L2.2,81.9824967 C2.2,80.2814597 3.57896297,78.9024967 5.28,78.9024967 L15.5564733,78.9023661 C30.1434033,65.9164718 55.2698365,57.3424967 83.82,57.3424967 Z" id="Combined-Shape" fill="#193869" transform="translate(83.820000, 105.082497) rotate(60.000000) translate(-83.820000, -105.082497) "></path>
                <path d="M104.225,117.48 C64.2358648,117.48 30.9635906,100.659107 23.9615793,78.454217 C23.1436574,77.9004861 22.605,76.9631481 22.605,75.9 L22.605,46.64 C22.605,44.938963 23.983963,43.56 25.685,43.56 L44.8706054,43.5599046 C58.4468826,35.9935361 78.2316808,28.8069013 104.225,22 L104.225,22 Z" id="Combined-Shape" fill="#3362CC" transform="translate(63.415000, 69.740000) rotate(60.000000) translate(-63.415000, -69.740000) "></path>
                <path d="M101.157829,47.3324967 C146.23531,47.3324967 182.777829,68.7064228 182.777829,95.0724967 C182.777829,121.438571 146.23531,142.812497 101.157829,142.812497 C56.0803473,142.812497 19.5378286,121.438571 19.5378286,95.0724967 C19.5378286,68.7064228 56.0803473,47.3324967 101.157829,47.3324967 Z M101.157829,56.5724967 C60.5117026,56.5724967 28.7778286,75.1338192 28.7778286,95.0724967 C28.7778286,115.011174 60.5117026,133.572497 101.157829,133.572497 C141.803955,133.572497 173.537829,115.011174 173.537829,95.0724967 C173.537829,75.1338192 141.803955,56.5724967 101.157829,56.5724967 Z" id="Oval" fill="#6595FF" fill-rule="nonzero" transform="translate(101.157829, 95.072497) rotate(60.000000) translate(-101.157829, -95.072497) "></path>
                <g id="Path" fill-rule="nonzero" transform="translate(101.157829, 95.072497) rotate(60.000000) translate(-101.157829, -95.072497) ">
                    <use fill="#4076ED" xlink:href="#path-9"></use>
                    <use fill="black" fill-opacity="1" filter="url(#filter-10)" xlink:href="#path-9"></use>
                </g>
                <path d="M98.9007956,60.3442844 L98.4553073,70.8902225 L100.366926,68.9828673 L102.262827,67.1157482 L102.70441,56.639895 L107.468588,52 L107.014942,62.7588652 C112.867438,57.7383553 117.478114,55.5588403 118.056429,61.7045892 L118.110034,62.5947638 L118.118155,63.5248769 C118.051101,68.4741594 116.236634,73.2376038 113.560172,77.5891941 C118.043527,74.6619672 120.735846,75.6020837 119.822661,84.4748034 C118.732378,95.0839243 113.385127,103.111737 105.81457,111.221529 L104.931294,112.15779 L104.471624,123.022094 L99.7074464,127.661989 L100.16153,116.943112 L98.2861128,118.759622 L96.3578055,120.599816 L95.9038323,131.366378 L91.1448192,136 L91.6017706,125.120473 L88.199927,128.39664 L82,134.435132 L83.2764838,125.692142 L85.0297433,124.011917 L86.5887227,122.488843 L86.739632,122.320541 C87.9381874,121.15051 88.3977878,119.694088 88.5693348,118.740623 L88.6210431,118.408191 L89.3464726,101.236494 L89.8497841,100.745469 L89.5757067,100.977545 L89.3481373,101.190254 L89.8646871,88.9339031 C89.7380513,87.7829205 89.1749421,86.8546061 87.2452272,88.7332134 L87.216628,88.7470268 L86.7308857,89.1985791 L83.7854044,92.1057883 L84.079171,85.1125466 L90.6500219,78.7160627 L92.1497283,77.2666219 L93.6837316,75.739608 L94.1391727,64.981691 L98.9007956,60.3442844 Z M101.025098,94.5733534 L100.462551,95.1181289 L97.413044,98.153053 L96.8037304,112.571575 L98.5592296,110.886771 L100.226238,109.253477 L101.409714,108.045746 C101.611576,107.835471 101.815304,107.620878 102.020237,107.40223 L103.258984,106.043794 C106.779689,102.068968 110.265639,97.074483 110.463295,92.3534614 C110.680286,87.2142676 107.029182,89.2773603 103.399242,92.4011139 L102.195381,93.4732241 L101.025098,94.5733534 Z M101.076078,75.6575083 L100.528684,76.1922427 L98.2430377,78.4776777 L97.6912426,91.5538134 L99.8809765,89.4504073 L100.992786,88.3408503 L102.175725,87.0997363 C105.186605,83.8445587 108.466319,79.4916398 109.029883,75.0580256 L109.105475,74.1705282 L109.108211,73.4324124 C108.938158,69.2392433 105.373324,71.6964041 102.228323,74.5718015 L101.076078,75.6575083 Z" id="Shape" fill="#E0F5FE" transform="translate(101.000000, 94.000000) rotate(-30.000000) translate(-101.000000, -94.000000) "></path>
            </g>
            <path d="M526.653512,207.611116 L526.653512,216 L525,216 L525,207.611116 L526.653512,207.611116 Z M526.653512,176 L526.653512,200.040747 L525,200.040747 L525,176 L526.653512,176 Z" id="Shape" fill="#407BFF"></path>
        </g>
    </g>
</svg>