<svg width="353" height="228" viewBox="0 0 353 228" fill="none" xmlns="http://www.w3.org/2000/svg">
<g opacity="0.5" filter="url(#filter0_f_1_6)">
<path d="M145.727 57.3983C161.841 41.9819 180.755 40.0709 200.559 50.6259C211.838 56.6993 221.594 65.1612 229.116 75.3985C227.188 74.1373 226.171 73.4861 225.196 72.8151C204.457 58.2739 182.745 53.4334 158.999 65.9816C149.811 70.8419 140.335 75.6214 129.55 75.6014C124.8 75.6014 120.071 74.9303 115.344 74.5643C127.497 72.6733 137.037 65.7176 145.727 57.3983Z" fill="url(#paint0_linear_1_6)"/>
<path d="M133.987 97.4458C120.092 102.408 106.405 102.449 93.1098 96.2059C87.7385 93.6835 82.7404 90.7143 77.3895 88.0715C68.0167 83.4326 54.9075 80.1384 44 81.8874C45.4524 81.0532 80.9773 74.2607 96.0543 83.0053C107.627 89.7582 119.2 96.6926 133.987 97.4458Z" fill="url(#paint1_linear_1_6)"/>
<path d="M176.046 72.6736C163.602 74.5249 146.078 86.4216 143.361 94.6189C167.274 77.717 176.087 92.1972 173.121 99.1117C144.087 137.369 79.156 108.387 72.6418 108.915C82.6178 118.393 92.1162 128.42 102.61 137.266C121.938 153.537 143.447 165.943 169.7 167.773C176.179 167.863 182.66 167.604 189.111 167C176.791 177.454 163.021 177.474 148.796 175.847C192.74 199.378 246.683 167.183 239.321 139.95C232.559 148.35 227.292 152.154 221.423 152.519C230.175 143.856 229.718 133.504 228.474 121.81V121.808C219.827 129.297 208.772 133.566 197.241 133.87H189.671H189.673C199.018 131.164 207.431 126.002 213.999 118.941C200.311 124.799 186.894 123.599 173.455 122.662H172.293C187.163 113.591 202.489 107.958 221.029 110.968C215.078 100.921 205.538 96.5492 194.608 91.9725C209.478 87.3957 221.258 92.7456 233.453 97.321C217.815 81.4178 200.518 68.931 176.046 72.6736Z" fill="url(#paint2_linear_1_6)"/>
</g>
<path d="M133.727 73.5702C149.841 62.5585 168.755 61.1935 188.559 68.7328C199.838 73.0709 209.594 79.1152 217.116 86.4275C215.188 85.5266 214.171 85.0615 213.196 84.5822C192.457 74.1956 170.745 70.7382 146.999 79.7011C137.811 83.1728 128.335 86.5867 117.55 86.5724C112.8 86.5724 108.071 86.0931 103.344 85.8317C115.497 84.4809 125.037 79.5126 133.727 73.5702Z" fill="white" fill-opacity="0.06"/>
<path d="M121.987 102.176C108.092 105.72 94.4048 105.75 81.1098 101.29C75.7385 99.4882 70.7404 97.3674 65.3895 95.4796C56.0167 92.1662 42.9075 89.8131 32 91.0624C33.4524 90.4666 68.9773 85.6148 84.0543 91.8609C95.6273 96.6844 107.2 101.638 121.987 102.176Z" fill="white" fill-opacity="0.06"/>
<path d="M164.046 84.4811C151.602 85.8035 134.078 94.3011 131.361 100.156C155.274 88.0836 164.087 98.4266 161.121 103.366C132.087 130.692 67.156 109.991 60.6418 110.368C70.6178 117.138 80.1162 124.3 90.61 130.619C109.938 142.241 131.447 151.102 157.7 152.409C164.179 152.473 170.66 152.289 177.111 151.857C164.791 159.324 151.021 159.339 136.796 158.176C180.74 174.984 234.683 151.988 227.321 132.536C220.559 138.536 215.292 141.253 209.423 141.514C218.175 135.326 217.718 127.931 216.474 119.578V119.577C207.827 124.927 196.772 127.976 185.241 128.193H177.671H177.673C187.018 126.26 195.431 122.573 201.999 117.529C188.311 121.713 174.894 120.856 161.455 120.187H160.293C175.163 113.708 190.489 109.684 209.029 111.835C203.078 104.658 193.538 101.535 182.608 98.2661C197.478 94.9969 209.258 98.8183 221.453 102.086C205.815 90.727 188.518 81.8079 164.046 84.4811Z" fill="white" fill-opacity="0.06"/>
<path d="M251.273 145.43C235.159 156.442 216.245 157.807 196.441 150.267C185.162 145.929 175.406 139.885 167.884 132.573C169.812 133.473 170.829 133.938 171.804 134.418C192.543 144.804 214.255 148.262 238.001 139.299C247.189 135.827 256.665 132.413 267.45 132.428C272.2 132.428 276.929 132.907 281.656 133.168C269.503 134.519 259.963 139.487 251.273 145.43Z" fill="white" fill-opacity="0.06"/>
<path d="M263.013 116.824C276.908 113.28 290.595 113.25 303.89 117.71C309.262 119.512 314.26 121.633 319.611 123.52C328.983 126.834 342.093 129.187 353 127.938C351.548 128.533 316.023 133.385 300.946 127.139C289.373 122.316 277.8 117.362 263.013 116.824Z" fill="white" fill-opacity="0.06"/>
<path d="M220.954 134.519C233.398 133.196 250.922 124.699 253.639 118.844C229.726 130.916 220.913 120.573 223.879 115.634C252.913 88.308 317.844 109.009 324.358 108.632C314.382 101.862 304.884 94.7002 294.39 88.3812C275.062 76.7593 253.553 67.8978 227.3 66.5906C220.821 66.5268 214.34 66.7112 207.889 67.1429C220.209 59.6757 233.979 59.6614 248.204 60.8239C204.26 44.0158 150.317 67.0121 157.679 86.4641C164.441 80.4642 169.708 77.7474 175.577 77.4861C166.825 83.6744 167.282 91.0687 168.526 99.4217V99.4228C177.173 94.0734 188.228 91.0243 199.759 90.8074H207.329H207.327C197.982 92.7398 189.569 96.4273 183.001 101.471C196.689 97.2865 210.106 98.1439 223.545 98.8126H224.707C209.837 105.292 194.511 109.316 175.971 107.165C181.922 114.342 191.462 117.465 202.392 120.734C187.522 124.003 175.742 120.182 163.547 116.914C179.185 128.273 196.482 137.192 220.954 134.519Z" fill="white" fill-opacity="0.06"/>
<circle cx="185" cy="114" r="50" fill="white" fill-opacity="0.06"/>
<circle cx="185" cy="114" r="50" stroke="url(#paint3_linear_1_6)" stroke-linecap="round" stroke-dasharray="4 4"/>
<circle cx="185" cy="114" r="50" stroke="white" stroke-opacity="0.8" stroke-linecap="round" stroke-dasharray="4 4"/>
<circle cx="185" cy="114" r="41" fill="white"/>
<path d="M209.981 133C214.5 127.363 217 120.568 217 113C217 95.3269 202.673 81 185 81C167.327 81 153 95.3269 153 113C153 120.568 155.5 127.363 160.019 133C168 141 169 128 185 128C201 128 202 141 209.981 133Z" fill="url(#paint4_linear_1_6)"/>
<path fill-rule="evenodd" clip-rule="evenodd" d="M200.385 97.4144C199.604 96.6334 198.338 96.6334 197.556 97.4144L187.45 107.521C186.702 107.186 185.873 107 185 107C181.686 107 179 109.686 179 113C179 116.314 181.686 119 185 119C188.314 119 191 116.314 191 113C191 112.021 190.765 111.096 190.349 110.279L200.385 100.243C201.166 99.4618 201.166 98.1954 200.385 97.4144Z" fill="white"/>
<defs>
<filter id="filter0_f_1_6" x="0" y="0" width="284" height="228" filterUnits="userSpaceOnUse" color-interpolation-filters="sRGB">
<feFlood flood-opacity="0" result="BackgroundImageFix"/>
<feBlend mode="normal" in="SourceGraphic" in2="BackgroundImageFix" result="shape"/>
<feGaussianBlur stdDeviation="22" result="effect1_foregroundBlur_1_6"/>
</filter>
<linearGradient id="paint0_linear_1_6" x1="144.649" y1="44" x2="144.649" y2="184" gradientUnits="userSpaceOnUse">
<stop stop-color="#00A862"/>
<stop offset="1" stop-color="#00AF92"/>
</linearGradient>
<linearGradient id="paint1_linear_1_6" x1="144.649" y1="44" x2="144.649" y2="184" gradientUnits="userSpaceOnUse">
<stop stop-color="#00A862"/>
<stop offset="1" stop-color="#00AF92"/>
</linearGradient>
<linearGradient id="paint2_linear_1_6" x1="144.649" y1="44" x2="144.649" y2="184" gradientUnits="userSpaceOnUse">
<stop stop-color="#00A862"/>
<stop offset="1" stop-color="#00AF92"/>
</linearGradient>
<linearGradient id="paint3_linear_1_6" x1="235" y1="114" x2="135" y2="114" gradientUnits="userSpaceOnUse">
<stop stop-color="#482BFF"/>
<stop offset="1" stop-color="#007AFF"/>
</linearGradient>
<linearGradient id="paint4_linear_1_6" x1="217" y1="109.039" x2="153" y2="109.039" gradientUnits="userSpaceOnUse">
<stop stop-color="#00A862"/>
<stop offset="1" stop-color="#00AF92"/>
</linearGradient>
</defs>
</svg>
