<svg width="239" height="198" viewBox="0 0 239 198" fill="none" xmlns="http://www.w3.org/2000/svg">
<g opacity="0.5" filter="url(#filter0_f_7089_139140)">
<circle cx="99" cy="99" r="55" fill="url(#paint0_linear_7089_139140)"/>
</g>
<mask id="mask0_7089_139140" style="mask-type:alpha" maskUnits="userSpaceOnUse" x="3" y="21" width="236" height="166">
<rect x="3" y="21" width="236" height="166" fill="white"/>
</mask>
<g mask="url(#mask0_7089_139140)">
<path fill-rule="evenodd" clip-rule="evenodd" d="M220.251 45.5527H219.525V56.8124H215.17V96.9242H219.525V109.591H220.251V96.9242H224.607V56.8124H220.251V45.5527ZM194.844 65.2568H195.57V75.812H199.925V108.183H195.57V116.628H194.844V108.183H190.488V75.812H194.844V65.2568ZM170.888 91.2944H170.162V108.183H165.807V116.628H170.162V129.999H170.888V116.628H175.244V108.183H170.888V91.2944ZM145.481 112.734H146.207V128.215H150.561V135.956H146.207V141.586H145.481V135.956H141.124V128.215H145.481V112.734ZM72.1605 118.739H71.4346V153.924H67.0801V156.035H71.4346V161.666H72.1605V156.035H76.5172V153.924H72.1605V118.739ZM46.7529 134.657H47.4789V143.806H51.8336V178.288H47.4789V185.324H46.7529V178.288H42.3965V143.806H46.7529V134.657ZM-2.61133 145.214H-1.88538V154.361H2.47034V170.547H-1.88538V193.066H-2.61133V170.547H-6.9668V154.361H-2.61133V145.214ZM-26.5651 153.222H-27.291V163.777H-31.6484V177.852H-27.291V188.407H-26.5651V177.852H-22.2113V163.777H-26.5651V153.222ZM-75.9284 158.147H-76.6543V176.444H-81.0117V191.926H-76.6543V195.444H-75.9284V191.926H-71.5746V176.444H-75.9284V158.147ZM-125.294 174.332H-126.02V179.259H-130.376V188.407H-126.02V191.221H-125.294V188.407H-120.939V179.259H-125.294V174.332ZM-149.974 175.037H-150.7V186.296H-155.057V217.964H-150.7V221.482H-149.974V217.964H-145.619V186.296H-149.974V175.037ZM-101.339 178.555H-100.613V181.37H-96.2552V202.481H-100.613V215.852H-101.339V202.481H-105.692V181.37H-101.339V178.555ZM-51.9736 172.925H-51.2477V179.259H-46.8919V181.37H-51.2477V187.703H-51.9736V181.37H-56.3291V179.259H-51.9736V172.925ZM22.7962 155.769H22.0703V162.102H17.7158V172.658H22.0703V178.992H22.7962V172.658H27.153V162.102H22.7962V155.769ZM96.1182 129.729H96.8441V140.285H101.2V162.1H96.8441V172.656H96.1182V162.1H91.7627V140.285H96.1182V129.729ZM121.525 130.759H120.799V144.832H116.444V147.647H120.799V149.759H121.525V147.647H125.881V144.832H121.525V130.759ZM244.207 66.6638H244.933V72.2937H249.291V107.48H244.933V113.813H244.207V107.48H239.854V72.2937H244.207V66.6638ZM269.617 88.1235H268.891V93.4404H264.649V115.539H268.891V126.124H269.617V115.539H274.075V93.4404H269.617V88.1235ZM293.571 109.01H294.297V112.846H298.653V118.476H294.297V135.047H293.571V118.476H289.216V112.846H293.571V109.01ZM318.979 80.0345H318.253V88.4794H313.897V150.406H318.253V189.111H318.979V150.406H323.335V88.4794H318.979V80.0345Z" fill="white" fill-opacity="0.06"/>
<path fill-rule="evenodd" clip-rule="evenodd" d="M232.747 20H232.021V30.7749H227.512V79.3313H232.021V89.4889H232.747V79.3313H236.949V30.7749H232.747V20ZM207.186 65.2575H207.912V75.8128H212.267V79.3314H207.912V89.8875H207.186V79.3314H202.83V75.8128H207.186V65.2575ZM183.228 84.2575H182.502V96.9243H178.148V108.184H182.502V122.962H183.228V108.184H187.586V96.9243H183.228V84.2575ZM157.823 86.3682H158.549V101.142H163.141V144.708H158.549V168.703H157.823V144.708H153.716V101.142H157.823V86.3682ZM-14.2234 116.628H-14.9494V133.343H-19.5752V173.752H-14.9494V184.888H-14.2234V173.752H-10.1494V133.343H-14.2234V116.628ZM-113.106 135.021H-113.831V151.023H-118.18V193.957H-113.831V203.842H-113.106V193.957H-108.755V151.023H-113.106V135.021ZM-137.632 165.185H-138.358V183.481H-142.715V191.925H-138.358V196.852H-137.632V191.925H-133.278V183.481H-137.632V165.185ZM-88.9971 187.703H-88.2711V189.112H-83.9134V191.926H-88.2711V225H-88.9971V191.926H-93.3506V189.112H-88.9971V187.703ZM-63.5866 159.555H-64.3125V171.518H-68.667V181.37H-64.3125V196.852H-63.5866V181.37H-59.2298V171.518H-63.5866V159.555ZM-39.6318 167.296H-38.9059V177.852H-34.5501V183.482H-38.9059V185.592H-39.6318V183.482H-43.9873V177.852H-39.6318V167.296ZM9.73039 162.102H10.4563V165.621H14.8121V188.844H10.4563V209.955H9.73039V188.844H5.37491V165.621H9.73039V162.102ZM35.1382 149.435H34.4122V159.991H30.0577V164.213H34.4122V172.658H35.1382V164.213H39.4948V159.991H35.1382V149.435ZM59.0947 127.023H59.8207V138.214H64.5347V160.944H59.8207V191.061H59.0947V160.944H54.3839V138.214H59.0947V127.023ZM84.5023 142.666H83.7764V153.926H79.4219V173.63H83.7764V185.593H84.5023V173.63H88.859V153.926H84.5023V142.666ZM108.46 133.574H109.186V140.611H113.541V146.24H109.186V152.574H108.46V146.24H104.104V140.611H108.46V133.574ZM133.867 127.944H133.141V135.685H128.786V146.241H133.141V156.796H133.867V146.241H138.223V135.685H133.867V127.944ZM256.548 72.6422H257.274V78.2719H261.632V110.643H257.274V138.792H256.548V110.643H252.194V78.2719H256.548V72.6422ZM281.958 101.866H281.232V107.496H276.876V123.681H281.232V127.904H281.958V123.681H286.313V107.496H281.958V101.866ZM305.913 117.332H306.639V124.596H310.995V142.893H306.639V154.629H305.913V142.893H301.557V124.596H305.913V117.332Z" fill="white" fill-opacity="0.06"/>
</g>
<circle cx="122" cy="104" r="50" fill="white" fill-opacity="0.06"/>
<circle cx="122" cy="104" r="50" stroke="url(#paint1_linear_7089_139140)" stroke-linecap="round" stroke-dasharray="4 4"/>
<circle cx="122" cy="104" r="50" stroke="white" stroke-opacity="0.8" stroke-linecap="round" stroke-dasharray="4 4"/>
<rect x="75" y="71" width="94" height="66" rx="8" fill="white"/>
<circle cx="80" cy="76" r="2" fill="url(#paint2_linear_7089_139140)"/>
<circle cx="86" cy="76" r="2" fill="#FFA800"/>
<circle cx="92" cy="76" r="2" fill="url(#paint3_linear_7089_139140)"/>
<rect x="78" y="81" width="88" height="50" rx="6" fill="url(#paint4_linear_7089_139140)"/>
<path d="M105.56 99.28V113.28H101.6V102.34H99V99.28H105.56Z" fill="white"/>
<path d="M112.905 104.38C114.865 104.38 116.312 104.78 117.245 105.58C118.192 106.38 118.665 107.447 118.665 108.78C118.665 109.647 118.439 110.447 117.985 111.18C117.545 111.9 116.865 112.48 115.945 112.92C115.039 113.347 113.912 113.56 112.565 113.56C111.579 113.56 110.599 113.44 109.625 113.2C108.665 112.96 107.839 112.62 107.145 112.18L108.565 109.2C109.125 109.573 109.739 109.86 110.405 110.06C111.085 110.26 111.765 110.36 112.445 110.36C113.125 110.36 113.665 110.233 114.065 109.98C114.479 109.713 114.685 109.347 114.685 108.88C114.685 108.413 114.485 108.06 114.085 107.82C113.685 107.58 112.979 107.46 111.965 107.46H108.165L108.865 99.28H117.785V102.34H112.145L111.965 104.38H112.905Z" fill="white"/>
<path d="M125.994 113.56C124.794 113.56 123.727 113.273 122.794 112.7C121.861 112.127 121.127 111.293 120.594 110.2C120.074 109.093 119.814 107.787 119.814 106.28C119.814 104.773 120.074 103.473 120.594 102.38C121.127 101.273 121.861 100.433 122.794 99.86C123.727 99.2867 124.794 99 125.994 99C127.181 99 128.241 99.2867 129.174 99.86C130.107 100.433 130.834 101.273 131.354 102.38C131.887 103.473 132.154 104.773 132.154 106.28C132.154 107.787 131.887 109.093 131.354 110.2C130.834 111.293 130.107 112.127 129.174 112.7C128.241 113.273 127.181 113.56 125.994 113.56ZM125.994 110.32C126.661 110.32 127.187 110 127.574 109.36C127.974 108.707 128.174 107.68 128.174 106.28C128.174 104.88 127.974 103.86 127.574 103.22C127.187 102.567 126.661 102.24 125.994 102.24C125.314 102.24 124.774 102.567 124.374 103.22C123.987 103.86 123.794 104.88 123.794 106.28C123.794 107.68 123.987 108.707 124.374 109.36C124.774 110 125.314 110.32 125.994 110.32Z" fill="white"/>
<path d="M140.73 113.28L138.79 110.44L136.71 113.28H132.59L136.71 107.86L132.71 102.44H136.99L138.91 105.18L140.91 102.44H144.93L140.93 107.72L145.07 113.28H140.73Z" fill="white"/>
<defs>
<filter id="filter0_f_7089_139140" x="0" y="0" width="198" height="198" filterUnits="userSpaceOnUse" color-interpolation-filters="sRGB">
<feFlood flood-opacity="0" result="BackgroundImageFix"/>
<feBlend mode="normal" in="SourceGraphic" in2="BackgroundImageFix" result="shape"/>
<feGaussianBlur stdDeviation="22" result="effect1_foregroundBlur_7089_139140"/>
</filter>
<linearGradient id="paint0_linear_7089_139140" x1="44" y1="99" x2="154" y2="99" gradientUnits="userSpaceOnUse">
<stop stop-color="#FFA800"/>
<stop offset="1" stop-color="#FF5107"/>
</linearGradient>
<linearGradient id="paint1_linear_7089_139140" x1="172" y1="104" x2="72" y2="104" gradientUnits="userSpaceOnUse">
<stop stop-color="#482BFF"/>
<stop offset="1" stop-color="#007AFF"/>
</linearGradient>
<linearGradient id="paint2_linear_7089_139140" x1="82" y1="76.0541" x2="78" y2="76.0541" gradientUnits="userSpaceOnUse">
<stop stop-color="#E84747"/>
<stop offset="1" stop-color="#FF5107"/>
</linearGradient>
<linearGradient id="paint3_linear_7089_139140" x1="94" y1="76.0541" x2="90" y2="76.0541" gradientUnits="userSpaceOnUse">
<stop stop-color="#00A862"/>
<stop offset="1" stop-color="#00AF92"/>
</linearGradient>
<linearGradient id="paint4_linear_7089_139140" x1="78" y1="106" x2="166" y2="106" gradientUnits="userSpaceOnUse">
<stop stop-color="#FFA800"/>
<stop offset="1" stop-color="#FF5107"/>
</linearGradient>
</defs>
</svg>
