<svg width="12" height="13" viewBox="0 0 12 13" fill="none" xmlns="http://www.w3.org/2000/svg">
<g clip-path="url(#clip0_52905_327254)">
<path d="M5.14361 5.78193L5.76528 4.12413C5.84639 3.90784 6.15234 3.90784 6.23345 4.12413L6.85512 5.78193C6.88295 5.85614 6.94432 5.91276 7.02053 5.93453L8.32325 6.30674C8.54946 6.37137 8.56929 6.68423 8.35305 6.77691L6.99128 7.36052C6.93228 7.38581 6.88526 7.43282 6.85998 7.49183L6.22915 8.96375C6.14257 9.16577 5.85616 9.16577 5.76958 8.96375L5.13876 7.49183C5.11347 7.43282 5.06646 7.38581 5.00745 7.36052L3.64568 6.77691C3.42944 6.68423 3.44927 6.37137 3.67548 6.30674L4.97821 5.93453C5.05441 5.91276 5.11578 5.85614 5.14361 5.78193Z" fill="#F5F5F7"/>
</g>
<defs>
<clipPath id="clip0_52905_327254">
<rect width="12" height="12" fill="white" transform="translate(0 0.5)"/>
</clipPath>
</defs>
</svg>
