<?xml version="1.0" encoding="UTF-8"?>
<svg width="86px" height="22px" viewBox="0 0 86 22" version="1.1" xmlns="http://www.w3.org/2000/svg" xmlns:xlink="http://www.w3.org/1999/xlink">
    <title>Logo / Binance</title>
    <g id="Symbols" stroke="none" stroke-width="1" fill="none" fill-rule="evenodd">
        <g id="Table-/-Comparison-/-CEX-/-Security" transform="translate(-1072.000000, -160.000000)" fill="#F3BA2F" fill-rule="nonzero">
            <g id="Table-/-Comparison-/-CEX-/-Trading" transform="translate(-4.000000, 0.000000)">
                <g id="Security-Comparison" transform="translate(0.000000, 59.000000)">
                    <g id="Exchange" transform="translate(206.287929, 74.000000)">
                        <g id="Shape" transform="translate(859.000000, 20.000000)">
                            <path d="M42.02,17.9908262 L37.972,17.9908262 L37.972,9.47867383 L41.932,9.47867383 C43.6773262,9.47867383 44.7415762,10.3504238 44.7415762,11.6768262 L44.7415762,11.7116738 C44.7415762,12.6714238 44.2355762,13.21225 43.6250762,13.5431738 C44.60225,13.92725 45.21275,14.4855 45.21275,15.6368262 L45.21275,15.6551738 C45.1944238,17.2245 43.9385762,17.9926738 42.02,17.9926738 L42.02,17.9908262 Z M42.8569238,11.9894238 C42.8569238,11.4311738 42.4215,11.1176738 41.6359238,11.1176738 L39.787,11.1176738 L39.787,12.9143262 L41.514,12.9143262 C42.3335,12.9143262 42.8569238,12.6530762 42.8569238,12.0068262 L42.8569238,11.9894238 Z M43.3455,15.4085762 C43.3455,14.8338262 42.9275,14.4845762 41.96775,14.4845762 L39.7860762,14.4845762 L39.7860762,16.35 L42.02,16.35 C42.8395,16.35 43.3455,16.0539238 43.3455,15.426 L43.3455,15.4076738 L43.3455,15.4085762 Z M47.2541523,17.99175 L47.2541523,9.47775 L49.1205,9.47775 L49.1205,17.99175 L47.2541523,17.99175 Z M57.5996738,17.99175 L53.482,12.5834238 L53.482,17.99175 L51.6330762,17.99175 L51.6330762,9.47775 L53.3600762,9.47775 L57.3549238,14.7284238 L57.3549238,9.47775 L59.20475,9.47775 L59.20475,17.99175 L57.5996523,17.99175 L57.5996738,17.99175 Z M67.61425,17.99175 L66.8286738,16.0896738 L63.2353262,16.0896738 L62.4671738,17.99175 L60.5476738,17.99175 L64.1941738,9.40717383 L65.9211738,9.40717383 L69.5850762,17.99175 L67.61425,17.99175 Z M65.032,11.675 L63.8980762,14.4314238 L66.1659238,14.4314238 L65.032,11.675 Z M76.912,17.9908262 L72.7961738,12.5825 L72.7961738,17.9908262 L70.9463262,17.9908262 L70.9463262,9.47775 L72.6733262,9.47775 L76.6681738,14.7284238 L76.6681738,9.47775 L78.518,9.47775 L78.518,17.99175 L76.9129023,17.99175 L76.912,17.9908262 Z M84.6945,18.1466738 C82.1819023,18.1466738 80.3320977,16.2106738 80.3320977,13.7686738 L80.3320977,13.7503262 C80.3320977,11.32575 82.1645,9.354 84.7806523,9.354 C86.3866738,9.354 87.3455,9.89482617 88.1310762,10.663 L86.9449238,12.0416523 C86.28125,11.4485762 85.6185,11.0828262 84.76325,11.0828262 C83.33325,11.0828262 82.2864238,12.269 82.2864238,13.73475 L82.2864238,13.7521523 C82.2864238,15.217 83.2984238,16.4215 84.7641738,16.4215 C85.7404238,16.4215 86.3335,16.0365 86.9971738,15.4269238 L88.1833262,16.6305 C87.3106738,17.5554023 86.3335,18.1485 84.6935762,18.1485 L84.6945,18.1466738 Z M89.6839023,17.9908262 L89.6839023,9.47775 L96.10425,9.47775 L96.10425,11.1525 L91.55025,11.1525 L91.55025,12.8795 L95.5634238,12.8795 L95.5634238,14.55425 L91.55025,14.55425 L91.55025,16.3509238 L96.1739023,16.3509238 L96.1739023,17.99175 L89.6839023,17.99175 L89.6839023,17.9908262 Z M58.5768262,21.4448262 L55.1576953,21.4448262 L55.1576953,23.08475 L58.1927715,23.08475 L58.1927715,24.0445 L55.1567715,24.0445 L55.1567715,26.5039238 L54.0934453,26.5039238 L54.0934453,20.4676738 L58.5759453,20.4676738 L58.5759453,21.4448262 L58.5768262,21.4448262 Z M65.0485,23.88775 C65.0485,25.6844238 64.0374238,26.5919238 62.44975,26.5919238 C60.8795,26.5919238 59.8849238,25.6844238 59.8849238,23.94 L59.8849238,20.4676738 L60.9491738,20.4676738 L60.9491738,23.8868262 C60.9491738,25.00425 61.5248262,25.61475 62.4671738,25.61475 C63.4095215,25.61475 63.9851738,25.0390762 63.9851738,23.94 L63.9851738,20.4676738 L65.0485,20.4676738 L65.0485,23.8868262 L65.0485,23.88775 Z M69.3238262,26.5039453 L68.2595762,26.5039453 L68.2595762,21.4622715 L66.3391738,21.4622715 L66.3391738,20.4850977 L71.225,20.4850977 L71.225,21.4622715 L69.3055,21.4622715 L69.3055,26.5039453 L69.3229023,26.5039453 L69.3238262,26.5039453 Z M77.6801738,23.88775 C77.6801738,25.6844238 76.6681738,26.5919238 75.0805,26.5919238 C73.51025,26.5919238 72.5165762,25.6844238 72.5165762,23.94 L72.5165762,20.4676738 L73.5799238,20.4676738 L73.5799238,23.8868262 C73.5799238,25.00425 74.1565,25.61475 75.0979238,25.61475 C76.04025,25.61475 76.6159238,25.0390762 76.6159238,23.94 L76.6159238,20.4676738 L77.6801738,20.4676738 L77.6801738,23.8868262 L77.6801738,23.88775 Z M83.3855,26.5039238 L81.9023262,24.41025 L80.5768262,24.41025 L80.5768262,26.5039238 L79.5116738,26.5039238 L79.5116738,20.4676523 L82.1975,20.4676523 C83.5761523,20.4676523 84.4314238,21.201 84.4314238,22.3871738 C84.4314238,23.38175 83.8383262,23.9913262 83.0014238,24.2186738 L84.6239238,26.5039238 L83.3845762,26.5039238 L83.3855,26.5039238 Z M82.1296738,21.4439023 L80.5933262,21.4439023 L80.5933262,23.4688262 L82.1461738,23.4688262 C82.896,23.4688262 83.3836738,23.0673262 83.3836738,22.4568262 C83.3671738,21.7940762 82.9134238,21.4448262 82.1278262,21.4448262 L82.1296738,21.4439023 Z M90.5556738,21.4274238 L87.1539238,21.4274238 L87.1539238,22.9976738 L90.1725,22.9976738 L90.1725,23.94 L87.1539238,23.94 L87.1539238,25.5625 L90.6079238,25.5625 L90.6079238,26.5039238 L86.08875,26.5039238 L86.08875,20.4676738 L90.5556738,20.4676738 L90.5556738,21.4274238 L90.5556738,21.4274238 Z M50.2021738,22.99675 L37.9555,22.99675 L37.9555,24.0096738 L50.2021738,24.0096738 L50.2021738,22.9976738 L50.2021738,22.99675 Z M13.47775,15.5149238 L11,17.9908262 L13.47775,20.4676953 L15.972,17.9908477 L13.47775,15.5130977 L13.47775,15.5149238 Z M21.99175,11.9729238 L26.2478262,16.2299023 L28.7255762,13.7530547 L24.486,9.47865234 L21.99175,7 L19.514,9.47775 L15.257,13.73475 L17.73475,16.2115762 L21.99175,11.972 L21.99175,11.9729238 Z M30.5048262,15.5149023 L28.028,17.9926738 L30.5048262,20.4695 L33,17.99175 L30.5048262,15.514 L30.5048262,15.5149023 Z M21.99175,24.0289238 L17.73475,19.7719238 L15.257,22.24875 L19.514,26.50575 L21.9908262,29 L24.4676953,26.52225 L28.7246953,22.2661738 L26.2469453,19.771 L21.9908477,24.028 L21.99175,24.0289238 Z M94.0515442,20.2558594 C94.4577463,20.2558594 94.8198541,20.3352099 95.1378676,20.4939108 C95.4558812,20.6526118 95.7057489,20.878619 95.8874709,21.1719324 C96.0691929,21.4652459 96.1600539,21.7904412 96.1600539,22.1475184 L96.1600539,22.1475184 L95.1498934,22.1475184 L95.1440441,22.0133542 C95.1206471,21.7536143 95.0270592,21.5454061 94.8632804,21.3887293 C94.672205,21.2059398 94.3989539,21.114545 94.043527,21.114545 C93.7121516,21.114545 93.4549348,21.1896446 93.2718766,21.3398438 C93.0888184,21.4900429 92.9972893,21.6997549 92.9972893,21.9689798 C92.9972893,22.1956955 93.0961675,22.3848614 93.2939238,22.5364775 C93.4916801,22.6880936 93.8177107,22.8354588 94.2720157,22.9785731 C94.7263208,23.1216873 95.091101,23.2846392 95.3663563,23.4674288 C95.6416117,23.6502183 95.8433766,23.8599303 95.971651,24.0965648 C96.0999253,24.3331993 96.1640625,24.6102175 96.1640625,24.9276195 C96.1640625,25.4433977 95.9776638,25.8536114 95.6048665,26.1582606 C95.2320691,26.4629098 94.7263208,26.6152344 94.0876214,26.6152344 C93.6653849,26.6152344 93.2772214,26.5323415 92.9231307,26.3665556 C92.56904,26.2007698 92.2937846,25.9719286 92.0973645,25.6800322 C91.9009444,25.3881357 91.8027344,25.0480622 91.8027344,24.6598116 L91.8027344,24.6598116 L92.8169035,24.6598116 L92.8236117,24.8055574 C92.8504446,25.0873326 92.9577762,25.3108095 93.1456065,25.4759881 C93.3647419,25.6686964 93.6787468,25.7650506 94.0876214,25.7650506 C94.4403758,25.7650506 94.7056098,25.6892425 94.8833232,25.5376264 C95.0610367,25.3860103 95.1498934,25.1855086 95.1498934,24.9361213 C95.1498934,24.6640625 95.0597005,24.4543505 94.8793146,24.3069853 C94.6989288,24.1596201 94.3735663,24.0108379 93.903227,23.8606388 C93.4328877,23.7104396 93.0587541,23.5432368 92.7808263,23.3590303 C92.2490222,23.0047871 91.9831202,22.5428539 91.9831202,21.9732307 C91.9831202,21.4744562 92.1748636,21.063534 92.5583505,20.7404642 C92.9418374,20.4173943 93.4395686,20.2558594 94.0515442,20.2558594 Z M21.99175,15.5149023 L24.486,17.9926738 L21.99175,20.4869238 L19.514,17.9926738 L21.99175,15.5149023 Z"></path>
                        </g>
                    </g>
                </g>
            </g>
        </g>
    </g>
</svg>