<?xml version="1.0" encoding="UTF-8"?>
<svg width="86px" height="14px" viewBox="0 0 86 14" version="1.1" xmlns="http://www.w3.org/2000/svg" xmlns:xlink="http://www.w3.org/1999/xlink">
    <title>Logo / Bitmex</title>
    <g id="Symbols" stroke="none" stroke-width="1" fill="none" fill-rule="evenodd">
        <g id="Table-/-Comparison-/-CEX-/-Security" transform="translate(-906.000000, -164.000000)" fill-rule="nonzero">
            <g id="Table-/-Comparison-/-CEX-/-Trading" transform="translate(-4.000000, 0.000000)">
                <g id="Security-Comparison" transform="translate(0.000000, 59.000000)">
                    <g id="Exchange" transform="translate(206.287929, 74.000000)">
                        <g id="Group" transform="translate(693.000000, 20.000000)">
                            <path d="M18.3071845,11 L26.3374757,11 C26.3326011,11.1062138 26.2958986,11.2085072 26.2321359,11.2935922 C25.9602913,11.7598058 25.7156311,12.2450485 25.4485437,12.7112621 C25.0706796,13.3806796 24.7172816,14.0623301 24.333301,14.7290291 C24.09,15.208835 23.8154369,15.6736893 23.5558252,16.1453398 C21.9954369,16.1453398 20.4350485,16.1453398 18.8746602,16.1453398 C18.7931068,16.1453398 18.712233,16.1494175 18.6306796,16.1541748 C18.5627184,16.3335922 18.4499029,16.4905825 18.358835,16.6591262 C18.2399029,16.8521359 18.1433981,17.0580583 18.0258252,17.251068 C17.9014563,17.5106796 17.7295146,17.7431068 17.604466,18.0020388 C17.3462136,18.4403883 17.1049515,18.885534 16.8521359,19.3286408 C16.5884466,19.7817152 16.3306472,20.2411327 16.0787379,20.7068932 C15.9721296,20.8719675 15.8739142,21.0423133 15.784466,21.2172816 C15.2564078,22.1361165 14.7453398,23.0631068 14.2166019,23.9812621 C14.1717548,24.0799591 14.11268,24.1715479 14.0412621,24.2531068 C13.1373786,24.2469903 12.2334951,24.2531068 11.3296117,24.2531068 C11.2182845,24.2552258 11.1076174,24.270742 11,24.2993204 C11,24.0492233 11.1671845,23.8487379 11.28,23.6387379 C11.4159223,23.356699 11.5973786,23.0950485 11.7339806,22.8123301 C12.8172816,20.8740777 13.8890291,18.9290291 14.968932,16.9894175 C15.2135922,16.5680583 15.4235922,16.1378641 15.6696117,15.7246602 C15.9767961,15.1809709 16.2629126,14.6250485 16.5830097,14.0874757 C16.6849515,13.8625243 16.822233,13.6566019 16.9343689,13.4370874 C17.3326214,12.7282524 17.7233981,12.0153398 18.1202913,11.3065049 C18.1673781,11.1958049 18.2303366,11.092553 18.3071845,11 Z" id="Path" fill="#FF0000"></path>
                            <path d="M27.6124272,14.1153398 C28.1472816,13.1808738 28.6637864,12.2362136 29.2061165,11.3058252 L32.106699,11.3058252 C32.1489607,11.3079625 32.1908772,11.3145689 32.2317476,11.325534 C32.1352427,11.4716505 32.0543689,11.6266019 31.9694175,11.778835 C31.2698706,13.0343042 30.5723625,14.2904531 29.8768932,15.5472816 C29.5846602,16.0590291 29.3128155,16.5823301 29.0165049,17.0913592 L28.9872816,17.1015534 L28.9818447,17.1654369 C27.6180906,19.6120388 26.2588673,22.0604531 24.9041748,24.5106796 C22.2414563,24.5133981 19.5785113,24.5133981 16.9153398,24.5106796 C17.0668932,24.1939806 17.2463107,23.8915534 17.4148544,23.5836893 C18.173301,22.1891262 18.9514563,20.8067961 19.6990291,19.412233 C21.3350809,19.4095146 22.9711327,19.4095146 24.6071845,19.412233 C25.617767,17.6520388 26.6066019,15.8782524 27.6097087,14.1153398 L27.6124272,14.1153398 Z" id="Path" fill="#0055FF"></path>
                            <polygon id="Path" fill="#0055FF" points="57.5472816 11.2698058 57.5472816 24.6717476 59.8695146 24.6717476 59.8695146 15.2475728 64.105534 21.454466 68.3075728 15.1000971 68.3075728 24.6717476 70.697767 24.6717476 70.697767 11.2698058 68.1267961 11.2698058 64.1225243 17.4563107 60.0733981 11.2698058"></polygon>
                            <polygon id="Path" fill="#0055FF" points="46.6850485 14.7263107 48.2026214 14.7263107 48.2026214 24.7845631 46.6850485 24.7845631"></polygon>
                            <polygon id="Path" fill="#595FB5" points="46.5545631 11 48.3331068 11 48.3331068 12.6874757 46.5545631 12.6874757"></polygon>
                            <path d="M51.1025243,11.8440777 L52.6880583,11.8440777 L52.6880583,14.7263107 L55.8142718,14.7263107 L55.8142718,16.131068 L52.6880583,16.131068 L52.6880583,22.1062136 C52.6853284,22.3364515 52.7387464,22.5638864 52.8436893,22.768835 C53.1121359,23.2785437 53.8413592,23.8833981 55.8142718,23.1766019 L55.8142718,24.4787379 C55.8142718,24.4787379 54.013301,25.4981553 52.382233,24.5698058 C52.382233,24.5698058 51.5721359,24.2259223 51.2316505,23.0651456 C51.1432068,22.7542011 51.0997238,22.4321982 51.1025243,22.108932 L51.1025243,16.1086408 L49.7657282,16.131068 L49.7657282,14.7263107 L51.1133981,14.7263107 L51.1025243,11.8440777 Z" id="Path" fill="#0055FF"></path>
                            <polygon id="Path" fill="#0055FF" points="73.1443689 11.2698058 73.1443689 24.7621359 83.2250485 24.7621359 83.2250485 22.5873786 75.6025243 22.5873786 75.6025243 19.0078641 82.3191262 19.0078641 82.3191262 16.8670874 75.5909709 16.8670874 75.5909709 13.4581553 83.1462136 13.4581553 83.1462136 11.2698058"></polygon>
                            <polygon id="Path" fill="#0055FF" points="84.171068 11.2698058 87.0424272 11.2698058 90.3385437 16.006699 93.608835 11.2698058 96.4801942 11.2698058 91.7908738 17.8498058 96.7724272 24.7505825 93.7481553 24.7505825 90.3500971 19.7105825 86.7875728 24.7621359 83.9162136 24.7621359 88.8264078 17.9096117"></polygon>
                            <path d="M42.0405825,17.7621359 C42.0405825,17.7621359 44.2608738,16.9241748 44.1249515,14.5115534 C44.1249515,14.5115534 44.1066019,12.1913592 41.4941748,11.4750485 C41.0598154,11.3586655 40.6118088,11.3010647 40.1621359,11.3036943 L33.8967961,11.3036943 L33.9137864,24.7057282 L40.658932,24.7057282 C40.658932,24.7057282 44.6061165,24.6207767 44.8840777,21.1037864 C44.8840777,21.1037864 45.1667961,18.6456311 42.0405825,17.7621359 L42.0405825,17.7621359 Z M35.5163107,12.6874357 L39.5151456,12.6874357 C42.652233,12.6766019 42.5618447,14.8853398 42.5618447,14.8853398 C42.6087379,17.4053398 39.7299029,17.3543689 39.7299029,17.3543689 L35.5163107,17.3543689 L35.5163107,12.6874357 Z M40.4095146,23.2894175 L35.5163107,23.2894175 L35.5163107,18.6231587 L40.1947573,18.6231587 C43.3318447,18.6116505 43.2414563,20.8203883 43.2414563,20.8203883 C43.2883495,23.3403883 40.4095146,23.2894175 40.4095146,23.2894175 Z" id="Shape" fill="#0055FF"></path>
                        </g>
                    </g>
                </g>
            </g>
        </g>
    </g>
</svg>