<svg width="103" height="103" viewBox="0 0 103 103" fill="none" xmlns="http://www.w3.org/2000/svg">
<path d="M1.79884 55.498C-3.29361 68.1638 2.79591 82.58 15.4002 87.6973L33.8416 41.8302C21.2373 36.7128 6.89129 42.8321 1.79884 55.498Z" fill="url(#paint0_linear_52368_151471)"/>
<path d="M32.4587 64.1349C26.6387 78.6102 33.5982 95.0857 48.0031 100.934C62.4079 106.783 78.8034 99.7891 84.6233 85.3138L32.4587 64.1349Z" fill="url(#paint1_linear_52368_151471)"/>
<path d="M80.9998 0C99.0058 7.31049 107.705 27.905 100.43 45.9991C93.1553 64.0932 72.661 72.835 54.6549 65.5245L80.9998 0Z" fill="url(#paint2_linear_52368_151471)"/>
<path d="M16.9143 27.3356C21.2793 16.4792 33.5759 11.2341 44.3795 15.6204C55.1831 20.0066 60.4027 32.3633 56.0378 43.2198L16.9143 27.3356Z" fill="url(#paint3_linear_52368_151471)"/>
<defs>
<linearGradient id="paint0_linear_52368_151471" x1="103" y1="51.5" x2="1.35521e-06" y2="51.5" gradientUnits="userSpaceOnUse">
<stop stop-color="#482BFF"/>
<stop offset="1" stop-color="#007AFF"/>
</linearGradient>
<linearGradient id="paint1_linear_52368_151471" x1="103" y1="51.5" x2="1.35521e-06" y2="51.5" gradientUnits="userSpaceOnUse">
<stop stop-color="#482BFF"/>
<stop offset="1" stop-color="#007AFF"/>
</linearGradient>
<linearGradient id="paint2_linear_52368_151471" x1="103" y1="51.5" x2="1.35521e-06" y2="51.5" gradientUnits="userSpaceOnUse">
<stop stop-color="#482BFF"/>
<stop offset="1" stop-color="#007AFF"/>
</linearGradient>
<linearGradient id="paint3_linear_52368_151471" x1="103" y1="51.5" x2="1.35521e-06" y2="51.5" gradientUnits="userSpaceOnUse">
<stop stop-color="#482BFF"/>
<stop offset="1" stop-color="#007AFF"/>
</linearGradient>
</defs>
</svg>
