<svg width="104" height="22" viewBox="0 0 104 22" fill="none" xmlns="http://www.w3.org/2000/svg">
<path d="M0.384219 11.8539C-0.703489 14.5593 0.597186 17.6384 3.28936 18.7315L7.22829 8.9346C4.53612 7.84157 1.47193 9.14861 0.384219 11.8539Z" fill="white"/>
<path d="M6.93292 13.6987C5.68983 16.7905 7.17631 20.3096 10.2531 21.5587C13.3298 22.8079 16.8318 21.3142 18.0749 18.2224L6.93292 13.6987Z" fill="white"/>
<path d="M17.3009 0C21.1469 1.56146 23.005 5.96028 21.4511 9.82504C19.8972 13.6898 15.5198 15.557 11.6739 13.9955L17.3009 0Z" fill="white"/>
<path d="M3.61277 5.83868C4.54509 3.51982 7.17154 2.39951 9.47912 3.33639C11.7867 4.27326 12.9016 6.91256 11.9692 9.23141L3.61277 5.83868Z" fill="white"/>
<path fill-rule="evenodd" clip-rule="evenodd" d="M27.2803 19.487V2.20001H34.0695C36.4228 2.20001 38.383 3.04211 39.9341 4.72478C41.4987 6.38856 42.2795 8.43277 42.2795 10.8435C42.2795 13.2546 41.4985 15.3066 39.9341 16.9863C38.3827 18.6532 36.4225 19.487 34.0695 19.487H27.2803ZM47.6318 16.5483C48.3753 17.1095 49.2909 17.3953 50.3912 17.3953C51.9195 17.3953 52.9992 16.8372 53.6758 15.7396L53.7847 15.563L55.9451 16.7892L55.8215 16.9805C54.6058 18.8624 52.7679 19.8 50.343 19.8C48.384 19.8 46.7698 19.189 45.5202 17.956L45.5182 17.954C44.287 16.7062 43.6742 15.1332 43.6742 13.2516C43.6742 11.3864 44.2787 9.82195 45.4931 8.57436C46.7101 7.324 48.2851 6.70322 50.1985 6.70322C52.0216 6.70322 53.5182 7.35252 54.6691 8.65302C55.8301 9.93058 56.4098 11.4756 56.4098 13.2757C56.4098 13.5921 56.3848 13.9158 56.3351 14.2468L56.3077 14.4299H46.2999C46.5239 15.3358 46.9695 16.0375 47.6318 16.5483ZM47.5441 10.0202C46.907 10.5604 46.4884 11.2731 46.2926 12.1697H53.8194C53.6254 11.194 53.2116 10.4607 52.5905 9.94999C51.9078 9.38863 51.1136 9.10791 50.1985 9.10791C49.1184 9.10791 48.2398 9.41526 47.5462 10.0184L47.5441 10.0202ZM76.3493 19.487H73.8242V11.8549C73.8242 10.9603 73.5934 10.297 73.1599 9.83464C72.7248 9.3705 72.1427 9.13199 71.3903 9.13199C70.5457 9.13199 69.884 9.41571 69.3833 9.97532C68.9037 10.5131 68.6433 11.3661 68.6433 12.5773V19.487H66.1182V11.8549C66.1182 10.9585 65.8945 10.2943 65.4755 9.83196L65.4742 9.83058L65.473 9.82917C65.0707 9.36943 64.5157 9.13199 63.7806 9.13199C62.9537 9.13199 62.2718 9.41493 61.7201 9.98105C61.1948 10.5363 60.9132 11.3883 60.9132 12.5773V19.487H58.3881V7.01628H60.9132V8.18864C61.7488 7.19957 62.879 6.70322 64.2863 6.70322C65.1276 6.70322 65.8666 6.88045 66.495 7.24382C67.031 7.55377 67.4777 7.99401 67.8366 8.55827C68.7107 7.32206 69.9761 6.70322 71.607 6.70322C73.0072 6.70322 74.1576 7.16389 75.0377 8.09435C75.9193 9.01038 76.3493 10.2485 76.3493 11.7827V19.487ZM82.1076 16.5483C82.8511 17.1095 83.7667 17.3953 84.867 17.3953C86.3953 17.3953 87.475 16.8372 88.1516 15.7396L88.2604 15.563L90.4208 16.7892L90.2973 16.9805C89.0815 18.8624 87.2437 19.8 84.8188 19.8C82.8598 19.8 81.2456 19.189 79.996 17.956L79.9939 17.954C78.7628 16.7062 78.15 15.1332 78.15 13.2516C78.15 11.3864 78.7545 9.82195 79.9689 8.57436C81.1859 7.324 82.7609 6.70322 84.6743 6.70322C86.4975 6.70322 87.994 7.35255 89.145 8.65309C90.3059 9.93064 90.8856 11.4756 90.8856 13.2757C90.8856 13.5921 90.8606 13.9158 90.8109 14.2468L90.7835 14.4299H80.7757C80.9997 15.3358 81.4453 16.0375 82.1076 16.5483ZM82.022 10.0184L82.0199 10.0202C81.3827 10.5604 80.9642 11.2731 80.7684 12.1697H88.2952C88.1012 11.194 87.6874 10.4607 87.0663 9.94999C86.3836 9.38863 85.5894 9.10791 84.6743 9.10791C83.5942 9.10791 82.7156 9.41526 82.022 10.0184ZM103.392 19.487H100.401L97.1375 15.081L93.8505 19.487H90.8573L95.6417 13.0829L91.1229 7.01628H94.1398L97.1381 11.0604L100.136 7.01628H103.129L98.634 13.0593L103.392 19.487ZM34.0695 16.9378C35.7305 16.9378 37.076 16.3586 38.1244 15.2023C39.1763 14.0421 39.7062 12.5943 39.7062 10.8435C39.7062 9.09267 39.1763 7.64489 38.1244 6.4847C37.076 5.32839 35.7305 4.74919 34.0695 4.74919H29.9499V16.9378H34.0695Z" fill="white"/>
</svg>
