<svg xmlns="http://www.w3.org/2000/svg" viewBox="0 0 60 60"><defs><style>.a-demex{fill:#1e7dfa;}.b-demex{fill:#fff;fill-rule:evenodd;}</style></defs><title>Demex_Icon</title><circle class="a-demex" cx="30" cy="30" r="30"/><path class="b-demex" d="M23.4,33.47l18.18,7.89a9.69,9.69,0,0,1-12.86,5.57,10.47,10.47,0,0,1-5.43-13.18ZM12.66,29.4a8.56,8.56,0,0,1,11.1-5l.25.1L17.36,41.27A9.24,9.24,0,0,1,12.66,29.4ZM40.85,11.72a12.33,12.33,0,0,1,6.27,15.83,11.41,11.41,0,0,1-14.85,6.68L32,34.11ZM18.7,19.09a7.4,7.4,0,0,1,9.83-4.26,8,8,0,0,1,4.16,10l-.09.25Z"/></svg>