<svg width="83" height="14" viewBox="0 0 83 14" fill="none" xmlns="http://www.w3.org/2000/svg">
<path d="M0.244503 7.54341C-0.447675 9.26499 0.380027 11.2245 2.09323 11.92L4.59982 5.68565C2.88662 4.99009 0.93668 5.82184 0.244503 7.54341Z" fill="url(#paint0_linear_52368_151455)"/>
<path d="M4.41186 8.71736C3.6208 10.6849 4.56675 12.9243 6.52469 13.7192C8.48263 14.5141 10.7111 13.5636 11.5022 11.596L4.41186 8.71736Z" fill="url(#paint1_linear_52368_151455)"/>
<path d="M11.0097 0C13.4571 0.993659 14.6395 3.79291 13.6507 6.2523C12.6619 8.71169 9.87625 9.8999 7.42882 8.90625L11.0097 0Z" fill="url(#paint2_linear_52368_151455)"/>
<path d="M2.29903 3.71552C2.89233 2.23989 4.56371 1.52696 6.03217 2.12316C7.50062 2.71935 8.21008 4.3989 7.61679 5.87454L2.29903 3.71552Z" fill="url(#paint3_linear_52368_151455)"/>
<path d="M27.85 13.5H23.512V0.719999H27.85C30.01 0.719999 31.69 1.308 32.89 2.484C34.102 3.648 34.708 5.19 34.708 7.11C34.708 9.03 34.102 10.578 32.89 11.754C31.69 12.918 30.01 13.5 27.85 13.5ZM31.234 10.332C32.014 9.552 32.404 8.478 32.404 7.11C32.404 5.742 32.014 4.674 31.234 3.906C30.466 3.126 29.314 2.736 27.778 2.736H25.69V11.484H27.778C29.314 11.484 30.466 11.1 31.234 10.332ZM45.4352 9.45H38.3252C38.4092 10.194 38.6792 10.788 39.1352 11.232C39.5912 11.664 40.1912 11.88 40.9352 11.88C41.4272 11.88 41.8712 11.76 42.2672 11.52C42.6632 11.28 42.9452 10.956 43.1132 10.548H45.2732C44.9852 11.496 44.4452 12.264 43.6532 12.852C42.8732 13.428 41.9492 13.716 40.8812 13.716C39.4892 13.716 38.3612 13.254 37.4972 12.33C36.6452 11.406 36.2192 10.236 36.2192 8.82C36.2192 7.44 36.6512 6.282 37.5152 5.346C38.3792 4.41 39.4952 3.942 40.8632 3.942C42.2312 3.942 43.3352 4.404 44.1752 5.328C45.0272 6.24 45.4532 7.392 45.4532 8.784L45.4352 9.45ZM40.8632 5.688C40.1912 5.688 39.6332 5.886 39.1892 6.282C38.7452 6.678 38.4692 7.206 38.3612 7.866H43.3292C43.2332 7.206 42.9692 6.678 42.5372 6.282C42.1052 5.886 41.5472 5.688 40.8632 5.688ZM55.5492 8.136V13.5H53.4072V7.902C53.4072 6.486 52.8192 5.778 51.6432 5.778C51.0072 5.778 50.4972 5.982 50.1132 6.39C49.7412 6.798 49.5552 7.356 49.5552 8.064V13.5H47.4132V4.158H49.3932V5.4C49.6212 4.98 49.9692 4.632 50.4372 4.356C50.9052 4.08 51.4872 3.942 52.1832 3.942C53.4792 3.942 54.4152 4.434 54.9912 5.418C55.7832 4.434 56.8392 3.942 58.1592 3.942C59.2512 3.942 60.0912 4.284 60.6792 4.968C61.2672 5.64 61.5612 6.528 61.5612 7.632V13.5H59.4192V7.902C59.4192 6.486 58.8312 5.778 57.6552 5.778C57.0072 5.778 56.4912 5.988 56.1072 6.408C55.7352 6.816 55.5492 7.392 55.5492 8.136ZM72.6637 9.45H65.5537C65.6377 10.194 65.9077 10.788 66.3637 11.232C66.8197 11.664 67.4197 11.88 68.1637 11.88C68.6557 11.88 69.0997 11.76 69.4957 11.52C69.8917 11.28 70.1737 10.956 70.3417 10.548H72.5017C72.2137 11.496 71.6737 12.264 70.8817 12.852C70.1017 13.428 69.1777 13.716 68.1097 13.716C66.7177 13.716 65.5897 13.254 64.7257 12.33C63.8737 11.406 63.4477 10.236 63.4477 8.82C63.4477 7.44 63.8797 6.282 64.7437 5.346C65.6077 4.41 66.7237 3.942 68.0917 3.942C69.4597 3.942 70.5637 4.404 71.4037 5.328C72.2557 6.24 72.6817 7.392 72.6817 8.784L72.6637 9.45ZM68.0917 5.688C67.4197 5.688 66.8617 5.886 66.4177 6.282C65.9737 6.678 65.6977 7.206 65.5897 7.866H70.5577C70.4617 7.206 70.1977 6.678 69.7657 6.282C69.3337 5.886 68.7757 5.688 68.0917 5.688ZM82.5007 4.158L78.9547 8.766L82.6267 13.5H80.0347L77.7487 10.368L75.4447 13.5H72.8707L76.5247 8.766L72.9787 4.158H75.5527L77.7487 7.146L79.9267 4.158H82.5007Z" fill="white"/>
<defs>
<linearGradient id="paint0_linear_52368_151455" x1="14" y1="7" x2="1.84203e-07" y2="7.00001" gradientUnits="userSpaceOnUse">
<stop stop-color="#482BFF"/>
<stop offset="1" stop-color="#007AFF"/>
</linearGradient>
<linearGradient id="paint1_linear_52368_151455" x1="14" y1="7" x2="1.84203e-07" y2="7.00001" gradientUnits="userSpaceOnUse">
<stop stop-color="#482BFF"/>
<stop offset="1" stop-color="#007AFF"/>
</linearGradient>
<linearGradient id="paint2_linear_52368_151455" x1="14" y1="7" x2="1.84203e-07" y2="7.00001" gradientUnits="userSpaceOnUse">
<stop stop-color="#482BFF"/>
<stop offset="1" stop-color="#007AFF"/>
</linearGradient>
<linearGradient id="paint3_linear_52368_151455" x1="14" y1="7" x2="1.84203e-07" y2="7.00001" gradientUnits="userSpaceOnUse">
<stop stop-color="#482BFF"/>
<stop offset="1" stop-color="#007AFF"/>
</linearGradient>
</defs>
</svg>
