<?xml version="1.0" encoding="UTF-8"?>
<svg width="98px" height="22px" viewBox="0 0 98 22" version="1.1" xmlns="http://www.w3.org/2000/svg" xmlns:xlink="http://www.w3.org/1999/xlink">
    <title>Demex-Horizontal-Logo</title>
    <g id="Page-1" stroke="none" stroke-width="1" fill="none" fill-rule="evenodd">
        <g id="Demex-Logo_White" fill="#FFFFFF" fill-rule="nonzero">
            <path d="M7.35365189,13.2941417 L19.0854538,18.1121417 C17.7435009,21.3246 14.0292085,22.8499333 10.7896613,21.5189333 C7.55011415,20.1883917 6.01169906,16.5061417 7.35365189,13.2941417 Z M34.0896698,1.57937083 C36.4019151,1.57937083 38.1414151,2.09912083 39.3063208,3.13770417 C40.4721509,4.17720417 41.0546038,5.83407917 41.0546038,8.10924583 L41.0546038,14.2087458 C41.0546038,18.5982042 38.7511415,20.7922458 34.1437547,20.7922458 L28.7232453,20.7922458 L28.7232453,1.57937083 L34.0896698,1.57937083 Z M48.2754472,5.2721625 C49.0857962,5.2721625 49.8235698,5.37757917 50.4887679,5.58795417 C51.1544283,5.79832917 51.7280981,6.12374583 52.2102396,6.56282917 C52.6923811,7.00282917 53.0686642,7.57712083 53.3386264,8.28432917 C53.6090509,8.99199583 53.7440321,9.83349583 53.7440321,10.8092875 L53.7440321,13.8787458 L46.2789283,13.8787458 L46.2789283,15.3417458 C46.2789283,16.3363292 46.4527396,17.0536208 46.7999,17.4936208 C47.1470604,17.9336208 47.6869849,18.1531625 48.4201358,18.1531625 C49.6160132,18.1531625 50.2816736,17.4647458 50.4161925,16.0874542 L53.7440321,16.0874542 C53.666834,17.7136208 53.1699,18.9039125 52.2541547,19.6592458 C51.3374849,20.4150375 50.0403717,20.7922458 48.3623528,20.7922458 C46.6066736,20.7922458 45.2277396,20.3242875 44.2246264,19.3869958 C43.2219755,18.4497042 42.7204189,17.0536208 42.7204189,15.1982875 L42.7204189,10.8954542 C42.7204189,9.97695417 42.8549377,9.1689125 43.1253623,8.47087083 C43.3953245,7.7732875 43.7762302,7.1847875 44.2680792,6.7062875 C44.7599283,6.22870417 45.3483906,5.86982917 46.0330038,5.6310375 C46.7180792,5.3917875 47.4650981,5.2721625 48.2754472,5.2721625 Z M79.9324519,5.2721625 C80.7428009,5.2721625 81.4805745,5.37757917 82.1457726,5.58795417 C82.811433,5.79832917 83.3851028,6.12374583 83.8672443,6.56282917 C84.3498481,7.00282917 84.7256689,7.57712083 84.9960934,8.28432917 C85.2660557,8.99199583 85.4010368,9.83349583 85.4010368,10.8092875 L85.4010368,13.8787458 L77.935933,13.8787458 L77.935933,15.3417458 C77.935933,16.3363292 78.1097443,17.0536208 78.4569047,17.4936208 C78.8040651,17.9336208 79.3439896,18.1531625 80.0771406,18.1531625 C81.2730179,18.1531625 81.9386783,17.4647458 82.0731972,16.0874542 L85.4010368,16.0874542 C85.3238387,17.7136208 84.827367,18.9039125 83.9111594,19.6592458 C82.9944896,20.4150375 81.6973764,20.7922458 80.0193575,20.7922458 C78.2641406,20.7922458 76.8847443,20.3242875 75.8816311,19.3869958 C74.8789802,18.4497042 74.3774236,17.0536208 74.3774236,15.1982875 L74.3774236,10.8954542 C74.3774236,9.97695417 74.5124047,9.1689125 74.782367,8.47087083 C75.0523292,7.7732875 75.4332349,7.1847875 75.925084,6.7062875 C76.416933,6.22870417 77.0053953,5.86982917 77.6900085,5.6310375 C78.375084,5.3917875 79.1221028,5.2721625 79.9324519,5.2721625 Z M69.182083,5.2721625 C70.2619321,5.2721625 71.1203566,5.62645417 71.7568943,6.3336625 C72.3934321,7.04132917 72.7119321,8.15049583 72.7119321,9.66162083 L72.7119321,20.5342042 L69.1529604,20.5342042 L69.1529604,10.0924542 C69.1529604,9.40357917 69.0323094,8.90170417 68.7910075,8.5859125 C68.5501679,8.27057917 68.1789698,8.11245417 67.6774132,8.11245417 C67.1564415,8.11245417 66.7223755,8.29395417 66.3752151,8.65787083 C66.0280547,9.02087083 65.8542434,9.56582917 65.8542434,10.2932042 L65.8542434,20.5342042 L62.295734,20.5342042 L62.295734,10.0924542 C62.295734,9.40357917 62.1699981,8.90170417 61.9194509,8.5859125 C61.6689038,8.27057917 61.301866,8.11245417 60.8197245,8.11245417 C60.2798,8.11245417 59.8411113,8.29395417 59.5031962,8.65787083 C59.1657434,9.02087083 58.997017,9.56582917 58.997017,10.2932042 L58.997017,20.5342042 L55.4093849,20.5342042 L55.4093849,5.5306625 L58.997017,5.5306625 L58.997017,7.3951625 C59.2669792,6.7832875 59.6816302,6.27637083 60.2414321,5.87487083 C60.8007717,5.4729125 61.5048,5.2721625 62.353517,5.2721625 C63.9543377,5.2721625 64.9962811,5.97020417 65.4784226,7.36674583 C65.883366,6.63982917 66.4089604,6.10907917 67.0552057,5.77449583 C67.7014509,5.4399125 68.4101019,5.2721625 69.182083,5.2721625 Z M90.3710698,5.5306625 L92.280683,10.4650792 L94.1616358,5.5306625 L97.7492679,5.5306625 L94.3927679,12.6449125 L98.0386453,20.5342042 L94.1325132,20.5342042 L92.0204283,15.1698708 L89.7636547,20.5342042 L86.2338057,20.5342042 L89.7923151,12.8456625 L86.4362774,5.5306625 L90.3710698,5.5306625 Z M7.53235767,7.71389916 L7.74750094,7.79725833 L3.46000094,18.0607167 C0.601359434,16.886925 -0.756310377,13.6373417 0.428010377,10.8034667 C1.58227241,8.03999167 4.72631811,6.69124471 7.53235767,7.71389916 Z M33.9537642,4.4279125 L32.382066,4.4279125 L32.382066,17.9441625 L33.9537642,17.9441625 C35.1824623,17.9441625 36.0455094,17.6480792 36.5424434,17.0572875 C37.0393774,16.4660375 37.2876132,15.5076625 37.2876132,14.1821625 L37.2876132,8.16287083 C37.2876132,6.83737083 37.0435377,5.88312083 36.5558491,5.3010375 C36.0681604,4.71895417 35.2004906,4.4279125 33.9537642,4.4279125 Z M18.6147302,0.000183333333 C22.4260981,1.56539167 24.2358623,5.89801667 22.6572302,9.676975 C21.1108151,13.3792607 16.8860111,15.1771399 13.1310309,13.7772283 L12.8969849,13.6855583 L18.6147302,0.000183333333 Z M48.3332302,7.7966625 C47.6966925,7.7966625 47.1951358,8.02170417 46.8285604,8.47087083 C46.4619849,8.92049583 46.2789283,9.67124583 46.2789283,10.7231208 L46.2789283,11.4688292 L50.271966,11.4688292 L50.271966,10.6085375 C50.271966,9.57545417 50.1032396,8.84899583 49.7653245,8.4277875 C49.4278717,8.00749583 48.9508151,7.7966625 48.3332302,7.7966625 Z M79.9902349,7.7966625 C79.3536972,7.7966625 78.8526028,8.02170417 78.4855651,8.47087083 C78.1189896,8.92049583 77.935933,9.67124583 77.935933,10.7231208 L77.935933,11.4688292 L81.9289708,11.4688292 L81.9289708,10.6085375 C81.9289708,9.57545417 81.7602443,8.84899583 81.4223292,8.4277875 C81.0848764,8.00749583 80.6078198,7.7966625 79.9902349,7.7966625 Z M10.6635557,1.89827917 C13.0724655,2.88751528 14.2513907,5.57672245 13.3719667,7.98251688 L13.2915274,8.1879875 L4.31990472,4.50344583 C5.3465934,2.0472375 8.18674434,0.880779167 10.6635557,1.89827917 Z" id="Demex-Horizontal-Logo"></path>
        </g>
    </g>
</svg>