<svg viewBox="0 0 1747.39 172.8" class="css-wyjclb"><path fill="#2d1680" d="M0,3H72a76,76,0,0,1,76,76H0Z" transform="translate(0 -0.6)" opacity="1" stroke-dashoffset="0px" stroke-dasharray="415.3973693847656px 415.3973693847656px"></path><path fill="#2d1680" d="M163,3h72a76,76,0,0,1,76,76H163Z" transform="translate(0 -0.6)" opacity="1" stroke-dashoffset="0px" stroke-dasharray="415.39739990234375px 415.39739990234375px"></path><path fill="#2d1680" d="M0,171H72a76,76,0,0,0,76-76H0Z" transform="translate(0 -0.6)" opacity="1" stroke-dashoffset="0px" stroke-dasharray="415.3973693847656px 415.3973693847656px"></path><path fill="#2d1680" d="M163,171h72a76,76,0,0,0,76-76H163Z" transform="translate(0 -0.6)" opacity="1" stroke-dashoffset="0px" stroke-dasharray="415.39739990234375px 415.39739990234375px"></path><path fill="#2d1680" d="M305,3h53.28L472,171H415.72Z" transform="translate(0 -0.6)" opacity="1" stroke-dashoffset="0px" stroke-dasharray="513.6336669921875px 513.6336669921875px"></path><path fill="#ef88aa" stroke="#ef88aa" stroke-width="3px" d="M424.5,69l-44-64.5h89Z" transform="translate(0 -0.6)" opacity="1" stroke-dashoffset="0px" stroke-dasharray="245.724853515625px 245.724853515625px"></path><path fill="#ef88aa" stroke="#ef88aa" stroke-width="5px" d="M350,106l-43.5,62.5h85Z" transform="translate(0 -0.6)" opacity="1" stroke-dashoffset="0px" stroke-dasharray="236.1712188720703px 236.1712188720703px"></path><path fill="#2d1680" d="M566.8,171V3h56.4q39.12,0,64.56,24.24T713.2,87q0,35.52-25.44,59.76T623.2,171Zm27.6-26.4h28.8q27.6,0,44.4-16.08T684.4,87q0-25.44-16.8-41.52T623.2,29.4H594.4Z" transform="translate(0 -0.6)" opacity="1" stroke-dashoffset="0px" stroke-dasharray="917.9925537109375px 917.9925537109375px"></path><path fill="#2d1680" d="M747.93,155.16q-18-18.48-18-45.36t18-45.12q18.24-18.48,44.4-18.48t44.16,18.48q18.24,18.24,18.24,45.12v8.4h-99.6Q758,133.32,768.33,142a36.26,36.26,0,0,0,24,8.64q16.8,0,26.88-8.4a33.14,33.14,0,0,0,7.92-8.4h26.4a67.54,67.54,0,0,1-12.72,19.92q-19.68,19.68-48.48,19.68Q766.17,173.4,747.93,155.16Zm8.4-57.36h72a35.14,35.14,0,0,0-11.52-20.4Q807.69,69,792.33,69a36.28,36.28,0,0,0-23,7.92A34.56,34.56,0,0,0,756.33,97.8Z" transform="translate(0 -0.6)" opacity="1" stroke-dashoffset="0px" stroke-dasharray="776.596923828125px 776.596923828125px"></path><path fill="#2d1680" d="M876.35,171V48.6h25.2v18h1.2a35,35,0,0,1,7.68-9.6,38.25,38.25,0,0,1,25.92-9.6h14.4v24h-15.6q-14.64,0-24.24,9.36-9.36,9.12-9.36,24.24v66Z" transform="translate(0 -0.6)" opacity="1" stroke-dashoffset="0px" stroke-dasharray="406.0503234863281px 406.0503234863281px"></path><path fill="#2d1680" d="M971.79,26.28a14.36,14.36,0,0,1-4.32-10.56,14.36,14.36,0,0,1,4.32-10.56,14.51,14.51,0,0,1,21.12,0,14,14,0,0,1,4.56,10.56,14,14,0,0,1-4.56,10.56,15.07,15.07,0,0,1-21.12,0ZM969.87,171V48.6h25.2V171Z" transform="translate(0 -0.6)" opacity="1" stroke-dashoffset="0px" stroke-dasharray="389.4316101074219px 389.4316101074219px"></path><path fill="#2d1680" d="M1011.77,48.6h26.4l26.4,99.6h15.6l26.41-99.6H1133L1099.38,171h-54Z" transform="translate(0 -0.6)" opacity="1" stroke-dashoffset="0px" stroke-dasharray="582.3652954101562px 582.3652954101562px"></path><path fill="#2d1680" d="M1159,155.88q-16.32-17.76-16.32-46.08T1159,64q16.56-17.76,41.28-17.76a48.54,48.54,0,0,1,28.56,9.12,52,52,0,0,1,9.84,8.88h1.2V48.6h25.2V171h-25.2V154.2h-1.2a43.34,43.34,0,0,1-9.84,9.6,46.9,46.9,0,0,1-28.56,9.6Q1175.55,173.4,1159,155.88Zm19.68-76.32q-9.6,10.56-9.6,30.24t9.6,30.24q9.6,10.56,26.4,10.56,15.84,0,25.2-10.56,9.6-10.8,9.6-30.24t-9.6-30q-9.36-10.8-25.2-10.8Q1188.27,69,1178.67,79.56Z" transform="translate(0 -0.6)" opacity="1" stroke-dashoffset="0px" stroke-dasharray="733.1786499023438px 733.1786499023438px"></path><path fill="#2d1680" d="M1296.17,171V3h56.41q39.12,0,64.56,24.24T1442.58,87q0,35.52-25.44,59.76T1352.58,171Zm27.6-26.4h28.81q27.6,0,44.39-16.08T1413.77,87q0-25.44-16.8-41.52T1352.58,29.4h-28.81Z" transform="translate(0 -0.6)" opacity="1" stroke-dashoffset="0px" stroke-dasharray="918.0118408203125px 918.0118408203125px"></path><path fill="#2d1680" d="M1468.91,171V3h121.2V29.4h-93.6V72.6h75.6V99h-75.6v45.6h93.6V171Z" transform="translate(0 -0.6)" opacity="1" stroke-dashoffset="0px" stroke-dasharray="916.7998046875px 916.7998046875px"></path><path fill="#2d1680" d="M1602.19,171l44.4-82.8-42-85.2h30l34.8,72h10.8L1715,3h30l-42,85.2,44.4,82.8h-30l-37.2-70.8h-10.8l-37.2,70.8Z" transform="translate(0 -0.6)" opacity="1" stroke-dashoffset="0px" stroke-dasharray="839.3942260742188px 839.3942260742188px"></path></svg>