<?xml version="1.0" encoding="UTF-8"?>
<svg width="91px" height="26px" viewBox="0 0 91 26" version="1.1" xmlns="http://www.w3.org/2000/svg" xmlns:xlink="http://www.w3.org/1999/xlink">
    <title>Logo / Deribit</title>
    <g id="Symbols" stroke="none" stroke-width="1" fill="none" fill-rule="evenodd">
        <g id="Table-/-Comparison-/-CEX-/-Security" transform="translate(-572.000000, -158.000000)" fill-rule="nonzero">
            <g id="Table-/-Comparison-/-CEX-/-Trading" transform="translate(-4.000000, 0.000000)">
                <g id="Security-Comparison" transform="translate(0.000000, 59.000000)">
                    <g id="Exchange" transform="translate(206.287929, 74.000000)">
                        <g id="Group" transform="translate(361.000000, 20.000000)">
                            <path d="M27.2609577,9.32814371 L26.493559,9.32814371 L26.493559,5 L22.1240845,5 L22.1240845,9.32814371 L17.7546101,9.32814371 L17.7546101,5 L13.3694745,5 L13.3694745,9.32814371 L9,9.32814371 L9,13.6562874 L13.3694745,13.6562874 L13.3694745,22.3281437 L9,22.3281437 L9,26.6562874 L13.3694745,26.6562874 L13.3694745,31 L17.7389489,31 L17.7389489,26.6718563 L22.1084234,26.6718563 L22.1084234,31 L26.4778978,31 L26.4778978,26.6718563 L27.2452965,26.6718563 C32.0689458,26.6718563 35.9999535,22.7952096 35.9999535,18 C36.0155678,13.2203593 32.1002682,9.32814371 27.2609577,9.32814371 M27.2609577,22.3437126 L17.7546101,22.3437126 L17.7546101,13.6718563 L27.2766189,13.6718563 C29.6884435,13.6718563 31.6460934,15.6179641 31.6460934,18 C31.6460934,20.3976048 29.6727823,22.3437126 27.2609577,22.3437126" id="Shape" fill="#15C8B1"></path>
                            <path d="M46.9663073,12 C50.3908356,12 53,14.8213429 53,18.5 C53,22.1786571 50.3908356,25 46.9663073,25 L46.9663073,25 L42,25 L42,12 Z M59.1125402,15 C61.926045,15 64,17.1428571 64,20 C64,20.4126984 63.9678457,20.7777778 63.8874598,21.1428571 L63.8874598,21.1428571 L57.0546624,21.1428571 C57.4244373,22.1269841 58.3086817,22.4761905 59.3697749,22.4603175 C60.1575563,22.4603175 60.8327974,22.1587302 61.2186495,21.7460317 L61.2186495,21.7460317 L63.5176849,23.047619 C62.5691318,24.3333333 61.1543408,25 59.3215434,25 C56.0418006,25 54,22.8253968 54,20 C54,17.1746032 56.073955,15 59.1125402,15 Z M71,16 L71,18.9901316 C69.7597765,18.8125 68,19.2565789 68,21.0032895 L68,21.0032895 L68,25 L65,25 L65,16.1776316 L68,16.1776316 L68,17.7467105 C68.4022346,16.5625 69.7430168,16 71,16 L71,16 Z M74.7361111,16.0220162 L74.7361111,25 L72.25,25 L72.25,16.0220162 L74.7361111,16.0220162 Z M79.7838258,12 L79.7838258,16.506463 C80.3903577,15.8037603 81.3079316,15.3913043 82.5520995,15.3913043 C84.9782271,15.3913043 86.9844479,17.4841363 87,20.1880141 C87,22.907168 84.9937792,25 82.5520995,25 C81.3079316,25 80.3903577,24.5722679 79.7838258,23.8848414 L79.7838258,23.8848414 L79.7838258,24.7403055 L77,24.7403055 L77,12 L79.7838258,12 Z M90.7361111,16.0220162 L90.7361111,25 L88.25,25 L88.25,16.0220162 L90.7361111,16.0220162 Z M97.1353383,13 L97.1353383,15.6107704 L98.9849624,15.6107704 L98.9849624,18.2840742 L97.1503759,18.2840742 L97.1503759,21.5827123 C97.1503759,22.3800134 97.8120301,22.4581802 99,22.3800134 L99,22.3800134 L99,24.9282504 C95.4661654,25.3034509 94.443609,24.209116 94.443609,21.5983456 L94.443609,21.5983456 L94.443609,18.2997076 L93,18.2997076 L93,15.6107704 L94.443609,15.6107704 L94.443609,13.8442012 L97.1353383,13 Z M81.992224,17.9882491 C80.7169518,17.9882491 79.7838258,18.8437133 79.7838258,20.2032902 C79.7838258,21.5628672 80.7013997,22.4183314 81.992224,22.4183314 C83.2674961,22.4183314 84.2006221,21.5628672 84.2006221,20.2032902 C84.2006221,18.8437133 83.2830482,17.9882491 81.992224,17.9882491 Z M46.9514825,14.8681055 L44.8315364,14.8681055 L44.8315364,22.147482 L46.9663073,22.147482 C48.9083558,22.147482 50.2425876,20.7446043 50.2425876,18.5155875 C50.2425876,16.2865707 48.9083558,14.8681055 46.9514825,14.8681055 L46.9514825,14.8681055 Z M59.096463,17.5396825 C58.0032154,17.5396825 57.2797428,18.0634921 57.0064309,19.031746 L57.0064309,19.031746 L61.1382637,19.031746 C60.8327974,17.9365079 59.9646302,17.5396825 59.096463,17.5396825 Z M73.5,12 C74.3194444,12 75,12.7381228 75,13.6118192 C75,14.4855156 74.3194444,15.2236385 73.5,15.2236385 C72.6805556,15.2236385 72,14.4855156 72,13.6118192 C72,12.7381228 72.6805556,12 73.5,12 Z M89.5,12 C90.3194444,12 91,12.7381228 91,13.6118192 C91,14.4855156 90.3194444,15.2236385 89.5,15.2236385 C88.6805556,15.2236385 88,14.4855156 88,13.6118192 C88,12.7381228 88.6805556,12 89.5,12 Z" id="Combined-Shape" fill="#1B2431"></path>
                        </g>
                    </g>
                </g>
            </g>
        </g>
    </g>
</svg>