<svg width="24" height="24" viewBox="0 0 24 24" fill="none" xmlns="http://www.w3.org/2000/svg">
<path d="M18.9308 5.32631C17.6561 4.71242 16.2892 4.26013 14.8599 4.00109C14.8339 3.99609 14.8079 4.00858 14.7945 4.03357C14.6187 4.36175 14.4239 4.78988 14.2876 5.12639C12.7503 4.88484 11.221 4.88484 9.71527 5.12639C9.57887 4.7824 9.37707 4.36175 9.20048 4.03357C9.18707 4.00941 9.16107 3.99692 9.13504 4.00109C7.70659 4.2593 6.33963 4.71159 5.06411 5.32631C5.05307 5.33131 5.04361 5.33965 5.03732 5.35047C2.44449 9.4161 1.73421 13.3818 2.08265 17.2983C2.08423 17.3175 2.09447 17.3358 2.10867 17.3475C3.81934 18.666 5.47642 19.4665 7.10273 19.9971C7.12876 20.0054 7.15634 19.9954 7.1729 19.9729C7.55761 19.4215 7.90054 18.8401 8.19456 18.2287C8.21192 18.1929 8.19535 18.1504 8.15989 18.1363C7.61594 17.9197 7.098 17.6557 6.59977 17.3558C6.56037 17.3317 6.55721 17.2725 6.59347 17.2442C6.69831 17.1617 6.80318 17.0759 6.9033 16.9893C6.92141 16.9735 6.94665 16.9701 6.96794 16.9801C10.2411 18.5486 13.7846 18.5486 17.0191 16.9801C17.0404 16.9693 17.0657 16.9726 17.0846 16.9885C17.1847 17.0751 17.2895 17.1617 17.3952 17.2442C17.4314 17.2725 17.4291 17.3317 17.3897 17.3558C16.8914 17.6615 16.3735 17.9197 15.8288 18.1354C15.7933 18.1496 15.7775 18.1929 15.7949 18.2287C16.0952 18.8393 16.4381 19.4207 16.8157 19.9721C16.8315 19.9954 16.8599 20.0054 16.8859 19.9971C18.5201 19.4665 20.1772 18.666 21.8879 17.3475C21.9028 17.3358 21.9123 17.3183 21.9139 17.2992C22.3309 12.7712 21.2154 8.83804 18.9568 5.3513C18.9513 5.33965 18.9419 5.33131 18.9308 5.32631ZM8.68335 14.9136C7.69792 14.9136 6.88594 13.964 6.88594 12.7979C6.88594 11.6317 7.68217 10.6822 8.68335 10.6822C9.69239 10.6822 10.4965 11.6401 10.4807 12.7979C10.4807 13.964 9.68451 14.9136 8.68335 14.9136ZM15.329 14.9136C14.3435 14.9136 13.5316 13.964 13.5316 12.7979C13.5316 11.6317 14.3278 10.6822 15.329 10.6822C16.338 10.6822 17.1421 11.6401 17.1264 12.7979C17.1264 13.964 16.338 14.9136 15.329 14.9136Z" fill="#A4A5A8"/>
</svg>
