<?xml version="1.0" encoding="UTF-8"?>
<svg width="24px" height="24px" viewBox="0 0 24 24" version="1.1" xmlns="http://www.w3.org/2000/svg" xmlns:xlink="http://www.w3.org/1999/xlink">
    <title>B5911516-070F-4F0C-B5B6-430514AE1C64@1x</title>
    <g id="Symbols" stroke="none" stroke-width="1" fill="none" fill-rule="evenodd">
        <g id="Social-Icon-/-Discord" fill="#6B748C">
            <path d="M8.06897423,12.0011962 L8.06897423,12.0011962 C7.25353575,11.9730676 6.50276849,12.4431077 6.17188639,13.1889242 C5.84100429,13.9347406 5.99635794,14.8067777 6.56444417,15.3924444 C7.1325304,15.9781111 7.99943291,16.1599659 8.75499016,15.8519669 C9.51054741,15.543968 10.0032502,14.8078772 10,13.9919646 C10.0000898,12.9184109 9.13783001,12.043867 8.06437659,12.0287819 L8.06897423,12.0011962 Z M16.0689742,12.0011962 L16.0689742,12.0011962 C15.2535358,11.9730676 14.5027685,12.4431077 14.1718864,13.1889242 C13.8410043,13.9347406 13.9963579,14.8067777 14.5644442,15.3924444 C15.1325304,15.9781111 15.9994329,16.1599659 16.7549902,15.8519669 C17.5105474,15.543968 18.0032502,14.8078772 18,13.9919646 C17.9977815,12.9246813 17.1451694,12.0537163 16.0781695,12.0287819 L16.0689742,12.0011962 Z M8.73,4 L8.955,4.21424224 C5.305,5.06147292 3.65,6.643944 3.65,6.643944 C8.85442844,4.16653519 14.950016,4.20618098 20.12,6.75106512 C20.12,6.75106512 18.46,5.26597687 15.035,4.31649422 L15.34,4.02434571 C17.3923568,4.11239152 19.3677112,4.81082142 21,6.02556299 C22.8939193,9.44928534 23.9223509,13.2633915 24,17.151552 C23.9,17.0346926 22.14,19.7906269 17.605,19.8880097 C17.605,19.8880097 17.225,19.4692635 16.81,18.9628728 L16.77,18.9190505 L16.66,18.7778454 L16.62,18.729154 L16.58,18.6853317 L16.58,18.6853317 L16.54,18.6366403 L16.305,18.3250152 C18.955,17.5849057 19.95,16.0998174 19.95,16.0998174 C14.785,19.2647596 10.26,18.7729763 4.845,16.635423 C4.80583611,16.6346929 4.7690981,16.6168047 4.745,16.5867316 L4.745,16.5867316 C4.7209019,16.5566585 4.68416389,16.5387703 4.645,16.5380402 L4.535,16.5380402 C4.36421176,16.4106156 4.18554148,16.2935354 4,16.187462 C4,16.187462 5,17.6482045 7.54,18.4126598 L7.43,18.5295192 L7.39,18.5782106 L7.39,18.6025563 L7.345,18.6512477 L7.305,18.6999391 L7.26,18.7486306 L7.22,18.797322 C6.72,19.4010956 6.25,19.9707851 6.22,20 L6.22,20 C1.655,19.897748 0,17.1369446 0,17.1369446 C0.0803263401,13.2491469 1.1085956,9.43564275 3,6.01095557 C4.63321939,4.8032956 6.60202484,4.10255572 8.65,4 L8.73,4 Z" id="Shape"></path>
        </g>
    </g>
</svg>