<?xml version="1.0" encoding="utf-8"?>
<!-- Generator: Adobe Illustrator 19.2.1, SVG Export Plug-In . SVG Version: 6.00 Build 0)  -->
<svg version="1.1" id="layer" xmlns="http://www.w3.org/2000/svg" xmlns:xlink="http://www.w3.org/1999/xlink" x="0px" y="0px"
	 viewBox="0 0 652 652" style="enable-background:new 0 0 652 652;" xml:space="preserve">
<path d="M391.9,176.7L252.2,467.3h-10.3l139.7-290.6H391.9z M409.9,272.9c0-8.1,3.1-14.8,9.3-19.8c6.4-5.1,14.6-7.6,24.5-7.6
	c6.6,0,12.8,0.7,18.9,2c6.2,1.4,13.4,4,21.7,7.9l-4.6,8.6c-7.6-3.7-14-6.4-19.4-7.9c-5.3-1.4-10.8-2-16.3-2
	c-7.4,0-13.2,1.7-17.3,5.1c-4.3,3.4-6.5,7.9-6.5,13.5c0,5.4,1.7,10.1,5.2,14c3.6,3.7,11.6,9.2,24,16.3c11.2,6.4,19.3,12,24.3,16.5
	c5.2,4.7,9,9.8,11.4,15.3c2.2,5.4,3.4,12,3.4,19.6c0,15.1-4.2,27.1-12.7,35.9c-8.4,8.7-20.2,13-35.4,13c-14.6,0-26.4-4.2-35.1-12.5
	c-8.6-8.1-12.9-19.1-12.9-32.8c0-12.9,3.7-23.4,11.1-31.5c7.2-8.3,18.9-14.5,34.9-18.6c-10.7-5.9-18.1-11.5-22.2-16.8
	C412,285.5,409.9,279.5,409.9,272.9z M525.2,255.9L565,318l40.3-62.1h11.1l-45.8,69.4l49.4,75.8h-11.6l-43.7-67.7l-44.5,67.7h-11.4
	l49.6-75.8l-45-69.4H525.2z M424.5,320.5c-5.2,2.5-9.3,5.6-12.4,9.1c-3.1,3.4-5.4,7.5-7,12.2c-1.7,4.7-2.6,10.1-2.6,16
	c0,11,3.5,19.8,10.3,26.4c6.9,6.6,16.1,9.9,27.7,9.9c11.9,0,21.1-3.4,27.7-10.2c6.6-7,9.8-16.9,9.8-30c0-8.8-2.4-16.4-7.2-22.9
	c-4.7-6.4-12.7-12.5-24.1-18C436.9,315.5,429.5,317.9,424.5,320.5z M90.3,247.5c6.2,1.4,13.4,4,21.7,7.9l-4.7,8.6
	c-7.6-3.7-14-6.4-19.4-7.9c-5.3-1.4-10.8-2-16.3-2c-7.4,0-13.2,1.7-17.3,5.1c-4.3,3.4-6.5,7.9-6.5,13.5c0,5.4,1.7,10.1,5.2,14
	c3.6,3.7,11.6,9.2,24,16.3c11.2,6.4,19.3,12,24.3,16.5c5.2,4.7,9,9.8,11.4,15.3c2.2,5.4,3.4,12,3.4,19.6c0,15.1-4.2,27.1-12.7,35.9
	c-8.4,8.7-20.2,13-35.4,13c-14.6,0-26.4-4.2-35.1-12.5c-8.6-8.1-12.9-19.1-12.9-32.8c0-12.9,3.7-23.4,11.1-31.5
	C38.4,318,50,311.8,66,307.7c-10.7-5.9-18.1-11.5-22.2-16.8c-4.1-5.4-6.2-11.4-6.2-18.1c0-8.1,3.1-14.8,9.3-19.8
	c6.4-5.1,14.6-7.6,24.5-7.6C78,245.4,84.3,246.1,90.3,247.5z M52.4,320.5c-5.2,2.5-9.3,5.6-12.4,9.1c-3.1,3.4-5.4,7.5-7,12.2
	c-1.7,4.7-2.6,10.1-2.6,16c0,11,3.4,19.8,10.3,26.4c6.9,6.6,16.1,9.9,27.7,9.9c11.9,0,21.1-3.4,27.7-10.2c6.6-7,9.8-16.9,9.8-30
	c0-8.8-2.4-16.4-7.2-22.9c-4.7-6.4-12.7-12.5-24.1-18C64.8,315.5,57.4,317.9,52.4,320.5z M246.7,255.9l-49.1,89v56.2h-10.6v-55.4
	l-49.4-89.8h11.9l42.9,79.4l43.2-79.4H246.7z"/>
</svg>
