<svg xmlns="http://www.w3.org/2000/svg" viewBox="0 0 362.5 113"><defs><style>.a,.b{fill:#1c1c28;}.b{fill-rule:evenodd;}</style></defs><title>dydxlogo_dark</title><polygon class="a" points="336.17 0 258 111.99 282 111.99 360.58 0 336.17 0"/><polygon class="a" points="284.5 0 307.5 33 295.5 51 260 0 284.5 0"/><polygon class="a" points="284.5 0 307.5 33 295.5 51 260 0 284.5 0"/><polygon class="a" points="338.5 112 313 75.5 325 58 362.5 112 338.5 112"/><polygon class="a" points="338.5 112 313 75.5 325 58 362.5 112 338.5 112"/><path class="b" d="M230,0h21V112H230v-4.18a42.38,42.38,0,1,1,0-74.37ZM209.34,94.4a24,24,0,1,0-24.11-24A24,24,0,0,0,209.34,94.4Z" transform="translate(0 0)"/><polygon class="a" points="169.09 0 91 111.99 115.48 111.99 193.5 0 169.09 0"/><polygon class="a" points="115.5 0 140 34 126.5 53 90 0 115.5 0"/><polygon class="a" points="115.5 0 140 34 126.5 53 90 0 115.5 0"/><path class="b" d="M63,0H84V112H63v-4.18a42.38,42.38,0,1,1,0-74.37ZM42.34,94.4a24,24,0,1,0-24.11-24A24,24,0,0,0,42.34,94.4Z" transform="translate(0 0)"/></svg>