<svg width="24" height="18" viewBox="0 0 24 18" fill="none" xmlns="http://www.w3.org/2000/svg">
<path d="M10.8027 15.1682C11.1776 15.1682 11.5151 15.4624 11.5151 15.8669C11.5151 16.2347 11.2151 16.5657 10.8027 16.5657C10.4278 16.5657 10.0904 16.2715 10.0904 15.8669C10.0904 15.4624 10.4278 15.1682 10.8027 15.1682ZM21.8254 10.9021C21.4505 10.9021 21.1131 10.6079 21.1131 10.2033C21.1131 9.83556 21.413 9.50457 21.8254 9.50457C22.2004 9.50457 22.5378 9.79878 22.5378 10.2033C22.5378 10.5711 22.2004 10.9021 21.8254 10.9021ZM21.8254 8.07028C20.6257 8.07028 19.6509 9.02647 19.6509 10.2033C19.6509 10.424 19.6884 10.6446 19.7634 10.8653L12.6023 14.6165C12.1899 14.0281 11.5151 13.6971 10.8027 13.6971C9.97788 13.6971 9.22804 14.1752 8.85311 14.874L2.40444 11.5641C1.72958 11.1963 1.20469 10.1298 1.27967 9.10002C1.31716 8.58515 1.50463 8.18061 1.76707 8.0335C1.95453 7.92317 2.14199 7.95995 2.40444 8.07028L2.44193 8.10705C4.16658 8.98969 9.75293 11.8583 9.97788 11.9686C10.3528 12.1157 10.5403 12.1893 11.1776 11.8951L22.7253 6.01078C22.9127 5.93722 23.1002 5.79012 23.1002 5.53268C23.1002 5.20169 22.7628 5.05458 22.7628 5.05458C22.0879 4.76037 21.0756 4.28227 20.1008 3.84095C18.0012 2.88475 15.6017 1.78145 14.5519 1.2298C13.6521 0.7517 12.9023 1.15624 12.7898 1.2298L12.5274 1.34013C7.76584 3.69384 1.46713 6.74631 1.09221 6.96697C0.454842 7.33474 0.0424266 8.10705 0.00493432 9.06325C-0.0700503 10.5711 0.717288 12.1525 1.84206 12.7041L8.66565 16.1612C8.81562 17.1909 9.75293 18 10.8027 18C12.0025 18 12.9398 17.0806 12.9773 15.9037L20.4757 11.9318C20.8506 12.226 21.338 12.3732 21.8254 12.3732C23.0252 12.3732 24 11.417 24 10.2401C24 9.02647 23.0252 8.07028 21.8254 8.07028Z" fill="white"/>
</svg>
