<?xml version="1.0" encoding="UTF-8"?>
<svg width="90px" height="14px" viewBox="0 0 90 14" version="1.1" xmlns="http://www.w3.org/2000/svg" xmlns:xlink="http://www.w3.org/1999/xlink">
    <title>Logo / Kraken</title>
    <g id="Symbols" stroke="none" stroke-width="1" fill="none" fill-rule="evenodd">
        <g id="Table-/-Comparison-/-CEX-/-Security" transform="translate(-407.000000, -164.000000)" fill="#5741D9" fill-rule="nonzero">
            <g id="Table-/-Comparison-/-CEX-/-Trading" transform="translate(-4.000000, 0.000000)">
                <g id="Security-Comparison" transform="translate(0.000000, 59.000000)">
                    <g id="Exchange" transform="translate(206.287929, 74.000000)">
                        <g id="Group" transform="translate(195.000000, 20.000000)">
                            <path d="M18.4210526,11.019526 C19.9849624,10.9156984 21.5789474,11.2271813 22.9774436,11.9243097 C25.0526316,12.9329211 26.7067669,14.7424885 27.4736842,16.8783714 C27.8195489,17.8276526 28,18.8214315 28,19.8300428 L28,23.5530053 C28,23.7013305 28,23.8644882 27.9699248,24.0128134 C27.8796992,24.3836264 27.6090226,24.7247744 27.2481203,24.8879321 C26.9924812,25.0065922 26.7067669,25.0214248 26.4511278,24.9769272 C25.8796992,24.8730996 25.4285714,24.3391288 25.4285714,23.7606606 C25.4285714,22.603724 25.4285714,21.4467875 25.4285714,20.2898509 C25.443609,19.9635355 25.443609,19.607555 25.2631579,19.3257371 C24.9774436,18.7917664 24.2556391,18.5396136 23.6992481,18.7621014 C23.2180451,18.9252591 22.8721805,19.4147322 22.8571429,19.9190379 C22.8571429,21.090807 22.8571429,22.2625761 22.8571429,23.4343451 C22.8571429,23.6568329 22.8721805,23.8793207 22.7969925,24.086976 C22.6766917,24.5022866 22.3308271,24.828602 21.9097744,24.9472622 C21.3533835,25.0955874 20.7218045,24.858267 20.4511278,24.3539614 C20.2556391,24.057311 20.2706767,23.686498 20.2857143,23.34535 C20.2857143,22.1735809 20.2857143,21.0166444 20.2857143,19.8448753 C20.2706767,19.2515745 19.7744361,18.7176038 19.1879699,18.6434412 C18.7969925,18.5841111 18.3909774,18.7176038 18.1052632,18.9845892 C17.8496241,19.2219095 17.7142857,19.5630574 17.7142857,19.9042054 L17.7142857,23.3008524 C17.7142857,23.5826703 17.7443609,23.8793207 17.6390977,24.1463061 C17.4736842,24.6357792 16.9774436,24.9917597 16.4511278,24.9769272 C15.9097744,25.0065922 15.3834586,24.6357792 15.2180451,24.1463061 C15.1278195,23.8941532 15.1428571,23.6420004 15.1428571,23.375015 C15.1428571,22.203246 15.1428571,21.0314769 15.1428571,19.8597078 C15.1428571,19.2812396 14.6766917,18.7472689 14.1052632,18.6434412 C13.5789474,18.5396136 13.0075188,18.7917664 12.7368421,19.266407 C12.6315789,19.4592298 12.5714286,19.6817176 12.5714286,19.9042054 L12.5714286,23.716163 C12.5714286,24.086976 12.406015,24.457789 12.1203008,24.6951093 C11.6842105,25.0659223 10.9774436,25.0955874 10.5263158,24.7544394 C10.1954887,24.5319516 10,24.1463061 10,23.745828 L10,19.8893729 C10,18.4357859 10.3759398,16.982199 11.0827068,15.6917698 C11.6541353,14.6386609 12.4511278,13.7042121 13.3984962,12.9625861 C14.7969925,11.8056496 16.5864662,11.1233537 18.4210526,11.019526 L18.4210526,11.019526 Z" id="_x23_0da8ffff_1_"></path>
                            <path d="M52.7516455,16.0318522 L50.8121983,16.0318522 C50.8867925,14.7320209 51.1702501,13.5607443 52.4085125,12.8179836 C53.6467749,12.0895067 55.0043879,11.9181003 56.4216762,12.0323712 C57.1825362,12.0895067 57.9433962,12.2466291 58.644581,12.5608741 C59.8828434,13.1036608 60.4945151,14.0321117 60.4945151,15.3319431 C60.4945151,17.6316447 60.4945151,19.9313462 60.4945151,22.2310478 C60.4945151,23.0737956 60.673541,23.2309181 61.5537516,23.1452149 C61.6432646,23.1309311 61.7476964,23.1166472 61.8372093,23.1023633 C61.8521281,23.1452149 61.8521281,23.1880665 61.8521281,23.2166342 L61.8521281,24.6164526 C61.1509434,24.8449944 60.4348398,24.9164137 59.7336551,24.7307235 C59.2114963,24.5878849 58.8832821,24.2307883 58.7042563,23.7594209 C58.6147433,23.5165953 58.555068,23.2594858 58.4804739,22.9880925 C58.4058798,23.0737956 58.3462045,23.1452149 58.2716104,23.2166342 C56.7349715,24.7021558 54.9148749,25.3306456 52.7665643,24.8021428 C51.2448442,24.4307624 50.2005265,23.1023633 50.1557701,21.5882741 C50.1408513,21.1026228 50.1856077,20.6169716 50.3049583,20.1456042 C50.588416,19.0600307 51.3940325,18.4029731 52.4085125,17.9601735 C53.1246161,17.6459285 53.9003949,17.5602254 54.6761738,17.4602383 C55.586222,17.3459674 56.4813515,17.2459804 57.3913997,17.1174257 C58.0030715,17.0317225 58.3163668,16.7174776 58.4058798,16.1318393 C58.5998245,14.9462788 58.047828,14.1606665 56.8543221,13.8749893 C56.1382185,13.7035829 55.4071961,13.6750152 54.6761738,13.80357 C53.6020184,13.9892602 53.0052655,14.5748984 52.7964019,15.5890526 C52.8113208,15.7318912 52.7814831,15.8747298 52.7516455,16.0318522 L52.7516455,16.0318522 Z M58.4655551,18.31727 C57.5704256,18.7743535 56.7051338,18.8886244 55.8249232,19.0171792 C55.0939008,19.13145 54.3479596,19.2314371 53.6318561,19.445695 C52.6919702,19.7456561 52.2593243,20.4884168 52.3488372,21.4882871 C52.4234313,22.316751 53.0052655,22.9880925 53.9451514,23.1309311 C55.3922773,23.3594728 56.6752962,22.9738086 57.6897762,21.9453706 C57.9881527,21.6454095 58.2268539,21.2168937 58.2865292,20.8169456 C58.4207986,20.0170494 58.4058798,19.2028693 58.4655551,18.31727 Z M86.110136,20.7169586 C86.0653796,20.9169326 86.0355419,21.088339 85.9907854,21.2454614 C85.1553313,23.6880016 83.4545853,24.7307235 81.3957876,24.9592652 C77.8301887,25.3306456 75.7863098,23.1023633 75.2641509,20.7312425 C74.8464239,18.8457728 74.9060992,16.9745871 75.771391,15.2033883 C76.5919263,13.5321766 77.9047828,12.4323193 79.8591487,12.1037905 C82.2014041,11.7038424 85.5133831,12.8179836 86.0653796,16.3175295 C86.2145678,17.2174127 86.2444054,18.1458636 86.3339184,19.0885985 L77.2632734,19.0885985 C77.3378675,20.3741459 77.546731,21.5739902 78.5313734,22.5024412 C78.9341817,22.8881054 79.4563405,23.0737956 80.0232558,23.1737826 C81.8582712,23.4880276 83.3799912,22.6452798 83.9767442,20.9455004 C84.0364195,20.7598102 84.1259324,20.7026747 84.3198771,20.7169586 C84.9017113,20.7169586 85.4835454,20.7169586 86.110136,20.7169586 L86.110136,20.7169586 Z M77.3378675,17.4316706 L84.1259324,17.4316706 C84.0513383,16.674626 83.9170689,15.9747168 83.5440983,15.3176592 C83.1860465,14.6891693 82.6638877,14.2320858 81.9477841,14.003544 C79.6055287,13.2322155 77.1886792,15.0176981 77.3378675,17.4316706 Z M90.9885915,24.5450333 L88.9297938,24.5450333 L88.9297938,12.2894807 L90.8841597,12.2894807 L90.8841597,14.003544 C91.033348,13.8464215 91.1228609,13.7464345 91.2123738,13.6464475 C92.6147433,12.1180744 94.3751645,11.7181263 96.374287,12.1894937 C97.7617376,12.5180225 98.5375165,13.4607573 98.8060553,14.7748725 C98.9104871,15.3176592 98.9850812,15.8747298 98.9850812,16.4175165 C99,19.0457469 99,21.6739773 99,24.3022077 C99,24.373627 98.9850812,24.4450463 98.9850812,24.5307494 L96.881527,24.5307494 L96.881527,24.2022206 C96.881527,21.7453966 96.8964458,19.2885725 96.8666082,16.8317485 C96.8666082,16.2889617 96.7770952,15.7318912 96.6129882,15.2033883 C96.3444493,14.3463567 95.6283458,13.8892731 94.6884599,13.8464215 C92.9727951,13.7892861 91.6151821,14.6606016 91.197455,16.1175554 C91.0482668,16.6460583 91.0035103,17.2031288 91.0035103,17.7601994 C90.9885915,19.9170624 90.9885915,22.0596415 90.9885915,24.1879368 L90.9885915,24.5450333 L90.9885915,24.5450333 Z M63.8512505,12.2894807 L65.8354541,12.2894807 L65.8354541,17.488806 C65.9548047,17.3745352 66.0293989,17.3173997 66.103993,17.2459804 C67.7301448,15.6604719 69.3562966,14.0606795 70.9824484,12.4751709 C71.1167179,12.3323323 71.2509873,12.2751969 71.4598508,12.2751969 C72.2207108,12.2894807 72.9964897,12.2751969 73.8319438,12.2751969 C73.7125932,12.3894677 73.6529179,12.460887 73.5783238,12.5323064 C72.1461167,13.903557 70.7288284,15.2890915 69.2817025,16.6460583 C69.1175954,16.8031807 69.1175954,16.9031678 69.2220272,17.0745741 C70.7885037,19.4599788 72.3400614,21.8453836 73.8916191,24.2307883 C73.9512944,24.3164915 73.9960509,24.4021947 74.070645,24.5307494 C73.9662133,24.5450333 73.8916191,24.5450333 73.8021062,24.5450333 C73.0860026,24.5450333 72.3848179,24.5450333 71.6687143,24.5450333 C71.4747696,24.5450333 71.3852567,24.473614 71.2808249,24.3307754 C70.087319,22.416738 68.8938131,20.5027007 67.7003072,18.5743795 C67.6406319,18.4886763 67.5958754,18.4029731 67.5212813,18.3029861 C66.9692848,18.831489 66.4322071,19.3314241 65.8951294,19.8599269 C65.8205353,19.9313462 65.8056165,20.059901 65.8056165,20.159888 C65.8056165,21.5025709 65.8056165,22.8452538 65.8056165,24.1879368 L65.8056165,24.5307494 C65.4177271,24.5307494 65.0298376,24.5307494 64.656867,24.5307494 C64.3883282,24.5307494 64.0153576,24.6021687 63.8661694,24.4593301 C63.7319,24.3450592 63.8064941,23.9736789 63.8064941,23.7165694 L63.8064941,12.6180095 C63.8512505,12.5465902 63.8512505,12.4323193 63.8512505,12.2894807 Z M40.9508556,12.2751969 C39.3396226,13.80357 37.7731461,15.3033753 36.1917508,16.8031807 C37.8924967,19.4028434 39.5484862,21.9453706 41.2343133,24.5450333 C41.1000439,24.5450333 41.0105309,24.5593171 40.921018,24.5593171 C40.2347521,24.5593171 39.5335674,24.5593171 38.8473014,24.5593171 C38.6533567,24.5593171 38.5340061,24.4878978 38.4295744,24.3307754 C37.2360685,22.416738 36.0425625,20.5027007 34.8490566,18.5743795 C34.8043001,18.4886763 34.7446248,18.417257 34.6700307,18.3029861 C34.3716542,18.6029472 34.1031154,18.931476 33.7749013,19.1600178 C33.1035542,19.645669 32.9096095,20.2455912 32.9543659,21.0454874 C33.0289601,22.0882092 32.9692848,23.1452149 32.9692848,24.1879368 L32.9692848,24.5307494 L31,24.5307494 L31,12.2894807 L32.9692848,12.2894807 L32.9692848,17.4031029 C33.0140412,17.4316706 33.0587977,17.4602383 33.0886354,17.488806 C33.1483107,17.4031029 33.1781483,17.3031159 33.2378236,17.2316966 C34.8490566,15.646188 36.4752084,14.0749633 38.0864414,12.4751709 C38.2356297,12.3323323 38.3698991,12.260913 38.5936814,12.2751969 C39.2650285,12.2894807 39.9363756,12.2751969 40.6077227,12.2751969 C40.7121545,12.2751969 40.8016674,12.2751969 40.9508556,12.2751969 L40.9508556,12.2751969 Z M44.8894252,14.317789 C45.8889864,12.9179706 46.9482229,11.746694 48.9175077,12.0895067 L48.9175077,14.1892342 C48.3953488,14.2178019 47.87319,14.2035181 47.3808688,14.3035051 C46.1724441,14.5463307 45.2325581,15.6033364 45.0386134,16.8888839 C45.0087758,17.1459934 44.9789381,17.4031029 44.9789381,17.6602124 C44.9789381,19.8456431 44.9789381,22.0310738 44.9789381,24.2165045 L44.9789381,24.5593171 L42.9499781,24.5593171 L42.9499781,12.3180484 L44.8894252,12.3180484 C44.8894252,12.9608222 44.8894252,13.6035959 44.8894252,14.317789 L44.8894252,14.317789 Z" id="Shape"></path>
                        </g>
                    </g>
                </g>
            </g>
        </g>
    </g>
</svg>