<?xml version="1.0" encoding="UTF-8"?>
<svg viewBox="0 0 20 20" version="1.1" xmlns="http://www.w3.org/2000/svg" xmlns:xlink="http://www.w3.org/1999/xlink">
  <g stroke="none" stroke-width="1" fill="#073C50" fill-rule="evenodd">
    <path d="M5.58057682,7.31240173 L5.58079173,18 L2.26448039,18 L2.26448039,7.31240173 L5.58057682,7.31240173 Z M14.0222725,7.04638379 C17.3800165,7.04638379 18,9.26011746 18,12.1372831 L18,12.1372831 L18,17.9997849 L14.6869088,17.9997849 L14.686044,12.5417675 C14.6758161,11.3507651 14.5470512,9.9687101 12.9632769,9.9687101 C11.2387863,9.9687101 10.9736617,11.3187995 10.9736617,12.7125442 L10.9736617,12.7125442 L10.9736617,17.9997849 L7.6599268,17.9997849 L7.6599268,7.31240173 L10.8405626,7.31240173 L10.8405626,8.77259715 L10.885001,8.77259715 L10.956212,8.64633952 C11.4373997,7.84600745 12.4904644,7.04638379 14.0222725,7.04638379 Z M3.92328004,2 C4.98356362,2 5.8448428,2.8627841 5.8448428,3.92513541 C5.8448428,4.98856198 4.98356362,5.85156115 3.92328004,5.85156115 C2.86042054,5.85156115 2,4.98856198 2,3.92513541 C2.00021441,2.8632142 2.86084986,2 3.92328004,2 Z"></path>
  </g>
</svg>