<?xml version="1.0" encoding="UTF-8"?>
<svg viewBox="0 0 64 64" version="1.1" xmlns="http://www.w3.org/2000/svg" xmlns:xlink="http://www.w3.org/1999/xlink">
  <polygon fill="#E17726" fill-rule="nonzero" points="59.9706228 2 35.7351351 20.59375 40.2418331 9.63583333"></polygon>
  <polygon fill="#E27625" fill-rule="nonzero" points="4.06839013 2 28.0881316 20.7672917 23.7971798 9.63583333"></polygon>
  <polygon fill="#E27625" fill-rule="nonzero" points="51.2448884 45.1127083 44.7964747 55.326875 58.6042303 59.26875 62.559577 45.3358333"></polygon>
  <polygon fill="#E27625" fill-rule="nonzero" points="1.50340776 45.3358333 5.43478261 59.26875 19.2185664 55.326875 12.7941246 45.1127083"></polygon>
  <polygon fill="#E27625" fill-rule="nonzero" points="18.4754407 27.8577083 14.639953 33.8572917 28.3038778 34.501875 27.8484136 19.255"></polygon>
  <polygon fill="#E27625" fill-rule="nonzero" points="45.5635723 27.8577083 36.0467685 19.0814583 35.7351351 34.501875 49.3990599 33.8572917"></polygon>
  <polygon fill="#E27625" fill-rule="nonzero" points="19.2185664 55.326875 27.4888367 51.1866667 20.3692127 45.435"></polygon>
  <polygon fill="#E27625" fill-rule="nonzero" points="36.5501763 51.1866667 44.7964747 55.326875 43.6698002 45.435"></polygon>
  <polygon fill="#D5BFB2" fill-rule="nonzero" points="44.7964747 55.326875 36.5501763 51.1866667 37.2213866 56.74 37.1494712 59.0952083"></polygon>
  <polygon fill="#D5BFB2" fill-rule="nonzero" points="19.2185664 55.326875 26.8895417 59.0952083 26.8415981 56.74 27.4888367 51.1866667"></polygon>
  <polygon fill="#CC6228" fill-rule="nonzero" points="19.2185664 55.326875 20.4171563 45.1127083 12.7941246 45.3358333"></polygon>
  <polygon fill="#CC6228" fill-rule="nonzero" points="43.6218566 45.1127083 44.7964747 55.326875 51.2448884 45.3358333"></polygon>
  <polygon fill="#CC6228" fill-rule="nonzero" points="49.3990599 33.8572917 35.7351351 34.501875 37.0056404 41.7658333 39.0192714 37.3777083 43.8855464 39.6833333"></polygon>
  <polygon fill="#CC6228" fill-rule="nonzero" points="20.1774383 39.6833333 25.0197415 37.3777083 27.0333725 41.7658333 28.3038778 34.501875 14.639953 33.8572917"></polygon>
  <polygon fill="#E27525" fill-rule="nonzero" points="14.639953 33.8572917 20.3692127 45.435 20.1774383 39.6833333"></polygon>
  <polygon fill="#E27525" fill-rule="nonzero" points="43.8855464 39.6833333 43.6698002 45.435 49.3990599 33.8572917"></polygon>
  <polygon fill="#E27525" fill-rule="nonzero" points="28.3038778 34.501875 27.0333725 41.7658333 28.639483 50.34375 28.9990599 39.03875"></polygon>
  <polygon fill="#E27525" fill-rule="nonzero" points="35.7351351 34.501875 35.0639248 39.0139583 35.39953 50.34375 37.0056404 41.7658333"></polygon>
  <polygon fill="#F5841F" fill-rule="nonzero" points="37.0056404 41.7658333 35.39953 50.34375 36.5501763 51.1866667 43.6698002 45.435 43.8855464 39.6833333"></polygon>
  <polygon fill="#F5841F" fill-rule="nonzero" points="20.1774383 39.6833333 20.3692127 45.435 27.4888367 51.1866667 28.639483 50.34375 27.0333725 41.7658333"></polygon>
  <polygon fill="#C0AC9D" fill-rule="nonzero" points="37.1494712 59.0952083 37.2213866 56.74 36.5981199 56.1945833 27.4408931 56.1945833 26.8415981 56.74 26.8895417 59.0952083 19.2185664 55.326875 21.9034078 57.6077083 27.3450059 61.5 36.6700353 61.5 42.1356052 57.6077083 44.7964747 55.326875"></polygon>
  <polygon fill="#161616" fill-rule="nonzero" points="36.5501763 51.1866667 35.39953 50.34375 28.639483 50.34375 27.4888367 51.1866667 26.8415981 56.74 27.4408931 56.1945833 36.5981199 56.1945833 37.2213866 56.74"></polygon>
  <polygon fill="#763E1A" fill-rule="nonzero" points="61.0014101 21.8085417 63.0390129 11.5447917 59.9706228 2 36.5501763 19.9739583 45.5635723 27.8577083 58.2925969 31.7004167 61.0972973 28.3039583 59.8747356 27.3866667 61.8164512 25.5520833 60.3301998 24.3620833 62.2719154 22.825"></polygon>
  <polygon fill="#763E1A" fill-rule="nonzero" points="1 11.5447917 3.06157462 21.8085417 1.74312573 22.825 3.70881316 24.3620833 2.22256169 25.5520833 4.16427732 27.3866667 2.94171563 28.3039583 5.74641598 31.7004167 18.4754407 27.8577083 27.4888367 19.9739583 4.06839013 2"></polygon>
  <polygon fill="#F5841F" fill-rule="nonzero" points="58.2925969 31.7004167 45.5635723 27.8577083 49.3990599 33.8572917 43.6698002 45.435 51.2448884 45.3358333 62.559577 45.3358333"></polygon>
  <polygon fill="#F5841F" fill-rule="nonzero" points="18.4754407 27.8577083 5.74641598 31.7004167 1.50340776 45.3358333 12.7941246 45.3358333 20.3692127 45.435 14.639953 33.8572917"></polygon>
  <polygon fill="#F5841F" fill-rule="nonzero" points="35.7351351 34.501875 36.5501763 19.9739583 40.2418331 9.63583333 23.7971798 9.63583333 27.4888367 19.9739583 28.3038778 34.501875 28.6155112 39.0635417 28.639483 50.34375 35.39953 50.34375 35.4235018 39.0635417"></polygon>
  <polygon fill="#233447" fill-rule="nonzero" points="27.0333725 41.7658333 20.1774383 39.6833333 25.0197415 37.3777083"></polygon>
  <polygon fill="#233447" fill-rule="nonzero" points="37.0056404 41.7658333 39.0192714 37.3777083 43.8855464 39.6833333"></polygon>
</svg>
