<svg width="3872" height="480" viewBox="0 0 3872 480" fill="none" xmlns="http://www.w3.org/2000/svg">
<path d="M2488.3 332.732C2475.38 337.577 2461.83 340 2447.65 340C2433.29 340 2420.1 337.667 2408.08 333.001C2396.24 328.156 2386.01 321.427 2377.39 312.813C2368.96 304.199 2362.41 293.97 2357.74 282.126C2353.08 270.103 2350.75 256.824 2350.75 242.288C2350.75 227.214 2352.9 213.396 2357.21 200.834C2361.51 188.273 2367.79 177.506 2376.05 168.533C2384.3 159.56 2394.44 152.562 2406.47 147.537C2418.49 142.512 2432.22 140 2447.65 140C2470.8 140 2490.27 145.204 2506.06 155.612C2521.85 166.021 2532.8 182.62 2538.9 205.41H2520.33C2517.64 196.438 2513.96 188.811 2509.29 182.53C2504.63 176.07 2499.06 170.866 2492.6 166.918C2486.32 162.79 2479.23 159.83 2471.34 158.035C2463.62 156.061 2455.37 155.074 2446.57 155.074C2433.65 155.074 2422.26 157.227 2412.39 161.534C2402.7 165.841 2394.53 171.853 2387.89 179.569C2381.25 187.106 2376.23 196.079 2372.82 206.487C2369.59 216.716 2367.97 227.842 2367.97 239.865C2367.97 252.248 2369.77 263.643 2373.36 274.051C2376.95 284.459 2382.15 293.432 2388.97 300.969C2395.79 308.506 2404.22 314.428 2414.27 318.735C2424.32 322.862 2435.9 324.926 2449 324.926C2455.64 324.926 2462.19 324.208 2468.65 322.773C2475.11 321.337 2481.21 319.183 2486.95 316.312C2492.69 313.262 2497.9 309.493 2502.56 305.007C2507.23 300.341 2511.09 294.868 2514.14 288.587C2515.04 286.613 2515.84 284.639 2516.56 282.665C2517.46 280.691 2518.35 278.717 2519.25 276.743H2538.63C2533.97 290.202 2527.78 301.687 2520.06 311.198C2512.34 320.709 2501.76 327.887 2488.3 332.732Z" fill="url(#paint0_linear_1_2557)"/>
<path d="M2768.41 335.962L2744.72 272.436H2659.12L2635.17 335.962H2616.59L2687.66 144.038H2716.19L2787.25 335.962H2768.41ZM2663.7 258.977H2741.22L2701.39 156.42L2663.7 258.977Z" fill="url(#paint1_linear_1_2557)"/>
<path d="M3006.37 335.962L2967.33 261.4H2894.93V335.962H2876.89V144.038H2964.37C2972.81 144.038 2980.88 145.473 2988.6 148.345C2996.32 151.216 3003.22 155.253 3009.33 160.458C3015.43 165.482 3020.27 171.673 3023.86 179.031C3027.45 186.209 3029.25 194.105 3029.25 202.719C3029.25 211.691 3027 220.215 3022.52 228.291C3018.03 236.366 3012.29 243.006 3005.29 248.21C3004.21 248.928 3002.87 249.825 3001.25 250.902C2999.82 251.799 2998.29 252.696 2996.67 253.594C2995.06 254.491 2993.53 255.298 2992.1 256.016C2990.66 256.734 2989.5 257.093 2988.6 257.093L2985.64 257.362L3027.36 335.962H3006.37ZM2894.93 246.326H2964.37C2974.06 246.326 2982.95 243.634 2991.02 238.25C2999.1 232.687 3004.93 225.33 3008.52 216.178C3009.06 214.742 3009.51 213.217 3009.86 211.602C3010.4 209.987 3010.67 208.192 3010.67 206.218C3010.67 199.399 3009.51 193.118 3007.17 187.375C3005.02 181.633 3001.88 176.698 2997.75 172.571C2993.62 168.443 2988.69 165.213 2982.95 162.88C2977.38 160.368 2971.19 159.112 2964.37 159.112H2894.93V246.326Z" fill="url(#paint2_linear_1_2557)"/>
<path d="M3120.67 144.038H3199C3206.89 144.038 3214.43 145.204 3221.61 147.537C3228.79 149.69 3235.07 153.01 3240.45 157.497C3245.83 161.804 3250.05 167.187 3253.1 173.647C3256.33 180.108 3257.95 187.555 3257.95 195.989C3257.95 201.552 3256.42 206.846 3253.37 211.871C3250.5 216.895 3247.09 221.382 3243.14 225.33C3242.07 226.406 3240.99 227.483 3239.91 228.56C3238.83 229.457 3237.76 230.444 3236.68 231.521L3235.07 233.136L3238.57 235.289C3246.82 240.135 3253.73 246.505 3259.29 254.401C3264.86 262.118 3267.64 270.911 3267.64 280.781C3267.64 287.241 3266.56 293.432 3264.41 299.354C3261.54 306.712 3257.77 312.813 3253.1 317.658C3248.44 322.324 3243.05 326.003 3236.95 328.694C3231.03 331.386 3224.57 333.271 3217.57 334.347C3210.57 335.424 3203.39 335.962 3196.04 335.962H3120.67V144.038ZM3138.97 227.752H3200.88C3205.73 227.752 3210.39 226.855 3214.88 225.061C3219.54 223.266 3223.58 220.754 3226.99 217.524C3230.58 214.293 3233.36 210.525 3235.34 206.218C3237.49 201.732 3238.57 196.976 3238.57 191.952C3238.57 186.568 3237.49 181.902 3235.34 177.954C3233.18 173.827 3230.31 170.327 3226.72 167.456C3223.31 164.585 3219.27 162.432 3214.61 160.996C3210.12 159.56 3205.55 158.843 3200.88 158.843H3138.97V227.752ZM3138.97 320.888H3204.92C3211.2 320.888 3217.48 319.901 3223.76 317.927C3227.17 316.851 3230.4 315.146 3233.45 312.813C3236.5 310.48 3239.19 307.699 3241.53 304.468C3243.86 301.238 3245.65 297.829 3246.91 294.24C3248.35 290.471 3249.06 286.792 3249.06 283.203C3249.06 277.281 3247.9 271.808 3245.56 266.783C3243.23 261.759 3240.09 257.452 3236.14 253.863C3232.37 250.274 3227.89 247.492 3222.68 245.518C3217.48 243.544 3212.01 242.557 3206.26 242.557H3138.97V320.888Z" fill="url(#paint3_linear_1_2557)"/>
<path d="M3360.28 201.373C3363.52 191.144 3368 182.261 3373.74 174.724C3379.49 167.008 3386.22 160.637 3393.93 155.612C3401.65 150.408 3410.17 146.55 3419.5 144.038C3429.02 141.525 3438.97 140.269 3449.38 140.269C3464.82 140.269 3478.63 142.512 3490.84 146.999C3503.22 151.485 3513.63 158.035 3522.06 166.649C3530.5 175.262 3536.96 185.76 3541.44 198.143C3545.93 210.345 3548.17 224.253 3548.17 239.865C3548.17 254.939 3545.93 268.668 3541.44 281.05C3537.14 293.432 3530.77 304.02 3522.33 312.813C3514.08 321.427 3503.94 328.156 3491.91 333.001C3480.07 337.667 3466.52 340 3451.27 340C3435.66 340 3421.84 337.488 3409.81 332.463C3397.79 327.259 3387.65 320.081 3379.4 310.929C3371.32 301.777 3365.13 290.83 3360.82 278.089C3356.52 265.348 3354.36 251.44 3354.36 236.366C3354.36 230.444 3354.81 224.612 3355.71 218.869C3356.79 212.948 3358.31 207.115 3360.28 201.373ZM3452.61 155.074C3444.9 155.074 3436.91 155.971 3428.66 157.766C3420.58 159.381 3413.22 162.342 3406.58 166.649C3400.66 170.417 3395.46 174.993 3390.97 180.377C3386.66 185.581 3382.99 191.323 3379.94 197.604C3377.06 203.706 3374.91 210.076 3373.47 216.716C3372.04 223.356 3371.32 229.906 3371.32 236.366C3371.32 248.21 3373.03 259.515 3376.44 270.283C3379.85 281.05 3384.87 290.471 3391.51 298.546C3398.15 306.622 3406.4 313.082 3416.27 317.927C3426.14 322.593 3437.45 324.926 3450.19 324.926C3458.8 324.926 3466.97 323.939 3474.69 321.965C3482.4 319.991 3489.4 316.94 3495.68 312.813C3502.14 308.686 3507.71 303.481 3512.37 297.201C3517.22 290.92 3520.98 283.472 3523.68 274.859C3525.65 268.578 3526.91 262.207 3527.45 255.747C3527.98 249.287 3528.25 242.916 3528.25 236.635C3528.25 224.791 3526.55 213.934 3523.14 204.065C3519.91 194.015 3515.06 185.402 3508.6 178.223C3502.32 170.866 3494.43 165.213 3484.91 161.265C3475.58 157.138 3464.82 155.074 3452.61 155.074Z" fill="url(#paint4_linear_1_2557)"/>
<path d="M3801.23 144.038V335.962H3784.54L3666.64 172.571V335.962H3648.34V144.038H3665.3L3782.93 307.429V144.038H3801.23Z" fill="url(#paint5_linear_1_2557)"/>
<path d="M1838.88 277.126C1840.65 277.176 1842.43 277.201 1844.21 277.201C1880.82 277.201 1914.98 266.69 1943.83 248.522C1955.64 309.31 2009.16 355.201 2073.4 355.201C2125.98 355.201 2171.37 324.462 2192.6 279.976C2194.25 279.106 2195.87 278.202 2197.47 277.266C2174.28 354.294 2102.79 410.4 2018.2 410.4C1933.56 410.4 1862.04 354.227 1838.88 277.126Z" fill="url(#paint6_radial_1_2557)"/>
<path d="M1838.88 277.126C1840.65 277.176 1842.43 277.201 1844.21 277.201C1880.82 277.201 1914.98 266.69 1943.83 248.522C1955.64 309.31 2009.16 355.201 2073.4 355.201C2125.98 355.201 2171.37 324.462 2192.6 279.976C2194.25 279.106 2195.87 278.202 2197.47 277.266C2174.28 354.294 2102.79 410.4 2018.2 410.4C1933.56 410.4 1862.04 354.227 1838.88 277.126Z" fill="#04171E" fill-opacity="0.88"/>
<path d="M1839.78 280.029C1841.25 280.063 1842.73 280.08 1844.21 280.08C1881.04 280.08 1915.39 269.442 1944.35 251.072C1957.14 310.588 2010.06 355.2 2073.4 355.2C2125.98 355.2 2171.37 324.461 2192.6 279.975C2194.25 279.105 2195.87 278.201 2197.47 277.265C2174.28 354.293 2102.79 410.4 2018.2 410.4C1934.62 410.4 1863.84 355.632 1839.78 280.029Z" fill="url(#paint7_radial_1_2557)"/>
<path d="M1839.78 280.029C1841.25 280.063 1842.73 280.08 1844.21 280.08C1881.04 280.08 1915.39 269.442 1944.35 251.072C1957.14 310.588 2010.06 355.2 2073.4 355.2C2125.98 355.2 2171.37 324.461 2192.6 279.975C2194.25 279.105 2195.87 278.201 2197.47 277.265C2174.28 354.293 2102.79 410.4 2018.2 410.4C1934.62 410.4 1863.84 355.632 1839.78 280.029Z" fill="#04171E" fill-opacity="0.4"/>
<path d="M2106.76 350.947C2080.15 373.085 2045.93 386.398 2008.61 386.398C1938.93 386.398 1880.09 340.008 1861.29 276.431C1891.43 273.704 1919.51 263.832 1943.83 248.522C1955.64 309.31 2009.16 355.2 2073.4 355.2C2084.93 355.2 2096.11 353.723 2106.76 350.947Z" fill="url(#paint8_linear_1_2557)" fill-opacity="0.64"/>
<path d="M2171.81 223.2C2171.81 308.031 2103.04 376.8 2018.21 376.8C1933.38 376.8 1864.61 308.031 1864.61 223.2C1864.61 138.369 1933.38 69.6001 2018.21 69.6001C2103.04 69.6001 2171.81 138.369 2171.81 223.2Z" fill="url(#paint9_radial_1_2557)"/>
<path d="M2161.6 194.358C2161.6 254.005 2113.24 302.358 2053.6 302.358C1993.95 302.358 1945.6 254.005 1945.6 194.358C1945.6 134.711 1993.95 86.3579 2053.6 86.3579C2113.24 86.3579 2161.6 134.711 2161.6 194.358Z" fill="url(#paint10_radial_1_2557)" fill-opacity="0.6"/>
<path d="M2028.28 86.552C2025.87 86.4232 2023.44 86.3579 2021 86.3579C1998.02 86.3579 1976.4 92.1394 1957.49 102.327C1967.6 100.099 1978.11 98.9252 1988.89 98.9252C1999.87 98.9252 2010.57 100.145 2020.86 102.457L2028.28 86.552Z" fill="url(#paint11_linear_1_2557)" fill-opacity="0.64"/>
<path d="M2037.16 107.143C2093.64 127.043 2134.11 180.869 2134.11 244.147C2134.11 270.162 2127.27 294.579 2115.29 315.699C2139.84 291.402 2155.05 257.682 2155.05 220.409C2155.05 154.844 2107.98 100.273 2045.79 88.6453L2037.16 107.143Z" fill="url(#paint12_linear_1_2557)" fill-opacity="0.64"/>
<path d="M2100.29 353.053C2076.55 368.095 2048.39 376.803 2018.21 376.803C1970.37 376.803 1927.63 354.931 1899.46 320.641C1907.23 322.064 1915.23 322.808 1923.41 322.808C1982.78 322.808 2033 283.607 2049.59 229.676C2055.07 230.157 2060.61 230.403 2066.21 230.403C2104.57 230.403 2140.23 218.865 2169.92 199.071C2171.16 206.933 2171.81 214.993 2171.81 223.203C2171.81 228.299 2171.56 233.337 2171.07 238.306C2162.45 284.904 2136.56 325.446 2100.29 353.053Z" fill="url(#paint13_linear_1_2557)" fill-opacity="0.64"/>
<path d="M1838.93 277.263C1862.13 354.295 1933.62 410.404 2018.21 410.404C2121.2 410.404 2204.76 327.237 2205.41 224.398C2195.13 224.334 2185.05 223.441 2175.23 221.784C2152.16 231.954 2126.64 237.6 2099.81 237.6C2090.5 237.6 2081.36 236.921 2072.42 235.61C2055.84 289.572 2005.61 328.802 1946.21 328.802C1904.8 328.802 1867.83 309.726 1843.63 279.88C1842.05 279.039 1840.48 278.166 1838.93 277.263Z" fill="url(#paint14_linear_1_2557)"/>
<path d="M2205.41 224.562C2177.87 240.488 2145.91 249.603 2111.81 249.603C2105.31 249.603 2098.89 249.272 2092.56 248.626C2080.71 309.363 2027.22 355.203 1963.01 355.203C1910.43 355.203 1865.04 324.464 1843.81 279.978C1842.16 279.108 1840.54 278.204 1838.94 277.268C1862.13 354.297 1933.62 410.403 2018.21 410.403C2121.14 410.403 2204.67 327.324 2205.41 224.562Z" fill="url(#paint15_radial_1_2557)"/>
<path d="M2191.76 231.722C2180.48 237.055 2168.59 241.295 2156.21 244.306C2154.61 257.976 2151.52 271.684 2146.86 285.231C2135.49 318.25 2116.13 346.252 2091.7 367.821C2133.48 347.714 2167.53 311.563 2183.81 264.255C2187.52 253.482 2190.15 242.598 2191.76 231.722Z" fill="url(#paint16_linear_1_2557)" fill-opacity="0.64"/>
<path opacity="0.2" fill-rule="evenodd" clip-rule="evenodd" d="M2072.34 235.933C2072.55 235.65 2072.94 235.597 2073.22 235.815C2079.47 240.772 2086.22 245.145 2093.46 248.854C2093.77 249.013 2093.9 249.402 2093.74 249.722C2093.59 250.042 2093.21 250.172 2092.9 250.013C2085.59 246.266 2078.76 241.848 2072.45 236.841C2072.18 236.623 2072.13 236.216 2072.34 235.933Z" fill="url(#paint17_linear_1_2557)"/>
<path d="M156.169 147C164.477 147 172.431 148.414 180.031 151.242C187.632 154.07 194.437 158.047 200.447 163.173C206.456 168.122 211.229 174.221 214.764 181.468C218.299 188.538 220.067 196.315 220.067 204.8C220.067 213.107 218.211 220.796 214.499 227.866C210.964 234.937 206.191 241.035 200.182 246.161C194.172 251.287 187.278 255.352 179.501 258.357C171.9 261.185 164.123 262.599 156.169 262.599H87.7641V336.042H70V147H156.169ZM156.169 247.752C165.714 247.752 174.463 245.1 182.418 239.797C190.372 234.318 196.116 227.071 199.651 218.056C200.182 216.642 200.624 215.14 200.977 213.549C201.507 211.958 201.772 210.191 201.772 208.246C201.772 201.53 200.624 195.343 198.326 189.687C196.205 184.031 193.111 179.17 189.046 175.104C184.981 171.039 180.12 167.857 174.463 165.56C168.984 163.085 162.886 161.848 156.169 161.848H87.7641V247.752H156.169Z" fill="url(#paint18_linear_1_2557)"/>
<path d="M323.145 206.39C314.13 206.39 306.088 207.893 299.018 210.898C292.124 213.726 286.291 217.791 281.519 223.094C276.746 228.397 273.123 234.672 270.648 241.919C268.35 249.166 267.201 257.031 267.201 265.516C267.201 274 268.439 281.866 270.913 289.113C273.388 296.36 277.011 302.723 281.784 308.202C286.556 313.505 292.389 317.747 299.283 320.929C306.176 323.934 314.13 325.436 323.145 325.436C332.336 325.436 340.467 323.934 347.537 320.929C354.608 317.924 360.529 313.77 365.301 308.468C370.251 302.988 373.963 296.625 376.437 289.378C378.912 282.131 380.149 274.265 380.149 265.781C380.149 256.943 378.912 248.9 376.437 241.653C374.139 234.406 370.604 228.22 365.832 223.094C361.059 217.791 355.05 213.726 347.803 210.898C340.732 207.893 332.513 206.39 323.145 206.39ZM323.145 191.543C334.457 191.543 344.621 193.31 353.636 196.846C362.65 200.204 370.251 205.065 376.437 211.428C382.8 217.791 387.661 225.569 391.02 234.76C394.378 243.775 396.057 254.026 396.057 265.516C396.057 276.828 394.378 287.08 391.02 296.271C387.661 305.286 382.8 313.063 376.437 319.603C370.251 326.143 362.65 331.181 353.636 334.716C344.621 338.251 334.457 340.019 323.145 340.019C312.009 340.019 301.934 338.251 292.919 334.716C283.905 331.004 276.216 325.878 269.853 319.338C263.489 312.798 258.54 305.021 255.005 296.006C251.647 286.815 249.967 276.651 249.967 265.516C249.967 254.38 251.647 244.305 255.005 235.29C258.54 226.099 263.489 218.322 269.853 211.958C276.216 205.418 283.905 200.381 292.919 196.846C301.934 193.31 312.009 191.543 323.145 191.543Z" fill="url(#paint19_linear_1_2557)"/>
<path d="M562.503 336.042L524.854 218.322L485.613 336.042H467.849L420.92 195.785H438.419L477.394 312.975L516.369 195.785H533.338L572.578 312.975L611.288 195.785H628.522L582.123 336.042H562.503Z" fill="url(#paint20_linear_1_2557)"/>
<path d="M794.967 269.493C794.79 269.493 792.051 269.493 786.748 269.493C781.622 269.316 774.994 269.228 766.863 269.228C757.318 269.228 746.712 269.228 735.046 269.228C723.557 269.228 712.687 269.316 702.435 269.493C690.415 269.493 678.396 269.581 666.376 269.758V272.939C666.376 279.833 668.055 286.638 671.414 293.355C674.949 300.072 679.191 305.993 684.14 311.119C689.62 316.598 695.718 320.399 702.435 322.52C709.328 324.464 716.399 325.436 723.646 325.436C728.948 325.436 733.986 325.171 738.758 324.641C743.708 323.934 748.392 322.785 752.81 321.194C757.229 319.427 761.295 317.04 765.007 314.035C768.895 311.031 772.254 307.23 775.082 302.635L790.99 308.998C783.213 320.31 773.756 328.353 762.621 333.125C751.485 337.721 739.2 340.019 725.767 340.019C714.454 340.019 704.114 338.34 694.746 334.981C685.378 331.623 677.247 326.762 670.353 320.399C663.636 314.035 658.422 306.258 654.71 297.067C650.998 287.875 649.142 277.447 649.142 265.781C649.142 254.999 651.087 244.658 654.975 234.76C660.632 219.559 669.293 208.6 680.959 201.883C692.801 194.99 706.589 191.543 722.32 191.543C734.516 191.543 745.122 193.399 754.136 197.111C763.328 200.823 770.928 206.125 776.938 213.019C782.948 219.912 787.455 228.132 790.46 237.676C793.465 247.221 794.967 257.827 794.967 269.493ZM775.347 256.501C774.11 248.724 772.165 241.83 769.514 235.82C767.039 229.634 763.681 224.331 759.439 219.912C755.197 215.493 749.982 212.135 743.796 209.837C737.786 207.539 730.627 206.39 722.32 206.39C707.119 206.39 694.657 210.633 684.936 219.117C675.391 227.424 669.381 239.002 666.906 253.85L666.376 257.562L775.347 256.501Z" fill="url(#paint21_linear_1_2557)"/>
<path d="M924.841 208.511C922.012 207.628 919.184 207.097 916.356 206.921C913.705 206.567 910.877 206.39 907.872 206.39C902.216 206.39 896.736 207.009 891.433 208.246C886.131 209.307 881.005 211.34 876.056 214.344C871.283 217.173 867.483 220.708 864.655 224.95C861.827 229.192 859.706 233.699 858.291 238.472C857.054 243.244 856.259 248.193 855.905 253.319C855.552 258.445 855.375 263.395 855.375 268.167V336.042H837.346V195.785H852.724V224.95L858.557 215.935C861.561 211.34 864.92 207.451 868.632 204.269C872.52 201.088 876.763 198.613 881.358 196.846C885.954 194.901 890.815 193.576 895.941 192.868C901.067 191.985 906.281 191.543 911.584 191.543C914.058 191.543 916.268 191.72 918.212 192.073C920.333 192.427 922.543 192.957 924.841 193.664V208.511Z" fill="url(#paint22_linear_1_2557)"/>
<path d="M1095.71 269.493C1095.53 269.493 1092.79 269.493 1087.49 269.493C1082.37 269.316 1075.74 269.228 1067.61 269.228C1058.06 269.228 1047.46 269.228 1035.79 269.228C1024.3 269.228 1013.43 269.316 1003.18 269.493C991.159 269.493 979.139 269.581 967.12 269.758V272.939C967.12 279.833 968.799 286.638 972.157 293.355C975.692 300.072 979.935 305.993 984.884 311.119C990.363 316.598 996.461 320.399 1003.18 322.52C1010.07 324.464 1017.14 325.436 1024.39 325.436C1029.69 325.436 1034.73 325.171 1039.5 324.641C1044.45 323.934 1049.14 322.785 1053.55 321.194C1057.97 319.427 1062.04 317.04 1065.75 314.035C1069.64 311.031 1073 307.23 1075.83 302.635L1091.73 308.998C1083.96 320.31 1074.5 328.353 1063.36 333.125C1052.23 337.721 1039.94 340.019 1026.51 340.019C1015.2 340.019 1004.86 338.34 995.489 334.981C986.121 331.623 977.99 326.762 971.097 320.399C964.38 314.035 959.166 306.258 955.454 297.067C951.742 287.875 949.886 277.447 949.886 265.781C949.886 254.999 951.83 244.658 955.719 234.76C961.375 219.559 970.036 208.6 981.702 201.883C993.545 194.99 1007.33 191.543 1023.06 191.543C1035.26 191.543 1045.86 193.399 1054.88 197.111C1064.07 200.823 1071.67 206.125 1077.68 213.019C1083.69 219.912 1088.2 228.132 1091.2 237.676C1094.21 247.221 1095.71 257.827 1095.71 269.493ZM1076.09 256.501C1074.85 248.724 1072.91 241.83 1070.26 235.82C1067.78 229.634 1064.42 224.331 1060.18 219.912C1055.94 215.493 1050.73 212.135 1044.54 209.837C1038.53 207.539 1031.37 206.39 1023.06 206.39C1007.86 206.39 995.401 210.633 985.679 219.117C976.134 227.424 970.125 239.002 967.65 253.85L967.12 257.562L1076.09 256.501Z" fill="url(#paint23_linear_1_2557)"/>
<path d="M1203.05 205.595C1212.24 205.595 1220.19 207.097 1226.91 210.102C1233.63 213.107 1239.19 217.349 1243.61 222.829C1248.03 228.132 1251.3 234.495 1253.42 241.919C1255.54 249.166 1256.6 257.031 1256.6 265.516C1256.6 274 1255.46 281.954 1253.16 289.378C1251.04 296.802 1247.68 303.253 1243.08 308.733C1238.66 314.035 1233.01 318.278 1226.11 321.459C1219.4 324.464 1211.44 325.967 1202.25 325.967C1193.06 325.967 1184.93 324.376 1177.86 321.194C1170.97 317.836 1165.13 313.417 1160.36 307.937C1155.76 302.281 1152.23 295.741 1149.76 288.317C1147.46 280.894 1146.31 272.939 1146.31 264.455C1146.31 255.794 1147.46 247.84 1149.76 240.593C1152.23 233.346 1155.85 227.159 1160.63 222.033C1165.4 216.907 1171.32 212.93 1178.39 210.102C1185.46 207.097 1193.68 205.595 1203.05 205.595ZM1199.34 340.019C1210.29 340.019 1219.93 338.251 1228.24 334.716C1236.54 331.004 1244.05 324.818 1250.77 316.157L1253.95 311.914V336.042H1271.98V147H1253.95V217.526L1250.77 213.284C1249.71 211.87 1248.74 210.633 1247.86 209.572C1247.15 208.335 1246.35 207.186 1245.47 206.125C1242.82 203.12 1239.55 200.734 1235.66 198.967C1231.95 197.022 1227.97 195.52 1223.73 194.459C1219.66 193.399 1215.42 192.692 1211 192.338C1206.76 191.808 1202.78 191.543 1199.07 191.543C1187.93 191.543 1178.04 193.31 1169.38 196.846C1160.89 200.381 1153.73 205.418 1147.9 211.958C1142.07 218.498 1137.65 226.364 1134.64 235.555C1131.64 244.57 1130.14 254.557 1130.14 265.516C1130.14 276.298 1131.64 286.285 1134.64 295.476C1137.82 304.491 1142.33 312.356 1148.16 319.073C1154 325.613 1161.16 330.739 1169.64 334.451C1178.3 338.163 1188.2 340.019 1199.34 340.019Z" fill="url(#paint24_linear_1_2557)"/>
<path d="M1470.22 340.019C1459.26 340.019 1449.63 338.251 1441.32 334.716C1433.01 331.004 1425.5 324.818 1418.78 316.157L1415.6 311.914V336.042H1397.57V147H1415.6V217.526L1418.78 213.284C1419.84 211.87 1420.73 210.633 1421.43 209.572C1422.32 208.335 1423.2 207.186 1424.08 206.125C1426.74 203.12 1429.92 200.734 1433.63 198.967C1437.52 197.022 1441.49 195.52 1445.56 194.459C1449.8 193.399 1454.04 192.692 1458.29 192.338C1462.71 191.808 1466.77 191.543 1470.48 191.543C1481.8 191.543 1491.69 193.31 1500.18 196.846C1508.84 200.381 1516.09 205.418 1521.92 211.958C1527.75 218.498 1532.08 226.364 1534.91 235.555C1537.92 244.57 1539.42 254.557 1539.42 265.516C1539.42 276.298 1537.83 286.285 1534.65 295.476C1531.64 304.491 1527.22 312.356 1521.39 319.073C1515.56 325.613 1508.31 330.739 1499.65 334.451C1491.16 338.163 1481.35 340.019 1470.22 340.019ZM1466.51 205.595C1457.31 205.595 1449.36 207.097 1442.64 210.102C1435.93 213.107 1430.36 217.349 1425.94 222.829C1421.52 228.132 1418.25 234.495 1416.13 241.919C1414.01 249.166 1412.95 257.031 1412.95 265.516C1412.95 274 1414.1 281.954 1416.4 289.378C1418.69 296.802 1422.05 303.253 1426.47 308.733C1431.07 314.035 1436.72 318.278 1443.44 321.459C1450.33 324.464 1458.29 325.967 1467.3 325.967C1476.49 325.967 1484.54 324.376 1491.43 321.194C1498.5 317.836 1504.33 313.417 1508.93 307.937C1513.7 302.281 1517.24 295.741 1519.53 288.317C1522.01 280.894 1523.25 272.939 1523.25 264.455C1523.25 255.794 1522.01 247.84 1519.53 240.593C1517.24 233.346 1513.7 227.159 1508.93 222.033C1504.16 216.907 1498.23 212.93 1491.16 210.102C1484.09 207.097 1475.87 205.595 1466.51 205.595Z" fill="url(#paint25_linear_1_2557)"/>
<path d="M1633.68 365.737C1630.85 372.454 1628.02 378.022 1625.2 382.44C1622.54 387.036 1619.36 390.66 1615.65 393.311C1611.94 395.962 1607.61 397.907 1602.66 399.144C1597.71 400.381 1591.7 401 1584.63 401V386.418C1587.64 386.418 1590.46 386.329 1593.11 386.152C1595.94 385.976 1598.51 385.445 1600.8 384.562C1603.28 383.855 1605.49 382.617 1607.43 380.85C1609.55 379.259 1611.41 376.961 1613 373.956C1613.88 372.012 1614.68 370.067 1615.39 368.123C1616.27 366.356 1617.15 364.5 1618.04 362.555L1621.22 356.192C1621.75 354.955 1622.19 353.717 1622.55 352.48C1622.9 351.243 1623.34 349.917 1623.87 348.503C1624.05 348.15 1624.49 347.443 1625.2 346.382C1625.37 346.029 1625.55 345.587 1625.73 345.056C1625.9 344.526 1626.08 344.084 1626.26 343.731V342.935L1559.71 195.785H1577.74L1634.48 322.785L1686.71 196.05H1704.21L1633.68 365.737Z" fill="url(#paint26_linear_1_2557)"/>
<defs>
<linearGradient id="paint0_linear_1_2557" x1="2350.75" y1="240.524" x2="3454.31" y2="953.976" gradientUnits="userSpaceOnUse">
<stop stop-color="white"/>
<stop offset="1" stop-color="#E4E4E4"/>
</linearGradient>
<linearGradient id="paint1_linear_1_2557" x1="2350.75" y1="240.524" x2="3454.31" y2="953.976" gradientUnits="userSpaceOnUse">
<stop stop-color="white"/>
<stop offset="1" stop-color="#E4E4E4"/>
</linearGradient>
<linearGradient id="paint2_linear_1_2557" x1="2350.75" y1="240.524" x2="3454.31" y2="953.976" gradientUnits="userSpaceOnUse">
<stop stop-color="white"/>
<stop offset="1" stop-color="#E4E4E4"/>
</linearGradient>
<linearGradient id="paint3_linear_1_2557" x1="2350.75" y1="240.524" x2="3454.31" y2="953.976" gradientUnits="userSpaceOnUse">
<stop stop-color="white"/>
<stop offset="1" stop-color="#E4E4E4"/>
</linearGradient>
<linearGradient id="paint4_linear_1_2557" x1="2350.75" y1="240.524" x2="3454.31" y2="953.976" gradientUnits="userSpaceOnUse">
<stop stop-color="white"/>
<stop offset="1" stop-color="#E4E4E4"/>
</linearGradient>
<linearGradient id="paint5_linear_1_2557" x1="2350.75" y1="240.524" x2="3454.31" y2="953.976" gradientUnits="userSpaceOnUse">
<stop stop-color="white"/>
<stop offset="1" stop-color="#E4E4E4"/>
</linearGradient>
<radialGradient id="paint6_radial_1_2557" cx="0" cy="0" r="1" gradientUnits="userSpaceOnUse" gradientTransform="translate(2197.47 370.86) rotate(179.948) scale(1359.23 3949.41)">
<stop offset="0.104167" stop-color="#24537E"/>
<stop offset="0.520341" stop-color="#4FC1C0"/>
<stop offset="1" stop-color="#DAFFF4"/>
</radialGradient>
<radialGradient id="paint7_radial_1_2557" cx="0" cy="0" r="1" gradientUnits="userSpaceOnUse" gradientTransform="translate(2197.47 370.859) rotate(179.948) scale(1359.23 3949.41)">
<stop offset="0.104167" stop-color="#24537E"/>
<stop offset="0.520341" stop-color="#4FC1C0"/>
<stop offset="1" stop-color="#DAFFF4"/>
</radialGradient>
<linearGradient id="paint8_linear_1_2557" x1="2102.17" y1="412.275" x2="2040.42" y2="91.0499" gradientUnits="userSpaceOnUse">
<stop stop-color="#04171E"/>
<stop offset="1" stop-color="#04171E" stop-opacity="0"/>
</linearGradient>
<radialGradient id="paint9_radial_1_2557" cx="0" cy="0" r="1" gradientUnits="userSpaceOnUse" gradientTransform="translate(1905.8 343.287) rotate(-57.5402) scale(270.579 3920.83)">
<stop offset="0.104167" stop-color="#3A78B1"/>
<stop offset="0.520341" stop-color="#4FC1C0"/>
<stop offset="1" stop-color="#8CF2FD"/>
</radialGradient>
<radialGradient id="paint10_radial_1_2557" cx="0" cy="0" r="1" gradientUnits="userSpaceOnUse" gradientTransform="translate(2161.01 86.4001) rotate(144.267) scale(266.092 264.204)">
<stop offset="0.216485" stop-color="white"/>
<stop offset="0.906332" stop-color="white" stop-opacity="0"/>
</radialGradient>
<linearGradient id="paint11_linear_1_2557" x1="2115.41" y1="146.4" x2="1957.01" y2="215.4" gradientUnits="userSpaceOnUse">
<stop stop-color="white"/>
<stop offset="0.732381" stop-color="white" stop-opacity="0"/>
</linearGradient>
<linearGradient id="paint12_linear_1_2557" x1="2115.41" y1="146.4" x2="1957.01" y2="215.4" gradientUnits="userSpaceOnUse">
<stop stop-color="white"/>
<stop offset="0.732381" stop-color="white" stop-opacity="0"/>
</linearGradient>
<linearGradient id="paint13_linear_1_2557" x1="2409.42" y1="-181.811" x2="1761.58" y2="357.933" gradientUnits="userSpaceOnUse">
<stop stop-color="#04171E"/>
<stop offset="1" stop-color="#04171E" stop-opacity="0"/>
</linearGradient>
<linearGradient id="paint14_linear_1_2557" x1="2137.01" y1="247.8" x2="1894.01" y2="333.6" gradientUnits="userSpaceOnUse">
<stop stop-color="#0E6585"/>
<stop offset="1" stop-color="#04171E"/>
</linearGradient>
<radialGradient id="paint15_radial_1_2557" cx="0" cy="0" r="1" gradientUnits="userSpaceOnUse" gradientTransform="translate(1888.08 390.129) rotate(-38.5632) scale(221.557 3455.6)">
<stop offset="0.104167" stop-color="#3A78B1"/>
<stop offset="0.520341" stop-color="#4FC1C0"/>
<stop offset="1" stop-color="#8CF2FD"/>
</radialGradient>
<linearGradient id="paint16_linear_1_2557" x1="2192.21" y1="231.6" x2="2098.76" y2="373.249" gradientUnits="userSpaceOnUse">
<stop stop-color="white" stop-opacity="0.64"/>
<stop offset="1" stop-color="white" stop-opacity="0"/>
</linearGradient>
<linearGradient id="paint17_linear_1_2557" x1="2093.68" y1="249.398" x2="2063.3" y2="230.618" gradientUnits="userSpaceOnUse">
<stop stop-color="#8CF2FD"/>
<stop offset="1" stop-color="#8CF2FD" stop-opacity="0"/>
</linearGradient>
<linearGradient id="paint18_linear_1_2557" x1="70" y1="274.665" x2="1396.64" y2="1035.53" gradientUnits="userSpaceOnUse">
<stop stop-color="white"/>
<stop offset="1" stop-color="#E4E4E4"/>
</linearGradient>
<linearGradient id="paint19_linear_1_2557" x1="70" y1="274.665" x2="1396.64" y2="1035.53" gradientUnits="userSpaceOnUse">
<stop stop-color="white"/>
<stop offset="1" stop-color="#E4E4E4"/>
</linearGradient>
<linearGradient id="paint20_linear_1_2557" x1="70" y1="274.665" x2="1396.64" y2="1035.53" gradientUnits="userSpaceOnUse">
<stop stop-color="white"/>
<stop offset="1" stop-color="#E4E4E4"/>
</linearGradient>
<linearGradient id="paint21_linear_1_2557" x1="70" y1="274.665" x2="1396.64" y2="1035.53" gradientUnits="userSpaceOnUse">
<stop stop-color="white"/>
<stop offset="1" stop-color="#E4E4E4"/>
</linearGradient>
<linearGradient id="paint22_linear_1_2557" x1="70" y1="274.665" x2="1396.64" y2="1035.53" gradientUnits="userSpaceOnUse">
<stop stop-color="white"/>
<stop offset="1" stop-color="#E4E4E4"/>
</linearGradient>
<linearGradient id="paint23_linear_1_2557" x1="70" y1="274.665" x2="1396.64" y2="1035.53" gradientUnits="userSpaceOnUse">
<stop stop-color="white"/>
<stop offset="1" stop-color="#E4E4E4"/>
</linearGradient>
<linearGradient id="paint24_linear_1_2557" x1="70" y1="274.665" x2="1396.64" y2="1035.53" gradientUnits="userSpaceOnUse">
<stop stop-color="white"/>
<stop offset="1" stop-color="#E4E4E4"/>
</linearGradient>
<linearGradient id="paint25_linear_1_2557" x1="70" y1="274.665" x2="1396.64" y2="1035.53" gradientUnits="userSpaceOnUse">
<stop stop-color="white"/>
<stop offset="1" stop-color="#E4E4E4"/>
</linearGradient>
<linearGradient id="paint26_linear_1_2557" x1="70" y1="274.665" x2="1396.64" y2="1035.53" gradientUnits="userSpaceOnUse">
<stop stop-color="white"/>
<stop offset="1" stop-color="#E4E4E4"/>
</linearGradient>
</defs>
</svg>
