<svg width="136" height="14" viewBox="0 0 136 14" fill="none" xmlns="http://www.w3.org/2000/svg">
<path d="M0 10.0942V2.60733H2.05653C2.8062 2.60733 3.41405 2.78883 3.88006 3.15183C4.35282 3.50785 4.58921 4.05585 4.58921 4.79581V4.8377C4.58921 5.59162 4.35282 6.15009 3.88006 6.51309C3.41405 6.86911 2.8062 7.04712 2.05653 7.04712H0.881371V10.0942H0ZM0.881371 6.32461H2.11732C2.63061 6.32461 3.02233 6.19895 3.29248 5.94764C3.56938 5.68935 3.70784 5.31937 3.70784 4.8377V4.79581C3.70784 3.82548 3.17766 3.34031 2.11732 3.34031H0.881371V6.32461Z" fill="#8F9BB3"/>
<path d="M8.29103 9.46597C8.81783 9.46597 9.23656 9.27749 9.54724 8.90052C9.86467 8.52356 10.0234 8.02443 10.0234 7.40314V7.32984C10.0234 6.69459 9.86467 6.18848 9.54724 5.81152C9.23656 5.43456 8.81783 5.24607 8.29103 5.24607C7.75748 5.24607 7.33537 5.43456 7.02469 5.81152C6.71402 6.18848 6.55868 6.6911 6.55868 7.31937V7.40314C6.55868 8.03141 6.71402 8.53403 7.02469 8.911C7.33537 9.28098 7.75748 9.46597 8.29103 9.46597ZM8.2809 10.1885C7.53123 10.1885 6.90988 9.9267 6.41685 9.40314C5.93058 8.8726 5.68744 8.20593 5.68744 7.40314V7.31937C5.68744 6.50262 5.93058 5.83246 6.41685 5.3089C6.90988 4.78534 7.5346 4.52356 8.29103 4.52356C9.04746 4.52356 9.66881 4.78534 10.1551 5.3089C10.6481 5.82548 10.8946 6.49215 10.8946 7.3089V7.39267C10.8946 8.21641 10.6481 8.89005 10.1551 9.41361C9.66205 9.93019 9.03733 10.1885 8.2809 10.1885Z" fill="#8F9BB3"/>
<path d="M13.5666 10.0942L11.9355 4.6178H12.8473L14.0833 9.02618L15.3699 4.6178H16.0993L17.3048 9.02618L18.5509 4.6178H19.412L17.7607 10.0942H16.8287L15.7244 5.98953L14.4885 10.0942H13.5666Z" fill="#8F9BB3"/>
<path d="M23.0204 10.1885C22.2639 10.1885 21.646 9.93717 21.1664 9.43456C20.6937 8.92496 20.4573 8.25131 20.4573 7.41361V7.32984C20.4573 6.50611 20.6869 5.83246 21.1462 5.3089C21.6122 4.78534 22.2099 4.52356 22.9393 4.52356C23.6147 4.52356 24.1786 4.75044 24.6311 5.20419C25.0904 5.65096 25.32 6.33159 25.32 7.24607V7.5288H21.3285C21.3488 8.15707 21.5008 8.63874 21.7844 8.97382C22.0748 9.30192 22.4902 9.46597 23.0305 9.46597C23.8612 9.46597 24.3306 9.14834 24.4387 8.51309H25.2795C25.1917 9.05061 24.9452 9.46597 24.54 9.75916C24.1347 10.0454 23.6282 10.1885 23.0204 10.1885ZM21.3589 6.82723H24.4589C24.3846 5.77312 23.8781 5.24607 22.9393 5.24607C22.5138 5.24607 22.1626 5.38918 21.8857 5.67539C21.6088 5.95463 21.4332 6.33857 21.3589 6.82723Z" fill="#8F9BB3"/>
<path d="M27.0155 10.0942V4.6178H27.8563V5.60209C28.0387 5.26004 28.2616 4.99826 28.525 4.81675C28.7951 4.63525 29.1531 4.53752 29.5988 4.52356V5.34031C29.018 5.36824 28.5824 5.50785 28.292 5.75916C28.0015 6.01047 27.8563 6.45375 27.8563 7.08901V10.0942H27.0155Z" fill="#8F9BB3"/>
<path d="M33.2492 10.1885C32.4928 10.1885 31.8748 9.93717 31.3953 9.43456C30.9225 8.92496 30.6861 8.25131 30.6861 7.41361V7.32984C30.6861 6.50611 30.9158 5.83246 31.375 5.3089C31.841 4.78534 32.4387 4.52356 33.1682 4.52356C33.8435 4.52356 34.4075 4.75044 34.86 5.20419C35.3192 5.65096 35.5489 6.33159 35.5489 7.24607V7.5288H31.5574C31.5776 8.15707 31.7296 8.63874 32.0133 8.97382C32.3037 9.30192 32.719 9.46597 33.2593 9.46597C34.09 9.46597 34.5594 9.14834 34.6675 8.51309H35.5083C35.4205 9.05061 35.174 9.46597 34.7688 9.75916C34.3636 10.0454 33.857 10.1885 33.2492 10.1885ZM31.5878 6.82723H34.6878C34.6135 5.77312 34.1069 5.24607 33.1682 5.24607C32.7427 5.24607 32.3915 5.38918 32.1146 5.67539C31.8377 5.95463 31.6621 6.33857 31.5878 6.82723Z" fill="#8F9BB3"/>
<path d="M39.2401 10.1885C38.5309 10.1885 37.9535 9.94415 37.5077 9.4555C37.0687 8.96684 36.8492 8.30367 36.8492 7.46597V7.3822C36.8492 6.5445 37.0789 5.86038 37.5381 5.32984C37.9974 4.79232 38.5917 4.52356 39.3211 4.52356C40.1046 4.52356 40.682 4.84817 41.0535 5.49738V2H41.8943V10.0942H41.0535V9.15183C40.8914 9.43107 40.6415 9.67539 40.3038 9.88482C39.9661 10.0873 39.6115 10.1885 39.2401 10.1885ZM39.3313 9.46597C39.8513 9.46597 40.2734 9.29145 40.5976 8.94241C40.9218 8.58639 41.0839 8.06981 41.0839 7.39267V7.3089C41.0839 6.62478 40.9353 6.11169 40.6381 5.76963C40.3477 5.42059 39.9357 5.24607 39.4022 5.24607C38.8754 5.24607 38.4634 5.43106 38.1662 5.80105C37.8691 6.16405 37.7205 6.67714 37.7205 7.34031V7.42408C37.7205 8.08726 37.8691 8.59337 38.1662 8.94241C38.4702 9.29145 38.8585 9.46597 39.3313 9.46597Z" fill="#8F9BB3"/>
<path d="M47.1481 10.0942V2.60733H49.3262C50.8796 2.60733 51.6563 3.25305 51.6563 4.5445V4.58639C51.6563 5.3822 51.2916 5.90925 50.5622 6.16754C51.0822 6.29319 51.4537 6.49913 51.6765 6.78534C51.8994 7.07155 52.0109 7.46248 52.0109 7.95812V8C52.0109 8.6911 51.7981 9.21466 51.3726 9.57068C50.9539 9.91972 50.3731 10.0942 49.6301 10.0942H47.1481ZM48.0092 9.3822H49.6099C50.6365 9.3822 51.1497 8.91798 51.1497 7.98953V7.94764C51.1497 7.47993 51.0147 7.13787 50.7445 6.92147C50.4811 6.69808 50.0624 6.58639 49.4883 6.58639H48.0092V9.3822ZM48.0092 5.87435H49.3262C49.853 5.87435 50.2279 5.77312 50.4507 5.57068C50.6804 5.36126 50.7952 5.02269 50.7952 4.55497V4.51309C50.7952 4.09424 50.6736 3.79058 50.4305 3.60209C50.1941 3.41361 49.8193 3.31937 49.306 3.31937H48.0092V5.87435Z" fill="#8F9BB3"/>
<path d="M54.2213 12L55.2242 9.5288L53.1474 4.6178H54.049L55.6699 8.5445L57.1389 4.6178H58L55.0722 12H54.2213Z" fill="#8F9BB3"/>
<path d="M84.5555 10.5923C84.0533 10.7806 83.5267 10.8748 82.9758 10.8748C82.4178 10.8748 81.9052 10.7841 81.4379 10.6028C80.9776 10.4144 80.5801 10.1529 80.2453 9.81814C79.9175 9.48337 79.663 9.08584 79.4816 8.62553C79.3003 8.15825 79.2096 7.64215 79.2096 7.07722C79.2096 6.49138 79.2933 5.95435 79.4607 5.46615C79.6281 4.97794 79.8722 4.55948 80.193 4.21076C80.5138 3.86205 80.9079 3.59005 81.3752 3.39477C81.8424 3.19948 82.376 3.10184 82.9758 3.10184C83.8755 3.10184 84.6322 3.3041 85.2459 3.70861C85.8597 4.11312 86.2851 4.75825 86.5222 5.64399H85.8004C85.6958 5.29528 85.5528 4.99887 85.3715 4.75476C85.1901 4.50369 84.9739 4.30143 84.7228 4.148C84.4787 3.98759 84.2033 3.87251 83.8964 3.80276C83.5965 3.72605 83.2757 3.68769 82.9339 3.68769C82.4318 3.68769 81.9889 3.77138 81.6053 3.93877C81.2287 4.10615 80.9114 4.33979 80.6533 4.63969C80.3953 4.93261 80.2 5.28133 80.0675 5.68584C79.9419 6.08338 79.8792 6.51579 79.8792 6.98307C79.8792 7.4643 79.9489 7.90717 80.0884 8.31168C80.2279 8.7162 80.4301 9.06491 80.6952 9.35784C80.9602 9.65076 81.288 9.88091 81.6785 10.0483C82.0691 10.2087 82.5189 10.2889 83.0281 10.2889C83.2861 10.2889 83.5407 10.261 83.7918 10.2052C84.0428 10.1494 84.28 10.0657 84.5031 9.95414C84.7263 9.83558 84.9286 9.68912 85.1099 9.51476C85.2913 9.33343 85.4412 9.12071 85.5598 8.87661C85.5946 8.79989 85.626 8.72317 85.6539 8.64645C85.6888 8.56973 85.7237 8.49302 85.7585 8.4163H86.5118C86.3304 8.93938 86.0898 9.38573 85.7899 9.75537C85.49 10.125 85.0785 10.404 84.5555 10.5923Z" fill="white"/>
<path d="M95.442 10.7178L94.5214 8.24891H91.1946L90.2635 10.7178H89.5417L92.3035 3.25877H93.4124L96.1743 10.7178H95.442ZM91.3724 7.72584H94.3854L92.8371 3.74L91.3724 7.72584Z" fill="white"/>
<path d="M104.69 10.7178L103.173 7.81999H100.359V10.7178H99.658V3.25877H103.058C103.386 3.25877 103.7 3.31456 104 3.42615C104.299 3.53774 104.568 3.69466 104.805 3.89692C105.042 4.0922 105.23 4.33282 105.37 4.61876C105.509 4.89774 105.579 5.20461 105.579 5.53938C105.579 5.8881 105.492 6.21938 105.318 6.53322C105.143 6.84707 104.92 7.10512 104.648 7.30738C104.606 7.33527 104.554 7.37015 104.491 7.41199C104.435 7.44686 104.376 7.48174 104.313 7.51661C104.251 7.55148 104.191 7.58286 104.136 7.61076C104.08 7.63866 104.034 7.65261 104 7.65261L103.884 7.66307L105.506 10.7178H104.69ZM100.359 7.23415H103.058C103.435 7.23415 103.78 7.12953 104.094 6.9203C104.408 6.7041 104.634 6.41815 104.774 6.06245C104.795 6.00666 104.812 5.94738 104.826 5.88461C104.847 5.82184 104.857 5.7521 104.857 5.67538C104.857 5.41035 104.812 5.16625 104.721 4.94307C104.638 4.71989 104.516 4.5281 104.355 4.36769C104.195 4.20728 104.003 4.08174 103.78 3.99107C103.564 3.89343 103.323 3.84461 103.058 3.84461H100.359V7.23415Z" fill="white"/>
<path d="M109.132 3.25877H112.177C112.483 3.25877 112.776 3.3041 113.055 3.39477C113.334 3.47846 113.578 3.60748 113.788 3.78184C113.997 3.94923 114.161 4.15846 114.279 4.40953C114.405 4.66061 114.468 4.95005 114.468 5.27784C114.468 5.49404 114.408 5.69979 114.29 5.89507C114.178 6.09035 114.046 6.26471 113.892 6.41815C113.85 6.45999 113.809 6.50184 113.767 6.54368C113.725 6.57856 113.683 6.61692 113.641 6.65876L113.578 6.72153L113.714 6.80522C114.035 6.99353 114.304 7.24112 114.52 7.54799C114.736 7.84789 114.844 8.18963 114.844 8.57322C114.844 8.8243 114.802 9.06491 114.719 9.29507C114.607 9.58102 114.461 9.81814 114.279 10.0064C114.098 10.1878 113.889 10.3308 113.652 10.4354C113.421 10.54 113.17 10.6132 112.898 10.6551C112.626 10.6969 112.347 10.7178 112.061 10.7178H109.132V3.25877ZM109.844 6.5123H112.25C112.438 6.5123 112.619 6.47743 112.794 6.40769C112.975 6.33794 113.132 6.2403 113.264 6.11476C113.404 5.98922 113.512 5.84276 113.589 5.67538C113.673 5.50102 113.714 5.3162 113.714 5.12092C113.714 4.91169 113.673 4.73035 113.589 4.57692C113.505 4.41651 113.394 4.28051 113.254 4.16892C113.122 4.05733 112.965 3.97364 112.783 3.91784C112.609 3.86205 112.431 3.83415 112.25 3.83415H109.844V6.5123ZM109.844 10.132H112.407C112.651 10.132 112.895 10.0936 113.139 10.0169C113.271 9.97507 113.397 9.90881 113.516 9.81814C113.634 9.72748 113.739 9.61937 113.829 9.49384C113.92 9.3683 113.99 9.23579 114.039 9.0963C114.094 8.94984 114.122 8.80686 114.122 8.66737C114.122 8.43722 114.077 8.2245 113.986 8.02922C113.896 7.83394 113.774 7.66656 113.62 7.52707C113.474 7.38758 113.299 7.27948 113.097 7.20276C112.895 7.12604 112.682 7.08768 112.459 7.08768H109.844V10.132Z" fill="white"/>
<path d="M118.445 5.48707C118.57 5.08953 118.745 4.7443 118.968 4.45138C119.191 4.15148 119.453 3.90389 119.753 3.70861C120.053 3.50636 120.384 3.35641 120.746 3.25877C121.116 3.16112 121.503 3.1123 121.908 3.1123C122.507 3.1123 123.045 3.19948 123.519 3.37384C124 3.5482 124.405 3.80277 124.732 4.13753C125.06 4.4723 125.311 4.8803 125.486 5.36153C125.66 5.83579 125.747 6.3763 125.747 6.98307C125.747 7.56891 125.66 8.10245 125.486 8.58368C125.318 9.06491 125.071 9.4764 124.743 9.81814C124.422 10.1529 124.028 10.4144 123.561 10.6028C123.1 10.7841 122.574 10.8748 121.981 10.8748C121.374 10.8748 120.837 10.7771 120.37 10.5818C119.903 10.3796 119.509 10.1006 119.188 9.74491C118.874 9.38922 118.633 8.96378 118.466 8.46861C118.298 7.97343 118.215 7.43291 118.215 6.84707C118.215 6.61692 118.232 6.39025 118.267 6.16707C118.309 5.93692 118.368 5.71025 118.445 5.48707ZM122.033 3.68769C121.733 3.68769 121.423 3.72256 121.102 3.7923C120.788 3.85507 120.502 3.97015 120.244 4.13753C120.014 4.284 119.812 4.46184 119.638 4.67107C119.47 4.87333 119.327 5.09651 119.209 5.34061C119.097 5.57774 119.013 5.82533 118.958 6.08338C118.902 6.34143 118.874 6.59599 118.874 6.84707C118.874 7.30738 118.94 7.74676 119.073 8.16522C119.205 8.58368 119.4 8.94984 119.658 9.26368C119.917 9.57753 120.237 9.8286 120.621 10.0169C121.005 10.1982 121.444 10.2889 121.939 10.2889C122.274 10.2889 122.591 10.2506 122.891 10.1738C123.191 10.0971 123.463 9.97855 123.707 9.81814C123.958 9.65773 124.174 9.45548 124.356 9.21138C124.544 8.96727 124.69 8.67784 124.795 8.34307C124.872 8.09897 124.921 7.85138 124.942 7.6003C124.962 7.34922 124.973 7.10163 124.973 6.85753C124.973 6.39722 124.907 5.97528 124.774 5.59169C124.649 5.20112 124.46 4.86635 124.209 4.58738C123.965 4.30143 123.658 4.08174 123.289 3.9283C122.926 3.76789 122.507 3.68769 122.033 3.68769Z" fill="white"/>
<path d="M135.582 3.25877V10.7178H134.934L130.351 4.36769V10.7178H129.64V3.25877H130.299L134.871 9.60891V3.25877H135.582Z" fill="white"/>
<path d="M68.125 0L64.2909 4.74763H71.9591L68.125 0Z" fill="white"/>
<path d="M64.2909 5.00644L68.125 11.4436L71.9591 5.00644H64.2909Z" fill="white"/>
<path d="M63.9738 4.68305L67.8354 3.67223e-05L62.1382 3.33015L63.9738 4.68305Z" fill="white"/>
<path d="M62 9.86246L62 3.56088L63.909 4.96363L62 9.86246Z" fill="white"/>
<path d="M64.1047 5.27632L62.1085 10.3443L67.9555 11.729L64.1047 5.27632Z" fill="white"/>
<path d="M62.0723 10.6118L67.9957 14V12.0577L62.0723 10.6118Z" fill="white"/>
<path d="M72.2762 4.68305L68.4146 3.67223e-05L74.1118 3.33015L72.2762 4.68305Z" fill="white"/>
<path d="M74.25 3.56088L74.25 9.86246L72.341 4.96363L74.25 3.56088Z" fill="white"/>
<path d="M74.1415 10.3443L72.1453 5.27632L68.2945 11.729L74.1415 10.3443Z" fill="white"/>
<path d="M68.2543 14L74.1777 10.6118L68.2543 12.0577V14Z" fill="white"/>
</svg>
