<svg width="162" height="20" viewBox="0 0 162 20" fill="none" xmlns="http://www.w3.org/2000/svg">
<path d="M103.679 13.864C103.141 14.0659 102.576 14.1668 101.985 14.1668C101.387 14.1668 100.838 14.0696 100.337 13.8752C99.8432 13.6733 99.417 13.3929 99.0581 13.034C98.7067 12.6751 98.4338 12.2489 98.2394 11.7554C98.045 11.2545 97.9478 10.7011 97.9478 10.0955C97.9478 9.46741 98.0375 8.89167 98.2169 8.36826C98.3964 7.84486 98.6581 7.39623 99.002 7.02237C99.346 6.64851 99.7685 6.3569 100.269 6.14754C100.77 5.93818 101.342 5.8335 101.985 5.8335C102.95 5.8335 103.761 6.05033 104.419 6.48401C105.077 6.91769 105.533 7.60933 105.788 8.55893H105.014C104.902 8.18507 104.748 7.86729 104.554 7.60559C104.359 7.33641 104.128 7.11957 103.858 6.95508C103.597 6.7831 103.301 6.65973 102.972 6.58495C102.651 6.5027 102.307 6.46158 101.941 6.46158C101.402 6.46158 100.927 6.55131 100.516 6.73076C100.112 6.91021 99.7722 7.1607 99.4955 7.48222C99.2189 7.79626 99.0095 8.17012 98.8674 8.6038C98.7329 9.03 98.6656 9.49358 98.6656 9.99455C98.6656 10.5105 98.7403 10.9853 98.8899 11.419C99.0394 11.8526 99.2563 12.2265 99.5404 12.5405C99.8245 12.8546 100.176 13.1013 100.595 13.2808C101.013 13.4528 101.496 13.5387 102.042 13.5387C102.318 13.5387 102.591 13.5088 102.86 13.449C103.129 13.3892 103.384 13.2995 103.623 13.1798C103.862 13.0527 104.079 12.8957 104.273 12.7088C104.468 12.5144 104.629 12.2863 104.756 12.0246C104.793 11.9424 104.827 11.8601 104.857 11.7779C104.894 11.6956 104.931 11.6134 104.969 11.5311H105.776C105.582 12.0919 105.324 12.5704 105.002 12.9667C104.681 13.363 104.24 13.6621 103.679 13.864Z" fill="url(#paint0_linear_2959_137919)"/>
<path d="M115.35 13.9986L114.363 11.3517H110.797L109.799 13.9986H109.025L111.986 6.00173H113.175L116.136 13.9986H115.35ZM110.988 10.7909H114.218L112.558 6.51766L110.988 10.7909Z" fill="url(#paint1_linear_2959_137919)"/>
<path d="M125.265 13.9986L123.639 10.8918H120.622V13.9986H119.87V6.00173H123.516C123.867 6.00173 124.203 6.06155 124.525 6.18119C124.846 6.30082 125.134 6.46906 125.389 6.6859C125.643 6.89526 125.845 7.15322 125.994 7.45979C126.144 7.75887 126.219 8.08787 126.219 8.44678C126.219 8.82064 126.125 9.1758 125.938 9.51228C125.751 9.84875 125.512 10.1254 125.22 10.3422C125.175 10.3722 125.119 10.4095 125.052 10.4544C124.992 10.4918 124.929 10.5292 124.861 10.5666C124.794 10.6039 124.731 10.6376 124.671 10.6675C124.611 10.6974 124.562 10.7124 124.525 10.7124L124.402 10.7236L126.14 13.9986H125.265ZM120.622 10.2637H123.516C123.919 10.2637 124.289 10.1516 124.626 9.92726C124.962 9.69547 125.205 9.3889 125.355 9.00756C125.377 8.94775 125.396 8.88419 125.411 8.8169C125.433 8.7496 125.445 8.67483 125.445 8.59258C125.445 8.30845 125.396 8.04675 125.299 7.80747C125.209 7.5682 125.078 7.36258 124.906 7.19061C124.734 7.01863 124.529 6.88404 124.289 6.78684C124.058 6.68216 123.8 6.62982 123.516 6.62982H120.622V10.2637Z" fill="url(#paint2_linear_2959_137919)"/>
<path d="M130.028 6.00173H133.292C133.621 6.00173 133.935 6.05033 134.234 6.14754C134.533 6.23726 134.794 6.37559 135.019 6.56252C135.243 6.74198 135.419 6.96629 135.546 7.23547C135.68 7.50465 135.748 7.81495 135.748 8.16638C135.748 8.39817 135.684 8.61875 135.557 8.82811C135.437 9.03747 135.295 9.2244 135.131 9.3889C135.086 9.43376 135.041 9.47863 134.996 9.52349C134.951 9.56088 134.907 9.602 134.862 9.64687L134.794 9.71416L134.94 9.80389C135.284 10.0058 135.572 10.2712 135.804 10.6002C136.036 10.9217 136.152 11.2881 136.152 11.6994C136.152 11.9685 136.107 12.2265 136.017 12.4732C135.897 12.7798 135.74 13.034 135.546 13.2359C135.351 13.4303 135.127 13.5836 134.873 13.6958C134.626 13.8079 134.357 13.8864 134.065 13.9313C133.774 13.9762 133.475 13.9986 133.168 13.9986H130.028V6.00173ZM130.79 9.48984H133.37C133.572 9.48984 133.766 9.45246 133.953 9.37769C134.148 9.30291 134.316 9.19823 134.458 9.06364C134.607 8.92905 134.723 8.77203 134.806 8.59258C134.895 8.40565 134.94 8.2075 134.94 7.99814C134.94 7.77383 134.895 7.57942 134.806 7.41492C134.716 7.24295 134.596 7.09714 134.447 6.97751C134.305 6.85787 134.136 6.76815 133.942 6.70833C133.755 6.64851 133.564 6.6186 133.37 6.6186H130.79V9.48984ZM130.79 13.3705H133.538C133.8 13.3705 134.062 13.3294 134.323 13.2471C134.465 13.2023 134.6 13.1312 134.727 13.034C134.854 12.9368 134.966 12.8209 135.064 12.6863C135.161 12.5518 135.236 12.4097 135.288 12.2601C135.348 12.1031 135.378 11.9498 135.378 11.8003C135.378 11.5535 135.329 11.3255 135.232 11.1161C135.135 10.9068 135.004 10.7273 134.839 10.5778C134.682 10.4282 134.495 10.3123 134.278 10.2301C134.062 10.1478 133.834 10.1067 133.594 10.1067H130.79V13.3705Z" fill="url(#paint3_linear_2959_137919)"/>
<path d="M140.012 8.3907C140.146 7.9645 140.333 7.59438 140.573 7.28033C140.812 6.95881 141.092 6.69337 141.414 6.48401C141.735 6.26717 142.091 6.10641 142.479 6.00173C142.876 5.89705 143.291 5.84471 143.724 5.84471C144.367 5.84471 144.943 5.93818 145.452 6.12511C145.967 6.31204 146.401 6.58495 146.753 6.94386C147.104 7.30277 147.373 7.74018 147.56 8.25611C147.747 8.76456 147.84 9.34404 147.84 9.99455C147.84 10.6226 147.747 11.1946 147.56 11.7106C147.381 12.2265 147.115 12.6677 146.764 13.034C146.42 13.3929 145.997 13.6733 145.496 13.8752C145.003 14.0696 144.438 14.1668 143.803 14.1668C143.152 14.1668 142.577 14.0621 142.076 13.8528C141.575 13.6359 141.152 13.3369 140.808 12.9555C140.472 12.5742 140.214 12.1181 140.034 11.5872C139.855 11.0563 139.765 10.4768 139.765 9.84875C139.765 9.602 139.784 9.35899 139.821 9.11972C139.866 8.87298 139.93 8.62997 140.012 8.3907ZM143.859 6.46158C143.537 6.46158 143.205 6.49897 142.861 6.57374C142.524 6.64103 142.218 6.76441 141.941 6.94386C141.694 7.10088 141.477 7.29155 141.29 7.51586C141.111 7.7327 140.958 7.97197 140.831 8.23368C140.711 8.4879 140.621 8.75334 140.561 9.03C140.502 9.30665 140.472 9.57957 140.472 9.84875C140.472 10.3422 140.543 10.8133 140.685 11.2619C140.827 11.7106 141.036 12.1031 141.313 12.4396C141.59 12.7761 141.934 13.0452 142.345 13.2471C142.756 13.4415 143.227 13.5387 143.758 13.5387C144.117 13.5387 144.457 13.4976 144.779 13.4154C145.1 13.3331 145.392 13.206 145.653 13.034C145.923 12.8621 146.154 12.6452 146.349 12.3835C146.551 12.1218 146.708 11.8115 146.82 11.4526C146.902 11.1909 146.954 10.9255 146.977 10.6563C146.999 10.3871 147.011 10.1217 147.011 9.85997C147.011 9.36647 146.939 8.9141 146.797 8.50285C146.663 8.08413 146.461 7.72523 146.192 7.42614C145.93 7.11957 145.601 6.88404 145.205 6.71954C144.816 6.54757 144.367 6.46158 143.859 6.46158Z" fill="url(#paint4_linear_2959_137919)"/>
<path d="M158.385 6.00173V13.9986H157.689L152.777 7.19061V13.9986H152.014V6.00173H152.721L157.622 12.8097V6.00173H158.385Z" fill="url(#paint5_linear_2959_137919)"/>
<path d="M77.692 9.2999C77.692 5.76528 80.5573 2.8999 84.092 2.8999C87.6266 2.8999 90.492 5.76528 90.492 9.2999V9.30216C89.5685 9.68725 88.5551 9.8999 87.4921 9.8999C87.1044 9.8999 86.7232 9.87161 86.3507 9.81698C85.6601 12.0654 83.567 13.6999 81.0922 13.6999C80.3997 13.6999 79.7371 13.5719 79.1267 13.3383C78.2297 12.2368 77.692 10.8311 77.692 9.2999Z" fill="url(#paint6_linear_2959_137919)"/>
<path d="M87.9921 10.4C89.4127 10.4 90.7446 10.0202 91.8919 9.35664C91.8614 13.6384 88.381 17.1 84.0921 17.1C80.5675 17.1 77.5889 14.7623 76.6223 11.5528C76.6891 11.5918 76.7568 11.6294 76.8254 11.6657C77.7099 13.5193 79.6014 14.8 81.7921 14.8C84.4673 14.8 86.6964 12.89 87.1902 10.3593C87.4538 10.3862 87.7213 10.4 87.9921 10.4Z" fill="url(#paint7_linear_2959_137919)"/>
<path d="M6.50713 6.125C6.85328 6.125 7.1847 6.18392 7.50139 6.30176C7.81808 6.4196 8.10162 6.58531 8.35203 6.79889C8.60244 7.0051 8.80129 7.25919 8.94859 7.56115C9.09588 7.85575 9.16953 8.1798 9.16953 8.53332C9.16953 8.87947 9.0922 9.19984 8.93754 9.49443C8.79024 9.78903 8.59139 10.0431 8.34098 10.2567C8.09058 10.4703 7.80335 10.6397 7.47929 10.7649C7.1626 10.8827 6.83855 10.9416 6.50713 10.9416H3.65692V14.0017H2.91675V6.125H6.50713ZM6.50713 10.323C6.90483 10.323 7.26939 10.2125 7.60081 9.99156C7.93223 9.76325 8.17159 9.46129 8.31889 9.08568C8.34098 9.02676 8.35939 8.96416 8.37412 8.89788C8.39622 8.83159 8.40727 8.75795 8.40727 8.67693C8.40727 8.39707 8.3594 8.1393 8.26365 7.90362C8.17527 7.66794 8.04639 7.46541 7.877 7.29602C7.7076 7.12662 7.50507 6.99406 7.26939 6.89831C7.04108 6.7952 6.78699 6.74365 6.50713 6.74365H3.65692V10.323H6.50713Z" fill="url(#paint8_linear_2959_137919)"/>
<path d="M13.4645 8.5996C13.0888 8.5996 12.7537 8.6622 12.4591 8.7874C12.1719 8.90524 11.9289 9.07463 11.73 9.29558C11.5312 9.51653 11.3802 9.77798 11.2771 10.0799C11.1813 10.3819 11.1335 10.7096 11.1335 11.0632C11.1335 11.4167 11.185 11.7444 11.2881 12.0464C11.3912 12.3483 11.5422 12.6135 11.7411 12.8418C11.9399 13.0627 12.183 13.2395 12.4702 13.372C12.7574 13.4972 13.0888 13.5598 13.4645 13.5598C13.8474 13.5598 14.1862 13.4972 14.4808 13.372C14.7754 13.2468 15.0221 13.0738 15.221 12.8528C15.4272 12.6245 15.5819 12.3594 15.685 12.0574C15.7881 11.7555 15.8396 11.4277 15.8396 11.0742C15.8396 10.706 15.7881 10.3709 15.685 10.0689C15.5892 9.76693 15.4419 9.50916 15.2431 9.29558C15.0442 9.07463 14.7938 8.90524 14.4919 8.7874C14.1973 8.6622 13.8548 8.5996 13.4645 8.5996ZM13.4645 7.98095C13.9358 7.98095 14.3593 8.0546 14.7349 8.2019C15.1105 8.34183 15.4272 8.54436 15.685 8.8095C15.9501 9.07463 16.1526 9.39869 16.2926 9.78166C16.4325 10.1573 16.5025 10.5844 16.5025 11.0632C16.5025 11.5345 16.4325 11.9617 16.2926 12.3446C16.1526 12.7203 15.9501 13.0443 15.685 13.3168C15.4272 13.5893 15.1105 13.7992 14.7349 13.9465C14.3593 14.0938 13.9358 14.1674 13.4645 14.1674C13.0005 14.1674 12.5807 14.0938 12.2051 13.9465C11.8294 13.7918 11.5091 13.5783 11.2439 13.3058C10.9788 13.0333 10.7726 12.7092 10.6253 12.3336C10.4854 11.9506 10.4154 11.5271 10.4154 11.0632C10.4154 10.5992 10.4854 10.1794 10.6253 9.80376C10.7726 9.42078 10.9788 9.09673 11.2439 8.83159C11.5091 8.55909 11.8294 8.34919 12.2051 8.2019C12.5807 8.0546 13.0005 7.98095 13.4645 7.98095Z" fill="url(#paint9_linear_2959_137919)"/>
<path d="M23.4377 14.0017L21.869 9.09673L20.234 14.0017H19.4938L17.5384 8.15771H18.2676L19.8915 13.0406L21.5155 8.15771H22.2225L23.8575 13.0406L25.4704 8.15771H26.1885L24.2552 14.0017H23.4377Z" fill="url(#paint10_linear_2959_137919)"/>
<path d="M33.1237 11.2289C33.1163 11.2289 33.0022 11.2289 32.7812 11.2289C32.5677 11.2215 32.2915 11.2178 31.9527 11.2178C31.555 11.2178 31.1131 11.2178 30.627 11.2178C30.1483 11.2178 29.6954 11.2215 29.2682 11.2289C28.7674 11.2289 28.2666 11.2325 27.7658 11.2399V11.3725C27.7658 11.6597 27.8357 11.9433 27.9757 12.2231C28.123 12.503 28.2997 12.7497 28.5059 12.9633C28.7342 13.1916 28.9883 13.3499 29.2682 13.4383C29.5554 13.5193 29.85 13.5598 30.152 13.5598C30.3729 13.5598 30.5828 13.5488 30.7817 13.5267C30.9879 13.4972 31.1831 13.4494 31.3672 13.3831C31.5513 13.3094 31.7207 13.21 31.8754 13.0848C32.0374 12.9596 32.1773 12.8013 32.2952 12.6098L32.958 12.8749C32.6339 13.3463 32.2399 13.6814 31.7759 13.8802C31.312 14.0717 30.8001 14.1674 30.2404 14.1674C29.769 14.1674 29.3382 14.0975 28.9478 13.9576C28.5575 13.8176 28.2187 13.6151 27.9315 13.3499C27.6516 13.0848 27.4343 12.7608 27.2797 12.3778C27.125 11.9948 27.0477 11.5603 27.0477 11.0742C27.0477 10.6249 27.1287 10.1941 27.2907 9.78166C27.5264 9.14828 27.8873 8.69166 28.3734 8.4118C28.8668 8.12457 29.4413 7.98095 30.0967 7.98095C30.6049 7.98095 31.0468 8.05828 31.4224 8.21294C31.8054 8.36761 32.1221 8.58855 32.3725 8.87578C32.6229 9.16301 32.8107 9.50548 32.9359 9.90318C33.0611 10.3009 33.1237 10.7428 33.1237 11.2289ZM32.3062 10.6875C32.2547 10.3635 32.1736 10.0763 32.0632 9.82585C31.9601 9.56808 31.8201 9.34714 31.6434 9.16301C31.4666 8.97889 31.2493 8.83896 30.9916 8.74321C30.7412 8.64747 30.4429 8.5996 30.0967 8.5996C29.4634 8.5996 28.9441 8.77636 28.5391 9.12987C28.1414 9.47602 27.891 9.95842 27.7879 10.5771L27.7658 10.7317L32.3062 10.6875Z" fill="url(#paint11_linear_2959_137919)"/>
<path d="M38.5351 8.68798C38.4173 8.65115 38.2994 8.62906 38.1816 8.62169C38.0711 8.60697 37.9533 8.5996 37.8281 8.5996C37.5924 8.5996 37.3641 8.62538 37.1431 8.67693C36.9222 8.72112 36.7086 8.80582 36.5024 8.93102C36.3035 9.04886 36.1452 9.19616 36.0274 9.37291C35.9095 9.54967 35.8211 9.73747 35.7622 9.93633C35.7107 10.1352 35.6775 10.3414 35.6628 10.555C35.6481 10.7686 35.6407 10.9748 35.6407 11.1736V14.0017H34.8895V8.15771H35.5302V9.37291L35.7733 8.9973C35.8985 8.80582 36.0384 8.64379 36.1931 8.51122C36.3551 8.37865 36.5319 8.27555 36.7233 8.2019C36.9148 8.12088 37.1174 8.06565 37.3309 8.03619C37.5445 7.99936 37.7618 7.98095 37.9827 7.98095C38.0858 7.98095 38.1779 7.98831 38.2589 8.00304C38.3473 8.01777 38.4394 8.03987 38.5351 8.06933V8.68798Z" fill="url(#paint12_linear_2959_137919)"/>
<path d="M45.6547 11.2289C45.6473 11.2289 45.5332 11.2289 45.3122 11.2289C45.0986 11.2215 44.8225 11.2178 44.4837 11.2178C44.086 11.2178 43.6441 11.2178 43.158 11.2178C42.6793 11.2178 42.2263 11.2215 41.7992 11.2289C41.2984 11.2289 40.7976 11.2325 40.2967 11.2399V11.3725C40.2967 11.6597 40.3667 11.9433 40.5066 12.2231C40.6539 12.503 40.8307 12.7497 41.0369 12.9633C41.2652 13.1916 41.5193 13.3499 41.7992 13.4383C42.0864 13.5193 42.381 13.5598 42.683 13.5598C42.9039 13.5598 43.1138 13.5488 43.3127 13.5267C43.5189 13.4972 43.714 13.4494 43.8982 13.3831C44.0823 13.3094 44.2517 13.21 44.4063 13.0848C44.5684 12.9596 44.7083 12.8013 44.8261 12.6098L45.489 12.8749C45.1649 13.3463 44.7709 13.6814 44.3069 13.8802C43.8429 14.0717 43.3311 14.1674 42.7713 14.1674C42.3 14.1674 41.8691 14.0975 41.4788 13.9576C41.0885 13.8176 40.7497 13.6151 40.4624 13.3499C40.1826 13.0848 39.9653 12.7608 39.8107 12.3778C39.656 11.9948 39.5787 11.5603 39.5787 11.0742C39.5787 10.6249 39.6597 10.1941 39.8217 9.78166C40.0574 9.14828 40.4183 8.69166 40.9043 8.4118C41.3978 8.12457 41.9722 7.98095 42.6277 7.98095C43.1359 7.98095 43.5778 8.05828 43.9534 8.21294C44.3364 8.36761 44.6531 8.58855 44.9035 8.87578C45.1539 9.16301 45.3417 9.50548 45.4669 9.90318C45.5921 10.3009 45.6547 10.7428 45.6547 11.2289ZM44.8372 10.6875C44.7856 10.3635 44.7046 10.0763 44.5941 9.82585C44.491 9.56808 44.3511 9.34714 44.1743 9.16301C43.9976 8.97889 43.7803 8.83896 43.5226 8.74321C43.2722 8.64747 42.9739 8.5996 42.6277 8.5996C41.9943 8.5996 41.4751 8.77636 41.07 9.12987C40.6723 9.47602 40.4219 9.95842 40.3188 10.5771L40.2967 10.7317L44.8372 10.6875Z" fill="url(#paint13_linear_2959_137919)"/>
<path d="M50.1271 8.56646C50.51 8.56646 50.8414 8.62906 51.1213 8.75426C51.4012 8.87947 51.6332 9.05622 51.8173 9.28453C52.0014 9.50548 52.1377 9.77062 52.226 10.0799C52.3144 10.3819 52.3586 10.7096 52.3586 11.0632C52.3586 11.4167 52.3107 11.7481 52.215 12.0574C52.1266 12.3667 51.9867 12.6356 51.7952 12.8639C51.6111 13.0848 51.3754 13.2616 51.0882 13.3941C50.8083 13.5193 50.4769 13.5819 50.0939 13.5819C49.7109 13.5819 49.3722 13.5157 49.0776 13.3831C48.7903 13.2432 48.5473 13.059 48.3484 12.8307C48.157 12.595 48.0097 12.3225 47.9065 12.0132C47.8108 11.7039 47.7629 11.3725 47.7629 11.019C47.7629 10.6581 47.8108 10.3267 47.9065 10.0247C48.0097 9.72274 48.1606 9.46497 48.3595 9.25139C48.5583 9.03781 48.8051 8.8721 49.0997 8.75426C49.3942 8.62906 49.7367 8.56646 50.1271 8.56646ZM49.9724 14.1674C50.429 14.1674 50.8304 14.0938 51.1765 13.9465C51.5227 13.7918 51.8357 13.5341 52.1156 13.1732L52.2481 12.9964V14.0017H52.9994V6.125H52.2481V9.06359L52.1156 8.88683C52.0714 8.82791 52.0309 8.77636 51.9941 8.73217C51.9646 8.68061 51.9314 8.63274 51.8946 8.58855C51.7842 8.46335 51.6479 8.36392 51.4859 8.29028C51.3312 8.20926 51.1655 8.14666 50.9887 8.10247C50.8194 8.05828 50.6426 8.02882 50.4585 8.01409C50.2817 7.992 50.116 7.98095 49.9613 7.98095C49.4974 7.98095 49.0849 8.0546 48.724 8.2019C48.3705 8.34919 48.0723 8.55909 47.8292 8.83159C47.5862 9.10409 47.4021 9.43183 47.2768 9.81481C47.1516 10.1904 47.089 10.6065 47.089 11.0632C47.089 11.5124 47.1516 11.9285 47.2768 12.3115C47.4094 12.6871 47.5972 13.0148 47.8403 13.2947C48.0833 13.5672 48.3816 13.7808 48.7351 13.9355C49.096 14.0901 49.5084 14.1674 49.9724 14.1674Z" fill="url(#paint14_linear_2959_137919)"/>
<path d="M61.2592 14.1674C60.8025 14.1674 60.4012 14.0938 60.055 13.9465C59.7089 13.7918 59.3959 13.5341 59.116 13.1732L58.9834 12.9964V14.0017H58.2322V6.125H58.9834V9.06359L59.116 8.88683C59.1602 8.82791 59.197 8.77636 59.2265 8.73217C59.2633 8.68061 59.3001 8.63274 59.3369 8.58855C59.4474 8.46335 59.58 8.36392 59.7346 8.29028C59.8967 8.20926 60.0624 8.14666 60.2318 8.10247C60.4085 8.05828 60.5853 8.02882 60.762 8.01409C60.9462 7.992 61.1156 7.98095 61.2702 7.98095C61.7416 7.98095 62.154 8.0546 62.5075 8.2019C62.8684 8.34919 63.1704 8.55909 63.4134 8.83159C63.6564 9.10409 63.8369 9.43183 63.9547 9.81481C64.0799 10.1904 64.1425 10.6065 64.1425 11.0632C64.1425 11.5124 64.0762 11.9285 63.9437 12.3115C63.8185 12.6871 63.6343 13.0148 63.3913 13.2947C63.1483 13.5672 62.8463 13.7808 62.4854 13.9355C62.1319 14.0901 61.7232 14.1674 61.2592 14.1674ZM61.1045 8.56646C60.7215 8.56646 60.3901 8.62906 60.1102 8.75426C59.8304 8.87947 59.5984 9.05622 59.4143 9.28453C59.2301 9.50548 59.0939 9.77062 59.0055 10.0799C58.9171 10.3819 58.8729 10.7096 58.8729 11.0632C58.8729 11.4167 58.9208 11.7481 59.0166 12.0574C59.1123 12.3667 59.2522 12.6356 59.4364 12.8639C59.6278 13.0848 59.8635 13.2616 60.1434 13.3941C60.4306 13.5193 60.762 13.5819 61.1376 13.5819C61.5206 13.5819 61.8557 13.5157 62.143 13.3831C62.4375 13.2432 62.6806 13.059 62.8721 12.8307C63.0709 12.595 63.2182 12.3225 63.314 12.0132C63.4171 11.7039 63.4686 11.3725 63.4686 11.019C63.4686 10.6581 63.4171 10.3267 63.314 10.0247C63.2182 9.72274 63.0709 9.46497 62.8721 9.25139C62.6732 9.03781 62.4265 8.8721 62.1319 8.75426C61.8373 8.62906 61.4948 8.56646 61.1045 8.56646Z" fill="url(#paint15_linear_2959_137919)"/>
<path d="M68.0701 15.239C67.9523 15.5189 67.8344 15.7509 67.7166 15.935C67.6061 16.1265 67.4736 16.2775 67.3189 16.388C67.1642 16.4984 66.9838 16.5794 66.7776 16.631C66.5714 16.6826 66.321 16.7083 66.0264 16.7083V16.1007C66.1516 16.1007 66.2694 16.097 66.3799 16.0897C66.4977 16.0823 66.6045 16.0602 66.7002 16.0234C66.8034 15.9939 66.8954 15.9424 66.9764 15.8687C67.0648 15.8025 67.1421 15.7067 67.2084 15.5815C67.2453 15.5005 67.2784 15.4195 67.3079 15.3385C67.3447 15.2648 67.3815 15.1875 67.4183 15.1065L67.5509 14.8413C67.573 14.7898 67.5914 14.7382 67.6061 14.6867C67.6209 14.6351 67.6393 14.5799 67.6614 14.521C67.6687 14.5062 67.6871 14.4768 67.7166 14.4326C67.724 14.4179 67.7313 14.3994 67.7387 14.3773C67.7461 14.3553 67.7534 14.3368 67.7608 14.3221V14.289L64.9879 8.15771H65.7391L68.1033 13.4494L70.2796 8.16875H71.0087L68.0701 15.239Z" fill="url(#paint16_linear_2959_137919)"/>
<defs>
<linearGradient id="paint0_linear_2959_137919" x1="97.9478" y1="10.022" x2="143.93" y2="39.7492" gradientUnits="userSpaceOnUse">
<stop stop-color="white"/>
<stop offset="1" stop-color="#E4E4E4"/>
</linearGradient>
<linearGradient id="paint1_linear_2959_137919" x1="97.9478" y1="10.022" x2="143.93" y2="39.7492" gradientUnits="userSpaceOnUse">
<stop stop-color="white"/>
<stop offset="1" stop-color="#E4E4E4"/>
</linearGradient>
<linearGradient id="paint2_linear_2959_137919" x1="97.9478" y1="10.022" x2="143.93" y2="39.7492" gradientUnits="userSpaceOnUse">
<stop stop-color="white"/>
<stop offset="1" stop-color="#E4E4E4"/>
</linearGradient>
<linearGradient id="paint3_linear_2959_137919" x1="97.9478" y1="10.022" x2="143.93" y2="39.7492" gradientUnits="userSpaceOnUse">
<stop stop-color="white"/>
<stop offset="1" stop-color="#E4E4E4"/>
</linearGradient>
<linearGradient id="paint4_linear_2959_137919" x1="97.9478" y1="10.022" x2="143.93" y2="39.7492" gradientUnits="userSpaceOnUse">
<stop stop-color="white"/>
<stop offset="1" stop-color="#E4E4E4"/>
</linearGradient>
<linearGradient id="paint5_linear_2959_137919" x1="97.9478" y1="10.022" x2="143.93" y2="39.7492" gradientUnits="userSpaceOnUse">
<stop stop-color="white"/>
<stop offset="1" stop-color="#E4E4E4"/>
</linearGradient>
<linearGradient id="paint6_linear_2959_137919" x1="76.6223" y1="10.0371" x2="92.9454" y2="11.6018" gradientUnits="userSpaceOnUse">
<stop stop-color="white"/>
<stop offset="1" stop-color="#E4E4E4"/>
</linearGradient>
<linearGradient id="paint7_linear_2959_137919" x1="76.6223" y1="10.0371" x2="92.9454" y2="11.6018" gradientUnits="userSpaceOnUse">
<stop stop-color="white"/>
<stop offset="1" stop-color="#E4E4E4"/>
</linearGradient>
<linearGradient id="paint8_linear_2959_137919" x1="2.91675" y1="11.4444" x2="58.1932" y2="43.147" gradientUnits="userSpaceOnUse">
<stop stop-color="white"/>
<stop offset="1" stop-color="#E4E4E4"/>
</linearGradient>
<linearGradient id="paint9_linear_2959_137919" x1="2.91675" y1="11.4444" x2="58.1932" y2="43.147" gradientUnits="userSpaceOnUse">
<stop stop-color="white"/>
<stop offset="1" stop-color="#E4E4E4"/>
</linearGradient>
<linearGradient id="paint10_linear_2959_137919" x1="2.91675" y1="11.4444" x2="58.1932" y2="43.147" gradientUnits="userSpaceOnUse">
<stop stop-color="white"/>
<stop offset="1" stop-color="#E4E4E4"/>
</linearGradient>
<linearGradient id="paint11_linear_2959_137919" x1="2.91675" y1="11.4444" x2="58.1932" y2="43.147" gradientUnits="userSpaceOnUse">
<stop stop-color="white"/>
<stop offset="1" stop-color="#E4E4E4"/>
</linearGradient>
<linearGradient id="paint12_linear_2959_137919" x1="2.91675" y1="11.4444" x2="58.1932" y2="43.147" gradientUnits="userSpaceOnUse">
<stop stop-color="white"/>
<stop offset="1" stop-color="#E4E4E4"/>
</linearGradient>
<linearGradient id="paint13_linear_2959_137919" x1="2.91675" y1="11.4444" x2="58.1932" y2="43.147" gradientUnits="userSpaceOnUse">
<stop stop-color="white"/>
<stop offset="1" stop-color="#E4E4E4"/>
</linearGradient>
<linearGradient id="paint14_linear_2959_137919" x1="2.91675" y1="11.4444" x2="58.1932" y2="43.147" gradientUnits="userSpaceOnUse">
<stop stop-color="white"/>
<stop offset="1" stop-color="#E4E4E4"/>
</linearGradient>
<linearGradient id="paint15_linear_2959_137919" x1="2.91675" y1="11.4444" x2="58.1932" y2="43.147" gradientUnits="userSpaceOnUse">
<stop stop-color="white"/>
<stop offset="1" stop-color="#E4E4E4"/>
</linearGradient>
<linearGradient id="paint16_linear_2959_137919" x1="2.91675" y1="11.4444" x2="58.1932" y2="43.147" gradientUnits="userSpaceOnUse">
<stop stop-color="white"/>
<stop offset="1" stop-color="#E4E4E4"/>
</linearGradient>
</defs>
</svg>
