<svg width="24" height="24" viewBox="0 0 24 24" fill="none" xmlns="http://www.w3.org/2000/svg">
<path d="M12.0177 21C16.9244 21 20.9037 17.9694 20.9037 14.2292C20.9037 13.8543 20.8658 13.4615 20.773 13.1089C22.8765 11.9663 22.1009 8.65899 19.7698 8.65899C19.1375 8.65899 18.581 8.93573 18.1722 9.36867C16.6673 8.26623 14.6397 7.55655 12.3929 7.48067L13.5605 1.91049L17.2785 2.79421C17.2785 3.75831 18.0204 4.54383 18.931 4.54383C19.8583 4.54383 20.6044 3.73599 20.6044 2.77189C20.6044 1.80784 19.8625 1 18.931 1C18.2818 1 17.7211 1.41508 17.4429 1.98192L13.3371 1.01783C13.1306 0.959813 12.9282 1.11603 12.8735 1.33475L11.592 7.47622C9.36205 7.57442 7.35551 8.28406 5.84641 9.3865C5.43751 8.93573 4.86 8.65899 4.22769 8.65899C1.88396 8.65899 1.11675 11.9886 3.2624 13.1267C3.18653 13.4794 3.15277 13.8543 3.15277 14.2292C3.15277 17.9694 7.1321 21 12.0177 21ZM8.33768 15.1129C7.4103 15.1174 6.66421 14.3274 6.66421 13.3633C6.66421 12.3814 7.4061 11.5914 8.33768 11.5914C9.24823 11.5914 9.99012 12.3769 9.99012 13.3633C9.99012 14.3274 9.24823 15.1129 8.33768 15.1129ZM15.664 15.1174C14.7535 15.1174 14.0116 14.3318 14.0116 13.3678C14.0116 12.3858 14.7535 11.5958 15.664 11.5958C16.5914 11.5958 17.3375 12.3814 17.3375 13.3678C17.3333 14.3274 16.5914 15.1174 15.664 15.1174ZM8.29977 17.5365C8.13115 17.3803 8.13115 17.1036 8.29977 16.925C8.44731 16.7688 8.70867 16.7688 8.85621 16.925C10.0281 18.1971 13.9147 18.2194 15.1371 16.925C15.2847 16.7688 15.546 16.7688 15.6935 16.925C15.8664 17.1036 15.8664 17.3803 15.6978 17.5365C14.1633 19.1611 9.83414 19.1611 8.29977 17.5365Z" fill="#A4A5A8"/>
</svg>
