<svg width="115" height="28" viewBox="0 0 115 28" fill="none" xmlns="http://www.w3.org/2000/svg">
<g clip-path="url(#clip0_7930_143935)">
<path d="M38.9614 15.2234L36.5911 14.8034C34.4161 14.4013 33.0999 13.1784 33.0999 11.1101C33.0999 8.45355 34.9309 7.11572 38.0411 7.11572C41.1309 7.11572 42.9564 8.4727 42.9564 11.1675V11.4165H40.6981V11.1716C40.6981 9.79548 39.7628 9.08827 38.0466 9.08827C36.3099 9.08827 35.432 9.69973 35.432 10.961C35.432 11.9363 36.1146 12.5286 37.1496 12.7201L39.5143 13.1401C41.7795 13.56 43.0083 14.7843 43.0083 16.8102C43.0083 19.546 41.12 20.8811 38.0302 20.8811C34.9404 20.8811 33.0508 19.5241 33.0508 16.8293V16.5804H35.3214V16.8252C35.3214 18.2014 36.3126 18.8894 38.0302 18.8894C39.7478 18.8894 40.6817 18.3149 40.6817 16.9743C40.679 15.9881 39.9922 15.4149 38.9614 15.2234Z" fill="white"/>
<path d="M55.9408 20.6897C52.7555 20.6897 50.7334 19.0072 50.7334 15.8541V12.1265C50.7334 8.9926 52.7555 7.31006 55.9791 7.31006H59.8894V9.27987H55.9791C54.129 9.27987 53.0026 10.2921 53.0026 12.1265V13.0061H58.935V14.9745H53.0026V15.8541C53.0026 17.7076 54.129 18.7021 55.9408 18.7021H59.8894V20.6897H55.9408Z" fill="white"/>
<path d="M67.6162 7.31006H72.9206C75.4574 7.31006 77.3457 8.64925 77.3457 11.3058C77.3457 12.9678 76.7354 14.1716 75.6854 14.8418C76.8501 15.415 77.4795 16.5996 77.4795 18.2439V20.6897H75.1516V17.9374C75.1516 16.6188 74.4839 15.9307 73.1868 15.9307H69.8868V20.6897H67.6162V7.31006ZM72.8441 13.9623C74.1603 13.9623 74.9986 13.3125 74.9986 11.6108C74.9986 9.90911 74.1603 9.28534 72.8441 9.28534H69.8868V13.9677L72.8441 13.9623Z" fill="white"/>
<path d="M95.3924 7.31006V16.1414C95.3924 19.237 93.3894 20.8812 90.2232 20.8812C87.0938 20.8812 85.0908 19.2397 85.0908 16.1414V7.31006H87.3614V16.1414C87.3614 17.9374 88.4673 18.8936 90.2286 18.8936C92.0213 18.8936 93.1273 17.9361 93.1273 16.1414V7.31006H95.3924Z" fill="white"/>
<path d="M112.677 11.7832L109.034 18.6638L105.39 11.7832V20.6897H103.119V7.31006H105.313L109.034 14.3439L112.753 7.31006H114.947V20.6897H112.677V11.7832Z" fill="white"/>
<path d="M9.1479 4.21594C9.28444 4.05999 9.67083 3.63047 10.0873 3.17495C10.3535 2.88358 10.643 2.56622 10.8368 2.35419L11.6165 3.30353L10.9802 3.99433C10.5924 4.41976 10.1897 4.86023 10.0777 4.99565C7.23641 8.40041 4.29272 11.9201 4.29272 15.8556C4.29272 18.3178 5.29762 20.4641 7.12309 21.9059C8.62497 23.0933 10.6006 23.7485 12.6855 23.7485C14.7704 23.7485 16.7433 23.0933 18.2466 21.9059C20.0721 20.4641 21.077 18.3151 21.077 15.8556C21.077 11.9201 18.136 8.40041 15.292 4.99565C15.18 4.85886 14.7786 4.41976 14.3895 3.99433L13.7546 3.29806L14.5342 2.34872C14.7281 2.56622 15.0189 2.88358 15.2838 3.16948C15.6934 3.62499 16.0921 4.05452 16.2231 4.21046C19.2051 7.78074 22.2894 11.4728 22.2894 15.8501C22.2894 18.6899 21.1206 21.1768 18.9975 22.8552C17.2813 24.2109 15.038 24.9577 12.6855 24.9577C10.333 24.9577 8.08839 24.2122 6.37215 22.8607C4.24903 21.1823 3.08029 18.6954 3.08029 15.8556C3.08029 11.4782 6.16462 7.78621 9.1479 4.21594ZM11.469 6.16523L11.8786 5.68372L12.224 5.27334L12.691 4.70976L13.1566 5.27334L13.502 5.68372L13.9034 6.16523C14.5055 6.88612 15.1117 7.61249 15.6893 8.34296L15.8572 8.55635C17.4656 10.6082 18.82 12.7066 19.1737 14.8078C19.1982 14.9528 19.2174 15.0978 19.2324 15.2428C19.2324 15.2934 19.2392 15.3454 19.2433 15.3973C19.2556 15.5505 19.2638 15.7024 19.2638 15.8556C19.2654 16.3151 19.2196 16.7735 19.1272 17.2235C19.0764 17.4658 19.0107 17.7047 18.9306 17.9389C18.5875 18.9397 17.9608 19.8187 17.127 20.4682C16.3527 21.0688 15.4565 21.4923 14.5014 21.7089C14.3649 21.7418 14.2174 21.7705 14.0741 21.7965L13.9212 21.8211C13.7846 21.843 13.6372 21.8621 13.4924 21.8758C12.9627 21.9305 12.4288 21.9305 11.8991 21.8758C11.7352 21.8608 11.5728 21.8389 11.413 21.8129L11.3407 21.8006C10.2195 21.6186 9.16101 21.1603 8.26043 20.4669C7.42665 19.8173 6.7999 18.9384 6.4568 17.9376C6.37355 17.7081 6.30424 17.4737 6.24927 17.2358C6.15689 16.7858 6.11113 16.3274 6.11273 15.8679C6.11273 15.7147 6.11273 15.5629 6.13185 15.4096C6.13185 15.3577 6.13867 15.3057 6.14277 15.2551C6.15779 15.1101 6.1769 14.9651 6.20148 14.8201C6.55374 12.7066 7.90953 10.6137 9.51791 8.55635L9.68585 8.34433C10.2634 7.61249 10.8696 6.88612 11.469 6.16523ZM12.6855 20.7103C14.0386 20.7103 15.3507 20.3 16.3023 19.5709L16.3692 19.5216C17.1303 18.9252 17.6674 18.0882 17.893 17.1469C17.9093 17.0826 17.9244 17.0183 17.9367 16.9527C17.9748 16.7751 18.0035 16.5957 18.0227 16.4151C18.0404 16.2318 18.0486 16.0444 18.0486 15.8529C18.0486 15.7352 18.0486 15.6176 18.0336 15.4986C18.0092 15.1641 17.9544 14.8326 17.8698 14.5082C17.7518 14.0567 17.5946 13.6163 17.4001 13.1922C17.3919 13.1731 17.3837 13.1526 17.3741 13.1334C17.1994 12.7586 17.0057 12.3929 16.7939 12.0377L16.7816 12.0158C16.2751 11.1702 15.7165 10.357 15.109 9.58093C15.064 9.52211 15.0175 9.46329 14.9725 9.4031C14.7722 9.14593 14.5683 8.88922 14.3608 8.63296L14.1751 8.40451L14.1314 8.3498L14.0277 8.22395C13.7983 7.94352 13.5648 7.6631 13.3327 7.38404L12.9709 6.94494C12.8767 6.8314 12.7825 6.71923 12.6896 6.6057L12.407 6.94494L12.0343 7.38678C11.8021 7.66036 11.5687 7.94626 11.3393 8.22668L11.2355 8.35253C11.2219 8.37168 11.2068 8.38947 11.1918 8.40725L11.0061 8.63569C10.1172 9.70288 9.30766 10.834 8.58401 12.0199L8.57173 12.0418C8.35873 12.4084 8.16212 12.7737 7.99964 13.1362C7.99009 13.1553 7.98326 13.1758 7.9737 13.195C7.78103 13.6193 7.6257 14.0596 7.50948 14.5109C7.42552 14.8355 7.37068 15.1669 7.34564 15.5013C7.33608 15.6203 7.33062 15.7379 7.33062 15.8556C7.32998 16.0433 7.3391 16.231 7.35793 16.4178C7.3747 16.5975 7.4016 16.776 7.43849 16.9527C7.45077 17.0183 7.46579 17.0826 7.48218 17.1469C7.70832 18.088 8.24529 18.9248 9.00591 19.5216L9.07281 19.5709C10.019 20.2959 11.3325 20.7103 12.6855 20.7103ZM18.5483 2.26665C18.4254 2.12028 18.0568 1.71948 17.4642 1.08613C17.0819 0.675754 16.6573 0.2175 16.4621 0L15.6838 0.94797C15.8818 1.16684 16.1822 1.49514 16.5768 1.91372C17.0137 2.38292 17.5079 2.91504 17.6172 3.04636C20.6605 6.68914 24.1094 10.8175 24.1094 15.8556C24.1094 19.2645 22.6935 22.2602 20.1239 24.2916C18.0896 25.9002 15.4463 26.7853 12.6855 26.7853C9.92479 26.7853 7.28147 25.9002 5.24574 24.2916C2.67615 22.2602 1.26165 19.2645 1.26165 15.8556C1.26165 10.8175 4.70915 6.69051 7.75252 3.04636C7.86174 2.90957 8.356 2.38292 8.79291 1.91372C9.1875 1.48967 9.48787 1.16684 9.68585 0.94797L8.9076 0C8.71236 0.2175 8.28773 0.674386 7.90544 1.08613C7.31287 1.72221 6.94969 2.12028 6.82135 2.26665C3.64691 6.06674 0.0478516 10.3757 0.0478516 15.8556C0.0478516 19.6447 1.62756 22.9797 4.49479 25.245C6.74352 27.0233 9.65172 28 12.6869 28C15.7221 28 18.6289 27.0219 20.879 25.245C23.7462 22.9797 25.3246 19.6447 25.3246 15.8556C25.3218 10.3757 21.7228 6.06674 18.5483 2.26665Z" fill="white"/>
</g>
<defs>
<clipPath id="clip0_7930_143935">
<rect width="114.947" height="28" fill="white"/>
</clipPath>
</defs>
</svg>
