<svg width="96" height="14" viewBox="0 0 96 14" fill="none" xmlns="http://www.w3.org/2000/svg">
<g clip-path="url(#clip0_32570_4656)">
<path d="M7.01367 11H3.51367V5.5H0.0136719V2H7.01367V11ZM14.0137 11H10.0137L13.7637 2H17.7637L14.0137 11Z" fill="white"/>
<path d="M10.0137 6C11.1182 6 12.0137 5.10457 12.0137 4C12.0137 2.89543 11.1182 2 10.0137 2C8.9091 2 8.01367 2.89543 8.01367 4C8.01367 5.10457 8.9091 6 10.0137 6Z" fill="white"/>
</g>
<g clip-path="url(#clip1_32570_4656)">
<path d="M24.4102 11.012H26.2612V3.75948H28.6827V2.00998H22.0137V3.75998H24.4102V11.012ZM28.6852 11.012H30.4222V7.98198C30.4222 6.92948 30.9672 6.29548 31.7922 6.29548C32.0832 6.29548 32.3117 6.34598 32.5777 6.43498V4.67248C32.3883 4.61772 32.1917 4.59209 31.9947 4.59648C31.2847 4.59648 30.6382 5.06548 30.4222 5.68648V4.67298H28.6852V11.012ZM35.9117 11.1515C36.7867 11.1515 37.4457 10.7075 37.7377 10.3015V11.0115H39.4747V4.67298H37.7377V5.38298C37.4457 4.97748 36.7867 4.53348 35.9117 4.53348C34.2257 4.53348 32.9322 6.05498 32.9322 7.84248C32.9322 9.63048 34.2257 11.152 35.9122 11.152L35.9117 11.1515ZM36.2797 9.56647C35.3157 9.56647 34.6817 8.84398 34.6817 7.84248C34.6817 6.84048 35.3157 6.11748 36.2797 6.11748C37.2432 6.11748 37.8772 6.84048 37.8772 7.84248C37.8772 8.84398 37.2432 9.56647 36.2797 9.56647ZM43.6102 11.1515C44.4852 11.1515 45.1442 10.7075 45.4357 10.3015V11.0115H47.1727V1.50348H45.4357V5.38348C45.1442 4.97748 44.4852 4.53348 43.6102 4.53348C41.9237 4.53348 40.6302 6.05498 40.6302 7.84248C40.6302 9.63048 41.9237 11.152 43.6102 11.152V11.1515ZM43.9777 9.56647C43.0142 9.56647 42.3802 8.84398 42.3802 7.84248C42.3802 6.84048 43.0142 6.11748 43.9777 6.11748C44.9412 6.11748 45.5752 6.84048 45.5752 7.84248C45.5752 8.84398 44.9412 9.56647 43.9777 9.56647ZM49.5967 3.70598C49.7425 3.70723 49.8871 3.67965 50.0222 3.62482C50.1573 3.57 50.2803 3.489 50.384 3.3865C50.4877 3.284 50.5701 3.16201 50.6265 3.02755C50.683 2.89308 50.7122 2.74879 50.7127 2.60298C50.7122 2.45716 50.683 2.31287 50.6265 2.17841C50.5701 2.04394 50.4877 1.92195 50.384 1.81945C50.2803 1.71695 50.1573 1.63596 50.0222 1.58113C49.8871 1.5263 49.7425 1.49872 49.5967 1.49998C49.3049 1.50233 49.0257 1.61929 48.8193 1.82564C48.613 2.03198 48.496 2.31117 48.4937 2.60298C48.496 2.89478 48.613 3.17397 48.8193 3.38032C49.0257 3.58666 49.3049 3.70362 49.5967 3.70598ZM48.7347 11.012H50.4717V4.74498H48.7347V11.012ZM52.0127 11.012H53.7497V7.91848C53.7497 6.70098 54.3457 6.11798 55.1572 6.11798C55.8797 6.11798 56.2732 6.67598 56.2732 7.58848V11.012H58.0102V7.29698C58.0102 5.64898 57.0972 4.53298 55.5632 4.53298C54.7387 4.53298 54.0922 4.88798 53.7497 5.39498V4.67248H52.0127V11.012ZM62.4302 9.32498C61.5552 9.32498 60.8202 8.66548 60.8202 7.70198C60.8202 6.72598 61.5552 6.07898 62.4302 6.07898C63.3052 6.07898 64.0402 6.72598 64.0402 7.70198C64.0402 8.66548 63.3052 9.32498 62.4302 9.32498ZM62.2272 13.75C64.1672 13.75 65.6382 12.761 65.6382 10.4785V4.63398H63.9012V5.34398C63.5587 4.84998 62.8737 4.49498 62.0627 4.49498C60.4017 4.49498 59.0702 5.91498 59.0702 7.70248C59.0702 9.47748 60.4017 10.8975 62.0627 10.8975C62.8742 10.8975 63.5587 10.53 63.9012 10.061V10.492C63.9012 11.5065 63.2292 12.229 62.2022 12.229C61.4922 12.229 60.7822 11.988 60.2242 11.443L59.2732 12.736C59.9957 13.4335 61.1242 13.75 62.2272 13.75ZM69.3107 11.012H70.9457L74.6737 2.00998H72.6452L70.1347 8.26048L67.5862 2.00998H65.5957L69.3107 11.012ZM76.2677 3.63298C76.4135 3.63416 76.558 3.60653 76.6931 3.55168C76.8281 3.49682 76.951 3.41582 77.0547 3.31332C77.1583 3.21083 77.2407 3.08886 77.2971 2.95443C77.3535 2.82 77.3827 2.67575 77.3832 2.52998C77.3827 2.3842 77.3535 2.23996 77.2971 2.10553C77.2407 1.97109 77.1583 1.84913 77.0547 1.74663C76.951 1.64414 76.8281 1.56313 76.6931 1.50828C76.558 1.45342 76.4135 1.42579 76.2677 1.42698C75.6717 1.42698 75.1642 1.92098 75.1642 2.52998C75.1642 3.13848 75.6717 3.63298 76.2677 3.63298ZM75.4052 11.012H77.1422V4.67248H75.4052V11.012ZM81.6377 11.1515C82.9687 11.1515 83.9832 10.5935 84.5792 9.73147L83.2857 8.76798C82.9942 9.21148 82.4492 9.56647 81.6502 9.56647C80.8137 9.56647 80.0657 9.09748 79.9642 8.24798H84.7057C84.7437 7.98148 84.7312 7.80398 84.7312 7.65198C84.7312 5.58548 83.2732 4.53298 81.6122 4.53298C79.6852 4.53298 78.2777 5.96548 78.2777 7.84198C78.2777 9.84548 79.7487 11.1515 81.6377 11.1515ZM80.0272 7.06898C80.1922 6.29548 80.9147 5.96548 81.5617 5.96548C82.2082 5.96548 82.8422 6.30798 82.9942 7.06898H80.0272ZM91.2387 11.012H92.9632L95.0552 4.67248H93.1912L91.9997 8.72948L90.7062 4.67248H89.3752L88.0947 8.72948L86.8902 4.67248H85.0387L87.1437 11.012H88.8677L90.0472 7.41098L91.2387 11.012Z" fill="white"/>
</g>
<defs>
<clipPath id="clip0_32570_4656">
<rect width="18" height="14" fill="white" transform="translate(0.0136719)"/>
</clipPath>
<clipPath id="clip1_32570_4656">
<rect width="73.5" height="14" fill="white" transform="translate(22.0137)"/>
</clipPath>
</defs>
</svg>
