<svg width="138" height="36" viewBox="0 0 138 36" fill="none" xmlns="http://www.w3.org/2000/svg">
<path fill-rule="evenodd" clip-rule="evenodd" d="M11.1479 13.3706C11.0971 13.5636 11.0084 13.7449 10.8868 13.9041C10.6605 14.1945 10.361 14.421 10.0183 14.5608C9.71002 14.6922 9.38364 14.7771 9.04994 14.8127C8.98132 14.8213 8.91022 14.8266 8.84137 14.8317H8.84132L8.83003 14.8326C8.61868 14.8406 8.41546 14.9152 8.25009 15.0456C8.08477 15.176 7.96595 15.3553 7.91114 15.5573C7.88604 15.6578 7.86738 15.7597 7.85527 15.8626C7.83607 16.0176 7.82619 16.1763 7.81549 16.3481C7.80781 16.4713 7.79972 16.6012 7.78747 16.7413C7.71569 17.3116 7.54882 17.8663 7.29366 18.3827C7.2415 18.4912 7.18837 18.5964 7.13616 18.6999H7.13611C6.85636 19.2538 6.60358 19.7542 6.67619 20.4245C6.73297 20.9409 7.00047 21.2869 7.35597 21.6438C7.52477 21.8145 7.74865 21.9604 7.98104 22.1118C8.63139 22.5357 9.34844 23.0029 9.11221 24.1802C8.91891 25.1341 7.31931 26.1351 5.07105 26.4847C5.28918 26.452 4.80881 25.6416 4.75546 25.5516L4.75226 25.5462C4.69026 25.4503 4.62676 25.3557 4.56339 25.2613L4.56337 25.2613C4.38034 24.9886 4.19819 24.7174 4.05598 24.4167C3.68036 23.6313 3.50628 22.7227 3.6602 21.8621C3.79963 21.0832 4.32039 20.461 4.82179 19.862L4.82184 19.8619C4.90358 19.7643 4.98478 19.6673 5.06374 19.5703C5.73438 18.7468 6.43799 17.668 6.59371 16.599C6.60683 16.5062 6.61858 16.4049 6.63092 16.2984C6.65301 16.1077 6.67705 15.9 6.71463 15.6932C6.77055 15.3359 6.88375 14.9897 7.04998 14.6677C7.16341 14.4565 7.31277 14.2663 7.49153 14.1052C7.58475 14.0197 7.64624 13.9057 7.66618 13.7815C7.68611 13.6574 7.66334 13.5302 7.60148 13.4204L4.0175 7.0467L9.16533 13.328C9.22399 13.4007 9.2981 13.4599 9.3824 13.5012C9.46675 13.5424 9.55924 13.5649 9.65329 13.5669C9.74738 13.5689 9.84073 13.5504 9.92678 13.5127C10.0128 13.475 10.0894 13.4191 10.1511 13.3488C10.2164 13.2736 10.2533 13.1785 10.2558 13.0794C10.2583 12.9804 10.2262 12.8836 10.1649 12.8053C9.92554 12.5029 9.67647 12.1963 9.42853 11.8912L9.42844 11.8911L9.42812 11.8907C9.32791 11.7673 9.22783 11.6442 9.12871 11.5217L7.83328 9.93642L5.23322 6.7713L0.0175781 0.450195L5.56673 6.4878L8.3344 9.51338L9.71505 11.0298C9.84188 11.171 9.96875 11.311 10.0956 11.451C10.4268 11.8165 10.758 12.182 11.0893 12.5698L11.1644 12.6604L11.1809 12.8008C11.2032 12.9912 11.1921 13.1839 11.1479 13.3706ZM24.3792 15.5009L24.3847 15.5091C24.3838 14.8333 23.9605 13.7182 23.1039 12.6456L23.0838 12.6194C22.8199 12.2969 22.5323 11.9941 22.2235 11.7135C22.1658 11.6583 22.1035 11.6039 22.0402 11.5495C21.6445 11.2083 21.2119 10.9112 20.7503 10.6636L20.7173 10.6473C19.267 9.86645 17.3798 9.46424 15.0527 9.91716C14.7402 9.542 14.4036 9.18708 14.045 8.85458C13.4958 8.33712 12.8493 7.93122 12.1421 7.65974C11.4413 7.40612 10.6908 7.31557 9.94886 7.39522C10.664 7.4589 11.3606 7.65559 12.002 7.97501C12.6213 8.3031 13.1791 8.73388 13.6511 9.24864C14.1294 9.77406 14.5789 10.3244 14.9978 10.8973C15.0327 10.9422 15.0676 10.9871 15.1026 11.0321L15.1027 11.0323L15.1028 11.0324L15.1028 11.0325L15.1029 11.0326C15.5128 11.5605 15.93 12.0978 16.4499 12.5759C16.7361 12.8421 17.0553 13.0713 17.3999 13.258C17.4916 13.3042 17.5841 13.3477 17.6748 13.3857C17.7655 13.4238 17.8507 13.4591 17.9423 13.4917C18.1191 13.5596 18.3023 13.6158 18.4856 13.6675C19.2185 13.874 19.9688 13.9483 20.7017 13.9881C20.8038 13.9934 20.9056 13.9984 21.007 14.0033H21.0071H21.0072H21.0073C21.269 14.0161 21.5283 14.0287 21.7837 14.047C22.1339 14.0676 22.4812 14.1216 22.8208 14.2082C23.331 14.3398 23.7802 14.6403 24.0933 15.0598C24.1998 15.1994 24.2953 15.3469 24.3792 15.5009ZM81.6577 11.1443C79.2497 11.7415 78.1209 13.6 78.8053 15.8407C79.0988 16.8009 80.0008 17.7694 81.2764 18.4938C83.5751 19.7992 84.2522 20.3279 84.6454 21.1244C84.9732 21.7888 85.0015 22.011 84.836 22.6132C84.4479 24.027 83.4343 24.8068 81.9845 24.8068C80.5046 24.8068 79.4655 23.9896 79.2332 22.6436C79.1404 22.1023 79.0256 21.9295 78.7596 21.9295C78.4423 21.9295 78.4094 22.0726 78.4094 23.4437V24.9576L79.3717 25.2795C80.875 25.782 83.0128 25.7219 84.2888 25.1414C86.774 24.0105 87.7268 21.7656 86.6113 19.6681C86.1939 18.8835 85.1469 18.0077 83.3534 16.9427C81.4679 15.8233 80.6281 15.009 80.5046 14.1814C80.3154 12.9097 81.4775 11.8571 83.0658 11.8616C84.3098 11.865 84.8438 12.1549 85.285 13.0663C85.5611 13.6369 85.7586 13.8255 86.0855 13.8306C86.4471 13.836 86.5011 13.7696 86.4087 13.4324C86.3479 13.21 86.2972 12.6522 86.2958 12.1929C86.294 11.6097 86.2085 11.3259 86.0119 11.252C85.4761 11.0502 82.3485 10.9729 81.6577 11.1443ZM33.3046 11.6791C33.3046 11.9378 33.4269 12.0387 33.7406 12.0387C34.6259 12.0387 34.6734 12.2901 34.7714 17.5056C34.8571 22.062 34.8888 22.4259 35.2588 23.0984C35.7889 24.0618 36.5078 24.7028 37.6134 25.1983C38.3708 25.5376 38.849 25.6096 40.3637 25.6126C42.0069 25.6157 42.3063 25.5635 43.2478 25.11C43.8255 24.8318 44.5452 24.3102 44.847 23.9511C45.8934 22.7062 46.004 22.1045 46.1229 17.0223C46.2372 12.1283 46.2527 12.0488 47.1017 12.0414C47.2997 12.0398 47.4227 11.9006 47.4227 11.6791C47.4227 11.3394 47.3006 11.3194 45.2225 11.3194C43.1686 11.3194 43.0223 11.3426 43.0223 11.6678C43.0223 11.9285 43.1708 12.0301 43.614 12.0723C44.5877 12.165 44.6668 12.5333 44.6697 16.9964C44.6728 21.5211 44.5158 22.3917 43.5314 23.3079C42.6161 24.1601 41.8877 24.4472 40.6405 24.4472C38.8492 24.4472 37.5797 23.6264 37.1634 22.1992C37.0233 21.7193 36.9718 19.9542 37.0085 16.8942L37.0634 12.3085L37.7051 12.1055C38.058 11.9938 38.3734 11.7713 38.406 11.6109C38.4585 11.3532 38.1664 11.3194 35.885 11.3194C33.4269 11.3194 33.3046 11.3365 33.3046 11.6791ZM50.3564 11.6791C50.3564 11.9575 50.4785 12.0387 50.8977 12.0387C51.8313 12.0387 52.3571 12.3919 52.5683 13.1607C52.6885 13.5979 52.7402 15.6857 52.705 18.6697C52.6419 23.9975 52.5678 24.3461 51.4482 24.5657C51.0793 24.6381 50.9064 24.7794 50.9064 25.0091C50.9064 25.3227 51.0857 25.3463 53.4735 25.3463C55.8189 25.3463 56.0402 25.3186 56.0402 25.0238C56.0402 24.7944 55.8052 24.6399 55.2246 24.4876C54.5036 24.2984 54.387 24.1952 54.2174 23.5962C53.9998 22.8274 53.9481 14.728 54.1607 14.7513C54.2366 14.7596 54.9475 15.5082 55.7412 16.4148C56.5348 17.3213 58.706 19.7017 60.5663 21.7047C63.4777 24.8395 64.0222 25.3463 64.4798 25.3463H65.0111L65.0636 18.9711C65.1011 14.4446 65.1779 12.5356 65.3284 12.388C65.4449 12.2736 65.8162 12.1247 66.1536 12.0571C66.5111 11.9854 66.7662 11.8248 66.7662 11.6717C66.7662 11.457 66.309 11.4003 64.2453 11.3593C61.8181 11.3111 61.7244 11.3228 61.7244 11.6741C61.7244 11.9409 61.8441 12.0387 62.1724 12.0387C62.4188 12.0387 62.8518 12.2338 63.1348 12.4725L63.6496 12.9062L63.7072 17.238C63.7401 19.6837 63.6939 21.5699 63.602 21.5699C63.5129 21.5699 62.9528 21.0237 62.358 20.3559C61.7637 19.6882 60.0703 17.8473 58.5949 16.2648C57.12 14.6823 55.5085 12.9287 55.0142 12.3682L54.115 11.3489L52.2359 11.3342C50.4735 11.3203 50.3564 11.3419 50.3564 11.6791ZM69.6081 11.6791C69.6081 11.9533 69.7306 12.0387 70.1233 12.0387C70.4068 12.0387 70.7986 12.1535 70.9943 12.2937C71.3303 12.5345 71.3536 12.8449 71.4076 17.8236C71.4752 24.0404 71.4194 24.3888 70.3345 24.5589C69.7882 24.6448 69.6081 24.7564 69.6081 25.0096C69.6081 25.3236 69.7932 25.3463 72.3585 25.3463C74.9864 25.3463 75.1089 25.3303 75.1089 24.9866C75.1089 24.7307 74.9864 24.6269 74.6856 24.6269C74.4524 24.6269 74.1022 24.5122 73.9061 24.372C73.5691 24.1303 73.5476 23.8194 73.4974 18.4447C73.4457 12.939 73.4548 12.7619 73.8178 12.4056C74.0236 12.2038 74.3985 12.0387 74.6504 12.0387C74.9864 12.0387 75.1089 11.9429 75.1089 11.6791C75.1089 11.3354 74.9864 11.3194 72.3585 11.3194C69.7306 11.3194 69.6081 11.3354 69.6081 11.6791ZM88.8071 11.6791C88.8666 11.9019 89.0572 12.0387 89.3082 12.0387C89.5309 12.0387 89.8934 12.227 90.1142 12.4574C90.3382 12.6912 91.5919 15.6474 92.9547 19.1561L95.3947 25.4362L96.0343 25.49L96.6739 25.5437L98.3879 21.0841C99.3306 18.6314 100.201 16.4304 100.322 16.193C100.529 15.7866 100.576 15.8485 101.126 17.2721C101.448 18.1029 102.304 20.2999 103.028 22.1543L104.345 25.5261H104.926C105.245 25.5261 105.548 25.4186 105.6 25.2871C105.651 25.1559 106.493 23.0315 107.472 20.5665C108.45 18.1018 109.534 15.371 109.88 14.4985C110.668 12.5115 110.826 12.2662 111.455 12.0513C111.734 11.9558 111.963 11.7521 111.963 11.5985C111.963 11.3619 111.628 11.3194 109.762 11.3194C107.684 11.3194 107.562 11.3394 107.562 11.6791C107.562 11.9396 107.684 12.0387 108.005 12.0387C108.718 12.0387 109.029 12.2286 109.029 12.6644C109.029 13.028 105.536 22.3576 105.322 22.5686C105.189 22.6982 102.036 14.0316 101.922 13.2253C101.811 12.4419 102.151 12.0387 102.922 12.0387C103.223 12.0387 103.345 11.935 103.345 11.6791C103.345 11.3349 103.223 11.3194 100.503 11.3194C97.7835 11.3194 97.661 11.3349 97.661 11.6791C97.661 11.8841 97.7835 12.0387 97.9454 12.0387C98.5178 12.0387 99.2767 12.5811 99.4714 13.1299C99.7517 13.9174 99.5373 14.7159 97.8887 19.0336L96.4883 22.7017L96.187 22.0008C96.0211 21.6155 95.1574 19.3413 94.2682 16.9474C92.5213 12.2445 92.4957 12.0387 93.6496 12.0387C94.0552 12.0387 94.1772 11.9555 94.1772 11.6791C94.1772 11.3354 94.0552 11.3194 91.4442 11.3194C88.8016 11.3194 88.7143 11.3313 88.8071 11.6791ZM125.939 11.8009C125.939 11.8009 125.939 12.0464 125.97 12.1147C126.001 12.183 126.198 12.2087 126.198 12.2087C126.32 12.241 126.437 12.2694 126.546 12.2962C127.101 12.4313 127.49 12.5262 127.646 12.8842C127.751 13.1261 127.757 13.9672 127.758 18.4762C127.76 23.2308 127.759 23.8134 127.63 24.1275C127.469 24.5172 127.162 24.7241 126.455 24.9197C126.455 24.9197 126.141 25.0054 126.057 25.0821C125.973 25.1588 125.957 25.33 125.957 25.33C125.957 25.33 125.95 25.489 126.022 25.5653C126.095 25.6416 126.287 25.6052 126.287 25.6052L128.122 25.6101L131.165 25.6342C131.165 25.6342 131.29 25.6504 131.354 25.5694C131.419 25.4884 131.403 25.3296 131.403 25.3296C131.403 25.3296 131.403 25.1598 131.322 25.0833C131.242 25.0068 130.931 24.9351 130.931 24.9351C130.244 24.7686 129.891 24.5516 129.735 24.1993C129.619 23.9375 129.607 23.2306 129.589 21.7585V19.6001C129.666 19.6427 129.736 19.6908 129.81 19.7417L129.81 19.7418V19.7419V19.742L129.811 19.7422C130.161 19.9838 130.601 20.2864 132.242 20.3331C134.23 20.3897 135.425 19.5191 136.137 18.5078C136.848 17.4966 137.124 15.9078 136.602 14.2153C136.081 12.5229 134.549 11.4987 132.397 11.3928C131.275 11.3376 129.642 11.3921 128.73 11.4328H128.73L128.618 11.4378L128.474 11.4441C127.646 11.4797 126.652 11.5577 126.157 11.6041L126.156 11.6042C126.021 11.6168 126.008 11.6181 125.97 11.6651C125.932 11.7124 125.939 11.8009 125.939 11.8009ZM134.018 18.4308C134.818 17.6908 134.831 16.5334 134.831 15.7939C134.752 14.6345 134.278 12.4048 131.589 12.4048C130.961 12.373 129.674 12.4798 129.639 13.3381C129.6 13.4897 129.583 14.5502 129.593 16.1778L129.609 18.7755L129.882 18.9173L129.897 18.925C130.045 19.0022 130.238 19.1023 130.575 19.1673C131.644 19.3733 133.218 19.1707 134.018 18.4308ZM117.197 11.5438C117.396 11.4695 117.527 11.4199 117.527 11.4199C117.527 11.4199 117.825 11.2995 117.921 11.4199C117.95 11.457 118.058 11.731 118.325 12.41L118.331 12.424L118.391 12.5763L118.502 12.8585C118.901 13.8692 119.473 15.32 119.775 16.0825C120.076 16.845 120.672 18.3539 121.099 19.4355C121.526 20.5171 122.075 21.9048 122.317 22.5191C122.56 23.1334 122.871 23.7722 122.958 23.8887C123 23.9457 123.043 24.0167 123.091 24.0945V24.095C123.279 24.4009 123.531 24.8115 124.036 24.8918C124.036 24.8918 124.432 24.9562 124.491 25.0173C124.549 25.0784 124.563 25.1893 124.563 25.1893V25.3977C124.563 25.3977 124.556 25.451 124.523 25.4963C124.491 25.5415 124.371 25.5289 124.371 25.5289L121.32 25.5291L119.149 25.5445C119.149 25.5445 119.073 25.5536 119.028 25.5172C118.984 25.4808 118.961 25.3888 118.961 25.3888V25.2319C118.961 25.2319 118.942 25.1138 119.028 25.0111C119.115 24.9085 119.464 24.8966 119.464 24.8966C120.121 24.8405 120.382 24.2894 120.516 24.0058L120.517 24.0042C120.527 23.9836 120.536 23.9644 120.544 23.947C120.687 23.6539 120.635 23.4628 119.989 21.8953C119.562 20.8608 119.417 20.5702 119.313 20.5445C119.241 20.5264 118.105 20.5197 116.79 20.5296L114.399 20.5475L114.255 20.9344C113.842 22.0534 113.475 23.1652 113.419 23.4657C113.306 24.0772 113.464 24.7574 114.378 24.8757C114.378 24.8757 114.716 24.9216 114.806 24.9886C114.897 25.0558 114.928 25.2278 114.928 25.2278V25.3863C114.928 25.3863 114.912 25.4617 114.849 25.5124C114.787 25.5632 114.626 25.5448 114.626 25.5448H112.343L110.135 25.5695C110.135 25.5695 110.041 25.5673 109.971 25.5309C109.902 25.4946 109.89 25.4216 109.89 25.4216V25.271C109.89 25.271 109.878 25.1732 110.001 25.0537C110.124 24.9342 110.456 24.9021 110.456 24.9021C111.06 24.8064 111.402 24.1741 111.598 23.8102C111.613 23.7833 111.627 23.7579 111.64 23.7343C111.718 23.5926 112.069 22.7657 112.421 21.8968C112.773 21.0279 113.168 20.0559 113.299 19.7367C113.744 18.6514 114.166 17.6117 114.806 16.0291C115.157 15.1602 115.677 13.8777 115.962 13.179L116.479 11.9087L117.197 11.5438ZM117.008 14.6315C117.119 14.9063 117.288 15.3197 117.385 15.5503C117.481 15.7808 117.751 16.4337 117.985 17.0011C118.218 17.5685 118.505 18.259 118.622 18.5356C118.739 18.8122 118.835 19.0515 118.835 19.0675C118.835 19.0836 117.956 19.0967 116.882 19.0967C115.649 19.0967 114.928 19.0734 114.928 19.0335C114.928 18.9987 114.97 18.861 115.02 18.7272C115.101 18.5145 115.501 17.3857 116.386 14.8788C116.523 14.4917 116.65 14.1503 116.668 14.1201C116.73 14.0168 116.807 14.1319 117.008 14.6315ZM13.1755 15.5853C13.7683 16.6171 12.4426 16.9368 11.8205 16.9957C10.8779 17.0863 10.6827 16.5491 10.8668 15.8743C10.9272 15.6327 11.0614 15.4153 11.251 15.2516C11.4406 15.0879 11.6766 14.9859 11.9268 14.9593C12.1734 14.937 12.4214 14.9838 12.6423 15.0946C12.8632 15.2053 13.048 15.3754 13.1755 15.5853ZM21.3315 18.388C18.9746 17.4423 16.5091 16.4532 16.8762 13.6769C17.6631 14.5076 18.8984 14.6819 20.2419 14.8713C21.4606 15.0432 22.7683 15.2277 23.9114 15.9261C26.6085 17.573 26.2146 20.7725 25.2984 21.9501C25.381 20.0127 23.3979 19.2171 21.3315 18.388ZM22.227 11.7121C22.1902 11.6785 22.1527 11.6452 22.1153 11.612C22.0913 11.5907 22.0674 11.5694 22.0438 11.5481C22.062 11.5646 22.0803 11.5813 22.0985 11.598C22.1416 11.6373 22.1845 11.6765 22.227 11.7121ZM11.6567 8.83221C11.2664 8.38653 10.6608 8.15284 10.0672 8.06766C10.045 8.21387 10.0309 8.3611 10.025 8.50884C9.99846 9.72542 10.4354 11.0616 11.2811 11.9901C11.5516 12.2902 11.8778 12.5363 12.2421 12.7148C12.4528 12.8162 13.0117 13.0681 13.2187 12.8416C13.2345 12.8208 13.2444 12.7963 13.2475 12.7705C13.2505 12.7447 13.2466 12.7186 13.2361 12.6948C13.2018 12.5979 13.1355 12.5098 13.0697 12.4225H13.0697C13.0231 12.3606 12.9766 12.2989 12.9421 12.2347C12.907 12.1698 12.8696 12.1066 12.8321 12.0435C12.7619 11.9248 12.6917 11.8064 12.6379 11.6776C12.4959 11.3402 12.422 10.9815 12.3483 10.624V10.6239C12.3335 10.5523 12.3188 10.4807 12.3035 10.4093C12.1908 9.85767 12.047 9.27789 11.6567 8.83221ZM19.9956 18.5372C19.3902 20.2078 20.3667 21.6187 21.3374 23.0214C22.4232 24.5904 23.5018 26.149 22.3511 28.0488C24.5874 27.1357 25.6492 24.3773 24.7211 22.1887C24.1363 20.8045 22.7269 20.054 21.4186 19.3575H21.4186V19.3574C20.911 19.0872 20.4186 18.8251 19.9956 18.5372ZM13.4387 22.5272C13.0334 22.6907 12.6513 22.9054 12.3018 23.1659C13.0965 22.8809 13.9307 22.7181 14.7754 22.683C14.9285 22.6741 15.0826 22.6671 15.2379 22.66H15.238H15.2382H15.2383H15.2384C15.5069 22.6477 15.7795 22.6353 16.058 22.6124C16.5145 22.5818 16.9647 22.4903 17.3965 22.3406C17.8489 22.1841 18.2607 21.9304 18.6021 21.5978C18.9471 21.2545 19.1891 20.8234 19.3012 20.3523C19.3998 19.9072 19.3859 19.445 19.2608 19.0066C19.1357 18.5681 18.9032 18.1669 18.5838 17.8385C18.7379 18.2249 18.8327 18.6319 18.8651 19.046C18.893 19.4315 18.84 19.8186 18.7093 20.1829C18.5818 20.5281 18.3733 20.8385 18.101 21.0887C17.8197 21.3413 17.494 21.5409 17.14 21.6776C16.648 21.8735 16.0916 21.9537 15.5121 22.0372H15.512C15.2477 22.0753 14.9785 22.1141 14.7085 22.1649C14.2741 22.2436 13.8487 22.365 13.4387 22.5272ZM20.4618 29.4236L20.4263 29.4518C20.3239 29.5333 20.2198 29.6162 20.1077 29.6906C19.9648 29.7837 19.815 29.866 19.6597 29.937C19.3363 30.093 18.9806 30.1727 18.6208 30.1698C17.646 30.1516 16.9571 29.4342 16.5539 28.6235C16.4482 28.4109 16.3551 28.1919 16.262 27.9728C16.113 27.6222 15.964 27.2715 15.7633 26.9476C15.297 26.1948 14.499 25.5888 13.5645 25.7011C13.1834 25.7483 12.8261 25.9176 12.6145 26.2446C12.0574 27.0989 12.8572 28.2955 13.877 28.1261C13.9637 28.1131 14.0485 28.09 14.1298 28.0573C14.2108 28.0232 14.2864 27.9777 14.3543 27.9223C14.4967 27.8051 14.6041 27.6516 14.6648 27.4785C14.7318 27.2979 14.7467 27.1025 14.7079 26.9141C14.6661 26.7172 14.5484 26.544 14.3799 26.4313C14.5759 26.522 14.7286 26.6844 14.8059 26.8842C14.8861 27.0898 14.9068 27.3135 14.8655 27.5301C14.8254 27.7557 14.7248 27.9666 14.5741 28.1406C14.4941 28.2301 14.4015 28.3079 14.2993 28.3716C14.1979 28.4346 14.0894 28.4854 13.9759 28.5229C13.7458 28.6007 13.5008 28.6258 13.2594 28.5963C12.9206 28.5486 12.6009 28.4115 12.3341 28.1995C12.2868 28.1625 12.2412 28.1237 12.197 28.0836C12.0126 27.927 11.8454 27.7514 11.6983 27.5598C11.6338 27.4895 11.5681 27.4201 11.4995 27.3534C11.1729 27.0146 10.7875 26.7363 10.3617 26.5318C10.068 26.4043 9.76063 26.3101 9.4455 26.251C9.28704 26.2184 9.1267 26.1948 8.96637 26.1749C8.94899 26.1732 8.91553 26.1675 8.87392 26.1603L8.87365 26.1603L8.87356 26.1602C8.73969 26.1372 8.52194 26.0998 8.48353 26.1351C8.97908 25.684 9.51929 25.2834 10.096 24.9393C10.6881 24.5919 11.3238 24.3229 11.9869 24.1394C12.6744 23.9481 13.3934 23.8936 14.1023 23.9791C14.4672 24.0225 14.8247 24.1138 15.165 24.2508C15.5217 24.3917 15.8509 24.5928 16.138 24.8451C16.4221 25.1097 16.6517 25.4263 16.8141 25.7772C16.9608 26.1058 17.0701 26.4494 17.1403 26.8018C17.1778 26.9913 17.2062 27.1997 17.2355 27.4153V27.4153L17.2355 27.4154C17.3691 28.3981 17.5233 29.5319 18.6675 29.7295C18.7402 29.7434 18.8136 29.7537 18.8874 29.7603L19.1155 29.7658C19.2723 29.7547 19.4281 29.7326 19.5818 29.6996C19.9001 29.6256 20.2103 29.5209 20.508 29.3871L20.491 29.4005L20.4618 29.4236ZM11.7488 27.6151C11.7845 27.6556 11.8206 27.6956 11.8573 27.7351C11.8413 27.7174 11.8252 27.6996 11.8092 27.6819V27.6818H11.8091C11.7891 27.6596 11.769 27.6373 11.7488 27.6151Z" fill="#FF007A"/>
</svg>
