<svg width="1344" height="72" viewBox="0 0 1344 72" fill="none" xmlns="http://www.w3.org/2000/svg">
<path opacity="0.6" d="M56.9391 219.164C114.487 180.98 279.004 104.737 476.687 105.237C674.37 105.736 703.107 -45.3142 692.766 -120.902M-8.37109 7.1876C135.685 45.0575 415.879 72.4575 384.207 -120.902M395.357 348C429.388 267.456 557.106 109.355 795.737 121.299C1034.37 133.242 1138.37 -36.1905 1160.54 -122.4M1330.52 -122.4C1332.15 -58.6917 1294.4 1.2037 1233.25 49.4905C1139.48 123.54 943.431 139.157 886.408 230.97C858.668 275.636 882.062 317.119 916.36 348M1171.72 348C1188.03 298.448 1245.33 190.424 1344 154.747" stroke="url(#paint0_linear_9337_163575)" stroke-width="0.5"/>
<defs>
<linearGradient id="paint0_linear_9337_163575" x1="-8.37109" y1="112.8" x2="1344" y2="112.8" gradientUnits="userSpaceOnUse">
<stop stop-color="#FFA800"/>
<stop offset="1" stop-color="#FF5107"/>
</linearGradient>
</defs>
</svg>
