<svg width="321" height="128" viewBox="0 0 321 128" fill="none" xmlns="http://www.w3.org/2000/svg">
<rect x="0.851562" width="320" height="116" fill="#1A1D1F"/>
<mask id="mask0_11741_195732" style="mask-type:alpha" maskUnits="userSpaceOnUse" x="0" y="0" width="321" height="116">
<rect x="0.851562" width="320" height="116" fill="#1A1D1F"/>
</mask>
<g mask="url(#mask0_11741_195732)">
<g opacity="0.1" filter="url(#filter0_f_11741_195732)">
<path d="M278.25 -29.0894C275.619 -38.1131 267.165 -47.1368 251.947 -57.1821C239.736 -65.1843 226.773 -69.7812 216.44 -69.7812C214.373 -69.7812 212.494 -69.611 210.616 -69.2705C205.919 -68.4192 201.786 -65.3545 199.155 -60.7575C195.962 -55.3093 195.21 -47.9881 197.277 -43.5614C198.028 -42.1993 198.968 -40.4968 200.095 -38.9644C190.138 -33.5161 184.501 -31.9838 183.75 -31.8136C209.676 -23.9817 231.282 -7.63681 244.808 13.6455L244.996 11.6024C245.56 5.98388 247.439 -0.485947 250.069 -7.12604C252.699 -6.44501 255.329 -6.10449 257.959 -6.10449C264.911 -6.10449 270.923 -8.65837 274.68 -13.2554C278.437 -17.8523 279.94 -23.9817 278.25 -29.0894Z" fill="#5E12A0"/>
<path d="M153.739 154.79C211.741 154.79 258.759 112.179 258.759 59.6154C258.759 7.05145 211.741 -35.5592 153.739 -35.5592C95.7374 -35.5592 48.7188 7.05145 48.7188 59.6154C48.7188 112.179 95.7374 154.79 153.739 154.79Z" fill="url(#paint0_radial_11741_195732)"/>
<path d="M223.929 -47.4742C227.686 -46.1122 232.571 -43.7285 238.583 -40.1531C245.722 -35.8966 251.922 -31.1294 255.867 -27.3837C249.292 -19.5518 244.971 -8.8255 242.34 -1.33411C243.655 0.368473 245.158 2.07106 246.473 3.77365C247.789 -0.482819 250.043 -6.78239 253.049 -13.082C253.8 -12.9117 254.74 -12.9117 255.679 -12.9117C257.934 -12.9117 260.564 -13.2522 262.63 -14.7846C264.133 -15.8061 265.824 -17.679 265.636 -21.0841C265.636 -24.319 262.818 -28.4053 256.994 -33.3428C252.861 -36.9182 247.225 -40.8341 241.589 -44.4096C225.432 -54.1143 214.16 -56.8385 209.087 -52.2415C205.705 -49.1768 206.081 -45.4311 207.208 -42.707C201.196 -39.1316 196.124 -36.5777 192.742 -34.8751C194.997 -34.1941 197.063 -33.3428 199.318 -32.4915C205.33 -35.3859 213.972 -40.3234 223.929 -47.4742ZM259.437 -23.1272C260 -22.2759 260.188 -21.4246 260.188 -20.9139C260.188 -19.3815 259.624 -18.8708 259.249 -18.5303C258.497 -18.0195 256.994 -17.679 255.679 -17.679C256.806 -19.7221 258.122 -21.4246 259.437 -23.1272ZM213.032 -48.4958C213.596 -49.0066 215.099 -49.3471 217.541 -49.0066C215.663 -47.6445 213.784 -46.4527 211.905 -45.2609C211.717 -46.4527 211.905 -47.6445 213.032 -48.4958Z" fill="#5E12A0"/>
<path d="M153.978 -41.1802C92.5438 -41.1802 42.7578 3.93842 42.7578 59.6131C42.7578 115.288 92.5438 160.406 153.978 160.406C215.412 160.406 265.198 115.288 265.198 59.6131C265.198 3.93842 215.224 -41.1802 153.978 -41.1802ZM153.978 154.788C95.9255 154.788 48.9576 112.223 48.9576 59.6131C48.9576 7.00307 95.9255 -35.5616 153.978 -35.5616C212.03 -35.5616 258.998 7.00307 258.998 59.6131C258.998 112.223 211.842 154.788 153.978 154.788Z" fill="#5E12A0"/>
<path d="M153.739 154.79C211.741 154.79 258.759 112.179 258.759 59.6154C258.759 7.05145 211.741 -35.5592 153.739 -35.5592C95.7374 -35.5592 48.7188 7.05145 48.7188 59.6154C48.7188 112.179 95.7374 154.79 153.739 154.79Z" fill="url(#paint1_linear_11741_195732)"/>
<path d="M153.021 143.214C95.7206 134.871 56.8311 86.0065 66.2247 34.0776C70.3579 11.0926 83.1331 -8.48716 101.169 -22.6187C74.8668 -8.82768 55.3281 15.1788 50.0677 44.4634C40.862 96.3923 79.7515 145.257 136.865 153.599C168.803 158.367 199.614 149.343 222.346 131.636C202.244 142.192 177.821 146.789 153.021 143.214Z" fill="#A98698" fill-opacity="0.6"/>
<path d="M170.428 -34.1998C143.938 -38.1158 118.2 -32.6675 97.1581 -20.5791C96.7824 -20.2386 96.4066 -19.8981 96.4066 -19.8981C104.485 -24.3248 116.321 -28.2408 116.321 -28.2408C85.8858 -12.2364 76.4922 5.98125 76.4922 5.98125C88.3281 -14.7903 123.084 -29.4326 150.326 -30.4541C177.567 -31.4757 195.415 -24.1545 217.208 -8.32049C239.001 7.68383 252.152 40.3735 250.837 66.2528C249.71 92.1321 234.68 113.074 234.68 113.074C245.013 100.986 251.213 92.1321 255.158 83.1084C255.91 80.3843 256.661 77.6602 257.037 74.7658C266.431 23.0071 227.729 -25.8571 170.428 -34.1998Z" fill="url(#paint2_linear_11741_195732)"/>
<path d="M253.02 58.762C253.02 108.648 208.307 149.169 153.26 149.169C98.2139 149.169 53.3125 108.648 53.3125 58.762H253.02Z" fill="url(#paint3_linear_11741_195732)"/>
<path d="M245.729 58.762C245.729 107.456 203.27 147.297 149.914 149.169H153.859C208.906 149.169 253.619 108.648 253.619 58.762H245.729Z" fill="url(#paint4_linear_11741_195732)"/>
<path d="M67.4029 58.762H53.3125C53.3125 108.648 98.026 149.169 153.072 149.169C155.515 149.169 157.769 149.169 160.024 148.999C108.359 145.594 67.4029 106.434 67.4029 58.762Z" fill="url(#paint5_linear_11741_195732)"/>
<path d="M252.833 59.6134C252.833 49.2276 232.918 43.2686 206.428 41.2255C187.265 39.8634 167.914 41.566 145.746 47.6953C126.583 52.8031 109.298 51.9518 96.7109 50.5897C68.718 47.6953 53.3125 47.3548 53.3125 59.6134C53.3125 77.3203 93.1414 99.4539 152.885 91.7923C183.132 87.8763 198.725 79.8742 216.573 74.4259C235.924 68.6371 252.833 68.8074 252.833 59.6134Z" fill="url(#paint6_linear_11741_195732)"/>
<path d="M186.362 16.7104C195.701 16.7104 203.27 9.85069 203.27 1.38713C203.27 -7.07643 195.701 -13.9362 186.362 -13.9362C177.022 -13.9362 169.453 -7.07643 169.453 1.38713C169.453 9.85069 177.022 16.7104 186.362 16.7104Z" fill="white"/>
<path d="M214.038 28.1157C217.981 28.1157 221.177 25.2196 221.177 21.6459C221.177 18.0721 217.981 15.176 214.038 15.176C210.094 15.176 206.898 18.0721 206.898 21.6459C206.898 25.2196 210.094 28.1157 214.038 28.1157Z" fill="white"/>
<path d="M124.197 128.908C128.971 128.908 132.839 125.403 132.839 121.077C132.839 116.752 128.971 113.245 124.197 113.245C119.425 113.245 115.555 116.752 115.555 121.077C115.555 125.403 119.425 128.908 124.197 128.908Z" fill="white" fill-opacity="0.2"/>
<path d="M119.843 126.02C116.461 122.955 116.461 118.017 119.843 114.953C120.407 114.442 120.97 114.102 121.722 113.761C120.595 114.102 119.655 114.783 118.716 115.464C115.334 118.528 115.334 123.466 118.716 126.53C121.534 129.084 125.855 129.595 129.237 127.722C126.043 128.914 122.286 128.403 119.843 126.02Z" fill="url(#paint7_linear_11741_195732)"/>
<path d="M127.355 118.696C128.392 118.696 129.234 117.933 129.234 116.993C129.234 116.053 128.392 115.291 127.355 115.291C126.318 115.291 125.477 116.053 125.477 116.993C125.477 117.933 126.318 118.696 127.355 118.696Z" fill="white" fill-opacity="0.3"/>
<path d="M201.587 109.669C206.361 109.669 210.23 106.163 210.23 101.837C210.23 97.5125 206.361 94.0051 201.587 94.0051C196.815 94.0051 192.945 97.5125 192.945 101.837C192.945 106.163 196.815 109.669 201.587 109.669Z" fill="white" fill-opacity="0.2"/>
<path d="M196.562 106.778C193.18 103.713 193.18 98.7758 196.562 95.7111C197.126 95.2003 197.689 94.8598 198.441 94.5193C197.313 94.8598 196.374 95.5408 195.435 96.2219C192.053 99.2865 192.053 104.224 195.435 107.289C198.253 109.843 202.574 110.353 205.956 108.481C202.762 109.672 199.192 109.162 196.562 106.778Z" fill="url(#paint8_linear_11741_195732)"/>
<path d="M204.746 99.4574C205.783 99.4574 206.625 98.6947 206.625 97.7548C206.625 96.815 205.783 96.0522 204.746 96.0522C203.709 96.0522 202.867 96.815 202.867 97.7548C202.867 98.6947 203.709 99.4574 204.746 99.4574Z" fill="white" fill-opacity="0.3"/>
</g>
<g filter="url(#filter1_f_11741_195732)">
<path d="M-58.0161 218.963C-24.5298 218.963 2.61625 193.602 2.61625 162.318C2.61625 131.033 -24.5298 105.672 -58.0161 105.672C-91.5024 105.672 -118.648 131.033 -118.648 162.318C-118.648 193.602 -91.5024 218.963 -58.0161 218.963Z" fill="url(#paint9_radial_11741_195732)"/>
<path d="M-58.0161 218.963C-24.5298 218.963 2.61625 193.602 2.61625 162.318C2.61625 131.033 -24.5298 105.672 -58.0161 105.672C-91.5024 105.672 -118.648 131.033 -118.648 162.318C-118.648 193.602 -91.5024 218.963 -58.0161 218.963Z" fill="url(#paint10_radial_11741_195732)"/>
</g>
<path d="M-24.7764 -6.68188L133.348 129.107L98.0507 309.029L-206.398 11.3166L-24.7764 -6.68188Z" stroke="url(#paint11_linear_11741_195732)" stroke-width="0.124989" stroke-miterlimit="10"/>
<path d="M-170.602 7.76685L105.562 270.707" stroke="url(#paint12_linear_11741_195732)" stroke-width="0.124989" stroke-miterlimit="10"/>
<path d="M-141.117 4.85461L111.536 240.272" stroke="url(#paint13_linear_11741_195732)" stroke-width="0.124989" stroke-miterlimit="10"/>
<path d="M-116.422 2.40491L116.396 215.512" stroke="url(#paint14_linear_11741_195732)" stroke-width="0.124989" stroke-miterlimit="10"/>
<path d="M-95.4219 0.317505L120.422 194.976" stroke="url(#paint15_linear_11741_195732)" stroke-width="0.124989" stroke-miterlimit="10"/>
<path d="M-77.3516 -1.46985L123.819 177.653" stroke="url(#paint16_linear_11741_195732)" stroke-width="0.124989" stroke-miterlimit="10"/>
<path d="M-61.6406 -3.03223L126.718 162.866" stroke="url(#paint17_linear_11741_195732)" stroke-width="0.124989" stroke-miterlimit="10"/>
<path d="M-47.8359 -4.39453L129.237 150.092" stroke="url(#paint18_linear_11741_195732)" stroke-width="0.124989" stroke-miterlimit="10"/>
<path d="M-35.6406 -5.60693L131.42 138.931" stroke="url(#paint19_linear_11741_195732)" stroke-width="0.124989" stroke-miterlimit="10"/>
<path d="M107.073 106.546L43.2031 255.396" stroke="url(#paint20_linear_11741_195732)" stroke-width="0.124989" stroke-miterlimit="10"/>
<path d="M94.2153 95.4971L17.0469 229.811" stroke="url(#paint21_linear_11741_195732)" stroke-width="0.124989" stroke-miterlimit="10"/>
<path d="M81.5752 84.6229L-8.30469 205" stroke="url(#paint22_linear_11741_195732)" stroke-width="0.124989" stroke-miterlimit="10"/>
<path d="M69.0632 73.8988L-32.9531 180.927" stroke="url(#paint23_linear_11741_195732)" stroke-width="0.124989" stroke-miterlimit="10"/>
<path d="M56.7513 63.3247L-56.8516 157.554" stroke="url(#paint24_linear_11741_195732)" stroke-width="0.124989" stroke-miterlimit="10"/>
<path d="M44.6019 52.9006L-80.0625 134.856" stroke="url(#paint25_linear_11741_195732)" stroke-width="0.124989" stroke-miterlimit="10"/>
<path d="M32.6385 42.6265L-102.625 112.808" stroke="url(#paint26_linear_11741_195732)" stroke-width="0.124989" stroke-miterlimit="10"/>
<path d="M20.8439 32.4899L-124.531 91.3724" stroke="url(#paint27_linear_11741_195732)" stroke-width="0.124989" stroke-miterlimit="10"/>
<path d="M9.18995 22.4907L-145.859 70.5242" stroke="url(#paint28_linear_11741_195732)" stroke-width="0.124989" stroke-miterlimit="10"/>
<path opacity="0.5" d="M-16.1333 82.5856L-40.0938 97.2093L-13.6585 121.682L7.45221 104.171L-16.1333 82.5856Z" fill="white" fill-opacity="0.06"/>
<path opacity="0.1" d="M35.1025 52.1132L27.2031 57.6127L40.5895 69.2867L47.9139 63.2122L35.1025 52.1132Z" fill="url(#paint29_linear_11741_195732)"/>
<g opacity="0.16" filter="url(#filter2_f_11741_195732)">
<path d="M68.36 73.3489C66.1477 75.8987 48.7492 64.4872 29.5009 47.8511C10.2525 31.215 -3.57132 15.6663 -1.37151 13.104C0.840801 10.5542 18.2393 21.9658 37.4877 38.6019C56.736 55.238 70.5724 70.7992 68.36 73.3489Z" fill="url(#paint30_linear_11741_195732)"/>
</g>
<g filter="url(#filter3_f_11741_195732)">
<path d="M73.1402 115.095C71.9278 116.508 65.1659 112.658 58.054 106.521C50.9421 100.372 46.155 94.2471 47.3674 92.8473C48.5798 91.4349 55.3417 95.2845 62.4536 101.422C69.578 107.571 74.3526 113.696 73.1402 115.095Z" fill="url(#paint31_linear_11741_195732)"/>
</g>
<g filter="url(#filter4_f_11741_195732)">
<path d="M-4.63446 68.5118C-3.85953 69.9367 -8.04667 73.6864 -13.9712 76.8986C-19.8957 80.1108 -25.3202 81.5607 -26.0951 80.1483C-26.8701 78.7234 -22.6829 74.9738 -16.7584 71.7615C-10.8339 68.5493 -5.4094 67.0869 -4.63446 68.5118Z" fill="url(#paint32_linear_11741_195732)"/>
</g>
<path opacity="0.5" d="M3.56849 122.32C3.531 122.32 3.481 122.307 3.4435 122.27L-9.35541 111.521L-36.1406 86.4853C-36.1781 86.4478 -36.2031 86.3854 -36.2031 86.3229C-36.1906 86.2604 -36.1656 86.2104 -36.1156 86.1854L-13.4926 72.8115C-13.4051 72.7615 -13.2926 72.7865 -13.2301 72.874C-13.1801 72.9615 -13.2051 73.074 -13.2926 73.1365L-35.7032 86.3854L-9.10543 111.246L3.56849 121.895L9.63048 116.67C9.70547 116.608 9.83046 116.608 9.89295 116.695C9.95545 116.77 9.95544 116.895 9.86795 116.958L3.68098 122.295C3.65598 122.307 3.61849 122.32 3.56849 122.32Z" fill="white"/>
<path opacity="0.5" d="M62.3726 105.659C62.3476 105.659 62.3102 105.646 62.2852 105.621L40.2495 85.9103L34.9 90.9474C34.85 90.9974 34.775 90.9974 34.725 90.9474C34.675 90.8974 34.675 90.8224 34.725 90.7724L40.162 85.6603C40.212 85.6103 40.287 85.6103 40.337 85.6603L62.4601 105.459C62.5101 105.509 62.5101 105.584 62.4726 105.634C62.4351 105.646 62.4101 105.659 62.3726 105.659Z" fill="white"/>
<g filter="url(#filter5_f_11741_195732)">
<path d="M63.2076 108.712C64.4571 108.712 65.4699 107.699 65.4699 106.449C65.4699 105.2 64.4571 104.187 63.2076 104.187C61.9582 104.187 60.9453 105.2 60.9453 106.449C60.9453 107.699 61.9582 108.712 63.2076 108.712Z" fill="url(#paint33_linear_11741_195732)"/>
<path d="M9.6295 119.495C10.8789 119.495 11.8918 118.482 11.8918 117.233C11.8918 115.983 10.8789 114.97 9.6295 114.97C8.38006 114.97 7.36719 115.983 7.36719 117.233C7.36719 118.482 8.38006 119.495 9.6295 119.495Z" fill="url(#paint34_linear_11741_195732)"/>
</g>
<path d="M8.63848 71.0741L-16.5469 48.2385L3.31393 40.2642L24.7871 59.0001L8.63848 71.0741Z" fill="url(#paint35_linear_11741_195732)"/>
<path d="M-16.5476 47.901L-25.2344 62.4998L-3.34874 82.5106L8.63774 71.0741L-16.5476 47.901Z" fill="url(#paint36_linear_11741_195732)"/>
<path opacity="0.74" d="M24.7835 58.6626L13.7345 70.5866L-3.35156 82.5106L8.63492 71.0741L24.7835 58.6626Z" fill="url(#paint37_linear_11741_195732)"/>
<path opacity="0.06" d="M64.9563 79.7358L47.7578 97.2094L71.5183 118.108L87.0795 98.9217L64.9563 79.7358Z" fill="url(#paint38_linear_11741_195732)"/>
<path d="M81.8689 98.7967L65.0703 84.4604L72.3822 78.3734L87.8059 90.8724L81.8689 98.7967Z" fill="url(#paint39_linear_11741_195732)"/>
<path d="M65.2069 84.3229L54.0703 97.9092L70.8939 112.733L82.1929 98.7717L65.2069 84.3229Z" fill="url(#paint40_linear_11741_195732)"/>
<g opacity="0.75" filter="url(#filter6_d_11741_195732)">
<path d="M28.7817 95.186C28.5801 94.4228 27.9321 93.6597 26.7658 92.8101C25.8299 92.1334 24.8364 91.7446 24.0445 91.7446C23.8861 91.7446 23.7421 91.759 23.5981 91.7878C23.2381 91.8598 22.9214 92.119 22.7198 92.5078C22.475 92.9685 22.4174 93.5877 22.5758 93.9621C22.6334 94.0772 22.7054 94.2212 22.7918 94.3508C22.0286 94.8116 21.5967 94.9412 21.5391 94.9556C23.5261 95.6179 25.182 97.0002 26.2187 98.8001L26.2331 98.6273C26.2763 98.1521 26.4203 97.605 26.6219 97.0434C26.8234 97.101 27.025 97.1298 27.2266 97.1298C27.7594 97.1298 28.2201 96.9138 28.5081 96.525C28.7961 96.1363 28.9113 95.6179 28.7817 95.186Z" fill="#5E12A0"/>
<path d="M26.7258 96.6259C28.0361 96.9859 28.5688 95.978 28.396 95.3013C28.2088 94.6245 27.6041 93.9334 26.5386 93.1558C25.4731 92.3783 24.3931 92.0615 23.702 92.2055C23.0109 92.3495 22.8093 93.4006 22.9821 93.8038C23.0541 93.9622 23.2124 94.1925 23.4284 94.4517C23.1548 94.6389 22.8957 94.7829 22.6797 94.9125C24.0044 95.5028 25.1563 96.4244 26.0202 97.5763C26.121 97.1875 26.265 96.8419 26.3946 96.5396C26.4954 96.554 26.6106 96.5827 26.7258 96.6259Z" fill="url(#paint41_radial_11741_195732)"/>
<path d="M19.2443 110.737C23.6896 110.737 27.2932 107.133 27.2932 102.688C27.2932 98.2423 23.6896 94.6387 19.2443 94.6387C14.7989 94.6387 11.1953 98.2423 11.1953 102.688C11.1953 107.133 14.7989 110.737 19.2443 110.737Z" fill="url(#paint42_radial_11741_195732)"/>
<path d="M27.7441 94.6391C26.6498 93.4872 25.7282 93.1848 24.6195 92.94C23.7556 92.7384 23.986 92.2489 25.0371 92.3497C24.5331 92.1769 24.058 92.1337 23.7124 92.2057C23.0213 92.3497 22.8197 93.4008 22.9925 93.804C23.0645 93.9623 23.2228 94.1927 23.4388 94.4519C23.0501 94.7111 22.7189 94.8983 22.4453 95.0423C22.5749 95.0999 22.7333 95.1718 22.9205 95.2726C23.41 95.5318 23.9428 95.9638 23.9428 95.9638C23.1365 95.2726 23.3092 94.9559 24.418 94.1783C24.7635 93.9335 25.3971 93.9623 25.9874 94.2647C26.5778 94.5671 27.2689 95.3302 27.2689 95.3302L26.6066 96.5973C26.6498 96.6117 26.693 96.6261 26.7362 96.6405C27.1537 96.7557 27.4849 96.7269 27.7441 96.6261C28.0465 96.4389 28.8384 95.8054 27.7441 94.6391Z" fill="#A98698" fill-opacity="0.6"/>
<path d="M24.6011 93.6311C24.8891 93.7463 25.2635 93.9479 25.7243 94.2502C26.2714 94.6102 26.7466 95.0134 27.0489 95.3302C26.545 95.9925 26.2138 96.8996 26.0122 97.5332C26.113 97.6772 26.2282 97.8212 26.329 97.9652C26.4298 97.6052 26.6026 97.0724 26.833 96.5397C26.8906 96.5541 26.9626 96.5541 27.0345 96.5541C27.2073 96.5541 27.4089 96.5253 27.5673 96.3957C27.6825 96.3093 27.8121 96.1509 27.7977 95.8629C27.7977 95.5893 27.5817 95.2438 27.1353 94.8262C26.8186 94.5238 26.3866 94.1927 25.9546 93.8903C24.7163 93.0695 23.8524 92.8392 23.4636 93.2279C23.2045 93.4871 23.2333 93.8039 23.3196 94.0343C22.8589 94.3366 22.4701 94.5526 22.2109 94.6966C22.3837 94.7542 22.5421 94.8262 22.7149 94.8982C23.1757 94.6534 23.838 94.2358 24.6011 93.6311ZM27.3225 95.6901C27.3657 95.7621 27.3801 95.8341 27.3801 95.8773C27.3801 96.0069 27.3369 96.0501 27.3081 96.0789C27.2505 96.1221 27.1353 96.1509 27.0345 96.1509C27.1209 95.9781 27.2217 95.8341 27.3225 95.6901ZM23.766 93.5447C23.8092 93.5015 23.9244 93.4727 24.1116 93.5015C23.9676 93.6167 23.8236 93.7175 23.6796 93.8183C23.6652 93.7175 23.6796 93.6167 23.766 93.5447Z" fill="#5E12A0"/>
<path d="M19.2507 94.1635C14.5423 94.1635 10.7266 97.9791 10.7266 102.688C10.7266 107.396 14.5423 111.212 19.2507 111.212C23.9591 111.212 27.7748 107.396 27.7748 102.688C27.7748 97.9791 23.9447 94.1635 19.2507 94.1635ZM19.2507 110.737C14.8014 110.737 11.2017 107.137 11.2017 102.688C11.2017 98.2383 14.8014 94.6386 19.2507 94.6386C23.6999 94.6386 27.2996 98.2383 27.2996 102.688C27.2996 107.137 23.6855 110.737 19.2507 110.737Z" fill="#5E12A0"/>
<path d="M19.2443 110.737C23.6896 110.737 27.2932 107.133 27.2932 102.688C27.2932 98.2423 23.6896 94.6387 19.2443 94.6387C14.7989 94.6387 11.1953 98.2423 11.1953 102.688C11.1953 107.133 14.7989 110.737 19.2443 110.737Z" fill="url(#paint43_linear_11741_195732)"/>
<path d="M19.1893 109.758C14.7976 109.052 11.8171 104.92 12.537 100.528C12.8538 98.5841 13.8329 96.9283 15.2152 95.7332C13.1993 96.8995 11.7019 98.9297 11.2987 101.406C10.5932 105.798 13.5737 109.93 17.951 110.636C20.3988 111.039 22.7602 110.276 24.5024 108.779C22.9618 109.671 21.0899 110.06 19.1893 109.758Z" fill="#A98698" fill-opacity="0.6"/>
<path d="M20.5041 94.7538C18.4739 94.4226 16.5012 94.8834 14.8886 95.9057C14.8598 95.9345 14.831 95.9633 14.831 95.9633C15.4501 95.5889 16.3572 95.2577 16.3572 95.2577C14.0246 96.6112 13.3047 98.1519 13.3047 98.1519C14.2118 96.3952 16.8756 95.1569 18.9634 95.0706C21.0513 94.9842 22.4192 95.6033 24.0894 96.9424C25.7597 98.2959 26.7676 101.06 26.6668 103.249C26.5804 105.438 25.4285 107.209 25.4285 107.209C26.2205 106.186 26.6956 105.438 26.998 104.675C27.0556 104.444 27.1132 104.214 27.142 103.969C27.8619 99.5918 24.8958 95.4593 20.5041 94.7538Z" fill="url(#paint44_linear_11741_195732)"/>
<path d="M26.845 102.615C26.845 106.834 23.4181 110.261 19.1992 110.261C14.9804 110.261 11.5391 106.834 11.5391 102.615H26.845Z" fill="url(#paint45_linear_11741_195732)"/>
<path d="M26.2731 102.615C26.2731 106.734 23.019 110.103 18.9297 110.261H19.2321C23.4509 110.261 26.8778 106.834 26.8778 102.615H26.2731Z" fill="url(#paint46_linear_11741_195732)"/>
<path d="M12.619 102.615H11.5391C11.5391 106.834 14.966 110.261 19.1848 110.261C19.372 110.261 19.5448 110.261 19.7176 110.247C15.7579 109.959 12.619 106.647 12.619 102.615Z" fill="url(#paint47_linear_11741_195732)"/>
<path d="M26.8306 102.688C26.8306 101.809 25.3044 101.305 23.2741 101.132C21.8054 101.017 20.3224 101.161 18.6233 101.68C17.1546 102.112 15.8299 102.04 14.8652 101.924C12.7198 101.68 11.5391 101.651 11.5391 102.688C11.5391 104.185 14.5916 106.057 19.1704 105.409C21.4887 105.078 22.6838 104.401 24.0517 103.94C25.5347 103.451 26.8306 103.465 26.8306 102.688Z" fill="url(#paint48_linear_11741_195732)"/>
<path d="M21.7256 99.0593C22.4413 99.0593 23.0215 98.4792 23.0215 97.7634C23.0215 97.0477 22.4413 96.4675 21.7256 96.4675C21.0098 96.4675 20.4297 97.0477 20.4297 97.7634C20.4297 98.4792 21.0098 99.0593 21.7256 99.0593Z" fill="white"/>
<path d="M23.8518 100.024C24.1541 100.024 24.399 99.7788 24.399 99.4766C24.399 99.1744 24.1541 98.9294 23.8518 98.9294C23.5496 98.9294 23.3047 99.1744 23.3047 99.4766C23.3047 99.7788 23.5496 100.024 23.8518 100.024Z" fill="white"/>
<path d="M25.809 96.7265H25.7802C25.6938 96.7121 25.6362 96.6257 25.6506 96.5249C25.7802 95.8626 26.3274 95.229 26.3562 95.2002C26.4138 95.1282 26.529 95.1282 26.5866 95.1858C26.6586 95.2434 26.6586 95.3586 26.601 95.4162C26.5866 95.4306 26.0826 96.021 25.9674 96.5969C25.953 96.6833 25.881 96.7265 25.809 96.7265Z" fill="url(#paint49_linear_11741_195732)"/>
<path d="M18.7079 108.692C18.9305 108.692 19.111 108.511 19.111 108.289C19.111 108.066 18.9305 107.886 18.7079 107.886C18.4852 107.886 18.3047 108.066 18.3047 108.289C18.3047 108.511 18.4852 108.692 18.7079 108.692Z" fill="white" fill-opacity="0.2"/>
<path d="M18.4342 108.548C18.2758 108.39 18.2758 108.131 18.4342 107.972C18.463 107.943 18.4918 107.929 18.5206 107.9C18.463 107.915 18.4198 107.943 18.3766 107.987C18.2182 108.145 18.2182 108.404 18.3766 108.563C18.5062 108.692 18.7078 108.721 18.8662 108.635C18.7222 108.692 18.5494 108.663 18.4342 108.548Z" fill="url(#paint50_linear_11741_195732)"/>
<path d="M18.813 108.174C18.8606 108.174 18.8993 108.135 18.8993 108.087C18.8993 108.04 18.8606 108.001 18.813 108.001C18.7653 108.001 18.7266 108.04 18.7266 108.087C18.7266 108.135 18.7653 108.174 18.813 108.174Z" fill="white" fill-opacity="0.3"/>
<path d="M20.8172 108.49C21.0398 108.49 21.2204 108.31 21.2204 108.087C21.2204 107.864 21.0398 107.684 20.8172 107.684C20.5946 107.684 20.4141 107.864 20.4141 108.087C20.4141 108.31 20.5946 108.49 20.8172 108.49Z" fill="white" fill-opacity="0.2"/>
<path d="M20.5904 108.346C20.4321 108.188 20.4321 107.929 20.5904 107.77C20.6192 107.742 20.648 107.727 20.6768 107.698C20.6192 107.713 20.576 107.742 20.5329 107.785C20.3745 107.943 20.3745 108.202 20.5329 108.361C20.6624 108.49 20.864 108.519 21.0224 108.433C20.8784 108.49 20.7056 108.462 20.5904 108.346Z" fill="url(#paint51_linear_11741_195732)"/>
<path d="M20.9692 107.972C21.0169 107.972 21.0556 107.933 21.0556 107.886C21.0556 107.838 21.0169 107.799 20.9692 107.799C20.9215 107.799 20.8828 107.838 20.8828 107.886C20.8828 107.933 20.9215 107.972 20.9692 107.972Z" fill="white" fill-opacity="0.3"/>
<path d="M19.7789 109.427C19.946 109.427 20.0813 109.291 20.0813 109.124C20.0813 108.957 19.946 108.822 19.7789 108.822C19.6119 108.822 19.4766 108.957 19.4766 109.124C19.4766 109.291 19.6119 109.427 19.7789 109.427Z" fill="white" fill-opacity="0.2"/>
<path d="M19.6062 109.311C19.491 109.196 19.491 108.994 19.6062 108.879C19.6206 108.865 19.6493 108.85 19.6637 108.836C19.6206 108.85 19.5918 108.879 19.563 108.908C19.4478 109.023 19.4478 109.225 19.563 109.34C19.6637 109.441 19.8077 109.455 19.9373 109.383C19.8221 109.426 19.6925 109.397 19.6062 109.311Z" fill="url(#paint52_linear_11741_195732)"/>
<path d="M19.8623 109.023C19.8941 109.023 19.9199 108.997 19.9199 108.965C19.9199 108.934 19.8941 108.908 19.8623 108.908C19.8305 108.908 19.8047 108.934 19.8047 108.965C19.8047 108.997 19.8305 109.023 19.8623 109.023Z" fill="white" fill-opacity="0.3"/>
<path d="M21.6071 109.21C21.7741 109.21 21.9094 109.075 21.9094 108.908C21.9094 108.741 21.7741 108.606 21.6071 108.606C21.44 108.606 21.3047 108.741 21.3047 108.908C21.3047 109.075 21.44 109.21 21.6071 109.21Z" fill="white" fill-opacity="0.2"/>
<path d="M21.4343 109.095C21.3191 108.98 21.3191 108.779 21.4343 108.663C21.4487 108.649 21.4775 108.635 21.4919 108.62C21.4487 108.635 21.4199 108.663 21.3911 108.692C21.2759 108.807 21.2759 109.009 21.3911 109.124C21.4919 109.225 21.6359 109.239 21.7655 109.167C21.6503 109.211 21.5207 109.182 21.4343 109.095Z" fill="url(#paint53_linear_11741_195732)"/>
<path d="M21.7295 108.807C21.7613 108.807 21.7871 108.781 21.7871 108.749C21.7871 108.717 21.7613 108.692 21.7295 108.692C21.6976 108.692 21.6719 108.717 21.6719 108.749C21.6719 108.781 21.6976 108.807 21.7295 108.807Z" fill="white" fill-opacity="0.3"/>
<path d="M16.967 108.548C17.3329 108.548 17.6294 108.251 17.6294 107.886C17.6294 107.52 17.3329 107.223 16.967 107.223C16.6013 107.223 16.3047 107.52 16.3047 107.886C16.3047 108.251 16.6013 108.548 16.967 108.548Z" fill="white" fill-opacity="0.2"/>
<path d="M16.6323 108.304C16.3732 108.044 16.3732 107.627 16.6323 107.368C16.6755 107.324 16.7187 107.296 16.7763 107.267C16.6899 107.296 16.6179 107.353 16.5459 107.411C16.2868 107.67 16.2868 108.088 16.5459 108.347C16.7619 108.563 17.0931 108.606 17.3523 108.448C17.1075 108.548 16.8195 108.505 16.6323 108.304Z" fill="url(#paint54_linear_11741_195732)"/>
<path d="M17.2065 107.684C17.286 107.684 17.3505 107.62 17.3505 107.54C17.3505 107.461 17.286 107.396 17.2065 107.396C17.127 107.396 17.0625 107.461 17.0625 107.54C17.0625 107.62 17.127 107.684 17.2065 107.684Z" fill="white" fill-opacity="0.3"/>
<path d="M22.8967 106.921C23.2626 106.921 23.5591 106.624 23.5591 106.259C23.5591 105.893 23.2626 105.596 22.8967 105.596C22.531 105.596 22.2344 105.893 22.2344 106.259C22.2344 106.624 22.531 106.921 22.8967 106.921Z" fill="white" fill-opacity="0.2"/>
<path d="M22.5073 106.676C22.2482 106.417 22.2482 106 22.5073 105.74C22.5505 105.697 22.5937 105.668 22.6513 105.64C22.5649 105.668 22.4929 105.726 22.4209 105.784C22.1618 106.043 22.1618 106.46 22.4209 106.72C22.6369 106.936 22.9681 106.979 23.2273 106.82C22.9825 106.921 22.7089 106.878 22.5073 106.676Z" fill="url(#paint55_linear_11741_195732)"/>
<path d="M23.1362 106.057C23.2157 106.057 23.2802 105.993 23.2802 105.913C23.2802 105.834 23.2157 105.769 23.1362 105.769C23.0567 105.769 22.9922 105.834 22.9922 105.913C22.9922 105.993 23.0567 106.057 23.1362 106.057Z" fill="white" fill-opacity="0.3"/>
</g>
<path d="M29.2339 113.345L5.71094 92.0973L23.2469 80.3857L43.3327 98.5467L29.2339 113.345Z" fill="url(#paint56_linear_11741_195732)"/>
<path d="M5.71336 92.0973L-2.52344 105.934L18.2123 124.907L29.2364 113.346L5.71336 92.0973Z" fill="url(#paint57_linear_11741_195732)"/>
<g filter="url(#filter7_f_11741_195732)">
<path d="M380.969 218.963C347.483 218.963 320.337 193.602 320.337 162.318C320.337 131.033 347.483 105.672 380.969 105.672C414.456 105.672 441.602 131.033 441.602 162.318C441.602 193.602 414.456 218.963 380.969 218.963Z" fill="url(#paint58_radial_11741_195732)"/>
<path d="M380.969 218.963C347.483 218.963 320.337 193.602 320.337 162.318C320.337 131.033 347.483 105.672 380.969 105.672C414.456 105.672 441.602 131.033 441.602 162.318C441.602 193.602 414.456 218.963 380.969 218.963Z" fill="url(#paint59_radial_11741_195732)"/>
</g>
<path d="M347.73 -6.68188L189.605 129.107L224.902 309.029L529.352 11.3166L347.73 -6.68188Z" stroke="url(#paint60_linear_11741_195732)" stroke-width="0.124989" stroke-miterlimit="10"/>
<path d="M493.555 7.76685L217.391 270.707" stroke="url(#paint61_linear_11741_195732)" stroke-width="0.124989" stroke-miterlimit="10"/>
<path d="M464.07 4.85461L211.417 240.272" stroke="url(#paint62_linear_11741_195732)" stroke-width="0.124989" stroke-miterlimit="10"/>
<path d="M439.375 2.40491L206.557 215.512" stroke="url(#paint63_linear_11741_195732)" stroke-width="0.124989" stroke-miterlimit="10"/>
<path d="M418.375 0.317505L202.531 194.976" stroke="url(#paint64_linear_11741_195732)" stroke-width="0.124989" stroke-miterlimit="10"/>
<path d="M400.305 -1.46985L199.134 177.653" stroke="url(#paint65_linear_11741_195732)" stroke-width="0.124989" stroke-miterlimit="10"/>
<path d="M384.594 -3.03223L196.235 162.866" stroke="url(#paint66_linear_11741_195732)" stroke-width="0.124989" stroke-miterlimit="10"/>
<path d="M370.789 -4.39453L193.717 150.092" stroke="url(#paint67_linear_11741_195732)" stroke-width="0.124989" stroke-miterlimit="10"/>
<path d="M358.594 -5.60693L191.533 138.931" stroke="url(#paint68_linear_11741_195732)" stroke-width="0.124989" stroke-miterlimit="10"/>
<path d="M215.88 106.546L279.75 255.396" stroke="url(#paint69_linear_11741_195732)" stroke-width="0.124989" stroke-miterlimit="10"/>
<path d="M228.738 95.4971L305.906 229.811" stroke="url(#paint70_linear_11741_195732)" stroke-width="0.124989" stroke-miterlimit="10"/>
<path d="M241.378 84.6229L331.258 205" stroke="url(#paint71_linear_11741_195732)" stroke-width="0.124989" stroke-miterlimit="10"/>
<path d="M253.89 73.8988L355.906 180.927" stroke="url(#paint72_linear_11741_195732)" stroke-width="0.124989" stroke-miterlimit="10"/>
<path d="M266.202 63.3247L379.805 157.554" stroke="url(#paint73_linear_11741_195732)" stroke-width="0.124989" stroke-miterlimit="10"/>
<path d="M278.351 52.9006L403.016 134.856" stroke="url(#paint74_linear_11741_195732)" stroke-width="0.124989" stroke-miterlimit="10"/>
<path d="M290.315 42.6265L425.578 112.808" stroke="url(#paint75_linear_11741_195732)" stroke-width="0.124989" stroke-miterlimit="10"/>
<path d="M302.109 32.4899L447.484 91.3724" stroke="url(#paint76_linear_11741_195732)" stroke-width="0.124989" stroke-miterlimit="10"/>
<path d="M313.763 22.4907L468.812 70.5242" stroke="url(#paint77_linear_11741_195732)" stroke-width="0.124989" stroke-miterlimit="10"/>
<path opacity="0.5" d="M339.086 82.5856L363.047 97.2093L336.612 121.682L315.501 104.171L339.086 82.5856Z" fill="white" fill-opacity="0.06"/>
<path opacity="0.1" d="M287.851 52.1132L295.75 57.6127L282.364 69.2867L275.039 63.2122L287.851 52.1132Z" fill="url(#paint78_linear_11741_195732)"/>
<g opacity="0.16" filter="url(#filter8_f_11741_195732)">
<path d="M254.593 73.3489C256.805 75.8987 274.204 64.4872 293.452 47.8511C312.701 31.215 326.524 15.6663 324.325 13.104C322.112 10.5542 304.714 21.9658 285.465 38.6019C266.217 55.238 252.381 70.7992 254.593 73.3489Z" fill="url(#paint79_linear_11741_195732)"/>
</g>
<g filter="url(#filter9_f_11741_195732)">
<path d="M249.813 115.095C251.025 116.508 257.787 112.658 264.899 106.521C272.011 100.372 276.798 94.2471 275.586 92.8473C274.373 91.4349 267.611 95.2845 260.499 101.422C253.375 107.571 248.601 113.696 249.813 115.095Z" fill="url(#paint80_linear_11741_195732)"/>
</g>
<g filter="url(#filter10_f_11741_195732)">
<path d="M327.588 68.5118C326.813 69.9367 331 73.6864 336.924 76.8986C342.849 80.1108 348.273 81.5607 349.048 80.1483C349.823 78.7234 345.636 74.9738 339.712 71.7615C333.787 68.5493 328.363 67.0869 327.588 68.5118Z" fill="url(#paint81_linear_11741_195732)"/>
</g>
<path opacity="0.5" d="M319.385 122.32C319.422 122.32 319.472 122.307 319.51 122.27L332.309 111.521L359.094 86.4853C359.131 86.4478 359.156 86.3854 359.156 86.3229C359.144 86.2604 359.119 86.2104 359.069 86.1854L336.446 72.8115C336.358 72.7615 336.246 72.7865 336.183 72.874C336.133 72.9615 336.158 73.074 336.246 73.1365L358.656 86.3854L332.059 111.246L319.385 121.895L313.323 116.67C313.248 116.608 313.123 116.608 313.06 116.695C312.998 116.77 312.998 116.895 313.085 116.958L319.272 122.295C319.297 122.307 319.335 122.32 319.385 122.32Z" fill="white"/>
<path opacity="0.5" d="M260.58 105.659C260.605 105.659 260.643 105.646 260.668 105.621L282.704 85.9103L288.053 90.9474C288.103 90.9974 288.178 90.9974 288.228 90.9474C288.278 90.8974 288.278 90.8224 288.228 90.7724L282.791 85.6603C282.741 85.6103 282.666 85.6103 282.616 85.6603L260.493 105.459C260.443 105.509 260.443 105.584 260.48 105.634C260.518 105.646 260.543 105.659 260.58 105.659Z" fill="white"/>
<g filter="url(#filter11_f_11741_195732)">
<path d="M259.746 108.712C258.496 108.712 257.483 107.699 257.483 106.449C257.483 105.2 258.496 104.187 259.746 104.187C260.995 104.187 262.008 105.2 262.008 106.449C262.008 107.699 260.995 108.712 259.746 108.712Z" fill="url(#paint82_linear_11741_195732)"/>
<path d="M313.324 119.495C312.074 119.495 311.061 118.482 311.061 117.233C311.061 115.983 312.074 114.97 313.324 114.97C314.573 114.97 315.586 115.983 315.586 117.233C315.586 118.482 314.573 119.495 313.324 119.495Z" fill="url(#paint83_linear_11741_195732)"/>
</g>
<path d="M314.315 71.0741L339.5 48.2385L319.639 40.2642L298.166 59.0001L314.315 71.0741Z" fill="url(#paint84_linear_11741_195732)"/>
<path d="M339.501 47.901L348.188 62.4998L326.302 82.5106L314.315 71.0741L339.501 47.901Z" fill="url(#paint85_linear_11741_195732)"/>
<path opacity="0.74" d="M298.17 58.6626L309.219 70.5866L326.305 82.5106L314.318 71.0741L298.17 58.6626Z" fill="url(#paint86_linear_11741_195732)"/>
<path opacity="0.06" d="M257.997 79.7358L275.195 97.2094L251.435 118.108L235.874 98.9217L257.997 79.7358Z" fill="url(#paint87_linear_11741_195732)"/>
<path d="M241.084 98.7967L257.883 84.4604L250.571 78.3734L235.147 90.8724L241.084 98.7967Z" fill="url(#paint88_linear_11741_195732)"/>
<path d="M257.746 84.3229L268.883 97.9092L252.059 112.733L240.76 98.7717L257.746 84.3229Z" fill="url(#paint89_linear_11741_195732)"/>
<g opacity="0.75" filter="url(#filter12_d_11741_195732)">
<path d="M294.171 95.186C294.373 94.4228 295.021 93.6597 296.187 92.8101C297.123 92.1334 298.117 91.7446 298.909 91.7446C299.067 91.7446 299.211 91.759 299.355 91.7878C299.715 91.8598 300.032 92.119 300.233 92.5078C300.478 92.9685 300.536 93.5877 300.377 93.9621C300.32 94.0772 300.248 94.2212 300.161 94.3508C300.925 94.8116 301.356 94.9412 301.414 94.9556C299.427 95.6179 297.771 97.0002 296.734 98.8001L296.72 98.6273C296.677 98.1521 296.533 97.605 296.331 97.0434C296.13 97.101 295.928 97.1298 295.727 97.1298C295.194 97.1298 294.733 96.9138 294.445 96.525C294.157 96.1363 294.042 95.6179 294.171 95.186Z" fill="#5E12A0"/>
<path d="M296.227 96.6259C294.917 96.9859 294.384 95.978 294.557 95.3013C294.744 94.6245 295.349 93.9334 296.415 93.1558C297.48 92.3783 298.56 92.0615 299.251 92.2055C299.942 92.3495 300.144 93.4006 299.971 93.8038C299.899 93.9622 299.741 94.1925 299.525 94.4517C299.798 94.6389 300.057 94.7829 300.273 94.9125C298.949 95.5028 297.797 96.4244 296.933 97.5763C296.832 97.1875 296.688 96.8419 296.559 96.5396C296.458 96.554 296.343 96.5827 296.227 96.6259Z" fill="url(#paint90_radial_11741_195732)"/>
<path d="M303.709 110.737C299.264 110.737 295.66 107.133 295.66 102.688C295.66 98.2423 299.264 94.6387 303.709 94.6387C308.154 94.6387 311.758 98.2423 311.758 102.688C311.758 107.133 308.154 110.737 303.709 110.737Z" fill="url(#paint91_radial_11741_195732)"/>
<path d="M295.209 94.6391C296.303 93.4872 297.225 93.1848 298.334 92.94C299.198 92.7384 298.967 92.2489 297.916 92.3497C298.42 92.1769 298.895 92.1337 299.241 92.2057C299.932 92.3497 300.133 93.4008 299.961 93.804C299.889 93.9623 299.73 94.1927 299.514 94.4519C299.903 94.7111 300.234 94.8983 300.508 95.0423C300.378 95.0999 300.22 95.1718 300.033 95.2726C299.543 95.5318 299.01 95.9638 299.01 95.9638C299.817 95.2726 299.644 94.9559 298.535 94.1783C298.19 93.9335 297.556 93.9623 296.966 94.2647C296.375 94.5671 295.684 95.3302 295.684 95.3302L296.347 96.5973C296.303 96.6117 296.26 96.6261 296.217 96.6405C295.799 96.7557 295.468 96.7269 295.209 96.6261C294.907 96.4389 294.115 95.8054 295.209 94.6391Z" fill="#A98698" fill-opacity="0.6"/>
<path d="M298.352 93.6311C298.064 93.7463 297.69 93.9479 297.229 94.2502C296.682 94.6102 296.207 95.0134 295.904 95.3302C296.408 95.9925 296.739 96.8996 296.941 97.5332C296.84 97.6772 296.725 97.8212 296.624 97.9652C296.523 97.6052 296.351 97.0724 296.12 96.5397C296.063 96.5541 295.991 96.5541 295.919 96.5541C295.746 96.5541 295.544 96.5253 295.386 96.3957C295.271 96.3093 295.141 96.1509 295.155 95.8629C295.155 95.5893 295.371 95.2438 295.818 94.8262C296.135 94.5238 296.567 94.1927 296.998 93.8903C298.237 93.0695 299.101 92.8392 299.489 93.2279C299.749 93.4871 299.72 93.8039 299.633 94.0343C300.094 94.3366 300.483 94.5526 300.742 94.6966C300.569 94.7542 300.411 94.8262 300.238 94.8982C299.777 94.6534 299.115 94.2358 298.352 93.6311ZM295.631 95.6901C295.587 95.7621 295.573 95.8341 295.573 95.8773C295.573 96.0069 295.616 96.0501 295.645 96.0789C295.703 96.1221 295.818 96.1509 295.919 96.1509C295.832 95.9781 295.731 95.8341 295.631 95.6901ZM299.187 93.5447C299.144 93.5015 299.029 93.4727 298.842 93.5015C298.986 93.6167 299.13 93.7175 299.274 93.8183C299.288 93.7175 299.274 93.6167 299.187 93.5447Z" fill="#5E12A0"/>
<path d="M303.702 94.1635C308.411 94.1635 312.227 97.9791 312.227 102.688C312.227 107.396 308.411 111.212 303.702 111.212C298.994 111.212 295.178 107.396 295.178 102.688C295.178 97.9791 299.008 94.1635 303.702 94.1635ZM303.702 110.737C308.152 110.737 311.751 107.137 311.751 102.688C311.751 98.2383 308.152 94.6386 303.702 94.6386C299.253 94.6386 295.654 98.2383 295.654 102.688C295.654 107.137 299.268 110.737 303.702 110.737Z" fill="#5E12A0"/>
<path d="M303.709 110.737C299.264 110.737 295.66 107.133 295.66 102.688C295.66 98.2423 299.264 94.6387 303.709 94.6387C308.154 94.6387 311.758 98.2423 311.758 102.688C311.758 107.133 308.154 110.737 303.709 110.737Z" fill="url(#paint92_linear_11741_195732)"/>
<path d="M303.764 109.758C308.156 109.052 311.136 104.92 310.416 100.528C310.099 98.5841 309.12 96.9283 307.738 95.7332C309.754 96.8995 311.251 98.9297 311.654 101.406C312.36 105.798 309.379 109.93 305.002 110.636C302.554 111.039 300.193 110.276 298.451 108.779C299.991 109.671 301.863 110.06 303.764 109.758Z" fill="#A98698" fill-opacity="0.6"/>
<path d="M302.449 94.7538C304.479 94.4226 306.452 94.8834 308.065 95.9057C308.093 95.9345 308.122 95.9633 308.122 95.9633C307.503 95.5889 306.596 95.2577 306.596 95.2577C308.928 96.6112 309.648 98.1519 309.648 98.1519C308.741 96.3952 306.078 95.1569 303.99 95.0706C301.902 94.9842 300.534 95.6033 298.864 96.9424C297.193 98.2959 296.186 101.06 296.286 103.249C296.373 105.438 297.525 107.209 297.525 107.209C296.733 106.186 296.258 105.438 295.955 104.675C295.898 104.444 295.84 104.214 295.811 103.969C295.091 99.5918 298.057 95.4593 302.449 94.7538Z" fill="url(#paint93_linear_11741_195732)"/>
<path d="M296.108 102.615C296.108 106.834 299.535 110.261 303.754 110.261C307.973 110.261 311.414 106.834 311.414 102.615H296.108Z" fill="url(#paint94_linear_11741_195732)"/>
<path d="M296.68 102.615C296.68 106.734 299.934 110.103 304.023 110.261H303.721C299.502 110.261 296.075 106.834 296.075 102.615H296.68Z" fill="url(#paint95_linear_11741_195732)"/>
<path d="M310.334 102.615H311.414C311.414 106.834 307.987 110.261 303.768 110.261C303.581 110.261 303.408 110.261 303.236 110.247C307.195 109.959 310.334 106.647 310.334 102.615Z" fill="url(#paint96_linear_11741_195732)"/>
<path d="M296.122 102.688C296.122 101.809 297.649 101.305 299.679 101.132C301.148 101.017 302.631 101.161 304.33 101.68C305.799 102.112 307.123 102.04 308.088 101.924C310.233 101.68 311.414 101.651 311.414 102.688C311.414 104.185 308.362 106.057 303.783 105.409C301.464 105.078 300.269 104.401 298.901 103.94C297.418 103.451 296.122 103.465 296.122 102.688Z" fill="url(#paint97_linear_11741_195732)"/>
<path d="M301.228 99.0593C300.512 99.0593 299.932 98.4792 299.932 97.7634C299.932 97.0477 300.512 96.4675 301.228 96.4675C301.943 96.4675 302.523 97.0477 302.523 97.7634C302.523 98.4792 301.943 99.0593 301.228 99.0593Z" fill="white"/>
<path d="M299.101 100.024C298.799 100.024 298.554 99.7788 298.554 99.4766C298.554 99.1744 298.799 98.9294 299.101 98.9294C299.404 98.9294 299.648 99.1744 299.648 99.4766C299.648 99.7788 299.404 100.024 299.101 100.024Z" fill="white"/>
<path d="M297.144 96.7265H297.173C297.259 96.7121 297.317 96.6257 297.302 96.5249C297.173 95.8626 296.626 95.229 296.597 95.2002C296.539 95.1282 296.424 95.1282 296.367 95.1858C296.295 95.2434 296.295 95.3586 296.352 95.4162C296.367 95.4306 296.871 96.021 296.986 96.5969C297 96.6833 297.072 96.7265 297.144 96.7265Z" fill="url(#paint98_linear_11741_195732)"/>
<path d="M304.245 108.692C304.023 108.692 303.842 108.511 303.842 108.289C303.842 108.066 304.023 107.886 304.245 107.886C304.468 107.886 304.648 108.066 304.648 108.289C304.648 108.511 304.468 108.692 304.245 108.692Z" fill="white" fill-opacity="0.2"/>
<path d="M304.519 108.548C304.677 108.39 304.677 108.131 304.519 107.972C304.49 107.943 304.461 107.929 304.433 107.9C304.49 107.915 304.533 107.943 304.577 107.987C304.735 108.145 304.735 108.404 304.577 108.563C304.447 108.692 304.245 108.721 304.087 108.635C304.231 108.692 304.404 108.663 304.519 108.548Z" fill="url(#paint99_linear_11741_195732)"/>
<path d="M304.14 108.174C304.093 108.174 304.054 108.135 304.054 108.087C304.054 108.04 304.093 108.001 304.14 108.001C304.188 108.001 304.227 108.04 304.227 108.087C304.227 108.135 304.188 108.174 304.14 108.174Z" fill="white" fill-opacity="0.3"/>
<path d="M302.136 108.49C301.913 108.49 301.733 108.31 301.733 108.087C301.733 107.864 301.913 107.684 302.136 107.684C302.359 107.684 302.539 107.864 302.539 108.087C302.539 108.31 302.359 108.49 302.136 108.49Z" fill="white" fill-opacity="0.2"/>
<path d="M302.363 108.346C302.521 108.188 302.521 107.929 302.363 107.77C302.334 107.742 302.305 107.727 302.276 107.698C302.334 107.713 302.377 107.742 302.42 107.785C302.579 107.943 302.579 108.202 302.42 108.361C302.291 108.49 302.089 108.519 301.931 108.433C302.075 108.49 302.247 108.462 302.363 108.346Z" fill="url(#paint100_linear_11741_195732)"/>
<path d="M301.984 107.972C301.936 107.972 301.898 107.933 301.898 107.886C301.898 107.838 301.936 107.799 301.984 107.799C302.032 107.799 302.07 107.838 302.07 107.886C302.07 107.933 302.032 107.972 301.984 107.972Z" fill="white" fill-opacity="0.3"/>
<path d="M303.174 109.427C303.007 109.427 302.872 109.291 302.872 109.124C302.872 108.957 303.007 108.822 303.174 108.822C303.341 108.822 303.477 108.957 303.477 109.124C303.477 109.291 303.341 109.427 303.174 109.427Z" fill="white" fill-opacity="0.2"/>
<path d="M303.347 109.311C303.462 109.196 303.462 108.994 303.347 108.879C303.333 108.865 303.304 108.85 303.289 108.836C303.333 108.85 303.361 108.879 303.39 108.908C303.505 109.023 303.505 109.225 303.39 109.34C303.289 109.441 303.145 109.455 303.016 109.383C303.131 109.426 303.261 109.397 303.347 109.311Z" fill="url(#paint101_linear_11741_195732)"/>
<path d="M303.091 109.023C303.059 109.023 303.033 108.997 303.033 108.965C303.033 108.934 303.059 108.908 303.091 108.908C303.123 108.908 303.148 108.934 303.148 108.965C303.148 108.997 303.123 109.023 303.091 109.023Z" fill="white" fill-opacity="0.3"/>
<path d="M301.346 109.21C301.179 109.21 301.044 109.075 301.044 108.908C301.044 108.741 301.179 108.606 301.346 108.606C301.513 108.606 301.648 108.741 301.648 108.908C301.648 109.075 301.513 109.21 301.346 109.21Z" fill="white" fill-opacity="0.2"/>
<path d="M301.519 109.095C301.634 108.98 301.634 108.779 301.519 108.663C301.504 108.649 301.476 108.635 301.461 108.62C301.504 108.635 301.533 108.663 301.562 108.692C301.677 108.807 301.677 109.009 301.562 109.124C301.461 109.225 301.317 109.239 301.188 109.167C301.303 109.211 301.432 109.182 301.519 109.095Z" fill="url(#paint102_linear_11741_195732)"/>
<path d="M301.224 108.807C301.192 108.807 301.166 108.781 301.166 108.749C301.166 108.717 301.192 108.692 301.224 108.692C301.255 108.692 301.281 108.717 301.281 108.749C301.281 108.781 301.255 108.807 301.224 108.807Z" fill="white" fill-opacity="0.3"/>
<path d="M305.986 108.548C305.62 108.548 305.324 108.251 305.324 107.886C305.324 107.52 305.62 107.223 305.986 107.223C306.352 107.223 306.648 107.52 306.648 107.886C306.648 108.251 306.352 108.548 305.986 108.548Z" fill="white" fill-opacity="0.2"/>
<path d="M306.321 108.304C306.58 108.044 306.58 107.627 306.321 107.368C306.278 107.324 306.234 107.296 306.177 107.267C306.263 107.296 306.335 107.353 306.407 107.411C306.666 107.67 306.666 108.088 306.407 108.347C306.191 108.563 305.86 108.606 305.601 108.448C305.846 108.548 306.134 108.505 306.321 108.304Z" fill="url(#paint103_linear_11741_195732)"/>
<path d="M305.747 107.684C305.667 107.684 305.603 107.62 305.603 107.54C305.603 107.461 305.667 107.396 305.747 107.396C305.826 107.396 305.891 107.461 305.891 107.54C305.891 107.62 305.826 107.684 305.747 107.684Z" fill="white" fill-opacity="0.3"/>
<path d="M300.056 106.921C299.691 106.921 299.394 106.624 299.394 106.259C299.394 105.893 299.691 105.596 300.056 105.596C300.422 105.596 300.719 105.893 300.719 106.259C300.719 106.624 300.422 106.921 300.056 106.921Z" fill="white" fill-opacity="0.2"/>
<path d="M300.446 106.676C300.705 106.417 300.705 106 300.446 105.74C300.403 105.697 300.359 105.668 300.302 105.64C300.388 105.668 300.46 105.726 300.532 105.784C300.791 106.043 300.791 106.46 300.532 106.72C300.316 106.936 299.985 106.979 299.726 106.82C299.971 106.921 300.244 106.878 300.446 106.676Z" fill="url(#paint104_linear_11741_195732)"/>
<path d="M299.817 106.057C299.737 106.057 299.673 105.993 299.673 105.913C299.673 105.834 299.737 105.769 299.817 105.769C299.896 105.769 299.961 105.834 299.961 105.913C299.961 105.993 299.896 106.057 299.817 106.057Z" fill="white" fill-opacity="0.3"/>
</g>
<path d="M293.719 113.345L317.242 92.0973L299.706 80.3857L279.62 98.5467L293.719 113.345Z" fill="url(#paint105_linear_11741_195732)"/>
<path d="M317.24 92.0973L325.477 105.934L304.741 124.907L293.717 113.346L317.24 92.0973Z" fill="url(#paint106_linear_11741_195732)"/>
</g>
<defs>
<filter id="filter0_f_11741_195732" x="34.7578" y="-77.7812" width="252.18" height="246.188" filterUnits="userSpaceOnUse" color-interpolation-filters="sRGB">
<feFlood flood-opacity="0" result="BackgroundImageFix"/>
<feBlend mode="normal" in="SourceGraphic" in2="BackgroundImageFix" result="shape"/>
<feGaussianBlur stdDeviation="4" result="effect1_foregroundBlur_11741_195732"/>
</filter>
<filter id="filter1_f_11741_195732" x="-142.648" y="81.6725" width="169.266" height="161.291" filterUnits="userSpaceOnUse" color-interpolation-filters="sRGB">
<feFlood flood-opacity="0" result="BackgroundImageFix"/>
<feBlend mode="normal" in="SourceGraphic" in2="BackgroundImageFix" result="shape"/>
<feGaussianBlur stdDeviation="12" result="effect1_foregroundBlur_11741_195732"/>
</filter>
<filter id="filter2_f_11741_195732" x="-17.6016" y="-3.25219" width="102.195" height="92.9574" filterUnits="userSpaceOnUse" color-interpolation-filters="sRGB">
<feFlood flood-opacity="0" result="BackgroundImageFix"/>
<feBlend mode="normal" in="SourceGraphic" in2="BackgroundImageFix" result="shape"/>
<feGaussianBlur stdDeviation="8" result="effect1_foregroundBlur_11741_195732"/>
</filter>
<filter id="filter3_f_11741_195732" x="23.1797" y="68.5553" width="74.1484" height="70.832" filterUnits="userSpaceOnUse" color-interpolation-filters="sRGB">
<feFlood flood-opacity="0" result="BackgroundImageFix"/>
<feBlend mode="normal" in="SourceGraphic" in2="BackgroundImageFix" result="shape"/>
<feGaussianBlur stdDeviation="12" result="effect1_foregroundBlur_11741_195732"/>
</filter>
<filter id="filter4_f_11741_195732" x="-50.1875" y="43.966" width="69.6484" height="60.7229" filterUnits="userSpaceOnUse" color-interpolation-filters="sRGB">
<feFlood flood-opacity="0" result="BackgroundImageFix"/>
<feBlend mode="normal" in="SourceGraphic" in2="BackgroundImageFix" result="shape"/>
<feGaussianBlur stdDeviation="12" result="effect1_foregroundBlur_11741_195732"/>
</filter>
<filter id="filter5_f_11741_195732" x="-17.328" y="69.6117" width="84.2966" height="51.3832" filterUnits="userSpaceOnUse" color-interpolation-filters="sRGB">
<feFlood flood-opacity="0" result="BackgroundImageFix"/>
<feBlend mode="normal" in="SourceGraphic" in2="BackgroundImageFix" result="shape"/>
<feGaussianBlur stdDeviation="0.749937" result="effect1_foregroundBlur_11741_195732"/>
</filter>
<filter id="filter6_d_11741_195732" x="6.72656" y="89.7446" width="26.1094" height="27.467" filterUnits="userSpaceOnUse" color-interpolation-filters="sRGB">
<feFlood flood-opacity="0" result="BackgroundImageFix"/>
<feColorMatrix in="SourceAlpha" type="matrix" values="0 0 0 0 0 0 0 0 0 0 0 0 0 0 0 0 0 0 127 0" result="hardAlpha"/>
<feOffset dy="2"/>
<feGaussianBlur stdDeviation="2"/>
<feComposite in2="hardAlpha" operator="out"/>
<feColorMatrix type="matrix" values="0 0 0 0 0 0 0 0 0 0 0 0 0 0 0 0 0 0 0.5 0"/>
<feBlend mode="normal" in2="BackgroundImageFix" result="effect1_dropShadow_11741_195732"/>
<feBlend mode="normal" in="SourceGraphic" in2="effect1_dropShadow_11741_195732" result="shape"/>
</filter>
<filter id="filter7_f_11741_195732" x="296.336" y="81.6725" width="169.266" height="161.291" filterUnits="userSpaceOnUse" color-interpolation-filters="sRGB">
<feFlood flood-opacity="0" result="BackgroundImageFix"/>
<feBlend mode="normal" in="SourceGraphic" in2="BackgroundImageFix" result="shape"/>
<feGaussianBlur stdDeviation="12" result="effect1_foregroundBlur_11741_195732"/>
</filter>
<filter id="filter8_f_11741_195732" x="238.359" y="-3.25219" width="102.195" height="92.9574" filterUnits="userSpaceOnUse" color-interpolation-filters="sRGB">
<feFlood flood-opacity="0" result="BackgroundImageFix"/>
<feBlend mode="normal" in="SourceGraphic" in2="BackgroundImageFix" result="shape"/>
<feGaussianBlur stdDeviation="8" result="effect1_foregroundBlur_11741_195732"/>
</filter>
<filter id="filter9_f_11741_195732" x="225.625" y="68.5553" width="74.1484" height="70.832" filterUnits="userSpaceOnUse" color-interpolation-filters="sRGB">
<feFlood flood-opacity="0" result="BackgroundImageFix"/>
<feBlend mode="normal" in="SourceGraphic" in2="BackgroundImageFix" result="shape"/>
<feGaussianBlur stdDeviation="12" result="effect1_foregroundBlur_11741_195732"/>
</filter>
<filter id="filter10_f_11741_195732" x="303.492" y="43.966" width="69.6484" height="60.7229" filterUnits="userSpaceOnUse" color-interpolation-filters="sRGB">
<feFlood flood-opacity="0" result="BackgroundImageFix"/>
<feBlend mode="normal" in="SourceGraphic" in2="BackgroundImageFix" result="shape"/>
<feGaussianBlur stdDeviation="12" result="effect1_foregroundBlur_11741_195732"/>
</filter>
<filter id="filter11_f_11741_195732" x="255.985" y="69.6117" width="84.2966" height="51.3832" filterUnits="userSpaceOnUse" color-interpolation-filters="sRGB">
<feFlood flood-opacity="0" result="BackgroundImageFix"/>
<feBlend mode="normal" in="SourceGraphic" in2="BackgroundImageFix" result="shape"/>
<feGaussianBlur stdDeviation="0.749937" result="effect1_foregroundBlur_11741_195732"/>
</filter>
<filter id="filter12_d_11741_195732" x="290.117" y="89.7446" width="26.1094" height="27.467" filterUnits="userSpaceOnUse" color-interpolation-filters="sRGB">
<feFlood flood-opacity="0" result="BackgroundImageFix"/>
<feColorMatrix in="SourceAlpha" type="matrix" values="0 0 0 0 0 0 0 0 0 0 0 0 0 0 0 0 0 0 127 0" result="hardAlpha"/>
<feOffset dy="2"/>
<feGaussianBlur stdDeviation="2"/>
<feComposite in2="hardAlpha" operator="out"/>
<feColorMatrix type="matrix" values="0 0 0 0 0 0 0 0 0 0 0 0 0 0 0 0 0 0 0.5 0"/>
<feBlend mode="normal" in2="BackgroundImageFix" result="effect1_dropShadow_11741_195732"/>
<feBlend mode="normal" in="SourceGraphic" in2="effect1_dropShadow_11741_195732" result="shape"/>
</filter>
<radialGradient id="paint0_radial_11741_195732" cx="0" cy="0" r="1" gradientUnits="userSpaceOnUse" gradientTransform="translate(223.271 -5.9999) scale(205.44 186.18)">
<stop stop-color="#FFEAFF" stop-opacity="0.6"/>
<stop offset="0.68" stop-color="#A087C9"/>
<stop offset="1" stop-color="#10002F"/>
</radialGradient>
<linearGradient id="paint1_linear_11741_195732" x1="136.893" y1="153.44" x2="164.608" y2="-35.2306" gradientUnits="userSpaceOnUse">
<stop stop-color="#81FFFF" stop-opacity="0.6"/>
<stop offset="0.62" stop-color="white" stop-opacity="0"/>
<stop offset="1" stop-color="white" stop-opacity="0"/>
</linearGradient>
<linearGradient id="paint2_linear_11741_195732" x1="227.72" y1="-5.02325" x2="148.734" y2="74.946" gradientUnits="userSpaceOnUse">
<stop stop-color="white" stop-opacity="0.6"/>
<stop offset="0.29" stop-color="white" stop-opacity="0.6"/>
<stop offset="0.78" stop-color="white" stop-opacity="0"/>
<stop offset="1" stop-color="white" stop-opacity="0"/>
</linearGradient>
<linearGradient id="paint3_linear_11741_195732" x1="53.3971" y1="103.913" x2="252.971" y2="103.913" gradientUnits="userSpaceOnUse">
<stop stop-color="#0002E9"/>
<stop offset="1" stop-color="#FF00C7"/>
</linearGradient>
<linearGradient id="paint4_linear_11741_195732" x1="263.019" y1="66.6952" x2="164.504" y2="169.429" gradientUnits="userSpaceOnUse">
<stop stop-color="white" stop-opacity="0.6"/>
<stop offset="0.29" stop-color="white" stop-opacity="0.6"/>
<stop offset="0.78" stop-color="white" stop-opacity="0"/>
<stop offset="1" stop-color="white" stop-opacity="0"/>
</linearGradient>
<linearGradient id="paint5_linear_11741_195732" x1="53.3971" y1="103.913" x2="160.169" y2="103.913" gradientUnits="userSpaceOnUse">
<stop stop-color="#000292" stop-opacity="0.7"/>
<stop offset="1" stop-color="#7D00C7" stop-opacity="0.7"/>
</linearGradient>
<linearGradient id="paint6_linear_11741_195732" x1="53.531" y1="67.124" x2="252.839" y2="67.124" gradientUnits="userSpaceOnUse">
<stop stop-color="#000292"/>
<stop offset="1" stop-color="#BE00C7"/>
</linearGradient>
<linearGradient id="paint7_linear_11741_195732" x1="116.093" y1="121.281" x2="129.074" y2="121.281" gradientUnits="userSpaceOnUse">
<stop stop-color="white" stop-opacity="0.6"/>
<stop offset="0.29" stop-color="white" stop-opacity="0.6"/>
<stop offset="0.78" stop-color="white" stop-opacity="0"/>
<stop offset="1" stop-color="white" stop-opacity="0"/>
</linearGradient>
<linearGradient id="paint8_linear_11741_195732" x1="192.884" y1="102.035" x2="205.865" y2="102.035" gradientUnits="userSpaceOnUse">
<stop stop-color="white" stop-opacity="0.6"/>
<stop offset="0.29" stop-color="white" stop-opacity="0.6"/>
<stop offset="0.78" stop-color="white" stop-opacity="0"/>
<stop offset="1" stop-color="white" stop-opacity="0"/>
</linearGradient>
<radialGradient id="paint9_radial_11741_195732" cx="0" cy="0" r="1" gradientUnits="userSpaceOnUse" gradientTransform="translate(-58.0208 162.316) scale(60.632 56.6391)">
<stop stop-color="#BABBBE"/>
<stop offset="0.9337"/>
</radialGradient>
<radialGradient id="paint10_radial_11741_195732" cx="0" cy="0" r="1" gradientUnits="userSpaceOnUse" gradientTransform="translate(2.61624 105.672) rotate(136.027) scale(109.776 109.762)">
<stop stop-color="#FF6230"/>
<stop offset="0.306414" stop-color="#FF9901"/>
<stop offset="0.626843" stop-color="#042D5B"/>
<stop offset="0.819636" stop-color="#1F2E3E"/>
<stop offset="0.964731" stop-color="#1B2229"/>
</radialGradient>
<linearGradient id="paint11_linear_11741_195732" x1="-206.537" y1="151.204" x2="133.421" y2="151.204" gradientUnits="userSpaceOnUse">
<stop stop-color="#5082C1"/>
<stop offset="1" stop-color="#5081C1" stop-opacity="0"/>
</linearGradient>
<linearGradient id="paint12_linear_11741_195732" x1="-170.643" y1="139.243" x2="105.609" y2="139.243" gradientUnits="userSpaceOnUse">
<stop stop-color="#5082C1"/>
<stop offset="1" stop-color="#5081C1" stop-opacity="0"/>
</linearGradient>
<linearGradient id="paint13_linear_11741_195732" x1="-141.161" y1="122.562" x2="111.581" y2="122.562" gradientUnits="userSpaceOnUse">
<stop stop-color="#5082C1"/>
<stop offset="1" stop-color="#5081C1" stop-opacity="0"/>
</linearGradient>
<linearGradient id="paint14_linear_11741_195732" x1="-116.459" y1="108.956" x2="116.437" y2="108.956" gradientUnits="userSpaceOnUse">
<stop stop-color="#5082C1"/>
<stop offset="1" stop-color="#5081C1" stop-opacity="0"/>
</linearGradient>
<linearGradient id="paint15_linear_11741_195732" x1="-95.4583" y1="97.6456" x2="120.469" y2="97.6456" gradientUnits="userSpaceOnUse">
<stop stop-color="#5082C1"/>
<stop offset="1" stop-color="#5081C1" stop-opacity="0"/>
</linearGradient>
<linearGradient id="paint16_linear_11741_195732" x1="-77.3913" y1="88.094" x2="123.863" y2="88.094" gradientUnits="userSpaceOnUse">
<stop stop-color="#5082C1"/>
<stop offset="1" stop-color="#5081C1" stop-opacity="0"/>
</linearGradient>
<linearGradient id="paint17_linear_11741_195732" x1="-61.6777" y1="79.9203" x2="126.765" y2="79.9203" gradientUnits="userSpaceOnUse">
<stop stop-color="#5082C1"/>
<stop offset="1" stop-color="#5081C1" stop-opacity="0"/>
</linearGradient>
<linearGradient id="paint18_linear_11741_195732" x1="-47.8817" y1="72.8463" x2="129.278" y2="72.8463" gradientUnits="userSpaceOnUse">
<stop stop-color="#5082C1"/>
<stop offset="1" stop-color="#5081C1" stop-opacity="0"/>
</linearGradient>
<linearGradient id="paint19_linear_11741_195732" x1="-35.6859" y1="66.6637" x2="131.464" y2="66.6637" gradientUnits="userSpaceOnUse">
<stop stop-color="#5082C1"/>
<stop offset="1" stop-color="#5081C1" stop-opacity="0"/>
</linearGradient>
<linearGradient id="paint20_linear_11741_195732" x1="43.1459" y1="180.971" x2="107.128" y2="180.971" gradientUnits="userSpaceOnUse">
<stop stop-color="#5082C1"/>
<stop offset="1" stop-color="#5081C1" stop-opacity="0"/>
</linearGradient>
<linearGradient id="paint21_linear_11741_195732" x1="16.9906" y1="162.66" x2="94.2739" y2="162.66" gradientUnits="userSpaceOnUse">
<stop stop-color="#5082C1"/>
<stop offset="1" stop-color="#5081C1" stop-opacity="0"/>
</linearGradient>
<linearGradient id="paint22_linear_11741_195732" x1="-8.35816" y1="144.813" x2="81.6215" y2="144.813" gradientUnits="userSpaceOnUse">
<stop stop-color="#5082C1"/>
<stop offset="1" stop-color="#5081C1" stop-opacity="0"/>
</linearGradient>
<linearGradient id="paint23_linear_11741_195732" x1="-32.9997" y1="127.413" x2="69.1025" y2="127.413" gradientUnits="userSpaceOnUse">
<stop stop-color="#5082C1"/>
<stop offset="1" stop-color="#5081C1" stop-opacity="0"/>
</linearGradient>
<linearGradient id="paint24_linear_11741_195732" x1="-56.8953" y1="110.441" x2="56.7853" y2="110.441" gradientUnits="userSpaceOnUse">
<stop stop-color="#5082C1"/>
<stop offset="1" stop-color="#5081C1" stop-opacity="0"/>
</linearGradient>
<linearGradient id="paint25_linear_11741_195732" x1="-80.1016" y1="93.8805" x2="44.6412" y2="93.8805" gradientUnits="userSpaceOnUse">
<stop stop-color="#5082C1"/>
<stop offset="1" stop-color="#5081C1" stop-opacity="0"/>
</linearGradient>
<linearGradient id="paint26_linear_11741_195732" x1="-102.65" y1="77.7153" x2="32.6655" y2="77.7153" gradientUnits="userSpaceOnUse">
<stop stop-color="#5082C1"/>
<stop offset="1" stop-color="#5081C1" stop-opacity="0"/>
</linearGradient>
<linearGradient id="paint27_linear_11741_195732" x1="-124.56" y1="61.9305" x2="20.8625" y2="61.9305" gradientUnits="userSpaceOnUse">
<stop stop-color="#5082C1"/>
<stop offset="1" stop-color="#5081C1" stop-opacity="0"/>
</linearGradient>
<linearGradient id="paint28_linear_11741_195732" x1="-145.874" y1="46.5117" x2="9.21327" y2="46.5117" gradientUnits="userSpaceOnUse">
<stop stop-color="#5082C1"/>
<stop offset="1" stop-color="#5081C1" stop-opacity="0"/>
</linearGradient>
<linearGradient id="paint29_linear_11741_195732" x1="47.9139" y1="60.6999" x2="27.2031" y2="60.6999" gradientUnits="userSpaceOnUse">
<stop stop-color="#007AFF"/>
<stop offset="1" stop-color="#482BFF"/>
</linearGradient>
<linearGradient id="paint30_linear_11741_195732" x1="68.5924" y1="43.2265" x2="-1.60156" y2="43.2265" gradientUnits="userSpaceOnUse">
<stop stop-color="#007AFF"/>
<stop offset="1" stop-color="#482BFF"/>
</linearGradient>
<linearGradient id="paint31_linear_11741_195732" x1="73.3283" y1="103.971" x2="47.1797" y2="103.971" gradientUnits="userSpaceOnUse">
<stop stop-color="#007AFF"/>
<stop offset="1" stop-color="#00B2FF"/>
</linearGradient>
<linearGradient id="paint32_linear_11741_195732" x1="-26.1875" y1="74.3274" x2="-4.5421" y2="74.3274" gradientUnits="userSpaceOnUse">
<stop stop-color="#FFA800"/>
<stop offset="1" stop-color="#FF5107"/>
</linearGradient>
<linearGradient id="paint33_linear_11741_195732" x1="65.4699" y1="106.449" x2="60.9453" y2="106.449" gradientUnits="userSpaceOnUse">
<stop stop-color="#007AFF"/>
<stop offset="1" stop-color="#00B2FF"/>
</linearGradient>
<linearGradient id="paint34_linear_11741_195732" x1="11.8918" y1="117.233" x2="7.36719" y2="117.233" gradientUnits="userSpaceOnUse">
<stop stop-color="#482BFF"/>
<stop offset="1" stop-color="#007AFF"/>
</linearGradient>
<linearGradient id="paint35_linear_11741_195732" x1="-16.5465" y1="55.6689" x2="24.783" y2="55.6689" gradientUnits="userSpaceOnUse">
<stop stop-color="#FFA600"/>
<stop offset="1" stop-color="#FF5306" stop-opacity="0"/>
</linearGradient>
<linearGradient id="paint36_linear_11741_195732" x1="-22.0485" y1="71.8957" x2="6.27814" y2="56.2415" gradientUnits="userSpaceOnUse">
<stop stop-color="#FF5207" stop-opacity="0"/>
<stop offset="1" stop-color="#FFA600" stop-opacity="0.5"/>
</linearGradient>
<linearGradient id="paint37_linear_11741_195732" x1="-3.35441" y1="70.5865" x2="24.7794" y2="70.5865" gradientUnits="userSpaceOnUse">
<stop stop-color="#FFA700"/>
<stop offset="1" stop-color="#FF5306" stop-opacity="0"/>
</linearGradient>
<linearGradient id="paint38_linear_11741_195732" x1="47.7548" y1="98.9233" x2="87.0795" y2="98.9233" gradientUnits="userSpaceOnUse">
<stop stop-color="#5082C1"/>
<stop offset="1" stop-color="#5081C1" stop-opacity="0"/>
</linearGradient>
<linearGradient id="paint39_linear_11741_195732" x1="66.3337" y1="99.1172" x2="81.1948" y2="83.5131" gradientUnits="userSpaceOnUse">
<stop stop-color="#007AFF"/>
<stop offset="1" stop-color="#00B2FF" stop-opacity="0"/>
</linearGradient>
<linearGradient id="paint40_linear_11741_195732" x1="54.0336" y1="80.6003" x2="78.9672" y2="111.974" gradientUnits="userSpaceOnUse">
<stop stop-color="#007AFF" stop-opacity="0.5"/>
<stop offset="1" stop-color="#00B2FF" stop-opacity="0"/>
</linearGradient>
<radialGradient id="paint41_radial_11741_195732" cx="0" cy="0" r="1" gradientUnits="userSpaceOnUse" gradientTransform="translate(28.1334 94.3941) scale(6.43547 6.43548)">
<stop stop-color="#FFEAFF" stop-opacity="0.6"/>
<stop offset="0.68" stop-color="#A087C9"/>
<stop offset="1" stop-color="#10002F"/>
</radialGradient>
<radialGradient id="paint42_radial_11741_195732" cx="0" cy="0" r="1" gradientUnits="userSpaceOnUse" gradientTransform="translate(24.5733 97.1385) scale(15.7453 15.7453)">
<stop stop-color="#FFEAFF" stop-opacity="0.6"/>
<stop offset="0.68" stop-color="#A087C9"/>
<stop offset="1" stop-color="#10002F"/>
</radialGradient>
<linearGradient id="paint43_linear_11741_195732" x1="17.9531" y1="110.622" x2="20.5276" y2="94.7395" gradientUnits="userSpaceOnUse">
<stop stop-color="#81FFFF" stop-opacity="0.6"/>
<stop offset="0.62" stop-color="white" stop-opacity="0"/>
<stop offset="1" stop-color="white" stop-opacity="0"/>
</linearGradient>
<linearGradient id="paint44_linear_11741_195732" x1="24.895" y1="97.2213" x2="18.2393" y2="103.328" gradientUnits="userSpaceOnUse">
<stop stop-color="white" stop-opacity="0.6"/>
<stop offset="0.29" stop-color="white" stop-opacity="0.6"/>
<stop offset="0.78" stop-color="white" stop-opacity="0"/>
<stop offset="1" stop-color="white" stop-opacity="0"/>
</linearGradient>
<linearGradient id="paint45_linear_11741_195732" x1="11.5455" y1="106.434" x2="26.8413" y2="106.434" gradientUnits="userSpaceOnUse">
<stop stop-color="#0002E9"/>
<stop offset="1" stop-color="#FF00C7"/>
</linearGradient>
<linearGradient id="paint46_linear_11741_195732" x1="27.5982" y1="103.286" x2="19.2728" y2="111.154" gradientUnits="userSpaceOnUse">
<stop stop-color="white" stop-opacity="0.6"/>
<stop offset="0.29" stop-color="white" stop-opacity="0.6"/>
<stop offset="0.78" stop-color="white" stop-opacity="0"/>
<stop offset="1" stop-color="white" stop-opacity="0"/>
</linearGradient>
<linearGradient id="paint47_linear_11741_195732" x1="11.5455" y1="106.434" x2="19.7287" y2="106.434" gradientUnits="userSpaceOnUse">
<stop stop-color="#000292" stop-opacity="0.7"/>
<stop offset="1" stop-color="#7D00C7" stop-opacity="0.7"/>
</linearGradient>
<linearGradient id="paint48_linear_11741_195732" x1="11.5558" y1="103.323" x2="26.8311" y2="103.323" gradientUnits="userSpaceOnUse">
<stop stop-color="#000292"/>
<stop offset="1" stop-color="#BE00C7"/>
</linearGradient>
<linearGradient id="paint49_linear_11741_195732" x1="26.6099" y1="95.1301" x2="25.5121" y2="96.9141" gradientUnits="userSpaceOnUse">
<stop stop-color="white" stop-opacity="0.6"/>
<stop offset="0.29" stop-color="white" stop-opacity="0.6"/>
<stop offset="0.78" stop-color="white" stop-opacity="0"/>
<stop offset="1" stop-color="white" stop-opacity="0"/>
</linearGradient>
<linearGradient id="paint50_linear_11741_195732" x1="18.2574" y1="108.301" x2="18.8666" y2="108.301" gradientUnits="userSpaceOnUse">
<stop stop-color="white" stop-opacity="0.6"/>
<stop offset="0.29" stop-color="white" stop-opacity="0.6"/>
<stop offset="0.78" stop-color="white" stop-opacity="0"/>
<stop offset="1" stop-color="white" stop-opacity="0"/>
</linearGradient>
<linearGradient id="paint51_linear_11741_195732" x1="20.4122" y1="108.097" x2="21.0214" y2="108.097" gradientUnits="userSpaceOnUse">
<stop stop-color="white" stop-opacity="0.6"/>
<stop offset="0.29" stop-color="white" stop-opacity="0.6"/>
<stop offset="0.78" stop-color="white" stop-opacity="0"/>
<stop offset="1" stop-color="white" stop-opacity="0"/>
</linearGradient>
<linearGradient id="paint52_linear_11741_195732" x1="19.4747" y1="109.127" x2="19.932" y2="109.127" gradientUnits="userSpaceOnUse">
<stop stop-color="white" stop-opacity="0.6"/>
<stop offset="0.29" stop-color="white" stop-opacity="0.6"/>
<stop offset="0.78" stop-color="white" stop-opacity="0"/>
<stop offset="1" stop-color="white" stop-opacity="0"/>
</linearGradient>
<linearGradient id="paint53_linear_11741_195732" x1="21.2966" y1="108.911" x2="21.7539" y2="108.911" gradientUnits="userSpaceOnUse">
<stop stop-color="white" stop-opacity="0.6"/>
<stop offset="0.29" stop-color="white" stop-opacity="0.6"/>
<stop offset="0.78" stop-color="white" stop-opacity="0"/>
<stop offset="1" stop-color="white" stop-opacity="0"/>
</linearGradient>
<linearGradient id="paint54_linear_11741_195732" x1="16.345" y1="107.903" x2="17.3398" y2="107.903" gradientUnits="userSpaceOnUse">
<stop stop-color="white" stop-opacity="0.6"/>
<stop offset="0.29" stop-color="white" stop-opacity="0.6"/>
<stop offset="0.78" stop-color="white" stop-opacity="0"/>
<stop offset="1" stop-color="white" stop-opacity="0"/>
</linearGradient>
<linearGradient id="paint55_linear_11741_195732" x1="22.2255" y1="106.275" x2="23.2203" y2="106.275" gradientUnits="userSpaceOnUse">
<stop stop-color="white" stop-opacity="0.6"/>
<stop offset="0.29" stop-color="white" stop-opacity="0.6"/>
<stop offset="0.78" stop-color="white" stop-opacity="0"/>
<stop offset="1" stop-color="white" stop-opacity="0"/>
</linearGradient>
<linearGradient id="paint56_linear_11741_195732" x1="5.70851" y1="96.8663" x2="43.3345" y2="96.8663" gradientUnits="userSpaceOnUse">
<stop stop-color="#0772FF"/>
<stop offset="1" stop-color="#452DFF" stop-opacity="0"/>
</linearGradient>
<linearGradient id="paint57_linear_11741_195732" x1="25.499" y1="122.518" x2="9.15176" y2="105.18" gradientUnits="userSpaceOnUse">
<stop stop-color="#462DFF" stop-opacity="0"/>
<stop offset="1" stop-color="#0079FF" stop-opacity="0.5"/>
</linearGradient>
<radialGradient id="paint58_radial_11741_195732" cx="0" cy="0" r="1" gradientUnits="userSpaceOnUse" gradientTransform="translate(380.974 162.316) rotate(180) scale(60.632 56.6391)">
<stop stop-color="#BABBBE"/>
<stop offset="0.9337"/>
</radialGradient>
<radialGradient id="paint59_radial_11741_195732" cx="0" cy="0" r="1" gradientUnits="userSpaceOnUse" gradientTransform="translate(320.337 105.672) rotate(43.9733) scale(109.776 109.762)">
<stop stop-color="#FF6230"/>
<stop offset="0.306414" stop-color="#FF9901"/>
<stop offset="0.626843" stop-color="#042D5B"/>
<stop offset="0.819636" stop-color="#1F2E3E"/>
<stop offset="0.964731" stop-color="#1B2229"/>
</radialGradient>
<linearGradient id="paint60_linear_11741_195732" x1="529.49" y1="151.204" x2="189.532" y2="151.204" gradientUnits="userSpaceOnUse">
<stop stop-color="#5082C1"/>
<stop offset="1" stop-color="#5081C1" stop-opacity="0"/>
</linearGradient>
<linearGradient id="paint61_linear_11741_195732" x1="493.596" y1="139.243" x2="217.344" y2="139.243" gradientUnits="userSpaceOnUse">
<stop stop-color="#5082C1"/>
<stop offset="1" stop-color="#5081C1" stop-opacity="0"/>
</linearGradient>
<linearGradient id="paint62_linear_11741_195732" x1="464.114" y1="122.562" x2="211.372" y2="122.562" gradientUnits="userSpaceOnUse">
<stop stop-color="#5082C1"/>
<stop offset="1" stop-color="#5081C1" stop-opacity="0"/>
</linearGradient>
<linearGradient id="paint63_linear_11741_195732" x1="439.413" y1="108.956" x2="206.516" y2="108.956" gradientUnits="userSpaceOnUse">
<stop stop-color="#5082C1"/>
<stop offset="1" stop-color="#5081C1" stop-opacity="0"/>
</linearGradient>
<linearGradient id="paint64_linear_11741_195732" x1="418.411" y1="97.6456" x2="202.484" y2="97.6456" gradientUnits="userSpaceOnUse">
<stop stop-color="#5082C1"/>
<stop offset="1" stop-color="#5081C1" stop-opacity="0"/>
</linearGradient>
<linearGradient id="paint65_linear_11741_195732" x1="400.344" y1="88.094" x2="199.09" y2="88.094" gradientUnits="userSpaceOnUse">
<stop stop-color="#5082C1"/>
<stop offset="1" stop-color="#5081C1" stop-opacity="0"/>
</linearGradient>
<linearGradient id="paint66_linear_11741_195732" x1="384.631" y1="79.9203" x2="196.188" y2="79.9203" gradientUnits="userSpaceOnUse">
<stop stop-color="#5082C1"/>
<stop offset="1" stop-color="#5081C1" stop-opacity="0"/>
</linearGradient>
<linearGradient id="paint67_linear_11741_195732" x1="370.835" y1="72.8463" x2="193.675" y2="72.8463" gradientUnits="userSpaceOnUse">
<stop stop-color="#5082C1"/>
<stop offset="1" stop-color="#5081C1" stop-opacity="0"/>
</linearGradient>
<linearGradient id="paint68_linear_11741_195732" x1="358.639" y1="66.6637" x2="191.49" y2="66.6637" gradientUnits="userSpaceOnUse">
<stop stop-color="#5082C1"/>
<stop offset="1" stop-color="#5081C1" stop-opacity="0"/>
</linearGradient>
<linearGradient id="paint69_linear_11741_195732" x1="279.807" y1="180.971" x2="215.826" y2="180.971" gradientUnits="userSpaceOnUse">
<stop stop-color="#5082C1"/>
<stop offset="1" stop-color="#5081C1" stop-opacity="0"/>
</linearGradient>
<linearGradient id="paint70_linear_11741_195732" x1="305.963" y1="162.66" x2="228.679" y2="162.66" gradientUnits="userSpaceOnUse">
<stop stop-color="#5082C1"/>
<stop offset="1" stop-color="#5081C1" stop-opacity="0"/>
</linearGradient>
<linearGradient id="paint71_linear_11741_195732" x1="331.311" y1="144.813" x2="241.332" y2="144.813" gradientUnits="userSpaceOnUse">
<stop stop-color="#5082C1"/>
<stop offset="1" stop-color="#5081C1" stop-opacity="0"/>
</linearGradient>
<linearGradient id="paint72_linear_11741_195732" x1="355.953" y1="127.413" x2="253.851" y2="127.413" gradientUnits="userSpaceOnUse">
<stop stop-color="#5082C1"/>
<stop offset="1" stop-color="#5081C1" stop-opacity="0"/>
</linearGradient>
<linearGradient id="paint73_linear_11741_195732" x1="379.848" y1="110.441" x2="266.168" y2="110.441" gradientUnits="userSpaceOnUse">
<stop stop-color="#5082C1"/>
<stop offset="1" stop-color="#5081C1" stop-opacity="0"/>
</linearGradient>
<linearGradient id="paint74_linear_11741_195732" x1="403.055" y1="93.8805" x2="278.312" y2="93.8805" gradientUnits="userSpaceOnUse">
<stop stop-color="#5082C1"/>
<stop offset="1" stop-color="#5081C1" stop-opacity="0"/>
</linearGradient>
<linearGradient id="paint75_linear_11741_195732" x1="425.603" y1="77.7153" x2="290.288" y2="77.7153" gradientUnits="userSpaceOnUse">
<stop stop-color="#5082C1"/>
<stop offset="1" stop-color="#5081C1" stop-opacity="0"/>
</linearGradient>
<linearGradient id="paint76_linear_11741_195732" x1="447.513" y1="61.9305" x2="302.091" y2="61.9305" gradientUnits="userSpaceOnUse">
<stop stop-color="#5082C1"/>
<stop offset="1" stop-color="#5081C1" stop-opacity="0"/>
</linearGradient>
<linearGradient id="paint77_linear_11741_195732" x1="468.827" y1="46.5117" x2="313.74" y2="46.5117" gradientUnits="userSpaceOnUse">
<stop stop-color="#5082C1"/>
<stop offset="1" stop-color="#5081C1" stop-opacity="0"/>
</linearGradient>
<linearGradient id="paint78_linear_11741_195732" x1="275.039" y1="60.6999" x2="295.75" y2="60.6999" gradientUnits="userSpaceOnUse">
<stop stop-color="#007AFF"/>
<stop offset="1" stop-color="#482BFF"/>
</linearGradient>
<linearGradient id="paint79_linear_11741_195732" x1="254.361" y1="43.2265" x2="324.555" y2="43.2265" gradientUnits="userSpaceOnUse">
<stop stop-color="#007AFF"/>
<stop offset="1" stop-color="#482BFF"/>
</linearGradient>
<linearGradient id="paint80_linear_11741_195732" x1="249.625" y1="103.971" x2="275.773" y2="103.971" gradientUnits="userSpaceOnUse">
<stop stop-color="#007AFF"/>
<stop offset="1" stop-color="#00B2FF"/>
</linearGradient>
<linearGradient id="paint81_linear_11741_195732" x1="349.141" y1="74.3274" x2="327.495" y2="74.3274" gradientUnits="userSpaceOnUse">
<stop stop-color="#FFA800"/>
<stop offset="1" stop-color="#FF5107"/>
</linearGradient>
<linearGradient id="paint82_linear_11741_195732" x1="257.483" y1="106.449" x2="262.008" y2="106.449" gradientUnits="userSpaceOnUse">
<stop stop-color="#007AFF"/>
<stop offset="1" stop-color="#00B2FF"/>
</linearGradient>
<linearGradient id="paint83_linear_11741_195732" x1="311.061" y1="117.233" x2="315.586" y2="117.233" gradientUnits="userSpaceOnUse">
<stop stop-color="#482BFF"/>
<stop offset="1" stop-color="#007AFF"/>
</linearGradient>
<linearGradient id="paint84_linear_11741_195732" x1="339.5" y1="55.6689" x2="298.17" y2="55.6689" gradientUnits="userSpaceOnUse">
<stop stop-color="#FFA600"/>
<stop offset="1" stop-color="#FF5306" stop-opacity="0"/>
</linearGradient>
<linearGradient id="paint85_linear_11741_195732" x1="345.002" y1="71.8957" x2="316.675" y2="56.2415" gradientUnits="userSpaceOnUse">
<stop stop-color="#FF5207" stop-opacity="0"/>
<stop offset="1" stop-color="#FFA600" stop-opacity="0.5"/>
</linearGradient>
<linearGradient id="paint86_linear_11741_195732" x1="326.308" y1="70.5865" x2="298.174" y2="70.5865" gradientUnits="userSpaceOnUse">
<stop stop-color="#FFA700"/>
<stop offset="1" stop-color="#FF5306" stop-opacity="0"/>
</linearGradient>
<linearGradient id="paint87_linear_11741_195732" x1="275.198" y1="98.9233" x2="235.874" y2="98.9233" gradientUnits="userSpaceOnUse">
<stop stop-color="#5082C1"/>
<stop offset="1" stop-color="#5081C1" stop-opacity="0"/>
</linearGradient>
<linearGradient id="paint88_linear_11741_195732" x1="256.619" y1="99.1172" x2="241.758" y2="83.5131" gradientUnits="userSpaceOnUse">
<stop stop-color="#007AFF"/>
<stop offset="1" stop-color="#00B2FF" stop-opacity="0"/>
</linearGradient>
<linearGradient id="paint89_linear_11741_195732" x1="268.92" y1="80.6003" x2="243.986" y2="111.974" gradientUnits="userSpaceOnUse">
<stop stop-color="#007AFF" stop-opacity="0.5"/>
<stop offset="1" stop-color="#00B2FF" stop-opacity="0"/>
</linearGradient>
<radialGradient id="paint90_radial_11741_195732" cx="0" cy="0" r="1" gradientUnits="userSpaceOnUse" gradientTransform="translate(294.82 94.3941) rotate(180) scale(6.43547 6.43548)">
<stop stop-color="#FFEAFF" stop-opacity="0.6"/>
<stop offset="0.68" stop-color="#A087C9"/>
<stop offset="1" stop-color="#10002F"/>
</radialGradient>
<radialGradient id="paint91_radial_11741_195732" cx="0" cy="0" r="1" gradientUnits="userSpaceOnUse" gradientTransform="translate(298.38 97.1385) rotate(180) scale(15.7453 15.7453)">
<stop stop-color="#FFEAFF" stop-opacity="0.6"/>
<stop offset="0.68" stop-color="#A087C9"/>
<stop offset="1" stop-color="#10002F"/>
</radialGradient>
<linearGradient id="paint92_linear_11741_195732" x1="305" y1="110.622" x2="302.426" y2="94.7395" gradientUnits="userSpaceOnUse">
<stop stop-color="#81FFFF" stop-opacity="0.6"/>
<stop offset="0.62" stop-color="white" stop-opacity="0"/>
<stop offset="1" stop-color="white" stop-opacity="0"/>
</linearGradient>
<linearGradient id="paint93_linear_11741_195732" x1="298.058" y1="97.2213" x2="304.714" y2="103.328" gradientUnits="userSpaceOnUse">
<stop stop-color="white" stop-opacity="0.6"/>
<stop offset="0.29" stop-color="white" stop-opacity="0.6"/>
<stop offset="0.78" stop-color="white" stop-opacity="0"/>
<stop offset="1" stop-color="white" stop-opacity="0"/>
</linearGradient>
<linearGradient id="paint94_linear_11741_195732" x1="311.408" y1="106.434" x2="296.112" y2="106.434" gradientUnits="userSpaceOnUse">
<stop stop-color="#0002E9"/>
<stop offset="1" stop-color="#FF00C7"/>
</linearGradient>
<linearGradient id="paint95_linear_11741_195732" x1="295.355" y1="103.286" x2="303.68" y2="111.154" gradientUnits="userSpaceOnUse">
<stop stop-color="white" stop-opacity="0.6"/>
<stop offset="0.29" stop-color="white" stop-opacity="0.6"/>
<stop offset="0.78" stop-color="white" stop-opacity="0"/>
<stop offset="1" stop-color="white" stop-opacity="0"/>
</linearGradient>
<linearGradient id="paint96_linear_11741_195732" x1="311.408" y1="106.434" x2="303.224" y2="106.434" gradientUnits="userSpaceOnUse">
<stop stop-color="#000292" stop-opacity="0.7"/>
<stop offset="1" stop-color="#7D00C7" stop-opacity="0.7"/>
</linearGradient>
<linearGradient id="paint97_linear_11741_195732" x1="311.397" y1="103.323" x2="296.122" y2="103.323" gradientUnits="userSpaceOnUse">
<stop stop-color="#000292"/>
<stop offset="1" stop-color="#BE00C7"/>
</linearGradient>
<linearGradient id="paint98_linear_11741_195732" x1="296.343" y1="95.1301" x2="297.441" y2="96.9141" gradientUnits="userSpaceOnUse">
<stop stop-color="white" stop-opacity="0.6"/>
<stop offset="0.29" stop-color="white" stop-opacity="0.6"/>
<stop offset="0.78" stop-color="white" stop-opacity="0"/>
<stop offset="1" stop-color="white" stop-opacity="0"/>
</linearGradient>
<linearGradient id="paint99_linear_11741_195732" x1="304.696" y1="108.301" x2="304.087" y2="108.301" gradientUnits="userSpaceOnUse">
<stop stop-color="white" stop-opacity="0.6"/>
<stop offset="0.29" stop-color="white" stop-opacity="0.6"/>
<stop offset="0.78" stop-color="white" stop-opacity="0"/>
<stop offset="1" stop-color="white" stop-opacity="0"/>
</linearGradient>
<linearGradient id="paint100_linear_11741_195732" x1="302.541" y1="108.097" x2="301.932" y2="108.097" gradientUnits="userSpaceOnUse">
<stop stop-color="white" stop-opacity="0.6"/>
<stop offset="0.29" stop-color="white" stop-opacity="0.6"/>
<stop offset="0.78" stop-color="white" stop-opacity="0"/>
<stop offset="1" stop-color="white" stop-opacity="0"/>
</linearGradient>
<linearGradient id="paint101_linear_11741_195732" x1="303.478" y1="109.127" x2="303.021" y2="109.127" gradientUnits="userSpaceOnUse">
<stop stop-color="white" stop-opacity="0.6"/>
<stop offset="0.29" stop-color="white" stop-opacity="0.6"/>
<stop offset="0.78" stop-color="white" stop-opacity="0"/>
<stop offset="1" stop-color="white" stop-opacity="0"/>
</linearGradient>
<linearGradient id="paint102_linear_11741_195732" x1="301.657" y1="108.911" x2="301.199" y2="108.911" gradientUnits="userSpaceOnUse">
<stop stop-color="white" stop-opacity="0.6"/>
<stop offset="0.29" stop-color="white" stop-opacity="0.6"/>
<stop offset="0.78" stop-color="white" stop-opacity="0"/>
<stop offset="1" stop-color="white" stop-opacity="0"/>
</linearGradient>
<linearGradient id="paint103_linear_11741_195732" x1="306.608" y1="107.903" x2="305.613" y2="107.903" gradientUnits="userSpaceOnUse">
<stop stop-color="white" stop-opacity="0.6"/>
<stop offset="0.29" stop-color="white" stop-opacity="0.6"/>
<stop offset="0.78" stop-color="white" stop-opacity="0"/>
<stop offset="1" stop-color="white" stop-opacity="0"/>
</linearGradient>
<linearGradient id="paint104_linear_11741_195732" x1="300.728" y1="106.275" x2="299.733" y2="106.275" gradientUnits="userSpaceOnUse">
<stop stop-color="white" stop-opacity="0.6"/>
<stop offset="0.29" stop-color="white" stop-opacity="0.6"/>
<stop offset="0.78" stop-color="white" stop-opacity="0"/>
<stop offset="1" stop-color="white" stop-opacity="0"/>
</linearGradient>
<linearGradient id="paint105_linear_11741_195732" x1="317.245" y1="96.8663" x2="279.619" y2="96.8663" gradientUnits="userSpaceOnUse">
<stop stop-color="#0772FF"/>
<stop offset="1" stop-color="#452DFF" stop-opacity="0"/>
</linearGradient>
<linearGradient id="paint106_linear_11741_195732" x1="297.454" y1="122.518" x2="313.801" y2="105.18" gradientUnits="userSpaceOnUse">
<stop stop-color="#462DFF" stop-opacity="0"/>
<stop offset="1" stop-color="#0079FF" stop-opacity="0.5"/>
</linearGradient>
</defs>
</svg>
