<svg width="1200" height="200" viewBox="0 0 1200 200" fill="none" xmlns="http://www.w3.org/2000/svg">
<g clip-path="url(#clip0_10684_173075)">
<rect width="1200" height="200" rx="4" fill="#1A1D1F"/>
<g opacity="0.1" filter="url(#filter0_f_10684_173075)">
<path d="M834.804 -64.1973C829.543 -84.1117 812.635 -104.026 782.2 -126.195C757.776 -143.855 731.85 -154 711.184 -154C707.051 -154 703.293 -153.624 699.536 -152.873C690.142 -150.994 681.876 -144.231 676.616 -134.086C670.228 -122.062 668.725 -105.905 672.858 -96.1355C674.361 -93.1296 676.24 -89.3722 678.494 -85.9905C658.58 -73.9667 647.308 -70.585 645.805 -70.2092C697.657 -52.925 740.868 -16.8537 767.921 30.1142L768.297 25.6053C769.424 13.2058 773.182 -1.07246 778.442 -15.7265C783.703 -14.2235 788.963 -13.472 794.223 -13.472C808.126 -13.472 820.15 -19.1081 827.665 -29.2532C835.179 -39.3983 838.185 -52.925 834.804 -64.1973Z" fill="#5E12A0"/>
<path d="M585.783 341.606C701.786 341.606 795.823 247.568 795.823 131.565C795.823 15.5618 701.786 -78.4755 585.783 -78.4755C469.779 -78.4755 375.742 15.5618 375.742 131.565C375.742 247.568 469.779 341.606 585.783 341.606Z" fill="url(#paint0_radial_10684_173075)"/>
<path d="M726.155 -104.771C733.669 -101.765 743.439 -96.5043 755.463 -88.6137C769.741 -79.2201 782.14 -68.6993 790.031 -60.433C776.88 -43.1488 768.238 -19.4769 762.977 -2.94421C765.608 0.813221 768.614 4.57066 771.244 8.3281C773.874 -1.06549 778.383 -14.968 784.395 -28.8705C785.898 -28.4948 787.777 -28.4948 789.655 -28.4948C794.164 -28.4948 799.425 -29.2463 803.558 -32.6279C806.564 -34.8824 809.945 -39.0156 809.57 -46.5305C809.57 -53.6696 803.933 -62.6874 792.285 -73.584C784.019 -81.4746 772.747 -90.1167 761.475 -98.0073C729.161 -119.425 706.616 -125.437 696.471 -115.291C689.708 -108.528 690.459 -100.262 692.713 -94.2499C680.69 -86.3592 670.545 -80.7231 663.781 -76.9657C668.29 -75.4627 672.423 -73.584 676.932 -71.7053C688.956 -78.0929 706.24 -88.9894 726.155 -104.771ZM797.17 -51.0394C798.297 -49.1607 798.673 -47.2819 798.673 -46.1547C798.673 -42.773 797.546 -41.6458 796.794 -40.8943C795.291 -39.7671 792.285 -39.0156 789.655 -39.0156C791.91 -43.5245 794.54 -47.2819 797.17 -51.0394ZM704.362 -107.025C705.489 -108.152 708.495 -108.904 713.379 -108.152C709.622 -105.146 705.864 -102.516 702.107 -99.886C701.731 -102.516 702.107 -105.146 704.362 -107.025Z" fill="#5E12A0"/>
<path d="M586.261 -90.8805C463.392 -90.8805 363.82 8.69157 363.82 131.56C363.82 254.428 463.392 354 586.261 354C709.129 354 808.701 254.428 808.701 131.56C808.701 8.69157 708.753 -90.8805 586.261 -90.8805ZM586.261 341.6C470.156 341.6 376.22 247.665 376.22 131.56C376.22 15.455 470.156 -78.4809 586.261 -78.4809C702.365 -78.4809 796.301 15.455 796.301 131.56C796.301 247.665 701.99 341.6 586.261 341.6Z" fill="#5E12A0"/>
<path d="M585.783 341.606C701.786 341.606 795.823 247.568 795.823 131.565C795.823 15.5618 701.786 -78.4755 585.783 -78.4755C469.779 -78.4755 375.742 15.5618 375.742 131.565C375.742 247.568 469.779 341.606 585.783 341.606Z" fill="url(#paint1_linear_10684_173075)"/>
<path d="M584.348 316.057C469.746 297.646 391.967 189.808 410.754 75.2057C419.02 24.4803 444.571 -18.7303 480.642 -49.917C428.038 -19.4817 388.961 33.4981 378.44 98.126C360.029 212.728 437.808 320.566 552.034 338.978C615.91 349.499 677.532 329.584 722.997 290.507C682.792 313.803 633.946 323.948 584.348 316.057Z" fill="#A98698" fill-opacity="0.6"/>
<path d="M619.153 -75.4756C566.173 -84.1177 514.696 -72.0939 472.613 -45.4161C471.862 -44.6646 471.11 -43.9131 471.11 -43.9131C487.267 -53.6825 510.939 -62.3246 510.939 -62.3246C450.068 -27.0047 431.281 13.1998 431.281 13.1998C454.953 -32.6408 524.466 -64.9548 578.949 -67.2092C633.431 -69.4637 669.127 -53.3067 712.713 -18.3626C756.3 16.9573 782.602 89.1 779.972 146.213C777.717 203.326 747.658 249.542 747.658 249.542C768.323 222.865 780.723 203.326 788.614 183.412C790.117 177.4 791.62 171.388 792.371 165C811.158 50.7742 733.755 -57.0642 619.153 -75.4756Z" fill="url(#paint2_linear_10684_173075)"/>
<path d="M784.337 129.682C784.337 239.774 694.91 329.202 584.817 329.202C474.725 329.202 384.922 239.774 384.922 129.682H784.337Z" fill="url(#paint3_linear_10684_173075)"/>
<path d="M769.754 129.682C769.754 237.144 684.836 325.068 578.125 329.202H586.016C696.109 329.202 785.536 239.774 785.536 129.682H769.754Z" fill="url(#paint4_linear_10684_173075)"/>
<path d="M413.103 129.682H384.922C384.922 239.774 474.349 329.202 584.442 329.202C589.326 329.202 593.835 329.202 598.344 328.826C495.015 321.311 413.103 234.89 413.103 129.682Z" fill="url(#paint5_linear_10684_173075)"/>
<path d="M783.962 131.561C783.962 108.64 744.133 95.4893 691.153 90.9803C652.827 87.9744 614.126 91.7318 569.788 105.259C531.462 116.531 496.894 114.652 471.719 111.646C415.733 105.259 384.922 104.507 384.922 131.561C384.922 170.638 464.58 219.484 584.066 202.576C644.561 193.934 675.748 176.274 711.443 164.25C750.145 151.475 783.962 151.851 783.962 131.561Z" fill="url(#paint6_linear_10684_173075)"/>
<path d="M651.028 36.8783C669.706 36.8783 684.845 21.7396 684.845 3.06136C684.845 -15.6168 669.706 -30.7555 651.028 -30.7555C632.35 -30.7555 617.211 -15.6168 617.211 3.06136C617.211 21.7396 632.35 36.8783 651.028 36.8783Z" fill="white"/>
<path d="M706.38 62.0485C714.267 62.0485 720.658 55.6571 720.658 47.7702C720.658 39.8834 714.267 33.492 706.38 33.492C698.493 33.492 692.102 39.8834 692.102 47.7702C692.102 55.6571 698.493 62.0485 706.38 62.0485Z" fill="white"/>
</g>
<g filter="url(#filter1_f_10684_173075)">
<path d="M-27.2039 373.946C39.7688 373.946 94.0609 323.224 94.0609 260.656C94.0609 198.087 39.7688 147.365 -27.2039 147.365C-94.1766 147.365 -148.469 198.087 -148.469 260.656C-148.469 323.224 -94.1766 373.946 -27.2039 373.946Z" fill="url(#paint7_radial_10684_173075)"/>
<path d="M-27.2039 373.946C39.7688 373.946 94.0609 323.224 94.0609 260.656C94.0609 198.087 39.7688 147.365 -27.2039 147.365C-94.1766 147.365 -148.469 198.087 -148.469 260.656C-148.469 323.224 -94.1766 373.946 -27.2039 373.946Z" fill="url(#paint8_radial_10684_173075)"/>
</g>
<path d="M39.2757 -77.3435L355.524 194.234L284.93 554.078L-323.969 -41.3465L39.2757 -77.3435Z" stroke="url(#paint9_linear_10684_173075)" stroke-width="0.249979" stroke-miterlimit="10"/>
<path d="M-252.375 -48.4459L299.954 477.435" stroke="url(#paint10_linear_10684_173075)" stroke-width="0.249979" stroke-miterlimit="10"/>
<path d="M-193.406 -54.2704L311.901 416.565" stroke="url(#paint11_linear_10684_173075)" stroke-width="0.249979" stroke-miterlimit="10"/>
<path d="M-144.008 -59.17L321.628 367.044" stroke="url(#paint12_linear_10684_173075)" stroke-width="0.249979" stroke-miterlimit="10"/>
<path d="M-102.016 -63.3447L329.673 325.973" stroke="url(#paint13_linear_10684_173075)" stroke-width="0.249979" stroke-miterlimit="10"/>
<path d="M-65.8672 -66.9194L336.474 291.326" stroke="url(#paint14_linear_10684_173075)" stroke-width="0.249979" stroke-miterlimit="10"/>
<path d="M-34.4453 -70.0441L342.273 261.753" stroke="url(#paint15_linear_10684_173075)" stroke-width="0.249979" stroke-miterlimit="10"/>
<path d="M-6.84375 -72.7689L347.301 236.205" stroke="url(#paint16_linear_10684_173075)" stroke-width="0.249979" stroke-miterlimit="10"/>
<path d="M17.5547 -75.1937L351.677 213.882" stroke="url(#paint17_linear_10684_173075)" stroke-width="0.249979" stroke-miterlimit="10"/>
<path d="M329.053 171.511L229.211 499.608" stroke="url(#paint18_linear_10684_173075)" stroke-width="0.249979" stroke-miterlimit="10"/>
<path d="M302.981 149.112L175.242 446.812" stroke="url(#paint19_linear_10684_173075)" stroke-width="0.249979" stroke-miterlimit="10"/>
<path d="M277.259 127.014L122.922 395.642" stroke="url(#paint20_linear_10684_173075)" stroke-width="0.249979" stroke-miterlimit="10"/>
<path d="M251.979 105.266L72.2188 346.021" stroke="url(#paint21_linear_10684_173075)" stroke-width="0.249979" stroke-miterlimit="10"/>
<path d="M226.963 83.8179L22.9297 297.875" stroke="url(#paint22_linear_10684_173075)" stroke-width="0.249979" stroke-miterlimit="10"/>
<path d="M202.339 62.6697L-24.8672 251.129" stroke="url(#paint23_linear_10684_173075)" stroke-width="0.249979" stroke-miterlimit="10"/>
<path d="M178.04 41.8215L-71.2891 205.733" stroke="url(#paint24_linear_10684_173075)" stroke-width="0.249979" stroke-miterlimit="10"/>
<path d="M154.113 21.2732L-116.414 161.636" stroke="url(#paint25_linear_10684_173075)" stroke-width="0.249979" stroke-miterlimit="10"/>
<path d="M130.516 0.999908L-160.234 118.765" stroke="url(#paint26_linear_10684_173075)" stroke-width="0.249979" stroke-miterlimit="10"/>
<path d="M107.216 -18.9984L-202.883 77.0685" stroke="url(#paint27_linear_10684_173075)" stroke-width="0.249979" stroke-miterlimit="10"/>
<path d="M84.2693 -38.6967L-244.328 36.5219" stroke="url(#paint28_linear_10684_173075)" stroke-width="0.249979" stroke-miterlimit="10"/>
<path opacity="0.5" d="M56.5694 101.191L8.64844 130.439L61.519 179.385L103.74 144.363L56.5694 101.191Z" fill="white" fill-opacity="0.06"/>
<path opacity="0.1" d="M159.033 40.2466L143.234 51.2457L170.007 74.5937L184.656 62.4447L159.033 40.2466Z" fill="url(#paint29_linear_10684_173075)"/>
<g opacity="0.16" filter="url(#filter2_f_10684_173075)">
<path d="M225.556 82.718C221.132 87.8176 186.334 64.9945 147.838 31.7223C109.341 -1.54987 81.6933 -32.6473 86.0929 -37.7718C90.5175 -42.8714 125.315 -20.0483 163.811 13.2239C202.308 46.4961 229.981 77.6185 225.556 82.718Z" fill="url(#paint30_linear_10684_173075)"/>
</g>
<g filter="url(#filter3_f_10684_173075)">
<path d="M235.109 166.211C232.684 169.036 219.16 161.336 204.936 149.062C190.712 136.763 181.138 124.515 183.563 121.715C185.988 118.89 199.512 126.589 213.735 138.863C227.984 151.162 237.533 163.411 235.109 166.211Z" fill="url(#paint31_linear_10684_173075)"/>
</g>
<g filter="url(#filter4_f_10684_173075)">
<path d="M79.5671 73.0439C81.1169 75.8936 72.7426 83.393 60.8936 89.8175C49.0446 96.2419 38.1955 99.1417 36.6457 96.3169C35.0958 93.4671 43.4701 85.9678 55.3191 79.5433C67.1681 73.1189 78.0172 70.1941 79.5671 73.0439Z" fill="url(#paint32_linear_10684_173075)"/>
</g>
<path opacity="0.5" d="M95.9652 180.66C95.8902 180.66 95.7902 180.635 95.7152 180.56L70.1174 159.062L16.5469 108.991C16.4719 108.916 16.4219 108.791 16.4219 108.666C16.4469 108.541 16.4969 108.441 16.5969 108.391L61.8431 81.6432C62.018 81.5432 62.243 81.5932 62.368 81.7681C62.468 81.9431 62.418 82.1681 62.243 82.2931L17.4218 108.791L70.6173 158.512L95.9652 179.81L108.089 169.361C108.239 169.236 108.489 169.236 108.614 169.411C108.739 169.561 108.739 169.811 108.564 169.936L96.1902 180.61C96.1402 180.635 96.0652 180.66 95.9652 180.66Z" fill="white"/>
<path opacity="0.5" d="M213.581 147.338C213.531 147.338 213.456 147.313 213.406 147.263L169.335 107.841L158.636 117.915C158.536 118.015 158.386 118.015 158.286 117.915C158.186 117.815 158.186 117.665 158.286 117.565L169.16 107.341C169.26 107.241 169.41 107.241 169.51 107.341L213.756 146.938C213.856 147.038 213.856 147.188 213.781 147.288C213.706 147.313 213.656 147.338 213.581 147.338Z" fill="white"/>
<g filter="url(#filter5_f_10684_173075)">
<path d="M215.236 153.444C217.734 153.444 219.76 151.418 219.76 148.919C219.76 146.42 217.734 144.395 215.236 144.395C212.737 144.395 210.711 146.42 210.711 148.919C210.711 151.418 212.737 153.444 215.236 153.444Z" fill="url(#paint33_linear_10684_173075)"/>
<path d="M61.6887 87.2927C64.1876 87.2927 66.2133 85.2669 66.2133 82.768C66.2133 80.2692 64.1876 78.2434 61.6887 78.2434C59.1898 78.2434 57.1641 80.2692 57.1641 82.768C57.1641 85.2669 59.1898 87.2927 61.6887 87.2927Z" fill="url(#paint34_linear_10684_173075)"/>
<path d="M108.087 175.01C110.586 175.01 112.612 172.985 112.612 170.486C112.612 167.987 110.586 165.961 108.087 165.961C105.588 165.961 103.562 167.987 103.562 170.486C103.562 172.985 105.588 175.01 108.087 175.01Z" fill="url(#paint35_linear_10684_173075)"/>
</g>
<path d="M106.097 78.1684L55.7266 32.4973L95.4482 16.5486L138.395 54.0205L106.097 78.1684Z" fill="url(#paint36_linear_10684_173075)"/>
<path d="M55.7251 31.8223L38.3516 61.0199L82.1229 101.041L106.096 78.1684L55.7251 31.8223Z" fill="url(#paint37_linear_10684_173075)"/>
<path opacity="0.74" d="M138.395 53.3455L116.297 77.1935L82.125 101.042L106.098 78.1684L138.395 53.3455Z" fill="url(#paint38_linear_10684_173075)"/>
<path opacity="0.06" d="M218.733 95.492L184.336 130.439L231.857 172.236L262.979 133.864L218.733 95.492Z" fill="url(#paint39_linear_10684_173075)"/>
<path d="M252.558 133.614L218.961 104.941L233.585 92.7672L264.432 117.765L252.558 133.614Z" fill="url(#paint40_linear_10684_173075)"/>
<path d="M219.234 104.666L196.961 131.839L230.608 161.486L253.206 133.564L219.234 104.666Z" fill="url(#paint41_linear_10684_173075)"/>
<g opacity="0.75" filter="url(#filter6_d_10684_173075)">
<path d="M146.391 126.392C145.988 124.866 144.692 123.34 142.36 121.641C140.488 120.287 138.501 119.51 136.917 119.51C136.6 119.51 136.312 119.538 136.024 119.596C135.304 119.74 134.671 120.258 134.268 121.036C133.778 121.957 133.663 123.196 133.98 123.944C134.095 124.175 134.239 124.463 134.412 124.722C132.885 125.644 132.021 125.903 131.906 125.932C135.88 127.256 139.192 130.021 141.266 133.62L141.294 133.275C141.381 132.325 141.669 131.23 142.072 130.107C142.475 130.222 142.878 130.28 143.281 130.28C144.347 130.28 145.268 129.848 145.844 129.07C146.42 128.293 146.651 127.256 146.391 126.392Z" fill="#5E12A0"/>
<path d="M142.287 129.272C144.908 129.992 145.974 127.976 145.628 126.623C145.254 125.269 144.044 123.887 141.913 122.332C139.782 120.777 137.622 120.143 136.24 120.431C134.858 120.719 134.454 122.822 134.8 123.628C134.944 123.945 135.261 124.405 135.693 124.924C135.146 125.298 134.627 125.586 134.195 125.845C136.845 127.026 139.149 128.869 140.876 131.173C141.078 130.395 141.366 129.704 141.625 129.099C141.827 129.128 142.057 129.186 142.287 129.272Z" fill="url(#paint42_radial_10684_173075)"/>
<path d="M127.317 157.494C136.207 157.494 143.415 150.286 143.415 141.396C143.415 132.505 136.207 125.298 127.317 125.298C118.426 125.298 111.219 132.505 111.219 141.396C111.219 150.286 118.426 157.494 127.317 157.494Z" fill="url(#paint43_radial_10684_173075)"/>
<path d="M144.324 125.298C142.135 122.995 140.292 122.39 138.075 121.9C136.347 121.497 136.808 120.518 138.91 120.72C137.902 120.374 136.952 120.288 136.261 120.432C134.878 120.72 134.475 122.822 134.821 123.628C134.965 123.945 135.282 124.406 135.714 124.924C134.936 125.442 134.274 125.817 133.727 126.105C133.986 126.22 134.303 126.364 134.677 126.566C135.656 127.084 136.722 127.948 136.722 127.948C135.109 126.566 135.454 125.932 137.672 124.377C138.363 123.887 139.63 123.945 140.811 124.55C141.992 125.154 143.374 126.681 143.374 126.681L142.049 129.215C142.135 129.244 142.222 129.272 142.308 129.301C143.143 129.532 143.806 129.474 144.324 129.272C144.929 128.898 146.513 127.631 144.324 125.298Z" fill="#A98698" fill-opacity="0.6"/>
<path d="M138.038 123.282C138.614 123.513 139.363 123.916 140.284 124.521C141.379 125.241 142.329 126.047 142.934 126.681C141.926 128.005 141.264 129.82 140.86 131.087C141.062 131.375 141.292 131.663 141.494 131.951C141.696 131.231 142.041 130.165 142.502 129.1C142.617 129.128 142.761 129.128 142.905 129.128C143.251 129.128 143.654 129.071 143.971 128.812C144.201 128.639 144.46 128.322 144.431 127.746C144.431 127.199 143.999 126.508 143.107 125.673C142.473 125.068 141.609 124.406 140.745 123.801C138.269 122.159 136.541 121.699 135.763 122.476C135.245 122.994 135.302 123.628 135.475 124.089C134.554 124.694 133.776 125.125 133.258 125.413C133.603 125.529 133.92 125.673 134.266 125.817C135.187 125.327 136.512 124.492 138.038 123.282ZM143.481 127.4C143.567 127.544 143.596 127.688 143.596 127.775C143.596 128.034 143.51 128.12 143.452 128.178C143.337 128.264 143.107 128.322 142.905 128.322C143.078 127.976 143.279 127.688 143.481 127.4ZM136.368 123.11C136.454 123.023 136.685 122.966 137.059 123.023C136.771 123.254 136.483 123.455 136.195 123.657C136.166 123.455 136.195 123.254 136.368 123.11Z" fill="#5E12A0"/>
<path d="M127.329 124.347C117.913 124.347 110.281 131.979 110.281 141.395C110.281 150.812 117.913 158.444 127.329 158.444C136.746 158.444 144.378 150.812 144.378 141.395C144.378 131.979 136.718 124.347 127.329 124.347ZM127.329 157.493C118.431 157.493 111.232 150.294 111.232 141.395C111.232 132.497 118.431 125.298 127.329 125.298C136.228 125.298 143.427 132.497 143.427 141.395C143.427 150.294 136.199 157.493 127.329 157.493Z" fill="#5E12A0"/>
<path d="M127.317 157.494C136.207 157.494 143.415 150.286 143.415 141.396C143.415 132.505 136.207 125.298 127.317 125.298C118.426 125.298 111.219 132.505 111.219 141.396C111.219 150.286 118.426 157.494 127.317 157.494Z" fill="url(#paint44_linear_10684_173075)"/>
<path d="M127.207 155.536C118.423 154.125 112.462 145.86 113.902 137.076C114.536 133.189 116.494 129.877 119.258 127.487C115.227 129.819 112.232 133.88 111.426 138.833C110.014 147.616 115.976 155.881 124.73 157.292C129.626 158.099 134.348 156.572 137.833 153.577C134.752 155.363 131.008 156.14 127.207 155.536Z" fill="#A98698" fill-opacity="0.6"/>
<path d="M129.844 125.528C125.784 124.866 121.838 125.787 118.613 127.832C118.555 127.889 118.498 127.947 118.498 127.947C119.736 127.198 121.55 126.536 121.55 126.536C116.885 129.243 115.445 132.324 115.445 132.324C117.26 128.811 122.587 126.334 126.763 126.161C130.938 125.989 133.674 127.227 137.015 129.905C140.355 132.612 142.371 138.141 142.17 142.518C141.997 146.896 139.693 150.438 139.693 150.438C141.277 148.393 142.227 146.896 142.832 145.369C142.947 144.909 143.062 144.448 143.12 143.958C144.56 135.204 138.627 126.939 129.844 125.528Z" fill="url(#paint45_linear_10684_173075)"/>
<path d="M142.518 141.251C142.518 149.689 135.664 156.543 127.227 156.543C118.789 156.543 111.906 149.689 111.906 141.251H142.518Z" fill="url(#paint46_linear_10684_173075)"/>
<path d="M141.382 141.251C141.382 149.488 134.874 156.226 126.695 156.543H127.3C135.738 156.543 142.592 149.689 142.592 141.251H141.382Z" fill="url(#paint47_linear_10684_173075)"/>
<path d="M114.066 141.251H111.906C111.906 149.689 118.76 156.543 127.198 156.543C127.572 156.543 127.918 156.543 128.263 156.514C120.344 155.938 114.066 149.315 114.066 141.251Z" fill="url(#paint48_linear_10684_173075)"/>
<path d="M142.489 141.395C142.489 139.639 139.437 138.631 135.376 138.285C132.439 138.055 129.473 138.343 126.075 139.38C123.137 140.244 120.488 140.1 118.559 139.869C114.268 139.38 111.906 139.322 111.906 141.395C111.906 144.39 118.011 148.134 127.169 146.838C131.805 146.176 134.196 144.822 136.931 143.901C139.898 142.922 142.489 142.951 142.489 141.395Z" fill="url(#paint49_linear_10684_173075)"/>
<path d="M132.287 134.139C133.719 134.139 134.879 132.979 134.879 131.547C134.879 130.116 133.719 128.955 132.287 128.955C130.856 128.955 129.695 130.116 129.695 131.547C129.695 132.979 130.856 134.139 132.287 134.139Z" fill="white"/>
<path d="M136.54 136.068C137.144 136.068 137.634 135.578 137.634 134.974C137.634 134.369 137.144 133.879 136.54 133.879C135.935 133.879 135.445 134.369 135.445 134.974C135.445 135.578 135.935 136.068 136.54 136.068Z" fill="white"/>
<path d="M140.454 129.473H140.396C140.224 129.445 140.108 129.272 140.137 129.07C140.396 127.745 141.491 126.478 141.548 126.421C141.664 126.277 141.894 126.277 142.009 126.392C142.153 126.507 142.153 126.738 142.038 126.853C142.009 126.882 141.001 128.062 140.771 129.214C140.742 129.387 140.598 129.473 140.454 129.473Z" fill="url(#paint50_linear_10684_173075)"/>
<path d="M126.244 153.404C126.689 153.404 127.05 153.043 127.05 152.598C127.05 152.153 126.689 151.792 126.244 151.792C125.799 151.792 125.438 152.153 125.438 152.598C125.438 153.043 125.799 153.404 126.244 153.404Z" fill="white" fill-opacity="0.2"/>
<path d="M125.697 153.117C125.38 152.8 125.38 152.282 125.697 151.965C125.754 151.907 125.812 151.879 125.869 151.821C125.754 151.85 125.668 151.907 125.581 151.994C125.265 152.311 125.265 152.829 125.581 153.146C125.841 153.405 126.244 153.462 126.56 153.29C126.272 153.405 125.927 153.347 125.697 153.117Z" fill="url(#paint51_linear_10684_173075)"/>
<path d="M126.454 152.368C126.549 152.368 126.627 152.29 126.627 152.195C126.627 152.099 126.549 152.022 126.454 152.022C126.359 152.022 126.281 152.099 126.281 152.195C126.281 152.29 126.359 152.368 126.454 152.368Z" fill="white" fill-opacity="0.3"/>
<path d="M130.463 153.001C130.908 153.001 131.269 152.64 131.269 152.194C131.269 151.749 130.908 151.388 130.463 151.388C130.017 151.388 129.656 151.749 129.656 152.194C129.656 152.64 130.017 153.001 130.463 153.001Z" fill="white" fill-opacity="0.2"/>
<path d="M130.009 152.713C129.692 152.397 129.692 151.878 130.009 151.561C130.067 151.504 130.124 151.475 130.182 151.417C130.067 151.446 129.98 151.504 129.894 151.59C129.577 151.907 129.577 152.425 129.894 152.742C130.153 153.001 130.556 153.059 130.873 152.886C130.585 153.001 130.239 152.944 130.009 152.713Z" fill="url(#paint52_linear_10684_173075)"/>
<path d="M130.767 151.965C130.862 151.965 130.939 151.887 130.939 151.792C130.939 151.697 130.862 151.619 130.767 151.619C130.671 151.619 130.594 151.697 130.594 151.792C130.594 151.887 130.671 151.965 130.767 151.965Z" fill="white" fill-opacity="0.3"/>
<path d="M128.386 154.874C128.72 154.874 128.991 154.603 128.991 154.269C128.991 153.935 128.72 153.664 128.386 153.664C128.052 153.664 127.781 153.935 127.781 154.269C127.781 154.603 128.052 154.874 128.386 154.874Z" fill="white" fill-opacity="0.2"/>
<path d="M128.04 154.642C127.81 154.412 127.81 154.009 128.04 153.778C128.069 153.75 128.127 153.721 128.156 153.692C128.069 153.721 128.012 153.778 127.954 153.836C127.724 154.066 127.724 154.469 127.954 154.7C128.156 154.901 128.444 154.93 128.703 154.786C128.472 154.873 128.213 154.815 128.04 154.642Z" fill="url(#paint53_linear_10684_173075)"/>
<path d="M128.553 154.066C128.616 154.066 128.668 154.015 128.668 153.951C128.668 153.888 128.616 153.836 128.553 153.836C128.489 153.836 128.438 153.888 128.438 153.951C128.438 154.015 128.489 154.066 128.553 154.066Z" fill="white" fill-opacity="0.3"/>
<path d="M132.042 154.441C132.376 154.441 132.647 154.17 132.647 153.836C132.647 153.502 132.376 153.232 132.042 153.232C131.708 153.232 131.438 153.502 131.438 153.836C131.438 154.17 131.708 154.441 132.042 154.441Z" fill="white" fill-opacity="0.2"/>
<path d="M131.697 154.211C131.466 153.981 131.466 153.578 131.697 153.347C131.725 153.318 131.783 153.29 131.812 153.261C131.725 153.29 131.668 153.347 131.61 153.405C131.38 153.635 131.38 154.038 131.61 154.269C131.812 154.47 132.1 154.499 132.359 154.355C132.129 154.442 131.869 154.384 131.697 154.211Z" fill="url(#paint54_linear_10684_173075)"/>
<path d="M132.287 153.634C132.351 153.634 132.402 153.583 132.402 153.519C132.402 153.455 132.351 153.404 132.287 153.404C132.223 153.404 132.172 153.455 132.172 153.519C132.172 153.583 132.223 153.634 132.287 153.634Z" fill="white" fill-opacity="0.3"/>
<path d="M122.762 153.116C123.494 153.116 124.087 152.523 124.087 151.792C124.087 151.06 123.494 150.467 122.762 150.467C122.031 150.467 121.438 151.06 121.438 151.792C121.438 152.523 122.031 153.116 122.762 153.116Z" fill="white" fill-opacity="0.2"/>
<path d="M122.093 152.627C121.574 152.109 121.574 151.274 122.093 150.756C122.179 150.669 122.266 150.612 122.381 150.554C122.208 150.612 122.064 150.727 121.92 150.842C121.402 151.36 121.402 152.195 121.92 152.714C122.352 153.146 123.014 153.232 123.533 152.915C123.043 153.117 122.467 153.031 122.093 152.627Z" fill="url(#paint55_linear_10684_173075)"/>
<path d="M123.249 151.389C123.408 151.389 123.537 151.26 123.537 151.101C123.537 150.942 123.408 150.813 123.249 150.813C123.09 150.813 122.961 150.942 122.961 151.101C122.961 151.26 123.09 151.389 123.249 151.389Z" fill="white" fill-opacity="0.3"/>
<path d="M134.629 149.862C135.361 149.862 135.954 149.269 135.954 148.537C135.954 147.806 135.361 147.213 134.629 147.213C133.898 147.213 133.305 147.806 133.305 148.537C133.305 149.269 133.898 149.862 134.629 149.862Z" fill="white" fill-opacity="0.2"/>
<path d="M133.851 149.373C133.332 148.855 133.332 148.02 133.851 147.501C133.937 147.415 134.023 147.357 134.139 147.3C133.966 147.357 133.822 147.472 133.678 147.588C133.159 148.106 133.159 148.941 133.678 149.459C134.11 149.891 134.772 149.978 135.291 149.661C134.801 149.863 134.254 149.776 133.851 149.373Z" fill="url(#paint56_linear_10684_173075)"/>
<path d="M135.108 148.135C135.267 148.135 135.396 148.006 135.396 147.847C135.396 147.688 135.267 147.559 135.108 147.559C134.949 147.559 134.82 147.688 134.82 147.847C134.82 148.006 134.949 148.135 135.108 148.135Z" fill="white" fill-opacity="0.3"/>
</g>
<path d="M147.296 162.711L100.25 120.215L135.322 96.7918L175.494 133.114L147.296 162.711Z" fill="url(#paint57_linear_10684_173075)"/>
<path d="M100.247 120.215L83.7734 147.888L125.245 185.834L147.293 162.711L100.247 120.215Z" fill="url(#paint58_linear_10684_173075)"/>
<g filter="url(#filter7_f_10684_173075)">
<path d="M1227.2 373.946C1160.23 373.946 1105.94 323.224 1105.94 260.656C1105.94 198.087 1160.23 147.365 1227.2 147.365C1294.18 147.365 1348.47 198.087 1348.47 260.656C1348.47 323.224 1294.18 373.946 1227.2 373.946Z" fill="url(#paint59_radial_10684_173075)"/>
<path d="M1227.2 373.946C1160.23 373.946 1105.94 323.224 1105.94 260.656C1105.94 198.087 1160.23 147.365 1227.2 147.365C1294.18 147.365 1348.47 198.087 1348.47 260.656C1348.47 323.224 1294.18 373.946 1227.2 373.946Z" fill="url(#paint60_radial_10684_173075)"/>
</g>
<path d="M1160.72 -77.3435L844.476 194.234L915.07 554.078L1523.97 -41.3465L1160.72 -77.3435Z" stroke="url(#paint61_linear_10684_173075)" stroke-width="0.249979" stroke-miterlimit="10"/>
<path d="M1452.38 -48.4459L900.046 477.435" stroke="url(#paint62_linear_10684_173075)" stroke-width="0.249979" stroke-miterlimit="10"/>
<path d="M1393.41 -54.2704L888.099 416.565" stroke="url(#paint63_linear_10684_173075)" stroke-width="0.249979" stroke-miterlimit="10"/>
<path d="M1344.01 -59.17L878.372 367.044" stroke="url(#paint64_linear_10684_173075)" stroke-width="0.249979" stroke-miterlimit="10"/>
<path d="M1302.02 -63.3447L870.327 325.973" stroke="url(#paint65_linear_10684_173075)" stroke-width="0.249979" stroke-miterlimit="10"/>
<path d="M1265.87 -66.9194L863.526 291.326" stroke="url(#paint66_linear_10684_173075)" stroke-width="0.249979" stroke-miterlimit="10"/>
<path d="M1234.45 -70.0441L857.727 261.753" stroke="url(#paint67_linear_10684_173075)" stroke-width="0.249979" stroke-miterlimit="10"/>
<path d="M1206.84 -72.7689L852.699 236.205" stroke="url(#paint68_linear_10684_173075)" stroke-width="0.249979" stroke-miterlimit="10"/>
<path d="M1182.45 -75.1937L848.323 213.882" stroke="url(#paint69_linear_10684_173075)" stroke-width="0.249979" stroke-miterlimit="10"/>
<path d="M870.947 171.511L970.789 499.608" stroke="url(#paint70_linear_10684_173075)" stroke-width="0.249979" stroke-miterlimit="10"/>
<path d="M897.019 149.112L1024.76 446.812" stroke="url(#paint71_linear_10684_173075)" stroke-width="0.249979" stroke-miterlimit="10"/>
<path d="M922.741 127.014L1077.08 395.642" stroke="url(#paint72_linear_10684_173075)" stroke-width="0.249979" stroke-miterlimit="10"/>
<path d="M948.068 105.266L1127.83 346.021" stroke="url(#paint73_linear_10684_173075)" stroke-width="0.249979" stroke-miterlimit="10"/>
<path d="M973.037 83.8179L1177.07 297.875" stroke="url(#paint74_linear_10684_173075)" stroke-width="0.249979" stroke-miterlimit="10"/>
<path d="M997.661 62.6697L1224.87 251.129" stroke="url(#paint75_linear_10684_173075)" stroke-width="0.249979" stroke-miterlimit="10"/>
<path d="M1021.96 41.8215L1271.29 205.733" stroke="url(#paint76_linear_10684_173075)" stroke-width="0.249979" stroke-miterlimit="10"/>
<path d="M1045.89 21.2732L1316.41 161.636" stroke="url(#paint77_linear_10684_173075)" stroke-width="0.249979" stroke-miterlimit="10"/>
<path d="M1069.48 0.999908L1360.23 118.765" stroke="url(#paint78_linear_10684_173075)" stroke-width="0.249979" stroke-miterlimit="10"/>
<path d="M1092.78 -18.9984L1402.88 77.0685" stroke="url(#paint79_linear_10684_173075)" stroke-width="0.249979" stroke-miterlimit="10"/>
<path d="M1115.73 -38.6967L1444.33 36.5219" stroke="url(#paint80_linear_10684_173075)" stroke-width="0.249979" stroke-miterlimit="10"/>
<path opacity="0.5" d="M1143.43 101.191L1191.35 130.439L1138.48 179.385L1096.26 144.363L1143.43 101.191Z" fill="white" fill-opacity="0.06"/>
<path opacity="0.1" d="M1040.97 40.2466L1056.77 51.2457L1029.99 74.5937L1015.34 62.4447L1040.97 40.2466Z" fill="url(#paint81_linear_10684_173075)"/>
<g opacity="0.16" filter="url(#filter8_f_10684_173075)">
<path d="M974.444 82.718C978.868 87.8176 1013.67 64.9945 1052.16 31.7223C1090.66 -1.54987 1118.31 -32.6473 1113.91 -37.7718C1109.48 -42.8714 1074.69 -20.0483 1036.19 13.2239C997.692 46.4961 970.019 77.6185 974.444 82.718Z" fill="url(#paint82_linear_10684_173075)"/>
</g>
<g filter="url(#filter9_f_10684_173075)">
<path d="M964.891 166.211C967.316 169.036 980.84 161.336 995.064 149.062C1009.29 136.763 1018.86 124.515 1016.44 121.715C1014.01 118.89 1000.49 126.589 986.265 138.863C972.016 151.162 962.467 163.411 964.891 166.211Z" fill="url(#paint83_linear_10684_173075)"/>
</g>
<g filter="url(#filter10_f_10684_173075)">
<path d="M1120.43 73.0439C1118.88 75.8936 1127.26 83.393 1139.11 89.8175C1150.96 96.2419 1161.8 99.1417 1163.35 96.3169C1164.9 93.4671 1156.53 85.9678 1144.68 79.5433C1132.83 73.1189 1121.98 70.1941 1120.43 73.0439Z" fill="url(#paint84_linear_10684_173075)"/>
</g>
<path opacity="0.5" d="M1104.03 180.66C1104.11 180.66 1104.21 180.635 1104.28 180.56L1129.88 159.062L1183.45 108.991C1183.53 108.916 1183.58 108.791 1183.58 108.666C1183.55 108.541 1183.5 108.441 1183.4 108.391L1138.16 81.6432C1137.98 81.5432 1137.76 81.5932 1137.63 81.7681C1137.53 81.9431 1137.58 82.1681 1137.76 82.2931L1182.58 108.791L1129.38 158.512L1104.03 179.81L1091.91 169.361C1091.76 169.236 1091.51 169.236 1091.39 169.411C1091.26 169.561 1091.26 169.811 1091.44 169.936L1103.81 180.61C1103.86 180.635 1103.93 180.66 1104.03 180.66Z" fill="white"/>
<path opacity="0.5" d="M986.419 147.338C986.469 147.338 986.544 147.313 986.594 147.263L1030.66 107.841L1041.36 117.915C1041.46 118.015 1041.61 118.015 1041.71 117.915C1041.81 117.815 1041.81 117.665 1041.71 117.565L1030.84 107.341C1030.74 107.241 1030.59 107.241 1030.49 107.341L986.244 146.938C986.144 147.038 986.144 147.188 986.219 147.288C986.294 147.313 986.344 147.338 986.419 147.338Z" fill="white"/>
<g filter="url(#filter11_f_10684_173075)">
<path d="M984.764 153.444C982.266 153.444 980.24 151.418 980.24 148.919C980.24 146.42 982.266 144.395 984.764 144.395C987.263 144.395 989.289 146.42 989.289 148.919C989.289 151.418 987.263 153.444 984.764 153.444Z" fill="url(#paint85_linear_10684_173075)"/>
<path d="M1138.31 87.2927C1135.81 87.2927 1133.79 85.2669 1133.79 82.768C1133.79 80.2692 1135.81 78.2434 1138.31 78.2434C1140.81 78.2434 1142.84 80.2692 1142.84 82.768C1142.84 85.2669 1140.81 87.2927 1138.31 87.2927Z" fill="url(#paint86_linear_10684_173075)"/>
<path d="M1091.91 175.01C1089.41 175.01 1087.39 172.985 1087.39 170.486C1087.39 167.987 1089.41 165.961 1091.91 165.961C1094.41 165.961 1096.44 167.987 1096.44 170.486C1096.44 172.985 1094.41 175.01 1091.91 175.01Z" fill="url(#paint87_linear_10684_173075)"/>
</g>
<path d="M1093.9 78.1684L1144.27 32.4973L1104.55 16.5486L1061.61 54.0205L1093.9 78.1684Z" fill="url(#paint88_linear_10684_173075)"/>
<path d="M1144.27 31.8223L1161.65 61.0199L1117.88 101.041L1093.9 78.1684L1144.27 31.8223Z" fill="url(#paint89_linear_10684_173075)"/>
<path opacity="0.74" d="M1061.6 53.3455L1083.7 77.1935L1117.88 101.042L1093.9 78.1684L1061.6 53.3455Z" fill="url(#paint90_linear_10684_173075)"/>
<path opacity="0.06" d="M981.267 95.492L1015.66 130.439L968.143 172.236L937.021 133.864L981.267 95.492Z" fill="url(#paint91_linear_10684_173075)"/>
<path d="M947.442 133.614L981.039 104.941L966.415 92.7672L935.568 117.765L947.442 133.614Z" fill="url(#paint92_linear_10684_173075)"/>
<path d="M980.766 104.666L1003.04 131.839L969.392 161.486L946.794 133.564L980.766 104.666Z" fill="url(#paint93_linear_10684_173075)"/>
<g opacity="0.75" filter="url(#filter12_d_10684_173075)">
<path d="M1091.24 126.392C1090.84 124.866 1089.54 123.34 1087.21 121.641C1085.34 120.287 1083.35 119.51 1081.77 119.51C1081.45 119.51 1081.16 119.538 1080.88 119.596C1080.16 119.74 1079.52 120.258 1079.12 121.036C1078.63 121.957 1078.51 123.196 1078.83 123.944C1078.95 124.175 1079.09 124.463 1079.26 124.722C1077.74 125.644 1076.87 125.903 1076.76 125.932C1080.73 127.256 1084.04 130.021 1086.12 133.62L1086.15 133.275C1086.23 132.325 1086.52 131.23 1086.92 130.107C1087.33 130.222 1087.73 130.28 1088.13 130.28C1089.2 130.28 1090.12 129.848 1090.7 129.07C1091.27 128.293 1091.5 127.256 1091.24 126.392Z" fill="#5E12A0"/>
<path d="M1087.14 129.272C1089.76 129.992 1090.83 127.976 1090.48 126.623C1090.11 125.269 1088.9 123.887 1086.76 122.332C1084.63 120.777 1082.47 120.143 1081.09 120.431C1079.71 120.719 1079.31 122.822 1079.65 123.628C1079.8 123.945 1080.11 124.405 1080.54 124.924C1080 125.298 1079.48 125.586 1079.05 125.845C1081.7 127.026 1084 128.869 1085.73 131.173C1085.93 130.395 1086.22 129.704 1086.48 129.099C1086.68 129.128 1086.91 129.186 1087.14 129.272Z" fill="url(#paint94_radial_10684_173075)"/>
<path d="M1072.17 157.494C1081.06 157.494 1088.27 150.286 1088.27 141.396C1088.27 132.505 1081.06 125.298 1072.17 125.298C1063.28 125.298 1056.07 132.505 1056.07 141.396C1056.07 150.286 1063.28 157.494 1072.17 157.494Z" fill="url(#paint95_radial_10684_173075)"/>
<path d="M1089.18 125.298C1086.99 122.995 1085.14 122.39 1082.93 121.9C1081.2 121.497 1081.66 120.518 1083.76 120.72C1082.75 120.374 1081.8 120.288 1081.11 120.432C1079.73 120.72 1079.33 122.822 1079.67 123.628C1079.82 123.945 1080.13 124.406 1080.57 124.924C1079.79 125.442 1079.13 125.817 1078.58 126.105C1078.84 126.22 1079.15 126.364 1079.53 126.566C1080.51 127.084 1081.57 127.948 1081.57 127.948C1079.96 126.566 1080.31 125.932 1082.52 124.377C1083.21 123.887 1084.48 123.945 1085.66 124.55C1086.84 125.154 1088.23 126.681 1088.23 126.681L1086.9 129.215C1086.99 129.244 1087.07 129.272 1087.16 129.301C1087.99 129.532 1088.66 129.474 1089.18 129.272C1089.78 128.898 1091.36 127.631 1089.18 125.298Z" fill="#A98698" fill-opacity="0.6"/>
<path d="M1082.89 123.282C1083.47 123.513 1084.21 123.916 1085.14 124.521C1086.23 125.241 1087.18 126.047 1087.79 126.681C1086.78 128.005 1086.12 129.82 1085.71 131.087C1085.91 131.375 1086.14 131.663 1086.35 131.951C1086.55 131.231 1086.89 130.165 1087.35 129.1C1087.47 129.128 1087.61 129.128 1087.76 129.128C1088.1 129.128 1088.51 129.071 1088.82 128.812C1089.05 128.639 1089.31 128.322 1089.28 127.746C1089.28 127.199 1088.85 126.508 1087.96 125.673C1087.32 125.068 1086.46 124.406 1085.6 123.801C1083.12 122.159 1081.39 121.699 1080.61 122.476C1080.1 122.994 1080.15 123.628 1080.33 124.089C1079.41 124.694 1078.63 125.125 1078.11 125.413C1078.45 125.529 1078.77 125.673 1079.12 125.817C1080.04 125.327 1081.36 124.492 1082.89 123.282ZM1088.33 127.4C1088.42 127.544 1088.45 127.688 1088.45 127.775C1088.45 128.034 1088.36 128.12 1088.3 128.178C1088.19 128.264 1087.96 128.322 1087.76 128.322C1087.93 127.976 1088.13 127.688 1088.33 127.4ZM1081.22 123.11C1081.31 123.023 1081.54 122.966 1081.91 123.023C1081.62 123.254 1081.33 123.455 1081.05 123.657C1081.02 123.455 1081.05 123.254 1081.22 123.11Z" fill="#5E12A0"/>
<path d="M1072.18 124.347C1062.76 124.347 1055.13 131.979 1055.13 141.395C1055.13 150.812 1062.76 158.444 1072.18 158.444C1081.6 158.444 1089.23 150.812 1089.23 141.395C1089.23 131.979 1081.57 124.347 1072.18 124.347ZM1072.18 157.493C1063.28 157.493 1056.08 150.294 1056.08 141.395C1056.08 132.497 1063.28 125.298 1072.18 125.298C1081.08 125.298 1088.28 132.497 1088.28 141.395C1088.28 150.294 1081.05 157.493 1072.18 157.493Z" fill="#5E12A0"/>
<path d="M1072.17 157.494C1081.06 157.494 1088.27 150.286 1088.27 141.396C1088.27 132.505 1081.06 125.298 1072.17 125.298C1063.28 125.298 1056.07 132.505 1056.07 141.396C1056.07 150.286 1063.28 157.494 1072.17 157.494Z" fill="url(#paint96_linear_10684_173075)"/>
<path d="M1072.06 155.536C1063.27 154.125 1057.31 145.86 1058.75 137.076C1059.39 133.189 1061.35 129.877 1064.11 127.487C1060.08 129.819 1057.08 133.88 1056.28 138.833C1054.87 147.616 1060.83 155.881 1069.58 157.292C1074.48 158.099 1079.2 156.572 1082.68 153.577C1079.6 155.363 1075.86 156.14 1072.06 155.536Z" fill="#A98698" fill-opacity="0.6"/>
<path d="M1074.7 125.528C1070.64 124.866 1066.69 125.787 1063.46 127.832C1063.41 127.889 1063.35 127.947 1063.35 127.947C1064.59 127.198 1066.4 126.536 1066.4 126.536C1061.74 129.243 1060.3 132.324 1060.3 132.324C1062.11 128.811 1067.44 126.334 1071.61 126.161C1075.79 125.989 1078.53 127.227 1081.87 129.905C1085.21 132.612 1087.22 138.141 1087.02 142.518C1086.85 146.896 1084.54 150.438 1084.54 150.438C1086.13 148.393 1087.08 146.896 1087.68 145.369C1087.8 144.909 1087.91 144.448 1087.97 143.958C1089.41 135.204 1083.48 126.939 1074.7 125.528Z" fill="url(#paint97_linear_10684_173075)"/>
<path d="M1087.37 141.251C1087.37 149.689 1080.52 156.543 1072.08 156.543C1063.64 156.543 1056.76 149.689 1056.76 141.251H1087.37Z" fill="url(#paint98_linear_10684_173075)"/>
<path d="M1086.23 141.251C1086.23 149.488 1079.73 156.226 1071.55 156.543H1072.15C1080.59 156.543 1087.44 149.689 1087.44 141.251H1086.23Z" fill="url(#paint99_linear_10684_173075)"/>
<path d="M1058.92 141.251H1056.76C1056.76 149.689 1063.61 156.543 1072.05 156.543C1072.42 156.543 1072.77 156.543 1073.11 156.514C1065.2 155.938 1058.92 149.315 1058.92 141.251Z" fill="url(#paint100_linear_10684_173075)"/>
<path d="M1087.34 141.395C1087.34 139.639 1084.29 138.631 1080.23 138.285C1077.29 138.055 1074.32 138.343 1070.93 139.38C1067.99 140.244 1065.34 140.1 1063.41 139.869C1059.12 139.38 1056.76 139.322 1056.76 141.395C1056.76 144.39 1062.86 148.134 1072.02 146.838C1076.66 146.176 1079.05 144.822 1081.78 143.901C1084.75 142.922 1087.34 142.951 1087.34 141.395Z" fill="url(#paint101_linear_10684_173075)"/>
<path d="M1077.14 134.139C1078.57 134.139 1079.73 132.979 1079.73 131.547C1079.73 130.116 1078.57 128.955 1077.14 128.955C1075.71 128.955 1074.55 130.116 1074.55 131.547C1074.55 132.979 1075.71 134.139 1077.14 134.139Z" fill="white"/>
<path d="M1081.39 136.068C1082 136.068 1082.49 135.578 1082.49 134.974C1082.49 134.369 1082 133.879 1081.39 133.879C1080.79 133.879 1080.3 134.369 1080.3 134.974C1080.3 135.578 1080.79 136.068 1081.39 136.068Z" fill="white"/>
<path d="M1085.31 129.473H1085.25C1085.08 129.445 1084.96 129.272 1084.99 129.07C1085.25 127.745 1086.34 126.478 1086.4 126.421C1086.52 126.277 1086.75 126.277 1086.86 126.392C1087 126.507 1087 126.738 1086.89 126.853C1086.86 126.882 1085.85 128.062 1085.62 129.214C1085.59 129.387 1085.45 129.473 1085.31 129.473Z" fill="url(#paint102_linear_10684_173075)"/>
<path d="M1071.1 153.404C1071.54 153.404 1071.9 153.043 1071.9 152.598C1071.9 152.153 1071.54 151.792 1071.1 151.792C1070.65 151.792 1070.29 152.153 1070.29 152.598C1070.29 153.043 1070.65 153.404 1071.1 153.404Z" fill="white" fill-opacity="0.2"/>
<path d="M1070.55 153.117C1070.23 152.8 1070.23 152.282 1070.55 151.965C1070.61 151.907 1070.66 151.879 1070.72 151.821C1070.61 151.85 1070.52 151.907 1070.43 151.994C1070.12 152.311 1070.12 152.829 1070.43 153.146C1070.69 153.405 1071.1 153.462 1071.41 153.29C1071.12 153.405 1070.78 153.347 1070.55 153.117Z" fill="url(#paint103_linear_10684_173075)"/>
<path d="M1071.31 152.368C1071.4 152.368 1071.48 152.29 1071.48 152.195C1071.48 152.099 1071.4 152.022 1071.31 152.022C1071.21 152.022 1071.13 152.099 1071.13 152.195C1071.13 152.29 1071.21 152.368 1071.31 152.368Z" fill="white" fill-opacity="0.3"/>
<path d="M1075.31 153.001C1075.76 153.001 1076.12 152.64 1076.12 152.194C1076.12 151.749 1075.76 151.388 1075.31 151.388C1074.87 151.388 1074.51 151.749 1074.51 152.194C1074.51 152.64 1074.87 153.001 1075.31 153.001Z" fill="white" fill-opacity="0.2"/>
<path d="M1074.86 152.713C1074.54 152.397 1074.54 151.878 1074.86 151.561C1074.92 151.504 1074.98 151.475 1075.03 151.417C1074.92 151.446 1074.83 151.504 1074.75 151.59C1074.43 151.907 1074.43 152.425 1074.75 152.742C1075 153.001 1075.41 153.059 1075.72 152.886C1075.44 153.001 1075.09 152.944 1074.86 152.713Z" fill="url(#paint104_linear_10684_173075)"/>
<path d="M1075.62 151.965C1075.71 151.965 1075.79 151.887 1075.79 151.792C1075.79 151.697 1075.71 151.619 1075.62 151.619C1075.52 151.619 1075.45 151.697 1075.45 151.792C1075.45 151.887 1075.52 151.965 1075.62 151.965Z" fill="white" fill-opacity="0.3"/>
<path d="M1073.24 154.874C1073.57 154.874 1073.84 154.603 1073.84 154.269C1073.84 153.935 1073.57 153.664 1073.24 153.664C1072.9 153.664 1072.63 153.935 1072.63 154.269C1072.63 154.603 1072.9 154.874 1073.24 154.874Z" fill="white" fill-opacity="0.2"/>
<path d="M1072.89 154.642C1072.66 154.412 1072.66 154.009 1072.89 153.778C1072.92 153.75 1072.98 153.721 1073.01 153.692C1072.92 153.721 1072.86 153.778 1072.81 153.836C1072.58 154.066 1072.58 154.469 1072.81 154.7C1073.01 154.901 1073.3 154.93 1073.55 154.786C1073.32 154.873 1073.06 154.815 1072.89 154.642Z" fill="url(#paint105_linear_10684_173075)"/>
<path d="M1073.4 154.066C1073.47 154.066 1073.52 154.015 1073.52 153.951C1073.52 153.888 1073.47 153.836 1073.4 153.836C1073.34 153.836 1073.29 153.888 1073.29 153.951C1073.29 154.015 1073.34 154.066 1073.4 154.066Z" fill="white" fill-opacity="0.3"/>
<path d="M1076.89 154.441C1077.23 154.441 1077.5 154.17 1077.5 153.836C1077.5 153.502 1077.23 153.232 1076.89 153.232C1076.56 153.232 1076.29 153.502 1076.29 153.836C1076.29 154.17 1076.56 154.441 1076.89 154.441Z" fill="white" fill-opacity="0.2"/>
<path d="M1076.55 154.211C1076.32 153.981 1076.32 153.578 1076.55 153.347C1076.58 153.318 1076.63 153.29 1076.66 153.261C1076.58 153.29 1076.52 153.347 1076.46 153.405C1076.23 153.635 1076.23 154.038 1076.46 154.269C1076.66 154.47 1076.95 154.499 1077.21 154.355C1076.98 154.442 1076.72 154.384 1076.55 154.211Z" fill="url(#paint106_linear_10684_173075)"/>
<path d="M1077.14 153.634C1077.2 153.634 1077.25 153.583 1077.25 153.519C1077.25 153.455 1077.2 153.404 1077.14 153.404C1077.07 153.404 1077.02 153.455 1077.02 153.519C1077.02 153.583 1077.07 153.634 1077.14 153.634Z" fill="white" fill-opacity="0.3"/>
<path d="M1067.61 153.116C1068.35 153.116 1068.94 152.523 1068.94 151.792C1068.94 151.06 1068.35 150.467 1067.61 150.467C1066.88 150.467 1066.29 151.06 1066.29 151.792C1066.29 152.523 1066.88 153.116 1067.61 153.116Z" fill="white" fill-opacity="0.2"/>
<path d="M1066.94 152.627C1066.43 152.109 1066.43 151.274 1066.94 150.756C1067.03 150.669 1067.12 150.612 1067.23 150.554C1067.06 150.612 1066.92 150.727 1066.77 150.842C1066.25 151.36 1066.25 152.195 1066.77 152.714C1067.2 153.146 1067.87 153.232 1068.38 152.915C1067.89 153.117 1067.32 153.031 1066.94 152.627Z" fill="url(#paint107_linear_10684_173075)"/>
<path d="M1068.1 151.389C1068.26 151.389 1068.39 151.26 1068.39 151.101C1068.39 150.942 1068.26 150.813 1068.1 150.813C1067.94 150.813 1067.81 150.942 1067.81 151.101C1067.81 151.26 1067.94 151.389 1068.1 151.389Z" fill="white" fill-opacity="0.3"/>
<path d="M1079.48 149.862C1080.21 149.862 1080.81 149.269 1080.81 148.537C1080.81 147.806 1080.21 147.213 1079.48 147.213C1078.75 147.213 1078.16 147.806 1078.16 148.537C1078.16 149.269 1078.75 149.862 1079.48 149.862Z" fill="white" fill-opacity="0.2"/>
<path d="M1078.7 149.373C1078.18 148.855 1078.18 148.02 1078.7 147.501C1078.79 147.415 1078.87 147.357 1078.99 147.3C1078.82 147.357 1078.67 147.472 1078.53 147.588C1078.01 148.106 1078.01 148.941 1078.53 149.459C1078.96 149.891 1079.62 149.978 1080.14 149.661C1079.65 149.863 1079.11 149.776 1078.7 149.373Z" fill="url(#paint108_linear_10684_173075)"/>
<path d="M1079.96 148.135C1080.12 148.135 1080.25 148.006 1080.25 147.847C1080.25 147.688 1080.12 147.559 1079.96 147.559C1079.8 147.559 1079.67 147.688 1079.67 147.847C1079.67 148.006 1079.8 148.135 1079.96 148.135Z" fill="white" fill-opacity="0.3"/>
</g>
<path d="M1052.7 162.711L1099.75 120.215L1064.68 96.7918L1024.51 133.114L1052.7 162.711Z" fill="url(#paint109_linear_10684_173075)"/>
<path d="M1099.75 120.215L1116.23 147.888L1074.76 185.834L1052.71 162.711L1099.75 120.215Z" fill="url(#paint110_linear_10684_173075)"/>
</g>
<defs>
<filter id="filter0_f_10684_173075" x="355.82" y="-162" width="488.359" height="524" filterUnits="userSpaceOnUse" color-interpolation-filters="sRGB">
<feFlood flood-opacity="0" result="BackgroundImageFix"/>
<feBlend mode="normal" in="SourceGraphic" in2="BackgroundImageFix" result="shape"/>
<feGaussianBlur stdDeviation="4" result="effect1_foregroundBlur_10684_173075"/>
</filter>
<filter id="filter1_f_10684_173075" x="-196.469" y="99.3653" width="338.531" height="322.581" filterUnits="userSpaceOnUse" color-interpolation-filters="sRGB">
<feFlood flood-opacity="0" result="BackgroundImageFix"/>
<feBlend mode="normal" in="SourceGraphic" in2="BackgroundImageFix" result="shape"/>
<feGaussianBlur stdDeviation="24" result="effect1_foregroundBlur_10684_173075"/>
</filter>
<filter id="filter2_f_10684_173075" x="53.6328" y="-70.4842" width="204.391" height="185.915" filterUnits="userSpaceOnUse" color-interpolation-filters="sRGB">
<feFlood flood-opacity="0" result="BackgroundImageFix"/>
<feBlend mode="normal" in="SourceGraphic" in2="BackgroundImageFix" result="shape"/>
<feGaussianBlur stdDeviation="16" result="effect1_foregroundBlur_10684_173075"/>
</filter>
<filter id="filter3_f_10684_173075" x="135.188" y="73.1308" width="148.297" height="141.664" filterUnits="userSpaceOnUse" color-interpolation-filters="sRGB">
<feFlood flood-opacity="0" result="BackgroundImageFix"/>
<feBlend mode="normal" in="SourceGraphic" in2="BackgroundImageFix" result="shape"/>
<feGaussianBlur stdDeviation="24" result="effect1_foregroundBlur_10684_173075"/>
</filter>
<filter id="filter4_f_10684_173075" x="-11.5391" y="23.9521" width="139.289" height="121.446" filterUnits="userSpaceOnUse" color-interpolation-filters="sRGB">
<feFlood flood-opacity="0" result="BackgroundImageFix"/>
<feBlend mode="normal" in="SourceGraphic" in2="BackgroundImageFix" result="shape"/>
<feGaussianBlur stdDeviation="24" result="effect1_foregroundBlur_10684_173075"/>
</filter>
<filter id="filter5_f_10684_173075" x="54.1643" y="75.2437" width="168.593" height="102.766" filterUnits="userSpaceOnUse" color-interpolation-filters="sRGB">
<feFlood flood-opacity="0" result="BackgroundImageFix"/>
<feBlend mode="normal" in="SourceGraphic" in2="BackgroundImageFix" result="shape"/>
<feGaussianBlur stdDeviation="1.49987" result="effect1_foregroundBlur_10684_173075"/>
</filter>
<filter id="filter6_d_10684_173075" x="102.281" y="115.51" width="52.2188" height="54.9341" filterUnits="userSpaceOnUse" color-interpolation-filters="sRGB">
<feFlood flood-opacity="0" result="BackgroundImageFix"/>
<feColorMatrix in="SourceAlpha" type="matrix" values="0 0 0 0 0 0 0 0 0 0 0 0 0 0 0 0 0 0 127 0" result="hardAlpha"/>
<feOffset dy="4"/>
<feGaussianBlur stdDeviation="4"/>
<feComposite in2="hardAlpha" operator="out"/>
<feColorMatrix type="matrix" values="0 0 0 0 0 0 0 0 0 0 0 0 0 0 0 0 0 0 0.5 0"/>
<feBlend mode="normal" in2="BackgroundImageFix" result="effect1_dropShadow_10684_173075"/>
<feBlend mode="normal" in="SourceGraphic" in2="effect1_dropShadow_10684_173075" result="shape"/>
</filter>
<filter id="filter7_f_10684_173075" x="1057.94" y="99.3653" width="338.531" height="322.581" filterUnits="userSpaceOnUse" color-interpolation-filters="sRGB">
<feFlood flood-opacity="0" result="BackgroundImageFix"/>
<feBlend mode="normal" in="SourceGraphic" in2="BackgroundImageFix" result="shape"/>
<feGaussianBlur stdDeviation="24" result="effect1_foregroundBlur_10684_173075"/>
</filter>
<filter id="filter8_f_10684_173075" x="941.977" y="-70.4842" width="204.391" height="185.915" filterUnits="userSpaceOnUse" color-interpolation-filters="sRGB">
<feFlood flood-opacity="0" result="BackgroundImageFix"/>
<feBlend mode="normal" in="SourceGraphic" in2="BackgroundImageFix" result="shape"/>
<feGaussianBlur stdDeviation="16" result="effect1_foregroundBlur_10684_173075"/>
</filter>
<filter id="filter9_f_10684_173075" x="916.516" y="73.1308" width="148.297" height="141.664" filterUnits="userSpaceOnUse" color-interpolation-filters="sRGB">
<feFlood flood-opacity="0" result="BackgroundImageFix"/>
<feBlend mode="normal" in="SourceGraphic" in2="BackgroundImageFix" result="shape"/>
<feGaussianBlur stdDeviation="24" result="effect1_foregroundBlur_10684_173075"/>
</filter>
<filter id="filter10_f_10684_173075" x="1072.25" y="23.9521" width="139.289" height="121.446" filterUnits="userSpaceOnUse" color-interpolation-filters="sRGB">
<feFlood flood-opacity="0" result="BackgroundImageFix"/>
<feBlend mode="normal" in="SourceGraphic" in2="BackgroundImageFix" result="shape"/>
<feGaussianBlur stdDeviation="24" result="effect1_foregroundBlur_10684_173075"/>
</filter>
<filter id="filter11_f_10684_173075" x="977.242" y="75.2437" width="168.593" height="102.766" filterUnits="userSpaceOnUse" color-interpolation-filters="sRGB">
<feFlood flood-opacity="0" result="BackgroundImageFix"/>
<feBlend mode="normal" in="SourceGraphic" in2="BackgroundImageFix" result="shape"/>
<feGaussianBlur stdDeviation="1.49987" result="effect1_foregroundBlur_10684_173075"/>
</filter>
<filter id="filter12_d_10684_173075" x="1047.13" y="115.51" width="52.2188" height="54.9341" filterUnits="userSpaceOnUse" color-interpolation-filters="sRGB">
<feFlood flood-opacity="0" result="BackgroundImageFix"/>
<feColorMatrix in="SourceAlpha" type="matrix" values="0 0 0 0 0 0 0 0 0 0 0 0 0 0 0 0 0 0 127 0" result="hardAlpha"/>
<feOffset dy="4"/>
<feGaussianBlur stdDeviation="4"/>
<feComposite in2="hardAlpha" operator="out"/>
<feColorMatrix type="matrix" values="0 0 0 0 0 0 0 0 0 0 0 0 0 0 0 0 0 0 0.5 0"/>
<feBlend mode="normal" in2="BackgroundImageFix" result="effect1_dropShadow_10684_173075"/>
<feBlend mode="normal" in="SourceGraphic" in2="effect1_dropShadow_10684_173075" result="shape"/>
</filter>
<radialGradient id="paint0_radial_10684_173075" cx="0" cy="0" r="1" gradientUnits="userSpaceOnUse" gradientTransform="translate(724.847 -13.2412) scale(410.879)">
<stop stop-color="#FFEAFF" stop-opacity="0.6"/>
<stop offset="0.68" stop-color="#A087C9"/>
<stop offset="1" stop-color="#10002F"/>
</radialGradient>
<linearGradient id="paint1_linear_10684_173075" x1="552.091" y1="338.626" x2="619.272" y2="-75.8453" gradientUnits="userSpaceOnUse">
<stop stop-color="#81FFFF" stop-opacity="0.6"/>
<stop offset="0.62" stop-color="white" stop-opacity="0"/>
<stop offset="1" stop-color="white" stop-opacity="0"/>
</linearGradient>
<linearGradient id="paint2_linear_10684_173075" x1="733.736" y1="-11.0859" x2="560.053" y2="148.274" gradientUnits="userSpaceOnUse">
<stop stop-color="white" stop-opacity="0.6"/>
<stop offset="0.29" stop-color="white" stop-opacity="0.6"/>
<stop offset="0.78" stop-color="white" stop-opacity="0"/>
<stop offset="1" stop-color="white" stop-opacity="0"/>
</linearGradient>
<linearGradient id="paint3_linear_10684_173075" x1="385.091" y1="229.325" x2="784.24" y2="229.325" gradientUnits="userSpaceOnUse">
<stop stop-color="#0002E9"/>
<stop offset="1" stop-color="#FF00C7"/>
</linearGradient>
<linearGradient id="paint4_linear_10684_173075" x1="804.334" y1="147.189" x2="587.078" y2="352.509" gradientUnits="userSpaceOnUse">
<stop stop-color="white" stop-opacity="0.6"/>
<stop offset="0.29" stop-color="white" stop-opacity="0.6"/>
<stop offset="0.78" stop-color="white" stop-opacity="0"/>
<stop offset="1" stop-color="white" stop-opacity="0"/>
</linearGradient>
<linearGradient id="paint5_linear_10684_173075" x1="385.091" y1="229.325" x2="598.634" y2="229.325" gradientUnits="userSpaceOnUse">
<stop stop-color="#000292" stop-opacity="0.7"/>
<stop offset="1" stop-color="#7D00C7" stop-opacity="0.7"/>
</linearGradient>
<linearGradient id="paint6_linear_10684_173075" x1="385.359" y1="148.136" x2="783.974" y2="148.136" gradientUnits="userSpaceOnUse">
<stop stop-color="#000292"/>
<stop offset="1" stop-color="#BE00C7"/>
</linearGradient>
<radialGradient id="paint7_radial_10684_173075" cx="0" cy="0" r="1" gradientUnits="userSpaceOnUse" gradientTransform="translate(-27.2134 260.652) scale(121.264 113.278)">
<stop stop-color="#BABBBE"/>
<stop offset="0.9337"/>
</radialGradient>
<radialGradient id="paint8_radial_10684_173075" cx="0" cy="0" r="1" gradientUnits="userSpaceOnUse" gradientTransform="translate(94.0608 147.365) rotate(136.027) scale(219.551 219.524)">
<stop stop-color="#FF6230"/>
<stop offset="0.306414" stop-color="#FF9901"/>
<stop offset="0.626843" stop-color="#042D5B"/>
<stop offset="0.819636" stop-color="#1F2E3E"/>
<stop offset="0.964731" stop-color="#1B2229"/>
</radialGradient>
<linearGradient id="paint9_linear_10684_173075" x1="-324.246" y1="238.428" x2="355.671" y2="238.428" gradientUnits="userSpaceOnUse">
<stop stop-color="#5082C1"/>
<stop offset="1" stop-color="#5081C1" stop-opacity="0"/>
</linearGradient>
<linearGradient id="paint10_linear_10684_173075" x1="-252.458" y1="214.506" x2="300.048" y2="214.506" gradientUnits="userSpaceOnUse">
<stop stop-color="#5082C1"/>
<stop offset="1" stop-color="#5081C1" stop-opacity="0"/>
</linearGradient>
<linearGradient id="paint11_linear_10684_173075" x1="-193.493" y1="181.145" x2="311.991" y2="181.145" gradientUnits="userSpaceOnUse">
<stop stop-color="#5082C1"/>
<stop offset="1" stop-color="#5081C1" stop-opacity="0"/>
</linearGradient>
<linearGradient id="paint12_linear_10684_173075" x1="-144.083" y1="153.933" x2="321.711" y2="153.933" gradientUnits="userSpaceOnUse">
<stop stop-color="#5082C1"/>
<stop offset="1" stop-color="#5081C1" stop-opacity="0"/>
</linearGradient>
<linearGradient id="paint13_linear_10684_173075" x1="-102.088" y1="131.312" x2="329.767" y2="131.312" gradientUnits="userSpaceOnUse">
<stop stop-color="#5082C1"/>
<stop offset="1" stop-color="#5081C1" stop-opacity="0"/>
</linearGradient>
<linearGradient id="paint14_linear_10684_173075" x1="-65.9467" y1="112.208" x2="336.562" y2="112.208" gradientUnits="userSpaceOnUse">
<stop stop-color="#5082C1"/>
<stop offset="1" stop-color="#5081C1" stop-opacity="0"/>
</linearGradient>
<linearGradient id="paint15_linear_10684_173075" x1="-34.5195" y1="95.8609" x2="342.366" y2="95.8609" gradientUnits="userSpaceOnUse">
<stop stop-color="#5082C1"/>
<stop offset="1" stop-color="#5081C1" stop-opacity="0"/>
</linearGradient>
<linearGradient id="paint16_linear_10684_173075" x1="-6.93524" y1="81.7128" x2="347.385" y2="81.7128" gradientUnits="userSpaceOnUse">
<stop stop-color="#5082C1"/>
<stop offset="1" stop-color="#5081C1" stop-opacity="0"/>
</linearGradient>
<linearGradient id="paint17_linear_10684_173075" x1="17.4641" y1="69.3477" x2="351.763" y2="69.3477" gradientUnits="userSpaceOnUse">
<stop stop-color="#5082C1"/>
<stop offset="1" stop-color="#5081C1" stop-opacity="0"/>
</linearGradient>
<linearGradient id="paint18_linear_10684_173075" x1="229.098" y1="335.554" x2="329.181" y2="335.554" gradientUnits="userSpaceOnUse">
<stop stop-color="#5082C1"/>
<stop offset="1" stop-color="#5081C1" stop-opacity="0"/>
</linearGradient>
<linearGradient id="paint19_linear_10684_173075" x1="175.128" y1="297.962" x2="303.091" y2="297.962" gradientUnits="userSpaceOnUse">
<stop stop-color="#5082C1"/>
<stop offset="1" stop-color="#5081C1" stop-opacity="0"/>
</linearGradient>
<linearGradient id="paint20_linear_10684_173075" x1="122.809" y1="261.34" x2="277.376" y2="261.34" gradientUnits="userSpaceOnUse">
<stop stop-color="#5082C1"/>
<stop offset="1" stop-color="#5081C1" stop-opacity="0"/>
</linearGradient>
<linearGradient id="paint21_linear_10684_173075" x1="72.1118" y1="225.647" x2="252.071" y2="225.647" gradientUnits="userSpaceOnUse">
<stop stop-color="#5082C1"/>
<stop offset="1" stop-color="#5081C1" stop-opacity="0"/>
</linearGradient>
<linearGradient id="paint22_linear_10684_173075" x1="22.8366" y1="190.847" x2="227.041" y2="190.847" gradientUnits="userSpaceOnUse">
<stop stop-color="#5082C1"/>
<stop offset="1" stop-color="#5081C1" stop-opacity="0"/>
</linearGradient>
<linearGradient id="paint23_linear_10684_173075" x1="-24.9548" y1="156.903" x2="202.407" y2="156.903" gradientUnits="userSpaceOnUse">
<stop stop-color="#5082C1"/>
<stop offset="1" stop-color="#5081C1" stop-opacity="0"/>
</linearGradient>
<linearGradient id="paint24_linear_10684_173075" x1="-71.3674" y1="123.781" x2="178.119" y2="123.781" gradientUnits="userSpaceOnUse">
<stop stop-color="#5082C1"/>
<stop offset="1" stop-color="#5081C1" stop-opacity="0"/>
</linearGradient>
<linearGradient id="paint25_linear_10684_173075" x1="-116.464" y1="91.4508" x2="154.167" y2="91.4508" gradientUnits="userSpaceOnUse">
<stop stop-color="#5082C1"/>
<stop offset="1" stop-color="#5081C1" stop-opacity="0"/>
</linearGradient>
<linearGradient id="paint26_linear_10684_173075" x1="-160.291" y1="59.8811" x2="130.553" y2="59.8811" gradientUnits="userSpaceOnUse">
<stop stop-color="#5082C1"/>
<stop offset="1" stop-color="#5081C1" stop-opacity="0"/>
</linearGradient>
<linearGradient id="paint27_linear_10684_173075" x1="-202.911" y1="29.0436" x2="107.263" y2="29.0436" gradientUnits="userSpaceOnUse">
<stop stop-color="#5082C1"/>
<stop offset="1" stop-color="#5081C1" stop-opacity="0"/>
</linearGradient>
<linearGradient id="paint28_linear_10684_173075" x1="-244.367" y1="-1.08878" x2="84.2951" y2="-1.08878" gradientUnits="userSpaceOnUse">
<stop stop-color="#5082C1"/>
<stop offset="1" stop-color="#5081C1" stop-opacity="0"/>
</linearGradient>
<linearGradient id="paint29_linear_10684_173075" x1="184.656" y1="57.4202" x2="143.234" y2="57.4202" gradientUnits="userSpaceOnUse">
<stop stop-color="#007AFF"/>
<stop offset="1" stop-color="#482BFF"/>
</linearGradient>
<linearGradient id="paint30_linear_10684_173075" x1="226.021" y1="22.4731" x2="85.6328" y2="22.4732" gradientUnits="userSpaceOnUse">
<stop stop-color="#007AFF"/>
<stop offset="1" stop-color="#482BFF"/>
</linearGradient>
<linearGradient id="paint31_linear_10684_173075" x1="235.485" y1="143.963" x2="183.188" y2="143.963" gradientUnits="userSpaceOnUse">
<stop stop-color="#007AFF"/>
<stop offset="1" stop-color="#00B2FF"/>
</linearGradient>
<linearGradient id="paint32_linear_10684_173075" x1="36.4609" y1="84.6751" x2="79.7518" y2="84.6751" gradientUnits="userSpaceOnUse">
<stop stop-color="#FFA800"/>
<stop offset="1" stop-color="#FF5107"/>
</linearGradient>
<linearGradient id="paint33_linear_10684_173075" x1="219.76" y1="148.919" x2="210.711" y2="148.919" gradientUnits="userSpaceOnUse">
<stop stop-color="#007AFF"/>
<stop offset="1" stop-color="#00B2FF"/>
</linearGradient>
<linearGradient id="paint34_linear_10684_173075" x1="57.1641" y1="82.768" x2="66.2133" y2="82.768" gradientUnits="userSpaceOnUse">
<stop stop-color="#FFA800"/>
<stop offset="1" stop-color="#FF5107"/>
</linearGradient>
<linearGradient id="paint35_linear_10684_173075" x1="112.612" y1="170.486" x2="103.563" y2="170.486" gradientUnits="userSpaceOnUse">
<stop stop-color="#482BFF"/>
<stop offset="1" stop-color="#007AFF"/>
</linearGradient>
<linearGradient id="paint36_linear_10684_173075" x1="55.7274" y1="47.3581" x2="138.386" y2="47.3581" gradientUnits="userSpaceOnUse">
<stop stop-color="#FFA600"/>
<stop offset="1" stop-color="#FF5306" stop-opacity="0"/>
</linearGradient>
<linearGradient id="paint37_linear_10684_173075" x1="44.7233" y1="79.8116" x2="101.377" y2="48.5032" gradientUnits="userSpaceOnUse">
<stop stop-color="#FF5207" stop-opacity="0"/>
<stop offset="1" stop-color="#FFA600" stop-opacity="0.5"/>
</linearGradient>
<linearGradient id="paint38_linear_10684_173075" x1="82.1193" y1="77.1934" x2="138.387" y2="77.1934" gradientUnits="userSpaceOnUse">
<stop stop-color="#FFA700"/>
<stop offset="1" stop-color="#FF5306" stop-opacity="0"/>
</linearGradient>
<linearGradient id="paint39_linear_10684_173075" x1="184.33" y1="133.867" x2="262.979" y2="133.867" gradientUnits="userSpaceOnUse">
<stop stop-color="#5082C1"/>
<stop offset="1" stop-color="#5081C1" stop-opacity="0"/>
</linearGradient>
<linearGradient id="paint40_linear_10684_173075" x1="221.488" y1="134.255" x2="251.21" y2="103.047" gradientUnits="userSpaceOnUse">
<stop stop-color="#007AFF"/>
<stop offset="1" stop-color="#00B2FF" stop-opacity="0"/>
</linearGradient>
<linearGradient id="paint41_linear_10684_173075" x1="196.888" y1="97.221" x2="246.755" y2="159.968" gradientUnits="userSpaceOnUse">
<stop stop-color="#007AFF" stop-opacity="0.5"/>
<stop offset="1" stop-color="#00B2FF" stop-opacity="0"/>
</linearGradient>
<radialGradient id="paint42_radial_10684_173075" cx="0" cy="0" r="1" gradientUnits="userSpaceOnUse" gradientTransform="translate(145.103 124.809) scale(12.871)">
<stop stop-color="#FFEAFF" stop-opacity="0.6"/>
<stop offset="0.68" stop-color="#A087C9"/>
<stop offset="1" stop-color="#10002F"/>
</radialGradient>
<radialGradient id="paint43_radial_10684_173075" cx="0" cy="0" r="1" gradientUnits="userSpaceOnUse" gradientTransform="translate(137.975 130.298) scale(31.4906)">
<stop stop-color="#FFEAFF" stop-opacity="0.6"/>
<stop offset="0.68" stop-color="#A087C9"/>
<stop offset="1" stop-color="#10002F"/>
</radialGradient>
<linearGradient id="paint44_linear_10684_173075" x1="124.734" y1="157.265" x2="129.883" y2="125.499" gradientUnits="userSpaceOnUse">
<stop stop-color="#81FFFF" stop-opacity="0.6"/>
<stop offset="0.62" stop-color="white" stop-opacity="0"/>
<stop offset="1" stop-color="white" stop-opacity="0"/>
</linearGradient>
<linearGradient id="paint45_linear_10684_173075" x1="138.626" y1="130.463" x2="125.315" y2="142.676" gradientUnits="userSpaceOnUse">
<stop stop-color="white" stop-opacity="0.6"/>
<stop offset="0.29" stop-color="white" stop-opacity="0.6"/>
<stop offset="0.78" stop-color="white" stop-opacity="0"/>
<stop offset="1" stop-color="white" stop-opacity="0"/>
</linearGradient>
<linearGradient id="paint46_linear_10684_173075" x1="111.919" y1="148.888" x2="142.511" y2="148.888" gradientUnits="userSpaceOnUse">
<stop stop-color="#0002E9"/>
<stop offset="1" stop-color="#FF00C7"/>
</linearGradient>
<linearGradient id="paint47_linear_10684_173075" x1="144.032" y1="142.593" x2="127.381" y2="158.329" gradientUnits="userSpaceOnUse">
<stop stop-color="white" stop-opacity="0.6"/>
<stop offset="0.29" stop-color="white" stop-opacity="0.6"/>
<stop offset="0.78" stop-color="white" stop-opacity="0"/>
<stop offset="1" stop-color="white" stop-opacity="0"/>
</linearGradient>
<linearGradient id="paint48_linear_10684_173075" x1="111.919" y1="148.888" x2="128.286" y2="148.888" gradientUnits="userSpaceOnUse">
<stop stop-color="#000292" stop-opacity="0.7"/>
<stop offset="1" stop-color="#7D00C7" stop-opacity="0.7"/>
</linearGradient>
<linearGradient id="paint49_linear_10684_173075" x1="111.94" y1="142.666" x2="142.49" y2="142.666" gradientUnits="userSpaceOnUse">
<stop stop-color="#000292"/>
<stop offset="1" stop-color="#BE00C7"/>
</linearGradient>
<linearGradient id="paint50_linear_10684_173075" x1="142.056" y1="126.281" x2="139.86" y2="129.849" gradientUnits="userSpaceOnUse">
<stop stop-color="white" stop-opacity="0.6"/>
<stop offset="0.29" stop-color="white" stop-opacity="0.6"/>
<stop offset="0.78" stop-color="white" stop-opacity="0"/>
<stop offset="1" stop-color="white" stop-opacity="0"/>
</linearGradient>
<linearGradient id="paint51_linear_10684_173075" x1="125.343" y1="152.623" x2="126.561" y2="152.623" gradientUnits="userSpaceOnUse">
<stop stop-color="white" stop-opacity="0.6"/>
<stop offset="0.29" stop-color="white" stop-opacity="0.6"/>
<stop offset="0.78" stop-color="white" stop-opacity="0"/>
<stop offset="1" stop-color="white" stop-opacity="0"/>
</linearGradient>
<linearGradient id="paint52_linear_10684_173075" x1="129.653" y1="152.214" x2="130.871" y2="152.214" gradientUnits="userSpaceOnUse">
<stop stop-color="white" stop-opacity="0.6"/>
<stop offset="0.29" stop-color="white" stop-opacity="0.6"/>
<stop offset="0.78" stop-color="white" stop-opacity="0"/>
<stop offset="1" stop-color="white" stop-opacity="0"/>
</linearGradient>
<linearGradient id="paint53_linear_10684_173075" x1="127.777" y1="154.275" x2="128.692" y2="154.275" gradientUnits="userSpaceOnUse">
<stop stop-color="white" stop-opacity="0.6"/>
<stop offset="0.29" stop-color="white" stop-opacity="0.6"/>
<stop offset="0.78" stop-color="white" stop-opacity="0"/>
<stop offset="1" stop-color="white" stop-opacity="0"/>
</linearGradient>
<linearGradient id="paint54_linear_10684_173075" x1="131.421" y1="153.843" x2="132.336" y2="153.843" gradientUnits="userSpaceOnUse">
<stop stop-color="white" stop-opacity="0.6"/>
<stop offset="0.29" stop-color="white" stop-opacity="0.6"/>
<stop offset="0.78" stop-color="white" stop-opacity="0"/>
<stop offset="1" stop-color="white" stop-opacity="0"/>
</linearGradient>
<linearGradient id="paint55_linear_10684_173075" x1="121.518" y1="151.826" x2="123.508" y2="151.826" gradientUnits="userSpaceOnUse">
<stop stop-color="white" stop-opacity="0.6"/>
<stop offset="0.29" stop-color="white" stop-opacity="0.6"/>
<stop offset="0.78" stop-color="white" stop-opacity="0"/>
<stop offset="1" stop-color="white" stop-opacity="0"/>
</linearGradient>
<linearGradient id="paint56_linear_10684_173075" x1="133.287" y1="148.571" x2="135.277" y2="148.571" gradientUnits="userSpaceOnUse">
<stop stop-color="white" stop-opacity="0.6"/>
<stop offset="0.29" stop-color="white" stop-opacity="0.6"/>
<stop offset="0.78" stop-color="white" stop-opacity="0"/>
<stop offset="1" stop-color="white" stop-opacity="0"/>
</linearGradient>
<linearGradient id="paint57_linear_10684_173075" x1="100.245" y1="129.753" x2="175.497" y2="129.753" gradientUnits="userSpaceOnUse">
<stop stop-color="#0772FF"/>
<stop offset="1" stop-color="#452DFF" stop-opacity="0"/>
</linearGradient>
<linearGradient id="paint58_linear_10684_173075" x1="139.818" y1="181.057" x2="107.124" y2="146.381" gradientUnits="userSpaceOnUse">
<stop stop-color="#462DFF" stop-opacity="0"/>
<stop offset="1" stop-color="#0079FF" stop-opacity="0.5"/>
</linearGradient>
<radialGradient id="paint59_radial_10684_173075" cx="0" cy="0" r="1" gradientUnits="userSpaceOnUse" gradientTransform="translate(1227.21 260.652) rotate(180) scale(121.264 113.278)">
<stop stop-color="#BABBBE"/>
<stop offset="0.9337"/>
</radialGradient>
<radialGradient id="paint60_radial_10684_173075" cx="0" cy="0" r="1" gradientUnits="userSpaceOnUse" gradientTransform="translate(1105.94 147.365) rotate(43.9733) scale(219.551 219.524)">
<stop stop-color="#FF6230"/>
<stop offset="0.306414" stop-color="#FF9901"/>
<stop offset="0.626843" stop-color="#042D5B"/>
<stop offset="0.819636" stop-color="#1F2E3E"/>
<stop offset="0.964731" stop-color="#1B2229"/>
</radialGradient>
<linearGradient id="paint61_linear_10684_173075" x1="1524.25" y1="238.428" x2="844.329" y2="238.428" gradientUnits="userSpaceOnUse">
<stop stop-color="#5082C1"/>
<stop offset="1" stop-color="#5081C1" stop-opacity="0"/>
</linearGradient>
<linearGradient id="paint62_linear_10684_173075" x1="1452.46" y1="214.506" x2="899.952" y2="214.506" gradientUnits="userSpaceOnUse">
<stop stop-color="#5082C1"/>
<stop offset="1" stop-color="#5081C1" stop-opacity="0"/>
</linearGradient>
<linearGradient id="paint63_linear_10684_173075" x1="1393.49" y1="181.145" x2="888.009" y2="181.145" gradientUnits="userSpaceOnUse">
<stop stop-color="#5082C1"/>
<stop offset="1" stop-color="#5081C1" stop-opacity="0"/>
</linearGradient>
<linearGradient id="paint64_linear_10684_173075" x1="1344.08" y1="153.933" x2="878.289" y2="153.933" gradientUnits="userSpaceOnUse">
<stop stop-color="#5082C1"/>
<stop offset="1" stop-color="#5081C1" stop-opacity="0"/>
</linearGradient>
<linearGradient id="paint65_linear_10684_173075" x1="1302.09" y1="131.312" x2="870.233" y2="131.312" gradientUnits="userSpaceOnUse">
<stop stop-color="#5082C1"/>
<stop offset="1" stop-color="#5081C1" stop-opacity="0"/>
</linearGradient>
<linearGradient id="paint66_linear_10684_173075" x1="1265.95" y1="112.208" x2="863.438" y2="112.208" gradientUnits="userSpaceOnUse">
<stop stop-color="#5082C1"/>
<stop offset="1" stop-color="#5081C1" stop-opacity="0"/>
</linearGradient>
<linearGradient id="paint67_linear_10684_173075" x1="1234.52" y1="95.8609" x2="857.634" y2="95.8609" gradientUnits="userSpaceOnUse">
<stop stop-color="#5082C1"/>
<stop offset="1" stop-color="#5081C1" stop-opacity="0"/>
</linearGradient>
<linearGradient id="paint68_linear_10684_173075" x1="1206.94" y1="81.7128" x2="852.615" y2="81.7128" gradientUnits="userSpaceOnUse">
<stop stop-color="#5082C1"/>
<stop offset="1" stop-color="#5081C1" stop-opacity="0"/>
</linearGradient>
<linearGradient id="paint69_linear_10684_173075" x1="1182.54" y1="69.3477" x2="848.237" y2="69.3477" gradientUnits="userSpaceOnUse">
<stop stop-color="#5082C1"/>
<stop offset="1" stop-color="#5081C1" stop-opacity="0"/>
</linearGradient>
<linearGradient id="paint70_linear_10684_173075" x1="970.902" y1="335.554" x2="870.819" y2="335.554" gradientUnits="userSpaceOnUse">
<stop stop-color="#5082C1"/>
<stop offset="1" stop-color="#5081C1" stop-opacity="0"/>
</linearGradient>
<linearGradient id="paint71_linear_10684_173075" x1="1024.87" y1="297.962" x2="896.909" y2="297.962" gradientUnits="userSpaceOnUse">
<stop stop-color="#5082C1"/>
<stop offset="1" stop-color="#5081C1" stop-opacity="0"/>
</linearGradient>
<linearGradient id="paint72_linear_10684_173075" x1="1077.19" y1="261.34" x2="922.624" y2="261.34" gradientUnits="userSpaceOnUse">
<stop stop-color="#5082C1"/>
<stop offset="1" stop-color="#5081C1" stop-opacity="0"/>
</linearGradient>
<linearGradient id="paint73_linear_10684_173075" x1="1127.94" y1="225.647" x2="947.976" y2="225.647" gradientUnits="userSpaceOnUse">
<stop stop-color="#5082C1"/>
<stop offset="1" stop-color="#5081C1" stop-opacity="0"/>
</linearGradient>
<linearGradient id="paint74_linear_10684_173075" x1="1177.16" y1="190.847" x2="972.959" y2="190.847" gradientUnits="userSpaceOnUse">
<stop stop-color="#5082C1"/>
<stop offset="1" stop-color="#5081C1" stop-opacity="0"/>
</linearGradient>
<linearGradient id="paint75_linear_10684_173075" x1="1224.95" y1="156.903" x2="997.593" y2="156.903" gradientUnits="userSpaceOnUse">
<stop stop-color="#5082C1"/>
<stop offset="1" stop-color="#5081C1" stop-opacity="0"/>
</linearGradient>
<linearGradient id="paint76_linear_10684_173075" x1="1271.37" y1="123.781" x2="1021.88" y2="123.781" gradientUnits="userSpaceOnUse">
<stop stop-color="#5082C1"/>
<stop offset="1" stop-color="#5081C1" stop-opacity="0"/>
</linearGradient>
<linearGradient id="paint77_linear_10684_173075" x1="1316.46" y1="91.4508" x2="1045.83" y2="91.4508" gradientUnits="userSpaceOnUse">
<stop stop-color="#5082C1"/>
<stop offset="1" stop-color="#5081C1" stop-opacity="0"/>
</linearGradient>
<linearGradient id="paint78_linear_10684_173075" x1="1360.29" y1="59.8811" x2="1069.45" y2="59.8811" gradientUnits="userSpaceOnUse">
<stop stop-color="#5082C1"/>
<stop offset="1" stop-color="#5081C1" stop-opacity="0"/>
</linearGradient>
<linearGradient id="paint79_linear_10684_173075" x1="1402.91" y1="29.0436" x2="1092.74" y2="29.0436" gradientUnits="userSpaceOnUse">
<stop stop-color="#5082C1"/>
<stop offset="1" stop-color="#5081C1" stop-opacity="0"/>
</linearGradient>
<linearGradient id="paint80_linear_10684_173075" x1="1444.37" y1="-1.08878" x2="1115.7" y2="-1.08878" gradientUnits="userSpaceOnUse">
<stop stop-color="#5082C1"/>
<stop offset="1" stop-color="#5081C1" stop-opacity="0"/>
</linearGradient>
<linearGradient id="paint81_linear_10684_173075" x1="1015.34" y1="57.4202" x2="1056.77" y2="57.4202" gradientUnits="userSpaceOnUse">
<stop stop-color="#007AFF"/>
<stop offset="1" stop-color="#482BFF"/>
</linearGradient>
<linearGradient id="paint82_linear_10684_173075" x1="973.979" y1="22.4731" x2="1114.37" y2="22.4732" gradientUnits="userSpaceOnUse">
<stop stop-color="#007AFF"/>
<stop offset="1" stop-color="#482BFF"/>
</linearGradient>
<linearGradient id="paint83_linear_10684_173075" x1="964.515" y1="143.963" x2="1016.81" y2="143.963" gradientUnits="userSpaceOnUse">
<stop stop-color="#007AFF"/>
<stop offset="1" stop-color="#00B2FF"/>
</linearGradient>
<linearGradient id="paint84_linear_10684_173075" x1="1163.54" y1="84.6751" x2="1120.25" y2="84.6751" gradientUnits="userSpaceOnUse">
<stop stop-color="#FFA800"/>
<stop offset="1" stop-color="#FF5107"/>
</linearGradient>
<linearGradient id="paint85_linear_10684_173075" x1="980.24" y1="148.919" x2="989.289" y2="148.919" gradientUnits="userSpaceOnUse">
<stop stop-color="#007AFF"/>
<stop offset="1" stop-color="#00B2FF"/>
</linearGradient>
<linearGradient id="paint86_linear_10684_173075" x1="1142.84" y1="82.768" x2="1133.79" y2="82.768" gradientUnits="userSpaceOnUse">
<stop stop-color="#FFA800"/>
<stop offset="1" stop-color="#FF5107"/>
</linearGradient>
<linearGradient id="paint87_linear_10684_173075" x1="1087.39" y1="170.486" x2="1096.44" y2="170.486" gradientUnits="userSpaceOnUse">
<stop stop-color="#482BFF"/>
<stop offset="1" stop-color="#007AFF"/>
</linearGradient>
<linearGradient id="paint88_linear_10684_173075" x1="1144.27" y1="47.3581" x2="1061.61" y2="47.3581" gradientUnits="userSpaceOnUse">
<stop stop-color="#FFA600"/>
<stop offset="1" stop-color="#FF5306" stop-opacity="0"/>
</linearGradient>
<linearGradient id="paint89_linear_10684_173075" x1="1155.28" y1="79.8116" x2="1098.62" y2="48.5032" gradientUnits="userSpaceOnUse">
<stop stop-color="#FF5207" stop-opacity="0"/>
<stop offset="1" stop-color="#FFA600" stop-opacity="0.5"/>
</linearGradient>
<linearGradient id="paint90_linear_10684_173075" x1="1117.88" y1="77.1934" x2="1061.61" y2="77.1934" gradientUnits="userSpaceOnUse">
<stop stop-color="#FFA700"/>
<stop offset="1" stop-color="#FF5306" stop-opacity="0"/>
</linearGradient>
<linearGradient id="paint91_linear_10684_173075" x1="1015.67" y1="133.867" x2="937.021" y2="133.867" gradientUnits="userSpaceOnUse">
<stop stop-color="#5082C1"/>
<stop offset="1" stop-color="#5081C1" stop-opacity="0"/>
</linearGradient>
<linearGradient id="paint92_linear_10684_173075" x1="978.512" y1="134.255" x2="948.79" y2="103.047" gradientUnits="userSpaceOnUse">
<stop stop-color="#007AFF"/>
<stop offset="1" stop-color="#00B2FF" stop-opacity="0"/>
</linearGradient>
<linearGradient id="paint93_linear_10684_173075" x1="1003.11" y1="97.221" x2="953.245" y2="159.968" gradientUnits="userSpaceOnUse">
<stop stop-color="#007AFF" stop-opacity="0.5"/>
<stop offset="1" stop-color="#00B2FF" stop-opacity="0"/>
</linearGradient>
<radialGradient id="paint94_radial_10684_173075" cx="0" cy="0" r="1" gradientUnits="userSpaceOnUse" gradientTransform="translate(1089.95 124.809) scale(12.871)">
<stop stop-color="#FFEAFF" stop-opacity="0.6"/>
<stop offset="0.68" stop-color="#A087C9"/>
<stop offset="1" stop-color="#10002F"/>
</radialGradient>
<radialGradient id="paint95_radial_10684_173075" cx="0" cy="0" r="1" gradientUnits="userSpaceOnUse" gradientTransform="translate(1082.83 130.298) scale(31.4906)">
<stop stop-color="#FFEAFF" stop-opacity="0.6"/>
<stop offset="0.68" stop-color="#A087C9"/>
<stop offset="1" stop-color="#10002F"/>
</radialGradient>
<linearGradient id="paint96_linear_10684_173075" x1="1069.59" y1="157.265" x2="1074.73" y2="125.499" gradientUnits="userSpaceOnUse">
<stop stop-color="#81FFFF" stop-opacity="0.6"/>
<stop offset="0.62" stop-color="white" stop-opacity="0"/>
<stop offset="1" stop-color="white" stop-opacity="0"/>
</linearGradient>
<linearGradient id="paint97_linear_10684_173075" x1="1083.48" y1="130.463" x2="1070.17" y2="142.676" gradientUnits="userSpaceOnUse">
<stop stop-color="white" stop-opacity="0.6"/>
<stop offset="0.29" stop-color="white" stop-opacity="0.6"/>
<stop offset="0.78" stop-color="white" stop-opacity="0"/>
<stop offset="1" stop-color="white" stop-opacity="0"/>
</linearGradient>
<linearGradient id="paint98_linear_10684_173075" x1="1056.77" y1="148.888" x2="1087.36" y2="148.888" gradientUnits="userSpaceOnUse">
<stop stop-color="#0002E9"/>
<stop offset="1" stop-color="#FF00C7"/>
</linearGradient>
<linearGradient id="paint99_linear_10684_173075" x1="1088.88" y1="142.593" x2="1072.23" y2="158.329" gradientUnits="userSpaceOnUse">
<stop stop-color="white" stop-opacity="0.6"/>
<stop offset="0.29" stop-color="white" stop-opacity="0.6"/>
<stop offset="0.78" stop-color="white" stop-opacity="0"/>
<stop offset="1" stop-color="white" stop-opacity="0"/>
</linearGradient>
<linearGradient id="paint100_linear_10684_173075" x1="1056.77" y1="148.888" x2="1073.14" y2="148.888" gradientUnits="userSpaceOnUse">
<stop stop-color="#000292" stop-opacity="0.7"/>
<stop offset="1" stop-color="#7D00C7" stop-opacity="0.7"/>
</linearGradient>
<linearGradient id="paint101_linear_10684_173075" x1="1056.79" y1="142.666" x2="1087.34" y2="142.666" gradientUnits="userSpaceOnUse">
<stop stop-color="#000292"/>
<stop offset="1" stop-color="#BE00C7"/>
</linearGradient>
<linearGradient id="paint102_linear_10684_173075" x1="1086.91" y1="126.281" x2="1084.71" y2="129.849" gradientUnits="userSpaceOnUse">
<stop stop-color="white" stop-opacity="0.6"/>
<stop offset="0.29" stop-color="white" stop-opacity="0.6"/>
<stop offset="0.78" stop-color="white" stop-opacity="0"/>
<stop offset="1" stop-color="white" stop-opacity="0"/>
</linearGradient>
<linearGradient id="paint103_linear_10684_173075" x1="1070.19" y1="152.623" x2="1071.41" y2="152.623" gradientUnits="userSpaceOnUse">
<stop stop-color="white" stop-opacity="0.6"/>
<stop offset="0.29" stop-color="white" stop-opacity="0.6"/>
<stop offset="0.78" stop-color="white" stop-opacity="0"/>
<stop offset="1" stop-color="white" stop-opacity="0"/>
</linearGradient>
<linearGradient id="paint104_linear_10684_173075" x1="1074.5" y1="152.214" x2="1075.72" y2="152.214" gradientUnits="userSpaceOnUse">
<stop stop-color="white" stop-opacity="0.6"/>
<stop offset="0.29" stop-color="white" stop-opacity="0.6"/>
<stop offset="0.78" stop-color="white" stop-opacity="0"/>
<stop offset="1" stop-color="white" stop-opacity="0"/>
</linearGradient>
<linearGradient id="paint105_linear_10684_173075" x1="1072.63" y1="154.275" x2="1073.54" y2="154.275" gradientUnits="userSpaceOnUse">
<stop stop-color="white" stop-opacity="0.6"/>
<stop offset="0.29" stop-color="white" stop-opacity="0.6"/>
<stop offset="0.78" stop-color="white" stop-opacity="0"/>
<stop offset="1" stop-color="white" stop-opacity="0"/>
</linearGradient>
<linearGradient id="paint106_linear_10684_173075" x1="1076.27" y1="153.843" x2="1077.19" y2="153.843" gradientUnits="userSpaceOnUse">
<stop stop-color="white" stop-opacity="0.6"/>
<stop offset="0.29" stop-color="white" stop-opacity="0.6"/>
<stop offset="0.78" stop-color="white" stop-opacity="0"/>
<stop offset="1" stop-color="white" stop-opacity="0"/>
</linearGradient>
<linearGradient id="paint107_linear_10684_173075" x1="1066.37" y1="151.826" x2="1068.36" y2="151.826" gradientUnits="userSpaceOnUse">
<stop stop-color="white" stop-opacity="0.6"/>
<stop offset="0.29" stop-color="white" stop-opacity="0.6"/>
<stop offset="0.78" stop-color="white" stop-opacity="0"/>
<stop offset="1" stop-color="white" stop-opacity="0"/>
</linearGradient>
<linearGradient id="paint108_linear_10684_173075" x1="1078.14" y1="148.571" x2="1080.13" y2="148.571" gradientUnits="userSpaceOnUse">
<stop stop-color="white" stop-opacity="0.6"/>
<stop offset="0.29" stop-color="white" stop-opacity="0.6"/>
<stop offset="0.78" stop-color="white" stop-opacity="0"/>
<stop offset="1" stop-color="white" stop-opacity="0"/>
</linearGradient>
<linearGradient id="paint109_linear_10684_173075" x1="1099.75" y1="129.753" x2="1024.5" y2="129.753" gradientUnits="userSpaceOnUse">
<stop stop-color="#0772FF"/>
<stop offset="1" stop-color="#452DFF" stop-opacity="0"/>
</linearGradient>
<linearGradient id="paint110_linear_10684_173075" x1="1060.18" y1="181.057" x2="1092.88" y2="146.381" gradientUnits="userSpaceOnUse">
<stop stop-color="#462DFF" stop-opacity="0"/>
<stop offset="1" stop-color="#0079FF" stop-opacity="0.5"/>
</linearGradient>
<clipPath id="clip0_10684_173075">
<rect width="1200" height="200" fill="white"/>
</clipPath>
</defs>
</svg>
