<svg width="238" height="120" viewBox="0 0 238 120" fill="none" xmlns="http://www.w3.org/2000/svg">
<mask id="mask0_32578_239413" style="mask-type:luminance" maskUnits="userSpaceOnUse" x="0" y="0" width="238" height="120">
<path d="M0.5 0H237.5V120H0.5V0Z" fill="white"/>
</mask>
<g mask="url(#mask0_32578_239413)">
<path d="M26.7002 7.86885C26.7002 5.7819 27.5277 3.78043 29.0007 2.30473C30.4738 0.829037 32.4716 0 34.5547 0L229.446 0C231.529 0 233.527 0.829037 235 2.30473C236.473 3.78043 237.3 5.7819 237.3 7.86885V120.492H26.7002V7.86885Z" fill="url(#paint0_linear_32578_239413)" fill-opacity="0.4"/>
<path d="M19.6016 77.2126L32.1133 74.0159L42.6624 79.1798L51.7396 69.3437L65.478 77.2126L76.0271 71.5569L89.2748 75.4913L101.051 74.0159L107.674 63.1962L113.072 60.2454L127.546 74.0159L133.189 69.3437L153.551 77.2126L166.553 67.3765L171.46 60.2454L183.972 65.6552L193.294 75.4913H206.051L224.941 18.688" stroke="white" stroke-width="1.09"/>
<path d="M32.1133 74.0158L19.6016 77.2125V125.163H224.941V18.688L206.051 75.4912H193.294L183.972 65.6552L171.46 60.2453L166.553 67.3765L153.551 77.2125L133.189 69.3437L127.546 74.0158L113.072 60.2453L107.674 63.1962L101.051 74.0158L89.2748 75.4912L76.0271 71.5568L65.478 77.2125L51.7396 69.3437L42.6624 79.1797L32.1133 74.0158Z" fill="url(#paint1_linear_32578_239413)" fill-opacity="0.2"/>
<path d="M236.973 43.0319H59.8457" stroke="#5D606B" stroke-dasharray="5 5"/>
<g filter="url(#filter0_d_32578_239413)">
<path d="M0.5 28.525C0.5 26.438 1.32904 24.4366 2.80473 22.9609C4.28043 21.4852 6.2819 20.6561 8.36885 20.6561H71.3196C73.4066 20.6561 75.4081 21.4852 76.8838 22.9609C78.3594 24.4366 79.1885 26.438 79.1885 28.525V120H0.5V28.525Z" fill="url(#paint2_linear_32578_239413)" shape-rendering="crispEdges"/>
</g>
<mask id="mask1_32578_239413" style="mask-type:luminance" maskUnits="userSpaceOnUse" x="3" y="40" width="57" height="62">
<path d="M3.46484 40.328H59.0386V101.803H3.46484V40.328Z" fill="white"/>
</mask>
<g mask="url(#mask1_32578_239413)">
<path d="M5.53196 79.8918H3.93359V87.2442H5.53196V79.8918Z" fill="#089981"/>
<path d="M4.88412 75.417H4.56445V91.7203H4.88412V75.417ZM7.44642 74.1383H5.84314V86.9252H7.44642V74.1383Z" fill="#089981"/>
<path d="M6.80893 69.663H6.48926V89.4826H6.80893V69.663Z" fill="#089981"/>
<path d="M8.73276 61.9914H8.41309V74.1389H8.73276V61.9914Z" fill="#F23645"/>
<path d="M9.36106 70.3033H7.7627V72.541H9.36106V70.3033Z" fill="#F23645"/>
<path d="M10.6341 69.983H10.3145V82.1306H10.6341V69.983Z" fill="#089981"/>
<path d="M11.2898 71.2621H9.69141V73.4999H11.2898V71.2621Z" fill="#089981"/>
<path d="M12.5628 74.7787H12.248V83.4099H12.5628V74.7787Z" fill="#F23645"/>
<path d="M13.2019 79.2543H11.6035V82.451H13.2019V79.2543Z" fill="#F23645"/>
<path d="M14.4769 59.7541H14.1572V68.3852H14.4769V59.7541Z" fill="#089981"/>
<path d="M15.1189 61.353H13.5205V81.4924H15.1189V61.353ZM16.3976 57.517H16.0779V69.3448H16.3976V57.517Z" fill="#089981"/>
<path d="M17.0496 58.2643H15.4463V67.6971H17.0446V58.2643H17.0496Z" fill="#089981"/>
<path d="M18.3206 64.5485H18.001V71.5813H18.3206V64.5485Z" fill="#F23645"/>
<path d="M18.9441 65.351H17.3457V69.5706H18.9441V65.351Z" fill="#F23645"/>
<path d="M20.2318 68.7046H19.9121V70.3029H20.2318V68.7046Z" fill="#089981"/>
<path d="M20.8708 68.8864H19.2725V69.8454H20.8708V68.8864ZM22.1495 62.311H21.8298V82.1306H22.1544V62.311H22.1495Z" fill="#089981"/>
<path d="M22.7868 63.5893H21.1885V77.6549H22.7868V63.5893ZM24.0655 74.4581H23.7459V85.6467H24.0655V74.4581Z" fill="#089981"/>
<path d="M24.7029 75.7378H23.1045V88.205H24.7029V75.7378Z" fill="#089981"/>
<path d="M25.9857 76.6967H25.666V87.8852H25.9857V76.6967Z" fill="#F23645"/>
<path d="M26.6375 77.9747H25.0342V84.6878H26.6375V77.9747Z" fill="#F23645"/>
<path d="M27.9037 82.1313H27.584V87.5657H27.9037V82.1313Z" fill="#089981"/>
<path d="M28.5446 82.7496H26.9463V86.0102H28.5446V82.7496ZM29.8233 82.4496H29.5037V91.0807H29.8233V82.4496Z" fill="#089981"/>
<path d="M30.4616 88.5343H28.8633V90.2556H30.4616V88.5343Z" fill="#089981"/>
<path d="M35.5736 62.3114H35.2539V87.2458H35.5736V62.3114Z" fill="#F23645"/>
<path d="M36.2224 65.1637H34.624V80.1194H36.2224V65.1637Z" fill="#F23645"/>
<path d="M37.4906 67.4258H37.1709V74.7782H37.4906V67.4258Z" fill="#089981"/>
<path d="M38.1374 68.2609H36.5391V72.6773H38.1374V68.2658V68.2609Z" fill="#089981"/>
<path d="M39.7377 67.1058H39.4131V74.4582H39.7377V67.1058Z" fill="#F23645"/>
<path d="M40.3689 67.9469H38.7705V72.3584H40.3689V67.9469Z" fill="#F23645"/>
<path d="M41.971 67.1058H41.6514V75.4173H41.971V67.1058Z" fill="#089981"/>
<path d="M42.6159 68.0558H41.0176V73.0427H42.6159V68.0558ZM44.2094 73.1804H43.8897V79.8935H44.2094V73.1804Z" fill="#089981"/>
<path d="M44.8425 73.9467H43.2441V77.9745H44.8425V73.9467ZM46.1261 77.9745H45.8015V84.6876H46.1261V77.9745Z" fill="#089981"/>
<path d="M46.7654 78.7428H45.167V82.7707H46.7654V78.7428Z" fill="#089981"/>
<path d="M48.0414 82.1313H47.7217V88.2051H48.0414V82.1313Z" fill="#F23645"/>
<path d="M48.6853 82.8252H47.0869V86.4695H48.6853V82.8301V82.8252ZM49.9689 82.7711H49.6443V86.9269H49.9689V82.7711Z" fill="#F23645"/>
<path d="M50.6013 83.2462H49.0029V85.7397H50.6013V83.2462Z" fill="#F23645"/>
<path d="M51.8792 80.8522H51.5645V86.2866H51.8792V80.8522Z" fill="#089981"/>
<path d="M52.53 81.4915H50.9316V85.6473H52.53V81.4915Z" fill="#089981"/>
<path d="M53.806 78.6147H53.4814V85.9671H53.806V78.6147Z" fill="#F23645"/>
<path d="M54.4382 79.5736H52.8398V85.008H54.4382V79.5736Z" fill="#F23645"/>
<path d="M55.7289 77.6559H55.4043V84.369H55.7289V77.6559Z" fill="#089981"/>
<path d="M56.3601 78.4233H54.7617V82.4512H56.3601V78.4233ZM57.9584 71.902H57.6339V78.6151H57.9584V71.902Z" fill="#089981"/>
<path d="M58.5964 72.6694H56.998V76.6972H58.5964V72.6694Z" fill="#089981"/>
<path d="M34.3011 88.2056H33.9814V91.722H34.3011V88.2056Z" fill="#F23645"/>
<path d="M34.9392 88.6068H33.3408V90.7167H34.9392V88.6019V88.6068Z" fill="#F23645"/>
</g>
<ellipse cx="5.67796" cy="37.1296" rx="2.21312" ry="2.21311" fill="#ECEFF0"/>
<path d="M5.67736 35.562L5.65723 35.6306V37.6206L5.67736 37.6408L6.59922 37.0947L5.67736 35.562Z" fill="#333333"/>
<path d="M5.67772 35.562L4.75586 37.0947L5.67772 37.6408V36.6749V35.562Z" fill="#8C8C8C"/>
<path d="M5.67736 37.9413L5.66602 37.9551V38.664L5.67736 38.6972L6.59977 37.3955L5.67736 37.9413Z" fill="#333333"/>
<path d="M5.67772 38.6972V37.9413L4.75586 37.3955L5.67772 38.6972Z" fill="#8C8C8C"/>
<path d="M5.67773 37.6407L6.59958 37.0947L5.67773 36.6749V37.6407Z" fill="#141414"/>
<path d="M4.75586 37.0947L5.6777 37.6408V36.6749L4.75586 37.0947Z" fill="#383838"/>
<path d="M9.34961 38.4572V35.3097H11.2492V35.6478H9.73076V36.7113H11.1508V37.0494H9.73076V38.1191H11.2738V38.4572H9.34961Z" fill="#D1D4DC"/>
<path d="M12.9136 36.0966V36.404H11.6903V36.0966H12.9136ZM12.0468 35.531H12.4095V37.781C12.4095 37.8835 12.4244 37.9603 12.4541 38.0115C12.4849 38.0617 12.5238 38.0956 12.5709 38.113C12.6191 38.1294 12.6698 38.1376 12.7231 38.1376C12.763 38.1376 12.7958 38.1355 12.8214 38.1314C12.847 38.1263 12.8675 38.1222 12.8829 38.1191L12.9567 38.4449C12.9321 38.4542 12.8978 38.4634 12.8537 38.4726C12.8096 38.4828 12.7538 38.488 12.6862 38.488C12.5837 38.488 12.4833 38.4659 12.385 38.4219C12.2876 38.3778 12.2067 38.3107 12.1421 38.2206C12.0786 38.1304 12.0468 38.0167 12.0468 37.8794V35.531Z" fill="#D1D4DC"/>
<path d="M13.8727 37.0372V38.4572H13.51V35.3097H13.8727V36.4654H13.9034C13.9587 36.3435 14.0417 36.2467 14.1524 36.175C14.2641 36.1022 14.4126 36.0658 14.5981 36.0658C14.7589 36.0658 14.8998 36.0981 15.0207 36.1627C15.1416 36.2262 15.2354 36.324 15.302 36.4562C15.3696 36.5874 15.4034 36.7544 15.4034 36.9572V38.4572H15.0407V36.9818C15.0407 36.7943 14.992 36.6493 14.8947 36.5469C14.7984 36.4434 14.6647 36.3917 14.4936 36.3917C14.3747 36.3917 14.2682 36.4168 14.1739 36.467C14.0807 36.5172 14.0069 36.5904 13.9526 36.6867C13.8993 36.7831 13.8727 36.8999 13.8727 37.0372Z" fill="#D1D4DC"/>
<path d="M17.0567 38.5064C16.8292 38.5064 16.633 38.4562 16.4681 38.3558C16.3041 38.2544 16.1776 38.113 16.0885 37.9316C16.0004 37.7492 15.9563 37.5372 15.9563 37.2953C15.9563 37.0535 16.0004 36.8404 16.0885 36.656C16.1776 36.4706 16.3016 36.3261 16.4604 36.2226C16.6202 36.1181 16.8067 36.0658 17.0198 36.0658C17.1428 36.0658 17.2642 36.0863 17.3841 36.1273C17.5039 36.1683 17.6131 36.2349 17.7114 36.3271C17.8098 36.4183 17.8882 36.5392 17.9466 36.6898C18.005 36.8404 18.0342 37.0259 18.0342 37.2462V37.3999H16.2145V37.0863H17.6653C17.6653 36.9531 17.6387 36.8343 17.5854 36.7298C17.5331 36.6253 17.4583 36.5428 17.361 36.4823C17.2647 36.4219 17.151 36.3917 17.0198 36.3917C16.8753 36.3917 16.7503 36.4275 16.6448 36.4992C16.5403 36.5699 16.4599 36.6622 16.4035 36.7759C16.3472 36.8896 16.319 37.0115 16.319 37.1417V37.3507C16.319 37.529 16.3497 37.6801 16.4112 37.8041C16.4737 37.927 16.5603 38.0208 16.6709 38.0853C16.7816 38.1488 16.9102 38.1806 17.0567 38.1806C17.152 38.1806 17.2381 38.1673 17.3149 38.1406C17.3928 38.113 17.4599 38.072 17.5162 38.0177C17.5726 37.9624 17.6161 37.8937 17.6469 37.8117L17.9973 37.9101C17.9604 38.029 17.8984 38.1335 17.8113 38.2236C17.7242 38.3128 17.6166 38.3824 17.4886 38.4326C17.3605 38.4818 17.2165 38.5064 17.0567 38.5064Z" fill="#D1D4DC"/>
<path d="M18.5859 38.4572V36.0966H18.9363V36.4531H18.9609C19.0039 36.3363 19.0818 36.2416 19.1945 36.1688C19.3072 36.0961 19.4343 36.0597 19.5757 36.0597C19.6023 36.0597 19.6356 36.0602 19.6756 36.0612C19.7155 36.0623 19.7457 36.0638 19.7662 36.0658V36.4347C19.7539 36.4316 19.7258 36.427 19.6817 36.4209C19.6387 36.4137 19.5931 36.4101 19.5449 36.4101C19.4302 36.4101 19.3277 36.4342 19.2375 36.4823C19.1484 36.5295 19.0777 36.595 19.0255 36.6791C18.9742 36.762 18.9486 36.8568 18.9486 36.9634V38.4572H18.5859Z" fill="#D1D4DC"/>
<path d="M21.1141 38.5064C20.8866 38.5064 20.6904 38.4562 20.5255 38.3558C20.3615 38.2544 20.235 38.113 20.1458 37.9316C20.0577 37.7492 20.0137 37.5372 20.0137 37.2953C20.0137 37.0535 20.0577 36.8404 20.1458 36.656C20.235 36.4706 20.359 36.3261 20.5178 36.2226C20.6776 36.1181 20.8641 36.0658 21.0772 36.0658C21.2001 36.0658 21.3216 36.0863 21.4414 36.1273C21.5613 36.1683 21.6704 36.2349 21.7688 36.3271C21.8672 36.4183 21.9455 36.5392 22.0039 36.6898C22.0623 36.8404 22.0915 37.0259 22.0915 37.2462V37.3999H20.2719V37.0863H21.7227C21.7227 36.9531 21.696 36.8343 21.6428 36.7298C21.5905 36.6253 21.5157 36.5428 21.4184 36.4823C21.3221 36.4219 21.2083 36.3917 21.0772 36.3917C20.9327 36.3917 20.8077 36.4275 20.7022 36.4992C20.5977 36.5699 20.5173 36.6622 20.4609 36.7759C20.4045 36.8896 20.3764 37.0115 20.3764 37.1417V37.3507C20.3764 37.529 20.4071 37.6801 20.4686 37.8041C20.5311 37.927 20.6177 38.0208 20.7283 38.0853C20.839 38.1488 20.9676 38.1806 21.1141 38.1806C21.2094 38.1806 21.2954 38.1673 21.3723 38.1406C21.4501 38.113 21.5173 38.072 21.5736 38.0177C21.63 37.9624 21.6735 37.8937 21.7042 37.8117L22.0547 37.9101C22.0178 38.029 21.9558 38.1335 21.8687 38.2236C21.7816 38.3128 21.674 38.3824 21.5459 38.4326C21.4179 38.4818 21.2739 38.5064 21.1141 38.5064Z" fill="#D1D4DC"/>
<path d="M24.131 37.4921V36.0966H24.4937V38.4572H24.131V38.0576H24.1064C24.0511 38.1775 23.965 38.2795 23.8482 38.3635C23.7314 38.4465 23.5839 38.488 23.4056 38.488C23.258 38.488 23.1269 38.4557 23.0121 38.3911C22.8974 38.3256 22.8072 38.2272 22.7416 38.0961C22.6761 37.9639 22.6433 37.7974 22.6433 37.5966V36.0966H23.006V37.572C23.006 37.7441 23.0541 37.8814 23.1505 37.9839C23.2478 38.0863 23.3718 38.1376 23.5224 38.1376C23.6125 38.1376 23.7042 38.1145 23.7975 38.0684C23.8917 38.0223 23.9706 37.9516 24.0342 37.8563C24.0987 37.761 24.131 37.6396 24.131 37.4921Z" fill="#D1D4DC"/>
<path d="M25.158 38.4572V36.0966H25.5084V36.4654H25.5392C25.5883 36.3394 25.6677 36.2416 25.7774 36.1719C25.887 36.1012 26.0187 36.0658 26.1723 36.0658C26.3281 36.0658 26.4577 36.1012 26.5612 36.1719C26.6657 36.2416 26.7471 36.3394 26.8055 36.4654H26.8301C26.8906 36.3435 26.9813 36.2467 27.1022 36.175C27.2231 36.1022 27.368 36.0658 27.5371 36.0658C27.7482 36.0658 27.9208 36.1319 28.055 36.2641C28.1893 36.3952 28.2564 36.5997 28.2564 36.8773V38.4572H27.8937V36.8773C27.8937 36.7031 27.846 36.5786 27.7507 36.5039C27.6554 36.4291 27.5433 36.3917 27.4142 36.3917C27.2482 36.3917 27.1196 36.4419 27.0284 36.5423C26.9372 36.6417 26.8916 36.7677 26.8916 36.9203V38.4572H26.5228V36.8404C26.5228 36.7062 26.4792 36.5981 26.3921 36.5161C26.305 36.4332 26.1928 36.3917 26.0555 36.3917C25.9613 36.3917 25.8732 36.4168 25.7912 36.467C25.7103 36.5172 25.6447 36.5868 25.5945 36.676C25.5453 36.7641 25.5207 36.866 25.5207 36.9818V38.4572H25.158Z" fill="#D1D4DC"/>
<path d="M30.2479 37.3768C30.3837 37.3768 30.4938 37.2667 30.4938 37.1309C30.4938 36.9951 30.3837 36.885 30.2479 36.885C30.112 36.885 30.002 36.9951 30.002 37.1309C30.002 37.2667 30.112 37.3768 30.2479 37.3768Z" fill="#D1D4DC"/>
<path d="M32.8217 38.3789V35.9887H32.7922L32.084 36.5002V36.1363L32.8217 35.6051H33.166V38.3789H32.8217ZM34.2479 38.3789V35.6051H35.202C35.4774 35.6051 35.7135 35.6641 35.9053 35.7723C36.102 35.8805 36.2496 36.0379 36.3578 36.2444C36.4561 36.451 36.5102 36.6969 36.5102 36.992C36.5102 37.2871 36.461 37.533 36.3578 37.7395C36.2545 37.9461 36.102 38.1035 35.9102 38.2166C35.7135 38.3248 35.4774 38.3789 35.202 38.3789H34.2528H34.2479ZM34.5971 38.069H35.1823C35.3889 38.069 35.561 38.0248 35.7086 37.9412C35.8561 37.8576 35.9643 37.7346 36.043 37.5723C36.1217 37.4149 36.1561 37.2231 36.1561 36.9969C36.1561 36.7707 36.1168 36.574 36.043 36.4166C35.9724 36.262 35.8555 36.1331 35.7086 36.0477C35.561 35.9592 35.384 35.9199 35.1823 35.9199H34.5971V38.069Z" fill="#D1D4DC"/>
<path opacity="0.15" d="M39.8379 36.8847C39.8379 36.2978 40.0711 35.7349 40.4861 35.3198C40.9011 34.9048 41.4641 34.6716 42.051 34.6716H44.7559V39.0979H42.051C41.4641 39.0979 40.9011 38.8647 40.4861 38.4497C40.0711 38.0346 39.8379 37.4717 39.8379 36.8847Z" fill="#089981"/>
<path d="M43.5463 36.8849C43.5463 37.1457 43.4427 37.3959 43.2582 37.5804C43.0738 37.7648 42.8236 37.8685 42.5627 37.8685C42.3018 37.8685 42.0517 37.7648 41.8672 37.5804C41.6827 37.3959 41.5791 37.1457 41.5791 36.8849C41.5791 36.624 41.6827 36.3738 41.8672 36.1893C42.0517 36.0049 42.3018 35.9012 42.5627 35.9012C42.8236 35.9012 43.0738 36.0049 43.2582 36.1893C43.4427 36.3738 43.5463 36.624 43.5463 36.8849Z" fill="#089981"/>
<path opacity="0.15" d="M44.7568 34.6716H47.4618C47.7524 34.6716 48.0402 34.7289 48.3087 34.8401C48.5772 34.9513 48.8212 35.1143 49.0267 35.3198C49.2322 35.5253 49.3952 35.7693 49.5064 36.0378C49.6176 36.3063 49.6749 36.5941 49.6749 36.8847C49.6749 37.1754 49.6176 37.4632 49.5064 37.7317C49.3952 38.0002 49.2322 38.2441 49.0267 38.4497C48.8212 38.6552 48.5772 38.8182 48.3087 38.9294C48.0402 39.0406 47.7524 39.0979 47.4618 39.0979H44.7568V34.6716Z" fill="#EC407A"/>
<path d="M48.2299 35.9694C48.1118 36.4317 47.8954 36.6629 47.5856 36.6629C47.4381 36.6629 47.2266 36.6186 46.9561 36.535C46.7743 36.4659 46.5841 36.4212 46.3905 36.4022C46.2332 36.4022 46.1102 36.4907 46.0266 36.6629H45.7217C45.7468 36.482 45.8217 36.3117 45.9381 36.1711C46.0561 36.0334 46.184 35.9694 46.3414 35.9694C46.4987 35.9694 46.72 36.0088 46.9905 36.0973C47.2659 36.1809 47.4577 36.2252 47.5709 36.2252C47.7528 36.2252 47.8709 36.1416 47.9348 35.9694H48.2299ZM48.2299 37.076C48.1118 37.5383 47.8954 37.7743 47.5856 37.7743C47.4381 37.7743 47.2266 37.7301 46.9561 37.6465C46.7743 37.5773 46.5841 37.5327 46.3905 37.5137C46.2332 37.5137 46.1102 37.6022 46.0266 37.7743H45.7217C45.7468 37.5935 45.8217 37.4232 45.9381 37.2825C46.0561 37.1448 46.184 37.076 46.3414 37.076C46.4987 37.076 46.72 37.1202 46.9905 37.2088C47.2659 37.2924 47.4577 37.3366 47.5709 37.3366C47.7528 37.3366 47.8709 37.2481 47.9348 37.076H48.2299Z" fill="#EC407A"/>
<path opacity="0.35" d="M73.7101 26.6844H69.4756C69.1714 26.6844 68.9248 26.931 68.9248 27.2352V28.7598C68.9248 29.064 69.1714 29.3106 69.4756 29.3106H73.7101C74.0143 29.3106 74.2609 29.064 74.2609 28.7598V27.2352C74.2609 26.931 74.0143 26.6844 73.7101 26.6844Z" stroke="#2C2C2C" stroke-width="0.52"/>
<path opacity="0.4" d="M74.6426 27.4912V28.5043C74.7418 28.4619 74.8264 28.3913 74.8859 28.3013C74.9454 28.2112 74.9771 28.1057 74.9771 27.9978C74.9771 27.8899 74.9454 27.7843 74.8859 27.6943C74.8264 27.6042 74.7418 27.5336 74.6426 27.4912Z" fill="#787878"/>
<path d="M73.545 27.0684H69.6499C69.4625 27.0684 69.3105 27.2203 69.3105 27.4077V28.5929C69.3105 28.7804 69.4625 28.9323 69.6499 28.9323H73.545C73.7324 28.9323 73.8843 28.7804 73.8843 28.5929V27.4077C73.8843 27.2203 73.7324 27.0684 73.545 27.0684Z" fill="#787878"/>
<path fill-rule="evenodd" clip-rule="evenodd" d="M65.5813 27.1372C66.1469 27.1372 66.6928 27.3536 67.1059 27.7421C67.1354 27.7765 67.1846 27.7716 67.2141 27.7421L67.5092 27.447C67.5248 27.4313 67.5336 27.4101 67.5336 27.388C67.5336 27.3659 67.5248 27.3447 67.5092 27.329C66.991 26.8327 66.3013 26.5557 65.5838 26.5557C64.8663 26.5557 64.1765 26.8327 63.6584 27.329C63.6428 27.3447 63.634 27.3659 63.634 27.388C63.634 27.4101 63.6428 27.4313 63.6584 27.447L63.9535 27.7421C63.983 27.7716 64.0322 27.7765 64.0617 27.7421C64.4731 27.3518 65.0191 27.1351 65.5863 27.1372H65.5813ZM65.5813 28.106C65.8961 28.106 66.1912 28.2191 66.4223 28.4306C66.4567 28.4601 66.5059 28.4601 66.5354 28.4306L66.8305 28.1306C66.8461 28.1149 66.8549 28.0937 66.8549 28.0716C66.8549 28.0495 66.8461 28.0283 66.8305 28.0126C66.4919 27.6973 66.0464 27.522 65.5838 27.522C65.1211 27.522 64.6757 27.6973 64.3371 28.0126C64.3215 28.0283 64.3127 28.0495 64.3127 28.0716C64.3127 28.0937 64.3215 28.1149 64.3371 28.1306L64.6322 28.4257C64.6617 28.4601 64.7108 28.4601 64.7453 28.4257C64.9752 28.2199 65.2728 28.1061 65.5813 28.106ZM66.1715 28.7552C66.1715 28.7798 66.1666 28.8044 66.1518 28.8142L65.6403 29.3306C65.6262 29.3456 65.6068 29.3544 65.5863 29.3552C65.5752 29.3555 65.5643 29.3534 65.5541 29.3492C65.544 29.3449 65.5348 29.3386 65.5272 29.3306L65.0158 28.8142C65.0082 28.8069 65.0021 28.7981 64.998 28.7884C64.9939 28.7787 64.9918 28.7682 64.9918 28.7577C64.9918 28.7471 64.9939 28.7367 64.998 28.727C65.0021 28.7172 65.0082 28.7084 65.0158 28.7011C65.1738 28.5673 65.3742 28.4939 65.5813 28.4939C65.7884 28.4939 65.9888 28.5673 66.1469 28.7011C66.1617 28.7159 66.1715 28.7355 66.1764 28.7552H66.1715ZM62.1092 26.6405H61.8535C61.7865 26.6417 61.7227 26.6693 61.6758 26.7171C61.6289 26.7649 61.6026 26.8292 61.6026 26.8962V29.0995C61.6026 29.2421 61.7158 29.3552 61.8535 29.3552H62.1092C62.2518 29.3552 62.3649 29.2421 62.3649 29.0995V26.8962C62.3649 26.8284 62.338 26.7633 62.29 26.7154C62.2421 26.6674 62.177 26.6405 62.1092 26.6405ZM60.6682 27.2355H60.924C61.0617 27.2355 61.1797 27.3487 61.1797 27.4913V29.0995C61.1797 29.2421 61.0617 29.3552 60.924 29.3552H60.6682C60.6004 29.3552 60.5353 29.3283 60.4874 29.2803C60.4394 29.2323 60.4125 29.1673 60.4125 29.0995V27.4913C60.4125 27.3487 60.5305 27.2355 60.6682 27.2355ZM59.7338 27.8257H59.483C59.4151 27.8257 59.3501 27.8526 59.3021 27.9006C59.2542 27.9486 59.2272 28.0136 59.2272 28.0814V29.0995C59.2272 29.2421 59.3404 29.3552 59.483 29.3552H59.7387C59.8764 29.3552 59.9895 29.2421 59.9895 29.0995V28.0814C59.9883 28.0153 59.9614 27.9522 59.9147 27.9055C59.8679 27.8587 59.8048 27.8319 59.7387 27.8306L59.7338 27.8257ZM58.5535 28.3372H58.2977C58.2299 28.3372 58.1649 28.3641 58.1169 28.4121C58.0689 28.46 58.042 28.5251 58.042 28.5929V29.0995C58.042 29.2421 58.1551 29.3552 58.2977 29.3552H58.5485C58.6912 29.3552 58.8043 29.2421 58.8043 29.0995V28.5929C58.8043 28.5251 58.7773 28.46 58.7294 28.4121C58.6814 28.3641 58.6164 28.3372 58.5485 28.3372H58.5535Z" fill="#787878"/>
<path d="M5.60748 26.7551C6.18289 26.7551 6.67961 27.1633 6.67961 28.1321C6.67961 29.042 6.27141 29.578 5.59764 29.578C5.10584 29.578 4.73699 29.2829 4.64846 28.8747V28.8501H5.12059V28.8698C5.19436 29.0567 5.36158 29.1797 5.59764 29.1797C6.02551 29.1797 6.20256 28.7665 6.22223 28.2501V28.1911H6.18781C6.08945 28.4026 5.85338 28.5895 5.48945 28.5895C5.3723 28.5937 5.25556 28.5736 5.14654 28.5305C5.03752 28.4874 4.93858 28.4223 4.85592 28.3392C4.77327 28.256 4.70868 28.1567 4.66621 28.0475C4.62374 27.9382 4.6043 27.8214 4.60912 27.7042V27.6993C4.60912 27.1583 5.02715 26.7551 5.60748 26.7551ZM5.60748 28.2206C5.90748 28.2206 6.14354 27.9993 6.14354 27.6993V27.6944C6.14419 27.6247 6.13109 27.5555 6.10499 27.4908C6.0789 27.4261 6.04032 27.3672 5.99145 27.3174C5.89276 27.2169 5.75818 27.1596 5.61731 27.1583C5.47644 27.157 5.34083 27.2117 5.2403 27.3104C5.13976 27.4091 5.08255 27.5437 5.08125 27.6846C5.08125 27.9993 5.30256 28.2206 5.60748 28.2206ZM7.45174 27.7682C7.37348 27.7682 7.29843 27.7371 7.24309 27.6818C7.18775 27.6264 7.15666 27.5514 7.15666 27.4731C7.15666 27.3108 7.27961 27.178 7.45174 27.178C7.61895 27.178 7.74682 27.3108 7.74682 27.4731C7.74682 27.6403 7.61895 27.7682 7.45174 27.7682ZM7.45174 29.1452C7.41322 29.1459 7.37496 29.1389 7.33919 29.1246C7.30342 29.1103 7.27084 29.089 7.24338 29.062C7.21591 29.035 7.1941 29.0028 7.17921 28.9673C7.16432 28.9317 7.15665 28.8936 7.15666 28.8551C7.15666 28.6879 7.27961 28.56 7.45174 28.56C7.61895 28.56 7.74682 28.6879 7.74682 28.8551C7.74682 29.0223 7.61895 29.1501 7.45174 29.1501V29.1452ZM9.51732 29.5092V28.9928H8.20912V28.5993C8.55338 27.9944 8.93699 27.3797 9.30092 26.8239H9.97961V28.5944H10.3435V28.9928H9.97961V29.5092H9.52223H9.51732ZM8.65666 28.6092H9.52715V27.2075H9.50256C9.2073 27.6582 8.92522 28.1175 8.65666 28.5846V28.6092ZM11.3813 29.5092V27.296H11.3468L10.678 27.7682V27.3157L11.3813 26.8239H11.8583V29.5092H11.3813Z" fill="#787878"/>
<path d="M63.2257 39.3437V39.1666L63.9289 38.4043L64.1355 38.1683C64.1847 38.1043 64.224 38.0453 64.2437 37.9961C64.2634 37.947 64.2732 37.8879 64.2732 37.8289C64.2738 37.7602 64.2569 37.6925 64.224 37.6322C64.1937 37.5747 64.1476 37.5269 64.0912 37.4945C64.0263 37.4598 63.9534 37.4428 63.8798 37.4453C63.8046 37.4431 63.7302 37.46 63.6634 37.4945C63.6012 37.5264 63.5499 37.5761 63.5158 37.6371C63.4811 37.7021 63.4641 37.775 63.4667 37.8486H63.2158C63.2152 37.7355 63.2456 37.6243 63.3037 37.5272C63.3618 37.4301 63.4454 37.3508 63.5453 37.2978C63.6437 37.2437 63.7617 37.2142 63.8945 37.2142C64.0175 37.2142 64.1257 37.2388 64.224 37.2929C64.3224 37.342 64.3962 37.4109 64.4552 37.4994C64.5093 37.583 64.5388 37.6863 64.5388 37.7945V37.7994C64.5388 37.8781 64.524 37.9568 64.4945 38.0306C64.4699 38.0994 64.4207 38.1781 64.3519 38.2715C64.283 38.3601 64.1847 38.4683 64.0568 38.6011L63.5208 39.1519L63.5847 39.0338V39.1519L63.5208 39.1125H64.5732V39.3437H63.2257ZM65.7191 39.3781C65.5716 39.3781 65.4388 39.3535 65.3257 39.3043C65.2126 39.2552 65.1289 39.1814 65.0601 39.0929C64.9962 38.9994 64.9617 38.8961 64.9617 38.783C64.9601 38.6995 64.979 38.6168 65.0167 38.5422C65.0544 38.4676 65.1098 38.4034 65.1781 38.3552C65.2421 38.306 65.3207 38.2666 65.4093 38.247V38.242C65.2962 38.2076 65.2076 38.1437 65.1388 38.065C65.0736 37.9844 65.0388 37.8834 65.0404 37.7797C65.0404 37.6715 65.065 37.5781 65.124 37.4945C65.183 37.4158 65.2666 37.347 65.3699 37.2978C65.4683 37.2535 65.5863 37.2289 65.7142 37.2289C65.8519 37.2289 65.965 37.2535 66.0683 37.3027C66.1666 37.3519 66.2503 37.4158 66.3142 37.4994C66.3683 37.5781 66.3978 37.6715 66.3978 37.7748C66.3978 37.8879 66.3634 37.9863 66.2994 38.0699C66.2306 38.1486 66.1421 38.2076 66.024 38.242V38.247C66.1072 38.2643 66.1856 38.2998 66.2535 38.3508C66.3215 38.4018 66.3775 38.4671 66.4175 38.542C66.4519 38.6158 66.4716 38.6896 66.4716 38.7781C66.4716 38.8961 66.4421 38.9994 66.3732 39.0929C66.3093 39.1814 66.2257 39.2502 66.1076 39.3043C65.9945 39.3535 65.8617 39.3781 65.7142 39.3781H65.7191ZM65.7191 39.1519C65.8175 39.1519 65.8962 39.1371 65.9699 39.1027C66.04 39.0732 66.1011 39.0257 66.147 38.965C66.1885 38.9078 66.2109 38.839 66.2109 38.7683V38.7634C66.2109 38.6896 66.1863 38.6158 66.147 38.5617C66.103 38.5012 66.0435 38.4537 65.9748 38.424C65.8962 38.3896 65.8125 38.3748 65.7191 38.3748C65.6207 38.3748 65.5371 38.3896 65.4634 38.424C65.3932 38.4533 65.332 38.5009 65.2863 38.5617C65.2471 38.6198 65.2265 38.6884 65.2273 38.7584V38.7683C65.2273 38.842 65.247 38.906 65.2912 38.965C65.3306 39.024 65.3896 39.0683 65.4634 39.1027C65.5371 39.1371 65.6207 39.1519 65.7191 39.1519ZM65.7191 38.1437C65.8027 38.1437 65.8765 38.1289 65.9404 38.0994C65.9993 38.074 66.0502 38.0332 66.088 37.9814C66.1224 37.9273 66.1371 37.8683 66.1371 37.7994C66.14 37.7351 66.1228 37.6715 66.088 37.6175C66.0506 37.5653 65.9995 37.5245 65.9404 37.4994C65.8765 37.4699 65.8027 37.4502 65.7191 37.4502C65.6355 37.4502 65.5617 37.4699 65.4978 37.4994C65.4387 37.5245 65.3877 37.5653 65.3503 37.6175C65.3158 37.6666 65.2962 37.7306 65.2962 37.7994C65.2962 37.8683 65.3109 37.9273 65.3453 37.9814C65.3847 38.0306 65.4339 38.0699 65.4929 38.0994C65.5617 38.1289 65.6355 38.1486 65.7191 38.1486V38.1437ZM67.8388 39.3437V38.9109H66.8306V38.6748C67.1181 38.1996 67.4132 37.7291 67.7158 37.2634H68.0945V38.6797H68.3896V38.9109H68.0945V39.3437H67.8388ZM67.0962 38.6847H67.8437V37.5043H67.824L67.6814 37.7256L67.5339 37.9568L67.3863 38.1929L67.2339 38.4338C67.1847 38.5125 67.1355 38.5863 67.0962 38.665V38.6847ZM70.6076 39.3584C70.5584 39.3584 70.5142 39.3388 70.4798 39.3043C70.4622 39.287 70.4484 39.2663 70.4391 39.2435C70.4298 39.2207 70.4252 39.1962 70.4257 39.1716C70.4257 39.1224 70.4453 39.0732 70.4748 39.0388C70.4927 39.0206 70.5142 39.0064 70.5379 38.9971C70.5617 38.9878 70.5871 38.9835 70.6125 38.9847C70.6617 38.9847 70.7109 38.9994 70.7453 39.0338C70.7798 39.0732 70.7994 39.1175 70.7994 39.1716C70.7994 39.2207 70.7798 39.2699 70.7453 39.3043C70.7276 39.321 70.7067 39.3339 70.6839 39.3424C70.6611 39.3508 70.6368 39.3546 70.6125 39.3535L70.6076 39.3584ZM72.3929 39.3929C72.2404 39.3929 72.1076 39.3486 71.9994 39.2601C71.8832 39.1608 71.7965 39.0315 71.7486 38.8863C71.6861 38.6994 71.6561 38.5031 71.6601 38.306C71.6601 38.0797 71.6896 37.8879 71.7486 37.7256C71.8076 37.5634 71.8912 37.4355 71.9945 37.347C72.1076 37.2584 72.2404 37.2142 72.3929 37.2142C72.5453 37.2142 72.6781 37.2634 72.7863 37.347C72.8945 37.4355 72.983 37.5634 73.0421 37.7256C73.1011 37.8879 73.1306 38.0797 73.1306 38.3011C73.1306 38.5273 73.1011 38.7191 73.0421 38.8863C72.9928 39.032 72.9043 39.1614 72.7863 39.2601C72.6781 39.3486 72.5453 39.3929 72.3929 39.3929ZM72.3929 39.1666C72.4403 39.168 72.4875 39.1595 72.5315 39.1417C72.5755 39.1239 72.6154 39.0973 72.6486 39.0634C72.7175 38.9896 72.7716 38.8912 72.8109 38.7634C72.8503 38.6355 72.8699 38.483 72.8699 38.306C72.8699 38.124 72.8503 37.9715 72.8109 37.8437C72.7831 37.733 72.7272 37.6314 72.6486 37.5486C72.6154 37.5147 72.5755 37.488 72.5315 37.4702C72.4875 37.4525 72.4403 37.444 72.3929 37.4453C72.2945 37.4453 72.2109 37.4797 72.1371 37.5486C72.0683 37.6175 72.0142 37.7158 71.9748 37.8437C71.9404 37.9715 71.9207 38.124 71.9207 38.3011C71.9207 38.483 71.9404 38.6355 71.9748 38.7634C72.0142 38.8912 72.0683 38.9896 72.1371 39.0584C72.2109 39.1322 72.2945 39.1666 72.3929 39.1666ZM74.2519 39.3929C74.0994 39.3929 73.9666 39.3486 73.8584 39.2601C73.7422 39.1608 73.6555 39.0315 73.6076 38.8863C73.5451 38.6994 73.5152 38.5031 73.5191 38.306C73.5191 38.0797 73.5486 37.8879 73.6076 37.7256C73.6666 37.5634 73.7502 37.4355 73.8535 37.347C73.9666 37.2584 74.0994 37.2142 74.247 37.2142C74.4043 37.2142 74.5371 37.2634 74.6453 37.347C74.7535 37.4355 74.842 37.5634 74.8961 37.7256C74.9601 37.8879 74.9896 38.0797 74.9896 38.3011C74.9896 38.5273 74.9601 38.7191 74.8961 38.8863C74.842 39.0486 74.7584 39.1716 74.6502 39.2601C74.5371 39.3486 74.4043 39.3929 74.2519 39.3929ZM74.2519 39.1666C74.2993 39.168 74.3465 39.1595 74.3905 39.1417C74.4346 39.1239 74.4744 39.0973 74.5076 39.0634C74.5765 38.9896 74.6306 38.8912 74.6699 38.7634C74.7093 38.6355 74.7289 38.483 74.7289 38.306C74.7289 38.124 74.7093 37.9715 74.6699 37.8437C74.6421 37.733 74.5862 37.6314 74.5076 37.5486C74.4744 37.5147 74.4346 37.488 74.3905 37.4702C74.3465 37.4525 74.2993 37.444 74.2519 37.4453C74.1535 37.4453 74.065 37.4797 73.9961 37.5486C73.9273 37.6175 73.8732 37.7158 73.8339 37.8437C73.7942 37.9928 73.776 38.1468 73.7798 38.3011C73.7798 38.483 73.7994 38.6355 73.8339 38.7634C73.8732 38.8912 73.9273 38.9896 73.9961 39.0584C74.065 39.1322 74.1535 39.1666 74.2519 39.1666ZM63.2257 53.1142V52.9371L63.9289 52.1748L64.1355 51.9388C64.1847 51.8748 64.224 51.8158 64.2437 51.7666C64.2634 51.7174 64.2732 51.6584 64.2732 51.5994C64.2738 51.5307 64.2569 51.463 64.224 51.4027C64.1937 51.3452 64.1476 51.2974 64.0912 51.265C64.0263 51.2303 63.9534 51.2133 63.8798 51.2158C63.8046 51.2136 63.7302 51.2305 63.6634 51.265C63.6014 51.2972 63.5501 51.3467 63.5158 51.4076C63.4811 51.4725 63.4641 51.5455 63.4667 51.6191H63.2158C63.2152 51.5059 63.2456 51.3948 63.3037 51.2977C63.3618 51.2006 63.4454 51.1212 63.5453 51.0683C63.6437 51.0142 63.7617 50.9847 63.8945 50.9847C64.0175 50.9847 64.1257 51.0093 64.224 51.0633C64.3224 51.1125 64.3962 51.1814 64.4552 51.2699C64.5093 51.3535 64.5388 51.4568 64.5388 51.565V51.5699C64.5388 51.6486 64.524 51.7273 64.4945 51.8011C64.4699 51.8699 64.4207 51.9486 64.3519 52.042C64.283 52.1306 64.1847 52.2388 64.0568 52.3715L63.5208 52.9224L63.5847 52.8043V52.9224L63.5208 52.883H64.5732V53.1142H63.2257ZM65.7191 53.1486C65.5716 53.1486 65.4388 53.124 65.3257 53.0748C65.2126 53.0256 65.1289 52.9519 65.0601 52.8633C64.9962 52.7699 64.9617 52.6666 64.9617 52.5535C64.9605 52.47 64.9796 52.3875 65.0173 52.3129C65.0549 52.2384 65.1101 52.1741 65.1781 52.1256C65.2421 52.0765 65.3207 52.0371 65.4093 52.0174V52.0125C65.2962 51.9781 65.2076 51.9142 65.1388 51.8355C65.0736 51.7549 65.0388 51.6539 65.0404 51.5502C65.0404 51.442 65.065 51.3486 65.124 51.265C65.183 51.1863 65.2666 51.1174 65.3699 51.0683C65.4683 51.024 65.5863 50.9994 65.7142 50.9994C65.8519 50.9994 65.965 51.024 66.0683 51.0732C66.1666 51.1224 66.2503 51.1863 66.3142 51.2699C66.3683 51.3486 66.3978 51.442 66.3978 51.5453C66.3978 51.6584 66.3634 51.7519 66.2994 51.8404C66.2306 51.9191 66.1421 51.9781 66.024 52.0125V52.0174C66.1071 52.0351 66.1853 52.0707 66.2532 52.1217C66.3212 52.1726 66.3772 52.2377 66.4175 52.3125C66.4519 52.3863 66.4716 52.4601 66.4716 52.5486C66.4716 52.6666 66.4421 52.7699 66.3732 52.8633C66.3054 52.9565 66.2136 53.0296 66.1076 53.0748C65.9945 53.124 65.8617 53.1486 65.7142 53.1486H65.7191ZM65.7191 52.9224C65.8175 52.9224 65.8962 52.9076 65.9699 52.8732C66.04 52.8436 66.1011 52.7961 66.147 52.7355C66.1885 52.6783 66.2109 52.6094 66.2109 52.5388V52.5338C66.2109 52.4601 66.1863 52.3863 66.147 52.3322C66.103 52.2717 66.0435 52.2242 65.9748 52.1945C65.8962 52.1601 65.8125 52.1453 65.7191 52.1453C65.6207 52.1453 65.5371 52.1601 65.4634 52.1945C65.393 52.2236 65.3319 52.2712 65.2863 52.3322C65.2471 52.3902 65.2265 52.4589 65.2273 52.5289V52.5388C65.2273 52.6125 65.247 52.6765 65.2912 52.7355C65.3306 52.7945 65.3896 52.8388 65.4634 52.8732C65.5371 52.9076 65.6207 52.9224 65.7191 52.9224ZM65.7191 51.9142C65.8027 51.9142 65.8765 51.8994 65.9404 51.8699C65.9991 51.8442 66.05 51.8035 66.088 51.7519C66.1224 51.6978 66.1371 51.6388 66.1371 51.5699C66.14 51.5056 66.1228 51.442 66.088 51.3879C66.0504 51.336 65.9994 51.2952 65.9404 51.2699C65.8765 51.2404 65.8027 51.2207 65.7191 51.2207C65.6355 51.2207 65.5617 51.2404 65.4978 51.2699C65.4388 51.2952 65.3878 51.336 65.3503 51.3879C65.3158 51.4371 65.2962 51.5011 65.2962 51.5699C65.2962 51.6388 65.3109 51.6978 65.3453 51.7519C65.3847 51.8011 65.4339 51.8404 65.4929 51.8699C65.5617 51.8994 65.6355 51.9191 65.7191 51.9191V51.9142ZM66.8945 53.1142V52.9371L67.5929 52.1748L67.8044 51.9388C67.8535 51.8748 67.888 51.8158 67.9076 51.7666C67.9273 51.7174 67.9371 51.6584 67.9371 51.5994C67.9382 51.5307 67.9213 51.4628 67.888 51.4027C67.8576 51.3452 67.8115 51.2974 67.7552 51.265C67.6902 51.2303 67.6173 51.2133 67.5437 51.2158C67.4686 51.2136 67.3941 51.2305 67.3273 51.265C67.2653 51.2972 67.214 51.3467 67.1798 51.4076C67.145 51.4725 67.1281 51.5455 67.1306 51.6191H66.8798C66.8786 51.5058 66.9088 51.3945 66.9669 51.2973C67.0251 51.2001 67.1089 51.1208 67.2093 51.0683C67.3076 51.0142 67.4306 50.9847 67.5634 50.9847C67.6814 50.9847 67.7945 51.0093 67.888 51.0633C67.9863 51.1125 68.065 51.1814 68.1191 51.2699C68.1732 51.3535 68.2027 51.4568 68.2027 51.565V51.5699C68.2027 51.6486 68.188 51.7273 68.1634 51.8011C68.1267 51.8884 68.0769 51.9697 68.0158 52.042C67.947 52.1306 67.8486 52.2388 67.7207 52.3715L67.1847 52.9224L67.2535 52.8043V52.9224L67.1896 52.883H68.2371V53.1142H66.8945ZM70.4945 53.1289C70.4453 53.1289 70.3961 53.1092 70.3617 53.0748C70.3442 53.0575 70.3303 53.0368 70.321 53.014C70.3117 52.9912 70.3072 52.9667 70.3076 52.942C70.3076 52.8929 70.3224 52.8437 70.3568 52.8092C70.3747 52.7911 70.3962 52.7769 70.4199 52.7676C70.4436 52.7583 70.469 52.754 70.4945 52.7551C70.5437 52.7551 70.5929 52.7748 70.6273 52.8043C70.6617 52.8437 70.6765 52.8879 70.6765 52.942C70.6765 52.9912 70.6617 53.0404 70.6273 53.0748C70.6096 53.0915 70.5887 53.1044 70.5659 53.1129C70.5431 53.1213 70.5188 53.1251 70.4945 53.124V53.1289ZM72.2748 53.1633C72.1224 53.1633 71.9896 53.1191 71.8814 53.0306C71.7644 52.9299 71.6776 52.7988 71.6306 52.6519C71.5685 52.4665 71.5386 52.2719 71.5421 52.0765C71.5421 51.8502 71.5716 51.6584 71.6306 51.4961C71.6896 51.3338 71.7732 51.206 71.8765 51.1174C71.9896 51.0289 72.1224 50.9847 72.2748 50.9847C72.4273 50.9847 72.5601 51.0338 72.6683 51.1174C72.7814 51.206 72.865 51.3338 72.924 51.4961C72.983 51.6584 73.0125 51.8502 73.0125 52.0715C73.0125 52.2978 72.983 52.4896 72.9191 52.6568C72.865 52.8191 72.7814 52.942 72.6732 53.0306C72.5601 53.1191 72.4273 53.1633 72.2748 53.1633ZM72.2748 52.9371C72.3223 52.9385 72.3695 52.93 72.4135 52.9122C72.4575 52.8944 72.4974 52.8678 72.5306 52.8338C72.5994 52.7601 72.6535 52.6617 72.6929 52.5338C72.7322 52.406 72.7519 52.2535 72.7519 52.0765C72.7519 51.8945 72.7322 51.742 72.6929 51.6142C72.6652 51.5034 72.6093 51.4017 72.5306 51.3191C72.4974 51.2852 72.4575 51.2585 72.4135 51.2407C72.3695 51.2229 72.3223 51.2145 72.2748 51.2158C72.1765 51.2158 72.0929 51.2502 72.0191 51.3191C71.9503 51.3879 71.8962 51.4863 71.8568 51.6142C71.8224 51.742 71.8027 51.8945 71.8027 52.0715C71.8027 52.2535 71.8224 52.406 71.8568 52.5338C71.8962 52.6617 71.9503 52.7601 72.0191 52.8289C72.0929 52.9027 72.1765 52.9371 72.2748 52.9371ZM74.1339 53.1633C73.9814 53.1633 73.8486 53.1191 73.7404 53.0306C73.6237 52.9297 73.5369 52.7987 73.4896 52.6519C73.4276 52.4665 73.3977 52.2719 73.4011 52.0765C73.4011 51.8502 73.4306 51.6584 73.4896 51.4961C73.5486 51.3338 73.6322 51.206 73.7355 51.1174C73.8486 51.0289 73.9814 50.9847 74.1289 50.9847C74.2863 50.9847 74.4191 51.0338 74.5273 51.1174C74.6355 51.206 74.724 51.3338 74.7781 51.4961C74.8421 51.6584 74.8716 51.8502 74.8716 52.0715C74.8716 52.2978 74.8421 52.4896 74.7781 52.6568C74.7316 52.8014 74.6466 52.9306 74.5322 53.0306C74.4191 53.1191 74.2863 53.1633 74.1339 53.1633ZM74.1339 52.9371C74.2322 52.9371 74.3207 52.9027 74.3896 52.8338C74.4584 52.7601 74.5125 52.6617 74.5519 52.5338C74.5912 52.406 74.6109 52.2535 74.6109 52.0765C74.6109 51.8945 74.5912 51.742 74.5519 51.6142C74.5238 51.5036 74.468 51.402 74.3896 51.3191C74.3564 51.2852 74.3165 51.2585 74.2725 51.2407C74.2285 51.2229 74.1813 51.2145 74.1339 51.2158C74.0355 51.2158 73.947 51.2502 73.8781 51.3191C73.8093 51.3879 73.7552 51.4863 73.7158 51.6142C73.6814 51.742 73.6617 51.8945 73.6617 52.0715C73.6617 52.2535 73.6814 52.406 73.7158 52.5338C73.7552 52.6617 73.8093 52.7601 73.8781 52.8289C73.9519 52.9027 74.0355 52.9371 74.1339 52.9371ZM63.2257 66.8847V66.7076L63.9289 65.9453L64.1355 65.7092C64.1847 65.6453 64.224 65.5863 64.2437 65.5371C64.2634 65.4879 64.2732 65.4289 64.2732 65.3699C64.2738 65.3012 64.2569 65.2335 64.224 65.1732C64.1937 65.1157 64.1476 65.0679 64.0912 65.0355C64.0263 65.0007 63.9534 64.9838 63.8798 64.9863C63.8046 64.984 63.7302 65.001 63.6634 65.0355C63.6014 65.0677 63.5501 65.1172 63.5158 65.1781C63.4811 65.243 63.4641 65.316 63.4667 65.3896H63.2158C63.2152 65.2764 63.2456 65.1653 63.3037 65.0682C63.3618 64.9711 63.4454 64.8917 63.5453 64.8388C63.6437 64.7847 63.7617 64.7551 63.8945 64.7551C64.0175 64.7551 64.1257 64.7847 64.224 64.8338C64.3224 64.883 64.3962 64.9519 64.4552 65.0404C64.5093 65.1289 64.5388 65.2273 64.5388 65.3355V65.3404C64.5388 65.4191 64.524 65.4978 64.4945 65.5666C64.4699 65.6404 64.4207 65.724 64.3519 65.8125C64.283 65.9011 64.1847 66.0092 64.0568 66.142L63.5208 66.6929L63.5847 66.5748V66.6929L63.5208 66.6486H64.5732V66.8847H63.2257ZM65.7191 66.9191C65.5716 66.9191 65.4388 66.8945 65.3257 66.8404C65.2126 66.7912 65.1289 66.7224 65.0601 66.6338C64.9962 66.5404 64.9617 66.4371 64.9617 66.324C64.9605 66.2405 64.9796 66.1579 65.0173 66.0834C65.0549 66.0089 65.1101 65.9446 65.1781 65.8961C65.2421 65.847 65.3207 65.8076 65.4093 65.7879V65.783C65.2962 65.7486 65.2076 65.6847 65.1388 65.606C65.0736 65.5253 65.0388 65.4244 65.0404 65.3207C65.0404 65.2125 65.065 65.1191 65.124 65.0355C65.183 64.9568 65.2666 64.8879 65.3699 64.8388C65.4683 64.7945 65.5863 64.7699 65.7142 64.7699C65.8519 64.7699 65.965 64.7945 66.0683 64.8437C66.1666 64.8929 66.2503 64.9568 66.3142 65.0404C66.3683 65.1191 66.3978 65.2125 66.3978 65.3158C66.3978 65.4289 66.3634 65.5273 66.2994 65.6109C66.2306 65.6896 66.1421 65.7486 66.024 65.783V65.7879C66.1071 65.8056 66.1853 65.8412 66.2532 65.8921C66.3212 65.9431 66.3772 66.0082 66.4175 66.083C66.4519 66.1568 66.4716 66.2306 66.4716 66.3191C66.4716 66.4371 66.4421 66.5404 66.3732 66.6338C66.3047 66.7252 66.213 66.7965 66.1076 66.8404C65.9945 66.8896 65.8617 66.9191 65.7142 66.9191H65.7191ZM65.7191 66.6929C65.8175 66.6929 65.8962 66.6781 65.9699 66.6437C66.04 66.6141 66.1011 66.5666 66.147 66.506C66.1885 66.4488 66.2109 66.3799 66.2109 66.3092V66.3043C66.2109 66.2256 66.1863 66.1568 66.147 66.1027C66.103 66.0422 66.0435 65.9947 65.9748 65.965C65.8962 65.9306 65.8125 65.9158 65.7191 65.9158C65.6207 65.9158 65.5371 65.9306 65.4634 65.965C65.393 65.9941 65.3319 66.0417 65.2863 66.1027C65.2471 66.1607 65.2265 66.2294 65.2273 66.2994V66.3043C65.2273 66.383 65.247 66.4519 65.2912 66.506C65.3306 66.565 65.3896 66.6092 65.4634 66.6437C65.5371 66.6781 65.6207 66.6929 65.7191 66.6929ZM65.7191 65.6847C65.8027 65.6847 65.8765 65.6699 65.9404 65.6404C65.9991 65.6147 66.05 65.574 66.088 65.5224C66.1224 65.4683 66.1371 65.4092 66.1371 65.3404C66.14 65.2761 66.1228 65.2125 66.088 65.1584C66.0504 65.1064 65.9994 65.0656 65.9404 65.0404C65.8765 65.0109 65.8027 64.9912 65.7191 64.9912C65.6355 64.9912 65.5617 65.0109 65.4978 65.0404C65.4388 65.0656 65.3878 65.1064 65.3503 65.1584C65.3158 65.2076 65.2962 65.2715 65.2962 65.3404C65.2962 65.4092 65.3109 65.4683 65.3453 65.5224C65.3847 65.5715 65.4339 65.6109 65.4929 65.6453C65.5617 65.6699 65.6355 65.6847 65.7191 65.6847ZM67.588 66.9338C67.4355 66.9338 67.3027 66.8896 67.1945 66.801C67.0776 66.7004 66.9908 66.5693 66.9437 66.4224C66.8817 66.237 66.8518 66.0424 66.8552 65.8469C66.8552 65.6207 66.8847 65.4289 66.9437 65.2666C67.0027 65.1043 67.0863 64.9765 67.1896 64.8879C67.3027 64.7994 67.4355 64.7551 67.588 64.7551C67.7404 64.7551 67.8732 64.8043 67.9814 64.8879C68.0945 64.9765 68.1781 65.1043 68.2371 65.2666C68.2962 65.4289 68.3257 65.6207 68.3257 65.842C68.3257 66.0683 68.2962 66.2601 68.2322 66.4273C68.1857 66.5719 68.1007 66.7011 67.9863 66.801C67.8732 66.8896 67.7404 66.9338 67.588 66.9338ZM67.588 66.7076C67.6354 66.7089 67.6826 66.7005 67.7266 66.6827C67.7706 66.6649 67.8105 66.6382 67.8437 66.6043C67.9125 66.5306 67.9666 66.4322 68.006 66.3043C68.0453 66.1765 68.065 66.024 68.065 65.8469C68.065 65.665 68.0453 65.5125 68.006 65.3847C67.9784 65.2739 67.9224 65.1722 67.8437 65.0896C67.8105 65.0557 67.7706 65.029 67.7266 65.0112C67.6826 64.9934 67.6354 64.9849 67.588 64.9863C67.4896 64.9863 67.406 65.0207 67.3322 65.0896C67.2634 65.1584 67.2093 65.2568 67.1699 65.3847C67.1355 65.5125 67.1158 65.665 67.1158 65.842C67.1158 66.024 67.1355 66.1765 67.1699 66.3043C67.2093 66.4322 67.2634 66.5306 67.3322 66.5994C67.406 66.6732 67.4896 66.7076 67.588 66.7076ZM70.5732 66.8994C70.524 66.8994 70.4748 66.8797 70.4404 66.8453C70.4229 66.828 70.409 66.8073 70.3997 66.7845C70.3904 66.7616 70.3859 66.7372 70.3863 66.7125C70.3863 66.6633 70.4011 66.6142 70.4355 66.5797C70.4534 66.5616 70.4749 66.5474 70.4986 66.5381C70.5223 66.5287 70.5477 66.5245 70.5732 66.5256C70.6224 66.5256 70.6716 66.5404 70.706 66.5748C70.7404 66.6142 70.7552 66.6584 70.7552 66.7125C70.7552 66.7617 70.7404 66.8109 70.706 66.8453C70.6883 66.862 70.6674 66.8749 70.6446 66.8833C70.6218 66.8918 70.5975 66.8956 70.5732 66.8945V66.8994ZM72.3535 66.9338C72.2011 66.9338 72.0683 66.8896 71.9601 66.801C71.8431 66.7004 71.7563 66.5693 71.7093 66.4224C71.6473 66.237 71.6174 66.0424 71.6207 65.8469C71.6207 65.6207 71.6502 65.4289 71.7093 65.2666C71.7683 65.1043 71.847 64.9765 71.9552 64.8879C72.0683 64.7994 72.2011 64.7551 72.3486 64.7551C72.506 64.7551 72.6388 64.8043 72.747 64.8879C72.8552 64.9765 72.9437 65.1043 72.9978 65.2666C73.0568 65.4289 73.0912 65.6207 73.0912 65.842C73.0912 66.0683 73.0568 66.2601 72.9978 66.4273C72.9513 66.5719 72.8663 66.7011 72.7519 66.801C72.6388 66.8896 72.506 66.9338 72.3535 66.9338ZM72.3535 66.7076C72.401 66.7089 72.4482 66.7005 72.4922 66.6827C72.5362 66.6649 72.5761 66.6382 72.6093 66.6043C72.6781 66.5306 72.7322 66.4322 72.7716 66.3043C72.8109 66.1765 72.8306 66.024 72.8306 65.8469C72.8306 65.665 72.8109 65.5125 72.7716 65.3847C72.7437 65.274 72.6878 65.1724 72.6093 65.0896C72.5761 65.0557 72.5362 65.029 72.4922 65.0112C72.4482 64.9934 72.401 64.9849 72.3535 64.9863C72.2552 64.9863 72.1666 65.0207 72.0978 65.0896C72.0289 65.1584 71.9748 65.2568 71.9355 65.3847C71.8962 65.5125 71.8814 65.665 71.8814 65.842C71.8814 66.024 71.8962 66.1765 71.9355 66.3043C71.9748 66.4322 72.0289 66.5306 72.0978 66.5994C72.1666 66.6732 72.2552 66.7076 72.3535 66.7076ZM74.2125 66.9338C74.0601 66.9338 73.9273 66.8896 73.8191 66.801C73.7022 66.7004 73.6153 66.5693 73.5683 66.4224C73.5062 66.237 73.4763 66.0424 73.4798 65.8469C73.4798 65.6207 73.5093 65.4289 73.5683 65.2666C73.6224 65.1043 73.706 64.9765 73.8142 64.8879C73.9273 64.7994 74.0601 64.7551 74.2076 64.7551C74.365 64.7551 74.4978 64.8043 74.606 64.8879C74.7142 64.9765 74.8027 65.1043 74.8568 65.2666C74.9158 65.4289 74.9453 65.6207 74.9453 65.842C74.9453 66.0683 74.9158 66.2601 74.8568 66.4273C74.8089 66.5725 74.7222 66.7017 74.606 66.801C74.4978 66.8896 74.365 66.9338 74.2125 66.9338ZM74.2125 66.7076C74.3109 66.7076 74.3945 66.6732 74.4683 66.6043C74.5371 66.5306 74.5912 66.4322 74.6306 66.3043C74.665 66.1765 74.6847 66.024 74.6847 65.8469C74.6847 65.665 74.665 65.5125 74.6306 65.3847C74.6027 65.274 74.5468 65.1724 74.4683 65.0896C74.4351 65.0557 74.3952 65.029 74.3512 65.0112C74.3072 64.9934 74.26 64.9849 74.2125 64.9863C74.1651 64.9849 74.1179 64.9934 74.0739 65.0112C74.0299 65.029 73.99 65.0557 73.9568 65.0896C73.888 65.1584 73.8339 65.2568 73.7945 65.3847C73.7548 65.5338 73.7366 65.6878 73.7404 65.842C73.7404 66.024 73.7552 66.1765 73.7945 66.3043C73.8339 66.4322 73.888 66.5306 73.9568 66.5994C74.0257 66.6732 74.1142 66.7076 74.2125 66.7076ZM63.2257 80.6551V80.4781L63.9289 79.7158L64.1355 79.4797C64.1847 79.4158 64.224 79.3568 64.2437 79.3076C64.2634 79.2584 64.2732 79.1994 64.2732 79.1404C64.2738 79.0717 64.2569 79.004 64.224 78.9437C64.1937 78.8861 64.1476 78.8384 64.0912 78.806C64.0263 78.7712 63.9534 78.7543 63.8798 78.7568C63.8046 78.7545 63.7302 78.7715 63.6634 78.806C63.6014 78.8381 63.5501 78.8877 63.5158 78.9486C63.4811 79.0135 63.4641 79.0865 63.4667 79.1601H63.2158C63.2152 79.0469 63.2456 78.9358 63.3037 78.8387C63.3618 78.7416 63.4454 78.6622 63.5453 78.6092C63.6437 78.5551 63.7617 78.5256 63.8945 78.5256C64.0175 78.5256 64.1257 78.5551 64.224 78.6043C64.3224 78.6535 64.3962 78.7224 64.4552 78.8109C64.5093 78.8994 64.5388 78.9978 64.5388 79.106V79.1109C64.5388 79.1896 64.524 79.2683 64.4945 79.3371C64.4699 79.4109 64.4207 79.4945 64.3519 79.583C64.283 79.6715 64.1847 79.7797 64.0568 79.9125L63.5208 80.4633L63.5847 80.3453V80.4633L63.5208 80.4191H64.5732V80.6551H63.2257ZM65.0945 80.6551L66.0289 78.8256V78.806H64.9175V78.5748H66.2945V78.8207L65.365 80.6551H65.0945ZM67.3568 80.6896C67.2093 80.6896 67.0765 80.665 66.9634 80.6109C66.8503 80.5617 66.7617 80.4928 66.6978 80.4043C66.6339 80.3109 66.5994 80.2076 66.5994 80.0945C66.5977 80.0114 66.616 79.9291 66.6528 79.8547C66.6896 79.7802 66.7438 79.7157 66.8109 79.6666C66.8798 79.6174 66.9585 79.5781 67.047 79.5584V79.5535C66.9339 79.5191 66.8404 79.4551 66.7765 79.3764C66.7109 79.296 66.6761 79.1949 66.6781 79.0912C66.6781 78.983 66.7027 78.8896 66.7617 78.806C66.8207 78.7273 66.8994 78.6584 67.0076 78.6092C67.106 78.565 67.224 78.5404 67.3519 78.5404C67.4847 78.5404 67.6027 78.565 67.706 78.6142C67.8044 78.6633 67.888 78.7273 67.947 78.8109C68.006 78.8896 68.0355 78.983 68.0355 79.0863C68.0355 79.1994 68.0011 79.2978 67.9371 79.3814C67.8683 79.4601 67.7748 79.5191 67.6617 79.5535V79.5584C67.7448 79.5761 67.823 79.6117 67.8909 79.6626C67.9589 79.7136 68.0149 79.7787 68.0552 79.8535C68.0896 79.9273 68.1093 80.001 68.1093 80.0896C68.1093 80.2076 68.0798 80.3109 68.0109 80.4043C67.9424 80.4956 67.8507 80.567 67.7453 80.6109C67.6322 80.6601 67.4994 80.6896 67.3519 80.6896H67.3568ZM67.3568 80.4633C67.4552 80.4633 67.5339 80.4486 67.6076 80.4142C67.6777 80.3846 67.7388 80.3371 67.7847 80.2764C67.8245 80.2187 67.8451 80.1499 67.8437 80.0797V80.0748C67.8437 79.9961 67.824 79.9273 67.7798 79.8732C67.7357 79.8127 67.6763 79.7651 67.6076 79.7355C67.5339 79.701 67.4503 79.6863 67.3568 79.6863C67.2584 79.6863 67.1748 79.701 67.1011 79.7355C67.0307 79.7646 66.9696 79.8122 66.924 79.8732C66.8848 79.9312 66.8642 79.9998 66.865 80.0699V80.0748C66.865 80.1535 66.8847 80.2224 66.9289 80.2764C66.9683 80.3355 67.0273 80.3797 67.1011 80.4142C67.1748 80.4486 67.2584 80.4633 67.3568 80.4633ZM67.3568 79.4551C67.4355 79.4551 67.5093 79.4404 67.5732 79.4109C67.6319 79.3852 67.6828 79.3445 67.7207 79.2928C67.7601 79.2387 67.7748 79.1797 67.7748 79.1109C67.7781 79.0466 67.7609 78.9828 67.7257 78.9289C67.6881 78.8769 67.6371 78.8361 67.5781 78.8109C67.5142 78.7814 67.4404 78.7617 67.3568 78.7617C67.2683 78.7617 67.1994 78.7814 67.1355 78.8109C67.0765 78.8361 67.0255 78.8769 66.988 78.9289C66.9486 78.9781 66.9339 79.042 66.9339 79.1109C66.9339 79.1797 66.9486 79.2387 66.983 79.2928C67.0224 79.342 67.0716 79.3814 67.1306 79.4158C67.1994 79.4404 67.2683 79.4551 67.3568 79.4551ZM70.3519 80.6699C70.3027 80.6699 70.2535 80.6502 70.2191 80.6158C70.2007 80.5989 70.1859 80.5784 70.1758 80.5555C70.1656 80.5327 70.1603 80.508 70.1601 80.483C70.1601 80.4338 70.1798 80.3846 70.2191 80.3502C70.2364 80.3327 70.2571 80.3188 70.2799 80.3095C70.3028 80.3002 70.3272 80.2957 70.3519 80.2961C70.4011 80.2961 70.4502 80.3109 70.4798 80.3453C70.5191 80.3846 70.5388 80.4289 70.5388 80.483C70.5388 80.5322 70.5191 80.5814 70.4798 80.6158C70.4452 80.6482 70.3993 80.6659 70.3519 80.665V80.6699ZM72.1322 80.7043C71.9748 80.7043 71.847 80.6601 71.7388 80.5715C71.62 80.4715 71.5315 80.3404 71.483 80.1928C71.4227 80.0072 71.3945 79.8126 71.3994 79.6174C71.3994 79.3912 71.4289 79.1994 71.483 79.0371C71.5421 78.8748 71.6306 78.7469 71.7339 78.6584C71.847 78.5699 71.9798 78.5256 72.1273 78.5256C72.2847 78.5256 72.4175 78.5748 72.5207 78.6584C72.6339 78.7469 72.7175 78.8748 72.7765 79.0371C72.8355 79.1994 72.865 79.3912 72.865 79.6125C72.865 79.8387 72.8355 80.0306 72.7765 80.1978C72.7175 80.3601 72.6339 80.483 72.5257 80.5715C72.4175 80.6601 72.2798 80.7043 72.1322 80.7043ZM72.1322 80.4781C72.1797 80.4794 72.2269 80.471 72.2709 80.4532C72.3149 80.4354 72.3547 80.4087 72.388 80.3748C72.4568 80.301 72.5109 80.2027 72.5503 80.0748C72.5847 79.9469 72.6044 79.7945 72.6044 79.6174C72.6044 79.4355 72.5847 79.283 72.5503 79.1551C72.5212 79.0439 72.4636 78.9421 72.383 78.8601C72.3504 78.8268 72.3113 78.8004 72.2682 78.7827C72.2251 78.7649 72.1788 78.7561 72.1322 78.7568C72.0339 78.7568 71.9453 78.7912 71.8765 78.8601C71.8076 78.9289 71.7535 79.0273 71.7142 79.1551C71.6748 79.283 71.6601 79.4355 71.6601 79.6125C71.6601 79.7945 71.6748 79.9469 71.7142 80.0748C71.7535 80.2027 71.8076 80.301 71.8765 80.3699C71.9453 80.4437 72.0339 80.4781 72.1322 80.4781ZM73.9912 80.7043C73.8339 80.7043 73.706 80.6601 73.5978 80.5715C73.479 80.4715 73.3905 80.3404 73.3421 80.1928C73.2814 80.0073 73.2531 79.8126 73.2584 79.6174C73.2584 79.3912 73.283 79.1994 73.3421 79.0371C73.4011 78.8748 73.4896 78.7469 73.5929 78.6584C73.706 78.5699 73.8388 78.5256 73.9863 78.5256C74.1437 78.5256 74.2765 78.5748 74.3798 78.6584C74.4929 78.7469 74.5765 78.8748 74.6355 79.0371C74.6945 79.1994 74.724 79.3912 74.724 79.6125C74.724 79.8387 74.6945 80.0306 74.6355 80.1978C74.5876 80.3429 74.5009 80.4722 74.3847 80.5715C74.2765 80.6601 74.1388 80.7043 73.9912 80.7043ZM73.9912 80.4781C74.0896 80.4781 74.1732 80.4437 74.247 80.3748C74.3158 80.301 74.3699 80.2027 74.4093 80.0748C74.4437 79.9469 74.4634 79.7945 74.4634 79.6174C74.4634 79.4355 74.4437 79.283 74.4093 79.1551C74.3798 79.044 74.3222 78.9424 74.242 78.8601C74.2094 78.8268 74.1704 78.8004 74.1272 78.7827C74.0841 78.7649 74.0379 78.7561 73.9912 78.7568C73.8929 78.7568 73.8043 78.7912 73.7355 78.8601C73.6617 78.9289 73.6125 79.0273 73.5732 79.1551C73.5339 79.283 73.5191 79.4355 73.5191 79.6125C73.5191 79.7945 73.5339 79.9469 73.5683 80.0748C73.6125 80.2027 73.6666 80.301 73.7355 80.3699C73.8043 80.4437 73.888 80.4781 73.9912 80.4781ZM63.2257 94.4256V94.2486L63.9289 93.4863L64.1355 93.2502C64.1847 93.1863 64.224 93.1273 64.2437 93.0781C64.2634 93.0289 64.2732 92.9699 64.2732 92.9109C64.2738 92.8422 64.2569 92.7745 64.224 92.7142C64.1937 92.6566 64.1476 92.6089 64.0912 92.5764C64.0263 92.5417 63.9534 92.5247 63.8798 92.5273C63.8046 92.525 63.7302 92.5419 63.6634 92.5764C63.6014 92.6086 63.5501 92.6582 63.5158 92.7191C63.4811 92.784 63.4641 92.857 63.4667 92.9305H63.2158C63.2152 92.8174 63.2456 92.7062 63.3037 92.6091C63.3618 92.512 63.4454 92.4327 63.5453 92.3797C63.6437 92.3256 63.7617 92.2961 63.8945 92.2961C64.0175 92.2961 64.1257 92.3256 64.224 92.3748C64.3224 92.424 64.3962 92.4928 64.4552 92.5814C64.5093 92.6699 64.5388 92.7682 64.5388 92.8764V92.8814C64.5388 92.9601 64.524 93.0387 64.4945 93.1076C64.4699 93.1814 64.4207 93.265 64.3519 93.3535C64.283 93.442 64.1847 93.5502 64.0568 93.683L63.5208 94.2338L63.5847 94.1158V94.2338L63.5208 94.1896H64.5732V94.4256H63.2257ZM65.0945 94.4256L66.0289 92.5961V92.5764H64.9175V92.3453H66.2945V92.5912L65.365 94.4256H65.0945ZM67.465 94.4256V93.9928H66.4519V93.7568C66.6879 93.3754 66.9256 92.9951 67.165 92.6158L67.3421 92.3453H67.7158V93.7617H68.0109V93.9928H67.7158V94.4256H67.465ZM66.7175 93.7666H67.465V92.5863H67.4503L67.3027 92.8076L67.1552 93.0387L67.0076 93.2748L66.8601 93.5158L66.7125 93.7469V93.7617L66.7175 93.7666ZM70.2339 94.4404C70.1847 94.4404 70.1355 94.4207 70.1011 94.3863C70.0835 94.369 70.0697 94.3483 70.0604 94.3254C70.0511 94.3026 70.0465 94.2781 70.047 94.2535C70.047 94.2043 70.0666 94.1551 70.1011 94.1207C70.1184 94.1032 70.1391 94.0893 70.1619 94.08C70.1847 94.0707 70.2092 94.0662 70.2339 94.0666C70.283 94.0666 70.3322 94.0814 70.3666 94.1158C70.4011 94.1551 70.4207 94.1994 70.4207 94.2535C70.4207 94.3027 70.406 94.3519 70.3716 94.3863C70.3533 94.4036 70.3316 94.4168 70.3079 94.4253C70.2842 94.4338 70.259 94.4372 70.2339 94.4355V94.4404ZM72.0142 94.4748C71.8617 94.4748 71.7289 94.4305 71.6207 94.342C71.5038 94.2414 71.417 94.1103 71.3699 93.9633C71.3079 93.778 71.2779 93.5834 71.2814 93.3879C71.2814 93.1617 71.3109 92.9699 71.3699 92.8076C71.4289 92.6453 71.5125 92.5174 71.6207 92.4289C71.7289 92.3404 71.8617 92.2961 72.0142 92.2961C72.1666 92.2961 72.2994 92.3453 72.4076 92.4289C72.5207 92.5174 72.6043 92.6453 72.6634 92.8076C72.7224 92.9699 72.7519 93.1617 72.7519 93.383C72.7519 93.6092 72.7224 93.801 72.6634 93.9683C72.6043 94.1305 72.5158 94.2535 72.4125 94.342C72.2994 94.4305 72.1666 94.4748 72.0191 94.4748H72.0142ZM72.0142 94.2486C72.1125 94.2486 72.2011 94.2141 72.2699 94.1453C72.3437 94.0715 72.3978 93.9732 72.4322 93.8453C72.4716 93.7174 72.4912 93.565 72.4912 93.3879C72.4912 93.206 72.4716 93.0535 72.4322 92.9256C72.4044 92.8149 72.3485 92.7133 72.2699 92.6305C72.2367 92.5966 72.1969 92.5699 72.1528 92.5522C72.1088 92.5344 72.0616 92.5259 72.0142 92.5273C71.9667 92.5259 71.9195 92.5344 71.8755 92.5522C71.8315 92.5699 71.7917 92.5966 71.7584 92.6305C71.6896 92.6994 71.6355 92.7978 71.6011 92.9256C71.5597 93.0745 71.5399 93.2285 71.5421 93.383C71.5421 93.565 71.5617 93.7174 71.6011 93.8453C71.6355 93.9732 71.6896 94.0715 71.7584 94.1404C71.8322 94.2141 71.9158 94.2486 72.0142 94.2486ZM73.8732 94.4748C73.7207 94.4748 73.588 94.4305 73.4798 94.342C73.3628 94.2414 73.276 94.1103 73.2289 93.9633C73.1669 93.778 73.1369 93.5834 73.1404 93.3879C73.1404 93.1617 73.1699 92.9699 73.2289 92.8076C73.288 92.6453 73.3716 92.5174 73.4748 92.4289C73.5879 92.3404 73.7207 92.2961 73.8732 92.2961C74.0257 92.2961 74.1584 92.3453 74.2666 92.4289C74.3798 92.5174 74.4634 92.6453 74.5224 92.8076C74.5814 92.9699 74.6109 93.1617 74.6109 93.383C74.6109 93.6092 74.5814 93.801 74.5224 93.9683C74.4634 94.1305 74.3748 94.2535 74.2666 94.342C74.1584 94.4305 74.0257 94.4748 73.8732 94.4748ZM73.8732 94.2486C73.9206 94.2499 73.9678 94.2414 74.0119 94.2237C74.0559 94.2059 74.0957 94.1792 74.1289 94.1453C74.2027 94.0715 74.2568 93.9732 74.2912 93.8453C74.3306 93.7174 74.3502 93.565 74.3502 93.3879C74.3502 93.206 74.3306 93.0535 74.2912 92.9256C74.2636 92.8149 74.2077 92.7132 74.1289 92.6305C74.0957 92.5966 74.0559 92.5699 74.0119 92.5522C73.9678 92.5344 73.9206 92.5259 73.8732 92.5273C73.7748 92.5273 73.6912 92.5617 73.6175 92.6305C73.5486 92.6994 73.4945 92.7978 73.4601 92.9256C73.4207 93.0535 73.4011 93.206 73.4011 93.383C73.4011 93.565 73.4207 93.7174 73.4601 93.8453C73.4945 93.9732 73.5486 94.0715 73.6175 94.1404C73.6912 94.2141 73.7748 94.2486 73.8732 94.2486ZM63.2257 108.196V108.019L63.9289 107.257L64.1355 107.021C64.1847 106.957 64.224 106.898 64.2437 106.849C64.2634 106.799 64.2732 106.74 64.2732 106.681C64.2738 106.613 64.2569 106.545 64.224 106.485C64.1937 106.427 64.1476 106.379 64.0912 106.347C64.0263 106.312 63.9534 106.295 63.8798 106.298C63.8046 106.296 63.7302 106.312 63.6634 106.347C63.6014 106.379 63.5501 106.429 63.5158 106.49C63.4811 106.554 63.4641 106.627 63.4667 106.701H63.2158C63.2152 106.588 63.2456 106.477 63.3037 106.38C63.3618 106.283 63.4454 106.203 63.5453 106.15C63.6437 106.096 63.7617 106.067 63.8945 106.067C64.0175 106.067 64.1257 106.096 64.224 106.145C64.3224 106.194 64.3962 106.263 64.4552 106.352C64.5093 106.44 64.5388 106.539 64.5388 106.647V106.652C64.5388 106.731 64.524 106.809 64.4945 106.878C64.4699 106.952 64.4207 107.035 64.3519 107.124C64.283 107.213 64.1847 107.321 64.0568 107.453L63.5208 108.004L63.5847 107.886V108.004L63.5208 107.96H64.5732V108.196H63.2257ZM65.0945 108.196L66.0289 106.367V106.347H64.9175V106.116H66.2945V106.362L65.365 108.196H65.0945ZM66.688 108.196V108.019L67.3912 107.257L67.5978 107.021C67.647 106.957 67.6814 106.898 67.7011 106.849C67.7257 106.799 67.7355 106.74 67.7355 106.681C67.7366 106.613 67.7196 106.545 67.6863 106.485C67.6546 106.426 67.6068 106.379 67.5486 106.347C67.4851 106.313 67.414 106.296 67.3421 106.298C67.2653 106.295 67.189 106.312 67.1207 106.347C67.0587 106.379 67.0075 106.429 66.9732 106.49C66.9385 106.554 66.9215 106.627 66.924 106.701H66.6732C66.6726 106.588 66.703 106.477 66.7611 106.38C66.8192 106.283 66.9027 106.203 67.0027 106.15C67.106 106.096 67.224 106.067 67.3568 106.067C67.4798 106.067 67.588 106.096 67.6863 106.145C67.7847 106.194 67.8584 106.263 67.9125 106.352C67.9716 106.44 68.0011 106.539 68.0011 106.647V106.652C68.0011 106.731 67.9863 106.809 67.9568 106.878C67.9206 106.967 67.8708 107.05 67.8093 107.124C67.7453 107.213 67.647 107.321 67.5191 107.453L66.9781 108.004L67.047 107.886V108.004L66.983 107.96H68.0306V108.196H66.688ZM70.288 108.211C70.2388 108.211 70.1896 108.191 70.1552 108.157C70.1385 108.139 70.1256 108.118 70.1171 108.095C70.1087 108.073 70.1049 108.048 70.106 108.024C70.106 107.975 70.1207 107.926 70.1552 107.891C70.1725 107.874 70.1932 107.86 70.216 107.851C70.2388 107.841 70.2633 107.837 70.288 107.837C70.3371 107.837 70.3863 107.852 70.4207 107.886C70.4601 107.926 70.4748 107.97 70.4748 108.024C70.4748 108.073 70.4601 108.122 70.4257 108.157C70.4074 108.174 70.3857 108.187 70.362 108.196C70.3383 108.204 70.3131 108.208 70.288 108.206V108.211ZM72.0683 108.245C71.9207 108.245 71.783 108.201 71.6748 108.113C71.5597 108.011 71.4746 107.88 71.4289 107.734C71.3652 107.549 71.3336 107.354 71.3355 107.158C71.3355 106.932 71.365 106.74 71.424 106.578C71.483 106.416 71.5666 106.288 71.6748 106.199C71.783 106.111 71.9207 106.067 72.0683 106.067C72.2257 106.067 72.3535 106.116 72.4617 106.199C72.5748 106.288 72.6584 106.416 72.7175 106.578C72.7765 106.74 72.806 106.932 72.806 107.153C72.806 107.38 72.7765 107.572 72.7175 107.739C72.6584 107.901 72.5699 108.024 72.4666 108.113C72.3535 108.201 72.2207 108.245 72.0732 108.245H72.0683ZM72.0683 108.019C72.1157 108.02 72.1629 108.012 72.2069 107.994C72.251 107.976 72.2908 107.95 72.324 107.916C72.3978 107.842 72.4519 107.744 72.4863 107.616C72.5257 107.488 72.5453 107.335 72.5453 107.158C72.5453 106.976 72.5257 106.824 72.4863 106.696C72.4587 106.585 72.4028 106.484 72.324 106.401C72.2908 106.367 72.251 106.34 72.2069 106.323C72.1629 106.305 72.1157 106.296 72.0683 106.298C71.9699 106.298 71.8863 106.332 71.8175 106.401C71.7437 106.47 71.6896 106.568 71.6552 106.696C71.6158 106.824 71.5962 106.976 71.5962 107.153C71.5962 107.335 71.6158 107.488 71.6552 107.616C71.6896 107.744 71.7437 107.842 71.8175 107.911C71.8863 107.985 71.9699 108.019 72.0683 108.019ZM73.9273 108.245C73.7748 108.245 73.6421 108.201 73.5339 108.113C73.4171 108.012 73.3303 107.881 73.283 107.734C73.2211 107.548 73.1911 107.354 73.1945 107.158C73.1945 106.932 73.224 106.74 73.283 106.578C73.342 106.416 73.4257 106.288 73.5339 106.199C73.6421 106.111 73.7748 106.067 73.9273 106.067C74.0798 106.067 74.2125 106.116 74.3207 106.199C74.4339 106.288 74.5175 106.416 74.5765 106.578C74.6355 106.74 74.665 106.932 74.665 107.153C74.665 107.38 74.6355 107.572 74.5765 107.739C74.5286 107.884 74.4419 108.013 74.3257 108.113C74.2125 108.201 74.0798 108.245 73.9322 108.245H73.9273ZM73.9273 108.019C74.0257 108.019 74.1142 107.985 74.183 107.916C74.2568 107.842 74.3109 107.744 74.3453 107.616C74.3847 107.488 74.4043 107.335 74.4043 107.158C74.4043 106.976 74.3847 106.824 74.3453 106.696C74.3173 106.586 74.2614 106.484 74.183 106.401C74.1498 106.367 74.11 106.34 74.066 106.323C74.0219 106.305 73.9747 106.296 73.9273 106.298C73.8289 106.298 73.7453 106.332 73.6716 106.401C73.6027 106.47 73.5486 106.568 73.5142 106.696C73.4748 106.824 73.4552 106.976 73.4552 107.153C73.4552 107.335 73.4748 107.488 73.5142 107.616C73.5486 107.744 73.6027 107.842 73.6716 107.911C73.7453 107.985 73.8289 108.019 73.9273 108.019Z" fill="#B2B5BE"/>
<path fill-rule="evenodd" clip-rule="evenodd" d="M69.3929 39.3929C69.2404 39.3929 69.1076 39.3486 68.9994 39.2601C68.8832 39.1608 68.7965 39.0315 68.7486 38.8863C68.6861 38.6994 68.6561 38.5031 68.6601 38.306C68.6601 38.0797 68.6896 37.8879 68.7486 37.7256C68.8076 37.5634 68.8912 37.4355 68.9945 37.347C69.1076 37.2584 69.2404 37.2142 69.3929 37.2142C69.5453 37.2142 69.6781 37.2634 69.7863 37.347C69.8945 37.4355 69.983 37.5634 70.0421 37.7256C70.1011 37.8879 70.1306 38.0797 70.1306 38.3011C70.1306 38.5273 70.1011 38.7191 70.0421 38.8863C69.9928 39.032 69.9043 39.1614 69.7863 39.2601C69.6781 39.3486 69.5453 39.3929 69.3929 39.3929ZM69.5315 39.1417C69.4875 39.1595 69.4403 39.168 69.3929 39.1666C69.2945 39.1666 69.2109 39.1322 69.1371 39.0584C69.0683 38.9896 69.0142 38.8912 68.9748 38.7634C68.9404 38.6355 68.9207 38.483 68.9207 38.3011C68.9207 38.124 68.9404 37.9715 68.9748 37.8437C69.0142 37.7158 69.0683 37.6175 69.1371 37.5486C69.2109 37.4797 69.2945 37.4453 69.3929 37.4453C69.4403 37.444 69.4875 37.4525 69.5315 37.4702C69.5755 37.488 69.6154 37.5147 69.6486 37.5486C69.7272 37.6314 69.7831 37.733 69.8109 37.8437C69.8503 37.9715 69.8699 38.124 69.8699 38.306C69.8699 38.483 69.8503 38.6355 69.8109 38.7634C69.7716 38.8912 69.7175 38.9896 69.6486 39.0634C69.6154 39.0973 69.5755 39.1239 69.5315 39.1417Z" fill="#B2B5BE"/>
<path fill-rule="evenodd" clip-rule="evenodd" d="M69.2748 53.1633C69.1224 53.1633 68.9896 53.1191 68.8814 53.0306C68.7645 52.9299 68.6776 52.7988 68.6306 52.6519C68.5685 52.4665 68.5386 52.2719 68.5421 52.0765C68.5421 51.8502 68.5716 51.6584 68.6306 51.4961C68.6896 51.3338 68.7732 51.206 68.8765 51.1174C68.9896 51.0289 69.1224 50.9847 69.2748 50.9847C69.4273 50.9847 69.5601 51.0338 69.6683 51.1174C69.7814 51.206 69.865 51.3338 69.924 51.4961C69.983 51.6584 70.0125 51.8502 70.0125 52.0715C70.0125 52.2978 69.983 52.4896 69.9191 52.6568C69.865 52.8191 69.7814 52.942 69.6732 53.0306C69.5601 53.1191 69.4273 53.1633 69.2748 53.1633ZM69.4135 52.9122C69.3695 52.93 69.3223 52.9385 69.2748 52.9371C69.1765 52.9371 69.0929 52.9027 69.0191 52.8289C68.9503 52.7601 68.8962 52.6617 68.8568 52.5338C68.8224 52.406 68.8027 52.2535 68.8027 52.0715C68.8027 51.8945 68.8224 51.742 68.8568 51.6142C68.8962 51.4863 68.9503 51.3879 69.0191 51.3191C69.0929 51.2502 69.1765 51.2158 69.2748 51.2158C69.3223 51.2145 69.3695 51.2229 69.4135 51.2407C69.4575 51.2585 69.4974 51.2852 69.5306 51.3191C69.6093 51.4017 69.6652 51.5034 69.6929 51.6142C69.7322 51.742 69.7519 51.8945 69.7519 52.0765C69.7519 52.2535 69.7322 52.406 69.6929 52.5338C69.6535 52.6617 69.5994 52.7601 69.5306 52.8338C69.4974 52.8678 69.4575 52.8944 69.4135 52.9122Z" fill="#B2B5BE"/>
<path fill-rule="evenodd" clip-rule="evenodd" d="M69.3535 66.9338C69.2011 66.9338 69.0683 66.8896 68.9601 66.801C68.8431 66.7004 68.7563 66.5693 68.7093 66.4224C68.6473 66.237 68.6174 66.0424 68.6207 65.8469C68.6207 65.6207 68.6503 65.4289 68.7093 65.2666C68.7683 65.1043 68.847 64.9765 68.9552 64.8879C69.0683 64.7994 69.2011 64.7551 69.3486 64.7551C69.506 64.7551 69.6388 64.8043 69.747 64.8879C69.8552 64.9765 69.9437 65.1043 69.9978 65.2666C70.0568 65.4289 70.0912 65.6207 70.0912 65.842C70.0912 66.0683 70.0568 66.2601 69.9978 66.4273C69.9513 66.5719 69.8663 66.7011 69.7519 66.801C69.6388 66.8896 69.506 66.9338 69.3535 66.9338ZM69.4922 66.6827C69.4482 66.7005 69.401 66.7089 69.3535 66.7076C69.2552 66.7076 69.1666 66.6732 69.0978 66.5994C69.0289 66.5306 68.9748 66.4322 68.9355 66.3043C68.8962 66.1765 68.8814 66.024 68.8814 65.842C68.8814 65.665 68.8962 65.5125 68.9355 65.3847C68.9748 65.2568 69.0289 65.1584 69.0978 65.0896C69.1666 65.0207 69.2552 64.9863 69.3535 64.9863C69.401 64.9849 69.4482 64.9934 69.4922 65.0112C69.5362 65.029 69.5761 65.0557 69.6093 65.0896C69.6878 65.1724 69.7437 65.274 69.7716 65.3847C69.8109 65.5125 69.8306 65.665 69.8306 65.8469C69.8306 66.024 69.8109 66.1765 69.7716 66.3043C69.7322 66.4322 69.6781 66.5306 69.6093 66.6043C69.5761 66.6382 69.5362 66.6649 69.4922 66.6827Z" fill="#B2B5BE"/>
<path fill-rule="evenodd" clip-rule="evenodd" d="M69.1322 80.7043C68.9748 80.7043 68.847 80.6601 68.7388 80.5715C68.62 80.4715 68.5315 80.3404 68.483 80.1928C68.4227 80.0072 68.3945 79.8126 68.3994 79.6174C68.3994 79.3912 68.4289 79.1994 68.483 79.0371C68.5421 78.8748 68.6306 78.7469 68.7339 78.6584C68.847 78.5699 68.9798 78.5256 69.1273 78.5256C69.2847 78.5256 69.4175 78.5748 69.5207 78.6584C69.6339 78.7469 69.7175 78.8748 69.7765 79.0371C69.8355 79.1994 69.865 79.3912 69.865 79.6125C69.865 79.8387 69.8355 80.0306 69.7765 80.1978C69.7175 80.3601 69.6339 80.483 69.5257 80.5715C69.4175 80.6601 69.2798 80.7043 69.1322 80.7043ZM69.2709 80.4532C69.2269 80.471 69.1797 80.4794 69.1322 80.4781C69.0339 80.4781 68.9453 80.4437 68.8765 80.3699C68.8076 80.301 68.7535 80.2027 68.7142 80.0748C68.6748 79.9469 68.6601 79.7945 68.6601 79.6125C68.6601 79.4355 68.6748 79.283 68.7142 79.1551C68.7535 79.0273 68.8076 78.9289 68.8765 78.8601C68.9453 78.7912 69.0339 78.7568 69.1322 78.7568C69.1788 78.7561 69.2251 78.7649 69.2682 78.7827C69.3113 78.8004 69.3504 78.8268 69.383 78.8601C69.4636 78.9421 69.5212 79.0439 69.5503 79.1551C69.5847 79.283 69.6044 79.4355 69.6044 79.6174C69.6044 79.7945 69.5847 79.9469 69.5503 80.0748C69.5109 80.2027 69.4568 80.301 69.388 80.3748C69.3548 80.4087 69.3149 80.4354 69.2709 80.4532Z" fill="#B2B5BE"/>
<path fill-rule="evenodd" clip-rule="evenodd" d="M69.0142 94.4748C68.8617 94.4748 68.7289 94.4305 68.6207 94.342C68.5038 94.2414 68.417 94.1103 68.3699 93.9633C68.3079 93.778 68.2779 93.5834 68.2814 93.3879C68.2814 93.1617 68.3109 92.9699 68.3699 92.8076C68.4289 92.6453 68.5125 92.5174 68.6207 92.4289C68.7289 92.3404 68.8617 92.2961 69.0142 92.2961C69.1666 92.2961 69.2994 92.3453 69.4076 92.4289C69.5207 92.5174 69.6043 92.6453 69.6634 92.8076C69.7224 92.9699 69.7519 93.1617 69.7519 93.383C69.7519 93.6092 69.7224 93.801 69.6634 93.9683C69.6043 94.1305 69.5158 94.2535 69.4125 94.342C69.2994 94.4305 69.1666 94.4748 69.0191 94.4748H69.0142ZM69.2699 94.1453C69.2011 94.2141 69.1125 94.2486 69.0142 94.2486C68.9158 94.2486 68.8322 94.2141 68.7585 94.1404C68.6896 94.0715 68.6355 93.9732 68.6011 93.8453C68.5617 93.7174 68.5421 93.565 68.5421 93.383C68.5399 93.2285 68.5597 93.0745 68.6011 92.9256C68.6355 92.7978 68.6896 92.6994 68.7585 92.6305C68.7917 92.5966 68.8315 92.5699 68.8755 92.5522C68.9195 92.5344 68.9667 92.5259 69.0142 92.5273C69.0616 92.5259 69.1088 92.5344 69.1528 92.5522C69.1969 92.5699 69.2367 92.5966 69.2699 92.6305C69.3485 92.7133 69.4044 92.8149 69.4322 92.9256C69.4716 93.0535 69.4912 93.206 69.4912 93.3879C69.4912 93.565 69.4716 93.7174 69.4322 93.8453C69.3978 93.9732 69.3437 94.0715 69.2699 94.1453Z" fill="#B2B5BE"/>
<path fill-rule="evenodd" clip-rule="evenodd" d="M69.0683 108.245C68.9207 108.245 68.783 108.201 68.6748 108.113C68.5597 108.011 68.4746 107.88 68.4289 107.734C68.3652 107.549 68.3336 107.354 68.3355 107.158C68.3355 106.932 68.365 106.74 68.424 106.578C68.483 106.416 68.5666 106.288 68.6748 106.199C68.783 106.111 68.9207 106.067 69.0683 106.067C69.2257 106.067 69.3535 106.116 69.4617 106.199C69.5748 106.288 69.6584 106.416 69.7175 106.578C69.7765 106.74 69.806 106.932 69.806 107.153C69.806 107.38 69.7765 107.572 69.7175 107.739C69.6584 107.901 69.5699 108.024 69.4666 108.113C69.3535 108.201 69.2207 108.245 69.0732 108.245H69.0683ZM69.2069 107.994C69.1629 108.012 69.1157 108.02 69.0683 108.019C68.9699 108.019 68.8863 107.985 68.8175 107.911C68.7437 107.842 68.6896 107.744 68.6552 107.616C68.6158 107.488 68.5962 107.335 68.5962 107.153C68.5962 106.976 68.6158 106.824 68.6552 106.696C68.6896 106.568 68.7437 106.47 68.8175 106.401C68.8863 106.332 68.9699 106.298 69.0683 106.298C69.1157 106.296 69.1629 106.305 69.2069 106.323C69.251 106.34 69.2908 106.367 69.324 106.401C69.4028 106.484 69.4587 106.585 69.4863 106.696C69.5257 106.824 69.5453 106.976 69.5453 107.158C69.5453 107.335 69.5257 107.488 69.4863 107.616C69.4519 107.744 69.3978 107.842 69.324 107.916C69.2908 107.95 69.251 107.976 69.2069 107.994Z" fill="#B2B5BE"/>
<g filter="url(#filter1_d_32578_239413)">
<path d="M63.4648 35.4111H77.7271V40.5751H63.4648V35.4111Z" fill="#141414"/>
<path d="M66.5276 38.4117C66.3555 38.4117 66.203 38.3773 66.085 38.3134C65.9663 38.2542 65.8672 38.1619 65.7997 38.0478C65.7323 37.926 65.6983 37.7886 65.7014 37.6494V36.2822H65.9571V37.6298C65.9571 37.738 65.9768 37.8314 66.021 37.915C66.0702 37.9937 66.1341 38.0576 66.2178 38.1019C66.3014 38.1511 66.4046 38.1707 66.5276 38.1707C66.6456 38.1707 66.7489 38.1511 66.8325 38.1019C66.9161 38.0527 66.98 37.9937 67.0243 37.915C67.0686 37.8314 67.0882 37.738 67.0882 37.6298V36.2822H67.3489V37.6494C67.3489 37.797 67.3145 37.9298 67.2505 38.0429C67.1866 38.1609 67.0882 38.2494 66.9653 38.3134C66.8423 38.3773 66.6948 38.4117 66.5227 38.4117H66.5276ZM68.5587 38.4117C68.4063 38.4117 68.2735 38.3871 68.1604 38.3379C68.0473 38.2888 67.9587 38.2199 67.8948 38.1314C67.8288 38.0459 67.7879 37.9437 67.7768 37.8363V37.8166H68.0374V37.8314C68.0473 37.9052 68.0719 37.9642 68.1161 38.0134C68.1653 38.0625 68.2292 38.1019 68.303 38.1314C68.4719 38.1895 68.6554 38.1895 68.8243 38.1314C68.8923 38.1029 68.9516 38.0571 68.9964 37.9986C69.0375 37.9468 69.06 37.8827 69.0604 37.8166C69.0612 37.7748 69.0529 37.7333 69.0359 37.695C69.0189 37.6568 68.9936 37.6227 68.962 37.5953C68.8738 37.5242 68.7688 37.4767 68.6571 37.4576L68.426 37.4084C68.3054 37.3861 68.1891 37.3446 68.0817 37.2855C68.0019 37.2375 67.9358 37.1698 67.8899 37.0888C67.8483 37.0066 67.828 36.9153 67.8309 36.8232C67.8309 36.7052 67.8604 36.6068 67.9243 36.5183C67.9833 36.4298 68.0719 36.3609 68.1801 36.3117C68.2932 36.2625 68.4161 36.233 68.5587 36.233C68.7014 36.233 68.8194 36.2576 68.9276 36.3117C69.0358 36.3609 69.1194 36.4248 69.1833 36.5084C69.2473 36.5921 69.2817 36.6855 69.2866 36.7888V36.8084H69.0309V36.7888C69.0205 36.7283 68.9932 36.6721 68.9522 36.6265C68.9082 36.576 68.8524 36.5372 68.7899 36.5134C68.721 36.4839 68.6423 36.474 68.5538 36.474C68.4653 36.474 68.3915 36.4888 68.3227 36.5134C68.2575 36.5373 68.1998 36.578 68.1555 36.6314C68.1137 36.6828 68.0911 36.7471 68.0915 36.8134C68.0915 36.8724 68.1063 36.9216 68.1358 36.9609C68.1604 37.0101 68.2046 37.0445 68.2587 37.0789C68.3178 37.1084 68.3964 37.133 68.4899 37.1576L68.721 37.2068C68.8686 37.2412 68.9817 37.2806 69.0702 37.3347C69.152 37.3773 69.2202 37.442 69.2669 37.5216C69.3063 37.5904 69.326 37.6789 69.326 37.7773C69.326 37.9101 69.2964 38.0232 69.2276 38.1166C69.1686 38.2101 69.08 38.2839 68.962 38.333C68.8489 38.3822 68.7161 38.4117 68.5587 38.4117ZM69.7587 38.3625V36.2822H70.4719C70.6784 36.2822 70.8505 36.3265 70.9981 36.4052C71.1456 36.4888 71.2587 36.6068 71.3374 36.7642C71.4161 36.9166 71.4505 37.1035 71.4505 37.3199C71.4505 37.5412 71.4161 37.7281 71.3374 37.8855C71.2587 38.038 71.1456 38.156 70.9981 38.2396C70.8505 38.3232 70.6784 38.3625 70.4719 38.3625H69.7587ZM70.0194 38.1314H70.4522C70.6096 38.1314 70.7423 38.097 70.8505 38.033C70.9587 37.9691 71.0473 37.8806 71.1014 37.7576C71.1604 37.6396 71.185 37.497 71.185 37.3248C71.1902 37.1761 71.1616 37.0281 71.1014 36.8921C71.0488 36.7749 70.9612 36.6769 70.8505 36.6117C70.7374 36.5478 70.6046 36.5134 70.4571 36.5134H70.0145V38.1314H70.0194Z" fill="#B2B5BE"/>
<path d="M72.5508 37.1306L73.1655 37.6224L73.7803 37.1306" stroke="#B2B5BE" stroke-width="0.6"/>
</g>
<mask id="mask2_32578_239413" style="mask-type:luminance" maskUnits="userSpaceOnUse" x="1" y="64" width="61" height="2">
<path d="M1.47266 64.9185H61.7186V65.1644H1.47266V64.9185Z" fill="white"/>
</mask>
<g mask="url(#mask2_32578_239413)">
<path d="M-1.59766 65.0413H60.1236" stroke="#089981" stroke-width="0.5" stroke-dasharray="0.5 1"/>
</g>
<path d="M61.458 62.7581H74.7454C74.8809 62.7581 75.0109 62.8111 75.1067 62.9055C75.2026 62.9999 75.2564 63.1279 75.2564 63.2613V70.0549C75.2564 70.1884 75.2026 70.3164 75.1067 70.4107C75.0109 70.5051 74.8809 70.5581 74.7454 70.5581H61.458V62.7581Z" fill="#089981"/>
<path d="M62.8058 65.9011V65.724L63.5091 64.9617L63.7156 64.7256C63.7648 64.6617 63.7992 64.6027 63.8189 64.5535C63.8386 64.5043 63.8484 64.4453 63.8484 64.3863C63.8495 64.3176 63.8325 64.2497 63.7992 64.1896C63.7689 64.1321 63.7228 64.0843 63.6665 64.0519C63.6015 64.0171 63.5286 64.0002 63.455 64.0027C63.3798 64.0004 63.3054 64.0174 63.2386 64.0519C63.1766 64.0841 63.1253 64.1336 63.091 64.1945C63.0565 64.2595 63.0396 64.3324 63.0419 64.406H62.791C62.7899 64.2927 62.8201 64.1813 62.8782 64.0841C62.9364 63.9869 63.0202 63.9077 63.1206 63.8552C63.2238 63.8011 63.3419 63.7715 63.4747 63.7715C63.5976 63.7715 63.7058 63.8011 63.8042 63.8502C63.9025 63.8994 63.9763 63.9683 64.0304 64.0568C64.0894 64.1453 64.114 64.2437 64.114 64.3519V64.3568C64.114 64.4355 64.1042 64.5142 64.0747 64.583C64.0501 64.6568 64.0009 64.7404 63.9271 64.8289C63.8632 64.9175 63.7648 65.0256 63.6369 65.1584L63.096 65.7093L63.1648 65.5912V65.7093L63.1009 65.665H64.1484V65.9011H62.8058ZM65.2943 65.9355C65.1468 65.9355 65.0189 65.9109 64.9058 65.8568C64.7927 65.8076 64.7042 65.7388 64.6402 65.6502C64.5714 65.5568 64.5419 65.4535 64.5419 65.3404C64.5401 65.2573 64.5584 65.1751 64.5952 65.1006C64.632 65.0261 64.6863 64.9616 64.7533 64.9125C64.8222 64.8634 64.9009 64.824 64.9894 64.8043V64.7994C64.8763 64.765 64.7828 64.7011 64.7189 64.6224C64.6534 64.5419 64.6185 64.4409 64.6206 64.3371C64.6206 64.2289 64.6451 64.1355 64.7042 64.0519C64.7632 63.9732 64.8419 63.9043 64.9501 63.8552C65.0484 63.8109 65.1665 63.7863 65.2943 63.7863C65.4271 63.7863 65.5402 63.8109 65.6484 63.8601C65.7468 63.9093 65.8304 63.9732 65.8894 64.0568C65.9484 64.1355 65.9779 64.2289 65.9779 64.3322C65.9779 64.4453 65.9435 64.5437 65.8796 64.6273C65.8076 64.7115 65.7114 64.7716 65.6042 64.7994V64.8043C65.6872 64.822 65.7654 64.8576 65.8334 64.9085C65.9013 64.9595 65.9574 65.0246 65.9976 65.0994C66.032 65.1732 66.0468 65.247 66.0468 65.3355C66.0468 65.4535 66.0173 65.5568 65.9533 65.6502C65.8848 65.7416 65.7931 65.8129 65.6878 65.8568C65.5747 65.906 65.4419 65.9355 65.2943 65.9355ZM65.2943 65.7093C65.3927 65.7093 65.4763 65.6945 65.5501 65.6601C65.6184 65.6298 65.6777 65.5824 65.7222 65.5224C65.7638 65.4652 65.7861 65.3963 65.7861 65.3256V65.3207C65.7861 65.242 65.7665 65.1732 65.7222 65.1191C65.6783 65.0584 65.6189 65.0108 65.5501 64.9814C65.4763 64.947 65.3927 64.9322 65.2943 64.9322C65.196 64.9322 65.1124 64.947 65.0386 64.9814C64.97 65.0113 64.9107 65.0588 64.8665 65.1191C64.8255 65.1766 64.8032 65.2452 64.8025 65.3158V65.3207C64.8025 65.3994 64.8271 65.4683 64.8665 65.5224C64.9107 65.5814 64.9648 65.6256 65.0435 65.6601C65.1173 65.6945 65.2009 65.7093 65.2943 65.7093ZM65.2943 64.7011C65.3779 64.7011 65.4517 64.6863 65.5156 64.6568C65.5742 64.6309 65.6251 64.5902 65.6632 64.5388C65.7025 64.4847 65.7173 64.4256 65.7173 64.3568C65.7202 64.2925 65.703 64.2289 65.6681 64.1748C65.6305 64.1228 65.5795 64.082 65.5206 64.0568C65.4517 64.0273 65.3779 64.0076 65.2943 64.0076C65.2107 64.0076 65.137 64.0273 65.0779 64.0568C65.019 64.082 64.968 64.1228 64.9304 64.1748C64.891 64.224 64.8714 64.2879 64.8714 64.3568C64.8714 64.4256 64.891 64.4847 64.9255 64.5388C64.9648 64.5879 65.014 64.6273 65.073 64.6617C65.1369 64.6863 65.2107 64.7011 65.2943 64.7011ZM67.1632 65.9502C67.0156 65.9502 66.8828 65.906 66.7697 65.8174C66.6546 65.7162 66.5695 65.5852 66.5238 65.4388C66.4601 65.2537 66.4285 65.0591 66.4304 64.8633C66.4304 64.6371 66.4599 64.4453 66.5189 64.283C66.5779 64.1207 66.6665 63.9929 66.7697 63.9043C66.8828 63.8158 67.0156 63.7715 67.1632 63.7715C67.3205 63.7715 67.4533 63.8207 67.5566 63.9043C67.6697 63.9929 67.7533 64.1207 67.8124 64.283C67.8714 64.4453 67.9009 64.6371 67.9009 64.8584C67.9009 65.0847 67.8714 65.2765 67.8124 65.4437C67.7533 65.606 67.6697 65.7289 67.5615 65.8174C67.4533 65.906 67.3156 65.9502 67.1681 65.9502H67.1632ZM67.1632 65.724C67.2615 65.724 67.3501 65.6896 67.4238 65.6207C67.4927 65.547 67.5468 65.4486 67.5861 65.3207C67.6206 65.1929 67.6402 65.0404 67.6402 64.8633C67.6402 64.6814 67.6206 64.5289 67.5861 64.4011C67.5569 64.2899 67.4993 64.1882 67.4189 64.106C67.3863 64.0727 67.3472 64.0463 67.3041 64.0286C67.261 64.0108 67.2147 64.002 67.1681 64.0027C67.1207 64.0013 67.0734 64.0098 67.0294 64.0276C66.9854 64.0454 66.9456 64.0721 66.9124 64.106C66.8386 64.1748 66.7894 64.2732 66.7501 64.4011C66.7104 64.5502 66.6922 64.7042 66.696 64.8584C66.696 65.0404 66.7107 65.1929 66.7501 65.3207C66.7894 65.4486 66.8435 65.547 66.9124 65.6158C66.9812 65.6896 67.0648 65.724 67.1681 65.724H67.1632ZM70.2222 65.9158C70.173 65.9158 70.1238 65.8961 70.0894 65.8617C70.071 65.8448 70.0562 65.8243 70.0461 65.8015C70.0359 65.7786 70.0306 65.7539 70.0304 65.7289C70.0304 65.6797 70.0501 65.6306 70.0894 65.5961C70.1232 65.5619 70.1692 65.5425 70.2173 65.542C70.2714 65.542 70.3156 65.5568 70.355 65.5912C70.3894 65.6306 70.4042 65.6748 70.4042 65.7289C70.4042 65.7781 70.3894 65.8273 70.355 65.8617C70.3367 65.879 70.315 65.8923 70.2913 65.9007C70.2676 65.9092 70.2424 65.9127 70.2173 65.9109L70.2222 65.9158ZM71.4714 65.9502C71.3189 65.9502 71.1861 65.906 71.0779 65.8174C70.961 65.7168 70.8742 65.5857 70.8271 65.4388C70.7648 65.2535 70.7348 65.0588 70.7386 64.8633C70.7386 64.6371 70.7681 64.4453 70.8271 64.283C70.8812 64.1207 70.9648 63.9929 71.073 63.9043C71.1861 63.8158 71.3189 63.7715 71.4665 63.7715C71.6238 63.7715 71.7566 63.8207 71.8648 63.9043C71.973 63.9929 72.0615 64.1207 72.1156 64.283C72.1796 64.4453 72.2091 64.6371 72.2091 64.8584C72.2091 65.0847 72.1746 65.2765 72.1156 65.4437C72.0691 65.5883 71.9841 65.7175 71.8697 65.8174C71.7566 65.906 71.6238 65.9502 71.4714 65.9502ZM71.4714 65.724C71.5697 65.724 71.6533 65.6896 71.7271 65.6207C71.796 65.547 71.8501 65.4486 71.8894 65.3207C71.9287 65.1929 71.9435 65.0404 71.9435 64.8633C71.9435 64.6814 71.9287 64.5289 71.8894 64.4011C71.8616 64.2904 71.8057 64.1888 71.7271 64.106C71.6939 64.0721 71.654 64.0454 71.61 64.0276C71.566 64.0098 71.5188 64.0013 71.4714 64.0027C71.4239 64.0013 71.3767 64.0098 71.3327 64.0276C71.2887 64.0454 71.2488 64.0721 71.2156 64.106C71.1468 64.1748 71.0927 64.2732 71.0533 64.4011C71.0189 64.5289 70.9992 64.6814 70.9992 64.8584C70.9992 65.0404 71.014 65.1929 71.0533 65.3207C71.0927 65.4486 71.1468 65.547 71.2156 65.6158C71.2845 65.6896 71.373 65.724 71.4714 65.724ZM73.3304 65.9502C73.173 65.9502 73.0451 65.906 72.9369 65.8174C72.8182 65.7174 72.7296 65.5863 72.6812 65.4388C72.6208 65.2531 72.5925 65.0585 72.5976 64.8633C72.5976 64.6371 72.6271 64.4453 72.6812 64.283C72.7402 64.1207 72.8287 63.9929 72.9369 63.9043C73.0451 63.8158 73.173 63.7715 73.3304 63.7715C73.4828 63.7715 73.6156 63.8207 73.7238 63.9043C73.832 63.9929 73.9205 64.1207 73.9746 64.283C74.0337 64.4453 74.0632 64.6371 74.0632 64.8584C74.0632 65.0847 74.0337 65.2765 73.9746 65.4437C73.9156 65.606 73.832 65.7289 73.7238 65.8174C73.6156 65.906 73.4828 65.9502 73.3304 65.9502ZM73.3304 65.724C73.3778 65.7253 73.425 65.7169 73.469 65.6991C73.5131 65.6813 73.5529 65.6546 73.5861 65.6207C73.655 65.547 73.7091 65.4486 73.7484 65.3207C73.7828 65.1929 73.8025 65.0404 73.8025 64.8633C73.8025 64.6814 73.7878 64.5289 73.7484 64.4011C73.7208 64.2903 73.6649 64.1886 73.5861 64.106C73.5529 64.0721 73.5131 64.0454 73.469 64.0276C73.425 64.0098 73.3778 64.0013 73.3304 64.0027C73.2829 64.0013 73.2357 64.0098 73.1917 64.0276C73.1477 64.0454 73.1078 64.0721 73.0746 64.106C73.0058 64.1748 72.9517 64.2732 72.9123 64.4011C72.8779 64.5289 72.8582 64.6814 72.8582 64.8584C72.8582 65.0404 72.873 65.1929 72.9123 65.3207C72.9517 65.4486 73.0058 65.547 73.0746 65.6158C73.1435 65.6896 73.232 65.724 73.3304 65.724Z" fill="white"/>
<path fill-rule="evenodd" clip-rule="evenodd" d="M68.9632 65.9502C68.8156 65.9502 68.6828 65.906 68.5697 65.8174C68.4546 65.7162 68.3695 65.5852 68.3238 65.4388C68.2601 65.2537 68.2285 65.0591 68.2304 64.8633C68.2304 64.6371 68.2599 64.4453 68.3189 64.283C68.3779 64.1207 68.4664 63.9929 68.5697 63.9043C68.6828 63.8158 68.8156 63.7715 68.9632 63.7715C69.1205 63.7715 69.2533 63.8207 69.3566 63.9043C69.4697 63.9929 69.5533 64.1207 69.6124 64.283C69.6714 64.4453 69.7009 64.6371 69.7009 64.8584C69.7009 65.0847 69.6714 65.2765 69.6124 65.4437C69.5533 65.606 69.4697 65.7289 69.3615 65.8174C69.2533 65.906 69.1156 65.9502 68.9681 65.9502H68.9632ZM68.9632 65.724L68.9656 65.724C68.8635 65.7234 68.7806 65.689 68.7124 65.6158C68.6435 65.547 68.5894 65.4486 68.5501 65.3207C68.5107 65.1929 68.496 65.0404 68.496 64.8584C68.4922 64.7042 68.5104 64.5502 68.5501 64.4011C68.5894 64.2732 68.6386 64.1748 68.7124 64.106C68.7456 64.0721 68.7854 64.0454 68.8294 64.0276C68.8734 64.0098 68.9207 64.0013 68.9681 64.0027C69.0147 64.002 69.061 64.0108 69.1041 64.0286C69.1472 64.0463 69.1863 64.0727 69.2189 64.106C69.2993 64.1882 69.3569 64.2899 69.3861 64.4011C69.4205 64.5289 69.4402 64.6814 69.4402 64.8633C69.4402 65.0404 69.4205 65.1929 69.3861 65.3207C69.3468 65.4486 69.2927 65.547 69.2238 65.6207C69.1507 65.689 69.063 65.7234 68.9656 65.724L68.9681 65.724H68.9632Z" fill="white"/>
<path opacity="0.7" d="M64.2111 69.3445V69.1675L64.9143 68.4052L65.1209 68.1691C65.1701 68.1052 65.2045 68.0462 65.2242 67.997C65.2438 67.9478 65.2537 67.8888 65.2537 67.8298C65.2543 67.7611 65.2374 67.6934 65.2045 67.6331C65.1737 67.5758 65.1278 67.5282 65.0717 67.4954C65.0082 67.4615 64.9371 67.4445 64.8652 67.4462C64.7884 67.4431 64.7121 67.46 64.6438 67.4954C64.582 67.5278 64.5308 67.5773 64.4963 67.638C64.4618 67.703 64.4448 67.7759 64.4471 67.8495H64.1963C64.1957 67.7363 64.2261 67.6252 64.2842 67.5281C64.3423 67.431 64.4258 67.3516 64.5258 67.2986C64.6291 67.2445 64.7471 67.215 64.8799 67.215C65.0029 67.215 65.1111 67.2445 65.2045 67.2937C65.3029 67.3429 65.3815 67.4117 65.4356 67.5003C65.4947 67.5888 65.5193 67.6872 65.5193 67.7954V67.8003C65.5193 67.879 65.5094 67.9577 65.4799 68.0265C65.4504 68.1003 65.4061 68.1839 65.3324 68.2724C65.2684 68.3609 65.1701 68.4691 65.0422 68.6019L64.5012 69.1527L64.5701 69.0347V69.1527L64.5061 69.1085H65.5537V69.3445H64.2111ZM66.6701 67.215C66.7684 67.215 66.8619 67.2347 66.9504 67.2691C67.0488 67.3085 67.1275 67.3675 67.2061 67.4511C67.2799 67.5298 67.3389 67.638 67.3832 67.7708C67.4324 67.9036 67.452 68.0708 67.452 68.2626V68.2675C67.452 68.5036 67.4225 68.7101 67.3537 68.8773C67.2947 69.0445 67.2061 69.1724 67.0832 69.2609C66.9652 69.3495 66.8225 69.3937 66.6553 69.3937C66.5373 69.3937 66.434 69.374 66.3406 69.3298C66.2491 69.2889 66.1685 69.2271 66.1053 69.1494C66.042 69.0716 65.998 68.9801 65.9766 68.8822L65.9717 68.8626H66.2324V68.8773C66.257 68.9363 66.2865 68.9855 66.3307 69.0249C66.3652 69.074 66.4143 69.1036 66.4684 69.1232C66.5225 69.1478 66.5865 69.1626 66.6553 69.1626C66.7832 69.1626 66.8865 69.1232 66.9652 69.0544C67.0438 68.9757 67.1029 68.8822 67.1373 68.7593C67.1829 68.6162 67.2061 68.4669 67.2061 68.3167V68.2822L67.1422 67.938C67.1441 67.8527 67.1237 67.7685 67.0832 67.6935C67.0427 67.6185 66.9834 67.5553 66.9111 67.5101C66.8399 67.4671 66.7581 67.4449 66.675 67.4462C66.6126 67.4468 66.5509 67.4598 66.4935 67.4845C66.4362 67.5091 66.3843 67.5448 66.3408 67.5897C66.2974 67.6345 66.2632 67.6875 66.2404 67.7456C66.2176 67.8037 66.2065 67.8657 66.2078 67.9281C66.2057 68.0139 66.226 68.0986 66.2668 68.174C66.3064 68.2458 66.365 68.3053 66.4361 68.3461C66.5072 68.3868 66.5881 68.4073 66.6701 68.4052C66.7324 68.4079 66.7946 68.3978 66.8528 68.3753C66.911 68.3529 66.9639 68.3187 67.0083 68.2748C67.0526 68.2309 67.0874 68.1783 67.1104 68.1204C67.1335 68.0624 67.1443 68.0003 67.1422 67.938H67.2307V68.3117H67.1815C67.1532 68.3716 67.1131 68.4252 67.0635 68.4691C67.0143 68.5183 66.9504 68.5577 66.8766 68.5872C66.8029 68.6167 66.7193 68.6314 66.6258 68.6314C66.5062 68.6324 66.3884 68.6014 66.2847 68.5418C66.181 68.4821 66.095 68.3959 66.0356 68.2921C65.9734 68.1827 65.9411 68.0589 65.9422 67.9331C65.9422 67.7954 65.9717 67.6724 66.0406 67.5642C66.0996 67.456 66.1881 67.3675 66.2963 67.3085C66.4045 67.2445 66.5324 67.215 66.6701 67.215ZM68.0766 69.0495C68.0274 69.0495 67.9783 69.0298 67.9438 68.9954C67.9263 68.978 67.9125 68.9573 67.9032 68.9345C67.8939 68.9117 67.8893 68.8872 67.8897 68.8626C67.8897 68.8134 67.9045 68.7642 67.9389 68.7298C67.9568 68.7116 67.9783 68.6974 68.002 68.6881C68.0258 68.6788 68.0512 68.6746 68.0766 68.6757C68.1258 68.6757 68.175 68.6954 68.2094 68.7249C68.2438 68.7642 68.2586 68.8085 68.2586 68.8626C68.2586 68.9118 68.2438 68.9609 68.2094 68.9954C68.1917 69.012 68.1708 69.0249 68.148 69.0334C68.1252 69.0418 68.1009 69.0456 68.0766 69.0445V69.0495ZM68.0766 67.9331C68.0274 67.9331 67.9783 67.9183 67.9438 67.8839C67.9259 67.8658 67.9119 67.8443 67.9026 67.8206C67.8933 67.7969 67.8889 67.7716 67.8897 67.7462C67.8897 67.697 67.9045 67.6478 67.9389 67.6134C67.9568 67.5952 67.9783 67.581 68.002 67.5717C68.0258 67.5624 68.0512 67.5582 68.0766 67.5593C68.1258 67.5593 68.175 67.579 68.2094 67.6134C68.2438 67.6527 68.2586 67.697 68.2586 67.7462C68.2586 67.7949 68.2396 67.8417 68.2056 67.8766C68.1716 67.9115 68.1253 67.9318 68.0766 67.9331ZM69.6996 69.3445V68.9117H68.6816V68.6757L68.8537 68.3904C69.0841 68.0094 69.3236 67.6339 69.5717 67.2642H69.9504V68.6806H70.2455V68.9117H69.9504V69.3445H69.6947H69.6996ZM68.9471 68.6855H69.6947V67.5052H69.6799C69.5787 67.6541 69.4803 67.805 69.3848 67.9576L69.2373 68.1937L69.0897 68.4347L68.9471 68.6658V68.6806V68.6855ZM71.3815 69.3937C71.2807 69.3968 71.1804 69.3777 71.0878 69.3378C70.9952 69.2978 70.9124 69.238 70.8455 69.1626C70.7628 69.0683 70.7008 68.9577 70.6635 68.838C70.6193 68.7052 70.5996 68.5429 70.5996 68.3462V68.3413C70.5996 68.1052 70.6291 67.8986 70.693 67.7363C70.757 67.5691 70.8455 67.4413 70.9684 67.3527C71.0865 67.2593 71.2291 67.215 71.3963 67.215C71.5143 67.215 71.6176 67.2396 71.7111 67.2839C71.8024 67.3236 71.883 67.3844 71.9463 67.4614C72.0096 67.5383 72.0537 67.6292 72.075 67.7265V67.7462H71.8193L71.8143 67.7314C71.7947 67.6768 71.7641 67.6267 71.7244 67.5844C71.6846 67.5421 71.6365 67.5084 71.5832 67.4855C71.5238 67.4618 71.4603 67.45 71.3963 67.4511C71.2828 67.4451 71.1715 67.4839 71.0865 67.5593C71.0078 67.6331 70.9488 67.7314 70.9094 67.8544C70.8677 67.9949 70.8461 68.1406 70.8455 68.2872V68.3314L70.9094 68.6757C70.9094 68.7642 70.9291 68.8478 70.9684 68.9216C71.0098 68.9943 71.0691 69.0552 71.1406 69.0986C71.2094 69.1429 71.2881 69.1626 71.3766 69.1626C71.4597 69.164 71.5416 69.1428 71.6135 69.1012C71.6854 69.0596 71.7446 68.9992 71.7848 68.9265C71.828 68.8518 71.8501 68.7668 71.8488 68.6806C71.8494 68.5944 71.8273 68.5096 71.7848 68.4347C71.7472 68.365 71.6911 68.3071 71.6225 68.2675C71.548 68.2239 71.4629 68.2017 71.3766 68.2035C71.2938 68.2046 71.2126 68.2266 71.1406 68.2675C71.0692 68.3075 71.0099 68.3662 70.9692 68.4372C70.9285 68.5082 70.9079 68.5889 70.9094 68.6708H70.816V68.3019H70.8652C70.9294 68.1757 71.038 68.0777 71.1701 68.0265C71.2671 67.988 71.3718 67.9724 71.4758 67.9809C71.5799 67.9895 71.6806 68.0219 71.7701 68.0757C71.8734 68.1298 71.952 68.2134 72.016 68.3216C72.0701 68.4199 72.1045 68.5429 72.1045 68.6757C72.1045 68.8183 72.0701 68.9413 72.0061 69.0445C71.9422 69.1527 71.8586 69.2413 71.7504 69.3003C71.6422 69.3642 71.5143 69.3937 71.3766 69.3937H71.3815Z" fill="white"/>
<g clip-path="url(#clip0_32578_239413)">
<path d="M83 21.5714H79V15.2857H75V11.2857H83V21.5714ZM91 21.5714H86.4286L90.7143 11.2857H95.2857L91 21.5714Z" fill="white"/>
<path d="M86.4283 15.8571C87.6907 15.8571 88.714 14.8338 88.714 13.5714C88.714 12.3091 87.6907 11.2857 86.4283 11.2857C85.1659 11.2857 84.1426 12.3091 84.1426 13.5714C84.1426 14.8338 85.1659 15.8571 86.4283 15.8571Z" fill="white"/>
</g>
<g clip-path="url(#clip1_32578_239413)">
<path d="M104.31 21.5851H106.426V13.2966H109.193V11.2971H101.571V13.2971H104.31V21.5851ZM109.196 21.5851H111.181V18.1223C111.181 16.9194 111.804 16.1948 112.747 16.1948C113.079 16.1948 113.34 16.2526 113.644 16.3543V14.34C113.428 14.2774 113.203 14.2481 112.978 14.2531C112.167 14.2531 111.428 14.7891 111.181 15.4988V14.3406H109.196V21.5851ZM117.455 21.7446C118.455 21.7446 119.208 21.2371 119.542 20.7731V21.5846H121.527V14.3406H119.542V15.152C119.208 14.6886 118.455 14.1811 117.455 14.1811C115.528 14.1811 114.05 15.92 114.05 17.9628C114.05 20.0063 115.528 21.7451 117.455 21.7451L117.455 21.7446ZM117.875 19.9331C116.774 19.9331 116.049 19.1074 116.049 17.9628C116.049 16.8177 116.774 15.9914 117.875 15.9914C118.976 15.9914 119.701 16.8177 119.701 17.9628C119.701 19.1074 118.976 19.9331 117.875 19.9331ZM126.253 21.7446C127.253 21.7446 128.006 21.2371 128.339 20.7731V21.5846H130.324V10.7183H128.339V15.1526C128.006 14.6886 127.253 14.1811 126.253 14.1811C124.326 14.1811 122.847 15.92 122.847 17.9628C122.847 20.0063 124.326 21.7451 126.253 21.7451V21.7446ZM126.673 19.9331C125.572 19.9331 124.847 19.1074 124.847 17.9628C124.847 16.8177 125.572 15.9914 126.673 15.9914C127.774 15.9914 128.499 16.8177 128.499 17.9628C128.499 19.1074 127.774 19.9331 126.673 19.9331ZM133.095 13.2354C133.261 13.2368 133.427 13.2053 133.581 13.1427C133.735 13.08 133.876 12.9874 133.995 12.8703C134.113 12.7532 134.207 12.6137 134.272 12.4601C134.336 12.3064 134.37 12.1415 134.37 11.9748C134.37 11.8082 134.336 11.6433 134.272 11.4896C134.207 11.3359 134.113 11.1965 133.995 11.0794C133.876 10.9622 133.735 10.8697 133.581 10.807C133.427 10.7444 133.261 10.7128 133.095 10.7143C132.761 10.717 132.442 10.8506 132.206 11.0865C131.971 11.3223 131.837 11.6413 131.834 11.9748C131.837 12.3083 131.971 12.6274 132.206 12.8632C132.442 13.0991 132.761 13.2327 133.095 13.2354ZM132.11 21.5851H134.095V14.4228H132.11V21.5851ZM135.856 21.5851H137.841V18.0497C137.841 16.6583 138.522 15.992 139.45 15.992C140.275 15.992 140.725 16.6297 140.725 17.6726V21.5851H142.71V17.3394C142.71 15.456 141.667 14.1806 139.914 14.1806C138.971 14.1806 138.232 14.5863 137.841 15.1657V14.34H135.856V21.5851ZM147.762 19.6571C146.762 19.6571 145.922 18.9034 145.922 17.8023C145.922 16.6868 146.762 15.9474 147.762 15.9474C148.762 15.9474 149.602 16.6868 149.602 17.8023C149.602 18.9034 148.762 19.6571 147.762 19.6571ZM147.53 24.7143C149.747 24.7143 151.428 23.584 151.428 20.9754V14.296H149.443V15.1074C149.051 14.5428 148.268 14.1371 147.342 14.1371C145.443 14.1371 143.922 15.76 143.922 17.8028C143.922 19.8314 145.443 21.4543 147.342 21.4543C148.269 21.4543 149.051 21.0343 149.443 20.4983V20.9908C149.443 22.1503 148.675 22.976 147.501 22.976C146.69 22.976 145.878 22.7006 145.24 22.0777L144.154 23.5554C144.979 24.3526 146.269 24.7143 147.53 24.7143ZM155.625 21.5851H157.494L161.754 11.2971H159.436L156.567 18.4406L153.654 11.2971H151.379L155.625 21.5851ZM163.576 13.152C163.742 13.1533 163.908 13.1218 164.062 13.0591C164.216 12.9964 164.357 12.9038 164.475 12.7867C164.594 12.6695 164.688 12.5301 164.752 12.3765C164.817 12.2229 164.85 12.058 164.851 11.8914C164.85 11.7248 164.817 11.56 164.752 11.4063C164.688 11.2527 164.594 11.1133 164.475 10.9962C164.357 10.879 164.216 10.7864 164.062 10.7238C163.908 10.6611 163.742 10.6295 163.576 10.6308C162.895 10.6308 162.315 11.1954 162.315 11.8914C162.315 12.5868 162.895 13.152 163.576 13.152ZM162.59 21.5851H164.575V14.34H162.59V21.5851ZM169.713 21.7446C171.234 21.7446 172.394 21.1068 173.075 20.1217L171.596 19.0206C171.263 19.5274 170.64 19.9331 169.727 19.9331C168.771 19.9331 167.916 19.3971 167.8 18.4263H173.219C173.263 18.1217 173.248 17.9188 173.248 17.7451C173.248 15.3834 171.582 14.1806 169.684 14.1806C167.482 14.1806 165.873 15.8177 165.873 17.9623C165.873 20.252 167.554 21.7446 169.713 21.7446ZM167.872 17.0788C168.061 16.1948 168.887 15.8177 169.626 15.8177C170.365 15.8177 171.09 16.2091 171.263 17.0788H167.872ZM180.686 21.5851H182.656L185.047 14.34H182.917L181.555 18.9766L180.077 14.34H178.556L177.092 18.9766L175.716 14.34H173.6L176.006 21.5851H177.976L179.324 17.4697L180.686 21.5851Z" fill="white"/>
</g>
</g>
<defs>
<filter id="filter0_d_32578_239413" x="-31.5" y="-11.3439" width="142.688" height="163.344" filterUnits="userSpaceOnUse" color-interpolation-filters="sRGB">
<feFlood flood-opacity="0" result="BackgroundImageFix"/>
<feColorMatrix in="SourceAlpha" type="matrix" values="0 0 0 0 0 0 0 0 0 0 0 0 0 0 0 0 0 0 127 0" result="hardAlpha"/>
<feOffset/>
<feGaussianBlur stdDeviation="16"/>
<feComposite in2="hardAlpha" operator="out"/>
<feColorMatrix type="matrix" values="0 0 0 0 0 0 0 0 0 0 0 0 0 0 0 0 0 0 1 0"/>
<feBlend mode="normal" in2="BackgroundImageFix" result="effect1_dropShadow_32578_239413"/>
<feBlend mode="normal" in="SourceGraphic" in2="effect1_dropShadow_32578_239413" result="shape"/>
</filter>
<filter id="filter1_d_32578_239413" x="57.4648" y="32.9111" width="26.2627" height="17.1639" filterUnits="userSpaceOnUse" color-interpolation-filters="sRGB">
<feFlood flood-opacity="0" result="BackgroundImageFix"/>
<feColorMatrix in="SourceAlpha" type="matrix" values="0 0 0 0 0 0 0 0 0 0 0 0 0 0 0 0 0 0 127 0" result="hardAlpha"/>
<feOffset dy="3.5"/>
<feGaussianBlur stdDeviation="3"/>
<feComposite in2="hardAlpha" operator="out"/>
<feColorMatrix type="matrix" values="0 0 0 0 0.0784314 0 0 0 0 0.0784314 0 0 0 0 0.0784314 0 0 0 1 0"/>
<feBlend mode="normal" in2="BackgroundImageFix" result="effect1_dropShadow_32578_239413"/>
<feBlend mode="normal" in="SourceGraphic" in2="effect1_dropShadow_32578_239413" result="shape"/>
</filter>
<linearGradient id="paint0_linear_32578_239413" x1="132" y1="0" x2="132" y2="120.492" gradientUnits="userSpaceOnUse">
<stop stop-color="#3F3F3F"/>
<stop offset="0.32" stop-color="#2F2F2F"/>
<stop offset="1" stop-color="#0B0B0C" stop-opacity="0"/>
</linearGradient>
<linearGradient id="paint1_linear_32578_239413" x1="163.428" y1="44.7044" x2="159.923" y2="137.551" gradientUnits="userSpaceOnUse">
<stop stop-color="#37393E"/>
<stop offset="0.75" stop-opacity="0"/>
<stop offset="1" stop-opacity="0"/>
</linearGradient>
<linearGradient id="paint2_linear_32578_239413" x1="39.8442" y1="89.2628" x2="39.8442" y2="120" gradientUnits="userSpaceOnUse">
<stop stop-color="#141414"/>
<stop offset="1" stop-color="#141414" stop-opacity="0"/>
</linearGradient>
<clipPath id="clip0_32578_239413">
<rect width="20.5714" height="16" fill="white" transform="translate(75 9)"/>
</clipPath>
<clipPath id="clip1_32578_239413">
<rect width="84" height="16" fill="white" transform="translate(101.571 9)"/>
</clipPath>
</defs>
</svg>
