<svg width="10" height="10" viewBox="0 0 10 10" fill="none" xmlns="http://www.w3.org/2000/svg">
<path d="M2.90476 0.5C2.62862 0.5 2.40476 0.723858 2.40476 1C2.40476 1.27614 2.62862 1.5 2.90476 1.5V0.5ZM9 1H9.5C9.5 0.723858 9.27614 0.5 9 0.5V1ZM8.5 7.123C8.5 7.39914 8.72386 7.623 9 7.623C9.27614 7.623 9.5 7.39914 9.5 7.123H8.5ZM0.645644 8.64725C0.450826 8.84296 0.451546 9.15954 0.647251 9.35436C0.842956 9.54917 1.15954 9.54845 1.35436 9.35275L0.645644 8.64725ZM8.89683 1.77592C9.09165 1.58022 9.09093 1.26364 8.89522 1.06882C8.69952 0.874001 8.38293 0.87472 8.18812 1.07043L8.89683 1.77592ZM2.90476 1.5H9V0.5H2.90476V1.5ZM8.5 1V7.123H9.5V1H8.5ZM1.35436 9.35275L8.89683 1.77592L8.18812 1.07043L0.645644 8.64725L1.35436 9.35275Z" fill="#676561"/>
</svg>