<svg width="24" height="24" viewBox="0 0 24 24" fill="none" xmlns="http://www.w3.org/2000/svg">
<path fill-rule="evenodd" clip-rule="evenodd" d="M4.00085 7.49902C4.00085 5.01374 6.01557 2.99902 8.50085 2.99902H16.4993C17.88 2.99902 18.9993 4.11831 18.9993 5.49902V9.27742V9.50171V11.0554V12.5013C18.9993 13.3297 18.3278 14.0013 17.4993 14.0013H7.50053C6.12 14.0013 5.00085 15.1204 5.00085 16.5009C5.00085 17.8815 6.12 19.0006 7.50053 19.0006H10.5858C10.7918 18.4183 11.3472 18.0012 12.0001 18.0012C12.6529 18.0012 13.2084 18.4183 13.4144 19.0006H16.4993C17.191 19.0006 17.7733 18.5325 17.9467 17.8958C17.3919 17.6758 16.9995 17.1342 16.9995 16.5011C16.9995 15.6727 17.671 15.0012 18.4993 15.0012C19.3277 15.0012 19.9992 15.6727 19.9992 16.5011C19.9992 17.1572 19.5779 17.7149 18.991 17.9184C18.8918 19.0849 17.9135 20.0007 16.7214 20.0007H13.4999V20.0006H13.4147C13.2089 20.5834 12.6533 21.0009 12.0001 21.0009C11.3469 21.0009 10.7912 20.5834 10.5855 20.0006H10.5002V20.0007H7.00058C5.34388 20.0007 4.00085 18.6577 4.00085 17.001V16.5009V15.9448V11.4999V7.49902ZM17.9993 9.27742V9.50171V11.0554V12.5013C17.9993 12.7774 17.7755 13.0013 17.4993 13.0013H7.50053C6.52132 13.0013 5.63605 13.4034 5.00085 14.0516V11.4999V7.49902C5.00085 5.56603 6.56786 3.99902 8.50085 3.99902H16.4993C17.3278 3.99902 17.9993 4.6706 17.9993 5.49902V9.27742ZM9.50024 7.00244C9.2241 7.00244 9.00024 7.2263 9.00024 7.50244C9.00024 7.77858 9.2241 8.00244 9.50024 8.00244H13.9998C14.2759 8.00244 14.4998 7.77858 14.4998 7.50244C14.4998 7.2263 14.2759 7.00244 13.9998 7.00244H9.50024ZM18.4993 17.0009C18.7754 17.0009 18.9992 16.7771 18.9992 16.5011C18.9992 16.225 18.7754 16.0012 18.4993 16.0012C18.2233 16.0012 17.9995 16.225 17.9995 16.5011C17.9995 16.7771 18.2233 17.0009 18.4993 17.0009ZM12.4999 19.5011C12.4999 19.7771 12.2761 20.0009 12.0001 20.0009C11.724 20.0009 11.5002 19.7771 11.5002 19.5011C11.5002 19.225 11.724 19.0012 12.0001 19.0012C12.2761 19.0012 12.4999 19.225 12.4999 19.5011Z" fill="#A4A5A8"/>
</svg>
