<svg width="24" height="22" viewBox="0 0 24 22" fill="none" xmlns="http://www.w3.org/2000/svg">
<path fill-rule="evenodd" clip-rule="evenodd" d="M5.50879 1H19.5088C21.1656 1 22.5088 2.34315 22.5088 4V18C22.5088 19.6569 21.1656 21 19.5088 21H5.50879C3.85193 21 2.50879 19.6569 2.50879 18V13.9998C2.50294 13.9999 2.49708 14 2.49121 14H1.50879V18C1.50879 20.2091 3.29965 22 5.50879 22H19.5088C21.7179 22 23.5088 20.2091 23.5088 18V4C23.5088 1.79086 21.7179 0 19.5088 0H5.50879C3.29965 0 1.50879 1.79086 1.50879 4V8H2.49121C2.49708 8 2.50294 8.00005 2.50879 8.00015V4C2.50879 2.34315 3.85193 1 5.50879 1Z" fill="#A4A5A8"/>
<rect x="0.991211" y="8.5" width="2" height="5" rx="0.5" stroke="#A4A5A8"/>
<path fill-rule="evenodd" clip-rule="evenodd" d="M14.5089 11C14.5089 10.7139 14.4489 10.4418 14.3406 10.1957L16.0782 9.19254C16.3537 9.73541 16.5089 10.3496 16.5089 11C16.5089 11.6785 16.34 12.3175 16.0419 12.8773L14.3074 11.8759C14.4365 11.6114 14.5089 11.3142 14.5089 11ZM17.5089 11C17.5089 11.8607 17.2915 12.6705 16.9085 13.3777L18.2208 14.1353C18.46 14.2734 18.5419 14.5792 18.4038 14.8184C18.2658 15.0575 17.96 15.1394 17.7208 15.0014L16.3451 14.2071C15.5283 15.183 14.3461 15.8425 13.0089 15.9753V17.7832C13.0089 18.0593 12.7851 18.2832 12.5089 18.2832C12.2328 18.2832 12.0089 18.0593 12.0089 17.7832V15.9753C10.6717 15.8425 9.48953 15.183 8.67279 14.2071L7.29701 15.0014C7.05786 15.1394 6.75207 15.0575 6.61399 14.8184C6.47592 14.5792 6.55786 14.2734 6.79701 14.1353L8.10934 13.3777C7.72638 12.6705 7.50892 11.8607 7.50892 11C7.50892 10.1674 7.71242 9.38235 8.0724 8.69185L6.79696 7.95547C6.55781 7.8174 6.47587 7.51161 6.61395 7.27246C6.75202 7.03331 7.05781 6.95138 7.29696 7.08945L8.62208 7.85451C9.4402 6.84482 10.6438 6.16022 12.0089 6.02469V4.36328C12.0089 4.08714 12.2328 3.86328 12.5089 3.86328C12.7851 3.86328 13.0089 4.08714 13.0089 4.36328V6.02469C14.374 6.16022 15.5776 6.84482 16.3958 7.85451L17.7209 7.08945C17.96 6.95138 18.2658 7.03331 18.4039 7.27246C18.542 7.51161 18.46 7.8174 18.2209 7.95547L16.9454 8.69185C17.3054 9.38235 17.5089 10.1674 17.5089 11ZM8.97594 12.8773C8.67785 12.3175 8.50892 11.6785 8.50892 11C8.50892 10.3496 8.66416 9.73541 8.93961 9.19254L10.6772 10.1957C10.569 10.4418 10.5089 10.7139 10.5089 11C10.5089 11.3142 10.5814 11.6114 10.7104 11.8759L8.97594 12.8773ZM9.55535 13.6975C10.1809 14.3821 11.0412 14.8484 12.0089 14.9691V12.937C11.7788 12.8778 11.5646 12.7786 11.3744 12.6473L9.55535 13.6975ZM13.6435 12.6473L15.4625 13.6975C14.837 14.3821 13.9766 14.8484 13.0089 14.9691V12.937C13.2391 12.8778 13.4532 12.7786 13.6435 12.6473ZM13.5089 11C13.5089 10.7701 13.4313 10.5583 13.3009 10.3894C13.2743 10.3648 13.2501 10.3369 13.2289 10.306C13.047 10.1173 12.7917 10 12.5089 10C12.2262 10 11.9708 10.1173 11.789 10.306C11.7677 10.3369 11.7435 10.3648 11.7169 10.3894C11.5865 10.5583 11.5089 10.7701 11.5089 11C11.5089 11.5523 11.9566 12 12.5089 12C13.0612 12 13.5089 11.5523 13.5089 11ZM11.3045 9.4032C11.5116 9.24672 11.7501 9.12962 12.0089 9.06301V7.03095C11.0133 7.1551 10.1313 7.64518 9.50171 8.36236L11.3045 9.4032ZM15.5161 8.36236L13.7134 9.40319C13.5062 9.24672 13.2677 9.12962 13.0089 9.06301V7.03095C14.0046 7.1551 14.8866 7.64518 15.5161 8.36236Z" fill="#A4A5A8"/>
</svg>
