<svg width="24" height="24" viewBox="0 0 24 24" fill="none" xmlns="http://www.w3.org/2000/svg">
<path fill-rule="evenodd" clip-rule="evenodd" d="M4.75 9.875C4.75 10.1511 4.97386 10.375 5.25 10.375C5.52614 10.375 5.75 10.1511 5.75 9.875V9.13069L5.75 8.18446C5.75 6.36701 7.25922 4.875 9.14424 4.875L11.875 4.875C12.1511 4.875 12.375 4.65114 12.375 4.375C12.375 4.09886 12.1511 3.875 11.875 3.875H9.14424C6.7278 3.875 4.75 5.79409 4.75 8.18446L4.75 9.13069V9.875ZM16.7183 14.4183C16.765 14.4728 16.8311 14.5 16.9167 14.5H17.36C17.4378 14.5 17.5 14.4728 17.5467 14.4183C17.6011 14.3717 17.6283 14.3094 17.6283 14.2317V13.4267C18.165 13.38 18.6278 13.2594 19.0167 13.065C19.4133 12.8706 19.7167 12.61 19.9267 12.2833C20.1444 11.9489 20.2533 11.5639 20.2533 11.1283C20.2533 10.685 20.1561 10.3233 19.9617 10.0433C19.775 9.75556 19.4833 9.51833 19.0867 9.33167C18.69 9.13722 18.1806 8.95444 17.5583 8.78333C17.045 8.63555 16.6289 8.49555 16.31 8.36333C15.9911 8.23111 15.7578 8.07944 15.61 7.90833C15.4622 7.72944 15.3883 7.50778 15.3883 7.24333C15.3883 6.83111 15.5439 6.52778 15.855 6.33333C16.1739 6.13889 16.5861 6.04167 17.0917 6.04167C17.5894 6.04167 17.9939 6.15055 18.305 6.36833C18.6161 6.58611 18.795 6.85444 18.8417 7.17333C18.8728 7.25889 18.9156 7.31722 18.97 7.34833C19.0322 7.37944 19.0906 7.395 19.145 7.395H19.7633C19.8489 7.395 19.9111 7.37167 19.95 7.325C19.9889 7.27055 20.0083 7.21611 20.0083 7.16167C20.0006 6.88167 19.9072 6.59389 19.7283 6.29833C19.5494 6.00278 19.285 5.74222 18.935 5.51667C18.585 5.29111 18.1494 5.14722 17.6283 5.085V4.26833C17.6283 4.19055 17.6011 4.12833 17.5467 4.08167C17.5 4.02722 17.4378 4 17.36 4H16.9167C16.8311 4 16.765 4.02722 16.7183 4.08167C16.6717 4.12833 16.6483 4.19055 16.6483 4.26833V5.07333C15.8783 5.14333 15.2833 5.38444 14.8633 5.79667C14.4433 6.20111 14.2333 6.68722 14.2333 7.255C14.2333 7.69833 14.3228 8.06389 14.5017 8.35167C14.6883 8.63944 14.9683 8.88055 15.3417 9.075C15.715 9.26944 16.1856 9.44833 16.7533 9.61167C17.2978 9.76722 17.7411 9.91111 18.0833 10.0433C18.4256 10.1756 18.6783 10.3272 18.8417 10.4983C19.0128 10.6617 19.0983 10.8794 19.0983 11.1517C19.0983 11.5483 18.9389 11.8672 18.62 12.1083C18.3089 12.3417 17.8189 12.4583 17.15 12.4583C16.7144 12.4583 16.3567 12.4 16.0767 12.2833C15.8044 12.1589 15.5944 12.0072 15.4467 11.8283C15.2989 11.6417 15.2017 11.455 15.155 11.2683C15.1394 11.2061 15.1083 11.1517 15.0617 11.105C15.015 11.0583 14.9489 11.035 14.8633 11.035H14.2567C14.1867 11.035 14.1244 11.0622 14.07 11.1167C14.0233 11.1633 14 11.2178 14 11.28C14.0156 11.6222 14.1244 11.945 14.3267 12.2483C14.5289 12.5517 14.8244 12.8122 15.2133 13.03C15.6022 13.24 16.0806 13.3683 16.6483 13.415V14.2317C16.6483 14.3094 16.6717 14.3717 16.7183 14.4183ZM21 14.125C21.2761 14.125 21.5 14.3489 21.5 14.625V15.2203V16.3155C21.5 18.7059 19.5222 20.625 17.1058 20.625L14.375 20.625C14.0989 20.625 13.875 20.4011 13.875 20.125C13.875 19.8489 14.0989 19.625 14.375 19.625L17.1058 19.625C18.9908 19.625 20.5 18.133 20.5 16.3155V15.2203V14.625C20.5 14.3489 20.7239 14.125 21 14.125ZM3.5 14.5C3.5 13.9477 3.94772 13.5 4.5 13.5C5.05228 13.5 5.5 13.9477 5.5 14.5C5.5 15.0523 5.05228 15.5 4.5 15.5C3.94772 15.5 3.5 15.0523 3.5 14.5ZM4.5 12.5C3.39543 12.5 2.5 13.3954 2.5 14.5C2.5 15.6046 3.39543 16.5 4.5 16.5C5.60457 16.5 6.5 15.6046 6.5 14.5C6.5 13.3954 5.60457 12.5 4.5 12.5ZM9.5 18.5C8.94772 18.5 8.5 18.9477 8.5 19.5C8.5 20.0523 8.94772 20.5 9.5 20.5C10.0523 20.5 10.5 20.0523 10.5 19.5C10.5 18.9477 10.0523 18.5 9.5 18.5ZM7.5 19.5C7.5 18.3954 8.39543 17.5 9.5 17.5C10.6046 17.5 11.5 18.3954 11.5 19.5C11.5 20.6046 10.6046 21.5 9.5 21.5C8.39543 21.5 7.5 20.6046 7.5 19.5ZM10.3536 14.3536C10.5488 14.1583 10.5488 13.8417 10.3536 13.6464C10.1583 13.4512 9.84171 13.4512 9.64645 13.6464L3.64645 19.6464C3.45118 19.8417 3.45118 20.1583 3.64645 20.3536C3.84171 20.5488 4.15829 20.5488 4.35355 20.3536L10.3536 14.3536Z" fill="#A4A5A8"/>
</svg>
