<svg width="24" height="24" viewBox="0 0 24 24" fill="none" xmlns="http://www.w3.org/2000/svg">
<path fill-rule="evenodd" clip-rule="evenodd" d="M15.7486 3.5C17.179 3.5 18.3796 4.00963 19.22 4.9112C20.0568 5.80888 20.5 7.0551 20.5 8.46813V15.5319C20.5 16.9443 20.0591 18.1906 19.2231 19.0886C18.3833 19.9906 17.1825 20.5 15.7486 20.5H8.25143C6.81746 20.5 5.61668 19.9906 4.7769 19.0886C3.94089 18.1906 3.5 16.9443 3.5 15.5319V8.46813C3.5 7.05571 3.94089 5.80941 4.7769 4.91144C5.61668 4.00943 6.81746 3.5 8.25143 3.5H15.7486ZM19.5 8.46813C19.5 7.2627 19.1241 6.27485 18.4886 5.59308C17.8566 4.91521 16.9314 4.5 15.7486 4.5H8.25143C7.06444 4.5 6.13951 4.91541 5.50881 5.59284C4.87435 6.27432 4.5 7.26209 4.5 8.46813V15.5319C4.5 16.7379 4.87435 17.7257 5.50881 18.4072C6.13951 19.0846 7.06444 19.5 8.25143 19.5H15.7486C16.9356 19.5 17.8605 19.0846 18.4912 18.4072C19.1256 17.7257 19.5 16.7379 19.5 15.5319V8.46813ZM17.37 9.33634C17.5557 9.13201 17.5407 8.81578 17.3363 8.63003C17.132 8.44428 16.8158 8.45933 16.63 8.66366L13.2964 12.3307L10.932 10.5968C10.7257 10.4455 10.4385 10.4744 10.2664 10.6637L6.63003 14.6637C6.44428 14.868 6.45933 15.1842 6.66366 15.37C6.86799 15.5557 7.18422 15.5407 7.36997 15.3363L10.7036 11.6693L13.068 13.4032C13.2743 13.5545 13.5615 13.5256 13.7336 13.3363L17.37 9.33634Z" fill="#A4A5A8"/>
</svg>
