<svg width="24" height="24" viewBox="0 0 24 24" fill="none" xmlns="http://www.w3.org/2000/svg">
<path d="M3 13L2.51191 12.8915C2.50399 12.9271 2.5 12.9635 2.5 13H3ZM21 13H21.5C21.5 12.9635 21.496 12.9271 21.4881 12.8915L21 13ZM7 6.5C6.72386 6.5 6.5 6.72386 6.5 7C6.5 7.27614 6.72386 7.5 7 7.5V6.5ZM17 7.5C17.2761 7.5 17.5 7.27614 17.5 7C17.5 6.72386 17.2761 6.5 17 6.5V7.5ZM6.5 9.5C6.22386 9.5 6 9.72386 6 10C6 10.2761 6.22386 10.5 6.5 10.5V9.5ZM17.5 10.5C17.7761 10.5 18 10.2761 18 10C18 9.72386 17.7761 9.5 17.5 9.5V10.5ZM19.174 4.78307L18.6859 4.89153L19.174 4.78307ZM4.82598 4.78307L4.33789 4.6746L4.82598 4.78307ZM3 13.5H8V12.5H3V13.5ZM8.5 14V15H9.5V14H8.5ZM10 16.5H14V15.5H10V16.5ZM15.5 15V14H14.5V15H15.5ZM16 13.5H21V12.5H16V13.5ZM3.48809 13.1085L5.31408 4.89154L4.33789 4.6746L2.51191 12.8915L3.48809 13.1085ZM5.80217 4.5H18.1978V3.5H5.80217V4.5ZM18.6859 4.89153L20.5119 13.1085L21.4881 12.8915L19.6621 4.6746L18.6859 4.89153ZM20.5 13V19H21.5V13H20.5ZM20 19.5H4V20.5H20V19.5ZM3.5 19V13H2.5V19H3.5ZM7 7.5H17V6.5H7V7.5ZM6.5 10.5H17.5V9.5H6.5V10.5ZM4 19.5C3.72386 19.5 3.5 19.2761 3.5 19H2.5C2.5 19.8284 3.17157 20.5 4 20.5V19.5ZM20.5 19C20.5 19.2761 20.2761 19.5 20 19.5V20.5C20.8284 20.5 21.5 19.8284 21.5 19H20.5ZM18.1978 4.5C18.4322 4.5 18.6351 4.66277 18.6859 4.89153L19.6621 4.6746C19.5096 3.9883 18.9009 3.5 18.1978 3.5V4.5ZM15.5 14C15.5 13.7239 15.7239 13.5 16 13.5V12.5C15.1716 12.5 14.5 13.1716 14.5 14H15.5ZM14 16.5C14.8284 16.5 15.5 15.8284 15.5 15H14.5C14.5 15.2761 14.2761 15.5 14 15.5V16.5ZM8.5 15C8.5 15.8284 9.17157 16.5 10 16.5V15.5C9.72386 15.5 9.5 15.2761 9.5 15H8.5ZM5.31408 4.89154C5.36492 4.66277 5.56782 4.5 5.80217 4.5V3.5C5.09912 3.5 4.4904 3.9883 4.33789 4.6746L5.31408 4.89154ZM8 13.5C8.27614 13.5 8.5 13.7239 8.5 14H9.5C9.5 13.1716 8.82843 12.5 8 12.5V13.5Z" fill="#A4A5A8"/>
</svg>
