<svg width="18" height="15" viewBox="0 0 18 15" fill="none" xmlns="http://www.w3.org/2000/svg">
<path d="M15.5 3C15.5 2.72386 15.2761 2.5 15 2.5C14.7239 2.5 14.5 2.72386 14.5 3H15.5ZM14.5 7C14.5 7.27614 14.7239 7.5 15 7.5C15.2761 7.5 15.5 7.27614 15.5 7H14.5ZM13 4.5C12.7239 4.5 12.5 4.72386 12.5 5C12.5 5.27614 12.7239 5.5 13 5.5V4.5ZM17 5.5C17.2761 5.5 17.5 5.27614 17.5 5C17.5 4.72386 17.2761 4.5 17 4.5V5.5ZM4.25 9.625H10.75V8.625H4.25V9.625ZM12.375 13.5H2.625V14.5H12.375V13.5ZM2.625 13.5C2.00368 13.5 1.5 12.9963 1.5 12.375H0.5C0.5 13.5486 1.45139 14.5 2.625 14.5V13.5ZM13.5 12.375C13.5 12.9963 12.9963 13.5 12.375 13.5V14.5C13.5486 14.5 14.5 13.5486 14.5 12.375H13.5ZM10.75 9.625C12.2688 9.625 13.5 10.8562 13.5 12.375H14.5C14.5 10.3039 12.8211 8.625 10.75 8.625V9.625ZM4.25 8.625C2.17893 8.625 0.5 10.3039 0.5 12.375H1.5C1.5 10.8562 2.73122 9.625 4.25 9.625V8.625ZM9.4375 3.4375C9.4375 4.50755 8.57005 5.375 7.5 5.375V6.375C9.12234 6.375 10.4375 5.05984 10.4375 3.4375H9.4375ZM7.5 5.375C6.42995 5.375 5.5625 4.50755 5.5625 3.4375H4.5625C4.5625 5.05984 5.87766 6.375 7.5 6.375V5.375ZM5.5625 3.4375C5.5625 2.36745 6.42995 1.5 7.5 1.5V0.5C5.87766 0.5 4.5625 1.81516 4.5625 3.4375H5.5625ZM7.5 1.5C8.57005 1.5 9.4375 2.36745 9.4375 3.4375H10.4375C10.4375 1.81516 9.12234 0.5 7.5 0.5V1.5ZM14.5 3V5H15.5V3H14.5ZM14.5 5V7H15.5V5H14.5ZM13 5.5H15V4.5H13V5.5ZM15 5.5H17V4.5H15V5.5Z" fill="#676561"/>
</svg>
