<svg width="24" height="24" viewBox="0 0 24 24" fill="none" xmlns="http://www.w3.org/2000/svg">
<path fill-rule="evenodd" clip-rule="evenodd" d="M9.10355 2.89645C8.90829 2.70118 8.59171 2.70118 8.39645 2.89645C8.20118 3.09171 8.20118 3.40829 8.39645 3.60355L9.04289 4.25H8.25C7.18913 4.25 6.17172 4.67143 5.42157 5.42157C4.67143 6.17172 4.25 7.18913 4.25 8.25V10C4.25 10.2761 4.47386 10.5 4.75 10.5C5.02614 10.5 5.25 10.2761 5.25 10V8.25C5.25 7.45435 5.56607 6.69129 6.12868 6.12868C6.69129 5.56607 7.45435 5.25 8.25 5.25H9.04289L8.39645 5.89645C8.20118 6.09171 8.20118 6.40829 8.39645 6.60355C8.59171 6.79882 8.90829 6.79882 9.10355 6.60355L10.4268 5.28033C10.7197 4.98744 10.7197 4.51256 10.4268 4.21967L9.10355 2.89645Z" fill="#A4A5A8"/>
<path fill-rule="evenodd" clip-rule="evenodd" d="M15.1464 21.8536C15.3417 22.0488 15.6583 22.0488 15.8536 21.8536C16.0488 21.6583 16.0488 21.3417 15.8536 21.1464L15.2071 20.5H16C17.0609 20.5 18.0783 20.0786 18.8284 19.3284C19.5786 18.5783 20 17.5609 20 16.5V14.75C20 14.4739 19.7761 14.25 19.5 14.25C19.2239 14.25 19 14.4739 19 14.75V16.5C19 17.2956 18.6839 18.0587 18.1213 18.6213C17.5587 19.1839 16.7956 19.5 16 19.5H15.2071L15.8536 18.8536C16.0488 18.6583 16.0488 18.3417 15.8536 18.1464C15.6583 17.9512 15.3417 17.9512 15.1464 18.1464L13.8232 19.4697C13.5303 19.7626 13.5303 20.2374 13.8232 20.5303L15.1464 21.8536Z" fill="#A4A5A8"/>
<path fill-rule="evenodd" clip-rule="evenodd" d="M15.7253 5.36846C15.0232 5.19281 14.2866 5.2112 13.5941 5.42167C12.9017 5.63214 12.2794 6.02679 11.7938 6.56345C11.3082 7.10011 10.9776 7.7586 10.8372 8.46859C10.7836 8.73948 10.5206 8.91566 10.2497 8.86209C9.97878 8.80852 9.80261 8.54548 9.85618 8.27459C10.0317 7.38686 10.4452 6.56351 11.0523 5.89251C11.6595 5.2215 12.4375 4.72806 13.3033 4.46489C14.1691 4.20173 15.0901 4.17873 15.968 4.39836C16.8458 4.618 17.6475 5.072 18.2874 5.71187C18.9273 6.35175 19.3813 7.15344 19.6009 8.0313C19.8206 8.90915 19.7976 9.83019 19.5344 10.696C19.2712 11.5618 18.7778 12.3398 18.1068 12.947C17.4358 13.5541 16.6124 13.9676 15.7247 14.1431C15.4538 14.1967 15.1908 14.0205 15.1372 13.7496C15.0836 13.4787 15.2598 13.2157 15.5307 13.1621C16.2407 13.0217 16.8992 12.691 17.4358 12.2055C17.9725 11.7199 18.3671 11.0976 18.5776 10.4052C18.7881 9.71272 18.8065 8.9761 18.6308 8.27401C18.4552 7.57192 18.0921 6.93074 17.5803 6.41898C17.0685 5.90723 16.4274 5.54412 15.7253 5.36846ZM9.25 18.75C11.4591 18.75 13.25 16.9591 13.25 14.75C13.25 12.5409 11.4591 10.75 9.25 10.75C7.04086 10.75 5.25 12.5409 5.25 14.75C5.25 16.9591 7.04086 18.75 9.25 18.75ZM14.25 14.75C14.25 17.5114 12.0114 19.75 9.25 19.75C6.48858 19.75 4.25 17.5114 4.25 14.75C4.25 11.9886 6.48858 9.75 9.25 9.75C12.0114 9.75 14.25 11.9886 14.25 14.75ZM10.6642 14.7499C10.0881 14.478 9.50799 13.9224 9.25 13.3357C8.99627 13.9576 8.43204 14.4628 7.83579 14.7499C8.43016 14.9971 9.03374 15.5471 9.25 16.1641C9.55118 15.5593 10.0628 15.0553 10.6642 14.7499Z" fill="#A4A5A8"/>
</svg>
