<svg width="24" height="24" viewBox="0 0 24 24" fill="none" xmlns="http://www.w3.org/2000/svg">
<mask id="path-1-inside-1_52368_151844" fill="white">
<path fill-rule="evenodd" clip-rule="evenodd" d="M15.9852 14.7556C17.807 13.4918 19 11.3852 19 9C19 5.13401 15.866 2 12 2C8.13401 2 5 5.13401 5 9C5 11.3852 6.19297 13.4918 8.01479 14.7556C8.00503 14.8357 8 14.9173 8 15V16C8 17.1046 8.89543 18 10 18H14C15.1046 18 16 17.1046 16 16V15C16 14.9173 15.995 14.8357 15.9852 14.7556Z"/>
</mask>
<path d="M15.9852 14.7556L15.4152 13.9339L14.9196 14.2778L14.9926 14.8765L15.9852 14.7556ZM8.01479 14.7556L9.00744 14.8765L9.0804 14.2778L8.58478 13.9339L8.01479 14.7556ZM18 9C18 11.0436 16.9792 12.849 15.4152 13.9339L16.5552 15.5772C18.6348 14.1346 20 11.7268 20 9H18ZM12 3C15.3137 3 18 5.68629 18 9H20C20 4.58172 16.4183 1 12 1V3ZM6 9C6 5.68629 8.68629 3 12 3V1C7.58172 1 4 4.58172 4 9H6ZM8.58478 13.9339C7.02076 12.849 6 11.0436 6 9H4C4 11.7268 5.36517 14.1346 7.4448 15.5772L8.58478 13.9339ZM9 15C9 14.9578 9.00256 14.9166 9.00744 14.8765L7.02213 14.6346C7.00749 14.7548 7 14.8767 7 15H9ZM9 16V15H7V16H9ZM10 17C9.44772 17 9 16.5523 9 16H7C7 17.6569 8.34315 19 10 19V17ZM14 17H10V19H14V17ZM15 16C15 16.5523 14.5523 17 14 17V19C15.6569 19 17 17.6569 17 16H15ZM15 15V16H17V15H15ZM14.9926 14.8765C14.9974 14.9166 15 14.9578 15 15H17C17 14.8767 16.9925 14.7548 16.9779 14.6346L14.9926 14.8765Z" fill="#A4A5A8" mask="url(#path-1-inside-1_52368_151844)"/>
<path d="M10 20H14" stroke="#A4A5A8" stroke-linecap="round"/>
<path d="M11 22H13" stroke="#A4A5A8" stroke-linecap="round"/>
</svg>
