<?xml version="1.0" standalone="no"?>
<!DOCTYPE svg PUBLIC "-//W3C//DTD SVG 20010904//EN"
 "http://www.w3.org/TR/2001/REC-SVG-20010904/DTD/svg10.dtd">
<svg version="1.0" xmlns="http://www.w3.org/2000/svg"
 width="700.000000pt" height="700.000000pt" viewBox="0 0 700.000000 700.000000"
 preserveAspectRatio="xMidYMid meet">
<metadata>
Created by potrace 1.11, written by Peter Selinger 2001-2013
</metadata>
<g transform="translate(0.000000,700.000000) scale(0.100000,-0.100000)"
fill="#000000" stroke="none">
<path d="M4836 5618 c-8 -18 -75 -184 -151 -368 -75 -184 -143 -348 -150 -365
-8 -16 -35 -82 -60 -145 -26 -63 -53 -128 -60 -145 -8 -16 -71 -169 -140 -340
-70 -170 -133 -323 -141 -340 -7 -16 -38 -91 -68 -165 -30 -74 -113 -278 -186
-454 -72 -175 -130 -319 -128 -321 9 -8 158 -57 215 -70 417 -97 827 -13 1186
243 42 30 77 59 77 64 0 4 4 8 9 8 5 0 45 36 88 80 182 189 311 423 373 680
29 120 35 177 35 325 -1 161 -3 187 -27 304 -45 214 -146 432 -279 601 -136
174 -337 334 -522 415 l-58 25 -13 -32z"/>
<path d="M2807 5340 c-232 -39 -457 -177 -598 -367 -44 -59 -109 -174 -109
-192 0 -7 17 -19 38 -28 20 -8 55 -23 77 -33 46 -20 389 -163 605 -252 80 -32
159 -65 175 -72 78 -36 828 -346 830 -344 4 5 43 132 49 159 91 419 -119 851
-510 1046 -66 34 -169 66 -258 82 -68 12 -227 13 -299 1z"/>
<path d="M2228 4205 c-1 -1 -25 -6 -53 -9 -199 -26 -426 -140 -588 -295 -135
-129 -255 -341 -297 -526 -7 -27 -14 -59 -17 -70 -2 -11 -6 -78 -8 -150 -4
-175 21 -313 84 -460 24 -58 88 -175 100 -185 4 -3 15 -18 25 -34 31 -49 157
-175 226 -226 36 -26 101 -67 144 -90 l80 -42 17 39 c40 89 59 132 59 138 0 4
7 21 14 38 17 37 238 571 302 732 25 61 49 119 54 130 10 23 33 78 235 569
118 286 145 360 134 367 -25 16 -143 49 -224 63 -70 12 -277 20 -287 11z"/>
<path d="M2665 3013 c-102 -241 -103 -586 -4 -855 43 -119 114 -246 188 -342
42 -54 193 -197 252 -239 143 -101 334 -180 514 -211 80 -14 311 -15 385 -1
19 3 46 8 60 10 14 3 70 19 125 36 217 69 412 204 581 400 35 40 110 160 143
229 29 59 30 65 14 74 -19 11 -130 58 -413 175 -96 40 -188 79 -205 86 -16 7
-68 29 -115 48 -84 35 -462 192 -695 289 -66 27 -136 57 -155 65 -19 8 -44 19
-55 23 -79 32 -409 170 -592 247 -7 3 -19 -11 -28 -34z"/>
</g>
</svg>
