<svg width="304" height="204" viewBox="0 0 304 204" fill="none" xmlns="http://www.w3.org/2000/svg">
<g opacity="0.5" filter="url(#filter0_f_1_2)">
<path d="M78.8276 109.066L99.5776 73.1264H141.078L161.828 109.066L141.078 145.006H99.5776L78.8276 109.066Z" fill="url(#paint0_linear_1_2)"/>
</g>
<circle cx="207.828" cy="129.567" r="31" stroke="white" stroke-opacity="0.08"/>
<circle cx="207.828" cy="129.566" r="16" stroke="white" stroke-opacity="0.08"/>
<circle cx="207.828" cy="129.567" r="46" stroke="white" stroke-opacity="0.08"/>
<circle cx="152.828" cy="106.566" r="50" fill="white" fill-opacity="0.06"/>
<circle cx="152.828" cy="106.566" r="50" stroke="url(#paint1_linear_1_2)" stroke-linecap="round" stroke-dasharray="4 4"/>
<circle cx="152.828" cy="106.566" r="50" stroke="white" stroke-opacity="0.8" stroke-linecap="round" stroke-dasharray="4 4"/>
<path d="M109.982 108.566C109.268 107.329 109.268 105.804 109.982 104.566L129.673 70.4613C130.387 69.2237 131.708 68.4613 133.137 68.4613H172.518C173.947 68.4613 175.268 69.2237 175.982 70.4613L195.673 104.566C196.387 105.804 196.387 107.329 195.673 108.566L175.982 142.672C175.268 143.909 173.947 144.672 172.518 144.672H133.137C131.708 144.672 130.387 143.909 129.673 142.672L109.982 108.566Z" fill="white"/>
<path d="M119.982 108.566C119.268 107.329 119.268 105.804 119.982 104.566L134.673 79.1215C135.387 77.8839 136.708 77.1215 138.137 77.1215H167.518C168.947 77.1215 170.268 77.8839 170.982 79.1215L185.673 104.566C186.387 105.804 186.387 107.329 185.673 108.566L170.982 134.011C170.268 135.249 168.947 136.011 167.518 136.011H138.137C136.708 136.011 135.387 135.249 134.673 134.011L119.982 108.566Z" fill="url(#paint2_linear_1_2)"/>
<path d="M118.828 106.566L134.673 79.1215C135.387 77.8839 136.708 77.1215 138.137 77.1215H169.828M118.828 106.566L134.673 134.011C135.387 135.249 136.708 136.011 138.137 136.011H169.828M118.828 106.566H152.828M169.828 77.1215L185.673 104.566C186.387 105.804 186.387 107.329 185.673 108.566L169.828 136.011M169.828 77.1215L152.828 106.566M169.828 136.011L152.828 106.566" stroke="white" stroke-width="2"/>
<g opacity="0.06">
<path d="M50.44 78.22C50.44 59.133 65.913 43.66 85 43.66C104.087 43.66 119.56 59.133 119.56 78.22V78.2322C114.573 80.3117 109.101 81.46 103.361 81.46C101.267 81.46 99.2089 81.3072 97.1971 81.0122C93.4678 93.1535 82.1654 101.98 68.8015 101.98C65.0618 101.98 61.4835 101.289 58.1874 100.027C53.3439 94.0791 50.44 86.4887 50.44 78.22Z" fill="url(#paint3_linear_1_2)"/>
<path d="M106.06 84.1607C113.732 84.1607 120.924 82.1098 127.119 78.5264C126.955 101.648 108.161 120.341 85.0006 120.341C65.9678 120.341 49.8835 107.717 44.6639 90.3855C45.0247 90.5962 45.3903 90.7995 45.7606 90.9952C50.5366 101.005 60.7509 107.921 72.5806 107.921C87.0268 107.921 99.064 97.6068 101.73 83.9409C103.154 84.0863 104.598 84.1607 106.06 84.1607Z" fill="url(#paint4_linear_1_2)"/>
</g>
<defs>
<filter id="filter0_f_1_2" x="34.8276" y="29.1264" width="171" height="159.88" filterUnits="userSpaceOnUse" color-interpolation-filters="sRGB">
<feFlood flood-opacity="0" result="BackgroundImageFix"/>
<feBlend mode="normal" in="SourceGraphic" in2="BackgroundImageFix" result="shape"/>
<feGaussianBlur stdDeviation="22" result="effect1_foregroundBlur_1_2"/>
</filter>
<linearGradient id="paint0_linear_1_2" x1="121.449" y1="67.5664" x2="121.449" y2="150.566" gradientUnits="userSpaceOnUse">
<stop stop-color="#E84747"/>
<stop offset="1" stop-color="#FF5107"/>
</linearGradient>
<linearGradient id="paint1_linear_1_2" x1="202.828" y1="106.566" x2="102.828" y2="106.566" gradientUnits="userSpaceOnUse">
<stop stop-color="#482BFF"/>
<stop offset="1" stop-color="#007AFF"/>
</linearGradient>
<linearGradient id="paint2_linear_1_2" x1="153.747" y1="72.5664" x2="153.747" y2="140.566" gradientUnits="userSpaceOnUse">
<stop stop-color="#E84747"/>
<stop offset="1" stop-color="#FF5107"/>
</linearGradient>
<linearGradient id="paint3_linear_1_2" x1="44.6639" y1="82.2011" x2="132.809" y2="90.6502" gradientUnits="userSpaceOnUse">
<stop stop-color="white"/>
<stop offset="1" stop-color="#E4E4E4"/>
</linearGradient>
<linearGradient id="paint4_linear_1_2" x1="44.6639" y1="82.2011" x2="132.809" y2="90.6502" gradientUnits="userSpaceOnUse">
<stop stop-color="white"/>
<stop offset="1" stop-color="#E4E4E4"/>
</linearGradient>
</defs>
</svg>
