<svg width="304" height="204" viewBox="0 0 304 204" fill="none" xmlns="http://www.w3.org/2000/svg">
<g opacity="0.5" filter="url(#filter0_f_18_104)">
<path d="M76.8271 109.066L97.5771 73.1264H139.077L159.827 109.066L139.077 145.006H97.5771L76.8271 109.066Z" fill="url(#paint0_linear_18_104)"/>
</g>
<circle cx="205.827" cy="129.567" r="31" stroke="white" stroke-opacity="0.08"/>
<circle cx="205.827" cy="129.566" r="16" stroke="white" stroke-opacity="0.08"/>
<circle cx="205.827" cy="129.567" r="46" stroke="white" stroke-opacity="0.08"/>
<circle cx="150.827" cy="106.566" r="50" fill="white" fill-opacity="0.06"/>
<circle cx="150.827" cy="106.566" r="50" stroke="url(#paint1_linear_18_104)" stroke-linecap="round" stroke-dasharray="4 4"/>
<circle cx="150.827" cy="106.566" r="50" stroke="white" stroke-opacity="0.8" stroke-linecap="round" stroke-dasharray="4 4"/>
<g opacity="0.06">
<path d="M48.44 78.22C48.44 59.133 63.913 43.66 83 43.66C102.087 43.66 117.56 59.133 117.56 78.22V78.2322C112.573 80.3117 107.101 81.46 101.361 81.46C99.267 81.46 97.2089 81.3072 95.1971 81.0122C91.4678 93.1535 80.1654 101.98 66.8015 101.98C63.0618 101.98 59.4835 101.289 56.1874 100.027C51.3439 94.0791 48.44 86.4887 48.44 78.22Z" fill="url(#paint2_linear_18_104)"/>
<path d="M104.06 84.1607C111.732 84.1607 118.924 82.1098 125.119 78.5264C124.955 101.648 106.161 120.341 83.0006 120.341C63.9678 120.341 47.8835 107.717 42.6639 90.3855C43.0247 90.5962 43.3903 90.7995 43.7606 90.9952C48.5366 101.005 58.7509 107.921 70.5806 107.921C85.0268 107.921 97.064 97.6068 99.7302 83.9409C101.154 84.0863 102.598 84.1607 104.06 84.1607Z" fill="url(#paint3_linear_18_104)"/>
</g>
<path d="M149.591 62.968C150.394 62.707 151.26 62.707 152.063 62.968L175.454 70.568C176.257 70.8291 176.957 71.3377 177.454 72.0211L191.91 91.9182C192.406 92.6016 192.674 93.4246 192.674 94.2693V118.863C192.674 119.708 192.406 120.531 191.91 121.215L177.454 141.112C176.957 141.795 176.257 142.304 175.454 142.565L152.063 150.165C151.26 150.426 150.394 150.426 149.591 150.165L126.201 142.565C125.397 142.304 124.697 141.795 124.201 141.112L109.745 121.215C109.248 120.531 108.981 119.708 108.981 118.863V94.2693C108.981 93.4246 109.248 92.6016 109.745 91.9182L124.201 72.0211C124.697 71.3377 125.397 70.8291 126.201 70.568L149.591 62.968Z" fill="white"/>
<g filter="url(#filter1_d_18_104)">
<path d="M121.739 78.2655L150.582 106.497M150.582 106.497L180.492 77.6552M150.582 106.497L121.129 136.865M150.582 106.497L180.339 136.56" stroke="url(#paint4_linear_18_104)" stroke-width="2"/>
</g>
<path d="M124.485 108.566C123.77 107.329 123.77 105.804 124.485 104.566L135.925 84.7519C136.639 83.5143 137.96 82.7519 139.389 82.7519H162.269C163.698 82.7519 165.018 83.5143 165.733 84.7519L177.173 104.566C177.887 105.804 177.887 107.329 177.173 108.566L165.733 128.381C165.018 129.619 163.698 130.381 162.269 130.381H139.389C137.96 130.381 136.639 129.619 135.925 128.381L124.485 108.566Z" fill="url(#paint5_linear_18_104)"/>
<path d="M123.33 106.566L135.925 84.7518C136.639 83.5142 137.96 82.7518 139.389 82.7518H164.578M123.33 106.566L135.925 128.381C136.639 129.618 137.96 130.381 139.389 130.381H164.578M123.33 106.566H150.829M164.578 82.7518L177.173 104.566C177.887 105.804 177.887 107.329 177.173 108.566L164.578 130.381M164.578 82.7518L150.829 106.566M164.578 130.381L150.829 106.566" stroke="white"/>
<path d="M171.981 73.5691C171.267 72.3315 171.267 70.8067 171.981 69.5691L177.171 60.5799C177.886 59.3423 179.206 58.5799 180.635 58.5799H191.015C192.444 58.5799 193.765 59.3423 194.479 60.5799L199.669 69.5691C200.384 70.8067 200.384 72.3315 199.669 73.5691L194.479 82.5583C193.765 83.7959 192.444 84.5583 191.015 84.5583H180.635C179.206 84.5583 177.886 83.7959 177.171 82.5583L171.981 73.5691Z" fill="url(#paint6_linear_18_104)"/>
<path d="M170.827 71.569L177.171 60.5798C177.886 59.3422 179.206 58.5798 180.635 58.5798H193.325M170.827 71.569L177.171 82.5583C177.886 83.7959 179.206 84.5583 180.635 84.5583H193.325M170.827 71.569H185.825M193.325 58.5798L199.669 69.569C200.384 70.8066 200.384 72.3314 199.669 73.569L193.325 84.5583M193.325 58.5798L185.825 71.569M193.325 84.5583L185.825 71.569" stroke="white" stroke-opacity="0.08"/>
<path d="M171.981 143.564C171.267 142.326 171.267 140.801 171.981 139.564L177.171 130.575C177.886 129.337 179.206 128.575 180.635 128.575H191.015C192.444 128.575 193.765 129.337 194.479 130.575L199.669 139.564C200.384 140.801 200.384 142.326 199.669 143.564L194.479 152.553C193.765 153.791 192.444 154.553 191.015 154.553H180.635C179.206 154.553 177.886 153.791 177.171 152.553L171.981 143.564Z" fill="url(#paint7_linear_18_104)"/>
<path d="M170.827 141.564L177.171 130.574C177.886 129.337 179.206 128.574 180.635 128.574H193.325M170.827 141.564L177.171 152.553C177.886 153.79 179.206 154.553 180.635 154.553H193.325M170.827 141.564H185.825M193.325 128.574L199.669 139.564C200.384 140.801 200.384 142.326 199.669 143.564L193.325 154.553M193.325 128.574L185.825 141.564M193.325 154.553L185.825 141.564" stroke="white" stroke-opacity="0.08"/>
<path d="M101.987 73.5691C101.272 72.3315 101.272 70.8067 101.987 69.5691L107.177 60.5799C107.891 59.3423 109.212 58.5799 110.641 58.5799H121.021C122.45 58.5799 123.77 59.3423 124.485 60.5799L129.675 69.5691C130.389 70.8067 130.389 72.3315 129.675 73.5691L124.485 82.5583C123.77 83.7959 122.45 84.5583 121.021 84.5583H110.641C109.212 84.5583 107.891 83.7959 107.177 82.5583L101.987 73.5691Z" fill="url(#paint8_linear_18_104)"/>
<path d="M100.832 71.569L107.177 60.5798C107.891 59.3422 109.212 58.5798 110.641 58.5798H123.33M100.832 71.569L107.177 82.5583C107.891 83.7959 109.212 84.5583 110.641 84.5583H123.33M100.832 71.569H115.831M123.33 58.5798L129.675 69.569C130.389 70.8066 130.389 72.3314 129.675 73.569L123.33 84.5583M123.33 58.5798L115.831 71.569M123.33 84.5583L115.831 71.569" stroke="white" stroke-opacity="0.08"/>
<path d="M101.987 143.564C101.273 142.326 101.273 140.801 101.987 139.564L107.177 130.575C107.892 129.337 109.212 128.575 110.641 128.575H121.021C122.45 128.575 123.771 129.337 124.485 130.575L129.675 139.564C130.39 140.801 130.39 142.326 129.675 143.564L124.485 152.553C123.771 153.791 122.45 154.553 121.021 154.553H110.641C109.212 154.553 107.892 153.791 107.177 152.553L101.987 143.564Z" fill="url(#paint9_linear_18_104)"/>
<path d="M100.833 141.564L107.177 130.574C107.892 129.337 109.212 128.574 110.641 128.574H123.331M100.833 141.564L107.177 152.553C107.892 153.79 109.212 154.553 110.641 154.553H123.331M100.833 141.564H115.831M123.331 128.574L129.675 139.564C130.39 140.801 130.39 142.326 129.675 143.564L123.331 154.553M123.331 128.574L115.831 141.564M123.331 154.553L115.831 141.564" stroke="white" stroke-opacity="0.08"/>
<defs>
<filter id="filter0_f_18_104" x="32.8271" y="29.1264" width="171" height="159.88" filterUnits="userSpaceOnUse" color-interpolation-filters="sRGB">
<feFlood flood-opacity="0" result="BackgroundImageFix"/>
<feBlend mode="normal" in="SourceGraphic" in2="BackgroundImageFix" result="shape"/>
<feGaussianBlur stdDeviation="22" result="effect1_foregroundBlur_18_104"/>
</filter>
<filter id="filter1_d_18_104" x="72.4115" y="28.9353" width="156.775" height="156.626" filterUnits="userSpaceOnUse" color-interpolation-filters="sRGB">
<feFlood flood-opacity="0" result="BackgroundImageFix"/>
<feColorMatrix in="SourceAlpha" type="matrix" values="0 0 0 0 0 0 0 0 0 0 0 0 0 0 0 0 0 0 127 0" result="hardAlpha"/>
<feOffset/>
<feGaussianBlur stdDeviation="24"/>
<feColorMatrix type="matrix" values="0 0 0 0 0 0 0 0 0 0 0 0 0 0 0 0 0 0 0.64 0"/>
<feBlend mode="normal" in2="BackgroundImageFix" result="effect1_dropShadow_18_104"/>
<feBlend mode="normal" in="SourceGraphic" in2="effect1_dropShadow_18_104" result="shape"/>
</filter>
<linearGradient id="paint0_linear_18_104" x1="119.449" y1="67.5664" x2="119.449" y2="150.566" gradientUnits="userSpaceOnUse">
<stop stop-color="#E84747"/>
<stop offset="1" stop-color="#FF5107"/>
</linearGradient>
<linearGradient id="paint1_linear_18_104" x1="200.827" y1="106.566" x2="100.827" y2="106.566" gradientUnits="userSpaceOnUse">
<stop stop-color="#482BFF"/>
<stop offset="1" stop-color="#007AFF"/>
</linearGradient>
<linearGradient id="paint2_linear_18_104" x1="42.6639" y1="82.2011" x2="130.809" y2="90.6502" gradientUnits="userSpaceOnUse">
<stop stop-color="white"/>
<stop offset="1" stop-color="#E4E4E4"/>
</linearGradient>
<linearGradient id="paint3_linear_18_104" x1="42.6639" y1="82.2011" x2="130.809" y2="90.6502" gradientUnits="userSpaceOnUse">
<stop stop-color="white"/>
<stop offset="1" stop-color="#E4E4E4"/>
</linearGradient>
<linearGradient id="paint4_linear_18_104" x1="180.492" y1="108.06" x2="121.129" y2="108.06" gradientUnits="userSpaceOnUse">
<stop stop-color="#E84747"/>
<stop offset="1" stop-color="#FF5107"/>
</linearGradient>
<linearGradient id="paint5_linear_18_104" x1="151.572" y1="79.0677" x2="151.572" y2="134.065" gradientUnits="userSpaceOnUse">
<stop stop-color="#E84747"/>
<stop offset="1" stop-color="#FF5107"/>
</linearGradient>
<linearGradient id="paint6_linear_18_104" x1="186.231" y1="56.5704" x2="186.231" y2="86.5677" gradientUnits="userSpaceOnUse">
<stop stop-color="#391111"/>
<stop offset="1" stop-color="#CB3F2B"/>
</linearGradient>
<linearGradient id="paint7_linear_18_104" x1="186.231" y1="126.565" x2="186.231" y2="156.562" gradientUnits="userSpaceOnUse">
<stop stop-color="#CB3F2B"/>
<stop offset="1" stop-color="#391111"/>
</linearGradient>
<linearGradient id="paint8_linear_18_104" x1="116.236" y1="56.5704" x2="116.236" y2="86.5677" gradientUnits="userSpaceOnUse">
<stop stop-color="#391111"/>
<stop offset="1" stop-color="#CB3F2B"/>
</linearGradient>
<linearGradient id="paint9_linear_18_104" x1="116.237" y1="126.565" x2="116.237" y2="156.562" gradientUnits="userSpaceOnUse">
<stop stop-color="#CB3F2B"/>
<stop offset="1" stop-color="#391111"/>
</linearGradient>
</defs>
</svg>
