<svg width="304" height="204" viewBox="0 0 304 204" fill="none" xmlns="http://www.w3.org/2000/svg">
<g clip-path="url(#clip0_1_70)">
<g opacity="0.5" filter="url(#filter0_f_1_70)">
<circle cx="145" cy="113" r="61" fill="url(#paint0_linear_1_70)"/>
</g>
<path fill-rule="evenodd" clip-rule="evenodd" d="M219.596 44L270.192 73V131L219.596 160L169 131V73L219.596 44ZM172.452 74.9787V129.021L219.596 156.043L266.739 129.021V74.9787L219.596 47.9574L172.452 74.9787Z" fill="white" fill-opacity="0.06"/>
<path fill-rule="evenodd" clip-rule="evenodd" d="M219.596 72.4735C217.983 72.4735 216.675 73.7718 216.675 75.3734C216.675 76.975 217.983 78.2733 219.596 78.2733C221.209 78.2733 222.517 76.975 222.517 75.3734C222.517 73.7718 221.209 72.4735 219.596 72.4735ZM213.223 75.3734C213.223 71.879 216.076 69.0463 219.596 69.0463C223.116 69.0463 225.969 71.879 225.969 75.3734C225.969 78.8678 223.116 81.7005 219.596 81.7005C216.076 81.7005 213.223 78.8678 213.223 75.3734Z" fill="white" fill-opacity="0.06"/>
<path fill-rule="evenodd" clip-rule="evenodd" d="M196.493 113.468C194.88 113.468 193.572 114.766 193.572 116.368C193.572 117.969 194.88 119.268 196.493 119.268C198.106 119.268 199.414 117.969 199.414 116.368C199.414 114.766 198.106 113.468 196.493 113.468ZM190.12 116.368C190.12 112.873 192.973 110.041 196.493 110.041C200.013 110.041 202.866 112.873 202.866 116.368C202.866 119.862 200.013 122.695 196.493 122.695C192.973 122.695 190.12 119.862 190.12 116.368Z" fill="white" fill-opacity="0.06"/>
<path fill-rule="evenodd" clip-rule="evenodd" d="M242.699 113.468C241.086 113.468 239.778 114.766 239.778 116.368C239.778 117.969 241.086 119.268 242.699 119.268C244.312 119.268 245.62 117.969 245.62 116.368C245.62 114.766 244.312 113.468 242.699 113.468ZM236.326 116.368C236.326 112.873 239.179 110.041 242.699 110.041C246.219 110.041 249.072 112.873 249.072 116.368C249.072 119.862 246.219 122.695 242.699 122.695C239.179 122.695 236.326 119.862 236.326 116.368Z" fill="white" fill-opacity="0.06"/>
<path d="M214.207 81.4369L217.227 83.0984L202.035 110.306L199.016 108.645L214.207 81.4369Z" fill="white" fill-opacity="0.06"/>
<path d="M224.851 81.4369L221.832 83.0984L237.023 110.306L240.043 108.645L224.851 81.4369Z" fill="white" fill-opacity="0.06"/>
<path d="M204.592 115.182H234.865V118.477H204.592V115.182Z" fill="white" fill-opacity="0.06"/>
<circle cx="156" cy="102" r="50" fill="white" fill-opacity="0.06"/>
<circle cx="156" cy="102" r="50" stroke="url(#paint1_linear_1_70)" stroke-linecap="round" stroke-dasharray="4 4"/>
<circle cx="156" cy="102" r="50" stroke="white" stroke-opacity="0.8" stroke-linecap="round" stroke-dasharray="4 4"/>
<path d="M154 59.1547C155.238 58.4402 156.763 58.4402 158 59.1547L192.105 78.8453C193.343 79.5598 194.105 80.8804 194.105 82.3094V121.691C194.105 123.12 193.343 124.44 192.105 125.155L158 144.845C156.763 145.56 155.238 145.56 154 144.845L119.895 125.155C118.657 124.44 117.895 123.12 117.895 121.691V82.3094C117.895 80.8804 118.657 79.5598 119.895 78.8453L154 59.1547Z" fill="white"/>
<path d="M181 108.325C181 121.953 169.807 133 156 133C142.193 133 131 121.953 131 108.325C131 94.3041 147.08 77.4789 153.448 71.3657C154.892 69.9794 157.108 69.9794 158.552 71.3657C164.92 77.4789 181 94.3041 181 108.325Z" fill="url(#paint2_linear_1_70)"/>
<g opacity="0.1">
<path d="M80.5028 52L79.8584 54.1947V117.879L80.5028 118.524L110.004 101.05L80.5028 52Z" fill="white"/>
<path d="M80.5012 52L51 101.05L80.5012 118.524V87.6134V52Z" fill="#F7F7F7"/>
<path d="M80.5018 128.141L80.1387 128.585V151.27L80.5018 152.333L110.021 110.676L80.5018 128.141Z" fill="white"/>
<path d="M80.5012 152.333V128.141L51 110.676L80.5012 152.333Z" fill="#F7F7F7"/>
<path d="M80.5029 118.523L110.004 101.05L80.5029 87.6131V118.523Z" fill="#D9D9D9"/>
<path d="M51 101.05L80.5007 118.523V87.6131L51 101.05Z" fill="#E6E6E6"/>
</g>
</g>
<defs>
<filter id="filter0_f_1_70" x="40.0002" y="8.00002" width="210" height="210" filterUnits="userSpaceOnUse" color-interpolation-filters="sRGB">
<feFlood flood-opacity="0" result="BackgroundImageFix"/>
<feBlend mode="normal" in="SourceGraphic" in2="BackgroundImageFix" result="shape"/>
<feGaussianBlur stdDeviation="22" result="effect1_foregroundBlur_1_70"/>
</filter>
<linearGradient id="paint0_linear_1_70" x1="206" y1="113" x2="84.0002" y2="113" gradientUnits="userSpaceOnUse">
<stop stop-color="#007AFF"/>
<stop offset="1" stop-color="#00B1F0"/>
</linearGradient>
<linearGradient id="paint1_linear_1_70" x1="206" y1="102" x2="106" y2="102" gradientUnits="userSpaceOnUse">
<stop stop-color="#482BFF"/>
<stop offset="1" stop-color="#007AFF"/>
</linearGradient>
<linearGradient id="paint2_linear_1_70" x1="181" y1="101" x2="131" y2="101" gradientUnits="userSpaceOnUse">
<stop stop-color="#007AFF"/>
<stop offset="1" stop-color="#00B1F0"/>
</linearGradient>
<clipPath id="clip0_1_70">
<rect width="304" height="204" fill="white"/>
</clipPath>
</defs>
</svg>
