<svg width="304" height="204" viewBox="0 0 304 204" fill="none" xmlns="http://www.w3.org/2000/svg">
<g clip-path="url(#clip0_1_96)">
<g opacity="0.5" filter="url(#filter0_f_1_96)">
<path d="M118.727 45.3983C134.841 29.9819 153.755 28.0709 173.559 38.6259C184.838 44.6992 194.594 53.1612 202.116 63.3985C200.188 62.1373 199.171 61.4861 198.196 60.8151C177.457 46.2739 155.745 41.4334 131.999 53.9816C122.811 58.8419 113.335 63.6214 102.55 63.6014C97.8005 63.6014 93.0713 62.9303 88.344 62.5643C100.497 60.6733 110.037 53.7176 118.727 45.3983Z" fill="url(#paint0_linear_1_96)"/>
<path d="M106.987 85.4458C93.0924 90.4083 79.4048 90.4493 66.1098 84.2059C60.7385 81.6835 55.7404 78.7143 50.3895 76.0715C41.0167 71.4326 27.9075 68.1384 17 69.8874C18.4524 69.0532 53.9773 62.2607 69.0543 71.0053C80.6273 77.7582 92.1999 84.6926 106.987 85.4458Z" fill="url(#paint1_linear_1_96)"/>
<path d="M149.046 60.6736C136.602 62.5249 119.078 74.4216 116.361 82.6189C140.274 65.717 149.087 80.1972 146.121 87.1117C117.088 125.369 52.156 96.3869 45.6418 96.9146C55.6178 106.393 65.1162 116.42 75.61 125.266C94.9381 141.537 116.447 153.943 142.7 155.773C149.179 155.863 155.66 155.604 162.111 155C149.791 165.454 136.021 165.474 121.796 163.847C165.74 187.378 219.683 155.183 212.321 127.95C205.559 136.35 200.292 140.154 194.423 140.519C203.175 131.856 202.718 121.504 201.474 109.81V109.808C192.827 117.297 181.772 121.566 170.241 121.87H162.671H162.673C172.018 119.164 180.431 114.002 186.999 106.941C173.311 112.799 159.894 111.599 146.455 110.662H145.293C160.163 101.591 175.489 95.958 194.029 98.9684C188.078 88.9215 178.538 84.5492 167.608 79.9725C182.478 75.3957 194.258 80.7456 206.453 85.321C190.815 69.4178 173.518 56.931 149.046 60.6736Z" fill="url(#paint2_linear_1_96)"/>
</g>
<path d="M106.727 61.5702C122.841 50.5585 141.755 49.1935 161.559 56.7327C172.838 61.0709 182.594 67.1152 190.116 74.4275C188.188 73.5266 187.171 73.0615 186.196 72.5822C165.457 62.1956 143.745 58.7382 119.999 67.7011C110.811 71.1728 101.335 74.5867 90.5496 74.5724C85.8005 74.5724 81.0713 74.0931 76.344 73.8317C88.4969 72.4809 98.0371 67.5126 106.727 61.5702Z" fill="white" fill-opacity="0.06"/>
<path d="M94.9874 90.1756C81.0924 93.7202 67.4048 93.7495 54.1098 89.2899C48.7385 87.4882 43.7404 85.3674 38.3895 83.4796C29.0167 80.1662 15.9075 77.8131 5 79.0624C6.45242 78.4666 41.9773 73.6148 57.0543 79.8609C68.6273 84.6844 80.1999 89.6376 94.9874 90.1756Z" fill="white" fill-opacity="0.06"/>
<path d="M137.046 72.4811C124.602 73.8035 107.078 82.3011 104.361 88.1563C128.274 76.0836 137.087 86.4266 134.121 91.3655C105.088 118.692 40.156 97.9906 33.6418 98.3676C43.6178 105.138 53.1162 112.3 63.61 118.619C82.9381 130.241 104.447 139.102 130.7 140.409C137.179 140.473 143.66 140.289 150.111 139.857C137.791 147.324 124.021 147.339 109.796 146.176C153.74 162.984 207.683 139.988 200.321 120.536C193.559 126.536 188.292 129.253 182.423 129.514C191.175 123.326 190.718 115.931 189.474 107.578V107.577C180.827 112.927 169.772 115.976 158.241 116.193H150.671H150.673C160.018 114.26 168.431 110.573 174.999 105.529C161.311 109.713 147.894 108.856 134.455 108.187H133.293C148.163 101.708 163.489 97.6843 182.029 99.8346C176.078 92.6582 166.538 89.5352 155.608 86.2661C170.478 82.9969 182.258 86.8183 194.453 90.0864C178.815 78.727 161.518 69.8079 137.046 72.4811Z" fill="white" fill-opacity="0.06"/>
<path d="M224.273 133.43C208.159 144.442 189.245 145.807 169.441 138.267C158.162 133.929 148.406 127.885 140.884 120.573C142.812 121.473 143.829 121.938 144.804 122.418C165.543 132.804 187.255 136.262 211.001 127.299C220.189 123.827 229.665 120.413 240.45 120.428C245.2 120.428 249.929 120.907 254.656 121.168C242.503 122.519 232.963 127.487 224.273 133.43Z" fill="white" fill-opacity="0.06"/>
<path d="M236.013 104.824C249.908 101.28 263.595 101.25 276.89 105.71C282.262 107.512 287.26 109.633 292.611 111.52C301.983 114.834 315.093 117.187 326 115.938C324.548 116.533 289.023 121.385 273.946 115.139C262.373 110.316 250.8 105.362 236.013 104.824Z" fill="white" fill-opacity="0.06"/>
<path d="M193.954 122.519C206.398 121.196 223.922 112.699 226.639 106.844C202.726 118.916 193.913 108.573 196.879 103.634C225.912 76.308 290.844 97.0094 297.358 96.6324C287.382 89.8623 277.884 82.7002 267.39 76.3812C248.062 64.7593 226.553 55.8978 200.3 54.5906C193.821 54.5268 187.34 54.7112 180.889 55.1429C193.209 47.6757 206.979 47.6614 221.204 48.8239C177.26 32.0158 123.317 55.0121 130.679 74.4641C137.441 68.4642 142.708 65.7474 148.577 65.4861C139.825 71.6744 140.282 79.0687 141.526 87.4217V87.4228C150.173 82.0734 161.228 79.0243 172.759 78.8074H180.329H180.327C170.982 80.7398 162.569 84.4273 156.001 89.4706C169.689 85.2865 183.106 86.1439 196.545 86.8126H197.707C182.837 93.292 167.511 97.3157 148.971 95.1654C154.922 102.342 164.462 105.465 175.392 108.734C160.522 112.003 148.742 108.182 136.547 104.914C152.185 116.273 169.482 125.192 193.954 122.519Z" fill="white" fill-opacity="0.06"/>
<circle cx="158" cy="102" r="50" fill="white" fill-opacity="0.06"/>
<circle cx="158" cy="102" r="50" stroke="url(#paint3_linear_1_96)" stroke-linecap="round" stroke-dasharray="4 4"/>
<circle cx="158" cy="102" r="50" stroke="white" stroke-opacity="0.8" stroke-linecap="round" stroke-dasharray="4 4"/>
<circle cx="158" cy="102" r="41" fill="white"/>
<path d="M182.981 121C187.5 115.363 190 108.568 190 101C190 83.3269 175.673 69 158 69C140.327 69 126 83.3269 126 101C126 108.568 128.5 115.363 133.019 121C141 129 142 116 158 116C174 116 175 129 182.981 121Z" fill="url(#paint4_linear_1_96)"/>
<path fill-rule="evenodd" clip-rule="evenodd" d="M173.385 85.4144C172.604 84.6334 171.338 84.6334 170.556 85.4144L160.45 95.5214C159.702 95.1864 158.873 95.0002 158 95.0002C154.686 95.0002 152 97.6865 152 101C152 104.314 154.686 107 158 107C161.314 107 164 104.314 164 101C164 100.021 163.765 99.0957 163.349 98.2789L173.385 88.2428C174.166 87.4618 174.166 86.1954 173.385 85.4144Z" fill="white"/>
</g>
<defs>
<filter id="filter0_f_1_96" x="-27" y="-12" width="284" height="228" filterUnits="userSpaceOnUse" color-interpolation-filters="sRGB">
<feFlood flood-opacity="0" result="BackgroundImageFix"/>
<feBlend mode="normal" in="SourceGraphic" in2="BackgroundImageFix" result="shape"/>
<feGaussianBlur stdDeviation="22" result="effect1_foregroundBlur_1_96"/>
</filter>
<linearGradient id="paint0_linear_1_96" x1="117.649" y1="32" x2="117.649" y2="172" gradientUnits="userSpaceOnUse">
<stop stop-color="#00A862"/>
<stop offset="1" stop-color="#00AF92"/>
</linearGradient>
<linearGradient id="paint1_linear_1_96" x1="117.649" y1="32" x2="117.649" y2="172" gradientUnits="userSpaceOnUse">
<stop stop-color="#00A862"/>
<stop offset="1" stop-color="#00AF92"/>
</linearGradient>
<linearGradient id="paint2_linear_1_96" x1="117.649" y1="32" x2="117.649" y2="172" gradientUnits="userSpaceOnUse">
<stop stop-color="#00A862"/>
<stop offset="1" stop-color="#00AF92"/>
</linearGradient>
<linearGradient id="paint3_linear_1_96" x1="208" y1="102" x2="108" y2="102" gradientUnits="userSpaceOnUse">
<stop stop-color="#482BFF"/>
<stop offset="1" stop-color="#007AFF"/>
</linearGradient>
<linearGradient id="paint4_linear_1_96" x1="190" y1="97.0389" x2="126" y2="97.0389" gradientUnits="userSpaceOnUse">
<stop stop-color="#00A862"/>
<stop offset="1" stop-color="#00AF92"/>
</linearGradient>
<clipPath id="clip0_1_96">
<rect width="304" height="204" fill="white"/>
</clipPath>
</defs>
</svg>
