<svg width="304" height="204" viewBox="0 0 304 204" fill="none" xmlns="http://www.w3.org/2000/svg">
<g clip-path="url(#clip0_4_7)">
<g opacity="0.5" filter="url(#filter0_f_4_7)">
<circle cx="130.174" cy="95.2489" r="54.2489" fill="url(#paint0_linear_4_7)"/>
</g>
<path fill-rule="evenodd" clip-rule="evenodd" d="M249.77 42.5317H249.054V53.6375H244.758V93.2016H249.054V105.695H249.77V93.2016H254.066V53.6375H249.77V42.5317ZM224.709 61.9667H225.425V72.3777H229.721V104.307H225.425V112.636H224.709V104.307H220.413V72.3777H224.709V61.9667ZM201.081 87.6487H200.364V104.307H196.068V112.636H200.364V125.825H201.081V112.636H205.377V104.307H201.081V87.6487ZM102.985 91.0464H103.701V125.751H107.998V127.833H103.701V133.387H102.985V127.833H98.6901V125.751H102.985V91.0464ZM79.3566 106.746H78.6406V115.77H74.3436V149.782H78.6406V156.722H79.3566V149.782H83.6519V115.77H79.3566V106.746ZM55.011 127.57H54.295V133.817H50V144.229H54.295V150.476H55.011V144.229H59.3083V133.817H55.011V127.57ZM128.048 101.887H127.332V112.298H123.036V133.815H127.332V144.227H128.048V133.815H132.344V112.298H128.048V101.887ZM151.675 102.902H152.391V116.783H156.689V119.56H152.391V121.643H151.675V119.56H147.38V116.783H151.675V102.902ZM66.4683 121.323H67.1843V131.735H71.4815V135.899H67.1843V144.229H66.4683V135.899H62.1733V131.735H66.4683V121.323ZM91.5299 99.2167H90.8138V110.255H86.1672V132.675H90.8138V162.38H91.5299V132.675H96.1794V110.255H91.5299V99.2167ZM115.158 114.646H115.874V125.752H120.172V145.187H115.874V156.987H115.158V145.187H110.863V125.752H115.158V114.646ZM140.221 105.678H139.505V112.619H135.208V118.172H139.505V124.419H140.221V118.172H144.516V112.619H140.221V105.678ZM163.849 100.125H164.565V107.761H168.862V118.173H164.565V128.584H163.849V118.173H159.554V107.761H163.849V100.125ZM176.021 108.795H176.737V124.065H181.031V131.7H176.737V137.253H176.021V131.7H171.723V124.065H176.021V108.795ZM188.194 82.7896H188.91V97.362H193.44V140.333H188.91V164H188.194V140.333H184.143V97.362H188.194V82.7896ZM213.252 80.7077H212.536V93.2016H208.242V104.307H212.536V118.884H213.252V104.307H217.55V93.2016H213.252V80.7077ZM236.882 61.9672H237.598V72.3783H241.895V75.8488H237.598V86.2609H236.882V75.8488H232.586V72.3783H236.882V61.9672Z" fill="white" fill-opacity="0.06"/>
<circle cx="152.86" cy="100.181" r="49.3172" fill="white" fill-opacity="0.06"/>
<circle cx="152.86" cy="100.181" r="49.3172" stroke="url(#paint1_linear_4_7)" stroke-linecap="round" stroke-dasharray="4 4"/>
<circle cx="152.86" cy="100.181" r="49.3172" stroke="white" stroke-opacity="0.8" stroke-linecap="round" stroke-dasharray="4 4"/>
<rect x="106.502" y="67.6313" width="92.7163" height="65.0987" rx="8" fill="white"/>
<circle cx="111.434" cy="72.563" r="1.97269" fill="url(#paint2_linear_4_7)"/>
<circle cx="117.352" cy="72.563" r="1.97269" fill="#FFA800"/>
<circle cx="123.27" cy="72.563" r="1.97269" fill="url(#paint3_linear_4_7)"/>
<rect x="109.461" y="77.4947" width="86.7983" height="49.3172" rx="6" fill="url(#paint4_linear_4_7)"/>
<path d="M166.829 81.7989H139.211M166.829 122.508H139.211" stroke="white" stroke-width="2" stroke-miterlimit="10" stroke-linecap="round" stroke-linejoin="round"/>
<path d="M137.732 117.419H168.308C173.233 117.419 175.706 114.868 175.706 109.786V94.5204C175.706 89.4391 173.233 86.8875 168.308 86.8875H137.732C132.807 86.8875 130.334 89.4391 130.334 94.5204V109.786C130.334 114.868 132.807 117.419 137.732 117.419Z" fill="white"/>
<path d="M153.02 90.4247L153.02 108.179" stroke="#FFA800" stroke-width="2" stroke-linecap="round"/>
<path d="M162.883 95.3565L162.883 113.111" stroke="#FFA800" stroke-width="2" stroke-linecap="round"/>
<path d="M143.156 95.3565L143.156 113.111" stroke="#FFA800" stroke-width="2" stroke-linecap="round"/>
<rect x="149.075" y="94.3701" width="7.89075" height="11.8361" rx="2" fill="#FFA800"/>
<rect x="158.938" y="98.3155" width="7.89075" height="11.8361" rx="2" fill="#FFA800"/>
<rect x="139.211" y="96.3428" width="7.89075" height="11.8361" rx="2" fill="#FFA800"/>
</g>
<defs>
<filter id="filter0_f_4_7" x="31.9252" y="-3" width="196.498" height="196.498" filterUnits="userSpaceOnUse" color-interpolation-filters="sRGB">
<feFlood flood-opacity="0" result="BackgroundImageFix"/>
<feBlend mode="normal" in="SourceGraphic" in2="BackgroundImageFix" result="shape"/>
<feGaussianBlur stdDeviation="22" result="effect1_foregroundBlur_4_7"/>
</filter>
<linearGradient id="paint0_linear_4_7" x1="75.9252" y1="95.2489" x2="184.423" y2="95.2489" gradientUnits="userSpaceOnUse">
<stop stop-color="#FFA800"/>
<stop offset="1" stop-color="#FF5107"/>
</linearGradient>
<linearGradient id="paint1_linear_4_7" x1="202.177" y1="100.181" x2="103.543" y2="100.181" gradientUnits="userSpaceOnUse">
<stop stop-color="#482BFF"/>
<stop offset="1" stop-color="#007AFF"/>
</linearGradient>
<linearGradient id="paint2_linear_4_7" x1="113.406" y1="72.6163" x2="109.461" y2="72.6163" gradientUnits="userSpaceOnUse">
<stop stop-color="#E84747"/>
<stop offset="1" stop-color="#FF5107"/>
</linearGradient>
<linearGradient id="paint3_linear_4_7" x1="125.242" y1="72.6163" x2="121.297" y2="72.6163" gradientUnits="userSpaceOnUse">
<stop stop-color="#00A862"/>
<stop offset="1" stop-color="#00AF92"/>
</linearGradient>
<linearGradient id="paint4_linear_4_7" x1="109.461" y1="102.153" x2="196.259" y2="102.153" gradientUnits="userSpaceOnUse">
<stop stop-color="#FFA800"/>
<stop offset="1" stop-color="#FF5107"/>
</linearGradient>
<clipPath id="clip0_4_7">
<rect width="304" height="204" fill="white"/>
</clipPath>
</defs>
</svg>
