<svg width="102" height="102" viewBox="0 0 102 102" fill="none" xmlns="http://www.w3.org/2000/svg">
<path fill-rule="evenodd" clip-rule="evenodd" d="M63.4363 29.3661L30.4884 61.5165C30.0636 60.712 29.68 59.8737 29.3364 59.0044C28.1858 56.0834 27.6105 52.9839 27.6105 49.7107C27.6105 46.4345 28.1858 43.3366 29.3364 40.4156C30.4884 37.493 32.0838 34.9576 34.1241 32.8057C36.1644 30.6552 38.6162 28.9542 41.4783 27.7015C44.3413 26.4501 47.4832 25.8237 50.9044 25.8237C54.3271 25.8237 57.4859 26.4657 60.3799 27.7509C61.456 28.2278 62.4747 28.7658 63.4363 29.3661ZM60.5306 71.9017C57.6673 73.1544 54.5257 73.7795 51.1042 73.7795C47.6818 73.7795 44.5227 73.1375 41.6275 71.8536C40.5527 71.3755 39.5339 70.8374 38.5738 70.2359L71.5202 38.0881C71.9451 38.8913 72.3288 39.728 72.6724 40.5989C73.8228 43.5199 74.3982 46.6191 74.3982 49.8939C74.3982 53.1685 73.8228 56.2664 72.6724 59.189C71.5202 62.1103 69.9248 64.6454 67.8845 66.796C65.8442 68.9469 63.394 70.649 60.5306 71.9017ZM65.5095 81.8744C69.9191 80.0123 73.7358 77.4926 76.9603 74.3127C80.1844 71.1354 82.6841 67.4268 84.4608 63.1893C86.2384 58.9515 87.1268 54.4568 87.1268 49.7059C87.1268 44.9536 86.2384 40.4589 84.4608 36.2199C83.4073 33.7069 82.11 31.3859 80.5704 29.256L102 8.34618L93.4846 0.0373535L71.99 21.0109C70.0603 19.727 67.9655 18.6172 65.7068 17.6803C61.2972 15.8506 56.4283 14.9345 51.0985 14.9345C45.7674 14.9345 40.8985 15.8663 36.4892 17.7284C32.0796 19.5905 28.2627 22.1102 25.0385 25.2887C21.8143 28.4672 19.3133 32.1759 17.5367 36.4137C15.7601 40.6511 14.8718 45.1458 14.8718 49.8981C14.8718 54.649 15.7601 59.1428 17.5367 63.3815C18.5915 65.8961 19.8886 68.217 21.4281 70.3481L0 91.2553L8.51531 99.5641L30.0087 78.592C31.9384 79.8759 34.0333 80.9855 36.2919 81.9223C40.7015 83.7522 45.5704 84.667 50.9002 84.667C56.2313 84.667 61.1002 83.7353 65.5095 81.8744Z" fill="white" fill-opacity="0.06"/>
</svg>
