<svg width="24" height="24" viewBox="0 0 24 24" fill="none" xmlns="http://www.w3.org/2000/svg">
<path d="M6.35355 5.64645C6.15829 5.45118 5.84171 5.45118 5.64645 5.64645C5.45118 5.84171 5.45118 6.15829 5.64645 6.35355L6.35355 5.64645ZM17.6464 18.3536C17.8417 18.5488 18.1583 18.5488 18.3536 18.3536C18.5488 18.1583 18.5488 17.8417 18.3536 17.6464L17.6464 18.3536ZM5.64645 17.6464C5.45118 17.8417 5.45118 18.1583 5.64645 18.3536C5.84171 18.5488 6.15829 18.5488 6.35355 18.3536L5.64645 17.6464ZM18.3536 6.35355C18.5488 6.15829 18.5488 5.84171 18.3536 5.64645C18.1583 5.45118 17.8417 5.45118 17.6464 5.64645L18.3536 6.35355ZM5.64645 6.35355L11.6464 12.3536L12.3536 11.6464L6.35355 5.64645L5.64645 6.35355ZM11.6464 12.3536L17.6464 18.3536L18.3536 17.6464L12.3536 11.6464L11.6464 12.3536ZM6.35355 18.3536L12.3536 12.3536L11.6464 11.6464L5.64645 17.6464L6.35355 18.3536ZM12.3536 12.3536L18.3536 6.35355L17.6464 5.64645L11.6464 11.6464L12.3536 12.3536Z" fill="#A4A5A8"/>
</svg>
