<svg width="32" height="32" viewBox="0 0 32 32" fill="none" xmlns="http://www.w3.org/2000/svg">
<path d="M8.35355 7.64645C8.15829 7.45118 7.84171 7.45118 7.64645 7.64645C7.45118 7.84171 7.45118 8.15829 7.64645 8.35355L8.35355 7.64645ZM23.6464 24.3536C23.8417 24.5488 24.1583 24.5488 24.3536 24.3536C24.5488 24.1583 24.5488 23.8417 24.3536 23.6464L23.6464 24.3536ZM7.64645 23.6464C7.45118 23.8417 7.45118 24.1583 7.64645 24.3536C7.84171 24.5488 8.15829 24.5488 8.35355 24.3536L7.64645 23.6464ZM24.3536 8.35355C24.5488 8.15829 24.5488 7.84171 24.3536 7.64645C24.1583 7.45118 23.8417 7.45118 23.6464 7.64645L24.3536 8.35355ZM7.64645 8.35355L15.6464 16.3536L16.3536 15.6464L8.35355 7.64645L7.64645 8.35355ZM15.6464 16.3536L23.6464 24.3536L24.3536 23.6464L16.3536 15.6464L15.6464 16.3536ZM8.35355 24.3536L16.3536 16.3536L15.6464 15.6464L7.64645 23.6464L8.35355 24.3536ZM16.3536 16.3536L24.3536 8.35355L23.6464 7.64645L15.6464 15.6464L16.3536 16.3536Z" fill="url(#paint0_linear_7913_64538)"/>
<defs>
<linearGradient id="paint0_linear_7913_64538" x1="8" y1="16" x2="24" y2="16" gradientUnits="userSpaceOnUse">
<stop stop-color="#FFA800"/>
<stop offset="1" stop-color="#FF5107"/>
</linearGradient>
</defs>
</svg>
