<svg xmlns="http://www.w3.org/2000/svg" width="24" height="24" viewBox="0 0 24 24">
  <path fill="#6B748C" fill-rule="evenodd" d="M2.41841888,2.41841888 C2.94349356,1.89334421 3.77561726,1.86245746 4.33681535,2.32575865 L4.43872397,2.41841888 L12,9.98 L19.561276,2.41841888 C20.0863507,1.89334421 20.9184744,1.86245746 21.4796725,2.32575865 L21.5815811,2.41841888 C22.1066558,2.94349356 22.1375425,3.77561726 21.6742414,4.33681535 L21.5815811,4.43872397 L14.02,12 L21.5815811,19.561276 C22.1066558,20.0863507 22.1375425,20.9184744 21.6742414,21.4796725 L21.5815811,21.5815811 C21.0565064,22.1066558 20.2243827,22.1375425 19.6631847,21.6742414 L19.561276,21.5815811 L12,14.02 L4.43872397,21.5815811 C3.9136493,22.1066558 3.0815256,22.1375425 2.52032751,21.6742414 L2.41841888,21.5815811 C1.89334421,21.0565064 1.86245746,20.2243827 2.32575865,19.6631847 L2.41841888,19.561276 L9.98,12 L2.41841888,4.43872397 C1.89334421,3.9136493 1.86245746,3.0815256 2.32575865,2.52032751 L2.41841888,2.41841888 Z"/>
</svg>
