<svg xmlns="http://www.w3.org/2000/svg" viewBox="0 0 48 48"><defs><style>.a{fill:#d4daf0;opacity:0.32;}.a,.c{fill-rule:evenodd;}.b{fill:#d5dbe9;}.c{fill:#fff;}</style></defs><title>Empty State_Light</title><path class="a" d="M4,10.7,25.12,7a1,1,0,0,1,.75.16l8,5.61a1,1,0,0,1,.41.65l5,28.5a1,1,0,0,1-.81,1.16L10.58,48a1,1,0,0,1-1.16-.81L3.2,11.86A1,1,0,0,1,4,10.7Z"/><path class="b" d="M24.12,6a1,1,0,0,1,.75.16l8,5.61a1,1,0,0,1,.41.65l5,28.5a1,1,0,0,1-.81,1.16L9.58,47a1,1,0,0,1-1.16-.81L2.2,10.86A1,1,0,0,1,3,9.7ZM24,5,2.83,8.72A2,2,0,0,0,1.21,11L7.44,46.35A2,2,0,0,0,9.75,48l27.93-4.92a2,2,0,0,0,1.62-2.32l-5-28.51a2,2,0,0,0-.83-1.29l-8-5.6A2,2,0,0,0,24,5Z"/><path class="b" d="M37.52,1a1,1,0,0,1,.71.29l6.91,6.92a1,1,0,0,1,.3.7v29a1,1,0,0,1-1,1H16.08a1,1,0,0,1-1-1V2a1,1,0,0,1,1-1Zm0-1H16.08a2,2,0,0,0-2,2V37.86a2,2,0,0,0,2,2H44.44a2,2,0,0,0,2-2V8.91a2,2,0,0,0-.59-1.41L38.94.59A2,2,0,0,0,37.52,0Z"/><path class="c" d="M16.08,1H37.52a1,1,0,0,1,.71.29l6.91,6.92a1,1,0,0,1,.3.7v29a1,1,0,0,1-1,1H16.08a1,1,0,0,1-1-1V2A1,1,0,0,1,16.08,1Z"/><path class="a" d="M45.71,9H38.52a.82.82,0,0,1-.81-.82V1"/><path class="b" d="M38.21,1V8.08a.4.4,0,0,0,.34.41h7.16v1H38.62a1.42,1.42,0,0,1-1.41-1.28V1Z"/><path class="b" d="M30.45,9.5a.5.5,0,0,1,.09,1H21.71a.5.5,0,0,1-.5-.5.49.49,0,0,1,.41-.49h8.83Zm6.19,5a.5.5,0,0,1,.09,1h-15a.5.5,0,0,1-.5-.5.5.5,0,0,1,.41-.49h15Zm0,5a.5.5,0,0,1,.09,1h-15a.5.5,0,0,1-.5-.5.5.5,0,0,1,.41-.49h15Zm0,5a.5.5,0,0,1,.09,1h-15a.5.5,0,0,1-.5-.5.5.5,0,0,1,.41-.49h15Zm-6,5a.5.5,0,0,1,.09,1h-9a.5.5,0,0,1-.09-1h9Z"/></svg>