<svg xmlns="http://www.w3.org/2000/svg" viewBox="0 0 45.26 48.05"><defs><style>.a{fill:#9db0ff;opacity:0.12;}.a,.c{fill-rule:evenodd;}.b{fill:#4e5880;}.c{fill:#191e2c;}</style></defs><title>Empty State_Dark</title><path class="a" d="M3.31,10.75,24.42,7a1,1,0,0,1,.75.16l8,5.61a1,1,0,0,1,.41.65l5,28.5a1,1,0,0,1-.81,1.16L9.88,48a1,1,0,0,1-1.16-.81L2.5,11.91A1,1,0,0,1,3.31,10.75Z" transform="translate(-0.48)"/><path class="b" d="M23.42,6a1,1,0,0,1,.75.16l8,5.61a1,1,0,0,1,.41.65l5,28.5a1,1,0,0,1-.81,1.16L8.88,47a1,1,0,0,1-1.16-.81L1.5,10.86A1,1,0,0,1,2.31,9.7Zm-.17-1L2.13,8.72A2,2,0,0,0,.51,11L6.74,46.35A2,2,0,0,0,9.05,48L37,43.05a2,2,0,0,0,1.62-2.32l-5-28.51a2,2,0,0,0-.82-1.29l-8-5.6A2,2,0,0,0,23.25,5Z" transform="translate(-0.48)"/><path class="b" d="M36.82,1a1,1,0,0,1,.71.29l6.91,6.92a1,1,0,0,1,.3.7v29a1,1,0,0,1-1,1H15.38a1,1,0,0,1-1-1V2a1,1,0,0,1,1-1Zm0-1H15.38a2,2,0,0,0-2,2V37.86a2,2,0,0,0,2,2H43.74a2,2,0,0,0,2-2V8.91a2,2,0,0,0-.59-1.41L38.24.59A2,2,0,0,0,36.82,0Z" transform="translate(-0.48)"/><path class="c" d="M15.38,1H36.82a1,1,0,0,1,.71.29l6.91,6.92a1,1,0,0,1,.3.7v29a1,1,0,0,1-1,1H15.38a1,1,0,0,1-1-1V2A1,1,0,0,1,15.38,1Z" transform="translate(-0.48)"/><path class="a" d="M45,9H37.82A.82.82,0,0,1,37,8.18V1" transform="translate(-0.48)"/><path class="b" d="M37.51,1V8.08a.41.41,0,0,0,.34.41H45v1H37.93a1.42,1.42,0,0,1-1.42-1.28V1Z" transform="translate(-0.48)"/><path class="b" d="M29.75,9.5a.5.5,0,0,1,.09,1H21a.5.5,0,0,1-.5-.5.49.49,0,0,1,.41-.49h8.83Zm6.19,5a.5.5,0,0,1,.09,1h-15a.5.5,0,0,1-.5-.5.5.5,0,0,1,.41-.49h15Zm0,5a.5.5,0,0,1,.09,1h-15a.5.5,0,0,1-.5-.5.5.5,0,0,1,.41-.49h15Zm0,5a.5.5,0,0,1,.09,1h-15a.5.5,0,0,1-.5-.5.5.5,0,0,1,.41-.49h15Zm-6,5a.5.5,0,0,1,.5.5.49.49,0,0,1-.41.49h-9a.5.5,0,0,1-.5-.5.5.5,0,0,1,.41-.49h9Z" transform="translate(-0.48)"/></svg>