<?xml version="1.0" encoding="UTF-8"?>
<svg width="10px" height="10px" viewBox="0 0 10 10" version="1.1" xmlns="http://www.w3.org/2000/svg" xmlns:xlink="http://www.w3.org/1999/xlink">
    <path fill="#4276E6" d="M3.94555309,1.2195122 C4.23741089,1.2195122 4.47400838,1.45610969 4.47400838,1.74796748 C4.47400838,2.02158416 4.26606136,2.24663222 3.99958457,2.27369441 L3.94555309,2.27642276 L1.55826558,2.27642276 C1.29868052,2.27642276 1.0851734,2.47370583 1.05949901,2.72651714 L1.05691057,2.77777778 L1.05691057,8.44173442 C1.05691057,8.70131948 1.25419363,8.9148266 1.50700494,8.94050099 L1.55826558,8.94308943 L7.22222222,8.94308943 C7.48180728,8.94308943 7.69531441,8.74580637 7.7209888,8.49299506 L7.72357724,8.44173442 L7.72357724,6.05444691 C7.72357724,5.76258911 7.96017473,5.52599162 8.25203252,5.52599162 C8.5256492,5.52599162 8.75069726,5.73393864 8.77775945,6.00041543 L8.7804878,6.05444691 L8.7804878,8.44173442 C8.7804878,9.27544679 8.12575094,9.95623717 7.30241036,9.99797239 L7.22222222,10 L1.55826558,10 C0.724553213,10 0.0437628321,9.34526313 0.00202760551,8.52192256 L-5.5659181e-14,8.44173442 L-5.5659181e-14,2.77777778 C-5.5659181e-14,1.94406541 0.654736869,1.26327503 1.47807744,1.2215398 L1.55826558,1.2195122 L3.94555309,1.2195122 Z M9.47154472,2.21748545e-13 L9.4845671,0.000159475591 C9.5036905,0.000627932268 9.52279332,0.00212845124 9.54178486,0.00466103249 L9.47154472,2.21748545e-13 C9.51053062,2.21748545e-13 9.54853051,0.0042216557 9.58511216,0.012232756 C9.59793501,0.0150808374 9.61097839,0.0184539282 9.62390257,0.0223321379 C9.63879235,0.0267667618 9.65349066,0.0319127599 9.66787673,0.0376729614 C9.68143208,0.0430955743 9.69475143,0.0490680602 9.70785524,0.0556192821 C9.72139107,0.0624312878 9.73452731,0.0697348157 9.747305,0.0775662575 C9.76045783,0.085552609 9.77375162,0.0945289527 9.78670393,0.104175202 C9.79672299,0.111682643 9.8063139,0.119357448 9.81562337,0.127350768 C9.82545833,0.1357652 9.83548142,0.145043354 9.84521903,0.154780969 L9.85322916,0.162965492 C9.86511775,0.175377508 9.87640687,0.18836833 9.88705001,0.201891442 L9.84521903,0.154780969 C9.87779385,0.187355788 9.90522696,0.223125256 9.92751835,0.261080867 C9.93699626,0.277267797 9.94584466,0.294354456 9.95375803,0.31195254 C9.95735091,0.319964636 9.96039151,0.327205995 9.96326369,0.334498333 C9.97140793,0.355007581 9.97851887,0.377011874 9.98417699,0.399592328 C9.98715878,0.411674166 9.98977654,0.423967307 9.99195286,0.436322987 C9.99417861,0.448696731 9.99595828,0.461491339 9.99727164,0.474423802 L9.99870444,0.491359808 C9.99924342,0.499065838 9.99961423,0.506781427 9.99981687,0.514500611 L10,0.528455285 L10,3.79065041 C10,4.0825082 9.76340251,4.31910569 9.47154472,4.31910569 C9.19792803,4.31910569 8.97287998,4.11115868 8.94581779,3.84468189 L8.94308943,3.79065041 L8.943,1.804 L4.56066619,6.18668245 C4.35429156,6.39305707 4.01969218,6.39305707 3.81331755,6.18668245 C3.62070124,5.99406613 3.60786015,5.6897518 3.77479429,5.48224242 L3.81331755,5.43933381 L8.195,1.056 L6.20934959,1.05691057 C5.93573291,1.05691057 5.71068486,0.848963556 5.68362266,0.582486768 L5.68089431,0.528455285 C5.68089431,0.254838602 5.88884132,0.0297905468 6.15531811,0.00272835506 L6.20934959,2.21748545e-13 L9.47154472,2.21748545e-13 Z" id="Combined-Shape"></path>
</svg>
