<svg id="Layer_1" data-name="Layer 1" xmlns="http://www.w3.org/2000/svg" viewBox="0 0 1366 168.33"><defs><style>.cls-1{fill:#ffba24;}.cls-1,.cls-2,.cls-3,.cls-4,.cls-5{fill-rule:evenodd;}.cls-2{fill:#0f121a;}.cls-3{fill:#1e7dfa;}.cls-4{fill:#a8dcff;}.cls-5{fill:#ffeeb0;}</style></defs><g id="Symbols"><g id="Layout-_-Desktop-_-02-Features" data-name="Layout-/-Desktop-/-02-Features"><g id="Group"><path id="Path" class="cls-1" d="M1234,12.81c47.38,1.58,85.29,38.63,85.29,84.11S1281.39,179.44,1234,181Z" transform="translate(-1 -12.81)"/><polygon id="Rectangle" class="cls-2" points="1082.61 85.21 1115.13 52.74 1148.17 85.73 1115.65 118.21 1082.61 85.21"/><path id="Combined-Shape" class="cls-3" d="M999.5,12.92A84.11,84.11,0,1,1,915.39,97,84.11,84.11,0,0,1,999.5,12.92Zm0,43.07c-23.41,0-42.39,18.67-42.39,41.71s19,41.72,42.39,41.72,42.39-18.68,42.39-41.72S1022.91,56,999.5,56Z" transform="translate(-1 -12.81)"/><path id="Path-Copy-2" class="cls-4" d="M832.12,181c-47.39-1.59-85.29-38.64-85.29-84.11s37.9-82.53,85.29-84.11Z" transform="translate(-1 -12.81)"/><path id="Path-Copy-6" class="cls-5" d="M1234,181c-47.39-1.59-85.3-38.64-85.3-84.11s37.91-82.53,85.3-84.11Z" transform="translate(-1 -12.81)"/><polygon id="Path-Copy" class="cls-2" points="699.62 52.44 746.34 82.28 699.62 113.44 699.62 52.44"/><polygon id="Path-Copy-5" class="cls-2" points="1319.27 52.44 1366 82.28 1319.27 113.44 1319.27 52.44"/><path id="Path-Copy-2-2" data-name="Path-Copy-2" class="cls-3" d="M832.12,12.81C878.19,14.39,915,51.44,915,96.92S878.19,179.44,832.12,181Z" transform="translate(-1 -12.81)"/><path id="Path-Copy-3" class="cls-1" d="M615.4,12.81c47.39,1.58,85.29,38.63,85.29,84.11S662.79,179.44,615.4,181Z" transform="translate(-1 -12.81)"/><path id="Path-Copy-4" class="cls-1" d="M532.29,12.81c46.07,1.58,82.92,38.63,82.92,84.11S578.36,179.44,532.29,181Z" transform="translate(-1 -12.81)"/><path id="Path-2" data-name="Path" class="cls-5" d="M532.29,181C484.9,179.44,447,142.39,447,96.92s37.91-82.53,85.3-84.11Z" transform="translate(-1 -12.81)"/><polygon id="Rectangle-2" data-name="Rectangle" class="cls-2" points="379.86 85.28 412.9 52.28 445.94 85.28 412.9 118.27 379.86 85.28"/><path id="Combined-Shape-2" data-name="Combined-Shape" class="cls-3" d="M296.75,12.92A84.11,84.11,0,1,1,212.64,97,84.11,84.11,0,0,1,296.75,12.92Zm0,43.07c-23.41,0-42.39,18.67-42.39,41.71s19,41.72,42.39,41.72,42.39-18.68,42.39-41.72S320.16,56,296.75,56Z" transform="translate(-1 -12.81)"/><path id="Path-Copy-2-3" data-name="Path-Copy-2" class="cls-4" d="M47.29,12.81c45.81,1.58,82.46,38.63,82.46,84.11S93.1,179.44,47.29,181Z" transform="translate(-1 -12.81)"/><polygon id="Path-Copy-2-4" data-name="Path-Copy" class="cls-2" points="0 53.61 46.73 83.45 0 114.61 0 53.61"/><path id="Path-Copy-2-5" data-name="Path-Copy-2" class="cls-3" d="M130.4,12.81c45.82,1.58,82.46,38.63,82.46,84.11S176.22,179.44,130.4,181Z" transform="translate(-1 -12.81)"/></g></g></g></svg>