<?xml version="1.0" encoding="UTF-8"?>
<svg width="585px" height="73px" viewBox="0 0 585 73" version="1.1" xmlns="http://www.w3.org/2000/svg" xmlns:xlink="http://www.w3.org/1999/xlink">
    <title>Group</title>
    <g id="Symbols" stroke="none" stroke-width="1" fill="none" fill-rule="evenodd">
        <g id="Layout-/-Desktop-/-02-Features" transform="translate(-2.000000, -787.000000)">
            <g id="Group" transform="translate(2.000000, 787.000000)">
                <path d="M564.453724,72 C544.170826,71.3219895 527.946682,55.4637007 527.946682,36 C527.946682,16.5362993 544.170826,0.678010526 564.453724,-1.8189894e-12 L564.453724,72 Z" id="Path" fill="#FFBA24" transform="translate(546.200203, 36.000000) rotate(-180.000000) translate(-546.200203, -36.000000) "></path>
                <polygon id="Rectangle" fill="#0F121A" transform="translate(477.409594, 36.584231) rotate(-45.000000) translate(-477.409594, -36.584231) " points="467.568114 26.5842309 487.237701 26.5973919 487.251075 46.5842309 467.581487 46.5710699"></polygon>
                <path d="M427.379549,0.0480959905 C447.2618,0.0480959905 463.379549,16.165845 463.379549,36.048096 C463.379549,55.930347 447.2618,72.048096 427.379549,72.048096 C407.497298,72.048096 391.379549,55.930347 391.379549,36.048096 C391.379549,16.165845 407.497298,0.0480959905 427.379549,0.0480959905 Z M427.379549,18.480096 C417.358894,18.480096 409.235549,26.4744995 409.235549,36.336096 C409.235549,46.1976925 417.358894,54.192096 427.379549,54.192096 C437.400203,54.192096 445.523549,46.1976925 445.523549,36.336096 C445.523549,26.4744995 437.400203,18.480096 427.379549,18.480096 Z" id="Combined-Shape" fill="#1E7DFA"></path>
                <path d="M355.886591,72 C335.603693,71.3219895 319.379549,55.4637007 319.379549,36 C319.379549,16.5362993 335.603693,0.678010526 355.886591,-4.54747351e-13 L355.886591,72 Z" id="Path-Copy-2" fill="#A8DCFF"></path>
                <path d="M527.946682,72 C507.663783,71.3219895 491.43964,55.4637007 491.43964,36 C491.43964,16.5362993 507.663783,0.678010526 527.946682,-4.54747351e-13 L527.946682,72 Z" id="Path-Copy-6" fill="#FFEEB0"></path>
                <polygon id="Path-Copy" fill="#0F121A" transform="translate(309.379549, 35.500000) rotate(90.000000) translate(-309.379549, -35.500000) " points="296.323993 45.5 309.096545 25.5 322.435104 45.5"></polygon>
                <polygon id="Path-Copy-5" fill="#0F121A" transform="translate(574.453724, 35.500000) rotate(90.000000) translate(-574.453724, -35.500000) " points="561.398168 45.5 574.17072 25.5 587.50928 45.5"></polygon>
                <path d="M391.379549,72 C371.660064,71.3219895 355.886591,55.4637007 355.886591,36 C355.886591,16.5362993 371.660064,0.678010526 391.379549,1.8189894e-12 L391.379549,72 Z" id="Path-Copy-2" fill="#1E7DFA" transform="translate(373.633070, 36.000000) rotate(-180.000000) translate(-373.633070, -36.000000) "></path>
                <path d="M299.379549,72 C279.096651,71.3219895 262.872507,55.4637007 262.872507,36 C262.872507,16.5362993 279.096651,0.678010526 299.379549,-4.54747351e-13 L299.379549,72 Z" id="Path-Copy-3" fill="#FFBA24" transform="translate(281.126028, 36.000000) rotate(-180.000000) translate(-281.126028, -36.000000) "></path>
                <path d="M262.872507,72 C243.153022,71.3219895 227.379549,55.4637007 227.379549,36 C227.379549,16.5362993 243.153022,0.678010526 262.872507,-4.54747351e-13 L262.872507,72 Z" id="Path-Copy-4" fill="#FFBA24" transform="translate(245.126028, 36.000000) rotate(-180.000000) translate(-245.126028, -36.000000) "></path>
                <path d="M227.379549,72 C207.096651,71.3219895 190.872507,55.4637007 190.872507,36 C190.872507,16.5362993 207.096651,0.678010526 227.379549,-4.54747351e-13 L227.379549,72 Z" id="Path" fill="#FFEEB0"></path>
                <polygon id="Rectangle" fill="#0F121A" transform="translate(176.730371, 36.500000) rotate(-45.000000) translate(-176.730371, -36.500000) " points="166.730371 26.5 186.716782 26.513161 186.730371 46.5 166.74396 46.486839"></polygon>
                <path d="M126.588235,0.0480959905 C146.470486,0.0480959905 162.588235,16.165845 162.588235,36.048096 C162.588235,55.930347 146.470486,72.048096 126.588235,72.048096 C106.705984,72.048096 90.5882353,55.930347 90.5882353,36.048096 C90.5882353,16.165845 106.705984,0.0480959905 126.588235,0.0480959905 Z M126.588235,18.480096 C116.567581,18.480096 108.444235,26.4744995 108.444235,36.336096 C108.444235,46.1976925 116.567581,54.192096 126.588235,54.192096 C136.60889,54.192096 144.732235,46.1976925 144.732235,36.336096 C144.732235,26.4744995 136.60889,18.480096 126.588235,18.480096 Z" id="Combined-Shape" fill="#1E7DFA"></path>
                <path d="M55.2941176,72 C35.6851065,71.3219895 20,55.4637007 20,36 C20,16.5362993 35.6851065,0.678010526 55.2941176,-1.8189894e-12 L55.2941176,72 Z" id="Path-Copy-2" fill="#A8DCFF" transform="translate(37.647059, 36.000000) rotate(-180.000000) translate(-37.647059, -36.000000) "></path>
                <polygon id="Path-Copy" fill="#0F121A" transform="translate(10.000000, 36.000000) rotate(90.000000) translate(-10.000000, -36.000000) " points="-3.05555556 46 9.71699626 26 23.0555556 46"></polygon>
                <path d="M90.5882353,72 C70.9792242,71.3219895 55.2941176,55.4637007 55.2941176,36 C55.2941176,16.5362993 70.9792242,0.678010526 90.5882353,-4.54747351e-13 L90.5882353,72 Z" id="Path-Copy-2" fill="#1E7DFA" transform="translate(72.941176, 36.000000) rotate(-180.000000) translate(-72.941176, -36.000000) "></path>
            </g>
        </g>
    </g>
</svg>