<?xml version="1.0" encoding="UTF-8"?>
<svg width="232px" height="66px" viewBox="0 0 232 66" version="1.1" xmlns="http://www.w3.org/2000/svg" xmlns:xlink="http://www.w3.org/1999/xlink">
    <title>Group 4</title>
    <g id="Symbols" stroke="none" stroke-width="1" fill="none" fill-rule="evenodd">
        <g id="Layout-/-Desktop-/-05-Ready-to-Trade" transform="translate(-1210.000000, -72.000000)">
            <g id="Group" transform="translate(720.500000, 165.000000) rotate(-270.000000) translate(-720.500000, -165.000000) translate(625.000000, -556.000000)">
                <g id="Group-4" transform="translate(3.000000, 0.417359)">
                    <path d="M32,0.133777032 C49.673112,0.133777032 64,14.460665 64,32.133777 C64,49.806889 49.673112,64.133777 32,64.133777 C14.326888,64.133777 1.8189894e-12,49.806889 1.8189894e-12,32.133777 C1.8189894e-12,14.460665 14.326888,0.133777032 32,0.133777032 Z M32,16.7913113 C23.0423953,16.7913113 15.7808219,23.8566259 15.7808219,32.5721332 C15.7808219,41.2876405 23.0423953,48.3529551 32,48.3529551 C40.9576047,48.3529551 48.2191781,41.2876405 48.2191781,32.5721332 C48.2191781,23.8566259 40.9576047,16.7913113 32,16.7913113 Z" id="Combined-Shape" fill="#FFBA24" transform="translate(32.000000, 32.133777) rotate(-270.000000) translate(-32.000000, -32.133777) "></path>
                    <polygon id="Rectangle" fill="#0F121A" transform="translate(32.004297, 75.447486) rotate(-45.000000) translate(-32.004297, -75.447486) " points="24.0042974 67.4474855 39.9566426 67.4947982 40.0042974 83.4474855 24.0519523 83.4001728"></polygon>
                    <path d="M48.4776119,167.477612 C30.4334194,166.874936 16,152.778679 16,135.477612 C16,118.176545 30.4334194,104.080288 48.4776119,103.477612 L48.4776119,167.477612 Z" id="Path-Copy-2" fill="#1E7DFA" transform="translate(32.238806, 135.477612) rotate(-90.000000) translate(-32.238806, -135.477612) "></path>
                    <path d="M48.5223881,215.477612 C31.0089071,214.874936 17,200.778679 17,183.477612 C17,166.176545 31.0089071,152.080288 48.5223881,151.477612 L48.5223881,215.477612 Z" id="Path" fill="#A8DCFF" transform="translate(32.761194, 183.477612) rotate(-270.000000) translate(-32.761194, -183.477612) "></path>
                    <path d="M48.5223881,247 C31.0089071,246.397324 17,232.301067 17,215 C17,197.698933 31.0089071,183.602676 48.5223881,183 L48.5223881,247 Z" id="Path" fill="#1E7DFA" transform="translate(32.761194, 215.000000) rotate(-90.000000) translate(-32.761194, -215.000000) "></path>
                    <polygon id="Path-Copy" fill="#0F121A" transform="translate(32.580645, 159.716418) rotate(-180.000000) translate(-32.580645, -159.716418) " points="22 167.716418 32.3512898 151.716418 43.1612903 167.716418"></polygon>
                    <path d="M48.4776119,135 C30.4334194,134.397324 16,120.301067 16,103 C16,85.6989327 30.4334194,71.602676 48.4776119,71 L48.4776119,135 Z" id="Path-Copy-8" fill="#A8DCFF" transform="translate(32.238806, 103.000000) rotate(-90.000000) translate(-32.238806, -103.000000) "></path>
                </g>
            </g>
        </g>
    </g>
</svg>