<svg xmlns="http://www.w3.org/2000/svg" width="383" height="66" viewBox="0 0 383 66">
  <g fill="none" fill-rule="evenodd" transform="rotate(-180 191.457 32.755)">
    <path fill="#FFBA24" d="M382.066955,64.6377433 C363.858055,64.0290617 349.292888,49.7923395 349.292888,32.3188716 C349.292888,14.8454037 363.858055,0.608681532 382.066955,-1.1155521e-12 L382.066955,64.6377433 Z" transform="rotate(-180 365.68 32.319)"/>
    <path fill="#FFEEB0" d="M349.292888,64.6377433 C331.083988,64.0290617 316.518821,49.7923395 316.518821,32.3188716 C316.518821,14.8454037 331.083988,0.608681532 349.292888,-1.1155521e-12 L349.292888,64.6377433 Z"/>
    <path fill="#FFEEB0" d="M284.970734,64.6377433 C267.366814,64.0290617 253.285566,49.7923395 253.285566,32.3188716 C253.285566,14.8454037 267.366814,0.608681532 284.970734,0 L284.970734,64.6377433 Z" transform="rotate(-180 269.128 32.319)"/>
    <polygon fill="#0F121A" points="232.588 41.296 244.054 23.341 256.029 41.296" transform="rotate(90 244.308 32.319)"/>
    <path fill="#FFBA24" d="M316.655902,64.6377433 C299.051982,64.0290617 284.970734,49.7923395 284.970734,32.3188716 C284.970734,14.8454037 299.051982,0.608681532 316.655902,1.22474344e-12 L316.655902,64.6377433 Z" transform="rotate(-180 300.813 32.319)"/>
    <path fill="#1E7DFA" d="M63.6730008,64.7588144 C45.9850026,64.1501329 31.8365004,49.9134107 31.8365004,32.4399428 C31.8365004,14.9664749 45.9850026,0.729752669 63.6730008,0.121071137 L63.6730008,64.7588144 Z" transform="rotate(-180 47.755 32.44)"/>
    <path fill="#A8DCFF" d="M31.8365004,64.7588144 C14.1485022,64.1501329 -4.30573865e-13,49.9134107 -4.30573865e-13,32.4399428 C-4.30573865e-13,14.9664749 14.1485022,0.729752669 31.8365004,0.121071137 L31.8365004,64.7588144 Z"/>
    <path fill="#FFBA24" d="M121.746092,0.362256746 C139.595312,0.362256746 154.064964,14.8319084 154.064964,32.6811284 C154.064964,50.5303483 139.595312,65 121.746092,65 C103.896873,65 89.4272209,50.5303483 89.4272209,32.6811284 C89.4272209,14.8319084 103.896873,0.362256746 121.746092,0.362256746 Z M121.746092,16.909519 C112.750086,16.909519 105.457381,24.0864663 105.457381,32.9396793 C105.457381,41.7928924 112.750086,48.9698397 121.746092,48.9698397 C130.742099,48.9698397 138.034804,41.7928924 138.034804,32.9396793 C138.034804,24.0864663 130.742099,16.909519 121.746092,16.909519 Z" transform="rotate(90 121.746 32.681)"/>
    <polygon fill="#0F121A" points="151.169 41.861 162.785 23.906 174.916 41.861" transform="rotate(90 163.042 32.884)"/>
    <path fill="#1E7DFA" d="M235.692894,64.7588144 C218.004895,64.1501329 203.856393,49.9134107 203.856393,32.4399428 C203.856393,14.9664749 218.004895,0.729752669 235.692894,0.121071137 L235.692894,64.7588144 Z" transform="rotate(-180 219.775 32.44)"/>
    <path fill="#A8DCFF" d="M203.856393,64.7588144 C186.168395,64.1501329 172.019893,49.9134107 172.019893,32.4399428 C172.019893,14.9664749 186.168395,0.729752669 203.856393,0.121071137 L203.856393,64.7588144 Z" transform="rotate(-180 187.938 32.44)"/>
    <polygon fill="#0F121A" points="67.592 23.466 85.528 23.448 85.508 41.897 67.573 41.915" transform="rotate(135 76.55 32.681)"/>
  </g>
</svg>
