<?xml version="1.0" encoding="UTF-8"?>
<svg width="231px" height="66px" viewBox="0 0 231 66" version="1.1" xmlns="http://www.w3.org/2000/svg" xmlns:xlink="http://www.w3.org/1999/xlink">
    <title>Group 3</title>
    <g id="Symbols" stroke="none" stroke-width="1" fill="none" fill-rule="evenodd">
        <g id="Layout-/-Desktop-/-05-Ready-to-Trade" transform="translate(1.000000, -195.000000)">
            <g id="Group" transform="translate(720.500000, 165.000000) rotate(-270.000000) translate(-720.500000, -165.000000) translate(625.000000, -556.000000)">
                <g id="Group-3" transform="translate(125.738685, 1211.718451)">
                    <path d="M48.4742921,214.07487 C30.9608111,213.472194 16.951904,199.375938 16.951904,182.07487 C16.951904,164.773803 30.9608111,150.677546 48.4742921,150.07487 L48.4742921,214.07487 Z" id="Path" fill="#1E7DFA" transform="translate(32.713098, 182.074870) rotate(-270.000000) translate(-32.713098, -182.074870) "></path>
                    <path d="M48.4742921,245.597258 C30.9608111,244.994582 16.951904,230.898326 16.951904,213.597258 C16.951904,196.296191 30.9608111,182.199934 48.4742921,181.597258 L48.4742921,245.597258 Z" id="Path" fill="#A8DCFF" transform="translate(32.713098, 213.597258) rotate(-90.000000) translate(-32.713098, -213.597258) "></path>
                    <path d="M33,80 C50.673112,80 65,94.326888 65,112 C65,129.673112 50.673112,144 33,144 C15.326888,144 1,129.673112 1,112 C1,94.326888 15.326888,80 33,80 Z M33,96.384 C24.0927516,96.384 16.872,103.490136 16.872,112.256 C16.872,121.021864 24.0927516,128.128 33,128.128 C41.9072484,128.128 49.128,121.021864 49.128,112.256 C49.128,103.490136 41.9072484,96.384 33,96.384 Z" id="Combined-Shape" fill="#1E7DFA"></path>
                    <polygon id="Path-Copy" fill="#0F121A" points="21.761194 79.7164179 32.1124838 63.7164179 42.9224844 79.7164179"></polygon>
                    <path d="M48.5223881,48.4776119 C31.0089071,47.8749359 17,33.7786792 17,16.4776119 C17,-0.823455353 31.0089071,-14.919712 48.5223881,-15.5223881 L48.5223881,48.4776119 Z" id="Path-Copy-3" fill="#FFBA24" transform="translate(32.761194, 16.477612) rotate(-270.000000) translate(-32.761194, -16.477612) "></path>
                    <path d="M48.5223881,80 C31.0089071,79.397324 17,65.3010673 17,48 C17,30.6989327 31.0089071,16.602676 48.5223881,16 L48.5223881,80 Z" id="Path-Copy-9" fill="#FFEEB0" transform="translate(32.761194, 48.000000) rotate(-270.000000) translate(-32.761194, -48.000000) "></path>
                    <polygon id="Rectangle" fill="#0F121A" transform="translate(33.194732, 155.156838) rotate(-315.000000) translate(-33.194732, -155.156838) " points="25.4332295 147.172538 40.9728836 147.156838 40.9562342 163.141138 25.41658 163.156838"></polygon>
                </g>
            </g>
        </g>
    </g>
</svg>