<svg xmlns="http://www.w3.org/2000/svg" width="24" height="24" viewBox="0 0 24 24">
  <path fill="#6B748C" fill-rule="evenodd" d="M14.9931545,17 C15.5102729,17 15.935176,17.3860402 15.993238,17.8833789 L16,18 L15.9932262,18.1173326 C15.9395396,18.5788223 15.5727985,18.9404263 15.110574,18.993327 L14.9931545,19 L3.00684547,19 C2.48972709,19 2.06482405,18.6139598 2.00676197,18.1166211 L2,18 L2.00677379,17.8826674 C2.06046044,17.4211777 2.42720153,17.0595737 2.88942602,17.006673 L3.00684547,17 L14.9931545,17 Z M21.0081969,11 C21.5063732,11 21.9345421,11.3860402 21.9931674,11.8833789 L22,12 L21.9933274,12.1173326 C21.9404428,12.5788223 21.5791809,12.9404263 21.1238621,12.993327 L21.0081969,13 L2.99180311,13 C2.49362683,13 2.0654579,12.6139598 2.00683262,12.1166211 L2,12 L2.00667258,11.8826674 C2.05955715,11.4211777 2.4208191,11.0595737 2.87613791,11.006673 L2.99180311,11 L21.0081969,11 Z M14.9931545,5 C15.5102729,5 15.935176,5.38604019 15.993238,5.88337887 L16,6 L15.9932262,6.11733256 C15.9395396,6.57882234 15.5727985,6.94042632 15.110574,6.99332699 L14.9931545,7 L3.00684547,7 C2.48972709,7 2.06482405,6.61395981 2.00676197,6.11662113 L2,6 L2.00677379,5.88266744 C2.06046044,5.42117766 2.42720153,5.05957368 2.88942602,5.00667301 L3.00684547,5 L14.9931545,5 Z"/>
</svg>
