<svg width="24" height="24" viewBox="0 0 24 24" fill="none" xmlns="http://www.w3.org/2000/svg">
<path d="M12 0C5.38286 0 0 5.38286 0 12C0 18.6171 5.38286 24 12 24C18.6171 24 24 18.6171 24 12C24 5.38286 18.6171 0 12 0ZM12 20.5714C7.27371 20.5714 3.42857 16.7263 3.42857 12C3.42857 7.27371 7.27371 3.42857 12 3.42857C16.7263 3.42857 20.5714 7.27371 20.5714 12C20.5714 16.7263 16.7263 20.5714 12 20.5714Z" fill="#444546"/>
<path d="M12 3C7.0374 3 3 7.0374 3 12C3 16.9626 7.0374 21 12 21C16.9626 21 21 16.9626 21 12C21 7.0374 16.9626 3 12 3Z" fill="#6F7073"/>
<path d="M11.9999 6.5C12.2938 6.5 12.5321 6.7383 12.5321 7.03226V7.91935H14.1289C14.4229 7.91935 14.6612 8.15766 14.6612 8.45161C14.6612 8.74557 14.4229 8.98387 14.1289 8.98387H10.9354C10.606 8.98387 10.2901 9.11472 10.0572 9.34763C9.82427 9.58053 9.69342 9.89642 9.69342 10.2258C9.69342 10.5552 9.82427 10.8711 10.0572 11.104C10.2901 11.3369 10.606 11.4677 10.9354 11.4677H13.0644C13.6761 11.4677 14.2628 11.7107 14.6953 12.1433C15.1278 12.5758 15.3708 13.1625 15.3708 13.7742C15.3708 14.3859 15.1278 14.9726 14.6953 15.4051C14.2628 15.8376 13.6761 16.0806 13.0644 16.0806H12.5321V16.9677C12.5321 17.2617 12.2938 17.5 11.9999 17.5C11.7059 17.5 11.4676 17.2617 11.4676 16.9677V16.0806H9.87084C9.57688 16.0806 9.33858 15.8423 9.33858 15.5484C9.33858 15.2544 9.57688 15.0161 9.87084 15.0161H13.0644C13.3938 15.0161 13.7097 14.8853 13.9426 14.6524C14.1755 14.4195 14.3063 14.1036 14.3063 13.7742C14.3063 13.4448 14.1755 13.1289 13.9426 12.896C13.7097 12.6631 13.3938 12.5323 13.0644 12.5323H10.9354C10.3236 12.5323 9.73699 12.2893 9.30445 11.8567C8.87191 11.4242 8.62891 10.8375 8.62891 10.2258C8.62891 9.6141 8.87191 9.02744 9.30445 8.5949C9.73699 8.16236 10.3236 7.91935 10.9354 7.91935H11.4676V7.03226C11.4676 6.7383 11.7059 6.5 11.9999 6.5Z" fill="white"/>
</svg>
