<svg width="1440" height="1294" viewBox="0 0 1440 1294" fill="none" xmlns="http://www.w3.org/2000/svg">
<path d="M-22 1080.19C41.6175 1017.12 223.486 891.183 442.018 892.008C660.55 892.832 706 704.5 680.886 518.475C635.94 185.545 413.307 -78 -22 22.5006M-20.7633 730.051C138.486 792.604 375.874 703.289 413.219 518.475C455.483 309.322 270.626 -14.2996 -20.7633 186.5M413.307 1293C450.926 1159.96 592.114 898.81 855.914 918.538C1119.71 938.267 1241 664.5 1259.19 516C1277.01 370.484 1377.68 73.2 1462 56M1462 509.5C1463.8 614.733 1407.17 720.167 1339.57 799.927C1235.91 922.24 1019.18 948.036 956.148 1099.69C925.481 1173.47 951.343 1241.99 989.259 1293M1271.55 1293C1289.59 1211.15 1352.92 1032.72 1462 973.787" stroke="url(#paint0_linear_7660_141599)" stroke-width="0.5"/>
<defs>
<linearGradient id="paint0_linear_7660_141599" x1="1462.04" y1="646.923" x2="-22" y2="646.923" gradientUnits="userSpaceOnUse">
<stop stop-color="#482BFF"/>
<stop offset="1" stop-color="#007AFF"/>
</linearGradient>
</defs>
</svg>
