<svg width="1440" height="779" viewBox="0 0 1440 779" fill="none" xmlns="http://www.w3.org/2000/svg">
<path d="M-22 565.191C41.6175 502.119 223.486 376.182 442.018 377.007C660.55 377.832 692.318 128.329 680.886 3.47452M-20.7633 215.051C138.486 277.604 448.232 322.863 413.219 3.47455M413.307 778C450.926 644.959 592.114 383.809 855.914 403.538C1119.71 423.266 1234.68 143.399 1259.19 1M1447.1 1C1448.9 106.232 1407.17 205.167 1339.57 284.926C1235.91 407.24 1019.18 433.035 956.148 584.692C925.481 658.47 951.343 726.992 989.259 778M1271.55 778C1289.59 696.15 1352.92 517.718 1462 458.787" stroke="url(#paint0_linear_7660_141599)" stroke-width="0.5"/>
<defs>
<linearGradient id="paint0_linear_7660_141599" x1="1462" y1="389.5" x2="-22" y2="389.5" gradientUnits="userSpaceOnUse">
<stop stop-color="#482BFF"/>
<stop offset="1" stop-color="#007AFF"/>
</linearGradient>
</defs>
</svg>
