<svg width="24" height="24" viewBox="0 0 24 24" fill="none" xmlns="http://www.w3.org/2000/svg">
<circle cx="12" cy="12" r="12" fill="black"/>
<path d="M6.75978 13.371L7.28893 9.39537L2.69922 6.20917L6.89278 7.62966L7.88316 6.11013L11.4995 3.86621L19.4706 8.25784L19.8838 14.9585L16.3325 19.8934L13.5255 20.3235L14.9771 17.6665V15.1084L13.9217 13.1107L12.8492 12.4005L11.1995 14.1011V15.9008L9.91203 17.1062L8.27648 17.3043L7.55209 17.7146L6.36363 17.3354L5.86844 15.5527L6.75978 14.2992V13.371Z" fill="white"/>
<path d="M14.0888 6.17492C13.2144 5.99382 12.258 6.04192 12.258 6.04192C12.258 6.04192 11.9439 7.49354 9.99707 7.87554C10.0112 7.87554 12.5692 8.7499 14.0888 6.17492Z" fill="#94A6C3"/>
<path d="M14.8809 19.3473C15.9363 18.521 16.7286 17.3835 17.0937 16.096C17.1106 16.0479 17.2578 15.963 17.3568 15.8979C17.5209 15.7989 17.6879 15.7168 17.719 15.5839C17.7841 15.2047 17.818 14.8085 17.818 14.4124C17.818 14.2652 17.6681 14.1153 17.5209 13.9681C17.4049 13.8691 17.2889 13.7531 17.2889 13.671C17.1248 12.1685 16.4315 10.765 15.3251 9.74345L15.2091 9.85947C16.2815 10.8668 16.9748 12.2364 17.1248 13.688C17.1418 13.821 17.2719 13.9511 17.4049 14.0841C17.5209 14.1832 17.6539 14.3331 17.6539 14.3982C17.6539 14.7774 17.62 15.1566 17.5549 15.5357C17.5379 15.6008 17.3908 15.6687 17.2748 15.7338C17.1106 15.8159 16.9607 15.8979 16.9295 16.0309C16.5334 17.4344 15.6251 18.6568 14.4196 19.4492C14.6347 18.9879 15.311 17.4854 15.6732 16.7242L15.6081 14.2822L13.5113 12.2534L12.3229 12.4175L11.0184 14.5312C11.0184 14.5312 11.6296 15.3065 10.7694 16.2149C9.92899 17.1062 9.26685 17.3043 9.26685 17.3043L8.65564 16.9732C8.83674 16.7412 9.20177 16.396 9.4819 16.1639C9.96011 15.7678 10.4383 15.7338 10.4383 15.3065C10.4581 14.4124 9.49888 14.6586 9.49888 14.6586L9.15083 14.9896L9.00369 16.212L8.2793 17.1203L8.19724 17.1034L7.00879 16.8402C7.00879 16.8402 7.73601 16.461 7.85202 16.0309C7.96804 15.6178 7.61999 14.2483 7.60302 14.1662C7.61999 14.1832 7.95106 14.4633 8.0982 14.9245C8.36136 14.1973 8.70941 13.5041 8.80845 13.439C8.90748 13.3739 10.2431 12.6637 10.2431 12.6637L9.79882 13.8351L10.1299 13.654L10.9222 11.7072C10.9222 11.7072 11.6975 11.3281 12.2748 11.3281C13.3132 11.3111 14.8497 10.0406 14.1565 7.7627C14.3546 7.84476 17.7869 9.56235 18.3811 12.9296C18.8254 15.5188 17.3568 17.9438 14.8809 19.3473Z" fill="#94A6C3"/>
<path d="M10.953 6.53705C11.3322 6.08997 11.185 5.43066 11.185 5.43066L10.0786 7.06619C10.0617 7.06619 10.472 7.08317 10.953 6.53705Z" fill="#1B314F"/>
<path d="M7.23734 15.4679L7.37033 14.8086C7.37033 14.8086 6.8242 15.765 6.7761 15.898C6.72517 16.048 6.81006 16.3112 7.02228 16.2942C7.23734 16.2772 7.5005 15.9631 7.5005 15.7339C7.5005 15.4368 7.23734 15.4679 7.23734 15.4679Z" fill="#1B314F"/>
<path d="M17.0423 4.96973C17.0423 4.96973 17.8686 5.00368 18.726 5.10272C16.7933 3.5832 14.9625 3.13894 13.4769 3.13894C11.4311 3.13894 10.0446 3.98218 9.95968 4.03028L10.6048 3.00595C10.6048 3.00595 8.02986 2.75694 7.12154 5.48189C6.88951 4.90464 6.67728 4.06141 6.67728 4.06141C6.67728 4.06141 5.33885 5.23571 5.96704 7.18252C4.43053 6.62224 2.23755 5.84409 2.15266 5.82994C2.03664 5.81296 2.00269 5.8639 2.00269 5.8639C2.00269 5.8639 1.96873 5.912 2.06777 5.99689C2.2517 6.1412 5.71803 8.70204 6.47921 9.19723C6.31509 9.79146 6.31509 10.0716 6.47921 10.3517C6.71124 10.7309 6.72539 10.929 6.69426 11.2091C6.6603 11.4893 6.36319 13.9171 6.29811 14.2142C6.23303 14.5113 5.53976 15.5668 5.57089 15.8809C5.60484 16.195 6.03212 17.5306 6.41412 17.6805C6.69426 17.7796 7.38753 17.9946 7.84876 17.9946C8.01288 17.9946 8.16285 17.9607 8.22793 17.8956C8.50807 17.6494 8.59013 17.5985 8.78821 17.5985C8.80518 17.5985 8.82216 17.5985 8.83631 17.5985C8.91837 17.5985 9.01741 17.6155 9.13342 17.6155C9.39658 17.6155 9.74463 17.5645 9.99081 17.3353C10.353 16.9731 10.9812 16.4779 11.1793 16.2459C11.4283 15.9318 11.5584 15.5045 11.4934 15.0744C11.4424 14.6783 11.6575 14.3302 11.9065 13.985C12.2206 13.5719 12.7978 12.8305 12.7978 12.8305C13.9382 13.6851 14.6484 14.9895 14.6484 16.4411C14.6484 19.0161 12.4045 21.0959 9.63144 21.0959C9.20134 21.0959 8.79104 21.0478 8.37791 20.9488C9.64842 21.393 10.7209 21.543 11.5981 21.543C13.4628 21.543 14.4532 20.8667 14.4532 20.8667C14.4532 20.8667 14.108 21.3138 13.5449 21.8232C13.5618 21.8232 13.5618 21.8232 13.5618 21.8232C16.649 21.393 18.1515 18.852 18.1515 18.852C18.1515 18.852 18.0355 19.6783 17.8884 20.2385C21.9942 17.1514 21.3009 13.2889 21.284 13.1587C21.3179 13.2069 21.7311 13.702 21.9433 13.968C22.6054 7.16554 17.0423 4.96973 17.0423 4.96973ZM10.7209 15.8328C10.6558 15.9148 10.3756 16.1638 10.1776 16.3449C9.97949 16.526 9.76444 16.7071 9.60032 16.8741C9.53524 16.9392 9.40224 16.9731 9.20417 16.9731C9.13908 16.9731 9.07117 16.9731 9.02307 16.9731C8.98911 16.9731 8.95798 16.9731 8.92403 16.9731C8.89007 16.9731 8.8731 16.9731 8.85895 16.9731C8.80801 16.9731 8.75991 16.9731 8.70898 16.9731C8.95799 16.6421 9.68238 15.8837 9.93139 15.7196C10.2285 15.5215 10.3785 15.3234 10.1945 14.9782C10.0134 14.6302 9.53523 14.7151 9.53523 14.7151C9.53523 14.7151 9.81537 14.599 10.0644 14.599C9.75029 14.517 9.35414 14.599 9.17304 14.7801C8.97496 14.9612 9.00892 15.6064 8.92686 16.0167C8.8448 16.4468 8.56466 16.6619 8.13455 17.058C7.90252 17.2731 7.7384 17.3381 7.60541 17.3381C7.32527 17.29 6.9942 17.2052 6.76217 17.1231C6.59805 16.908 6.34904 16.1978 6.28396 15.9007C6.33206 15.7366 6.53014 15.3885 6.62918 15.1904C6.82725 14.8113 6.94327 14.5962 6.97723 14.3981C7.04231 14.118 7.25736 12.3834 7.33942 11.659C7.55448 11.9392 7.85159 12.4032 7.78368 12.7003C8.26189 12.0241 7.91667 11.3619 7.74972 11.0988C7.60258 10.8356 7.4045 10.3065 7.56862 9.74618C7.73274 9.18591 8.32697 7.63243 8.32697 7.63243C8.32697 7.63243 8.52505 7.98048 8.80518 7.91257C9.08532 7.84749 11.3462 4.44624 11.3462 4.44624C11.3462 4.44624 11.9574 5.78184 11.3123 6.75807C10.653 7.73147 10.0078 7.91257 10.0078 7.91257C10.0078 7.91257 10.9161 8.07669 11.7565 7.46548C12.1017 8.27476 12.4328 9.11517 12.4498 9.23119C12.3988 9.3472 11.7395 10.9318 11.6745 11.0308C11.6405 11.0648 11.4113 11.1299 11.2443 11.1638C10.9642 11.2459 10.8001 11.2968 10.7322 11.3449C10.6162 11.444 10.087 12.8956 9.84084 13.6058C9.54372 13.6879 9.24661 13.8548 9.03156 14.1831C9.14757 14.101 9.50977 14.0501 9.77576 14.019C10.0078 14.002 10.7152 14.3812 10.8991 15.0914C10.8991 15.1084 10.8991 15.1084 10.8991 15.1254C10.9359 15.3857 10.8539 15.6347 10.7209 15.8328ZM9.17021 16.0308C9.32018 15.8158 9.3032 15.4536 9.32018 15.3376C9.33716 15.2216 9.36829 15.0065 9.50128 14.9754C9.63427 14.9414 9.94837 14.9924 9.94837 15.2216C9.94837 15.4366 9.71633 15.4847 9.55221 15.6347C9.43337 15.7479 9.20134 15.9969 9.17021 16.0308ZM15.7548 12.8758C15.9189 12.0354 15.9359 11.3082 15.8878 10.7139C16.5301 11.5713 16.9263 12.6126 17.0423 13.6851C17.0593 13.8181 17.1895 13.9482 17.3225 14.0812C17.4385 14.1803 17.5715 14.3132 17.5715 14.3953C17.5715 14.7745 17.5375 15.1537 17.4724 15.5357C17.4554 15.5838 17.3083 15.6687 17.1923 15.7337C17.0282 15.8158 16.8782 15.8979 16.8471 16.0308C16.4849 17.3014 15.7067 18.4247 14.6682 19.217C16.2019 17.6155 16.9433 14.9726 15.7548 12.8758ZM14.7163 19.3642C15.7888 18.5379 16.615 17.3834 16.9772 16.079C16.9942 16.0308 17.1414 15.946 17.2404 15.8809C17.4045 15.7988 17.5715 15.6998 17.6026 15.5668C17.6677 15.1876 17.7016 14.7915 17.7016 14.3953C17.7016 14.2482 17.5517 14.0982 17.4045 13.9511C17.3225 13.852 17.1895 13.736 17.1895 13.6539C17.0565 12.4485 16.5783 11.311 15.8369 10.3687C15.5058 8.38795 14.1872 7.77674 14.1532 7.75977C14.1872 7.8107 15.0446 9.04726 14.4503 10.4989C13.8391 11.9675 12.2715 11.7383 12.1385 11.7524C12.0055 11.7524 11.4962 12.4117 10.851 13.6341C10.769 13.6002 10.4209 13.5181 10.0248 13.586C10.3219 12.7598 10.769 11.5883 10.851 11.4893C10.885 11.4553 11.1312 11.3902 11.2981 11.3421C11.6122 11.26 11.7593 11.2091 11.8103 11.144C11.8442 11.0931 12.0084 10.7139 12.1725 10.3178C12.3224 10.3178 12.7016 10.2838 12.7327 10.2668C12.7667 10.2329 13.0808 9.42643 13.0808 9.32739C13.0808 9.24533 12.4356 7.64375 12.1895 7.03254C12.3055 6.89955 12.4215 6.73543 12.5347 6.55433C15.9189 6.91936 18.5618 9.79146 18.5618 13.2719C18.5618 15.946 16.9942 18.2748 14.7163 19.3642Z" fill="#1B314F"/>
<path d="M10.3251 10.4508C10.6392 10.0886 10.4751 9.41231 9.895 9.29629C10.045 8.95108 10.2572 8.25781 10.2572 8.25781C10.2572 8.25781 8.57355 10.8979 8.42641 10.9488C8.27643 10.9997 8.12929 10.4197 8.12929 10.4197C7.8152 11.6251 8.65844 11.7892 8.75748 11.41C9.21871 11.2912 10.011 10.796 10.3251 10.4508Z" fill="#1B314F"/>
<path d="M8.8877 11.0926L9.74509 9.62402C9.74509 9.62402 10.2403 9.87303 9.99128 10.2692C9.68001 10.7304 8.8877 11.0926 8.8877 11.0926Z" fill="#FFD923"/>
<path d="M19.5009 17.8948C19.2519 18.2259 18.9718 18.5711 18.6436 18.9022C20.7714 14.8077 18.7426 11.0612 18.6605 10.9141C18.8105 11.064 18.9576 11.2282 19.0906 11.3753C20.7233 13.1891 20.9214 15.9141 19.5009 17.8948Z" fill="#D82122"/>
<path d="M21.4826 12.6296C20.7384 10.6319 19.6829 8.93124 17.3569 7.39756C15.113 5.91199 12.7021 6.02801 12.5691 6.04499C12.5521 6.04499 12.5352 6.04499 12.5352 6.04499C12.6172 6.01103 12.6993 5.99405 12.7813 5.9799C13.2935 5.81578 13.9528 5.68279 14.615 5.60073C16.3665 5.34889 18.1322 5.94312 19.3377 7.21647C19.3546 7.23344 19.3546 7.23344 19.3716 7.25042C20.7412 8.70204 21.4514 10.5158 21.4826 12.6296Z" fill="#D82122"/>
<path d="M16.8273 4.4576C14.3683 3.99636 12.7837 4.22556 11.6434 4.65567C11.6094 4.52268 11.4934 4.25952 11.3944 4.04447C11.052 4.4576 10.6869 4.95279 10.4577 5.26688C9.82956 5.69699 9.56641 6.11012 9.56641 6.11012C9.9286 4.87073 10.9869 3.94826 12.2744 3.71623C12.6366 3.65114 13.0327 3.61719 13.4628 3.61719C14.6004 3.63417 15.7379 3.9143 16.8273 4.4576Z" fill="#D82122"/>
<path d="M7.73251 7.62656C5.80269 7.56148 6.44502 5.31473 6.47898 5.18457C6.47898 5.20155 6.60914 6.95027 7.73251 7.62656Z" fill="#D82122"/>
<path d="M9.63157 3.58301C8.146 4.47435 8.44311 6.60225 8.44311 6.60225C7.02262 4.44322 9.51555 3.63394 9.63157 3.58301Z" fill="#D82122"/>
<path d="M7.19003 8.22072C7.28906 8.30278 7.3881 8.45276 7.27209 8.66781C7.207 8.78383 7.10796 8.76685 6.95799 8.70177C6.75992 8.60273 5.57146 7.90946 4.49902 7.19922C5.72143 7.62933 6.95799 8.09056 7.15607 8.1896C7.15607 8.1896 7.17305 8.20658 7.19003 8.22072Z" fill="white"/>
</svg>
