<svg width="24" height="24" viewBox="0 0 24 24" fill="none" xmlns="http://www.w3.org/2000/svg">
<circle cx="12" cy="12" r="12" fill="url(#paint0_linear_aave)"/>
<path d="M18.2605 17.7531L13.3624 5.91093C13.0861 5.29867 12.6755 5 12.1341 5H11.7011C11.1597 5 10.7491 5.29867 10.4728 5.91093L8.34106 11.0704H6.72826C6.24667 11.0741 5.85467 11.4624 5.85093 11.9477V11.9589C5.85467 12.4405 6.24667 12.8325 6.72826 12.8363H7.5944L5.55973 17.7531C5.5224 17.8613 5.5 17.9733 5.5 18.0891C5.5 18.3653 5.58587 18.5819 5.73893 18.7499C5.892 18.9179 6.11227 19 6.38853 19C6.57147 18.9963 6.74693 18.9403 6.89253 18.832C7.04933 18.7237 7.1576 18.5669 7.24346 18.3877L9.48346 12.8325H11.0365C11.5181 12.8288 11.9101 12.4405 11.9139 11.9552V11.9328C11.9101 11.4512 11.5181 11.0592 11.0365 11.0555H10.2077L11.9176 6.79573L16.5768 18.384C16.6627 18.5632 16.7709 18.72 16.9277 18.8283C17.0733 18.9365 17.2525 18.9925 17.4317 18.9963C17.708 18.9963 17.9245 18.9141 18.0813 18.7461C18.2381 18.5781 18.3203 18.3616 18.3203 18.0853C18.324 17.9733 18.3053 17.8576 18.2605 17.7531Z" fill="white"/>
<defs>
<linearGradient id="paint0_linear_aave" x1="20.947" y1="4.47174" x2="3.09103" y2="19.4957" gradientUnits="userSpaceOnUse">
<stop stop-color="#B6509E"/>
<stop offset="1" stop-color="#2EBAC6"/>
</linearGradient>
</defs>
</svg>
