<svg width="24" height="24" viewBox="0 0 24 24" fill="none" xmlns="http://www.w3.org/2000/svg">
<circle cx="12" cy="12" r="12" fill="#0033AD"/>
<path fill-rule="evenodd" clip-rule="evenodd" d="M12.3683 5.59863C12.542 5.2687 12.1429 4.86923 11.816 5.04143C11.55 5.14847 11.4825 5.53734 11.6895 5.73408C11.8849 5.93908 12.2674 5.86757 12.3683 5.59863ZM8.72935 5.74416C8.7496 5.52552 8.4982 5.34173 8.2996 5.42431C8.02315 5.4987 7.99248 5.93847 8.26068 6.0434C8.4631 6.1562 8.75043 5.98151 8.72935 5.74416ZM15.5016 6.05007C15.1912 6.01219 15.1421 5.51931 15.4409 5.42007C15.6726 5.3059 15.8853 5.51999 15.9192 5.74188C15.8706 5.93135 15.7135 6.10484 15.5016 6.05007ZM9.85443 7.42939C9.90551 7.03984 9.43173 6.72393 9.0997 6.93605C8.78875 7.09666 8.746 7.57582 9.02815 7.78469C9.31998 8.0506 9.83718 7.82272 9.85443 7.42939ZM14.1683 7.16113C14.3164 6.77552 14.9166 6.76385 15.0852 7.13923C15.2519 7.43135 15.0469 7.7931 14.75 7.89242C14.3567 7.96658 13.9831 7.53711 14.1683 7.16113ZM12 7.26954C11.6882 7.29211 11.3893 7.53908 11.3925 7.87052C11.3748 8.14136 11.5663 8.36257 11.7938 8.47537C11.8167 8.47676 11.8399 8.47862 11.8632 8.48049C11.9917 8.4908 12.1252 8.5015 12.2408 8.43605C12.5396 8.30257 12.6864 7.90211 12.5211 7.61128C12.4323 7.40045 12.2069 7.31143 12 7.26954ZM6.16314 8.35348C6.46645 8.16514 6.87565 8.50886 6.76082 8.84166C6.6976 9.12954 6.3145 9.24666 6.09549 9.06287C5.86172 8.89067 5.89877 8.47666 6.16314 8.35348ZM18.0439 8.71075C18.0745 8.38257 17.6499 8.15105 17.3926 8.35287C17.1285 8.51666 17.1572 8.95386 17.4385 9.08158C17.694 9.23567 18.0611 9.00999 18.0439 8.71075ZM12.8631 8.9487C13.2878 8.79461 13.7922 8.97901 14.0342 9.36143C14.3535 9.82893 14.1836 10.5409 13.6881 10.8092C13.1748 11.1264 12.4251 10.8575 12.2355 10.2784C12.0203 9.75999 12.3339 9.1112 12.8631 8.9487ZM11.703 9.44984C11.4756 8.96355 10.8423 8.7753 10.3716 8.99969C9.87003 9.22598 9.63926 9.89348 9.89913 10.3849C10.1309 10.8931 10.8065 11.1014 11.2854 10.8267C11.7636 10.5823 11.9705 9.92317 11.703 9.44984ZM7.8769 9.86121C7.91268 9.55492 8.19873 9.3556 8.48733 9.33499C8.79828 9.37287 9.04668 9.61681 9.0805 9.93469C9.0601 10.2494 8.81935 10.557 8.4892 10.5551C8.12598 10.5867 7.80752 10.2217 7.8769 9.86121ZM16.1197 9.93424C16.1362 9.50151 15.6184 9.18234 15.2455 9.40158C14.8452 9.59227 14.8151 10.2229 15.2008 10.4469C15.5721 10.7158 16.1452 10.3927 16.1197 9.93424ZM9.3577 11.0175C9.79383 10.8963 10.2925 11.1039 10.5064 11.5089C10.7407 11.9164 10.6449 12.4826 10.281 12.7816C9.81431 13.2201 8.95353 13.044 8.70513 12.4456C8.41968 11.897 8.7664 11.1619 9.3577 11.0175ZM15.2334 11.4479C15.0054 11.0578 14.5074 10.8927 14.0834 11.0152C13.4877 11.18 13.1722 11.9435 13.4857 12.4837C13.7443 13.006 14.4723 13.1814 14.9422 12.8473C15.3909 12.5597 15.5347 11.8942 15.2334 11.4479ZM6.55262 11.5243C6.92935 11.3804 7.34695 11.8003 7.19432 12.1776C7.1011 12.5213 6.62155 12.6483 6.37382 12.3949C6.08394 12.157 6.19127 11.6275 6.55262 11.5243ZM17.3015 11.4598C16.9814 11.4773 16.753 11.7565 16.7639 12.0718C16.8265 12.2189 16.9024 12.3723 17.0506 12.4484C17.3666 12.6245 17.8136 12.3698 17.79 11.9951C17.8104 11.7114 17.5595 11.5011 17.3015 11.4598ZM4.70027 11.7094C4.92692 11.6095 5.20727 11.8079 5.15552 12.0621C5.14337 12.35 4.72262 12.4607 4.56804 12.2201C4.43146 12.0531 4.51321 11.7955 4.70027 11.7094ZM19.4699 11.8597C19.4067 11.6714 19.1506 11.5889 18.991 11.7036C18.7255 11.8467 18.8296 12.342 19.1513 12.3124C19.3805 12.3472 19.5772 12.0654 19.4699 11.8597ZM10.5888 13.0855C11.1852 12.9289 11.8263 13.4312 11.83 14.0515C11.8689 14.6783 11.2375 15.2342 10.627 15.0894C10.1551 15.0126 9.78483 14.5535 9.80013 14.0718C9.79886 13.6111 10.143 13.183 10.5888 13.0855ZM14.2066 14.0593C14.2162 13.4247 13.556 12.9133 12.9507 13.0842C12.5918 13.1743 12.2879 13.4731 12.2086 13.8405C12.0516 14.3919 12.4666 15.0161 13.0291 15.0896C13.6269 15.2117 14.2386 14.6745 14.2066 14.0593ZM8.39673 13.4661C8.8156 13.3939 9.2083 13.8659 9.03843 14.2676C8.91453 14.6958 8.29773 14.8119 8.02503 14.4622C7.70515 14.1264 7.94395 13.5124 8.39673 13.4661ZM16.1266 14.0627C16.1554 13.6533 15.6969 13.3269 15.3234 13.4849C14.8719 13.6298 14.7966 14.325 15.2103 14.5612C15.5756 14.8243 16.1416 14.5135 16.1266 14.0627ZM17.2594 15.4464C17.1132 15.1711 17.3788 14.8061 17.6815 14.857C17.8239 14.8546 17.9258 14.9615 18.0179 15.0581L18.034 15.075L18.0375 15.1029C18.0571 15.2599 18.0795 15.44 17.953 15.5586C17.7709 15.7914 17.3584 15.725 17.2594 15.4464ZM6.78827 15.3613C6.85187 15.0272 6.44477 14.7435 6.16187 14.9337C5.89239 15.0724 5.88279 15.5058 6.14327 15.658C6.38597 15.8256 6.75445 15.6567 6.78827 15.3613ZM11.7509 15.5522C12.1212 15.3871 12.5931 15.7128 12.558 16.1248C12.5854 16.5801 12.0018 16.8955 11.6397 16.622C11.2375 16.3873 11.3046 15.6966 11.7509 15.5522ZM9.87228 16.6407C9.90101 16.2841 9.47771 15.9945 9.16225 16.1622C8.94003 16.2461 8.84943 16.4937 8.84553 16.7161C8.9215 16.9201 9.076 17.1346 9.31293 17.1398C9.59898 17.183 9.88188 16.9335 9.87228 16.6407ZM14.4058 16.1673C14.7302 15.9648 15.1912 16.2557 15.1605 16.637C15.1689 17.0356 14.6478 17.2909 14.3458 17.0291C14.0534 16.8239 14.0891 16.3305 14.4058 16.1673ZM15.5775 17.9079C15.3432 17.9582 15.1734 18.2239 15.3177 18.4444C15.4658 18.7005 15.8981 18.6089 15.9256 18.3103C15.9652 18.0897 15.766 17.9466 15.5775 17.9079ZM8.07933 18.2529C8.13678 18.0781 8.27598 17.9044 8.47968 17.9498C8.7766 17.9711 8.86473 18.4232 8.60485 18.5625C8.37115 18.7217 8.10003 18.5037 8.07933 18.2529ZM12.178 18.2064C11.9596 18.0691 11.6283 18.1948 11.5714 18.4534C11.4675 18.7146 11.717 19.0304 11.9935 18.9977C12.1423 19.0015 12.2572 18.8945 12.3466 18.7874C12.364 18.7152 12.3817 18.643 12.4015 18.5708L12.4003 18.5662C12.3635 18.4285 12.3207 18.2683 12.178 18.2064Z" fill="white"/>
</svg>
