<svg width="24" height="24" viewBox="0 0 24 24" fill="none" xmlns="http://www.w3.org/2000/svg">
<circle cx="12" cy="12" r="12" fill="#1D0D4B"/>
<path d="M14.5357 12.6408C15.1075 13.3035 15.4526 14.1315 15.5205 15.0041C15.5857 15.8501 15.3712 16.6946 14.9062 17.4131C14.4282 18.0604 13.8219 18.6022 13.125 19.0046C13.0845 19.0421 13.0275 19.0578 12.9727 19.0496C12.918 19.0413 12.8692 19.0068 12.843 18.9588C12.8299 18.9412 12.8207 18.9211 12.816 18.8997C12.8112 18.8783 12.8111 18.8561 12.8156 18.8346C12.82 18.8131 12.829 18.7929 12.8419 18.7751C12.8547 18.7573 12.8712 18.7425 12.8902 18.7316C13.4652 18.2999 13.9309 17.7394 14.25 17.0951C14.5342 16.4831 14.6167 15.7998 14.4847 15.1406C14.3911 14.5067 14.0754 13.9267 13.5937 13.5041C13.0462 13.0488 12.4485 12.6521 11.8125 12.3221C11.0729 11.9581 10.3932 11.4831 9.79723 10.9136C9.49479 10.5888 9.24205 10.2211 9.04723 9.82235C8.86719 9.4195 8.75614 8.98926 8.71873 8.5496C8.64709 7.67943 8.88072 6.81148 9.37948 6.09485C9.82545 5.41271 10.461 4.87571 11.208 4.54985C11.2282 4.5313 11.2523 4.51756 11.2785 4.50966C11.3047 4.50176 11.3324 4.4999 11.3595 4.50423C11.3866 4.50856 11.4123 4.51896 11.4348 4.53466C11.4572 4.55035 11.4758 4.57093 11.4892 4.59485C11.5067 4.63279 11.5116 4.67535 11.5031 4.71627C11.4946 4.75718 11.4732 4.79428 11.442 4.8221C10.8874 5.28161 10.4383 5.8551 10.125 6.5036C9.86351 7.0865 9.78354 7.73462 9.89548 8.3636C10.0215 8.9728 10.3324 9.52829 10.7857 9.95435C11.3369 10.4232 11.9336 10.8358 12.567 11.1858C13.2931 11.5685 13.9569 12.059 14.5357 12.6408Z" fill="white"/>
<path d="M12.7759 4.69304C12.7871 4.74321 12.8163 4.78754 12.858 4.81762C13.2345 5.17987 13.575 5.57512 13.875 5.99962C14.2256 6.60334 14.4024 7.29227 14.3858 7.99021C14.3693 8.68816 14.16 9.36793 13.7812 9.95437C13.7311 10.0387 13.7087 10.1367 13.717 10.2345C13.7253 10.3322 13.7641 10.4249 13.8277 10.4996C13.9074 10.6053 14.0234 10.6777 14.1533 10.7029C14.2832 10.7281 14.4178 10.7043 14.5312 10.6361C15.3162 9.99516 15.4457 8.71961 15.4977 8.20723C15.5047 8.13805 15.5104 8.08278 15.516 8.04487C15.5152 7.72237 15.4672 7.40062 15.375 7.09087C15.2782 6.79162 15.153 6.50287 15 6.22687C14.8552 5.95612 14.6647 5.71012 14.4375 5.49937C14.0382 5.08936 13.5598 4.76479 13.0312 4.54537C12.9963 4.52298 12.9557 4.51108 12.9142 4.51108C12.8727 4.51108 12.8321 4.52298 12.7972 4.54537C12.7723 4.59032 12.7647 4.64286 12.7759 4.69304Z" fill="white"/>
<path d="M11.5222 18.9814C11.5687 18.9356 11.5687 18.8449 11.475 18.7541C11.0932 18.3934 10.7475 17.9974 10.4437 17.5721C10.0933 16.9685 9.91656 16.2797 9.93311 15.5819C9.94965 14.8841 10.1588 14.2045 10.5375 13.6181C10.6057 13.5436 10.6436 13.4462 10.6436 13.3451C10.6436 13.2441 10.6057 13.1467 10.5375 13.0721C10.4578 12.9667 10.342 12.8944 10.2123 12.8692C10.0825 12.844 9.94806 12.8676 9.83473 12.9356C9.04988 13.5764 8.92029 14.8522 8.86826 15.3644C8.86122 15.4337 8.8556 15.489 8.84998 15.5269C8.85081 15.8502 8.8983 16.1718 8.99098 16.4816C9.08768 16.7809 9.21327 17.07 9.36598 17.3449C9.51182 17.6169 9.70191 17.8628 9.92848 18.0724C10.3277 18.4824 10.8062 18.807 11.3347 19.0264C11.3812 19.0721 11.4757 19.0271 11.5222 18.9814Z" fill="white"/>
</svg>
