<svg width="24" height="24" viewBox="0 0 24 24" fill="none" xmlns="http://www.w3.org/2000/svg">
<circle cx="12" cy="12" r="12" fill="black"/>
<path d="M12 20.7116C11.5687 20.7116 11.1375 20.593 10.7601 20.3774L5.25067 17.1968C4.47439 16.7439 4 15.9245 4 15.0296V8.66846C4 7.78437 4.47439 6.95418 5.23989 6.51213L10.7601 3.33154C11.5256 2.88949 12.4744 2.88949 13.2507 3.33154L18.7601 6.51213C19.5256 6.95418 20 7.78437 20 8.66846V15.0404C20 15.9245 19.5256 16.7547 18.7601 17.1968L13.2507 20.3774C12.8625 20.593 12.442 20.7116 12 20.7116ZM12 3.85984C11.7197 3.85984 11.4394 3.93531 11.1914 4.07547L5.67116 7.26685C5.16442 7.55795 4.86253 8.09703 4.86253 8.66846V15.0404C4.86253 15.6226 5.1752 16.1509 5.67116 16.442L11.1806 19.6334C11.6873 19.9245 12.3019 19.9245 12.8086 19.6334L18.3181 16.4528C18.814 16.1617 19.1267 15.6334 19.1267 15.0512V8.66846C19.1267 8.08625 18.814 7.54717 18.3181 7.26685L12.8194 4.07547C12.5714 3.93531 12.2911 3.85984 12 3.85984ZM12 17.8221C11.7628 17.8221 11.5364 17.7574 11.3315 17.6388L7.32075 15.3315C6.91105 15.0943 6.65229 14.6523 6.65229 14.1671V9.54178C6.65229 9.06739 6.90027 8.62534 7.32075 8.37736L11.3315 6.07008C11.752 5.83288 12.2588 5.83288 12.6685 6.07008L16.6685 8.37736C17.0782 8.61456 17.3369 9.0566 17.3369 9.54178V14.1671C17.3369 14.6415 17.0782 15.0943 16.6685 15.3315L12.6577 17.6388C12.4636 17.7574 12.2372 17.8221 12 17.8221ZM12 6.53369C11.8814 6.53369 11.7628 6.56604 11.655 6.63073L7.64421 8.938C7.42857 9.06739 7.29919 9.2938 7.29919 9.54178V14.1671C7.29919 14.4151 7.42857 14.6415 7.64421 14.7709L11.655 17.0782C11.8706 17.2075 12.1294 17.2075 12.345 17.0782L16.345 14.7709C16.5606 14.6415 16.69 14.4151 16.69 14.1671V9.54178C16.69 9.2938 16.5606 9.06739 16.345 8.938L12.345 6.63073C12.248 6.56604 12.1294 6.53369 12 6.53369ZM12 14.8895C11.8814 14.8895 11.7628 14.8571 11.655 14.8032L9.62803 13.6173C9.4124 13.4987 9.28302 13.2615 9.28302 13.0243V10.6739C9.28302 10.4259 9.4124 10.1995 9.62803 10.0809L11.655 8.90566C11.8706 8.78706 12.1294 8.78706 12.345 8.90566L14.372 10.0809C14.5876 10.1995 14.717 10.4259 14.717 10.6739V13.0243C14.717 13.2722 14.5876 13.4987 14.372 13.6173L12.345 14.7925C12.2372 14.8571 12.1186 14.8895 12 14.8895ZM12 9.25067C11.9569 9.25067 11.9137 9.26146 11.8706 9.28302L9.84367 10.4582C9.76819 10.5013 9.71429 10.5876 9.71429 10.6739V13.0243C9.71429 13.1105 9.76819 13.1968 9.84367 13.2507L11.8706 14.4259C11.9461 14.469 12.0431 14.469 12.1294 14.4259L14.1563 13.2507C14.2318 13.2075 14.2857 13.1105 14.2857 13.0243V10.6739C14.2857 10.5876 14.2318 10.5013 14.1563 10.4582L12.1294 9.28302C12.0863 9.26146 12.0431 9.25067 12 9.25067Z" fill="url(#paint0_linear)"/>
<defs>
<linearGradient id="paint0_linear" x1="4" y1="11.8521" x2="20.0043" y2="11.8521" gradientUnits="userSpaceOnUse">
<stop stop-color="#E168FD"/>
<stop offset="1" stop-color="#7B00FC"/>
</linearGradient>
</defs>
</svg>
