<svg width="24" height="24" viewBox="0 0 24 24" fill="none" xmlns="http://www.w3.org/2000/svg">
<circle cx="12" cy="12" r="12" fill="black"/>
<path d="M7.42832 18.0496L9.46018 14.531L11.492 11.0248L13.5115 7.50619L13.846 6.94867L13.9947 7.50619L14.6142 9.82301L13.9204 11.0248L11.8885 14.531L9.86903 18.0496H12.2973L14.3292 14.531L15.3823 12.7097L15.8779 14.531L16.8195 18.0496H19L18.0584 14.531L17.1168 11.0248L16.869 10.1204L18.3805 7.50619H16.1752L16.1009 7.24602L15.3327 4.37168L15.2336 4H13.115L13.0655 4.07434L11.0832 7.50619L9.05133 11.0248L7.03186 14.531L5 18.0496H7.42832Z" fill="white"/>
</svg>
