<svg width="24" height="24" viewBox="0 0 24 24" fill="none" xmlns="http://www.w3.org/2000/svg">
<circle cx="12" cy="12" r="12" fill="url(#paint0_linear)"/>
<path d="M11.9014 4.70312V4.70973L11.9036 9.41725L12.7557 11.5464L11.9058 10.8374V13.1097C11.9102 13.1163 11.9146 13.1207 11.919 13.1273C13.2885 14.8404 14.9971 16.2716 16.9458 17.3152L11.9014 4.70312Z" fill="url(#paint1_linear)"/>
<path d="M11.9008 4.70312V4.70973L11.8986 9.41725L11.0465 11.5464L11.8964 10.8374V13.1097C11.892 13.1163 11.8876 13.1207 11.8832 13.1273C10.5137 14.8404 8.80507 16.2716 6.85645 17.3152L11.9008 4.70312Z" fill="url(#paint2_linear)"/>
<path d="M11.9008 15.996C12.5332 15.996 13.0458 15.4834 13.0458 14.851C13.0458 14.2187 12.5332 13.7061 11.9008 13.7061C11.2685 13.7061 10.7559 14.2187 10.7559 14.851C10.7559 15.4834 11.2685 15.996 11.9008 15.996Z" fill="#F5CC02"/>
<defs>
<linearGradient id="paint0_linear" x1="3.51469" y1="20.487" x2="20.4866" y2="3.51517" gradientUnits="userSpaceOnUse">
<stop stop-color="#102054"/>
<stop offset="1" stop-color="#1A45B8"/>
</linearGradient>
<linearGradient id="paint1_linear" x1="14.4242" y1="4.66567" x2="14.4242" y2="17.4498" gradientUnits="userSpaceOnUse">
<stop stop-color="white"/>
<stop offset="1" stop-color="white" stop-opacity="0.6"/>
</linearGradient>
<linearGradient id="paint2_linear" x1="9.37993" y1="17.3607" x2="9.37993" y2="4.81461" gradientUnits="userSpaceOnUse">
<stop stop-color="white"/>
<stop offset="1" stop-color="white" stop-opacity="0.6"/>
</linearGradient>
</defs>
</svg>
