<svg width="24" height="24" viewBox="0 0 24 24" fill="none" xmlns="http://www.w3.org/2000/svg">
<g clip-path="url(#clip0_2790_6705)">
<path d="M12 24C18.6274 24 24 18.6274 24 12C24 5.37258 18.6274 0 12 0C5.37258 0 0 5.37258 0 12C0 18.6274 5.37258 24 12 24Z" fill="#22242F"/>
<path d="M12 0.48C18.3624 0.48 23.52 5.6376 23.52 12C23.52 18.3624 18.3624 23.52 12 23.52C5.63758 23.52 0.47998 18.3624 0.47998 12C0.47998 5.6376 5.63758 0.48 12 0.48ZM12 1.29312C6.08686 1.29312 1.2931 6.08688 1.2931 12C1.2931 17.9131 6.08686 22.7069 12 22.7069C17.9131 22.7069 22.7069 17.9131 22.7069 12C22.7069 6.08688 17.9131 1.29312 12 1.29312Z" fill="#4F7CBB"/>
<path d="M19.2599 7.45992V6.41352H15.9455C15.7674 5.73744 15.5896 5.14152 15.3954 4.59432L14.2799 4.78752C14.4932 5.32062 14.682 5.86319 14.8458 6.41352H11.337V7.45992H19.2599ZM10.7711 15.2359V8.5548H9.13792C9.47752 8.0556 9.81712 7.44384 10.1565 6.7032V5.9304H7.48864C7.63307 5.6072 7.76785 5.27978 7.8928 4.94856L6.85792 4.62648C6.37288 6.20424 5.6128 7.476 4.59424 8.45808L4.83664 9.6012C5.04688 9.408 5.25712 9.2148 5.45104 9.00552V15.2359H10.7711ZM8.02216 8.5548H5.85544C6.29275 8.01763 6.68739 7.44709 7.03576 6.8484H9.07336C8.71744 7.49208 8.37784 8.07168 8.02216 8.5548ZM14.6841 19.4057C15.4926 19.4057 15.9129 18.955 15.9129 18.0694V13.481H18.484V8.90904H12.1938V13.481H14.781V17.796C14.781 18.1985 14.6195 18.408 14.2962 18.408C13.9242 18.408 13.5359 18.3756 13.1481 18.3274L13.3744 19.4059L14.6841 19.4057ZM7.65016 11.4204H6.45376V9.50448H7.65016V11.4204ZM9.7684 11.4204H8.58808V9.50448H9.7684V11.4204ZM17.3843 12.4668H13.2935V9.93936H17.3843V12.4668ZM9.7684 14.2699H8.58808V12.3542H9.7684V14.2699ZM7.65016 14.2699H6.45376V12.3542H7.65016V14.2699ZM18.5486 18.665L19.4056 18.0694C18.969 17.039 18.3544 15.8477 17.5461 14.4792L16.6893 14.9945C17.4652 16.3308 18.0957 17.5543 18.5486 18.665ZM11.7734 18.9386C12.485 17.8279 13.0994 16.5079 13.6168 14.9945L12.6791 14.5438C12.1778 15.9926 11.5794 17.2486 10.9005 18.311L11.7736 18.9389L11.7734 18.9386ZM10.4315 17.8442L11.2238 17.6508C10.9974 16.878 10.7711 16.2019 10.5124 15.6223L9.75232 15.8479C10.0149 16.5004 10.2416 17.167 10.4315 17.8442ZM8.71744 18.7778L9.5584 18.6814C9.4612 17.4576 9.28336 16.4918 9.02464 15.7834L8.21632 15.8798C8.47504 16.5562 8.63656 17.5222 8.71744 18.7778ZM5.62912 19.2125C5.96872 18.2626 6.17872 17.184 6.27592 15.9605L5.4028 15.8477C5.32192 17.0069 5.0956 18.0372 4.73968 18.9389L5.62912 19.2125ZM6.98752 19.0193L7.82824 18.9228C7.79584 17.6508 7.71496 16.6366 7.60168 15.8962L6.82552 15.9926C6.9064 16.7011 6.95536 17.7154 6.98752 19.0193Z" fill="#4F7CBB"/>
</g>
<defs>
<clipPath id="clip0_2790_6705">
<rect width="24" height="24" fill="white"/>
</clipPath>
</defs>
</svg>
