<svg width="24" height="24" viewBox="0 0 24 24" fill="none" xmlns="http://www.w3.org/2000/svg">
<path d="M11.8876 23.9431C17.7073 23.9431 22.4251 19.2123 22.4251 13.3767C22.4251 7.54103 17.7073 2.8103 11.8876 2.8103C6.0679 2.8103 1.3501 7.54103 1.3501 13.3767C1.3501 19.2123 6.0679 23.9431 11.8876 23.9431Z" fill="#82AFEE"/>
<path fill-rule="evenodd" clip-rule="evenodd" d="M16.1625 12.2523L1.76245 16.5614C2.43745 18.6596 3.74995 20.5706 5.81245 22.0319C10.8375 25.5539 17.1 24.0554 21.0375 19.8588C21.1124 19.7838 21.0375 19.6338 20.9249 19.6713C20.1749 20.0088 19.35 20.1213 18.5625 19.9713C17.025 19.6713 15.8625 18.5099 15.5625 16.9736C15.1875 15.0251 16.35 13.1141 18.2625 12.5523L16.1625 12.2523Z" fill="url(#paint0_linear_2057_9676)"/>
<path fill-rule="evenodd" clip-rule="evenodd" d="M14.5126 11.4281C14.8126 11.3156 15.0751 11.1656 15.3376 11.016C18.0001 9.48 21.3751 10.0418 23.4376 12.3274C23.4751 12.3649 23.4751 12.4399 23.4376 12.4774C23.4001 12.5149 23.3626 12.5149 23.3251 12.5149C21.5251 12.1399 19.5751 12.0649 18.1126 12.5524C16.3501 13.1516 15.0376 14.3884 14.1376 15.9619C12.8251 18.2475 12.2626 18.9221 10.1251 19.7464C6.41257 21.2078 2.92507 19.8589 1.76257 16.5615C0.225071 11.6528 2.43757 6.33225 7.01257 3.93412C8.28757 3.25988 9.86257 2.66025 11.1751 2.28562C12.4501 1.91062 14.5876 1.38637 15.1501 0.0375C15.1876 0 15.2626 0 15.3001 0C15.3376 0 15.3751 0.0375 15.3751 0.1125C15.6001 1.7235 15.2251 2.43562 14.2876 3.33487C13.2751 4.27163 12.0376 4.72125 10.9501 5.3955C9.26257 6.51975 8.73757 8.54288 9.86257 10.2292C10.5376 11.241 11.6626 11.7653 12.8626 11.7653C13.2376 11.7653 13.5751 11.7278 13.9501 11.6153C14.1376 11.5778 14.3251 11.5031 14.5126 11.4281Z" fill="url(#paint1_linear_2057_9676)"/>
<defs>
<linearGradient id="paint0_linear_2057_9676" x1="9.90886" y1="16.7589" x2="11.8407" y2="21.3062" gradientUnits="userSpaceOnUse">
<stop stop-color="#3966A5"/>
<stop offset="1" stop-color="#4E7BBA"/>
</linearGradient>
<linearGradient id="paint1_linear_2057_9676" x1="5.00612" y1="5.53429" x2="13.8044" y2="15.4131" gradientUnits="userSpaceOnUse">
<stop stop-color="#3966A5"/>
<stop offset="1" stop-color="#4E7BBA"/>
</linearGradient>
</defs>
</svg>
