<svg width="24" height="24" viewBox="0 0 24 24" fill="none" xmlns="http://www.w3.org/2000/svg">
<circle cx="12" cy="12" r="12" fill="#2459E3"/>
<path fill-rule="evenodd" clip-rule="evenodd" d="M13.1064 3.25532L18.6809 6.10638C19.4894 6.53192 20 7.34043 20 8.2766V9.59575H17.9574V8.2766C17.9574 8.14894 17.8723 8.02128 17.7447 7.93617L12.1702 5.08511C12.0851 5.04255 11.9574 5.04255 11.8298 5.08511L6.25532 7.93617C6.12766 7.97872 6.04255 8.10638 6.04255 8.2766V9.59575H4V8.2766C4 7.38298 4.51064 6.53192 5.31915 6.10638L10.8936 3.25532C11.5745 2.91489 12.383 2.91489 13.1064 3.25532ZM13.7447 11.4255C13.7447 10.4468 12.9362 9.68085 12 9.68085C11.0213 9.68085 10.2553 10.4468 10.2553 11.4255C10.2553 12.4043 11.0638 13.1702 12 13.1702C12.9362 13.1702 13.7447 12.4043 13.7447 11.4255ZM17.7021 15.0851C17.8298 15.0426 17.9149 14.9149 17.9149 14.7447V13.4255H19.9574V14.7447C19.9574 15.6383 19.4468 16.4894 18.6383 16.9149L13.0638 19.766C12.7234 19.9362 12.3404 20.0213 11.9574 20.0213C11.5745 20.0213 11.1915 19.9362 10.8511 19.766L5.31915 16.9149C4.51064 16.4894 4 15.6809 4 14.7447V13.4255H6.04255V14.7447C6.04255 14.8723 6.12766 15 6.25532 15.0851L10.9787 17.4681V15.0851C9.3617 14.617 8.21277 13.1702 8.21277 11.4255C8.21277 9.34043 9.91489 7.59575 12.0426 7.59575C14.1277 7.59575 15.8723 9.29787 15.8723 11.4255C15.8723 13.1702 14.6809 14.6596 13.1064 15.0851V17.4681L17.7021 15.0851Z" fill="white"/>
</svg>
