<svg width="24" height="24" viewBox="0 0 24 24" fill="none" xmlns="http://www.w3.org/2000/svg">
<circle cx="12" cy="12" r="12" fill="black"/>
<path d="M21.375 11.2048C21.4575 9.47601 20.25 8.32852 18.885 7.54102L18 12.7498C18.1827 12.7244 18.3688 12.7387 18.5454 12.7918C18.7221 12.8448 18.8853 12.9354 19.0237 13.0573C19.1824 13.213 19.2773 13.4223 19.2898 13.6442C19.3023 13.8661 19.2315 14.0848 19.0912 14.2573C19.9462 14.1148 21.2775 13.2935 21.375 11.2048Z" fill="url(#paint0_linear)"/>
<path fill-rule="evenodd" clip-rule="evenodd" d="M9.74969 5.14845L8.69969 4.0872C10.2897 3.8922 14.4859 4.1397 18.5472 6.68595C18.5843 6.9132 18.5843 7.14496 18.5472 7.3722L18.8884 7.5447C19.1612 7.99722 19.3409 8.49967 19.4169 9.02256C19.4929 9.54545 19.4637 10.0783 19.3309 10.5897C18.9784 11.9997 18.3747 12.6222 18.1047 12.7497C17.5609 12.7497 16.6347 13.0647 16.3347 14.4597C16.0347 15.8547 15.4572 16.1585 15.2097 16.136L9.20969 16.2072L5.24969 13.8747L4.67969 9.04845L5.80469 7.54845L7.81469 5.90595L9.24719 5.32095L9.74969 5.14845ZM16.8409 7.1247C16.6715 7.30429 16.4739 7.45503 16.2559 7.57095C14.7147 7.24095 14.1559 6.44595 14.1559 6.44595C15.4666 6.40681 16.7631 6.72575 17.9059 7.36845C17.5579 7.25924 17.2018 7.17774 16.8409 7.1247Z" fill="url(#paint1_linear)"/>
<path fill-rule="evenodd" clip-rule="evenodd" d="M16.2825 14.4596C15.141 15.0086 13.8891 15.2895 12.6225 15.2808C8.83871 15.2808 5.77496 12.9033 5.77496 9.97457C5.77496 7.80707 7.44746 5.94707 9.84371 5.12207C5.28371 5.38457 1.61621 9.04832 1.61621 13.5708C1.61621 18.7908 6.26996 23.1033 12 23.1033C13.9913 23.0868 15.9422 22.54 17.652 21.519C19.3617 20.498 20.7685 19.0398 21.7275 17.2946C19.1587 17.8721 16.125 16.7733 16.2825 14.4596Z" fill="url(#paint2_linear)"/>
<defs>
<linearGradient id="paint0_linear" x1="19.4625" y1="9.06352" x2="19.995" y2="15.4273" gradientUnits="userSpaceOnUse">
<stop stop-color="#01E8F7"/>
<stop offset="1" stop-color="#00C2FF"/>
</linearGradient>
<linearGradient id="paint1_linear" x1="8.98094" y1="5.64345" x2="15.1609" y2="15.4535" gradientUnits="userSpaceOnUse">
<stop stop-color="#01E8F7"/>
<stop offset="1" stop-color="#00B3EC"/>
</linearGradient>
<linearGradient id="paint2_linear" x1="617.624" y1="702.075" x2="641.262" y2="-57.2775" gradientUnits="userSpaceOnUse">
<stop stop-color="#01E8F7"/>
<stop offset="1" stop-color="#00C2FF"/>
</linearGradient>
</defs>
</svg>
