<svg width="24" height="24" viewBox="0 0 24 24" fill="none" xmlns="http://www.w3.org/2000/svg">
<path d="M24 12C24 5.37258 18.6274 0 12 0C5.37258 0 0 5.37258 0 12C0 18.6274 5.37258 24 12 24C18.6274 24 24 18.6274 24 12Z" fill="url(#paint0_radial_1337_5576)"/>
<path d="M20.1602 8.25433C20.11 8.54806 20.0512 8.69046 19.9824 8.85537L19.9823 8.85576C19.9079 9.03438 19.8236 9.23718 19.7472 9.63955C19.7169 9.80058 19.7017 9.9188 19.6885 10.0229L19.6876 10.0294L19.6868 10.0355C19.6656 10.2022 19.6514 10.3146 19.5836 10.5145C19.5287 10.6778 19.4367 10.9503 19.2153 11.2438C19.0364 11.4812 18.737 11.8787 18.3374 11.9263C18.3028 11.9286 18.2302 11.9322 18.2006 11.9171C17.0672 11.3383 16.0934 10.9107 15.7563 10.8147C15.3643 10.7036 15.4145 9.84883 15.4589 9.09465C15.4788 8.75759 15.4975 8.43889 15.4818 8.16599C15.4267 7.21392 15.2581 6.17183 14.4289 5.66379C13.9339 5.36061 13.2954 5.27163 12.6853 5.27033C12.7983 5.21653 12.9245 5.14345 13.0618 5.06352L13.0661 5.06106C13.4253 4.85309 13.8712 4.5948 14.3143 4.5494C14.4592 4.53504 14.6016 4.51835 14.7421 4.5027C15.6353 4.40156 16.407 4.31465 17.221 4.59337C17.59 4.72 18.3469 5.14229 18.5423 5.53432C18.6799 5.8111 18.9121 6.02684 19.3753 6.45741C19.6164 6.68169 19.7752 6.81219 19.8915 6.90765L19.8968 6.91204C20.06 7.0463 20.0922 7.07437 20.1408 7.17357C20.2909 7.47946 20.2361 7.80436 20.1602 8.25433Z" fill="white"/>
<path d="M16.0371 12.1681C16.0908 12.1866 16.1108 12.2518 16.0797 12.2992C15.9586 12.4828 15.8199 12.7348 15.6537 13.0429C15.5757 13.1881 15.5019 13.3252 15.4399 13.4322C15.2203 13.8093 15.2025 14.1267 15.1885 14.3815C15.1734 14.648 15.1599 14.7703 15.0007 14.8765C14.8693 14.9646 14.7346 14.994 13.8015 15.1361C13.6386 15.1613 13.5663 15.1929 13.5028 15.2206C13.4855 15.2281 13.4683 15.2356 13.4486 15.2429C13.3947 15.2631 13.3419 15.2172 13.3452 15.1599C13.3525 15.0254 13.3573 14.8574 13.3578 14.646V14.6055C13.3627 14.4227 13.3551 14.2743 13.3485 14.1547C13.3362 13.9164 13.3347 13.8161 13.3982 13.7123C13.4762 13.587 13.537 13.5487 13.6369 13.4853C13.7765 13.3976 13.9679 13.277 14.2512 12.8877C14.4017 12.6815 14.4351 12.5697 14.4559 12.4731C14.465 12.433 14.4682 12.418 14.5841 12.3302C14.7066 12.2372 15.08 11.9543 15.5579 12.0347C15.6901 12.057 15.8585 12.1064 16.0371 12.1681Z" fill="white"/>
<path d="M12.324 16.4706C12.3037 16.4971 12.2799 16.5094 12.2456 16.5111C12.1481 16.5152 12.0795 16.4911 12.0341 16.4365C11.9379 16.3193 11.9508 16.0839 11.9733 15.9463L12.3679 15.8411C12.3989 16.05 12.4133 16.3543 12.324 16.4706Z" fill="white"/>
<path d="M12.3558 15.0465C12.3492 15.104 12.3419 15.1688 12.3422 15.2366C12.3427 15.2618 12.3429 15.2873 12.3437 15.312C12.3445 15.3765 12.3471 15.479 12.3382 15.5255C12.2149 15.5704 12.1096 15.5704 11.9712 15.568C11.9692 15.528 11.9717 15.4684 11.9733 15.4281C11.9741 15.3971 11.9758 15.3662 11.9761 15.3367C11.9765 15.304 11.9761 15.2718 11.9761 15.2396C11.9756 15.1636 11.9746 15.0392 11.9932 15.0026C12.0303 14.9972 12.0684 14.989 12.1091 14.9797C12.1907 14.9621 12.2972 14.9396 12.3649 14.9498C12.3639 14.9762 12.3598 15.0154 12.3558 15.0465Z" fill="white"/>
<path d="M11.6258 16.3492C11.6068 16.5515 11.5444 16.8016 11.3546 16.8396C11.2693 16.8572 11.228 16.8315 11.202 16.807C11.0738 16.6883 11.0534 16.3295 11.0712 16.0729C11.1566 16.0745 11.2685 16.0553 11.4009 16.0297C11.4818 16.0137 11.5622 15.9958 11.6262 15.9811C11.6336 16.076 11.6389 16.2116 11.6258 16.3492Z" fill="white"/>
<path d="M11.5363 15.6229L11.1082 15.7731C11.1299 15.6069 11.1589 15.373 11.1691 15.2177C11.1764 15.1083 11.2062 15.0748 11.2147 15.0675C11.2176 15.0651 11.2233 15.0599 11.2392 15.0599C11.2416 15.0599 11.2441 15.0603 11.2468 15.0603L11.2559 15.0616L11.5263 15.0469C11.5378 15.174 11.5378 15.4532 11.5363 15.6229Z" fill="white"/>
<path d="M10.8444 15.4898C10.8202 15.5543 10.7916 15.7368 10.7738 15.8652L10.2375 15.8489C10.2678 15.6828 10.3097 15.5138 10.3558 15.3791C10.4023 15.2453 10.4525 15.1449 10.4987 15.1167C10.5525 15.0844 10.671 15.0771 10.7435 15.1391C10.8615 15.2397 10.8941 15.3548 10.8444 15.4898Z" fill="white"/>
<path d="M10.6442 17.1312C10.6027 17.1879 10.5565 17.2168 10.4994 17.2229C10.441 17.2295 10.3956 17.2164 10.3594 17.1825C10.191 17.027 10.2047 16.5177 10.2109 16.2729C10.4333 16.2222 10.6733 16.1791 10.7871 16.1725C10.8042 16.3775 10.8091 16.9068 10.6442 17.1312Z" fill="white"/>
<path d="M9.94454 15.8344C9.91841 15.9042 9.89306 15.9702 9.87391 16.0287C9.81157 16.0482 9.62093 16.0311 9.42627 15.9882L9.56014 15.1442C9.78001 15.0859 10.0351 15.0671 10.0968 15.1325C10.178 15.2187 10.0148 15.6505 9.94454 15.8344Z" fill="white"/>
<path d="M9.70181 17.2596C9.59782 17.3878 9.44183 17.4477 9.22428 17.4453C9.07373 17.4429 9.01993 17.3857 8.99302 17.3429C8.87222 17.1516 8.99044 16.7006 9.10891 16.4126L9.83528 16.4561C9.84265 16.5067 9.84873 16.5683 9.85158 16.6353C9.8596 16.8403 9.83386 17.0956 9.70181 17.2596Z" fill="white"/>
<path d="M15.7043 11.1354C15.0504 10.9502 15.1067 9.99395 15.1611 9.06981C15.1804 8.74284 15.1986 8.43359 15.1837 8.18087C15.1336 7.31584 14.9881 6.37373 14.2923 5.9473C13.544 5.48969 12.3198 5.59394 11.5644 5.69004C11.5638 5.69017 11.5631 5.69056 11.5625 5.69069C11.5621 5.69069 11.5619 5.69069 11.5616 5.69082C11.2849 5.77463 11.0261 5.82895 10.8255 5.81835C10.3798 5.79532 10.0331 5.60765 9.72768 5.443C9.48944 5.31392 9.28159 5.20243 9.0859 5.20243C9.07555 5.20243 9.06469 5.20243 9.05396 5.20282C8.46844 5.24085 8.19928 5.38389 7.95483 5.60209C7.89339 5.65641 7.81837 5.81408 7.57288 6.52144C7.44898 6.87893 7.42609 7.07449 7.40306 7.26462C7.38237 7.43832 7.36128 7.61694 7.26894 7.88338C7.20465 8.0673 7.15719 8.22588 7.11127 8.37875C6.99021 8.78501 6.8945 9.105 6.60698 9.48551C6.57322 9.53052 6.53144 9.59675 6.48307 9.67215C6.41788 9.77485 6.33718 9.9025 6.23073 10.0503C6.15558 10.1545 5.98304 10.5442 5.99249 10.6629C6.00658 10.852 6.06802 10.9693 6.13838 11.1063C6.20835 11.2413 6.28803 11.3942 6.30251 11.6053L6.30497 11.6395C6.33058 11.9744 6.28285 12.1424 5.64586 12.7114C5.23857 13.0759 4.94923 13.4269 4.75406 13.6845C4.73685 13.7073 4.75923 13.741 4.78769 13.7387C4.79428 13.7378 4.80088 13.7374 4.80696 13.7374C4.81925 13.7364 4.8314 13.736 4.84356 13.736C4.85572 13.736 4.868 13.7364 4.88003 13.7369C4.89232 13.7374 4.90409 13.7383 4.91612 13.7401C5.07017 13.7577 5.22033 13.8229 5.32872 13.9352C5.3476 13.9547 5.37696 13.96 5.40205 13.9499C5.50578 13.9067 5.61973 13.9138 5.72863 13.9241C5.86314 13.9365 5.99895 13.9767 6.0882 14.0635C6.1151 14.0897 6.15351 14.1031 6.19024 14.0947C6.29566 14.0707 6.40624 14.0729 6.50881 14.1102C6.58978 14.1403 6.65781 14.1879 6.71187 14.2478C6.74964 14.2897 6.81664 14.2977 6.86398 14.2672C6.89347 14.2482 6.92593 14.2321 6.96201 14.22C7.10028 14.173 7.25329 14.1998 7.38754 14.2481C7.45364 14.2719 7.52296 14.2931 7.58259 14.3329C7.69214 14.4059 7.75901 14.5124 7.80169 14.6315C7.82587 14.6987 7.91628 14.722 7.97112 14.6763C8.06968 14.5943 8.14767 14.5805 8.22631 14.6154C8.2664 14.6335 8.29434 14.6583 8.3131 14.6895C8.34582 14.7437 8.41243 14.7883 8.47335 14.7712C8.6874 14.7116 8.9554 14.7427 9.14954 14.8466C9.21809 14.8826 9.28547 14.9376 9.33462 15.0206C9.33475 15.0206 9.33475 15.0206 9.33475 15.0207C9.33488 15.0211 9.33527 15.021 9.33527 15.0206L9.34096 14.9837C9.34355 14.9671 9.35531 14.9532 9.37148 14.9482L9.41649 14.9343C9.52255 14.9006 10.0629 14.7449 10.2731 14.9662C10.2822 14.9752 10.2979 14.9761 10.3067 14.9667C10.3353 14.9352 10.3586 14.918 10.3735 14.9095C10.5103 14.8265 10.7451 14.8213 10.9012 14.955C10.9326 14.9814 10.9836 14.9718 11.0072 14.9382C11.0219 14.9176 11.0384 14.8994 11.057 14.8838C11.1119 14.8364 11.1813 14.8138 11.2583 14.8186L11.5551 14.8025C11.6298 14.7984 11.8618 14.7826 11.9349 14.7672C11.9404 14.7661 11.9461 14.765 11.9519 14.7641C11.9828 14.7593 12.0196 14.7514 12.058 14.7434C12.2019 14.712 12.3653 14.6767 12.4994 14.7386C12.6283 14.7983 12.612 14.9451 12.5964 15.0745C12.5904 15.127 12.5838 15.1819 12.5843 15.234C12.5852 15.2583 12.5857 15.2828 12.5861 15.3077C12.588 15.4194 12.5904 15.5224 12.5682 15.6016C12.5682 15.6017 12.5682 15.602 12.5682 15.6021C12.5682 15.6022 12.5682 15.6024 12.5682 15.6025L12.5818 15.6638C12.5825 15.6661 12.5831 15.6691 12.5839 15.6727C12.596 15.7289 12.6563 15.7602 12.7053 15.7303C12.8088 15.6672 12.9176 15.5852 12.9504 15.538C12.9529 15.5343 12.9548 15.5306 12.9563 15.5264C12.9608 15.5146 12.9692 15.4888 12.9784 15.435C12.9967 15.3247 13.0173 15.1005 13.0191 14.6454C13.0191 14.6213 13.0191 14.6041 13.0196 14.5961C13.0234 14.4272 13.0168 14.2916 13.0102 14.172C12.998 13.9252 12.9881 13.7311 13.1106 13.5335C13.2298 13.3411 13.3456 13.2684 13.4568 13.1979C13.5861 13.1168 13.7322 13.0248 13.978 12.6876C14.0986 12.5215 14.1135 12.4545 14.1252 12.401C14.152 12.2756 14.1934 12.2002 14.3795 12.0595C14.5311 11.945 14.9922 11.5956 15.6143 11.7002C15.8183 11.7349 16.149 11.8436 16.4753 11.9722C16.4755 11.9723 16.4756 11.9723 16.4758 11.9723C16.476 11.9723 16.4761 11.9723 16.4762 11.9723C16.4884 11.9759 16.5009 11.9802 16.5125 11.9863C16.5166 11.9885 16.5209 11.9906 16.5253 11.9924C16.8168 12.1088 17.1004 12.2388 17.2821 12.3426C17.3244 12.3668 17.3786 12.3528 17.4084 12.3142C17.4679 12.237 17.5328 12.1922 17.6028 12.1502C17.629 12.1343 17.6492 12.1221 17.6685 12.1057C17.6751 12.1001 17.6816 12.0947 17.6879 12.0895C17.7422 12.0455 17.7421 11.9515 17.6799 11.9194C16.8031 11.4661 15.9772 11.213 15.7043 11.1354ZM9.47301 11.3366C9.27073 12.2218 7.89947 13.1948 7.27618 13.1948H7.26389C7.25406 13.1943 7.2432 13.1934 7.23156 13.1915C7.21979 13.1897 7.20711 13.1868 7.19366 13.1831C7.18706 13.1811 7.17995 13.1788 7.17297 13.177C7.0598 13.1413 6.90316 13.0544 6.78456 12.9377C6.70295 12.8577 6.63867 12.7631 6.61849 12.6613C6.61474 12.6435 6.61099 12.6257 6.60711 12.6079C6.57348 12.4573 6.53157 12.2693 6.66441 11.9615C6.68277 11.9202 6.69907 11.8817 6.71407 11.8465C6.71886 11.8348 6.72403 11.8231 6.72869 11.8118C6.74279 11.7786 6.75533 11.7481 6.76671 11.7204C6.78547 11.6736 6.80086 11.6337 6.81353 11.5998C6.81871 11.5866 6.82349 11.574 6.82763 11.5623C6.86566 11.4559 6.87031 11.416 6.87549 11.3748C6.88027 11.3424 6.88493 11.3029 6.89812 11.2466C6.93705 11.0805 6.95723 10.9398 6.97508 10.8145C7.00703 10.5892 7.0347 10.3946 7.15615 10.2159C7.17685 10.1855 7.19974 10.1577 7.22561 10.1334C7.23453 10.125 7.24307 10.1169 7.25225 10.1089C7.26169 10.1009 7.27114 10.0939 7.28032 10.0868C7.30981 10.0661 7.34137 10.0479 7.37551 10.0324C7.38728 10.0272 7.39905 10.022 7.41069 10.0179C7.43475 10.009 7.45997 10.0013 7.48636 9.99472C7.59798 9.96769 7.72977 9.96342 7.88123 9.98256C8.04691 9.99576 8.20031 10.0271 8.33625 10.0651C8.44981 10.0964 8.55121 10.1331 8.63696 10.1673C8.64589 10.1706 8.65442 10.1739 8.66283 10.1776C8.67926 10.1842 8.69516 10.1908 8.71069 10.1979C8.73422 10.2077 8.75569 10.2172 8.77587 10.226C8.80265 10.2381 8.82709 10.249 8.84869 10.2587L8.86887 10.2681C8.96458 10.3117 9.04684 10.3596 9.11707 10.4098C9.15173 10.4353 9.1842 10.461 9.21317 10.4871C9.22313 10.4957 9.23257 10.5046 9.24124 10.5139C9.25068 10.5229 9.25961 10.5319 9.26801 10.5408C9.53148 10.8182 9.51841 11.1391 9.47301 11.3366ZM10.1085 7.98142L10.0818 8.14193C10.0204 8.50357 9.87914 8.99945 9.35842 9.12711C8.85749 9.2496 8.73875 9.27572 8.38217 9.29176C8.37428 9.29267 8.36574 9.29267 8.35733 9.29267C8.09697 9.29267 7.59591 9.12854 7.50718 8.72034C7.4504 8.45765 7.56629 8.26726 7.7572 7.95154C7.78901 7.89942 7.82341 7.84355 7.85989 7.78121C8.11223 7.35607 8.21169 7.04837 8.29163 6.80159C8.36936 6.5605 8.43416 6.36119 8.60075 6.19602C8.63916 6.1576 8.68275 6.12139 8.73345 6.08673C8.76579 6.06461 8.79954 6.04495 8.83524 6.02658C8.88258 6.00304 8.93224 5.98261 8.98437 5.96605C9.10026 5.92906 9.22546 5.91031 9.35079 5.91031C9.59369 5.91031 9.83633 5.98015 10.0094 6.11906C10.0872 6.1814 10.198 6.30609 10.2622 6.67393C10.2954 6.86341 10.239 7.2116 10.1085 7.98142ZM13.8235 9.01071C13.6442 9.31841 13.5462 9.48784 13.3914 9.61485C13.0842 9.8672 12.7258 9.93109 12.4306 9.93109C12.2186 9.93109 12.0386 9.89837 11.9325 9.87896C11.6276 9.82322 11.06 9.72001 10.8709 9.27197C10.8339 9.18338 10.8335 9.12711 10.8335 9.05572C10.8335 8.98523 10.8335 8.86675 10.8007 8.58466L10.7989 8.56591C10.7837 8.43825 10.7669 8.29378 10.8035 8.10844L10.8078 8.08632C10.9148 7.54231 10.9437 7.45915 10.9678 7.4122C11.0232 7.30524 11.1544 7.26307 11.2614 7.31804C11.365 7.37197 11.4082 7.49756 11.3594 7.6031C11.3486 7.63402 11.3182 7.74991 11.2355 8.17078L11.2313 8.19289C11.2077 8.31163 11.2181 8.40165 11.2318 8.51572L11.2336 8.535C11.2692 8.84127 11.2692 8.98005 11.2692 9.0552C11.2692 9.06852 11.2692 9.08301 11.2697 9.09167C11.2698 9.09504 11.2715 9.09943 11.2725 9.10267C11.308 9.18674 11.3879 9.2505 11.4853 9.29952C11.5458 9.32992 11.6091 9.2721 11.5956 9.20575C11.4987 8.72629 11.504 8.16702 11.6872 7.82143C11.7472 7.7067 11.8582 7.51891 11.9636 7.34365C11.964 7.34313 11.9642 7.34274 11.9645 7.34223C11.9647 7.34171 11.9651 7.34132 11.9654 7.34081C11.9761 7.32309 11.9867 7.30562 11.9973 7.28803C12.0063 7.2729 12.0152 7.25854 12.0235 7.24444C12.0699 7.16736 12.1135 7.09661 12.1484 7.04035C12.1531 7.03233 12.1577 7.02431 12.1625 7.01681C12.1657 7.01112 12.1691 7.00594 12.1723 7.00129C12.1798 6.989 12.1864 6.97775 12.1926 6.96805C12.1954 6.96339 12.1982 6.95912 12.2005 6.95485C12.202 6.95304 12.203 6.9511 12.2039 6.94968C12.2071 6.94399 12.2105 6.93882 12.2133 6.93468C12.2189 6.92575 12.2232 6.91916 12.2255 6.91489C12.2257 6.9145 12.2259 6.91424 12.226 6.91385C12.2265 6.91295 12.2276 6.91152 12.2281 6.91062C12.2285 6.90997 12.2286 6.90984 12.229 6.9092C12.2653 6.8563 12.3013 6.80598 12.3362 6.75865C12.3837 6.69436 12.3287 6.61016 12.2547 6.64043C12.0767 6.71299 11.9552 6.80572 11.9305 6.82525C11.8362 6.9004 11.6991 6.88488 11.6246 6.79059C11.55 6.69644 11.5655 6.55895 11.6598 6.4838C11.7719 6.39572 12.3662 5.96217 13.078 6.16575C13.5908 6.31165 13.8596 6.70342 13.9608 6.85074C14.0425 6.97038 14.2926 7.33356 14.2846 7.84057C14.2786 8.2273 14.1173 8.50551 13.8235 9.01071Z" fill="white"/>
<path d="M9.20104 6.35886C9.16457 6.44707 9.12098 6.55636 9.07416 6.67509C8.96474 6.95007 8.8407 7.26152 8.78107 7.37443C8.67825 7.5696 8.59819 7.69273 8.5343 7.79194C8.46109 7.90589 8.40276 7.99604 8.35878 8.12176C8.28157 8.34163 8.26773 8.58738 8.31791 8.85459C8.18159 8.83959 7.95848 8.74569 7.93325 8.62734C7.91437 8.53926 7.96908 8.44291 8.13037 8.17763C8.1627 8.12473 8.19737 8.06718 8.23526 8.00315C8.51244 7.53637 8.62458 7.18909 8.70709 6.93519C8.79608 6.65892 8.83812 6.54304 8.97974 6.44629C9.04312 6.40218 9.1202 6.37412 9.20104 6.35886Z" fill="white"/>
<path d="M8.93041 16.1478C8.77934 16.4564 8.59129 16.7412 8.4741 16.8823C8.3771 16.62 8.20844 16.019 8.25293 15.5354C8.25423 15.5214 8.25578 15.5076 8.25785 15.4941C8.2757 15.3447 8.3154 15.2078 8.38602 15.0979C8.43259 15.0258 8.56154 14.9817 8.70795 14.9817C8.81608 14.9817 8.93365 15.0053 9.03492 15.0597H9.0357C9.08989 15.0886 9.16374 15.1474 9.1715 15.318C9.18263 15.5484 9.07281 15.8582 8.93041 16.1478Z" fill="white"/>
<path d="M17.2073 12.6896C17.219 12.6991 17.2264 12.7133 17.2196 12.7268C17.1745 12.8174 17.1204 12.8811 17.0565 12.9559C16.9794 13.0478 16.8912 13.1519 16.8092 13.3142C16.6924 13.5443 16.6551 13.7542 16.6354 14.2916C16.6122 14.9229 16.6367 15.2776 16.6551 15.5361C16.6725 15.7859 16.6833 15.9364 16.6388 16.18C16.549 16.6714 16.3388 16.9966 16.0726 17.4083C15.7396 17.9232 15.3952 18.4555 14.8248 18.6252C14.7717 18.6415 14.7699 18.6415 14.6212 18.642C14.4917 18.642 14.2764 18.6425 13.8687 18.6575C13.1236 18.6845 12.7498 18.698 12.4299 18.7594C12.0944 18.8243 11.9194 18.8957 11.7497 18.9643C11.5966 19.0262 11.4519 19.0851 11.1744 19.1421C11.009 19.1755 10.7618 19.212 9.91957 19.2133C9.0442 19.2148 8.51572 19.2152 7.81794 19.1357C6.86056 19.0264 6.37994 18.9717 6.06073 18.8012C5.30784 18.3996 4.98993 17.6774 4.46403 16.4808C4.46313 16.4788 4.46222 16.4767 4.46131 16.4745C4.45484 16.4596 4.47296 16.4453 4.48692 16.4535C4.51189 16.4691 4.53788 16.4819 4.5653 16.4911C4.58833 16.4992 4.61225 16.5054 4.63644 16.5094C4.68455 16.5176 4.73474 16.5181 4.7857 16.5094C4.79462 16.5079 4.80277 16.5058 4.81066 16.5026C4.81221 16.5019 4.81364 16.5011 4.81519 16.5005C4.82411 16.4961 4.8351 16.4997 4.83885 16.5089C4.87235 16.6011 4.92551 16.6833 5.01476 16.7306C5.10413 16.7772 5.20579 16.7808 5.30526 16.78C5.40769 16.7784 5.51091 16.7726 5.61295 16.7603C5.66702 16.7547 5.72237 16.7812 5.74307 16.8315C5.83658 17.0581 5.95234 17.2221 6.1263 17.2463C6.13574 17.2476 6.14803 17.2491 6.16355 17.2491C6.20274 17.2491 6.26327 17.2377 6.34864 17.179C6.41473 17.1337 6.51704 17.1604 6.5645 17.2249C6.60796 17.2838 6.6597 17.3261 6.70419 17.3618C6.88333 17.5457 7.31868 17.6339 7.68433 17.6339C7.88377 17.6339 8.06265 17.6076 8.16793 17.5564C8.31848 17.4834 8.31848 17.3712 8.31111 17.3258C8.2983 17.2445 8.28666 17.1638 8.27683 17.0838C8.27567 17.0742 8.29015 17.0705 8.29403 17.0794C8.31589 17.1271 8.34267 17.1866 8.41393 17.1982C8.42169 17.1989 8.43036 17.2006 8.44019 17.2006C8.54211 17.2006 8.70068 17.2339 8.72797 17.332C8.74194 17.3821 8.7616 17.4289 8.78837 17.4712C8.84955 17.5681 8.9741 17.6834 9.22101 17.6876H9.24015C9.52367 17.6876 9.74251 17.5948 9.89008 17.4116C9.89966 17.3998 9.90884 17.3876 9.91763 17.3753C9.97066 17.3006 10.1282 17.2974 10.1956 17.3594C10.2715 17.4297 10.3671 17.4659 10.4735 17.4659C10.4906 17.4659 10.5079 17.4651 10.5258 17.463C10.6527 17.4496 10.7625 17.3823 10.8445 17.2676C10.8982 17.1927 10.9373 17.1006 10.9659 17.001C10.9743 16.9717 11.0147 16.963 11.0372 16.9836C11.0914 17.0338 11.1783 17.0868 11.3036 17.0868C11.3342 17.0868 11.3673 17.0836 11.4025 17.0762C11.6487 17.0267 11.7713 16.8228 11.8294 16.5927C11.8313 16.585 11.8425 16.5829 11.8476 16.589C11.91 16.6649 12.0251 16.7526 12.2254 16.7526C12.2357 16.7526 12.2463 16.7526 12.2567 16.7521C12.3628 16.7471 12.4522 16.7006 12.5167 16.6173C12.5952 16.515 12.6261 16.3633 12.6332 16.2106C12.6353 16.1662 12.664 16.1271 12.7052 16.1099C12.9165 16.0216 13.1725 15.8313 13.2475 15.7017C13.2501 15.6972 13.2527 15.6924 13.2552 15.6875C13.2724 15.6541 13.3019 15.6277 13.3388 15.6207C13.5025 15.5897 13.5739 15.5588 13.6389 15.5306C13.6918 15.5073 13.7343 15.4889 13.8533 15.4704C14.8001 15.326 14.9849 15.2941 15.1898 15.1576C15.4962 14.9532 15.5117 14.6719 15.5268 14.3998C15.5398 14.1697 15.5545 13.9085 15.7333 13.6021C15.7982 13.4902 15.8731 13.3507 15.9527 13.203C16.0922 12.9444 16.287 12.5824 16.4264 12.3927C16.4526 12.3568 16.5001 12.3457 16.541 12.3631C16.8682 12.5021 17.1469 12.6413 17.2073 12.6896Z" fill="white"/>
<path d="M8.01311 15.5068C7.9756 15.8341 7.9527 16.2714 8.00573 16.8411C8.02074 17.0018 8.04169 17.1687 8.06769 17.3377C8.02281 17.3622 7.88881 17.3964 7.65057 17.3927C7.3082 17.3858 6.9749 17.2997 6.87479 17.1914L6.85926 17.1775C6.77597 17.1106 6.72139 17.0665 6.71363 16.947C6.71104 16.9066 6.72837 16.8667 6.76537 16.8101C6.7858 16.7783 6.8127 16.7416 6.84607 16.6963C6.90363 16.6191 6.97503 16.5229 7.0481 16.3987C7.26242 16.0367 7.34364 15.9249 7.44685 15.7837C7.455 15.7723 7.46367 15.7608 7.47259 15.749C7.53338 15.6658 7.60478 15.5662 7.71213 15.4025C7.79206 15.2811 7.85855 15.1859 7.91339 15.1111C8.00483 14.9868 8.06471 14.9193 8.10312 14.8826C8.09743 14.939 8.08476 15.0181 8.07247 15.0912C8.05436 15.2036 8.03147 15.3411 8.01311 15.5068Z" fill="white"/>
<path d="M7.85607 10.4177C7.854 10.4205 7.85155 10.4234 7.84948 10.4263C7.80498 10.488 7.75402 10.5577 7.69323 10.6935C7.53001 11.0563 7.5269 11.2617 7.52432 11.4269C7.52276 11.5134 7.52186 11.5824 7.49819 11.6628C7.48189 11.7158 7.45538 11.7766 7.42473 11.8467C7.3285 12.0671 7.20278 12.3561 7.25917 12.7449C7.18118 12.7074 7.06193 12.6216 7.04537 12.5759C7.04123 12.5547 7.0367 12.5339 7.03192 12.5131C7.00489 12.3918 6.98704 12.3127 7.06413 12.1352C7.26693 11.6675 7.29189 11.5566 7.3078 11.4292C7.31104 11.4014 7.3144 11.3798 7.32255 11.3446C7.36536 11.1602 7.38773 11.0023 7.4061 10.8754C7.43339 10.6828 7.45176 10.5554 7.51669 10.4596C7.54035 10.4241 7.60735 10.4058 7.70319 10.4058C7.74109 10.4058 7.7839 10.4086 7.83059 10.4152L7.84146 10.416C7.84624 10.4165 7.85129 10.4169 7.85607 10.4177Z" fill="white"/>
<path d="M7.58892 15.0312C7.57792 14.9191 7.55826 14.8067 7.51752 14.701C7.51468 14.6957 7.50252 14.6687 7.49993 14.6635C7.49256 14.65 7.48415 14.6374 7.47626 14.624C7.47574 14.6235 7.47548 14.6235 7.47548 14.6231C7.47497 14.6224 7.47471 14.6224 7.47471 14.622C7.47018 14.6171 7.46604 14.6123 7.46165 14.6076C7.45505 14.601 7.44794 14.5947 7.44082 14.5889C7.43953 14.5873 7.43837 14.586 7.4372 14.5855C7.43397 14.5828 7.42905 14.5789 7.42375 14.5758C7.41508 14.5713 7.40693 14.5664 7.39853 14.5621C7.39594 14.5604 7.38986 14.558 7.38417 14.5559C7.38417 14.5559 7.38378 14.5559 7.38378 14.5555C7.38249 14.555 7.3812 14.5547 7.38016 14.5542C7.37887 14.5534 7.37809 14.5529 7.37732 14.5527C7.37602 14.5521 7.37525 14.5519 7.37447 14.5519C7.3737 14.5519 7.3737 14.5514 7.3737 14.5514C7.37111 14.5501 7.36956 14.5498 7.36839 14.5493C7.30308 14.5254 7.23686 14.4991 7.16753 14.4889C7.16714 14.4889 7.16598 14.4885 7.16507 14.4885H7.16352C7.15576 14.4885 7.13985 14.4869 7.13907 14.4869C7.12937 14.4864 7.11993 14.4864 7.11049 14.4869C7.10596 14.4869 7.10157 14.4869 7.09743 14.4873H7.0938C7.09225 14.4873 7.09031 14.4879 7.08824 14.4879C7.08747 14.4886 7.08618 14.4886 7.08566 14.4886C7.08527 14.4886 7.08488 14.4886 7.08488 14.4886C7.06936 14.4932 7.05306 14.4973 7.03754 14.5021C7.03095 14.5054 7.0237 14.5087 7.01711 14.5128C7.01155 14.516 7.00572 14.5202 7.00003 14.523C6.99964 14.5234 6.99887 14.5242 6.99796 14.5242L6.9968 14.5255C6.98943 14.5329 6.98167 14.5397 6.97429 14.5471C6.97184 14.5497 6.96498 14.5581 6.96007 14.5643C6.95877 14.5651 6.958 14.5658 6.958 14.5666C6.95761 14.567 6.95761 14.567 6.95722 14.5674C6.95683 14.5678 6.95683 14.5682 6.95593 14.5686C6.95554 14.5691 6.95554 14.5695 6.95515 14.5695C6.95321 14.573 6.95114 14.5759 6.95037 14.5776C6.92411 14.6184 6.8976 14.6588 6.87031 14.6991C6.80745 14.7954 6.74303 14.8913 6.67772 14.9865C6.61809 15.0726 6.5586 15.1587 6.49936 15.2447C6.46625 15.293 6.43366 15.3406 6.40106 15.3888C6.39537 15.397 6.39007 15.4051 6.38477 15.4133C6.42344 15.4206 6.46224 15.4283 6.50143 15.4357C6.58912 15.4517 6.67643 15.4671 6.76541 15.4792C6.94856 15.5042 7.13481 15.5157 7.32041 15.5091C7.32933 15.5086 7.33826 15.5091 7.34654 15.5107C7.39116 15.447 7.44367 15.3711 7.51067 15.2695C7.54779 15.2127 7.58322 15.1602 7.61659 15.1115C7.60159 15.0882 7.59215 15.0604 7.58892 15.0312Z" fill="white"/>
<path d="M6.93634 15.7881C6.92056 15.9293 6.76251 16.2948 6.51599 16.6429C6.30956 16.9339 6.18423 17.0045 6.15927 17.007C6.05968 16.9932 5.96138 16.7466 5.88339 16.5022C5.85209 16.4031 5.82376 16.3043 5.80009 16.2215C5.74667 16.0355 5.73698 15.786 5.74629 15.6294C5.95453 15.7448 6.32004 15.7758 6.83352 15.7779H6.83507C6.86896 15.7815 6.90245 15.7852 6.93634 15.7881Z" fill="white"/>
<path d="M6.57107 14.6252C6.57107 14.6257 6.57107 14.6257 6.57107 14.626C6.56861 14.6293 6.56654 14.633 6.56422 14.6362C6.47601 14.7659 6.38715 14.895 6.29817 15.0242C6.25212 15.0908 6.20647 15.1573 6.16107 15.2243C6.13623 15.2606 6.10273 15.3006 6.07376 15.3438C6.00068 15.3266 5.92774 15.3099 5.85544 15.2895C5.79633 15.2724 5.738 15.254 5.6807 15.2312C5.66919 15.227 5.6582 15.2225 5.64759 15.2173C5.63815 15.1982 5.6247 15.181 5.6084 15.1679C5.60879 15.1675 5.60878 15.1664 5.60917 15.1658C5.63 15.1234 5.65121 15.0806 5.67203 15.0382C5.71161 14.9603 5.75132 14.8828 5.7953 14.8077C5.8738 14.6721 5.96835 14.5343 6.10105 14.4464C6.10765 14.4415 6.11489 14.437 6.12188 14.4326C6.17335 14.4003 6.22483 14.3775 6.28795 14.3698C6.29532 14.369 6.33982 14.3692 6.36064 14.371C6.36426 14.371 6.36723 14.3714 6.3693 14.3714H6.36969C6.37124 14.372 6.37422 14.3727 6.37861 14.3743C6.39413 14.3792 6.40979 14.3824 6.42531 14.3877C6.43061 14.3903 6.4354 14.3926 6.44083 14.3955C6.45428 14.4036 6.46812 14.411 6.48079 14.4212C6.46036 14.4057 6.50899 14.4559 6.50899 14.4523C6.54818 14.5065 6.56008 14.5519 6.57107 14.6252Z" fill="white"/>
<path d="M5.87283 14.2574C5.7096 14.3916 5.59087 14.5704 5.49179 14.7564C5.43618 14.8596 5.386 14.9649 5.33374 15.0697C5.32844 15.0805 5.32314 15.0907 5.31706 15.1012C5.26765 15.0904 5.21824 15.0762 5.17 15.0608C5.11865 15.0445 5.06756 15.0258 5.01867 15.003C4.9963 14.9923 4.97379 14.9813 4.95142 14.9695C5.00031 14.8769 5.05864 14.7879 5.11425 14.7015C5.19263 14.5794 5.27748 14.4595 5.3697 14.3469C5.40436 14.3041 5.44109 14.2571 5.48973 14.2289C5.53939 14.1995 5.59954 14.2065 5.65657 14.2098C5.71698 14.2135 5.78191 14.2151 5.83894 14.238C5.85071 14.243 5.86352 14.2509 5.87283 14.2574Z" fill="white"/>
<path d="M5.6136 16.4479C5.60545 16.4547 5.59859 16.4621 5.59251 16.4708C5.58682 16.4723 5.581 16.4736 5.57738 16.4745C5.53819 16.4785 5.49823 16.4814 5.45865 16.4839C5.38272 16.4887 5.30564 16.4921 5.22894 16.4892C5.18613 16.4877 5.14733 16.4811 5.12974 16.4538C5.10154 16.411 5.093 16.3362 5.08292 16.2795C5.03273 16.0007 5.02614 15.7104 5.0617 15.4283C5.20734 15.4805 5.35724 15.521 5.5109 15.5462C5.47779 15.8005 5.53418 16.1738 5.56716 16.2881C5.58255 16.3413 5.59808 16.3951 5.6136 16.4479Z" fill="white"/>
<path d="M5.14513 14.1645C5.01618 14.3228 4.89874 14.4913 4.79333 14.6659C4.75077 14.737 4.70266 14.8104 4.66722 14.8863C4.61613 14.8721 4.57009 14.8517 4.5212 14.8214C4.48369 14.7981 4.44722 14.7724 4.41178 14.7455C4.40285 14.7381 4.37841 14.719 4.36315 14.7067C4.35965 14.704 4.35629 14.7011 4.35254 14.6991C4.36431 14.6657 4.38591 14.6284 4.39781 14.6035C4.42484 14.5444 4.45498 14.4863 4.48654 14.4298C4.54642 14.3237 4.61342 14.22 4.68934 14.1245C4.71754 14.0893 4.74431 14.0441 4.78816 14.031C4.82812 14.0196 4.88076 14.0249 4.91297 14.0305C5.00842 14.049 5.08318 14.0923 5.14513 14.1645Z" fill="white"/>
<path d="M4.15137 14.8517C4.15318 14.845 4.16197 14.8441 4.16598 14.8497C4.19987 14.898 4.24708 14.9399 4.29778 14.9793C4.32041 14.9965 4.34279 15.0136 4.36568 15.0298C4.36852 15.0319 4.36982 15.0353 4.36904 15.0388C4.31563 15.2601 4.27915 15.4951 4.2798 15.7267C4.2798 15.7369 4.26441 15.7389 4.26208 15.729C4.19676 15.4594 4.10804 15.0101 4.15137 14.8517Z" fill="white"/>
<path d="M4.7828 15.333C4.75668 15.5255 4.74413 15.7186 4.75254 15.9128C4.75667 16.0192 4.76806 16.125 4.78241 16.2302C4.78241 16.231 4.78241 16.2319 4.7828 16.2322V16.2328C4.75991 16.2275 4.73598 16.2267 4.71154 16.2302C4.71632 16.2286 4.70377 16.2294 4.69847 16.2294H4.69692C4.6933 16.229 4.68799 16.2286 4.68618 16.2282C4.65928 16.2216 4.65695 16.2188 4.63561 16.2053C4.60781 16.1874 4.57845 16.1546 4.55892 16.1213C4.50705 16.0315 4.49567 15.9225 4.49153 15.8208C4.4839 15.6214 4.50097 15.4222 4.53822 15.2268C4.57004 15.2397 4.59772 15.2516 4.64389 15.2715C4.68955 15.2914 4.73689 15.3111 4.78306 15.3324V15.333H4.7828Z" fill="white"/>
<defs>
<radialGradient id="paint0_radial_1337_5576" cx="0" cy="0" r="1" gradientUnits="userSpaceOnUse" gradientTransform="translate(12 13.2576) rotate(90) scale(13.4817)">
<stop offset="0.166667" stop-color="#073183"/>
<stop offset="1" stop-color="#0054F9"/>
</radialGradient>
</defs>
</svg>
