<svg width="24" height="24" viewBox="0 0 24 24" fill="none" xmlns="http://www.w3.org/2000/svg">
<circle cx="12" cy="12" r="12" fill="white"/>
<path fill-rule="evenodd" clip-rule="evenodd" d="M15.5473 13.0631C15.5481 12.8763 15.5488 12.6897 15.5488 12.5034C15.5488 12.4619 15.5491 12.4206 15.5494 12.3795C15.5502 12.2572 15.551 12.1367 15.5443 12.0163C15.5361 11.7804 15.5412 11.5438 15.5462 11.3072C15.5549 10.8982 15.5636 10.4887 15.5041 10.0811C15.3432 8.98163 14.6907 8.28889 13.6762 7.90007C12.8449 7.58275 11.9868 7.54253 11.1153 7.65426C10.3466 7.75258 9.64936 8.02521 9.0773 8.56599C8.6259 8.99057 8.38456 9.53135 8.31752 10.1526C8.30411 10.2733 8.37562 10.2822 8.465 10.2822C8.67986 10.2822 8.89422 10.2817 9.10825 10.2812C9.53531 10.2802 9.96105 10.2792 10.3868 10.2822C10.503 10.2822 10.5522 10.242 10.5432 10.1258C10.5164 9.70565 10.9052 9.39281 11.2538 9.29895C11.5443 9.2185 11.8482 9.23191 12.1387 9.2632C12.5365 9.30789 12.8985 9.45091 13.1354 9.81292C13.3589 10.1526 13.3633 10.5369 13.3544 10.9258C13.3544 11.0334 13.2798 11.0332 13.2064 11.033C13.2036 11.033 13.2008 11.033 13.198 11.033C13.1192 11.033 13.0399 11.0335 12.9604 11.034C12.801 11.035 12.641 11.036 12.4829 11.033C11.8439 11.0286 11.209 11.0241 10.579 11.1671C9.95327 11.3101 9.35886 11.5112 8.88512 11.9582C8.45607 12.3649 8.24154 12.8788 8.16109 13.4688C8.07171 14.1258 8.20132 14.7291 8.59014 15.252C9.3231 16.2353 10.3823 16.4587 11.5265 16.3693C12.2058 16.3157 12.8181 16.052 13.3142 15.5604C13.3991 15.48 13.4304 15.5068 13.4527 15.614C13.4805 15.7393 13.5192 15.8591 13.5582 15.9798C13.5693 16.0142 13.5804 16.0486 13.5913 16.0833C13.6225 16.1772 13.6672 16.2531 13.7924 16.2531H15.7365C15.8974 16.2531 15.9332 16.1816 15.8661 16.0386C15.6248 15.5425 15.5667 15.0062 15.5533 14.4654C15.5437 13.9992 15.5455 13.5307 15.5473 13.0631ZM13.3574 12.9825C13.3581 13.0374 13.3589 13.0922 13.3589 13.147C13.3589 13.1808 13.3576 13.2145 13.3564 13.248C13.3536 13.3254 13.3509 13.4015 13.3633 13.4733C13.4125 13.7861 13.2695 14.0096 13.0415 14.1839C12.5142 14.5861 11.9242 14.7738 11.2538 14.6576C10.8158 14.5816 10.4628 14.3984 10.3823 13.9291C10.2974 13.433 10.4181 12.9861 10.8695 12.6822C11.1913 12.4677 11.5577 12.4051 11.9242 12.3827C12.1709 12.3667 12.4207 12.3699 12.6709 12.3731C12.8378 12.3752 13.0048 12.3774 13.1712 12.3738C13.3186 12.3738 13.3723 12.4185 13.3633 12.566C13.3537 12.7066 13.3556 12.8448 13.3574 12.9825Z" fill="#222327"/>
<path fill-rule="evenodd" clip-rule="evenodd" d="M24 12C24 18.6274 18.6274 24 12 24C5.37258 24 0 18.6274 0 12C0 5.37258 5.37258 0 12 0C18.6274 0 24 5.37258 24 12ZM21.7654 12C21.7654 17.3933 17.3933 21.7654 12 21.7654C6.60674 21.7654 2.23464 17.3933 2.23464 12C2.23464 6.60674 6.60674 2.23464 12 2.23464C17.3933 2.23464 21.7654 6.60674 21.7654 12Z" fill="#222327"/>
</svg>
