<svg width="24" height="24" viewBox="0 0 24 24" fill="none" xmlns="http://www.w3.org/2000/svg">
<g clip-path="url(#clip0_2627_6793)">
<circle cx="12" cy="12" r="12" fill="#2C374B"/>
<path d="M14.028 11.2474L15.3499 9.00443L18.9129 14.554L18.9146 15.619L18.903 8.29032C18.8945 8.11117 18.7994 7.94728 18.6476 7.85064L12.2328 4.16075C12.0828 4.08701 11.8925 4.08779 11.7427 4.16304C11.7225 4.1732 11.7035 4.18421 11.6853 4.19622L11.663 4.21029L5.43634 7.81858L5.41215 7.82953C5.38109 7.84383 5.3497 7.86198 5.32021 7.8831C5.20217 7.96778 5.12375 8.09296 5.09839 8.23339C5.09459 8.25468 5.09179 8.27635 5.09045 8.29819L5.10023 14.2704L8.41905 9.12638C8.83688 8.44427 9.74729 8.22457 10.5924 8.23652L11.5843 8.26272L5.73999 17.6353L6.42892 18.032L12.3433 8.27222L14.9574 8.26272L9.05831 18.2688L11.8103 19.8516C11.9345 19.9021 12.081 19.9046 12.2063 19.8594L18.7113 16.0897L17.4676 16.8104L14.028 11.2474ZM14.5323 18.5114L12.0494 14.6145L13.565 12.0426L16.8259 17.1822L14.5323 18.5114Z" fill="#2D374B"/>
<path d="M12.0494 14.6145L14.5323 18.5114L16.8259 17.1822L13.565 12.0426L12.0494 14.6145Z" fill="#28A0F0"/>
<path d="M18.9146 15.619L18.9129 14.554L15.3499 9.00443L14.028 11.2474L17.4676 16.8104L18.7113 16.0897C18.8333 15.9907 18.9071 15.8453 18.9148 15.6884L18.9146 15.619Z" fill="#28A0F0"/>
<path d="M3.9837 16.6234L5.73999 17.6353L11.5843 8.26272L10.5924 8.23652C9.74729 8.22457 8.83688 8.44427 8.41905 9.12638L5.10023 14.2704L3.98364 15.9859L3.9837 16.6234Z" fill="white"/>
<path d="M14.9574 8.26272L12.3433 8.27222L6.42892 18.032L8.49614 19.2223L14.9574 8.26272Z" fill="white"/>
<path d="M20.0164 8.24926C19.9946 7.70256 19.6986 7.20205 19.2349 6.91068L12.736 3.17336C12.2773 2.94238 11.7043 2.9421 11.2449 3.17319C11.1906 3.20057 4.92485 6.83449 4.92485 6.83449C4.83816 6.87605 4.75464 6.9256 4.67605 6.98179C4.26213 7.27847 4.00981 7.73942 3.98389 8.24591V15.9859L5.10042 14.2704L5.09064 8.29825C5.09198 8.27641 5.09472 8.25496 5.09858 8.23373C5.12377 8.09319 5.20225 7.96784 5.3204 7.88315C5.34989 7.86204 11.7226 4.17326 11.7429 4.16309C11.8927 4.08785 12.083 4.08707 12.233 4.1608L18.6478 7.8507C18.7996 7.94734 18.8947 8.11123 18.9032 8.29037V15.6884C18.8954 15.8453 18.8334 15.9907 18.7114 16.0898L17.4677 16.8104L16.8261 17.1823L14.5325 18.5115L12.2064 19.8595C12.0811 19.9048 11.9347 19.9022 11.8104 19.8517L9.05844 18.2688L8.49627 19.2223L10.9694 20.6462C11.0512 20.6927 11.1241 20.7339 11.1839 20.7675C11.2765 20.8195 11.3395 20.8541 11.3618 20.8649C11.5376 20.9503 11.7905 21 12.0184 21C12.2274 21 12.4311 20.9616 12.6239 20.8861L19.3799 16.9735C19.7677 16.6731 19.9959 16.22 20.0164 15.7292V8.24926Z" fill="#96BEDC"/>
</g>
<defs>
<clipPath id="clip0_2627_6793">
<rect width="24" height="24" fill="white"/>
</clipPath>
</defs>
</svg>
