<svg width="24" height="24" viewBox="0 0 24 24" fill="none" xmlns="http://www.w3.org/2000/svg">
<circle cx="12" cy="12" r="12" fill="#2E3148"/>
<path d="M12.0001 18.963C15.8456 18.963 18.963 15.8456 18.963 12.0001C18.963 8.15453 15.8456 5.03711 12.0001 5.03711C8.15453 5.03711 5.03711 8.15453 5.03711 12.0001C5.03711 15.8456 8.15453 18.963 12.0001 18.963Z" fill="#1B1E36"/>
<path fill-rule="evenodd" clip-rule="evenodd" d="M9.83766 8.22597C6.27713 6.55682 3.44458 5.90242 2.94536 6.76572C2.44611 7.62907 4.42232 9.75707 7.64177 12.0153C4.41083 14.2611 2.4266 16.3827 2.92226 17.2468C3.41852 18.112 6.25917 17.4649 9.83596 15.8047C10.1751 19.7327 11.0273 22.519 12.0249 22.519C13.0209 22.519 13.8721 19.741 14.2122 15.8223C17.7741 17.4927 20.6048 18.1478 21.1042 17.2841C21.6039 16.4222 19.627 14.293 16.408 12.034C19.6387 9.78831 21.6228 7.66684 21.1272 6.80278C20.6305 5.93728 17.7902 6.58447 14.2137 8.24472C13.8745 4.31713 13.0223 1.53125 12.0249 1.53125C11.029 1.53125 10.1779 4.30827 9.83766 8.22597ZM9.79557 8.75196C9.75027 9.36977 9.71744 10.0129 9.69843 10.6753C9.12609 11.0257 8.57805 11.3784 8.05896 11.7294C6.68791 10.7466 5.72866 9.94156 5.72866 9.94156C3.54103 8.09963 3.37668 7.20137 3.37668 7.20137L3.37601 7.19887C3.28001 6.97126 3.48267 6.91644 3.48267 6.91644C4.37988 6.747 5.64015 7.13311 5.64015 7.13311C6.82554 7.40305 8.33189 8.03742 9.79557 8.75196ZM10.2418 8.97285C10.2278 9.12297 10.2141 9.27631 10.2007 9.43291C10.2007 9.43291 10.1883 9.79074 10.1807 10.3841C10.4023 10.2521 10.6272 10.1207 10.8551 9.98998C11.0714 9.86594 11.287 9.7446 11.5014 9.62604C11.0948 9.40875 10.6718 9.18855 10.2418 8.97285ZM12.0328 9.3367C11.441 9.01594 10.8593 8.71752 10.2937 8.44337C10.7966 3.54959 11.6014 2.33873 11.8866 2.05666C11.9176 2.02602 11.9584 2.0073 12.0019 2.00379C12.0453 2.00027 12.0886 2.0122 12.1241 2.03746C12.5646 2.34955 12.934 3.65477 12.934 3.65477C13.4018 5.39142 13.6508 7.08265 13.7827 8.44801C13.2138 8.72052 12.6285 9.01739 12.0328 9.3367ZM12.0087 9.90019C11.4899 10.1947 10.8575 10.5621 10.1756 10.9766C10.1728 11.5876 10.177 12.3405 10.1985 13.1617C10.6312 13.4292 11.0749 13.6885 11.5192 13.9282C11.5192 13.9282 11.6959 14.0367 12.0183 14.2169C12.4925 13.9643 12.9661 13.6966 13.421 13.4171C13.421 13.4171 13.6036 13.3185 13.9213 13.1297C13.9385 12.5899 13.9421 12.0431 13.926 11.5066C13.926 11.5066 13.9309 11.3207 13.9266 10.9872C13.4004 10.6784 12.7404 10.2999 12.0087 9.90019ZM13.9127 10.4128C13.6799 10.2723 13.4434 10.1324 13.2035 9.99331C12.9771 9.86207 12.7516 9.73381 12.5272 9.60863C13.0475 9.31895 13.3653 9.15094 13.3653 9.15094C13.5222 9.07791 13.6759 9.00719 13.8264 8.93868C13.873 9.51016 13.8988 10.0098 13.9127 10.4128ZM14.3642 11.2461C14.3684 11.5033 14.3705 11.7631 14.3705 12.0251C14.3705 12.3065 14.3681 12.5853 14.3632 12.8611C14.7083 12.6468 15.1327 12.3732 15.6095 12.045C15.4709 11.9462 15.3286 11.8457 15.1825 11.7435C15.1825 11.7435 14.8769 11.5521 14.3642 11.2461ZM16.0147 11.7615C15.4886 11.4019 14.9326 11.0401 14.3515 10.6807C14.3324 10.0143 14.2994 9.3675 14.2537 8.74627C18.7611 6.73986 20.2158 6.83664 20.6018 6.94294C20.644 6.95469 20.6806 6.98098 20.7052 7.01714C20.7298 7.0533 20.7408 7.097 20.7362 7.1405C20.6869 7.6781 19.7362 8.6477 19.7362 8.6477C18.4682 9.91358 17.1307 10.9685 16.0147 11.7615ZM15.9915 12.3195C15.4722 12.6706 14.9239 13.0236 14.3513 13.3741C14.3319 14.0527 14.2979 14.7111 14.2509 15.3428C15.4965 15.9114 17.0799 16.5409 18.8115 17.0052C18.8115 17.0052 20.1261 17.34 20.617 17.1153C20.6567 17.0972 20.6889 17.0658 20.7076 17.0264C20.7264 16.987 20.7307 16.9422 20.7197 16.9C20.618 16.513 19.9745 15.2085 15.9915 12.3195ZM13.8005 15.1331C13.8413 14.6596 13.8764 14.1588 13.9008 13.6464C13.6688 13.7848 13.4332 13.9226 13.1943 14.0596C12.9527 14.1981 12.7121 14.3333 12.4728 14.465C12.8306 14.6559 13.2789 14.8855 13.8005 15.1331ZM11.5561 14.4583C11.3216 14.3277 11.0858 14.1938 10.849 14.0566C10.6346 13.9324 10.423 13.8075 10.2142 13.6822C10.2299 14.1373 10.2511 14.6078 10.2796 15.082C10.6916 14.8897 11.1217 14.6809 11.5561 14.4583ZM9.68614 12.8382C9.68154 12.5699 9.6792 12.2987 9.6792 12.0251C9.6792 11.7738 9.68117 11.5246 9.68506 11.2777C9.29498 11.5197 8.89426 11.7743 8.49389 12.0372C8.87051 12.3002 9.27112 12.5709 9.68614 12.8382ZM8.07538 12.3151C8.58946 12.6655 9.13192 13.0178 9.69823 13.3679C9.71727 14.0349 9.75032 14.6823 9.796 15.3041C8.25107 16.0024 7.06649 16.4323 7.06649 16.4323C4.37762 17.4013 3.51736 17.0926 3.51736 17.0926C3.27045 17.0615 3.32613 16.8586 3.32613 16.8586C3.62901 15.9974 4.59285 15.0996 4.59285 15.0996C5.42046 14.2092 6.72389 13.2236 8.07538 12.3151ZM12.0181 14.7121C12.61 15.0328 13.1917 15.3312 13.7573 15.6054C13.5944 17.285 13.3794 18.5189 13.3794 18.5189C12.8826 21.3336 12.1868 21.9267 12.1868 21.9267C12.0387 22.1243 11.8906 21.9761 11.8906 21.9761C11.294 21.2849 10.9957 20.0008 10.9957 20.0008C10.634 18.8365 10.4275 17.2091 10.3121 15.5797C10.8672 15.313 11.4378 15.0232 12.0181 14.7121Z" fill="#6F7390"/>
<path d="M17.778 7.25929C17.778 7.66839 17.4574 8.00003 17.062 8.00003C16.6665 8.00003 16.3459 7.66839 16.3459 7.25929C16.3459 6.85019 16.6665 6.51855 17.062 6.51855C17.4574 6.51855 17.778 6.85019 17.778 7.25929Z" fill="#B7B9C8"/>
<path d="M13.2348 12.0001C13.2348 12.6819 12.6821 13.2346 12.0002 13.2346C11.3184 13.2346 10.7657 12.6819 10.7657 12.0001C10.7657 11.3182 11.3184 10.7655 12.0002 10.7655C12.6821 10.7655 13.2348 11.3182 13.2348 12.0001Z" fill="#B7B9C8"/>
<path d="M5.30884 10.5186C5.70431 10.5186 6.0249 10.1869 6.0249 9.77785C6.0249 9.36875 5.70431 9.03711 5.30884 9.03711C4.91337 9.03711 4.59277 9.36875 4.59277 9.77785C4.59277 10.1869 4.91337 10.5186 5.30884 10.5186Z" fill="#B7B9C8"/>
<path d="M11.2595 18.8643C11.2595 19.2734 10.9389 19.605 10.5434 19.605C10.1479 19.605 9.82733 19.2734 9.82733 18.8643C9.82733 18.4552 10.1479 18.1235 10.5434 18.1235C10.9389 18.1235 11.2595 18.4552 11.2595 18.8643Z" fill="#B7B9C8"/>
</svg>
