<svg width="24" height="24" viewBox="0 0 24 24" fill="none" xmlns="http://www.w3.org/2000/svg">
<circle cx="12" cy="12" r="12" fill="#E84142"/>
<path d="M16.233 12.3116C16.6487 11.5935 17.3196 11.5935 17.7353 12.3116L20.3243 16.8565C20.7401 17.5746 20.3999 18.1604 19.5684 18.1604H14.3527C13.5306 18.1604 13.1904 17.5746 13.5967 16.8565L16.233 12.3116ZM11.2251 3.56202C11.6408 2.84391 12.3023 2.84391 12.718 3.56202L13.2944 4.60139L14.655 6.99194C14.9857 7.67226 14.9857 8.47541 14.655 9.15572L10.0912 17.0644C9.67549 17.7069 8.98572 18.1132 8.22037 18.1604H4.43139C3.59989 18.1604 3.25974 17.5841 3.67549 16.8565L11.2251 3.56202Z" fill="white"/>
</svg>
