<svg width="24" height="24" viewBox="0 0 24 24" fill="none" xmlns="http://www.w3.org/2000/svg">
<circle cx="12" cy="12" r="12" fill="white"/>
<path d="M12.9764 10.6813L18.1043 5.58266L16.1592 3.64844L12.0039 7.77995L7.84854 3.64844L5.90262 5.58266L11.0309 10.6813C11.2998 10.9485 11.6518 11.0822 12.0039 11.0822C12.3559 11.0822 12.7079 10.9485 12.9764 10.6813ZM20.4001 16.1278L16.2448 11.9967L20.3997 7.86514L18.4546 5.93092L13.3267 11.0295C13.1991 11.1562 13.0977 11.3068 13.0286 11.4728C12.9594 11.6388 12.9238 11.8168 12.9238 11.9967C12.9238 12.1765 12.9594 12.3545 13.0286 12.5205C13.0977 12.6865 13.1991 12.8371 13.3267 12.9638L18.4546 18.0624L20.4001 16.1278ZM11.9968 16.22L16.1517 20.3516L18.0976 18.4173L12.9693 13.3187C12.7106 13.0621 12.3609 12.9181 11.9965 12.9181C11.6322 12.9181 11.2825 13.0621 11.0238 13.3187L5.89594 18.4173L7.84102 20.3516L11.9968 16.22ZM10.6739 12.9704C10.8013 12.8437 10.9024 12.6931 10.9714 12.5271C11.0404 12.3612 11.0759 12.1833 11.0759 12.0035C11.0759 11.8238 11.0404 11.6459 10.9714 11.48C10.9024 11.314 10.8013 11.1634 10.6739 11.0366L5.54601 5.93802L3.6001 7.87224L7.75583 12.0033L3.60052 16.1349L5.54559 18.0691L10.6739 12.9704Z" fill="black"/>
</svg>
