<svg width="24" height="24" viewBox="0 0 24 24" fill="none" xmlns="http://www.w3.org/2000/svg">
<g clip-path="url(#clip0_2046_6897)">
<circle cx="12" cy="12" r="12" fill="white"/>
<path d="M5.00004 9.54992C3.54996 13.4 5.55 17.75 9.45001 19.1499C9.60001 19.25 9.75002 19.4499 9.75002 19.5999V20.3C9.75002 20.4 9.75002 20.45 9.69998 20.4999C9.65005 20.7 9.45001 20.7999 9.24997 20.7C6.45001 19.8 4.29996 17.6499 3.39996 14.85C1.89996 10.1 4.5 5.04992 9.24997 3.54992C9.30001 3.5 9.39997 3.5 9.45001 3.5C9.65005 3.54992 9.75002 3.69992 9.75002 3.89996V4.59992C9.75002 4.85 9.65005 5 9.45001 5.09996C7.40005 5.84996 5.75005 7.44992 5.00004 9.54992Z" fill="black"/>
<path d="M14.3001 3.74996C14.35 3.54992 14.55 3.44996 14.7501 3.54992C17.5 4.44992 19.7001 6.59996 20.6001 9.44996C22.1001 14.1999 19.5 19.25 14.7501 20.75C14.7 20.7999 14.6001 20.7999 14.55 20.7999C14.35 20.75 14.25 20.6 14.25 20.4V19.7C14.25 19.4499 14.35 19.2999 14.55 19.2C16.6 18.45 18.25 16.85 19 14.75C20.4501 10.8999 18.45 6.54992 14.55 5.15C14.4 5.04992 14.25 4.85 14.25 4.64996V3.95C14.25 3.84992 14.25 3.8 14.3001 3.74996Z" fill="black"/>
<path d="M12.15 11.3001C14.25 11.55 15.3 12.15 15.3 13.9C15.3 15.25 14.3 16.3 12.8 16.5501V17.7501C12.75 18 12.6 18.15 12.4 18.15H11.65C11.4 18.1 11.25 17.95 11.25 17.7501V16.5501C9.6 16.3 8.79996 15.4 8.60004 14.1501V14.1C8.60004 13.9 8.75004 13.75 8.94996 13.75H9.80004C9.95004 13.75 10.1 13.8501 10.15 14.05C10.3 14.8 10.75 15.3501 12.05 15.3501C13 15.3501 13.7 14.8001 13.7 14.0001C13.7 13.2 13.25 12.9 11.85 12.6501C9.75 12.4 8.75004 11.7501 8.75004 10.1001C8.75004 8.85004 9.69996 7.85008 11.2 7.65004V6.50009C11.25 6.25001 11.4 6.10001 11.6 6.10001H12.35C12.6 6.15005 12.75 6.30005 12.75 6.50009V7.70008C13.9 7.80004 14.8 8.65 15 9.75004V9.80008C15 10 14.85 10.15 14.65 10.15H13.85C13.7 10.15 13.55 10.05 13.5 9.90004C13.25 9.15004 12.75 8.85004 11.85 8.85004C10.85 8.85004 10.35 9.29992 10.35 10C10.35 10.7001 10.65 11.1 12.15 11.3001Z" fill="black"/>
</g>
<defs>
<clipPath id="clip0_2046_6897">
<rect width="24" height="24" fill="white"/>
</clipPath>
</defs>
</svg>
