<svg width="24" height="24" viewBox="0 0 24 24" fill="none" xmlns="http://www.w3.org/2000/svg">
<path d="M12 24C18.6274 24 24 18.6274 24 12C24 5.37258 18.6274 0 12 0C5.37258 0 0 5.37258 0 12C0 18.6274 5.37258 24 12 24Z" fill="#1C1E1F"/>
<path d="M12 0.5C5.64869 0.5 0.5 5.64869 0.5 12C0.5 18.3513 5.64869 23.5 12 23.5C18.3513 23.5 23.5 18.3513 23.5 12C23.5 5.64869 18.3513 0.5 12 0.5ZM12 22.9739C5.94935 22.9739 1.02614 18.0507 1.02614 12C1.02614 5.94935 5.94935 1.02614 12 1.02614C18.0507 1.02614 22.9739 5.94935 22.9739 12C22.9739 18.0507 18.0507 22.9739 12 22.9739Z" fill="url(#paint0_linear_2548_6809)"/>
<path d="M14.5141 16.9492L14.8818 17.2649H17.4318L14.5961 11.4062L19.3836 5.13516L18.9711 4.91016L14.2133 11.2891L16.9891 16.9492H14.5141Z" fill="url(#paint1_linear_2548_6809)"/>
<path d="M18.979 4.91245H16.1665L13.129 9.03745L10.129 2.88745L4.61646 14.175H9.00395L5.44146 19.0125H8.29146L12.6415 13.125L14.5165 16.95H16.9915L14.2165 11.2875L18.979 4.91245ZM10.504 12.1875H8.06645L10.129 7.98745L11.5165 10.7625L10.504 12.1875Z" fill="url(#paint2_linear_2548_6809)"/>
<path d="M8.59147 12.1875L10.3915 8.51255L10.129 7.98755L8.06647 12.1875H8.59147Z" fill="url(#paint3_linear_2548_6809)"/>
<path d="M4.61646 14.175L5.02896 14.4375H8.81645L9.00395 14.175H4.61646Z" fill="url(#paint4_linear_2548_6809)"/>
<path d="M5.44147 19.0125L5.85397 19.2375H8.66647L12.8665 13.575L12.6415 13.125L8.29147 19.0125H5.44147Z" fill="url(#paint5_linear_2548_6809)"/>
<defs>
<linearGradient id="paint0_linear_2548_6809" x1="0.503984" y1="12" x2="23.496" y2="12" gradientUnits="userSpaceOnUse">
<stop stop-color="#FED83C"/>
<stop offset="0.4462" stop-color="#D87E2C"/>
<stop offset="0.4722" stop-color="#D87F2C"/>
<stop offset="0.7753" stop-color="#DB8B29"/>
<stop offset="1" stop-color="#DC8F29"/>
</linearGradient>
<linearGradient id="paint1_linear_2548_6809" x1="15.5317" y1="6.28753" x2="18.1052" y2="14.8658" gradientUnits="userSpaceOnUse">
<stop stop-color="#FBF6BB"/>
<stop offset="0.00234567" stop-color="#FBF5B9"/>
<stop offset="0.0434854" stop-color="#FCE792"/>
<stop offset="0.086462" stop-color="#FCDC72"/>
<stop offset="0.1308" stop-color="#FCD453"/>
<stop offset="0.177" stop-color="#FCCE39"/>
<stop offset="0.2257" stop-color="#FCC923"/>
<stop offset="0.2788" stop-color="#FBC714"/>
<stop offset="0.3441" stop-color="#FBC60F"/>
<stop offset="0.4646" stop-color="#FABC14"/>
<stop offset="0.6899" stop-color="#F6A31D"/>
<stop offset="0.9938" stop-color="#F17B22"/>
<stop offset="1" stop-color="#F07A22"/>
</linearGradient>
<linearGradient id="paint2_linear_2548_6809" x1="5.91947" y1="10.8144" x2="17.4183" y2="11.6185" gradientUnits="userSpaceOnUse">
<stop stop-color="#FED83C"/>
<stop offset="0.0729957" stop-color="#F1BC37"/>
<stop offset="0.1643" stop-color="#E59F32"/>
<stop offset="0.2499" stop-color="#DE8C2E"/>
<stop offset="0.3266" stop-color="#D9812C"/>
<stop offset="0.3871" stop-color="#D87E2C"/>
<stop offset="0.4879" stop-color="#E19C2C"/>
<stop offset="0.6148" stop-color="#ECC22A"/>
<stop offset="0.6774" stop-color="#F1D028"/>
<stop offset="0.7172" stop-color="#F2D235"/>
<stop offset="0.7849" stop-color="#F3D852"/>
<stop offset="0.8721" stop-color="#F6E27C"/>
<stop offset="0.9746" stop-color="#FAF1AD"/>
<stop offset="1" stop-color="#FBF6BB"/>
</linearGradient>
<linearGradient id="paint3_linear_2548_6809" x1="7.53123" y1="10.7938" x2="10.7788" y2="9.54721" gradientUnits="userSpaceOnUse">
<stop stop-color="#C24F19"/>
<stop offset="0.3497" stop-color="#C25219"/>
<stop offset="0.5555" stop-color="#C5591B"/>
<stop offset="0.7241" stop-color="#CB661E"/>
<stop offset="0.8716" stop-color="#D27822"/>
<stop offset="1" stop-color="#DC8F29"/>
</linearGradient>
<linearGradient id="paint4_linear_2548_6809" x1="5.91276" y1="15.2608" x2="7.72082" y2="13.106" gradientUnits="userSpaceOnUse">
<stop stop-color="#DC8F29"/>
<stop offset="0.2341" stop-color="#D27722"/>
<stop offset="0.5182" stop-color="#C8611D"/>
<stop offset="0.781" stop-color="#C3541A"/>
<stop offset="1" stop-color="#C24F19"/>
</linearGradient>
<linearGradient id="paint5_linear_2548_6809" x1="5.4502" y1="16.1902" x2="12.8649" y2="16.1902" gradientUnits="userSpaceOnUse">
<stop stop-color="#A0400D"/>
<stop offset="0.4055" stop-color="#A2410E"/>
<stop offset="0.6442" stop-color="#A84410"/>
<stop offset="0.839" stop-color="#B34914"/>
<stop offset="1" stop-color="#C24F19"/>
</linearGradient>
</defs>
</svg>
