<svg width="26" height="25" viewBox="0 0 26 25" fill="none" xmlns="http://www.w3.org/2000/svg">
<circle cx="13" cy="13" r="12" fill="black"/>
<path fill-rule="evenodd" clip-rule="evenodd" d="M15.2154 7.66891C13.9294 7.4144 12.5577 7.58408 11.3574 8.34763C13.0721 7.75375 15.0439 8.17795 16.4156 9.53537C18.3017 11.4867 18.3017 14.6257 16.4156 16.4922C16.1584 16.7467 15.9012 16.9164 15.644 17.086C16.3299 16.8315 17.0157 16.4922 17.5301 15.8983C18.9018 14.5409 19.2448 12.5896 18.7304 10.8928C17.2729 10.3838 15.987 9.19602 15.2154 7.66891Z" fill="#FFAE54"/>
<path d="M23.1476 18.5003C20.116 24.0837 13.0423 26.167 7.4844 23.0837C1.8423 20.0837 -0.178753 13.0003 2.85283 7.41699C4.87388 3.75033 8.57914 1.58366 12.537 1.41699C13.0423 1.41699 13.4634 1.66699 13.716 2.16699C13.9686 2.66699 14.137 3.33366 14.0528 4.00033C14.0528 4.25033 14.0528 4.50033 14.0528 4.75033C14.0528 5.91699 14.3897 7.08366 14.8949 8.08366C12.4528 7.16699 9.67388 8.16699 8.41072 10.5003C6.97914 13.0837 7.98967 16.2503 10.516 17.667C13.0423 19.0837 16.3265 18.0837 17.6739 15.5837C18.4318 14.167 18.516 12.5003 17.9265 11.0837C18.937 11.5837 20.0318 11.8337 21.2107 11.8337C21.8844 11.8337 22.4739 11.7503 23.1476 11.5837C23.4844 11.5003 23.9055 11.5003 24.1581 11.667C24.4107 11.8337 24.5791 12.0003 24.5791 12.2503C24.6634 14.3337 24.1581 16.5003 23.1476 18.5003Z" fill="url(#paint0_radial)"/>
<path d="M4.78942 10.3329C4.78942 10.6551 4.5255 10.9162 4.19995 10.9162C3.87439 10.9162 3.61047 10.6551 3.61047 10.3329C3.61047 10.0107 3.87439 9.74956 4.19995 9.74956C4.5255 9.74956 4.78942 10.0107 4.78942 10.3329Z" fill="#AC562A"/>
<path d="M12.9579 21.3329C13.2834 21.3329 13.5474 21.0717 13.5474 20.7496C13.5474 20.4274 13.2834 20.1662 12.9579 20.1662C12.6323 20.1662 12.3684 20.4274 12.3684 20.7496C12.3684 21.0717 12.6323 21.3329 12.9579 21.3329Z" fill="#AC562A"/>
<path d="M10.2631 21.2496C10.2631 21.8019 9.81069 22.2496 9.25259 22.2496C8.69449 22.2496 8.24207 21.8019 8.24207 21.2496C8.24207 20.6973 8.69449 20.2496 9.25259 20.2496C9.81069 20.2496 10.2631 20.6973 10.2631 21.2496Z" fill="#AC562A"/>
<path fill-rule="evenodd" clip-rule="evenodd" d="M12.5272 0.969727H12.5368C12.5719 0.969727 12.6066 0.970652 12.6411 0.972494C12.7188 0.970654 12.7963 0.969727 12.8737 0.969727C13.5087 0.969727 13.9702 1.35697 14.2711 1.85317C14.5881 2.37597 14.6805 3.07047 14.5819 3.6563L14.5789 3.67389L14.5745 3.69119C14.5097 3.9479 14.5042 4.28375 14.5038 4.69141V4.74956C14.5038 5.83416 14.818 6.9327 15.2983 7.88321L15.8682 9.01126L14.7214 8.49538C12.4934 7.66651 9.9615 8.58009 8.80825 10.7104L8.80616 10.7143C7.49853 13.0739 8.41685 15.976 10.7382 17.2778C12.8708 18.4736 15.6104 17.7778 16.9793 15.8497L16.9614 15.8352C17.0133 15.7582 17.0858 15.6606 17.1415 15.5857C17.1666 15.552 17.1882 15.5229 17.203 15.5023C17.2277 15.4598 17.2518 15.4168 17.2753 15.3733C17.2963 15.334 17.3168 15.2945 17.3367 15.2548L17.3383 15.25L17.3496 15.2261C17.5929 14.7145 17.7524 14.1817 17.8246 13.6457C17.9262 12.8283 17.8203 12.0007 17.5091 11.2529L17.0503 10.1502L17.0939 10.1718L17.001 9.94851L18.1536 10.6139C19.0319 11.1209 19.9832 11.3585 21.0205 11.3841C21.0749 11.3854 21.1296 11.3862 21.1845 11.3864L21.2105 11.3864C21.7622 11.3864 22.3938 11.3078 22.9392 11.1536L22.9464 11.1515L22.9537 11.1497C23.1383 11.104 23.3446 11.078 23.5491 11.0821C23.603 11.081 23.657 11.082 23.7107 11.0851C23.9344 11.0981 24.191 11.1515 24.4082 11.2947C24.6734 11.4697 25.0253 11.7505 25.0301 12.2395C25.1161 14.4029 24.5908 16.6411 23.5509 18.6992L23.548 18.7051L23.5448 18.7109C20.3963 24.5095 13.0481 26.6789 7.26714 23.4743C1.40025 20.3523 -0.68941 12.9963 2.45517 7.20489L2.45652 7.20242C4.55488 3.39549 8.40486 1.14332 12.5177 0.97013L12.5272 0.969727ZM3.24942 7.6288C4.19289 5.91761 5.51711 4.5468 7.06498 3.57077C7.0586 3.59415 7.05242 3.61765 7.04646 3.64127C6.85054 4.41678 6.95308 5.2646 7.31919 6.08569C7.6215 6.87138 8.29565 7.51756 9.01347 7.96152L9.03165 7.97277L9.05082 7.98226C9.29097 8.10108 9.55667 8.20002 9.84726 8.26922C9.10405 8.76747 8.46849 9.44773 8.01386 10.2868C6.45988 13.0934 7.56271 16.5235 10.2933 18.0547C12.8607 19.4944 16.1323 18.6437 17.7487 16.3189C17.7728 16.2996 17.801 16.2779 17.833 16.2548C17.9565 16.1656 18.1265 16.0623 18.3219 15.9924C18.5161 15.9228 18.7228 15.8906 18.9315 15.9255C19.1349 15.9595 19.3728 16.0624 19.6283 16.3153C19.735 16.4209 19.7814 16.5137 19.8017 16.5945C19.8227 16.6783 19.8229 16.7786 19.7929 16.907C19.7282 17.1845 19.5503 17.4978 19.3132 17.8993L19.2886 17.9409C19.0738 18.3044 18.8196 18.7346 18.6886 19.1794C18.5459 19.6642 18.5379 20.2036 18.8701 20.7346C19.1977 21.2583 19.754 21.3959 20.2425 21.391C16.84 24.3046 11.8343 24.9842 7.70488 22.6934L7.69777 22.6896C2.28354 19.8107 0.332437 13.0027 3.24942 7.6288Z" fill="#AC562A"/>
<defs>
<radialGradient id="paint0_radial" cx="0" cy="0" r="1" gradientUnits="userSpaceOnUse" gradientTransform="translate(12.9886 12.9835) rotate(90) scale(11.9816 11.9857)">
<stop offset="0.3335" stop-color="#F7B450"/>
<stop offset="0.6477" stop-color="#FFC977"/>
<stop offset="1" stop-color="#FF9900"/>
</radialGradient>
</defs>
</svg>
