<svg width="24" height="24" viewBox="0 0 24 24" fill="none" xmlns="http://www.w3.org/2000/svg">
<circle cx="12" cy="12" r="12" fill="#1E1E1E"/>
<path d="M8.12921 8.23469C8.12921 9.16109 9.95321 9.91469 12.202 9.91469C14.4508 9.91469 16.2748 9.16109 16.2748 8.23469C16.2748 7.30829 14.4508 6.55469 12.202 6.55469C9.95321 6.55469 8.12921 7.30829 8.12921 8.23469Z" fill="white"/>
<path d="M12.2212 13.1499C9.31245 13.1499 6.95325 12.2379 6.95325 11.1123C6.95325 10.4883 7.68045 9.92908 8.82045 9.55708C9.63405 9.98188 10.8532 10.2531 12.2212 10.2531C13.5892 10.2531 14.8084 9.98188 15.622 9.55708C16.7644 9.93148 17.4892 10.4883 17.4892 11.1123C17.4916 12.2379 15.1324 13.1499 12.2212 13.1499Z" fill="white"/>
<path d="M12.1804 17.0163C8.34282 17.0163 5.23242 15.9075 5.23242 14.4219C5.23242 13.6467 6.07962 12.9483 7.43562 12.4563C8.49402 13.1355 10.27 13.4835 12.2836 13.4835C14.2492 13.4835 15.9868 13.0587 17.0548 12.4083C18.334 12.8955 19.1284 13.5747 19.1284 14.3235C19.1284 15.8115 16.018 17.0163 12.1804 17.0163Z" fill="white"/>
</svg>
