<svg width="24" height="24" viewBox="0 0 24 24" fill="none" xmlns="http://www.w3.org/2000/svg">
<circle cx="12" cy="12" r="12" fill="#F7931A"/>
<path fill-rule="evenodd" clip-rule="evenodd" d="M5.89999 6.31539L8.76492 5H15.3457L18.175 6.31611L21 10.0828L12.0005 20.3L3 10.0816L5.89999 6.31539ZM15.2819 5.29421L17.7779 6.45531L15.1002 7.68474H8.93482L6.16261 6.51799L8.82801 5.29421H15.2819ZM17.9956 6.67857L17.9261 6.52426L17.9869 6.55252L20.6233 10.0678L20.606 10.0875L20.553 9.98047L16.4836 12.0357L15.2467 7.94065L17.9956 6.67857ZM5.93978 6.74294L3.44398 9.98421L7.50593 12.0357L8.74761 7.92468L5.93978 6.74294ZM7.75258 12.2273L9.03573 7.97895H14.9538L16.2369 12.2273L11.9948 19.726L7.75258 12.2273ZM20.2963 10.439L16.4992 12.3568L12.7146 19.0467L20.2963 10.439ZM7.49037 12.3568L11.2543 19.0102L3.71394 10.4495L7.49037 12.3568ZM13.6465 12.2117C14.0077 12.0255 14.2335 11.6973 14.1806 11.1507C14.1097 10.4036 13.4729 10.1531 12.6689 10.0818L12.6688 9.0455L12.046 9.04557L12.046 10.0545C11.8823 10.0546 11.7149 10.0578 11.5486 10.0612L11.5487 9.04555L10.9261 9.04553L10.9259 10.0815C10.791 10.0843 10.6586 10.0868 10.5295 10.0869L10.5294 10.0837L9.67029 10.0834L9.67045 10.7571C9.67045 10.7571 10.1304 10.7482 10.1228 10.7568C10.3751 10.7569 10.4572 10.9052 10.4811 11.0332L10.4811 12.2138C10.4985 12.2139 10.5213 12.2146 10.547 12.2182L10.5259 12.2182L10.4812 12.2182L10.481 13.8721C10.4699 13.9525 10.4233 14.0807 10.247 14.081C10.255 14.0882 9.79421 14.0809 9.79421 14.0809L9.67045 14.8342L10.481 14.8342C10.5715 14.8343 10.6612 14.8352 10.7499 14.8362H10.75H10.7501C10.8091 14.8369 10.8678 14.8375 10.926 14.8379L10.9263 15.886L11.5485 15.8861L11.5485 14.849C11.7193 14.8526 11.8846 14.854 12.0461 14.8539L12.0458 15.8861L12.6687 15.886L12.6689 14.8398C13.716 14.7789 14.449 14.5118 14.54 13.5159C14.6135 12.714 14.241 12.3562 13.6465 12.2117ZM13.3092 13.3917C13.3093 12.6569 12.2383 12.6825 11.7157 12.695L11.7156 12.695C11.6572 12.6964 11.6057 12.6976 11.5633 12.6976L11.5631 14.0863C11.598 14.0862 11.6389 14.0868 11.6848 14.0875H11.6848C12.1949 14.0946 13.3095 14.1103 13.3092 13.3917ZM11.6911 10.8001C12.127 10.7884 13.0195 10.7644 13.0195 11.4325C13.0194 12.0857 12.0912 12.0703 11.6657 12.0632C11.6271 12.0626 11.5925 12.062 11.5633 12.062L11.5633 10.8025C11.5988 10.8025 11.6421 10.8014 11.6911 10.8001Z" fill="white"/>
</svg>
