<svg width="24" height="24" viewBox="0 0 24 24" fill="none" xmlns="http://www.w3.org/2000/svg">
<circle cx="12" cy="12" r="12" fill="#F7941D"/>
<path fill-rule="evenodd" clip-rule="evenodd" d="M12 21C16.9706 21 21 16.9706 21 12C21 7.02944 16.9706 3 12 3C7.02944 3 3 7.02944 3 12C3 16.9706 7.02944 21 12 21ZM12 22.5C17.799 22.5 22.5 17.799 22.5 12C22.5 6.20101 17.799 1.5 12 1.5C6.20101 1.5 1.5 6.20101 1.5 12C1.5 17.799 6.20101 22.5 12 22.5Z" fill="white"/>
<path fill-rule="evenodd" clip-rule="evenodd" d="M15.309 8.98515C14.8613 7.72539 13.6449 7.56698 12.2153 7.78995L11.7658 6L10.682 6.26844L11.1198 8.01121C10.8352 8.08161 10.5455 8.15933 10.2577 8.23673L9.81727 6.48237L8.73434 6.75038L9.18332 8.53993C8.94995 8.60281 8.72068 8.66421 8.49608 8.71996L8.49455 8.71445L7 9.08383L7.29251 10.2474C7.29251 10.2474 8.08879 10.034 8.07921 10.0521C8.51812 9.94364 8.72557 10.1643 8.82237 10.3753L9.33455 12.4144C9.36488 12.4071 9.40471 12.3986 9.45099 12.3937L9.33684 12.422L10.0537 15.2788C10.0693 15.4225 10.0437 15.664 9.73723 15.7405C9.75419 15.7494 8.94955 15.9352 8.94955 15.9352L9.06118 17.29L10.4715 16.9408C10.6308 16.9015 10.7889 16.8642 10.9453 16.8273C11.0465 16.8034 11.1472 16.7797 11.2468 16.7557L11.7021 18.5662L12.7845 18.2985L12.3349 16.5072C12.6333 16.4399 12.9215 16.3711 13.2022 16.3014L13.6495 18.0844L14.733 17.8161L14.2795 16.0089C16.0747 15.4529 17.234 14.6758 16.96 12.917C16.74 11.5003 15.9371 11.0425 14.8402 11.0485C15.3873 10.5708 15.638 9.90668 15.309 8.98515ZM14.765 13.2314C15.0772 14.4731 13.1301 14.926 12.24 15.133C12.1603 15.1515 12.089 15.1681 12.0287 15.1831L11.4266 12.7844C11.5004 12.7662 11.5895 12.7419 11.6905 12.7143C12.5941 12.4677 14.4456 11.9625 14.765 13.2314ZM11.3297 11.6445C12.0732 11.4734 13.694 11.1005 13.411 9.97221C13.1213 8.81805 11.5788 9.2439 10.8255 9.45187C10.7408 9.47525 10.6661 9.49588 10.6043 9.5112L11.1505 11.6866C11.2016 11.674 11.262 11.6601 11.3297 11.6445Z" fill="white"/>
</svg>
