<svg width="24" height="24" viewBox="0 0 24 24" fill="none" xmlns="http://www.w3.org/2000/svg">
<circle cx="12" cy="12" r="12" fill="#F04086"/>
<path fill-rule="evenodd" clip-rule="evenodd" d="M15.3437 11.7675C16.196 11.8925 16.8485 12.205 17.3013 12.705C17.7599 13.2199 18.0092 13.8891 17.9997 14.58C17.9997 15.6246 17.6479 16.4764 16.8983 17.0529C16.1487 17.6293 15.0675 18 13.6537 18H8.0932V14.5714H10.5456V16.0714H13.4404C14.1026 16.0714 14.6016 15.8914 14.9332 15.6182C15.2648 15.345 15.4311 14.91 15.4311 14.4C15.4311 13.89 15.2627 13.545 14.9332 13.2782C14.6037 13.0114 14.1047 12.9643 13.4404 12.9643H5V11.0357H8.09213V6H13.4778C14.9033 6 15.9557 6.18536 16.6563 6.75C17.3568 7.31464 17.6959 8.0325 17.6959 9.08893C17.6996 9.72431 17.4798 10.3406 17.0753 10.8289C16.6765 11.3207 16.0901 11.6282 15.3437 11.7493V11.7675ZM10.5456 11.0314H13.1323C14.4619 11.0314 15.1262 10.5096 15.1262 9.47786C15.1262 8.44607 14.4619 7.92429 13.1323 7.92429H10.5456V11.0314Z" fill="white"/>
</svg>
