<svg xmlns="http://www.w3.org/2000/svg" viewBox="0 0 225 225"><defs><style>.cls-1{fill:#f7b153;}.cls-2{fill:#fff;fill-rule:evenodd;}</style></defs><g id="Layer_2" data-name="Layer 2"><g id="Layer_1-2" data-name="Layer 1"><circle class="cls-1" cx="112.5" cy="112.5" r="112.5"/><path class="cls-2" d="M124.78,109.81a3.21,3.21,0,1,0,3.06,4.17,2.74,2.74,0,0,0,.27-1.16,2.63,2.63,0,0,0-1.57-2.49A3.22,3.22,0,0,0,124.78,109.81Zm-11.46,0a3.23,3.23,0,0,0-1.79.54l-.08.06a2.69,2.69,0,0,0-1.42,2.65,3.48,3.48,0,0,0,.43,1.43l.08.12a3.21,3.21,0,1,0,2.78-4.8Zm-21.09-4.13h-11a1.82,1.82,0,0,0-1.83,1.74v11.1a1.84,1.84,0,0,0,1.75,1.83H92.23a1.83,1.83,0,0,0,1.83-1.74v-2.84h-5.6a2.75,2.75,0,0,1-2.65-2.64v-.21a2.75,2.75,0,0,1,2.65-2.64h5.6v-2.75a1.83,1.83,0,0,0-1.74-1.83ZM70,100v25.94H65.58c-3.87,0-6.9-2.23-9-4.87l-.23-.29-.43-.57-.21-.3-.2-.29-.19-.29a1.3,1.3,0,0,1-.1-.15l-.18-.29-.27-.44-.16-.29-.16-.28-.16-.29s-.05-.09-.07-.14l-.15-.28-.14-.28-.13-.27-.12-.27-.06-.14-.14-.32-.13-.32-.12-.3-.06-.15-.13-.36-.11-.34c0-.09-.06-.17-.08-.25l-.07-.24-.06-.25a3.52,3.52,0,0,1-.13-.82,3.87,3.87,0,0,1,.16-.94l.06-.23,0-.12.08-.25L53,111a.78.78,0,0,0,0-.14l.11-.28.11-.3.06-.15.13-.32.14-.32.15-.33.08-.16.17-.34.13-.28.15-.28s0-.09.07-.14l.16-.28s.05-.1.08-.14l.16-.29.18-.28.17-.29.19-.29.19-.29.19-.28a20.55,20.55,0,0,1,1.31-1.68l.24-.27.25-.26A10.67,10.67,0,0,1,65.18,100H70Zm6.44,0h.12c2,0,3.91,0,5.87,0H95.23l2.1,0c1.72,0,2.47.74,2.46,2.47,0,6.85-.07,13.7,0,20.56,0,2-1,2.89-2.7,2.91-6.84.1-13.7.1-20.54,0A2.54,2.54,0,0,1,73.85,123q.09-8.9,0-17.79l0-2.54C73.83,100.76,74.57,100,76.43,100ZM80.2,48.36c7.24.07,14.48.08,21.72.08h13.76q7.6,0,15.21,0a35.46,35.46,0,0,1,14.63,3.4,37.71,37.71,0,0,1,20,20.83C169.25,82,169.25,102,159,113l.3.33c9.92,11,9.88,30.8,6.2,40a37.72,37.72,0,0,1-20,20.82,35.47,35.47,0,0,1-14.63,3.41l-11.41,0H105.54c-8.45,0-16.9,0-25.34.09a6.59,6.59,0,0,1-6.41-6.39c.12-7.71.12-15.43.11-23.14V129.83h25.9v18.54l0,.33v.21l0,.2,0,.24,0,.22,0,.16a1.86,1.86,0,0,0,1,1.54l.09,0,.13.05a1.5,1.5,0,0,0,.32.09l.11,0,.17,0,.17,0,.18,0,.19,0,.2,0h6.4l6.74,0c4.79,0,9.58,0,14.37-.1a12.61,12.61,0,0,0,12.34-12.71,12.79,12.79,0,0,0-13-12.85H103.67V100h25.74a12.8,12.8,0,0,0,13-12.86A12.61,12.61,0,0,0,130,74.42c-4.79-.09-9.58-.1-14.37-.09H103l-.22,0h-.41l-.19,0-.18,0-.17,0-.17,0-.43.12-.13,0a1.85,1.85,0,0,0-1.13,1.58l0,.16,0,.23,0,.23,0,.2v.21l0,.33V96.15H73.87V93.8c0-2.17,0-4.34,0-6.51V80.78c0-8.68,0-17.36-.1-26A6.58,6.58,0,0,1,80.2,48.36Z"/></g></g></svg>