<svg width="24" height="24" viewBox="0 0 24 24" fill="none" xmlns="http://www.w3.org/2000/svg">
<circle cx="12" cy="12" r="12" fill="#0AC18E"/>
<path fill-rule="evenodd" clip-rule="evenodd" d="M16.231 7.50739C15.5515 5.9496 13.995 5.85658 12.2019 6.26609L11.4731 4.03613L10.1226 4.47264L10.8323 6.64381C10.4777 6.75831 10.1171 6.88257 9.75903 7.00624L9.04499 4.82061L7.69551 5.25649L8.42354 7.48599C8.13318 7.58642 7.84789 7.68461 7.56803 7.77523L7.56559 7.76837L5.70312 8.3693L6.17724 9.8189C6.17724 9.8189 7.16806 9.4777 7.15752 9.50151C7.70448 9.32501 7.98712 9.58649 8.12857 9.84541L8.95888 12.3858C8.99669 12.3738 9.04644 12.3595 9.10469 12.3491L8.96245 12.3952L10.1248 15.9544C10.1573 16.1351 10.1463 16.4437 9.76445 16.5678C9.78675 16.5776 8.78287 16.8846 8.78287 16.8846L9.04455 18.5926L10.802 18.0248C11.0005 17.9609 11.1977 17.8996 11.3928 17.8389C11.519 17.7996 11.6446 17.7606 11.7688 17.7214L12.5066 19.9769L13.8554 19.5414L13.1265 17.3097C13.499 17.198 13.8583 17.0851 14.2081 16.9718L14.9334 19.1932L16.2836 18.7569L15.5483 16.5054C17.7754 15.6412 19.1767 14.5529 18.6732 12.3469C18.2686 10.5699 17.2098 10.0606 15.8194 10.1655C16.4709 9.51117 16.7299 8.64679 16.231 7.50739ZM15.9177 12.9403C16.4236 14.4872 13.9946 15.2341 12.8843 15.5756C12.7849 15.6061 12.696 15.6335 12.6208 15.6578L11.6446 12.6695C11.7366 12.6398 11.8474 12.6011 11.973 12.5572C13.097 12.1644 15.4001 11.3595 15.9177 12.9403ZM11.4206 11.2326C12.3483 10.9497 14.3705 10.333 13.9116 8.92736C13.4419 7.48948 11.5237 8.16626 10.5869 8.49679C10.4816 8.53395 10.3887 8.56673 10.3116 8.59164L11.1972 11.3018C11.2608 11.2813 11.3362 11.2583 11.4206 11.2326Z" fill="white"/>
</svg>
