<svg width="24" height="24" viewBox="0 0 24 24" fill="none" xmlns="http://www.w3.org/2000/svg">
<g clip-path="url(#clip0_1898_6071)">
<path d="M12 24C18.6274 24 24 18.6274 24 12C24 5.37258 18.6274 0 12 0C5.37258 0 0 5.37258 0 12C0 18.6274 5.37258 24 12 24Z" fill="#F8F8F8"/>
<path d="M5.07202 7.99998L12 11.9999L18.9279 7.99998L12 4L5.07202 7.99998Z" fill="#EE2F51"/>
<path d="M5.07202 7.99998L12 11.9999V20L5.07202 16V7.99998Z" fill="#C32942"/>
<path d="M18.9279 7.99998L12 11.9999V20L18.9279 16V7.99998Z" fill="#7D1729"/>
<path d="M7.38272 14.6667L9.69176 13.3333V16L7.38272 14.6667Z" fill="#EE2F51"/>
<path d="M9.69093 13.3333L7.38106 12V14.6667L9.69093 13.3333Z" fill="#7D1729"/>
<path d="M16.6172 14.6667L14.3081 13.3333V16L16.6172 14.6667Z" fill="#EE2F51"/>
<path d="M14.309 13.3333L16.6189 12V14.6667L14.309 13.3333Z" fill="#C32942"/>
<path d="M9.69092 8.00003L12 6.66671V9.33336L9.69092 8.00003Z" fill="#7D1729"/>
<path d="M14.309 8.00003L12 6.66671V9.33336L14.309 8.00003Z" fill="#C32942"/>
</g>
<defs>
<clipPath id="clip0_1898_6071">
<rect width="24" height="24" fill="white"/>
</clipPath>
</defs>
</svg>
