<svg width="24" height="24" viewBox="0 0 24 24" fill="none" xmlns="http://www.w3.org/2000/svg">
<path d="M12 24C18.6274 24 24 18.6274 24 12C24 5.37258 18.6274 0 12 0C5.37258 0 0 5.37258 0 12C0 18.6274 5.37258 24 12 24Z" fill="#080806"/>
<g filter="url(#filter0_d_2434_7021)">
<path fill-rule="evenodd" clip-rule="evenodd" d="M5.02052 12.925L6.41673 12.9454L6.64361 12.9044V12.4189H5L5.02052 12.925ZM9.87233 12.925L11.4954 12.9437V12.4189H9.8518L9.87233 12.925ZM12.5251 12.925L18.1623 12.9429V12.8882L17.6893 12.4189H12.5046L12.5251 12.925ZM5.00307 13.6069L6.62616 13.5882L6.64668 13.0821H5.00307V13.6069ZM9.87233 13.5882L11.4954 13.6069V13.0821H9.8518L9.87233 13.5882ZM12.5077 13.6056H18.8761L18.356 13.0821H12.5077V13.6056ZM5.02052 14.2514H6.62616L6.64668 13.7453H5L5.02052 14.2514ZM9.87233 14.2514L11.4954 14.2701V13.7453H9.8518L9.87233 14.2514ZM12.5077 14.2688H14.1482V13.7453H12.5077V14.2688ZM17.3544 14.042L17.3769 14.2514L19 14.2701V13.7453H17.0657L17.3544 14.042ZM5.00307 14.932H6.64668L6.62616 14.4259L5.00307 14.4072V14.932ZM9.87816 14.4317L9.85488 14.455V14.932H11.4954V14.4085H9.9014L9.87816 14.4317ZM12.5077 14.932H14.1482V14.4085H12.5077V14.932ZM17.3827 14.4317L17.3595 14.455V14.7018L17.1363 14.932H19V14.4085H17.406L17.3827 14.4317ZM5.00307 15.5952H6.64361V15.0717H5.00307V15.5952ZM9.87816 15.0949L9.85488 15.1182V15.5952H11.4954V15.0717H9.9014L9.87816 15.0949ZM12.5077 15.5952H18.4258L18.9459 15.0717H12.5077V15.5952ZM5.00307 16.2584H6.64361V15.7348H5.00307V16.2584ZM9.87816 15.7581L9.85488 15.7814V16.2584H11.4954V15.7348H9.9014L9.87816 15.7581ZM12.5077 16.2584H18.9459L18.4258 15.7348H12.5077V16.2584ZM5.00307 16.9216H6.64668L6.62616 16.4155L5.00307 16.3968V16.9216ZM9.87816 16.4213L9.85488 16.4446V16.9216H11.4954V16.398H9.9014L9.87816 16.4213ZM12.5077 16.9216H14.1482V16.398H12.5077V16.9216ZM17.1849 16.4557L17.3595 16.6197V16.9216H19V16.398H17.1849V16.4557ZM5.00307 17.0981V17.5848H7.25385L6.76578 17.1008L5.97462 17.0787L5.00307 17.0981ZM9.72775 17.0993L9.24592 17.5848H11.4954V17.0583L10.1167 17.0781L9.72775 17.0993ZM12.5309 17.0845L12.5077 17.1078V17.5848H14.1482V17.1068L13.4043 17.0612H12.5542L12.5309 17.0845ZM17.3595 17.5848H19V17.0961H17.3595V17.5848ZM5.64693 18.248H10.8516L11.3365 17.7593H5.16203L5.64693 18.248ZM12.5077 18.248H14.1482V17.7593H12.5077V18.248ZM17.3595 18.248H19V17.7593H17.3595V18.248ZM6.31013 18.9112H10.1884L10.6733 18.4225H5.82523L6.31013 18.9112ZM12.5077 18.9112H14.1482V18.4225H12.5077V18.9112ZM17.4001 18.9112H19V18.4225L17.3769 18.4224L17.4001 18.9112Z" fill="#F66F2B"/>
<path fill-rule="evenodd" clip-rule="evenodd" d="M5 5.61238H10.6546V5.55814L10.1817 5.08881H5V5.61238ZM12.4522 5.59493L14.0753 5.61367V5.08881H12.4317L12.4522 5.59493ZM5 6.27558H11.3684L10.8483 5.752H5V6.27558ZM12.4522 6.25813L14.0753 6.27687V5.752H12.4317L12.4522 6.25813ZM5 6.94007L6.62309 6.92132L6.64361 6.4152H5V6.94007ZM9.8518 6.71454V6.93877H11.4923V6.4152H9.55804L9.8518 6.71454ZM12.4522 6.92132L14.0753 6.94007V6.4152H12.4317L12.4522 6.92132ZM5 7.60197H6.64054V7.07839H5V7.60197ZM9.8518 7.37177L9.62869 7.60197H11.4923V7.07839H9.8518V7.37177ZM12.4348 7.60197H14.0753V7.07839H12.4348V7.60197ZM5 8.26517H10.9183L11.3876 7.7922V7.74159H5V8.26517ZM12.4348 8.26517H14.0753V7.74159H12.4348V8.26517ZM5 8.92836H11.4382L10.9182 8.40479H5V8.92836ZM12.4348 8.92836H14.0753V8.40479H12.4348V8.92836ZM5 9.59156H6.64361L6.62309 9.08544L5 9.06669V9.59156ZM9.8518 9.29818V9.59156H11.4923V9.06798H9.62869L9.8518 9.29818ZM12.4581 9.09126L12.4348 9.11451V9.59156H14.0753V9.06798H12.4813L12.4581 9.09126ZM5 9.76916V10.2548H6.64361L6.62309 9.74863L5.50612 9.74423L5 9.76916ZM9.87508 9.75446L9.8518 9.77771V9.95541L9.55804 10.2548H11.4923V9.77422L11.3353 9.73212L9.89833 9.73118L9.87508 9.75446ZM12.4348 9.76902V10.2548H14.7205L14.2324 9.76926L12.9758 9.74863L12.4348 9.76902ZM5 10.918H10.8485L11.3334 10.4293H5V10.918ZM13.0786 10.918H18.2988V10.4293H12.5937L13.0786 10.918ZM5 11.5811H10.1853L10.6702 11.0925H5V11.5811ZM13.7418 11.5811H18.2988V11.0925H13.2569L13.7418 11.5811Z" fill="#F66F2B"/>
</g>
<defs>
<filter id="filter0_d_2434_7021" x="3" y="3.08881" width="18" height="17.8224" filterUnits="userSpaceOnUse" color-interpolation-filters="sRGB">
<feFlood flood-opacity="0" result="BackgroundImageFix"/>
<feColorMatrix in="SourceAlpha" type="matrix" values="0 0 0 0 0 0 0 0 0 0 0 0 0 0 0 0 0 0 127 0" result="hardAlpha"/>
<feOffset/>
<feGaussianBlur stdDeviation="1"/>
<feComposite in2="hardAlpha" operator="out"/>
<feColorMatrix type="matrix" values="0 0 0 0 0.956863 0 0 0 0 0.439216 0 0 0 0 0.164706 0 0 0 1 0"/>
<feBlend mode="normal" in2="BackgroundImageFix" result="effect1_dropShadow_2434_7021"/>
<feBlend mode="normal" in="SourceGraphic" in2="effect1_dropShadow_2434_7021" result="shape"/>
</filter>
</defs>
</svg>
