<?xml version="1.0" encoding="UTF-8"?>
<svg width="24px" height="24px" viewBox="0 0 24 24" version="1.1" xmlns="http://www.w3.org/2000/svg" xmlns:xlink="http://www.w3.org/1999/xlink">
  <path d="M23.65,14.9 C22.4792173,19.6103226 18.5862364,23.1515404 13.7864104,23.8723327 C8.98658442,24.593125 4.22519688,22.351538 1.72255124,18.192856 C-0.780094392,14.034174 -0.531124013,8.77741293 2.35336391,4.873876 C5.23785184,0.970339065 10.1897827,-0.811206344 14.9,0.36 L14.9,0.36 C21.3311642,1.95912375 25.2485454,8.46869198 23.65,14.9 Z" fill="#F3BA2F"></path>
  <path d="M8.13,10.4 L12.01,6.52 L15.9,10.41 L18.16,8.15 L12.01,2 L5.87,8.14 L8.13,10.4 M2.01,12 L4.27,9.74 L6.53,12 L4.27,14.26 L2.01,12 Z M8.13,13.6 L12.01,17.48 L15.9,13.59 L18.16,15.85 L18.16,15.85 L12.01,22 L5.87,15.86 L5.87,15.86 L8.13,13.6 M17.49,12 L19.75,9.74 L22.01,12 L19.75,14.26 L17.49,12 Z" fill="#FFFFFF"></path>
  <polyline fill="#FFFFFF" points="14.3 12 14.3 12 12.01 9.71 10.32 11.4 10.32 11.4 10.12 11.59 9.72 12 9.72 12 12.01 14.29 14.3 12 14.3 12"></polyline>
</svg>
