<svg width="24" height="24" viewBox="0 0 24 24" fill="none" xmlns="http://www.w3.org/2000/svg">
<circle cx="12" cy="12" r="12" fill="#F3BA2F"/>
<path d="M13.5379 17.2874V19.0805L11.9746 20L10.4574 19.0805V17.2874L11.9746 18.2069L13.5379 17.2874ZM5.17004 11.0805L6.68729 12V15.0805L9.30798 16.6437V18.4368L5.17004 16V11.0805ZM18.8252 11.0805V16L14.6413 18.4368V16.6437L17.262 15.0805V12L18.8252 11.0805ZM14.5953 8.64368L16.1586 9.56322V11.3563L13.5379 12.9195V16.046L12.0206 16.9655L10.5034 16.046V12.9195L7.79073 11.3563V9.56322L9.35395 8.64368L11.9746 10.2069L14.5953 8.64368ZM7.79073 12.6437L9.30798 13.5632V15.3563L7.79073 14.4368V12.6437ZM16.1586 12.6437V14.4368L14.6413 15.3563V13.5632L16.1586 12.6437ZM6.68729 7.08046L8.2505 8L6.68729 8.91954V10.7126L5.17004 9.7931V8L6.68729 7.08046ZM17.262 7.08046L18.8252 8V9.7931L17.262 10.7126V8.91954L15.7448 8L17.262 7.08046ZM11.9746 7.08046L13.5379 8L11.9746 8.91954L10.4574 8L11.9746 7.08046ZM11.9746 4L16.1586 6.43678L14.6413 7.35632L12.0206 5.7931L9.35395 7.35632L7.83671 6.43678L11.9746 4Z" fill="white"/>
</svg>
