<svg width="24" height="24" viewBox="0 0 24 24" fill="none" xmlns="http://www.w3.org/2000/svg">
<g clip-path="url(#clip0_2174_6536)">
<path d="M12 23.7C18.4618 23.7 23.7 18.4617 23.7 12C23.7 5.53827 18.4618 0.300003 12 0.300003C5.53832 0.300003 0.300049 5.53827 0.300049 12C0.300049 18.4617 5.53832 23.7 12 23.7Z" fill="#F1BB10"/>
<path fill-rule="evenodd" clip-rule="evenodd" d="M8.11221 5V9.93304L6.11441 9.91767L5.14624 14.6817L8.51177 14.0209L8.43493 19L14.7664 18.0011C15.878 17.8525 18.2334 17.123 18.7467 15.3886C19.1923 13.8825 18.1627 11.9616 17.1945 11.1317C17.2201 10.9268 17.2734 10.4245 17.2289 9.89543C17.1417 8.85897 16.5121 7.97751 16.0084 7.45444C15.4719 6.89731 14.4283 6.19868 12.7994 5.89133C11.4962 5.64545 9.1316 5.19466 8.11221 5ZM10.0793 6.22936L10.3866 9.87151L13.6907 9.93299C13.9929 9.93811 14.7927 10.0145 15.2353 10.1128C15.6779 10.2112 15.9702 10.3479 16.1034 10.4248C16.1188 10.0969 16.0696 9.2814 15.75 8.6421C15.3504 7.84298 14.5857 7.04423 13.2911 6.7826C12.3677 6.59599 10.7553 6.32532 10.0793 6.22936ZM6.85205 10.8858L6.69838 12.7299L8.12757 12.5609L8.09684 10.8704L6.85205 10.8858ZM10.571 12.2689L10.4865 10.7695L14.0566 10.8253C14.9993 10.8624 15.3286 11.0952 15.508 11.2221C15.5398 11.2446 15.5669 11.2637 15.5918 11.2778C15.3923 11.5821 14.6218 11.7215 14.1688 11.8034C14.1201 11.8122 14.075 11.8204 14.0347 11.828L10.571 12.2689ZM10.5134 13.704L10.7334 17.1144L14.5838 16.6193C15.1156 16.5277 16.3055 16.1884 16.8116 15.565C17.4442 14.7858 17.2791 13.7682 17.16 13.3373C17.0646 12.9926 16.7413 12.4175 16.5916 12.173C16.1729 12.4786 14.978 12.9706 13.5112 13.2364L10.5134 13.704Z" fill="#0D0E12"/>
</g>
<defs>
<clipPath id="clip0_2174_6536">
<rect width="24" height="24" fill="white"/>
</clipPath>
</defs>
</svg>
