<?xml version="1.0" encoding="UTF-8"?>
<svg width="24px" height="24px" viewBox="0 0 24 24" version="1.1" xmlns="http://www.w3.org/2000/svg" xmlns:xlink="http://www.w3.org/1999/xlink">
  <path d="M23.6450969,14.8975325 C22.4732054,19.6082627 18.5786348,23.1489534 13.7778986,23.8681484 C8.97716246,24.5873434 4.21599428,22.3433631 1.71510768,18.1828493 C-0.785778915,14.0223354 -0.533715213,8.76489934 2.35373073,4.86272492 C5.24117668,0.960550492 10.1951849,-0.817643204 14.9050969,0.357532486 C21.3322048,1.96116772 25.2442506,8.46930811 23.6450969,14.8975325 Z" fill="#EB9B32"></path>
  <path d="M16.24,9.31 C16.1,7.78 14.79,7.31 13.15,7.12 L13.15,5 L11.87,5 L11.87,7.07 L10.87,7.07 L10.87,5 L9.57,5 L9.57,7.12 L7,7.12 L7,8.5 L7.93,8.5 C8.28662562,8.46415432 8.60830105,8.71532556 8.66,9.07 L8.66,11.48 L8.66,11.48 L8.66,14.87 C8.64390985,15.120187 8.43044372,15.311417 8.18,15.3 L7.25,15.3 L7,16.85 L9.57,16.85 L9.57,19 L10.85,19 L10.85,16.88 L11.85,16.88 L11.85,19 L13.13,19 L13.13,16.86 C15.27,16.73 16.77,16.19 16.96,14.15 C17.0976874,13.5506181 16.9782059,12.9209666 16.6305206,12.4136881 C16.2828353,11.9064096 15.7386906,11.5678195 15.13,11.48 C15.8823379,11.1115837 16.325363,10.3133403 16.24,9.48 L16.24,9.31 Z M14.46,13.9 C14.46,15.5 11.74,15.32 10.88,15.32 L10.88,12.47 L11.7,12.47 C12.83,12.46 14.46,12.6 14.46,13.9 Z M13.86,9.9 C13.86,11.35 11.6,11.18 10.86,11.18 L10.86,8.6 L11.47,8.6 C12.38,8.6 13.72,8.69 13.84,9.75 L13.86,9.9 Z"  fill="#FFFFFF"></path>
</svg>
