<svg width="24" height="24" viewBox="0 0 24 24" fill="none" xmlns="http://www.w3.org/2000/svg">
<circle cx="12" cy="12" r="12" fill="black"/>
<path d="M16.6189 15.7859C16.7282 15.7859 16.8238 15.7859 16.9262 15.7859C16.9603 16.158 16.8784 16.5062 16.7282 16.8305C16.24 17.8683 15.4172 18.4214 14.2668 18.4282C12.3447 18.4419 10.4227 18.4316 8.5007 18.4316C7.89303 18.4316 7.36046 18.0732 7.1727 17.544C6.96104 16.9466 7.12832 16.3492 7.62333 15.9566C7.8862 15.7483 8.19345 15.6698 8.52801 15.6698C10.433 15.6732 12.3379 15.6732 14.2429 15.6698C15.0315 15.6698 15.6699 15.3557 16.1581 14.7276C16.2468 14.6149 16.2468 14.5296 16.1581 14.4169C15.7006 13.8331 15.11 13.4951 14.3623 13.4917C12.8398 13.4815 11.3137 13.4883 9.79115 13.4849C8.6236 13.4815 7.6643 12.8329 7.25122 11.7438C7.14539 11.4639 7.11466 11.1566 7.04297 10.8426C7.20001 10.8426 7.30242 10.8426 7.40143 10.8426C7.44581 11.0747 7.46629 11.3103 7.53798 11.5287C7.87596 12.5358 8.71236 13.1367 9.78091 13.1367C11.2079 13.1401 12.6349 13.1503 14.0619 13.1333C15.0144 13.1196 15.8098 13.4235 16.4073 14.1813C16.4141 14.1882 16.4278 14.1916 16.4448 14.1984C16.6701 13.6283 16.677 13.0513 16.4346 12.4949C16.0249 11.5526 15.2841 11.0645 14.2565 11.0542C12.7715 11.0406 11.2898 11.0508 9.80481 11.0508C8.72602 11.0508 7.92034 10.5763 7.39119 9.64087C6.67768 8.37431 7.2478 6.64006 8.56556 6.02897C8.94792 5.85145 9.34393 5.75586 9.76725 5.75586C11.6824 5.75586 13.6011 5.75586 15.5162 5.75586C16.2024 5.75586 16.7589 6.1826 16.9091 6.81417C17.1105 7.66081 16.5029 8.49039 15.6323 8.5177C14.9291 8.54159 14.2224 8.52452 13.5157 8.52452C12.2696 8.52452 11.0236 8.52452 9.78091 8.52452C8.97523 8.52452 8.33342 8.84884 7.84865 9.49407C7.77695 9.58966 7.7872 9.65452 7.85206 9.74328C8.34707 10.409 9.01961 10.7128 9.83553 10.7162C11.3069 10.7197 12.7817 10.7128 14.2531 10.7197C15.3865 10.7231 16.2024 11.2488 16.7009 12.2593C17.2778 13.4235 16.7999 14.9597 15.6699 15.622C15.2226 15.8849 14.7447 16.0146 14.2258 16.0112C12.3106 16.0112 10.392 16.0112 8.4768 16.0112C8.0091 16.0112 7.60626 16.2945 7.47312 16.7144C7.32974 17.1685 7.47312 17.643 7.87596 17.8991C8.03982 18.0049 8.2549 18.0834 8.44608 18.0834C10.4193 18.0971 12.3925 18.0971 14.3658 18.0902C15.4855 18.0868 16.4824 17.1548 16.5882 16.0351C16.595 15.9566 16.6053 15.878 16.6189 15.7859ZM7.58919 9.23803C7.60967 9.22779 7.62333 9.22437 7.63016 9.21413C8.21393 8.48014 8.98547 8.17289 9.91405 8.17631C11.7917 8.18655 13.6659 8.18314 15.5436 8.17631C16.1444 8.17631 16.6053 7.71885 16.6121 7.1419C16.6155 6.56837 16.1376 6.09383 15.5367 6.09383C13.5976 6.09042 11.6585 6.08701 9.71946 6.09725C9.08448 6.10066 8.53825 6.33963 8.08421 6.79027C7.37412 7.49694 7.28535 8.55525 7.58919 9.23803Z" fill="white"/>
</svg>
