<svg width="24" height="24" viewBox="0 0 24 24" fill="none" xmlns="http://www.w3.org/2000/svg">
<circle cx="12" cy="12" r="12" fill="#EBA809"/>
<path fill-rule="evenodd" clip-rule="evenodd" d="M12 21C16.9706 21 21 16.9706 21 12C21 7.02944 16.9706 3 12 3C7.02944 3 3 7.02944 3 12C3 16.9706 7.02944 21 12 21ZM12.0051 20C11.6689 19.9998 11.3327 19.9781 10.9991 19.9342C9.42347 19.745 7.9191 19.0569 6.72543 18.015C8.13356 19.2508 9.97929 20 12 20C12.0017 20 12.0034 20 12.0051 20ZM5.50624 16.6734C5.47714 16.6326 5.44843 16.5915 5.42014 16.5501C5.40182 16.5242 5.38368 16.4982 5.36572 16.472C5.41155 16.5399 5.4584 16.607 5.50624 16.6734ZM4.27891 14.1016C4.09436 13.4155 4.00055 12.7046 4 11.9937C4 11.9958 4 11.9979 4 12C4 12.7273 4.09705 13.4319 4.27891 14.1016ZM5.98625 6.72397C7.10427 5.46088 8.61681 4.54327 10.2712 4.18728C10.4197 4.15533 10.5693 4.1279 10.7199 4.10516C11.0735 4.04606 11.4308 4.01218 11.7886 4.00274C11.269 4.01622 10.7617 4.07925 10.2712 4.18728C8.5799 4.55985 7.08936 5.46762 5.98625 6.72397ZM11.9982 4C11.9988 4 11.9994 4 12 4C12.9843 4 13.9271 4.17776 14.798 4.50293C13.9044 4.17271 12.9515 4.0002 11.9982 4ZM17.4483 6.14201C17.4876 6.17942 17.5265 6.21728 17.5649 6.2556C17.6049 6.29331 17.6445 6.33146 17.6836 6.37003C17.6067 6.29244 17.5283 6.21641 17.4483 6.14201ZM12.6819 19.9713C13.1318 19.9334 13.5711 19.8582 13.9967 19.7488C13.5656 19.8589 13.1253 19.9336 12.6819 19.9713ZM17.5094 17.8006C17.5403 17.7712 17.571 17.7416 17.6015 17.7117C17.5856 17.7269 17.5697 17.742 17.5537 17.757C17.539 17.7716 17.5242 17.7861 17.5094 17.8006ZM20 12C20 12.0393 19.9997 12.0785 19.9992 12.1177C19.9991 12.0874 19.9988 12.0571 19.9984 12.0267C19.999 11.9963 19.9995 11.9658 19.9997 11.9354C19.9999 11.9569 20 11.9784 20 12ZM11.2091 4.59242C11.5588 4.56848 11.9099 4.55158 12.2595 4.54032C12.2623 5.25697 12.2609 5.97503 12.2595 6.69309C11.9099 6.69168 11.5602 6.69217 11.2106 6.69217C11.212 5.99249 11.2106 5.2921 11.2091 4.59242ZM16.3764 7.61177C15.6418 6.99072 14.6521 6.84989 13.7314 6.72597C13.73 6.06548 13.73 5.40641 13.7357 4.74733C15.6799 5.2346 17.4113 6.50487 18.4292 8.23423C19.5811 10.1509 19.7742 12.5999 18.9579 14.6813C18.0979 16.9374 16.0747 18.6808 13.73 19.254C13.7302 19.1601 13.7305 19.0662 13.7307 18.9723C13.7321 18.4103 13.7335 17.8492 13.7286 17.2881C13.7583 17.2852 13.788 17.2824 13.8178 17.2796C14.9072 17.1768 16.086 17.0655 16.9629 16.3445C17.8723 15.5474 18.0824 14.1898 17.8187 13.059C17.6157 12.1971 16.8022 11.6493 15.9802 11.4578C17.352 10.7283 17.4973 8.61728 16.3764 7.61177ZM9.35537 6.73539C8.48119 6.73779 7.60715 6.74019 6.73415 6.6978C7.62803 5.91198 8.64174 5.25009 9.77952 4.88112C9.7829 5.37564 9.78268 5.86926 9.78245 6.36342C9.78239 6.48704 9.78234 6.6107 9.78234 6.73441C9.64001 6.73461 9.49769 6.735 9.35537 6.73539ZM5.54844 8.28915C5.84451 7.7357 6.34361 7.11043 6.6129 6.77948L6.62136 6.76681C6.66648 6.85271 6.65943 6.98509 6.65943 6.98509C6.66507 7.40616 6.67212 7.82724 6.73274 8.24409C6.85618 8.2451 6.98017 8.24354 7.10438 8.24198C7.50087 8.237 7.89956 8.232 8.28926 8.31028C8.59944 8.36943 8.78695 8.69192 8.76863 8.99048C8.77724 9.93252 8.77562 10.8749 8.774 11.8175C8.77244 12.7265 8.77088 13.6356 8.7785 14.5447C8.77526 14.6123 8.7762 14.6828 8.77715 14.7542C8.78075 15.0252 8.78453 15.3095 8.56137 15.4967C8.21367 15.6145 7.84617 15.602 7.48109 15.5895C7.33988 15.5847 7.19904 15.5799 7.05984 15.5826C6.86668 16.1178 6.73274 16.6726 6.72147 17.2402C7.39665 17.2766 8.07369 17.2728 8.75054 17.2689C9.09414 17.267 9.43769 17.265 9.78093 17.2683C9.78093 17.4221 9.78102 17.576 9.7811 17.73C9.78137 18.1921 9.78163 18.6547 9.77952 19.1174C7.7817 18.4752 6.07574 16.9839 5.2157 15.0672C4.21891 12.9294 4.35426 10.3213 5.54844 8.28915ZM11.2529 11.1001V8.37083C11.4368 8.3761 11.6245 8.3745 11.8138 8.37289C12.5355 8.36673 13.2786 8.3604 13.9119 8.73417C14.5957 9.12426 14.638 10.2213 13.9754 10.6551C13.3033 11.101 12.4791 11.0995 11.6908 11.098C11.5432 11.0977 11.3968 11.0974 11.2529 11.1001ZM11.2529 15.5967V12.5689C11.4901 12.5754 11.7323 12.5716 11.9761 12.5678C12.852 12.5541 13.7491 12.5401 14.5167 12.9984C15.2386 13.4012 15.3232 14.5518 14.6225 15.0165C13.8815 15.5298 12.9785 15.547 12.0951 15.5639C11.8103 15.5693 11.5275 15.5747 11.2529 15.5967ZM11.2091 19.4103C11.2106 18.7104 11.212 18.0091 11.212 17.3092H12.3046C12.3046 17.4884 12.3047 17.6676 12.3048 17.8469C12.3051 18.3845 12.3053 18.922 12.3032 19.4596C11.9381 19.4484 11.5743 19.4343 11.2091 19.4103Z" fill="white"/>
</svg>
