<svg width="24" height="24" viewBox="0 0 24 24" fill="none" xmlns="http://www.w3.org/2000/svg">
<circle cx="12" cy="12" r="12" fill="#131313"/>
<path d="M13.6576 10.9671L9.84806 7.15754L7.72433 7.72594L7.33793 9.17025L5.54264 10.9671L5 10.4261L6.148 6.14639L10.4261 5L11.2859 5.86142L15.0246 9.59851L13.6576 10.9671Z" fill="white"/>
<path d="M10.3424 13.0329L14.1519 16.8425L16.2741 16.2741L16.6621 14.8282L18.4574 13.0329L19 13.5739L17.8536 17.8536L13.5739 19L8.97537 14.3999L10.3424 13.0329Z" fill="white"/>
<path d="M7.72594 16.2741L7.15754 14.1519L10.9671 10.3424L9.60012 8.97376L5.86142 12.7141L5 13.5739L6.148 17.852L10.4261 19L10.9671 18.4574L9.17186 16.6605L7.72594 16.2741Z" fill="white"/>
<path d="M13.0329 13.6576L16.8441 9.84645L16.2741 7.72433L14.8282 7.33793L13.0329 5.54264L13.5739 5L17.8536 6.14639L19 10.4261L14.3999 15.0246L13.0329 13.6576Z" fill="white"/>
</svg>
