<svg width="24" height="24" viewBox="0 0 24 24" fill="none" xmlns="http://www.w3.org/2000/svg">
<circle cx="12" cy="12" r="12" fill="black"/>
<path d="M12.4804 21.5873H11.9749C9.83207 21.5906 7.75088 20.8706 6.06809 19.544C5.24394 18.7933 4.69014 17.7962 4.38159 17.1198C4.12329 16.553 3.91423 15.963 3.77855 15.3469C3.64387 14.7438 3.56949 14.1287 3.55743 13.5006V13.181L3.59462 12.6402C3.64918 12.0603 3.76027 11.487 3.92629 10.9286C4.09555 10.3615 4.32254 9.81317 4.60371 9.29236C4.88791 8.75211 5.23033 8.24455 5.62486 7.77873C6.04387 7.27541 6.51861 6.82123 7.03999 6.4249C7.54453 6.04298 8.08626 5.71131 8.66518 5.43994C9.23292 5.17703 9.82686 4.97489 10.4371 4.8369C11.0435 4.70125 11.6621 4.62717 12.2834 4.61578H12.603V6.25203H12.3196C10.2773 6.30128 8.28326 7.17569 6.88018 8.83706C5.79999 10.1189 5.20355 11.7389 5.19469 13.4151C5.18481 14.5387 5.42477 15.6504 5.89722 16.6699C6.36967 17.6894 7.06279 18.5911 7.92646 19.3099C9.02198 20.2215 10.3135 20.7501 11.6683 21.0456C12.5685 21.2464 13.4903 21.3331 14.4122 21.3039C14.3629 21.316 14.3167 21.3283 14.2705 21.3406C14.2242 21.3529 14.178 21.3652 14.1287 21.3773H14.1167C14.0975 21.384 14.0752 21.3873 14.0531 21.3905C14.0323 21.3935 14.0116 21.3966 13.994 21.4024H13.9689C13.8825 21.4265 13.784 21.4517 13.6865 21.4637C13.663 21.4695 13.6423 21.4725 13.6217 21.4755C13.5991 21.4787 13.5766 21.482 13.5508 21.4888H13.5257C13.5077 21.4888 13.4895 21.4918 13.4712 21.4948C13.4526 21.4978 13.4338 21.5009 13.4151 21.5009H13.391L13.3669 21.507C13.3288 21.5167 13.2962 21.525 13.2553 21.525C13.2307 21.525 13.2061 21.5283 13.1814 21.5316C13.1568 21.5348 13.1322 21.5381 13.1076 21.5381H13.0835C13.0571 21.5381 13.0342 21.5415 13.0129 21.5448C12.9944 21.5475 12.9771 21.5501 12.9598 21.5501H12.9226C12.8865 21.5622 12.8493 21.5622 12.8121 21.5622H12.7749C12.7256 21.5743 12.6895 21.5743 12.6402 21.5743H12.6272C12.5779 21.5873 12.5297 21.5873 12.4804 21.5873Z" fill="white"/>
<path d="M14.8795 20.0114C14.2725 19.9897 13.6679 19.9239 13.0704 19.8144C10.5356 19.3591 8.35666 17.8083 7.55764 15.4705C6.58473 12.6272 8.07424 9.55065 10.9045 8.61594C11.4439 8.43518 12.0091 8.34353 12.5779 8.34457C13.3046 8.34457 14.0303 8.49231 14.6956 8.76268L15.3841 7.29829C15.177 7.21528 14.9679 7.13753 14.7569 7.06512C14.0518 6.84381 13.317 6.73162 12.5779 6.73244C11.8375 6.73383 11.1021 6.8543 10.4 7.08924C9.50381 7.38482 8.67846 7.86251 7.97574 8.49231C7.63684 8.79421 7.32786 9.12809 7.05309 9.48934C6.78147 9.84645 6.54645 10.23 6.35156 10.6341C5.95471 11.4466 5.72049 12.3288 5.66208 13.2312C5.60077 14.1659 5.72339 15.1006 6.03094 15.9871C6.34431 16.899 6.84792 17.7339 7.50839 18.4364C8.11143 19.0887 8.81297 19.5812 9.66124 20.0365C10.5477 20.5039 11.6432 20.7501 12.787 20.9109C13.5257 21.0084 14.5107 21.0335 15.0886 21.0335C15.5653 20.8588 15.7782 20.772 16.0292 20.6697L16.0736 20.6516C16.3077 20.541 16.5409 20.4305 16.7751 20.2948C16.9994 20.1648 17.043 20.1363 17.3918 19.9079L17.4394 19.8767C17.4745 19.8549 17.5074 19.83 17.5379 19.8023C16.229 20.0287 15.8633 20.024 14.973 20.0126L14.8795 20.0114Z" fill="white"/>
<path d="M17.855 18.1815C17.8729 18.1803 17.8905 18.1792 17.9078 18.1781C18.2757 18.1496 18.7744 18.0998 19.1591 18.0613C19.2757 18.0497 19.3818 18.039 19.4707 18.0304C19.0349 18.5726 18.5393 19.0639 17.9932 19.4948C17.4274 19.6174 17.0947 19.6546 16.6524 19.6918C15.0524 19.8023 13.4031 19.6666 12.2834 19.2978C11.1135 18.9038 10.019 18.2143 9.21897 17.354C8.76368 16.8615 8.40588 16.3318 8.14858 15.766C7.8669 15.1388 7.71968 14.4595 7.7164 13.7719C7.7164 13.1159 7.84573 12.4663 8.097 11.8602C8.34828 11.2542 8.71656 10.7037 9.18078 10.2401C9.64437 9.77575 10.195 9.40734 10.8011 9.15597C11.4072 8.90461 12.0569 8.77522 12.7131 8.77522C13.3693 8.77522 14.019 8.90461 14.6251 9.15597C15.2312 9.40734 15.7818 9.77575 16.2454 10.2401C16.5953 10.5825 16.8902 10.9767 17.1198 11.409L15.6554 12.1347C15.0765 11.1135 13.981 10.412 12.7136 10.412C12.2707 10.4116 11.832 10.4985 11.4227 10.6679C11.0134 10.8372 10.6415 11.0855 10.3283 11.3987C10.0151 11.7119 9.76678 12.0838 9.59746 12.4931C9.42815 12.9024 9.3412 13.3411 9.34159 13.784C9.34159 15.6554 11.015 17.1691 12.788 17.759C13.9317 18.141 15.2735 18.2384 16.369 18.2384C16.9563 18.2384 17.4767 18.2055 17.855 18.1815Z" fill="white"/>
<path fill-rule="evenodd" clip-rule="evenodd" d="M23.0517 7.33549C23.3593 8.06129 23.5943 8.81575 23.7532 9.58784C24.2432 11.9633 23.9985 14.4315 23.0517 16.6645C22.7442 17.3781 22.3743 18.0676 21.9441 18.7068C21.5143 19.3436 21.0238 19.9373 20.4797 20.4797C19.9373 21.0238 19.3436 21.5143 18.7068 21.9441C18.0545 22.3743 17.3781 22.7562 16.6645 23.0517C15.189 23.6775 13.6027 24 12 24C10.3973 24 8.81097 23.6775 7.33549 23.0517C6.62189 22.7442 5.93241 22.3743 5.29319 21.9441C4.65642 21.5143 4.06268 21.0238 3.52025 20.4797C2.97622 19.9373 2.48582 19.3435 2.05587 18.7068C1.6257 18.0545 1.24378 17.3781 0.948289 16.6645C0.322497 15.189 0 13.6027 0 12C0 10.3973 0.322497 8.81097 0.948289 7.33549C1.25365 6.62167 1.62442 5.93765 2.05587 5.29219C2.48585 4.65611 2.97625 4.06305 3.52025 3.52126C4.61287 2.42401 5.90874 1.55009 7.33549 0.948289C8.81097 0.322497 10.3973 0 12 0C13.6027 0 15.189 0.322497 16.6645 0.948289C17.378 1.2537 18.0617 1.62448 18.7068 2.05587C19.3436 2.48574 19.9373 2.97615 20.4797 3.52025C21.0238 4.06236 21.5142 4.65576 21.9441 5.29219C22.3777 5.93637 22.7486 6.62059 23.0517 7.33549ZM1.5262 12.0121C1.5262 17.7962 6.21484 22.4979 12.0111 22.4979C17.7962 22.4979 22.4969 17.7962 22.4969 12.0121C22.4969 6.2279 17.7952 1.5262 12.0111 1.5262C6.2279 1.5262 1.5262 6.2279 1.5262 12.0121Z" fill="white"/>
</svg>
