<?xml version="1.0" encoding="UTF-8"?>
<svg width="24px" height="24px" viewBox="0 0 24 24" version="1.1" xmlns="http://www.w3.org/2000/svg" xmlns:xlink="http://www.w3.org/1999/xlink">
  <path d="M23.6456795,14.8951863 C22.4748968,19.6055089 18.581916,23.1467267 13.7820899,23.867519 C8.98226394,24.5883113 4.22087641,22.3467243 1.71823077,18.1880423 C-0.784414865,14.0293603 -0.535444486,8.77259924 2.34904344,4.86906231 C5.23353137,0.965525373 10.1854622,-0.816020036 14.8956795,0.355186308 L14.8956795,0.355186308 C21.3268438,1.95431006 25.2442249,8.46387829 23.6456795,14.8951863 L23.6456795,14.8951863 Z" fill="#F0B90B"></path>
  <polygon fill="#FFFFFF" points="11.9956795 1.99518631 14.4756795 4.51518631 8.23567953 10.7551863 5.76567953 8.27518631"></polygon>
  <polygon fill="#FFFFFF" points="15.7656795 5.75518631 18.2356795 8.27518631 8.23567953 18.2751863 5.76567953 15.7751863"></polygon>
  <polygon fill="#FFFFFF" points="4.47567953 9.50518631 6.99567953 11.9951863 4.47567953 14.4951863 1.99567953 11.9951863"></polygon>
  <polygon fill="#FFFFFF" points="19.5256795 9.50518631 21.9956795 11.9951863 11.9956795 21.9951863 9.52567953 19.5251863"></polygon>
</svg>
