<svg id="Layer_1" data-name="Layer 1" xmlns="http://www.w3.org/2000/svg" viewBox="0 0 225 225"><defs><style>.cls-1{fill:#2c598a;}.cls-2{fill:#fff;}</style></defs><circle class="cls-1" cx="112.5" cy="112.5" r="112.5"/><path class="cls-2" d="M151.18,111.16c16.93,8.6,19.79,21.31,16.08,34.2-3.59,12.48-14.1,17.69-25.65,18.95-14.25,1.55-28.73,1.18-43.11,1.48-8.18.17-16.37-.14-24.55.1-3.72.11-5.25-1-5.24-4.86q.14-47.35,0-94.7c0-4.21,1.67-5.22,5.58-5.18,17.73.17,35.49-.48,53.19.35a58.21,58.21,0,0,1,22.8,5.79c16.71,8.41,18.21,30,3.63,41.74C153,109.73,152.14,110.41,151.18,111.16ZM99.8,123.76v19.3c10.14,0,19.87.42,29.54-.14,6.84-.41,10.25-6.32,8-12.71-1.77-5-6.42-6.16-10.89-6.34C117.71,123.51,109,123.76,99.8,123.76Zm-.19-21.66c8.37,0,16.14.4,23.85-.14,4.76-.33,9-2.43,9.41-8.41.34-5.53-2.85-8.88-7.62-9.26-8.42-.67-16.92-.19-25.64-.19Z"/><path class="cls-1" d="M99.8,123.76c9.16,0,17.91-.25,26.64.11,4.47.18,9.12,1.34,10.89,6.34,2.26,6.39-1.15,12.3-8,12.71-9.67.56-19.4.14-29.54.14Z"/><path class="cls-1" d="M99.61,102.1v-18c8.72,0,17.22-.48,25.64.19,4.77.38,8,3.73,7.62,9.26-.36,6-4.65,8.08-9.41,8.41C115.75,102.5,108,102.1,99.61,102.1Z"/></svg>