<svg width="24" height="24" viewBox="0 0 24 24" fill="none" xmlns="http://www.w3.org/2000/svg">
<circle cx="12" cy="12" r="12" fill="#41D2DB"/>
<path fill-rule="evenodd" clip-rule="evenodd" d="M6.23659 5.83912C5.95268 4.36278 7.08833 3 8.56467 3C9.87066 3 10.9495 4.07886 10.9495 5.38486V8.33754C11.2902 8.33754 11.6309 8.28076 11.9716 8.28076C12.3123 8.28076 12.5962 8.28076 12.9369 8.33754V5.38486C12.9369 4.07886 14.0158 3 15.3218 3C16.7981 3 17.9338 4.36278 17.7066 5.83912L17.082 9.30284C19.2965 10.2681 21 11.9716 21 14.0726V15.3785C21 17.1388 19.8644 18.6151 18.2177 19.5804C16.571 20.6025 14.4132 21.1703 11.9716 21.1703C9.52997 21.1703 7.37224 20.6025 5.72555 19.5804C4.13565 18.6151 3 17.1388 3 15.3785V14.0726C3 11.9716 4.64669 10.2681 6.8612 9.30284L6.23659 5.83912ZM16.2303 9.7571L16.9685 5.66877C17.1388 4.64669 16.4006 3.68139 15.3218 3.68139C14.4132 3.68139 13.6751 4.41956 13.6751 5.32808V9.07571C13.4479 9.01893 13.164 9.01893 12.9369 9.01893C12.5962 9.01893 12.3123 8.96215 11.9716 8.96215C11.6309 8.96215 11.2902 8.96215 10.9495 9.01893C10.7224 9.01893 10.4385 9.07571 10.2114 9.07571V5.38486C10.2114 4.47634 9.47319 3.73817 8.56467 3.73817C7.54259 3.73817 6.74763 4.70347 6.97476 5.72555L7.71293 9.81388C5.32808 10.7224 3.73817 12.3123 3.73817 14.1293V15.4353C3.73817 18.2177 7.42902 20.489 11.9716 20.489C16.5142 20.489 20.205 18.2177 20.205 15.4353V14.1293C20.2618 12.2555 18.6719 10.6656 16.2303 9.7571Z" fill="#633001"/>
<path d="M20.2618 15.3783C20.2618 18.1606 16.571 20.4319 12.0284 20.4319C7.48577 20.4319 3.79492 18.1606 3.79492 15.3783V14.0723H20.2618V15.3783Z" fill="#FEDC90"/>
<path fill-rule="evenodd" clip-rule="evenodd" d="M6.97473 5.72566C6.7476 4.70358 7.54256 3.73828 8.56464 3.73828C9.47316 3.73828 10.2113 4.47645 10.2113 5.38497V9.1326C10.7792 9.07582 11.347 9.01904 11.9716 9.01904C12.5394 9.01904 13.1072 9.07582 13.675 9.1326V5.38497C13.675 4.47645 14.4132 3.73828 15.3217 3.73828C16.3438 3.73828 17.1388 4.70358 16.9684 5.72566L16.2303 9.81399C18.6151 10.7225 20.2618 12.3124 20.2618 14.1294C20.2618 16.9118 16.5709 19.1831 12.0284 19.1831C7.48577 19.1831 3.79492 16.9118 3.79492 14.1294C3.79492 12.3124 5.38483 10.7225 7.76969 9.81399L6.97473 5.72566Z" fill="#D1884F"/>
<path d="M9.70082 13.7319C9.70082 14.4701 9.30335 15.0947 8.79231 15.0947C8.28127 15.0947 7.88379 14.4701 7.88379 13.7319C7.88379 12.9937 8.28127 12.3691 8.79231 12.3691C9.30335 12.3691 9.70082 12.9937 9.70082 13.7319Z" fill="#633001"/>
<path d="M16.0036 13.7319C16.0036 14.4701 15.6061 15.0947 15.095 15.0947C14.584 15.0947 14.1865 14.4701 14.1865 13.7319C14.1865 12.9937 14.584 12.3691 15.095 12.3691C15.6061 12.3691 16.0036 12.9937 16.0036 13.7319Z" fill="#633001"/>
</svg>
