<?xml version="1.0" encoding="UTF-8"?>
<svg width="24px" height="24px" viewBox="0 0 24 24" version="1.1" xmlns="http://www.w3.org/2000/svg" xmlns:xlink="http://www.w3.org/1999/xlink">
  <defs>
    <linearGradient x1="-2.47846874%" y1="100.311124%" x2="97.5096663%" y2="0.330690657%" id="UZGWMMXATYMAYYTYRVACYBGZCAZDPOVDUW">
      <stop stop-color="#F76C1D" offset="0%"></stop>
      <stop stop-color="#F7CC69" offset="100%"></stop>
    </linearGradient>
  </defs>
  <path d="M23.6450969,14.8975325 C22.4732054,19.6082627 18.5786348,23.1489534 13.7778986,23.8681484 C8.97716246,24.5873434 4.21599428,22.3433631 1.71510768,18.1828493 C-0.785778915,14.0223354 -0.533715213,8.76489934 2.35373073,4.86272492 C5.24117668,0.960550492 10.1951849,-0.817643204 14.9050969,0.357532486 C21.3322048,1.96116772 25.2442506,8.46930811 23.6450969,14.8975325 Z" fill="url(#UZGWMMXATYMAYYTYRVACYBGZCAZDPOVDUW)" fill-rule="nonzero"></path>
  <path d="M15.8665717,6.35188202 C16.2265717,6.62188202 16.2365717,6.78188202 15.8665717,7.09188202 L15.3365717,7.57188202 C15.2510992,7.67046349 15.1270472,7.72709396 14.9965717,7.72709396 C14.8660962,7.72709396 14.7420442,7.67046349 14.6565717,7.57188202 C12.7020423,6.21650429 10.0632517,6.42560021 8.34657169,8.07188202 C6.88878427,9.394198 6.31407638,11.4328578 6.86657169,13.321882 C7.30470817,15.2312015 8.81747298,16.7087858 10.7365717,17.101882 C12.3660252,17.4985362 14.0846061,17.0215732 15.2765717,15.841882 C15.7165717,15.441882 15.7365717,15.431882 16.2765717,15.761882 L16.7365717,16.071882 C17.0365717,16.291882 17.0665717,16.471882 16.8065717,16.751882 C16.0276504,17.6058629 15.0430544,18.2461946 13.9465717,18.611882 C13.2882143,18.8435842 12.594479,18.9586427 11.8965717,18.951882 C8.37788928,18.942115 5.42847159,16.2897919 5.04657169,12.791882 C4.62383475,9.12376711 7.12295007,5.75805838 10.7565717,5.10188202 C12.5599869,4.77857796 14.416039,5.23260244 15.8665717,6.35188202 Z M17.3865717,7.85188202 C17.8339045,7.85713589 18.2606674,8.04058885 18.5722736,8.36158077 C18.8838798,8.68257268 19.0545912,9.11459026 19.0465717,9.56188202 C19.0137505,10.4633072 18.2631349,11.1713073 17.3613311,11.1514446 C16.4595273,11.131582 15.7408126,10.3912193 15.7477126,9.48922314 C15.7546126,8.58722703 16.4845696,7.85794614 17.3865717,7.85188202 Z M17.3865717,9.01188202 C17.2432937,9.00567501 17.104248,9.06128978 17.0047712,9.16459265 C16.9052944,9.26789551 16.8549643,9.4089401 16.8665717,9.55188202 C16.8379859,9.76048203 16.9332515,9.96667459 17.1106275,10.0801156 C17.2880035,10.1935567 17.5151399,10.1935567 17.6925158,10.0801156 C17.8698918,9.96667459 17.9651575,9.76048203 17.9365717,9.55188202 C17.9488217,9.40259315 17.8948224,9.25546718 17.7889045,9.14954922 C17.6829865,9.04363126 17.5358606,8.98963198 17.3865717,9.00188202 L17.3865717,9.01188202 Z" fill="#FFFFFF"></path>
</svg>
