<svg width="24" height="24" viewBox="0 0 24 24" fill="none" xmlns="http://www.w3.org/2000/svg">
<circle cx="12" cy="12" r="12" fill="black"/>
<path d="M10.3158 18.3155C12.8741 18.3155 14.9474 16.2423 14.9474 13.684C14.9474 11.1256 12.8741 9.05237 10.3158 9.05237C7.75747 9.05237 5.68421 11.1256 5.68421 13.684C5.68421 16.2423 7.75747 18.3155 10.3158 18.3155ZM10.3158 19.9997C6.82779 19.9997 4 17.172 4 13.684C4 10.196 6.82779 7.36816 10.3158 7.36816C13.8038 7.36816 16.6316 10.196 16.6316 13.684C16.6316 17.172 13.8038 19.9997 10.3158 19.9997Z" fill="#FBCC5C"/>
<path d="M13.684 14.9474C16.2423 14.9474 18.3155 12.8741 18.3155 10.3158C18.3155 7.75747 16.2423 5.68421 13.684 5.68421C11.1256 5.68421 9.05237 7.75747 9.05237 10.3158C9.05237 12.8741 11.1256 14.9474 13.684 14.9474ZM13.684 16.6316C10.196 16.6316 7.36816 13.8038 7.36816 10.3158C7.36816 6.82779 10.196 4 13.684 4C17.172 4 19.9997 6.82779 19.9997 10.3158C19.9997 13.8038 17.172 16.6316 13.684 16.6316Z" fill="#35D07F"/>
<path d="M13.8928 16.6313C14.3307 16.1008 14.644 15.4793 14.8107 14.8107C15.4776 14.644 16.0991 14.3307 16.6313 13.8928C16.6077 14.6658 16.441 15.4271 16.1395 16.1412C15.4271 16.441 14.6658 16.6077 13.8928 16.6313ZM9.1888 9.1888C8.52185 9.35553 7.90037 9.6688 7.36816 10.1067C7.39174 9.33364 7.55848 8.57237 7.85995 7.85995C8.57237 7.56016 9.33532 7.39343 10.1067 7.36816C9.6688 7.89869 9.35553 8.52016 9.1888 9.1888Z" fill="#5EA33B"/>
</svg>
