<svg width="24" height="24" viewBox="0 0 24 24" fill="none" xmlns="http://www.w3.org/2000/svg">
<circle cx="12" cy="12" r="12" fill="url(#paint0_linear)"/>
<path fill-rule="evenodd" clip-rule="evenodd" d="M14.1423 3.00849L12.6645 3.85775V10.9703L13.4713 11.4289V6.00637L16.2442 7.57749L16.7792 7.88323L17.2293 7.62845V7.20382L13.4756 5.08068V4.32484L14.1465 3.94267L18.0361 6.15074V8.11677L16.1677 9.16985L16.104 9.14013C15.996 9.08551 15.8769 9.05645 15.7558 9.0552C15.6472 9.05515 15.5396 9.07694 15.4395 9.11928C15.3394 9.16162 15.2488 9.22365 15.1731 9.30169C15.0975 9.37972 15.0383 9.47216 14.9991 9.57352C14.9598 9.67488 14.9414 9.78309 14.9448 9.89172C14.9442 9.99823 14.9647 10.1038 15.0049 10.2024C15.0451 10.301 15.1044 10.3908 15.1793 10.4665C15.2543 10.5422 15.3434 10.6024 15.4415 10.6436C15.5397 10.6849 15.6451 10.7065 15.7516 10.707C15.9522 10.7057 16.1451 10.6297 16.2926 10.4939C16.4402 10.3581 16.532 10.1722 16.5499 9.9724V9.90021L18.4352 8.83439L20.1847 9.82803V14.2144L18.4352 15.2081L11.327 11.1656V3.84926L9.84926 3L5.15711 5.67941V8.11253L3 9.33546V14.6858L5.15711 15.913V18.3503L9.84926 21.017L11.327 20.1677V13.0425L10.5202 12.5839V18.0234L7.21231 16.1465L6.76221 16.4013V16.8259L10.5159 18.949V19.7006L9.84501 20.0828L5.95541 17.8747V15.9045L7.82378 14.8514L7.88747 14.8811C7.99544 14.9359 8.11461 14.9649 8.23567 14.966C8.34398 14.9666 8.45131 14.9455 8.55133 14.9039C8.65134 14.8624 8.74202 14.8012 8.81801 14.724C8.894 14.6469 8.95377 14.5552 8.99378 14.4546C9.03378 14.3539 9.05323 14.2463 9.05096 14.138C9.05151 14.0315 9.03109 13.9259 8.99085 13.8273C8.9506 13.7287 8.89133 13.639 8.81641 13.5633C8.74149 13.4876 8.6524 13.4274 8.55421 13.3861C8.45602 13.3448 8.35067 13.3233 8.24416 13.3227C8.04359 13.324 7.8507 13.4 7.70311 13.5358C7.55551 13.6716 7.4638 13.8576 7.44586 14.0573V14.1295L5.56051 15.1953L3.81529 14.2017V9.81529L5.56476 8.82166L12.6688 12.8641V20.1805L14.1465 21.0297L18.8429 18.3631V15.9172L21 14.6943V9.34395L18.8429 8.11677V5.67941L14.1423 3.00849ZM5.96391 6.15499L9.8535 3.94692L10.5244 4.32909V5.06794L5.96391 7.65393V6.15499ZM6.38854 8.35456L10.5287 6.00637V10.707L6.38854 8.35456ZM13.4798 13.3227L17.62 15.6752L13.4798 18.0234V13.3227ZM13.4798 19.6921V18.9618L18.0403 16.3758V17.8747L14.1423 20.0828L13.4713 19.7006L13.4798 19.6921Z" fill="white"/>
<defs>
<linearGradient id="paint0_linear" x1="0" y1="0" x2="25.6134" y2="22.1329" gradientUnits="userSpaceOnUse">
<stop stop-color="#00C38C"/>
<stop offset="1" stop-color="#20A386"/>
</linearGradient>
</defs>
</svg>
