<svg width="24" height="24" viewBox="0 0 24 24" fill="none" xmlns="http://www.w3.org/2000/svg">
<circle cx="12" cy="12" r="12" fill="#AD0728"/>
<path fill-rule="evenodd" clip-rule="evenodd" d="M5.22302 7.197C5.18321 7.20136 5.14277 7.20359 5.1018 7.20359C4.49329 7.20359 4 6.7103 4 6.1018C4 5.49329 4.49329 5 5.1018 5C5.5573 5 5.94825 5.27641 6.11604 5.67066H17.884C18.0518 5.27641 18.4427 5 18.8982 5C19.5067 5 20 5.49329 20 6.1018C20 6.7103 19.5067 7.20359 18.8982 7.20359C18.8573 7.20359 18.8168 7.20136 18.777 7.197L16.3221 12.7109C16.4655 12.897 16.5509 13.1301 16.5509 13.3832C16.5509 13.9633 16.1026 14.4387 15.5336 14.4818L12.8691 20.4664C13.0149 20.6532 13.1018 20.8883 13.1018 21.1437C13.1018 21.7522 12.6085 22.2455 12 22.2455C11.3915 22.2455 10.8982 21.7522 10.8982 21.1437C10.8982 20.8883 10.9851 20.6532 11.1309 20.4664L8.46644 14.4818C7.89739 14.4387 7.44908 13.9633 7.44908 13.3832C7.44908 13.1301 7.53444 12.8969 7.67795 12.7109L5.22302 7.197ZM17.862 7.36762L12.6517 11.1532L14.6611 12.6131C14.8612 12.4085 15.1403 12.2814 15.4491 12.2814C15.5229 12.2814 15.5951 12.2887 15.6649 12.3026L17.862 7.36762ZM11.9997 10.6795L6.16057 6.43712H17.8388L11.9997 10.6795ZM11.3477 11.1532L9.33859 12.6129C9.13856 12.4084 8.85954 12.2814 8.55087 12.2814C8.47705 12.2814 8.40492 12.2887 8.33516 12.3025L6.13832 7.36836L11.3477 11.1532ZM9.65154 13.3329L11.9997 11.6269L14.3484 13.3333C14.3477 13.3499 14.3473 13.3665 14.3473 13.3832C14.3473 13.7448 14.5214 14.0657 14.7904 14.2666L12.2102 20.0619C12.1421 20.0488 12.0719 20.0419 12 20.0419C11.9281 20.0419 11.8579 20.0488 11.7899 20.0619L9.20958 14.2665C9.47854 14.0656 9.65267 13.7448 9.65267 13.3832C9.65267 13.3664 9.65229 13.3496 9.65154 13.3329Z" fill="white"/>
</svg>
