<svg width="24" height="24" viewBox="0 0 24 24" fill="none" xmlns="http://www.w3.org/2000/svg">
<circle cx="12" cy="12" r="12" fill="#0D4064"/>
<path d="M16.523 7.04428C16.4563 7.04428 16.4199 7.04428 16.3855 7.04428C14.3596 7.04428 12.3336 7.04428 10.3056 7.04226C10.2025 7.04226 10.1722 7.06855 10.1762 7.17166C10.1843 7.40014 10.1762 7.62861 10.1803 7.85911C10.1823 7.93392 10.156 7.95818 10.0812 7.95616C9.73547 7.95211 9.3877 7.95211 9.04196 7.95616C8.9631 7.95616 8.94693 7.92785 8.94693 7.85506C8.94895 7.36981 8.94693 6.88658 8.94895 6.40132C8.95097 6.07782 9.22393 5.80688 9.54945 5.80688C12.4165 5.80688 15.2856 5.80688 18.1527 5.80688C18.3973 5.80688 18.6318 5.97268 18.7188 6.20318C18.8057 6.42963 18.7431 6.71067 18.5671 6.8704C17.7968 7.56593 17.0244 8.25944 16.2541 8.95295C16.0863 9.10459 15.9205 9.26028 15.7506 9.4099C15.6212 9.5211 15.4696 9.57165 15.2977 9.57165C12.7117 9.56963 10.1277 9.57165 7.5417 9.57165C7.50733 9.57165 7.47498 9.57367 7.44061 9.57165C7.39208 9.56963 7.37389 9.59187 7.37591 9.63837C7.37793 9.65859 7.37591 9.67881 7.37591 9.69903C7.37591 12.0586 7.37591 14.4181 7.37591 16.7777C7.37591 16.9071 7.37591 16.9091 7.50733 16.9091C10.0044 16.9091 12.5035 16.9091 15.0005 16.9091C15.0511 16.9091 15.0976 16.9091 15.14 16.8707C15.5768 16.4764 16.0135 16.0822 16.4522 15.6899C16.4664 15.6778 16.4846 15.6677 16.5088 15.6535C16.4502 15.6232 16.4057 15.6333 16.3633 15.6333C14.121 15.6333 11.8787 15.6333 9.63842 15.6333C9.39983 15.6333 9.1936 15.5645 9.05409 15.3603C8.98939 15.2653 8.94895 15.1602 8.94895 15.0409C8.95097 13.3748 8.95097 11.7088 8.94693 10.0428C8.94693 9.9639 8.97523 9.94772 9.046 9.94975C9.38164 9.95177 9.71929 9.95379 10.0549 9.94975C10.152 9.94772 10.1803 9.97401 10.1803 10.0731C10.1762 11.4439 10.1783 12.8127 10.1783 14.1836C10.1783 14.4242 10.1459 14.3918 10.3865 14.3918C12.9523 14.3918 15.5161 14.3918 18.0819 14.3918C18.3447 14.3918 18.553 14.4828 18.6824 14.7194C18.8179 14.9661 18.7673 15.2754 18.5591 15.4655C18.0192 15.9548 17.4753 16.442 16.9334 16.9293C16.5412 17.2832 16.149 17.637 15.7567 17.9888C15.6475 18.0879 15.5201 18.1546 15.3665 18.1505C15.3402 18.1505 15.3119 18.1505 15.2856 18.1505C12.4549 18.1505 9.62427 18.1505 6.7936 18.1526C6.52671 18.1526 6.32856 18.0474 6.2032 17.8129C6.15266 17.7158 6.13244 17.6087 6.13244 17.5015C6.13041 14.6668 6.13041 11.8321 6.13244 8.99946C6.13244 8.60114 6.41753 8.3383 6.79562 8.34032C9.51913 8.34638 12.2426 8.34234 14.9661 8.34436C15.0531 8.34436 15.1178 8.3201 15.1825 8.26146C15.6192 7.85506 16.058 7.46079 16.523 7.04428Z" fill="#EB1B48"/>
</svg>
