<svg width="24" height="24" viewBox="0 0 24 24" fill="none" xmlns="http://www.w3.org/2000/svg">
<g clip-path="url(#clip0_2625_6994)">
<path d="M12 24C18.6274 24 24 18.6274 24 12C24 5.37259 18.6274 0 12 0C5.37259 0 0 5.37259 0 12C0 18.6274 5.37259 24 12 24Z" fill="#BEC9F8"/>
<path fill-rule="evenodd" clip-rule="evenodd" d="M10.2469 5.61467C9.9727 5.69132 9.70333 5.78454 9.44038 5.89379C8.2076 6.41545 7.15568 7.28852 6.41581 8.40409C5.67598 9.51971 5.2809 10.8284 5.28003 12.1671C5.27869 13.6535 5.7633 15.0997 6.65998 16.2853C7.55662 17.4708 8.81624 18.3308 10.2469 18.7342V19.8403H11.3829V15.5754C10.6012 15.4125 9.89941 14.9854 9.3957 14.3658C8.89194 13.7463 8.6169 12.9722 8.6169 12.1737C8.6167 11.3751 8.89165 10.6007 9.39536 9.98099C9.89917 9.36126 10.601 8.93401 11.3829 8.7711V4.36365H10.2469V5.61467ZM10.2469 8.17758C9.48454 8.53004 8.83894 9.09327 8.38635 9.80079C7.93371 10.5083 7.69294 11.3306 7.69251 12.1705C7.69174 13.0113 7.93198 13.8348 8.38467 14.5435C8.83736 15.2521 9.48363 15.8162 10.2469 16.1689V17.6968C9.08907 17.309 8.08242 16.5671 7.36909 15.576C6.65576 14.5849 6.2719 13.3947 6.27166 12.1737C6.27171 10.9524 6.65562 9.76196 7.36904 8.77071C8.08246 7.77947 9.08941 7.03748 10.2476 6.64964L10.2469 8.17758Z" fill="black"/>
<path fill-rule="evenodd" clip-rule="evenodd" d="M15.5206 11.6058H18.8603C18.8001 10.9013 18.6305 10.2105 18.3577 9.5582C17.9547 8.59018 17.3334 7.72839 16.5422 7.04026C15.751 6.35218 14.8114 5.85629 13.7968 5.59148V4.36475H12.6609V8.74815C13.3761 8.86642 14.0365 9.20545 14.5493 9.7178C15.0631 10.2297 15.4029 10.8901 15.5206 11.6058ZM13.7968 6.60903C14.707 6.88858 15.5349 7.38649 16.2084 8.05945C16.8818 8.73241 17.3805 9.55993 17.6607 10.4698H16.1523C16.1521 10.4668 16.1511 10.4639 16.1496 10.4613C15.7035 9.40057 14.8585 8.55764 13.7967 8.11417L13.7968 6.60903Z" fill="black"/>
<path fill-rule="evenodd" clip-rule="evenodd" d="M15.4945 12.8829H18.8484C18.7239 14.093 18.2778 15.2478 17.5565 16.2273C16.8351 17.2068 15.8647 17.9754 14.7461 18.4534C14.4377 18.5834 14.1202 18.6906 13.7961 18.7743V19.8408H12.6602V15.5808H12.7765C13.444 15.4467 14.0573 15.1195 14.5405 14.6399C15.0237 14.1603 15.3554 13.5494 15.4945 12.8829ZM13.7963 16.234V17.7419C14.6829 17.4693 15.4918 16.9894 16.156 16.342C16.8203 15.6946 17.3207 14.8982 17.6159 14.0189H16.0895C15.6314 15.0152 14.8168 15.804 13.8063 16.2296C13.8033 16.2312 13.7991 16.2324 13.7963 16.234Z" fill="black"/>
</g>
<defs>
<clipPath id="clip0_2625_6994">
<rect width="24" height="24" fill="white"/>
</clipPath>
</defs>
</svg>
