<svg width="24" height="24" viewBox="0 0 24 24" fill="none" xmlns="http://www.w3.org/2000/svg">
<circle cx="12" cy="12" r="12" fill="#002D74"/>
<path d="M7.71775 5.32049L7.69031 5.43572C7.69139 5.43746 7.6921 5.4394 7.69239 5.44143C7.69269 5.44345 7.69256 5.44552 7.69201 5.44749C7.69146 5.44946 7.69051 5.4513 7.68922 5.45289C7.68793 5.45448 7.68632 5.45578 7.68449 5.45671C7.6616 5.50356 7.65332 5.55398 7.64503 5.60445C7.64026 5.63349 7.63549 5.66253 7.62793 5.69093C7.60401 5.78097 7.58611 5.87255 7.56821 5.96411C7.55669 6.02303 7.54518 6.08195 7.53206 6.14044C7.40535 6.70472 7.27677 7.2686 7.14819 7.83248C7.06421 8.20077 6.98017 8.56935 6.89671 8.93774C6.89024 8.96606 6.88313 8.99426 6.87599 9.02264C6.85595 9.10219 6.83558 9.18309 6.82774 9.27148H11.8803C11.9072 9.27148 11.9342 9.27268 11.9612 9.27388L11.9985 9.27542L12.0337 9.27368C12.0579 9.27238 12.0821 9.27109 12.1063 9.27109C13.764 9.27109 15.4218 9.27089 17.0795 9.27049C17.0878 9.27049 17.0962 9.27082 17.1047 9.27116C17.1344 9.27232 17.1652 9.27353 17.1978 9.26064L17.1654 9.12896C17.1388 9.02102 17.1127 8.91509 17.0872 8.80906L16.7719 7.49293C16.5784 6.68685 16.3848 5.8808 16.191 5.07479C16.1728 5.00109 16.1722 5.00108 16.0928 5.0003L7.91861 5.00108C7.8989 5.00108 7.8792 5.00081 7.85949 5.00054C7.83978 5.00027 7.82008 5 7.80037 5C7.79311 5.01782 7.7868 5.03601 7.78145 5.05449C7.75993 5.14312 7.73884 5.23179 7.71775 5.32049Z" fill="white"/>
<path d="M6.68996 10.8043C6.62435 10.8557 6.55874 10.9072 6.48564 10.9488C6.47268 10.963 6.459 10.9764 6.44464 10.9891L4.04748 12.7627L4.03871 12.7691C4.00798 12.7912 3.98376 12.8086 4.01359 12.862C4.07068 12.9639 4.12983 13.0646 4.18898 13.1653C4.3004 13.355 4.41184 13.5448 4.50961 13.7425C4.55583 13.8358 4.6108 13.9248 4.66579 14.0138C4.69837 14.0666 4.73098 14.1194 4.76176 14.173C4.80469 14.2479 4.84667 14.3234 4.88865 14.3988C4.95719 14.5219 5.02578 14.6452 5.09836 14.7658C5.12154 14.8043 5.14401 14.8435 5.16645 14.8825C5.18232 14.9102 5.19826 14.9379 5.21433 14.9653C5.23298 14.997 5.25184 15.0286 5.2707 15.0602C5.31085 15.1276 5.35102 15.1949 5.38923 15.2633C5.4132 15.3062 5.43639 15.3496 5.45958 15.3929C5.4938 15.4569 5.52802 15.5209 5.56473 15.5835C5.59936 15.6426 5.63605 15.7007 5.67274 15.7587C5.71318 15.8227 5.75364 15.8867 5.79136 15.9523C6.45207 17.1002 7.11225 18.2484 7.77191 19.397C7.80049 19.4467 7.82463 19.4847 7.89587 19.4841C8.36194 19.4802 8.82801 19.4814 9.29409 19.4831C9.31669 19.4838 9.3392 19.4798 9.36016 19.4713C9.38113 19.4628 9.4001 19.45 9.41587 19.4338C9.98377 18.8976 10.5526 18.3625 11.1225 17.8284C11.1396 17.8138 11.1532 17.7954 11.162 17.7747C11.1709 17.754 11.1748 17.7315 11.1735 17.709C11.1707 17.4831 11.1697 17.2564 11.1735 17.0298C11.1746 16.9649 11.1541 16.9206 11.1074 16.8769C10.8156 16.6032 10.524 16.3292 10.2367 16.0507C9.94698 15.7701 9.65699 15.4898 9.3603 15.2167C9.30315 15.1637 9.27871 15.1089 9.27871 15.0295C9.28046 14.5572 9.28056 14.085 9.28066 13.6127C9.28074 13.2056 9.28082 12.7985 9.28197 12.3914C9.28216 12.3212 9.26423 12.2797 9.20215 12.2424C9.00862 12.1262 8.81824 12.0047 8.62796 11.8833L8.55182 11.8348C8.5265 11.8186 8.50082 11.8031 8.47513 11.7875C8.41137 11.7489 8.34757 11.7102 8.28942 11.663C8.27439 11.6542 8.25926 11.6455 8.24413 11.6369C8.21684 11.6213 8.18952 11.6056 8.1629 11.5889C7.72751 11.3169 7.29323 11.0429 6.86007 10.7671C6.8108 10.7356 6.77789 10.7356 6.73197 10.7715L6.68996 10.8043Z" fill="white"/>
<path d="M14.4377 15.4174C14.5027 15.3651 14.5626 15.3068 14.6167 15.2434L14.6238 15.2389C14.6295 15.2353 14.6352 15.2317 14.6408 15.2275C14.7204 15.1723 14.7416 15.098 14.7412 15.0009C14.739 14.5059 14.7388 14.0111 14.7386 13.5162C14.7384 13.145 14.7383 12.7738 14.7373 12.4026C14.7373 12.3268 14.7562 12.2802 14.8238 12.2369C15.5907 11.7442 16.3561 11.2493 17.1203 10.7523L17.1341 10.7432L17.1462 10.7351C17.171 10.7185 17.1839 10.7097 17.1968 10.7098C17.211 10.7099 17.2251 10.7207 17.2546 10.7432L17.2714 10.7559C18.1559 11.4187 19.0403 12.0819 19.9245 12.7453C19.9395 12.7567 19.9523 12.7655 19.9627 12.7727C19.9844 12.7876 19.9963 12.7959 19.9993 12.8066C20.0029 12.8196 19.9931 12.8363 19.9716 12.8734L19.9587 12.8957C19.5348 13.6349 19.1111 14.3743 18.6876 15.1139C18.6765 15.1332 18.6664 15.153 18.6563 15.1729L18.6421 15.2005L18.1017 16.1366C17.4837 17.2139 16.8665 18.2912 16.2501 19.3685C16.2126 19.4339 16.1732 19.4572 16.0975 19.4563C15.6546 19.4521 15.2117 19.4529 14.7689 19.4557C14.7079 19.4557 14.6657 19.4372 14.6221 19.3966C14.0599 18.8739 13.4966 18.3527 12.9321 17.8327C12.9124 17.8162 12.8969 17.7953 12.8868 17.7717C12.8766 17.7481 12.8721 17.7224 12.8736 17.6968C12.8761 17.4705 12.8761 17.2442 12.8736 17.0179C12.8729 16.9604 12.8922 16.9209 12.9327 16.8816C13.2496 16.5769 13.5652 16.2711 13.8797 15.964C13.954 15.8917 14.0275 15.8186 14.101 15.7455L14.2049 15.6423C14.2048 15.6424 14.2049 15.6423 14.2049 15.6423" fill="white"/>
<path d="M9.7764 11.1681C9.8307 11.3091 9.88501 11.4501 9.92987 11.5946C9.99359 11.7382 10.0475 11.8855 10.1014 12.0328C10.1306 12.1126 10.1599 12.1924 10.1906 12.2715C10.1973 12.2898 10.1995 12.3096 10.1969 12.3289C10.1645 12.6519 10.1319 12.9749 10.0991 13.2977C10.0619 13.663 10.0247 14.0283 9.98731 14.3936C9.97273 14.5377 9.9578 14.6818 9.94279 14.8267L9.92879 14.9621C9.94447 14.969 9.96462 14.9686 9.98539 14.9682L10.0006 14.968H14.0075C14.0885 14.9679 14.0904 14.9665 14.0828 14.8877C14.0703 14.7559 14.0567 14.6243 14.0432 14.4927L14.0255 14.3201C13.995 14.0234 13.9649 13.7266 13.9349 13.4297L13.9009 13.092C13.8772 12.8558 13.8534 12.6187 13.8287 12.3826C13.8225 12.3208 13.8314 12.2584 13.8544 12.2007C14.1273 11.4774 14.3992 10.7538 14.6702 10.0297C14.6729 10.0225 14.6761 10.0154 14.6793 10.0081C14.6908 9.98244 14.7029 9.95538 14.6967 9.91897H14.591C12.8682 9.91903 11.1453 9.91926 9.42233 9.91966C9.39702 9.91966 9.37195 9.92094 9.34695 9.92222L9.31395 9.9238L9.31923 9.94169C9.32291 9.95441 9.3266 9.96717 9.33129 9.97957L9.43273 10.2502C9.52274 10.49 9.61269 10.7297 9.70128 10.9701C9.72568 11.0363 9.75104 11.1022 9.7764 11.1681Z" fill="white"/>
<path d="M7.69031 5.43572C7.69139 5.43746 7.6921 5.4394 7.69239 5.44143C7.69269 5.44345 7.69256 5.44552 7.69201 5.44749C7.69146 5.44946 7.69051 5.4513 7.68922 5.45289C7.68793 5.45448 7.68632 5.45578 7.68449 5.45671L7.69031 5.43572Z" fill="white"/>
</svg>
