<?xml version="1.0" encoding="UTF-8"?>
<svg width="24px" height="24px" viewBox="0 0 24 24" version="1.1" xmlns="http://www.w3.org/2000/svg" xmlns:xlink="http://www.w3.org/1999/xlink">
  <path d="M12,0 C18.627417,0 24,5.372583 24,12 C24,18.627417 18.627417,24 12,24 C5.372583,24 0,18.627417 0,12 C0,5.372583 5.372583,0 12,0 Z"  fill="#F4B731" fill-rule="nonzero"></path>
  <path d="M11.43,5.18 L5.92,5.18 L5.92,9.61 L4,9.61 L4,11.19 L5.92,11.19 L5.92,12.86 L4,12.86 L4,14.45 L5.92,14.45 L5.92,18.82 L11.43,18.82 C14.4008511,18.9600855 17.1358695,17.2075883 18.25,14.45 L20,14.45 L20,12.86 L18.63,12.86 C18.6668797,12.5748668 18.6835879,12.287486 18.68,12 L18.68,12 C18.6951925,11.7435582 18.6951925,11.4864418 18.68,11.23 L20,11.23 L20,9.61 L18.28,9.61 C17.1819509,6.81796393 14.4267447,5.0361298 11.43,5.18 Z M7.43,17.4 L7.43,14.45 L16.53,14.45 C15.5550614,16.3624524 13.5433021,17.519312 11.4,17.4 L7.43,17.4 Z M7.43,12.86 L17,12.86 C17.0402465,12.5885261 17.0603015,12.3144409 17.0600033,12.04 L17.0600033,12.04 C17.0602872,11.7688794 17.0402309,11.4981193 17,11.23 L7.46,11.23 L7.43,12.86 Z M16.54,9.61 C15.5820538,7.67089216 13.5595141,6.49042148 11.4,6.61 L7.4,6.61 L7.4,9.61 L16.54,9.61 Z"  fill="#FFFFFF"></path>
</svg>
