<svg width="24" height="24" viewBox="0 0 24 24" fill="none" xmlns="http://www.w3.org/2000/svg">
<circle cx="12" cy="12" r="12" fill="#F5AC37"/>
<path d="M13.1911 12.891H17.8411C17.9403 12.891 17.9871 12.891 17.9942 12.7573C18.0322 12.2706 18.0322 11.7811 17.9942 11.2939C17.9942 11.1993 17.9485 11.1602 17.8489 11.1602H8.5944C8.47985 11.1602 8.44901 11.1993 8.44901 11.3097V12.7103C8.44901 12.891 8.44901 12.891 8.6324 12.891H13.1911ZM17.4749 9.52339C17.4881 9.4877 17.4881 9.44861 17.4749 9.41348C17.3973 9.23955 17.3053 9.07355 17.1985 8.91774C17.0377 8.65146 16.8482 8.40614 16.6324 8.18575C16.5305 8.05261 16.4126 7.93307 16.2805 7.83165C15.6185 7.25207 14.8316 6.84188 13.9857 6.63565C13.5589 6.53707 13.1228 6.49005 12.6855 6.49401H8.57843C8.46388 6.49401 8.44846 6.54104 8.44846 6.64358V9.43671C8.44846 9.55455 8.44846 9.58628 8.59385 9.58628H17.4199C17.4199 9.58628 17.4964 9.57042 17.5118 9.52339H17.4744H17.4749ZM17.4749 14.5278C17.345 14.5131 17.2139 14.5131 17.0839 14.5278H8.60211C8.48756 14.5278 8.44901 14.5278 8.44901 14.6853V17.4161C8.44901 17.5419 8.44901 17.5736 8.60211 17.5736H12.5181C12.7053 17.5883 12.8926 17.5747 13.076 17.5345C13.6443 17.4926 14.2032 17.3657 14.7363 17.1566C14.9302 17.0875 15.1174 16.9974 15.2942 16.8892H15.3476C16.2656 16.398 17.0112 15.6263 17.4815 14.6791C17.4815 14.6791 17.535 14.5601 17.4749 14.5289V14.5278ZM6.91202 18.9894V18.9424V17.109V16.4875V14.6383C6.91202 14.5357 6.91202 14.5204 6.78976 14.5204H5.12996C5.038 14.5204 5 14.5204 5 14.3947V12.8995H6.77434C6.87347 12.8995 6.91202 12.8995 6.91202 12.7658V11.2865C6.91202 11.1919 6.91202 11.1687 6.78976 11.1687H5.12996C5.038 11.1687 5 11.1687 5 11.0429V9.65823C5 9.57155 5 9.54832 5.12225 9.54832H6.76663C6.88118 9.54832 6.91202 9.54832 6.91202 9.39875V5.1575C6.91202 5.03173 6.91202 5 7.06511 5H12.8012C13.2175 5.017 13.6311 5.06402 14.0402 5.14164C14.8834 5.30198 15.6934 5.61188 16.4341 6.05436C16.9253 6.35181 17.3775 6.711 17.78 7.12459C18.0829 7.44809 18.356 7.79823 18.5984 8.17102C18.839 8.54892 19.0389 8.95287 19.1959 9.37496C19.2151 9.48487 19.3176 9.55909 19.4244 9.54039H20.7934C20.9691 9.54039 20.9691 9.54039 20.9768 9.71376V11.0044C20.9768 11.1301 20.9311 11.1619 20.8083 11.1619H19.7526C19.6458 11.1619 19.6149 11.1619 19.6226 11.3035C19.6645 11.7828 19.6645 12.2638 19.6226 12.7431C19.6226 12.8768 19.6226 12.8927 19.7686 12.8927H20.9763C21.0297 12.9635 20.9763 13.0343 20.9763 13.1057C20.984 13.197 20.984 13.2893 20.9763 13.3805V14.3329C20.9763 14.4666 20.9383 14.5063 20.8232 14.5063H19.3776C19.2768 14.4864 19.1788 14.5527 19.1557 14.6558C18.8115 15.5765 18.2608 16.402 17.5493 17.0637C17.2893 17.3045 17.0162 17.5311 16.7309 17.7402C16.4248 17.9215 16.1268 18.1101 15.8129 18.2597C15.2352 18.5271 14.6295 18.7243 14.0077 18.8495C13.4174 18.9583 12.8188 19.0076 12.218 18.9991H6.90982V18.9911L6.91202 18.9894Z" fill="#FEFEFD"/>
</svg>
