<svg width="24" height="24" viewBox="0 0 24 24" fill="none" xmlns="http://www.w3.org/2000/svg">
<circle cx="12" cy="12" r="12" fill="#008DE4"/>
<path d="M8.65423 5H14.4786C19.6019 5 20.5056 7.79222 19.7811 11.7188C19.2918 14.3552 18.0733 16.3746 16.0259 17.325C15.1004 17.7489 14.2309 17.9888 12.1804 17.9888H6.36841L6.84988 15.287L11.9607 15.2901C15.0334 15.2932 15.8529 13.9625 16.2518 12.7939C16.4014 12.3545 16.7473 11.002 16.7598 10.2043C16.7816 8.64609 16.0181 7.70497 13.4284 7.70497L8.1712 7.69873L8.65423 5Z" fill="white"/>
<path d="M4.25758 11.7127C4.40116 11.1094 4.63212 10.1388 6.14091 10.1388H12.1055C12.1055 10.1388 12.0432 10.4598 11.8531 11.2451C11.8514 11.2523 11.8497 11.2595 11.848 11.2668C11.7044 11.8701 11.4734 12.8407 9.96464 12.8407H4C4 12.8407 4.06233 12.5197 4.25242 11.7344C4.25413 11.7272 4.25585 11.72 4.25758 11.7127Z" fill="white"/>
</svg>
