<svg width="24" height="24" viewBox="0 0 24 24" fill="none" xmlns="http://www.w3.org/2000/svg">
<circle cx="12" cy="12" r="12" fill="#5BC1D4"/>
<path fill-rule="evenodd" clip-rule="evenodd" d="M10.3387 12.6963L9.10125 13.9893C8.8785 14.2218 8.66025 14.4565 8.43675 14.6875C8.39925 14.7265 8.346 14.7498 8.30025 14.7805C8.20275 14.7648 8.12775 14.704 8.115 14.6155C8.09429 14.4808 8.07579 14.3458 8.0595 14.2105C8.037 14.032 7.98225 13.9825 7.8015 13.96C7.42875 13.915 7.05675 13.8663 6.684 13.8175L5.8335 13.7073C5.664 13.6848 5.6025 13.5633 5.691 13.4185C5.895 13.09 6.1005 12.763 6.30525 12.436L7.55775 10.435C7.60725 10.354 7.66275 10.2985 7.76925 10.3015C7.83675 10.303 7.90725 10.2865 7.974 10.2693C8.0535 10.2498 8.11575 10.2738 8.17125 10.3263C8.2695 10.4185 8.36925 10.51 8.46675 10.603L9.59775 11.6763C9.8415 11.9073 10.0875 12.1368 10.3312 12.3678C10.4572 12.4863 10.4573 12.5718 10.3387 12.6963ZM18.6562 14.4355C18.7268 14.494 18.8032 14.5495 18.8182 14.6493C18.837 14.7768 18.786 14.869 18.678 14.9388C18.0405 15.3513 17.403 15.766 16.7655 16.1793L15.5333 16.978C15.4944 17.0026 15.4573 17.0299 15.4222 17.0598C15.3912 17.0852 15.3665 17.1177 15.3503 17.1544C15.334 17.1911 15.3265 17.2311 15.3285 17.2713C15.3345 17.425 15.3435 17.5788 15.3458 17.7318C15.348 17.908 15.2183 18.0183 15.0413 17.998C14.9775 17.9896 14.9196 17.9565 14.88 17.9058C14.7318 17.7347 14.5838 17.5635 14.436 17.392C14.2507 17.1775 14.0662 16.9615 13.8802 16.7478C13.8419 16.7095 13.8129 16.663 13.7954 16.6118C13.7778 16.5605 13.7722 16.506 13.779 16.4523L13.8045 15.556C13.8075 15.451 13.8698 15.3835 13.9537 15.3295L14.9722 14.6785C15.5422 14.3148 16.1138 13.9525 16.6823 13.585C16.8022 13.5078 16.914 13.4845 17.046 13.552C17.1435 13.6015 17.2537 13.6105 17.3595 13.5775C17.5177 13.5273 17.6392 13.5715 17.7615 13.6795C18.054 13.9375 18.357 14.1835 18.6562 14.4355ZM13.1827 15.1795C13.229 15.2247 13.262 15.2818 13.278 15.3445C13.3057 15.4848 13.2502 15.58 13.1182 15.6438C12.6795 15.8553 12.2415 16.069 11.799 16.2738C11.7195 16.3098 11.6198 16.3143 11.529 16.3188C11.1622 16.3353 10.7955 16.345 10.4288 16.36C10.212 16.3683 9.996 16.3818 9.7965 16.3923H9.6495C9.61625 16.3931 9.58317 16.3872 9.55224 16.375C9.52132 16.3627 9.49318 16.3444 9.4695 16.321C9.423 16.2783 9.375 16.237 9.32925 16.1935C9.07125 15.9483 8.81775 15.6985 8.5545 15.4585C8.4075 15.325 8.40525 15.1458 8.5455 15.0025C8.86125 14.677 9.17325 14.3485 9.48675 14.02C9.825 13.666 10.1633 13.3105 10.5008 12.955C10.5264 12.9249 10.5579 12.9003 10.5933 12.8828C10.6288 12.8653 10.6675 12.8553 10.707 12.8533C10.7465 12.8514 10.7859 12.8575 10.823 12.8714C10.86 12.8853 10.8938 12.9066 10.9222 12.934L12.2723 14.2758C12.5753 14.5773 12.8812 14.8758 13.1827 15.1795ZM15.0413 9.14276C14.8965 8.91926 15.06 8.61026 15.3007 8.57051C15.9442 8.46326 16.5855 8.34026 17.2283 8.22851C17.37 8.20376 17.4825 8.26901 17.5605 8.38601C17.6955 8.58851 17.8282 8.79176 17.9618 8.99501C18.2437 9.42251 18.5265 9.85001 18.8055 10.279C18.843 10.3368 18.8618 10.4065 18.8895 10.4703C18.8849 10.5798 18.8278 10.6922 18.7575 10.7763C18.3645 11.3043 17.967 11.83 17.5748 12.3588C17.5377 12.4057 17.4898 12.4429 17.4352 12.4671C17.3806 12.4913 17.3209 12.5018 17.2612 12.4978C17.2016 12.4937 17.1439 12.4752 17.0931 12.4438C17.0422 12.4124 16.9998 12.369 16.9695 12.3175C16.3958 11.365 15.816 10.4155 15.2385 9.46526C15.1733 9.35726 15.1095 9.24776 15.0413 9.14276ZM13.9125 11.7918L13.8 12.793C13.7685 13.0705 13.7347 13.3465 13.7032 13.624L13.5922 14.599C13.5847 14.6673 13.584 14.737 13.5697 14.803C13.5623 14.8353 13.5382 14.8765 13.5112 14.887C13.4842 14.8975 13.4362 14.8825 13.4122 14.8623C13.3057 14.77 13.2045 14.6725 13.1025 14.5758C12.735 14.2278 12.3698 13.879 12.0023 13.5325C11.6828 13.2303 11.3625 12.9303 11.0415 12.6303C10.935 12.5313 10.9342 12.4998 11.037 12.3925L12.5055 10.855L13.5082 9.80201L14.0002 9.28451C14.0145 9.26951 14.0265 9.24926 14.0438 9.24326C14.079 9.23051 14.1225 9.21326 14.1532 9.22301C14.1788 9.23201 14.1908 9.27776 14.1982 9.29051L14.1232 9.95051L14.0265 10.7988L13.9125 11.7918ZM16.767 12.5568C16.815 12.634 16.8225 12.7075 16.77 12.7878C16.7128 12.8778 16.6884 12.9848 16.701 13.0908C16.71 13.1853 16.671 13.243 16.5907 13.2933C15.963 13.6915 15.3383 14.0928 14.7128 14.4933C14.5163 14.6193 14.3197 14.7445 14.1225 14.869C14.0445 14.9185 13.9643 14.9148 13.9215 14.8518C13.8975 14.8173 13.8945 14.7693 13.8878 14.7453L13.9703 14.1393L14.154 12.8028L14.3565 11.3403L14.5538 9.91001L14.6287 9.37751C14.6302 9.36326 14.631 9.34676 14.6385 9.33626C14.658 9.31151 14.6798 9.27476 14.7045 9.27026C14.7315 9.26576 14.7735 9.28676 14.7908 9.31001C14.8365 9.37151 14.8733 9.43976 14.9137 9.50576L16.38 11.9178C16.509 12.1308 16.6365 12.3453 16.767 12.5568ZM13.7272 8.87876C13.7505 8.89376 13.7955 8.90951 13.8195 8.94176C13.8562 8.99126 13.824 9.03776 13.7858 9.07751L13.2758 9.61376L11.7892 11.1693C11.4787 11.4955 11.1698 11.8233 10.8593 12.1488C10.7467 12.2658 10.6568 12.2658 10.5398 12.1548C10.1775 11.8113 9.81525 11.4663 9.45225 11.1235C9.09975 10.7905 8.74575 10.4583 8.39175 10.126C8.3445 10.081 8.307 10.0323 8.31225 9.96326C8.31975 9.86951 8.37375 9.81626 8.481 9.79826C8.67675 9.76301 8.87325 9.72851 9.06975 9.69476L10.956 9.36476L13.1835 8.97401L13.7272 8.87876ZM8.673 9.35276C9.0225 9.11351 9.372 8.87576 9.72225 8.63801L13.1047 6.33401C13.2172 6.25751 13.2885 6.27326 13.3447 6.39476C13.578 6.89426 13.8097 7.39451 14.0422 7.89476C14.0722 7.95926 14.1007 8.02451 14.1315 8.08976C14.1562 8.14226 14.1398 8.18501 14.1083 8.23226C14.0673 8.29018 14.0326 8.35227 14.0048 8.41751C13.98 8.47976 13.9425 8.51351 13.875 8.52551C13.377 8.61401 12.8798 8.70551 12.3825 8.79401L10.617 9.11126L8.6895 9.45776C8.6625 9.46226 8.63475 9.45776 8.607 9.45776L8.5905 9.42701C8.61825 9.40226 8.643 9.37376 8.673 9.35276ZM5.1555 10.4973C4.935 10.4928 4.80375 10.2783 4.9095 10.081C4.99875 9.91451 5.09775 9.75401 5.19375 9.59126C5.46975 9.11951 5.74725 8.64926 6.02175 8.17751C6.06654 8.10048 6.13133 8.03699 6.20925 7.99376C6.94125 7.57301 7.67175 7.15001 8.40375 6.72851C8.45022 6.70008 8.5012 6.67979 8.5545 6.66851C8.60447 6.65865 8.65623 6.66362 8.7034 6.68281C8.75058 6.702 8.79111 6.73457 8.82 6.77651C8.85195 6.8175 8.87136 6.86685 8.87589 6.91862C8.88041 6.97039 8.86986 7.02236 8.8455 7.06826C8.73525 7.30376 8.6205 7.53701 8.508 7.77101C8.298 8.20001 8.088 8.62826 7.88025 9.05801C7.86057 9.10551 7.82993 9.14767 7.79082 9.18105C7.75171 9.21442 7.70525 9.23805 7.65525 9.25001C7.56221 9.2722 7.47712 9.31966 7.40935 9.38716C7.34159 9.45465 7.2938 9.53957 7.27125 9.63251C7.25986 9.67841 7.23661 9.72051 7.20384 9.7546C7.17107 9.78869 7.12991 9.81358 7.0845 9.82676C6.483 10.0383 5.88225 10.2543 5.2815 10.468C5.241 10.483 5.19825 10.4875 5.15625 10.498L5.1555 10.4973ZM8.27025 9.12776C8.27323 9.09647 8.28187 9.06597 8.29575 9.03776L9.08175 7.31501C9.24525 6.95651 9.411 6.59876 9.57225 6.23951C9.60975 6.15701 9.6645 6.11576 9.7575 6.11201C10.0028 6.10451 10.248 6.09176 10.4932 6.08201L11.9407 6.02726C12.1102 6.01976 12.2805 6.00851 12.4507 6.00026C12.5722 5.99501 12.6555 6.06851 12.6562 6.18776C12.6615 6.26051 12.615 6.30776 12.555 6.34901L12.0915 6.66476L9.321 8.54951L8.436 9.15251C8.41536 9.16812 8.39326 9.18168 8.37 9.19301C8.3175 9.21551 8.26725 9.18401 8.27025 9.12776ZM7.248 10.3653C7.12575 10.5625 7.002 10.7583 6.879 10.9548C6.41925 11.6898 5.9595 12.4255 5.499 13.1598C5.48001 13.1949 5.45456 13.2262 5.424 13.252C5.3445 13.309 5.23875 13.2693 5.20125 13.1695C5.14125 13.009 5.08425 12.847 5.0265 12.6858L4.52475 11.2743C4.51275 11.239 4.5045 11.203 4.5 11.1858C4.50075 11.0905 4.53225 11.05 4.6215 11.0208C4.8885 10.9345 5.1555 10.8498 5.4225 10.765L6.93375 10.285L7.1325 10.2235C7.17975 10.2085 7.227 10.1883 7.266 10.2408C7.30125 10.288 7.272 10.327 7.248 10.3653ZM19.3365 12.322L19.488 13.189C19.4925 13.2168 19.4955 13.2453 19.5 13.282C19.4925 13.3195 19.4843 13.3645 19.4722 13.408L19.2735 14.125C19.2165 14.3313 19.053 14.38 18.888 14.2405C18.5498 13.9555 18.21 13.6705 17.8702 13.387C17.793 13.3225 17.7607 13.2483 17.7787 13.1463C17.8008 13.0447 17.7886 12.9387 17.7443 12.8448C17.6978 12.7525 17.7128 12.6708 17.7735 12.5898C18.051 12.2178 18.3263 11.8443 18.603 11.4723L18.7717 11.2443C18.828 11.167 18.9023 11.1295 18.9967 11.1505C19.0957 11.173 19.1467 11.2405 19.1632 11.3373L19.3365 12.322ZM13.6635 6.36401L13.6485 6.33251C13.6283 6.28751 13.62 6.23501 13.6658 6.20951C13.7059 6.19151 13.7513 6.18884 13.7933 6.20201C13.8593 6.22226 13.9185 6.25976 13.9808 6.29051L16.5023 7.54976L16.95 7.77476C17.0003 7.79951 17.04 7.82876 17.0295 7.89176C17.019 7.95401 16.9718 7.96751 16.917 7.97726C16.311 8.08526 15.7058 8.19476 15.1005 8.30351L15.0413 8.31551C15.024 8.30426 14.991 8.29151 14.97 8.26751C14.9161 8.19969 14.8482 8.14428 14.7709 8.10507C14.6936 8.06585 14.6088 8.04375 14.5223 8.04026C14.4548 8.03726 14.4203 7.99751 14.3948 7.94126C14.2883 7.71026 14.1795 7.48076 14.0723 7.25051L13.6635 6.36401Z" fill="white"/>
</svg>
