<svg width="24" height="24" viewBox="0 0 24 24" fill="none" xmlns="http://www.w3.org/2000/svg">
<circle cx="12" cy="12" r="12" fill="black"/>
<path d="M11.0332 13.657H14.9786C16.4445 13.657 17.6453 12.4718 17.6453 10.9903C17.6453 9.50885 16.4601 8.33926 14.9942 8.33926H13.7311L11.0332 6.00008H14.9786C17.7389 5.98449 19.9845 8.21451 19.9845 10.9747C20.0001 13.0176 18.7525 14.8578 16.85 15.6219L19.9689 18.3198H16.4133L11.0332 13.657Z" fill="url(#paint0_linear)"/>
<path d="M12.966 10.6784H9.02061C7.55472 10.6784 6.35394 11.8635 6.35394 13.345C6.35394 14.8265 7.53913 16.0117 9.02061 16.0117H10.2838L12.966 18.3509H9.02061C6.26038 18.3509 4.01476 16.1209 3.99917 13.3762C3.98357 11.3177 5.23114 9.47758 7.13367 8.71345L4.01476 6H7.58591L12.966 10.6784Z" fill="#4971FA"/>
<defs>
<linearGradient id="paint0_linear" x1="11.0408" y1="12.1607" x2="19.9811" y2="12.1607" gradientUnits="userSpaceOnUse">
<stop stop-color="#62D0C9"/>
<stop offset="1" stop-color="#7DE2AC"/>
</linearGradient>
</defs>
</svg>
