<svg width="24" height="24" viewBox="0 0 24 24" fill="none" xmlns="http://www.w3.org/2000/svg">
<circle cx="12" cy="12" r="12" fill="url(#paint0_linear)"/>
<path d="M13.0789 8.41057C13.1413 8.35406 13.202 8.29932 13.2613 8.2459C13.5278 8.00583 13.7647 7.79245 13.9836 7.56474C14.0586 7.48979 14.1121 7.36666 14.1121 7.26495C14.1228 6.54224 14.1335 5.81953 14.1175 5.09682C14.0907 3.71565 12.8648 2.76274 11.5157 3.05183C10.5575 3.26061 9.87222 4.12251 9.87222 5.15571C9.87222 5.72674 9.87282 6.29777 9.87341 6.86879C9.8746 8.01085 9.87579 9.15291 9.87222 10.295C9.87222 10.825 10.0435 11.2907 10.3861 11.6922C10.479 11.8029 10.5909 11.8945 10.7202 12.0005C10.7848 12.0533 10.8538 12.1099 10.9268 12.174V5.18783C10.9322 4.51866 11.3872 4.03685 12.0082 4.0422C12.6292 4.04756 13.0735 4.52936 13.0789 5.19854V8.41057Z" fill="white"/>
<path d="M14.1175 13.3678C14.0961 12.6558 13.7588 12.083 13.0789 11.6761V18.6248C13.0789 19.2726 12.6239 19.7544 12.0136 19.7598C11.3926 19.7651 10.9269 19.278 10.9269 18.6195V15.4021C10.8185 15.5002 10.7151 15.5916 10.6158 15.6794C10.4061 15.8648 10.2145 16.0342 10.0328 16.2158C9.95254 16.3015 9.88829 16.4407 9.88829 16.5584C9.87759 17.2544 9.87759 17.9503 9.88294 18.6463C9.88829 19.8615 10.8198 20.809 11.9975 20.809C13.1806 20.8144 14.1121 19.8722 14.1228 18.657C14.1258 18.2886 14.1205 17.9187 14.1152 17.548C14.111 17.2506 14.1068 16.9527 14.1068 16.6548C14.1085 16.308 14.1133 15.9613 14.1182 15.6147C14.1288 14.8644 14.1394 14.1148 14.1175 13.3678Z" fill="white"/>
<path d="M11.2641 11.0819C11.2855 10.3271 11.5799 9.73285 12.1795 9.36882C13.3828 8.64773 14.5991 7.94962 15.8157 7.25135C16.1526 7.058 16.4896 6.86458 16.8263 6.67071C17.8113 6.10861 19.0801 6.42981 19.6689 7.37736C20.2792 8.36239 20.0276 9.63114 19.064 10.2575C18.5786 10.5706 18.0733 10.8551 17.5667 11.1403C17.3804 11.2452 17.194 11.3501 17.0083 11.4566C16.9601 11.4834 16.8852 11.5048 16.837 11.4888C16.5371 11.398 16.2401 11.3043 15.9203 11.2035L15.9179 11.2027L15.9165 11.2023C15.8037 11.1667 15.6879 11.1302 15.5682 11.0926C15.6844 11.025 15.7961 10.9596 15.9046 10.8961L15.9063 10.8951C16.1319 10.763 16.344 10.6389 16.5533 10.5198C16.811 10.3696 17.0697 10.2214 17.3285 10.073C17.6879 9.86698 18.0477 9.66072 18.4055 9.44912C18.8713 9.17075 19.0586 8.67824 18.9034 8.18572C18.7535 7.71463 18.2878 7.39342 17.7899 7.45231C17.6132 7.47372 17.4259 7.54332 17.2706 7.63432C15.9356 8.4015 14.6005 9.17132 13.2673 9.94007C12.7027 10.2656 12.1384 10.591 11.5746 10.916C11.5499 10.929 11.5248 10.9421 11.4988 10.9557C11.4293 10.9919 11.3537 11.0312 11.2641 11.0819Z" fill="white"/>
<path d="M6.94927 7.7414C7.7844 8.22856 8.62488 8.71572 9.5189 9.22965C9.4884 9.09545 9.46007 8.96733 9.43268 8.84343C9.36392 8.53248 9.30102 8.24797 9.22446 7.96089C9.20305 7.87524 9.11204 7.78423 9.02639 7.73605C8.41075 7.37202 7.79511 7.00799 7.17412 6.66537C6.50494 6.29599 5.80365 6.27993 5.12912 6.64396C4.40641 7.0294 4.02632 7.6504 4.01562 8.47482C3.99956 9.30459 4.36359 9.94165 5.07559 10.3592C5.94366 10.8664 6.81355 11.3681 7.68314 11.8697C8.30967 12.231 8.93628 12.5924 9.56173 12.9556C10.0757 13.2554 10.6163 13.3036 11.1838 13.1644C11.2879 13.1393 11.3872 13.0925 11.4913 13.0434C11.5425 13.0193 11.5949 12.9946 11.6496 12.9717L11.621 12.9459C11.5913 12.919 11.5819 12.9105 11.5693 12.9021C11.0286 12.5889 10.4893 12.2771 9.94995 11.9653L9.94801 11.9642C9.40927 11.6527 8.87053 11.3412 8.33045 11.0284L7.75349 10.6961C7.03433 10.282 6.31393 9.86723 5.60022 9.44914C5.19871 9.20823 4.98458 8.77461 5.05953 8.36775C5.14518 7.8913 5.42356 7.58616 5.89466 7.46303C6.28418 7.35915 6.60317 7.54249 6.92005 7.72462L6.94927 7.7414Z" fill="white"/>
<path d="M8.44286 12.72C7.93964 13.0091 7.47925 13.2768 7.01886 13.5444C6.8443 13.6459 6.66896 13.7467 6.49344 13.8475C6.2062 14.0125 5.918 14.178 5.63233 14.3475C5.15588 14.6258 4.97387 15.0488 5.09164 15.5948C5.18265 16.0124 5.56274 16.371 6.05525 16.3657C6.35504 16.3603 6.67624 16.2265 6.94391 16.0766C8.6849 15.086 10.4214 14.0773 12.1534 13.0713L12.6292 12.795C12.6424 12.7884 12.6577 12.7838 12.6788 12.7775C12.6919 12.7736 12.7072 12.769 12.7256 12.7628C12.747 13.1697 12.6453 13.5391 12.4097 13.8442C12.2009 14.1119 11.9493 14.3689 11.6603 14.5455C10.8364 15.0454 10.0006 15.5245 9.16621 16.0026C8.88372 16.1645 8.60138 16.3263 8.31974 16.4888C8.15685 16.5816 7.99493 16.6753 7.83274 16.7691C7.61114 16.8974 7.38905 17.0259 7.1634 17.1526C6.15697 17.7148 4.8668 17.3721 4.29398 16.3925C3.71047 15.3967 4.02096 14.1119 5.00063 13.5123C5.62163 13.1322 6.25868 12.7736 6.90109 12.4202C7.00815 12.3613 7.17411 12.3506 7.29724 12.3828C7.56787 12.4416 7.83276 12.5263 8.11927 12.6179C8.22377 12.6513 8.33129 12.6857 8.44286 12.72Z" fill="white"/>
<path d="M14.3155 10.8035C13.6945 10.4556 13.0254 10.4877 12.3562 10.8464C12.4221 10.8917 12.469 10.9275 12.5067 10.9562C12.5179 10.9648 12.5284 10.9728 12.5382 10.9802C13.7372 11.6707 14.9308 12.3611 16.1244 13.0516C16.3158 13.1613 16.5081 13.2711 16.6999 13.3805C17.275 13.7088 17.8501 14.037 18.4162 14.3742C18.9569 14.6954 19.1068 15.3432 18.7856 15.8571C18.4644 16.3764 17.8434 16.5209 17.3027 16.2051C16.4517 15.7127 15.6002 15.22 14.7438 14.7276C14.6872 14.6945 14.6265 14.6657 14.536 14.6227C14.5237 14.6169 14.5109 14.6108 14.4976 14.6044C14.5246 14.7267 14.5492 14.8458 14.5733 14.9622C14.6305 15.2381 14.6846 15.4994 14.7599 15.7554C14.7973 15.8839 14.9044 16.0177 15.0168 16.0873C15.6218 16.4513 16.2267 16.7993 16.8423 17.1419C17.8541 17.704 19.1336 17.3561 19.7011 16.371C20.2899 15.3539 19.9741 14.0744 18.9676 13.4802C17.4259 12.5755 15.8787 11.6708 14.3155 10.8035Z" fill="white"/>
<defs>
<linearGradient id="paint0_linear" x1="24" y1="12" x2="0" y2="12" gradientUnits="userSpaceOnUse">
<stop stop-color="#E34236"/>
<stop offset="1" stop-color="#F16A5A"/>
</linearGradient>
</defs>
</svg>
