<svg width="24" height="24" viewBox="0 0 24 24" fill="none" xmlns="http://www.w3.org/2000/svg">
<circle cx="12" cy="12" r="12" fill="#006AD2"/>
<path fill-rule="evenodd" clip-rule="evenodd" d="M6.71781 9.58531H13.3892C13.3892 9.58531 15.6919 9.56396 14.0994 12.5101C14.0994 12.5101 12.9373 14.8158 10.0535 14.7731L11.6095 10.8368C11.6471 10.7414 11.6353 10.6338 11.5779 10.5487C11.5205 10.4636 11.4247 10.4117 11.3215 10.4098L9.27877 10.3752L6.69629 16.609C6.69629 16.609 7.55712 16.6944 8.03057 16.6517L7.77232 17.2922H8.99255C9.06111 17.2921 9.12247 17.25 9.14663 17.1863L9.36485 16.609L9.88135 16.5663L9.58006 17.2922H10.768C10.8564 17.2922 10.9358 17.2385 10.9681 17.1569L11.3021 16.3102C11.3021 16.3102 14.9176 15.7124 16.5532 12.809C16.5532 12.809 18.7483 9.43587 16.1658 8.24034C15.6625 8.01146 15.1243 7.86717 14.5733 7.81337L14.8772 7.07641C14.8958 7.03108 14.8905 6.97951 14.8629 6.9389C14.8354 6.89828 14.7892 6.87395 14.7399 6.87402H13.6259L13.2816 7.77067H12.8082L13.0754 7.07427C13.0929 7.02883 13.0866 6.97779 13.0588 6.93779C13.0309 6.89778 12.985 6.87394 12.936 6.87402H11.8169L11.4726 7.77067H7.99528C7.8045 7.77011 7.62913 7.87452 7.5399 8.0418L6.71781 9.58531Z" fill="white"/>
</svg>
