<svg width="24" height="24" viewBox="0 0 24 24" fill="none" xmlns="http://www.w3.org/2000/svg">
<circle cx="12" cy="12" r="12" fill="#FFF700"/>
<path d="M2 18.2062C2.00566 18.1188 2.01087 18.0314 2.01607 17.9441C2.02915 17.7244 2.04221 17.505 2.06256 17.2863C2.09526 16.9451 2.13791 16.6053 2.18483 16.2654C2.29288 15.4693 2.45781 14.6844 2.68103 13.9124C2.9668 12.9257 3.35068 11.9817 3.87815 11.0973C4.66297 9.78077 5.69944 8.71587 7.04727 7.96944C7.85484 7.52158 8.71785 7.22301 9.62209 7.04244C9.71744 7.02316 9.8136 7.00549 9.91422 6.987L10.0145 6.96851C10.0012 6.94794 9.98891 6.92839 9.977 6.90944C9.96094 6.88389 9.94551 6.85934 9.9292 6.83487C9.7202 6.51497 9.56949 6.1709 9.50835 5.79129C9.4657 5.52826 9.45717 5.26381 9.55243 5.0079C9.68323 4.6553 9.98038 4.51312 10.3372 4.63681C10.6244 4.73634 10.8377 4.93539 11.0296 5.16145L11.0343 5.16706C11.054 5.19077 11.0735 5.21429 11.1064 5.23538C11.1064 5.18694 11.1056 5.13836 11.1047 5.08973C11.1029 4.98419 11.101 4.87842 11.1078 4.7733C11.1405 4.30981 11.2472 3.86764 11.5074 3.47523C11.5742 3.37429 11.6581 3.27903 11.7491 3.19799C12.0491 2.92927 12.4358 2.93354 12.7386 3.19799C12.9888 3.41694 13.1296 3.70414 13.2334 4.01266C13.34 4.33113 13.3812 4.66098 13.3884 4.9951V5.08894C13.4118 5.06599 13.4338 5.04385 13.455 5.02246C13.4969 4.98023 13.5359 4.94091 13.5775 4.90411C13.7282 4.76762 13.8917 4.65245 14.095 4.6098C14.3438 4.5572 14.5499 4.64961 14.6751 4.87283C14.7973 5.09178 14.8201 5.33064 14.8101 5.57376C14.7959 5.96048 14.7163 6.33298 14.5499 6.68416C14.5169 6.75401 14.4802 6.82266 14.4446 6.88936C14.4251 6.92584 14.406 6.96177 14.3879 6.99695C14.478 7.02266 14.5683 7.04778 14.6586 7.07289C14.8828 7.13526 15.1067 7.19755 15.3276 7.26851C16.5347 7.65807 17.6238 8.2609 18.5764 9.10116C19.4309 9.8547 20.109 10.7461 20.6351 11.7542C21.1555 12.7523 21.4995 13.8101 21.7156 14.9119C21.8294 15.4877 21.9133 16.0678 21.9502 16.6522C21.9727 17.0123 21.982 17.3732 21.9913 17.7337C21.9949 17.8742 21.9985 18.0146 22.0028 18.155C22.0028 18.1635 22.0021 18.1716 22.0014 18.1798C22.0007 18.188 22 18.1962 22 18.2047H19.2731C19.272 18.1939 19.2703 18.1833 19.2686 18.1728C19.2658 18.1556 19.2631 18.1385 19.2631 18.1209C19.2645 17.3858 19.2105 16.6564 19.0754 15.9342C18.9205 15.0953 18.666 14.2906 18.2664 13.5357C17.6181 12.3044 16.6812 11.3604 15.4371 10.7319C14.3452 10.1803 13.1765 9.94996 11.9623 9.92863C11.4576 9.9201 10.9557 9.9528 10.4581 10.0353C9.82683 10.1391 9.22116 10.3196 8.64676 10.6011C7.64157 11.0931 6.85249 11.8267 6.24966 12.7651C5.54304 13.8641 5.16201 15.084 4.94448 16.3621C4.87908 16.7432 4.835 17.1299 4.79235 17.5138C4.7739 17.6798 4.76506 17.8466 4.75623 18.0131C4.75281 18.0775 4.7494 18.1419 4.74543 18.2062H2Z" fill="black"/>
<path d="M10.5906 15.0415C10.5909 15.1899 10.5912 15.3384 10.5903 15.4863C10.5889 15.7622 10.3799 16.0025 10.1169 16.0309C9.8254 16.0622 9.57375 15.893 9.50693 15.6172C9.49555 15.5688 9.48987 15.519 9.48987 15.4693C9.48844 15.0314 9.48844 14.5935 9.48987 14.1555C9.49129 13.8584 9.69033 13.6352 9.98606 13.5939C10.2377 13.5598 10.495 13.7333 10.569 13.9892C10.5846 14.0432 10.5917 14.1001 10.5917 14.157C10.5917 14.2679 10.5914 14.3785 10.591 14.489C10.5907 14.5991 10.5903 14.7095 10.5903 14.8195C10.5903 14.8934 10.5905 14.9675 10.5906 15.0415Z" fill="black"/>
<path d="M14.8243 15.5048V14.1271C14.8243 13.8342 14.5755 13.5897 14.2769 13.5911C13.9826 13.5911 13.7324 13.8342 13.7324 14.1228C13.731 14.5849 13.731 15.0456 13.7324 15.5076C13.7324 15.7963 13.9798 16.0323 14.2798 16.0323C14.5784 16.0323 14.8229 15.7963 14.8243 15.5048Z" fill="black"/>
</svg>
