<svg width="24" height="24" viewBox="0 0 24 24" fill="none" xmlns="http://www.w3.org/2000/svg">
<circle cx="12" cy="12" r="12" fill="#C0993A"/>
<path fill-rule="evenodd" clip-rule="evenodd" d="M5.13982 11.0524C5.07028 10.9889 4.99681 10.9252 4.92923 10.8617C4.86165 10.7982 4.79224 10.7345 4.7227 10.671L4.51603 10.4746C4.48224 10.4408 4.44649 10.4111 4.4127 10.3771C4.37891 10.3474 4.33923 10.3136 4.30544 10.2838C4.03119 10.0235 3.75538 9.76329 3.48493 9.50293C3.76507 9.75923 4.03931 10.0137 4.31945 10.2738L4.41676 10.3712C4.45055 10.4049 4.4863 10.4348 4.52009 10.4685L4.72662 10.6592C4.79617 10.7228 4.86375 10.7864 4.93329 10.8557C5.00283 10.925 5.07041 10.9887 5.13996 11.0521L5.13982 11.0524ZM1.50013 11.0131C1.50013 11.0131 2.49744 11.1163 2.98424 11.1859C3.43516 11.2495 4.8458 11.466 4.8458 11.466L1.50013 11.0131ZM1.50013 11.0131C1.78027 11.0369 2.06041 11.0667 2.34054 11.0965C2.48356 11.1104 2.62068 11.1263 2.7578 11.1401L2.96827 11.1641C3.03781 11.1739 3.10539 11.1839 3.17493 11.1938L4.00945 11.3269L4.42658 11.3964C4.5637 11.4203 4.70082 11.4462 4.84384 11.47C4.70672 11.4562 4.5637 11.4363 4.42658 11.4164L4.00945 11.3568L3.17493 11.2337C3.10539 11.2237 3.03781 11.2097 2.96827 11.1999L2.75767 11.1756C2.62055 11.1618 2.47753 11.1418 2.34041 11.1259C2.06028 11.0922 1.78014 11.0563 1.5 11.0127L1.50013 11.0131ZM4.74653 11.7258C4.74653 11.7258 3.68164 11.9961 3.32201 12.0995C2.9684 12.1968 1.89748 12.5226 1.89748 12.5226L4.7464 11.726L4.74653 11.7258Z" fill="#CFB66C"/>
<path fill-rule="evenodd" clip-rule="evenodd" d="M4.7462 11.7256C4.50981 11.7951 4.27472 11.8627 4.03492 11.9264L3.32364 12.117C3.08725 12.1866 2.85216 12.2542 2.61642 12.3237L2.26281 12.421C2.1456 12.4548 2.02642 12.4845 1.90527 12.5185C2.02236 12.4792 2.14167 12.439 2.25888 12.4052L2.61249 12.292C2.84889 12.2184 3.08397 12.1489 3.31971 12.0754C3.56004 12.0158 3.79656 11.9522 4.03689 11.8945C4.26529 11.8369 4.50575 11.7794 4.7462 11.7257V11.7256ZM2.04632 13.178C2.16341 13.1343 3.51446 12.5046 3.82839 12.3575C3.98555 12.2839 4.44236 12.1218 4.44236 12.1218L2.04632 13.178Z" fill="#CFB66C"/>
<path fill-rule="evenodd" clip-rule="evenodd" d="M2.04603 13.1778C2.14923 13.1385 2.24667 13.0904 2.34594 13.0447L2.63996 12.9076L3.2301 12.6235C3.42655 12.5302 3.6175 12.4271 3.8201 12.3393C3.92344 12.2957 4.02677 12.26 4.12997 12.2262L4.28713 12.1766C4.3407 12.1627 4.39046 12.1467 4.44429 12.1328C4.24784 12.2262 4.04104 12.3057 3.84433 12.397C3.64788 12.4944 3.44698 12.5739 3.24424 12.6613L2.64428 12.9254C2.44286 13.007 2.24641 13.0944 2.0459 13.1778H2.04603ZM2.177 13.7279C2.177 13.7279 3.40075 13.0107 3.82194 12.7802C4.04248 12.6571 4.75573 12.3033 4.75573 12.3033L2.177 13.7279Z" fill="#CFB66C"/>
<path fill-rule="evenodd" clip-rule="evenodd" d="M2.17773 13.7283C2.38427 13.6011 2.59486 13.472 2.80546 13.3409L3.11978 13.15C3.22704 13.0865 3.33037 13.0269 3.43973 12.9634C3.54699 12.8998 3.65032 12.8362 3.75955 12.7767C3.81155 12.7445 3.86603 12.7167 3.92247 12.6932L4.08933 12.6098C4.30987 12.5025 4.53042 12.3932 4.76289 12.2998C4.55229 12.433 4.33567 12.5463 4.11919 12.6634C4.01192 12.723 3.90257 12.7767 3.79531 12.8362C3.68804 12.8958 3.58471 12.9595 3.47535 13.0171C3.36809 13.0806 3.26476 13.1402 3.15553 13.1978L2.83165 13.3746L2.178 13.7283H2.17773ZM4.74652 12.4606C4.74652 12.4606 3.9856 13.0447 3.73925 13.2315C3.4929 13.4183 2.76774 13.9428 2.76774 13.9428L4.74652 12.4606Z" fill="#CFB66C"/>
<path fill-rule="evenodd" clip-rule="evenodd" d="M9.113 17.1719L8.72363 16.4349L8.95007 15.513L10.5653 14.8892L9.87784 13.4787L10.2176 12.0542L10.8554 10.7785L12.8263 10.4687L14.2745 9.08789L17.4017 9.32429L18.0156 12.668L16.8335 16.8779L16.16 19.0575L13.4302 19.1608L12.1627 18.2827L10.6786 17.6627L9.113 17.1719Z" fill="#E2CC85"/>
<path fill-rule="evenodd" clip-rule="evenodd" d="M13.9012 17.1479C13.9012 17.1479 13.5236 17.3208 12.8796 17.281C12.6933 17.0307 11.388 16.9135 11.388 16.9135C11.388 16.9135 11.2251 16.8639 10.937 16.983C10.647 17.1009 10.3728 17.0864 10.1165 17.1499C9.86018 17.2134 9.60572 16.8797 9.40927 16.8102C9.21282 16.7367 8.95232 16.5599 8.95232 16.5599L8.40226 16.5062L7.29769 16.0393L5.54287 14.291L5.06602 15.0375L4.91895 15.9614L5.44949 17.0561L6.87794 18.3574L9.66334 19.0646L11.3143 18.5782L13.3825 17.704L13.9012 17.1478V17.1479Z" fill="#F1D789"/>
<path fill-rule="evenodd" clip-rule="evenodd" d="M4.00516 10.9693L4.35877 9.89854L4.78009 9.20704L6.1369 9.09375L5.7296 10.2819L4.5953 12.3005L5.06612 14.1024L4.23173 14.5196L3.9753 14.1263L3.76877 13.2243L3.75488 12.211L4.00516 10.9693Z" fill="#F4ECB4"/>
<path fill-rule="evenodd" clip-rule="evenodd" d="M5.52708 17.0743L5.26684 16.7108C5.26684 16.7108 5.1973 16.5379 5.23711 16.3869C5.2764 16.2339 5.27077 16.224 5.251 16.1664C5.23122 16.1087 5.06424 15.91 5.07419 15.7391C5.08401 15.5663 5.06031 15.5086 5.18735 15.3716C5.32041 15.2386 5.28073 15.0081 5.28073 15.0081L5.4536 15.1153L5.49289 15.0558C5.49289 15.0558 5.55641 15.1054 5.55641 15.1829C5.57029 15.0757 5.51267 14.5789 5.64377 14.4657C5.77486 14.3526 6.00733 14.9962 6.00733 14.9962L5.86432 14.0624L5.49669 13.1049L4.84303 12.2307L4.80374 11.267V11.1836C4.80374 11.1836 4.5037 11.6446 4.42027 12.0087C4.36068 12.259 4.5037 12.5629 4.47397 12.9226C4.45 13.2802 4.42027 13.2523 4.50763 13.394C4.59498 13.5358 4.80767 13.8272 4.72425 14.0377C4.65077 14.2186 4.40037 14.0914 4.40037 14.0914C4.40037 14.0914 4.35073 14.2384 4.28315 14.2921C4.25931 14.2047 4.23351 14.1491 4.18584 14.0956C4.18178 14.1294 4.17196 14.1751 4.17196 14.1751C4.17196 14.1751 4.12822 14.038 4.08447 13.8651C4.02501 13.6348 3.96136 13.3308 3.90374 13.1679C3.8799 13.2612 3.82031 13.5453 3.82031 13.5453L3.8541 13.9825L4.01703 14.5824L4.17419 14.9753L4.32716 15.4561L4.46009 15.7791L4.56735 16.0254L4.66073 16.5798L5.11165 17.0565L5.3521 17.1639L5.52681 17.0745L5.52708 17.0743Z" fill="#F3E19D"/>
<path fill-rule="evenodd" clip-rule="evenodd" d="M4.24217 10.0949C4.24217 10.0949 3.91829 10.6449 3.82504 11.1995C3.73179 11.754 3.64823 12.3399 3.70717 13.0948C3.76676 13.8558 3.88004 14.3226 3.97146 14.6564C4.12862 15.2108 4.53567 15.9817 4.53567 15.9817L4.54955 15.9518C4.48113 15.8221 4.42652 15.6856 4.38662 15.5445C4.33293 15.3339 4.31302 15.0837 4.26339 14.9704C4.21964 14.8572 4.14617 14.7598 4.11042 14.6207C4.07663 14.4876 4.07113 14.277 3.9674 14.1201C3.92366 14.0565 3.86996 13.8896 3.85411 13.7228C3.83421 13.4724 3.86407 13.1922 3.84023 12.9619C3.79649 12.5784 3.76676 12.3182 3.80644 12.1174C3.84612 11.9166 4.05292 11.3467 4.18009 10.8936C4.26352 10.6036 4.21375 10.3592 4.36672 10.1068C4.51969 9.85652 4.6132 9.63597 4.64686 9.483C4.68615 9.34392 4.24164 10.0949 4.24164 10.0949H4.24217Z" fill="#F2E8B0"/>
<path fill-rule="evenodd" clip-rule="evenodd" d="M5.7781 9.87402C5.7781 9.87402 5.61125 9.92379 5.53176 10.0111C5.45226 10.0946 5.41847 10.1641 5.31121 10.3052C5.20395 10.4462 5.19792 10.5615 5.11043 10.7383C5.02308 10.9111 4.8303 11.1714 4.80646 11.2648C4.78262 11.3581 4.74294 11.7952 4.6933 12.0018C4.64956 12.2085 4.74294 12.4628 4.74294 12.4628L4.8561 12.4389C4.8561 12.4389 4.8561 12.5859 4.96938 12.6853C5.08254 12.7826 5.10245 12.3554 5.10245 12.3554L5.5256 10.927L6.16328 10.4939L6.23282 10.1442L5.77784 9.87402H5.7781Z" fill="#F5EEC0"/>
<path fill-rule="evenodd" clip-rule="evenodd" d="M6.08717 10.5218C6.08717 10.5218 5.78712 10.5415 5.64018 10.6489C5.58059 10.6925 5.55675 10.7283 5.49324 10.782C5.37602 10.8793 5.25671 10.9687 5.19922 11.0963C5.13557 11.2233 5.06602 11.4161 5.01835 11.7797C4.99844 11.9327 4.99844 12.0737 4.98456 12.197C4.96465 12.3638 4.93492 12.4969 4.95077 12.5899C4.97068 12.7805 5.16739 12.8799 5.18651 13.0964L5.59382 12.8899L5.97729 11.3779L6.7919 10.8671L6.3309 10.3506L6.08664 10.5208L6.08717 10.5218Z" fill="#E6DB9D"/>
<path fill-rule="evenodd" clip-rule="evenodd" d="M3.93861 20.7039C3.94031 20.6889 3.94201 20.674 3.94372 20.6587C4.00317 20.1479 4.01326 19.7608 4.05687 19.5184C4.12039 19.1747 4.16413 19.0469 4.15418 18.9183C4.1403 18.7117 4.12445 18.5607 4.14436 18.4017C4.17409 18.1912 4.38075 17.9409 4.37486 17.768C4.3708 17.6309 4.30125 17.5416 4.24166 17.4581C4.18207 17.3747 4.1344 17.3052 4.1344 17.3052C4.1344 17.3052 4.54171 17.025 4.53778 15.8965C4.5461 15.8988 4.5541 15.9022 4.56162 15.9064L4.76226 16.4765L4.89938 16.6434L5.42586 17.6249L6.10335 18.2826L7.10459 18.956L7.73245 19.6392L7.79597 21.4611L6.97546 22.526L6.84109 22.7694C5.77354 22.2334 4.7946 21.5368 3.93848 20.7037L3.93861 20.7039Z" fill="#E5CB7A"/>
<path fill-rule="evenodd" clip-rule="evenodd" d="M6.44531 22.4461C6.44531 22.4461 6.4592 22.2196 6.64595 22.0725C6.67581 22.1222 6.69559 22.17 6.6897 22.2056C6.72348 22.1461 6.95988 21.7646 7.49435 21.6652C8.02883 21.5679 8.15796 21.1786 8.15796 21.1786L9.29226 20.1475L10.5896 18.9534L12.1671 18.3991L12.9043 18.2182C12.9043 18.2182 12.9182 18.2719 12.8904 18.3911C13.0274 18.3813 13.3314 18.3117 13.6473 18.2004C13.7745 18.1507 13.8938 18.1308 13.9573 18.1965C14.0507 18.2838 14.0645 18.4905 14.0704 18.6136C14.2234 18.5798 14.4002 18.4329 14.5419 18.4467C14.7685 18.4706 14.9691 18.7368 15.1996 18.7368C15.5036 18.7368 15.6406 18.5501 15.8533 18.403C15.9805 18.3156 16.1632 18.2065 16.2665 18.1328C16.5128 17.9519 19.1195 17.1553 19.1195 17.1553L20.0333 17.2149L20.1804 18.1963L20.1018 20.762C20.0921 20.7713 20.0825 20.781 20.0726 20.7903L15.9173 22.9605L10.1574 23.8435C8.86718 23.6327 7.62208 23.2044 6.47517 22.5769L6.44571 22.4459L6.44531 22.4461Z" fill="#D8C173"/>
<path fill-rule="evenodd" clip-rule="evenodd" d="M4.28809 21.0296C4.36994 20.8584 4.44354 20.7153 4.45651 20.6641C4.46672 20.7673 4.48545 20.9937 4.52317 21.2344C4.44398 21.1671 4.36562 21.0988 4.28809 21.0295V21.0296Z" fill="#F1D789"/>
<path fill-rule="evenodd" clip-rule="evenodd" d="M8.49603 23.444L9.24097 23.2368L9.30449 23.2567C9.30449 23.2567 9.33828 23.2766 9.33828 23.3441C9.43166 23.2905 9.51116 23.3003 9.56878 23.2647C9.59851 23.3282 9.62824 23.5388 9.75947 23.5646C9.89646 23.5945 10.0435 23.505 10.1926 23.3919C10.3395 23.2747 10.5069 23.1276 10.6335 23.068C10.68 23.1534 10.7212 23.2417 10.7568 23.3322C10.9236 23.1991 11.2137 22.6587 11.6269 22.6685C11.7464 22.3863 11.9459 22.1453 12.2008 21.9752C12.5843 21.715 12.8246 21.6951 13.1247 21.7189C13.2438 21.5641 13.3907 21.4327 13.5578 21.3315C13.6074 21.3514 13.7445 21.4348 13.9154 21.3553C14.0883 21.276 14.2829 20.9679 14.5392 20.9283C14.6773 20.9093 14.8178 20.9387 14.9366 21.0117C14.9366 21.0117 15.6831 20.2705 16.1982 20.0242C16.1783 19.9646 16.1386 19.7401 16.7425 19.2434C16.7763 19.2732 16.7524 19.3567 16.7763 19.3612C16.7861 19.3612 16.9334 19.2977 17.1199 19.1546C17.3504 18.9818 17.6265 18.801 17.7934 18.7513C18.1077 18.658 18.4411 18.8486 18.4411 18.8486C18.4695 18.8288 18.5011 18.814 18.5345 18.8049C18.6139 18.791 18.6715 18.7811 18.7152 18.7656C18.7113 18.8689 18.7689 19.0457 18.7152 19.1987C18.7774 19.2337 18.8433 19.2617 18.9117 19.2821C18.878 19.3556 18.8044 19.5424 18.6813 19.6318C18.7845 19.6815 18.7984 19.7391 18.9455 19.789C18.8859 19.8724 18.7883 20.0156 18.7448 20.1033C18.7011 20.1967 18.5441 20.5841 18.4745 20.731C18.401 20.8781 18.3018 21.1483 18.254 21.2025C18.2062 21.2567 18.0334 21.4866 17.9004 21.5997C18.0182 21.556 18.5004 21.409 18.705 21.3534C18.6441 21.4427 18.3354 21.9007 18.0387 22.3411C16.6177 23.1928 15.0316 23.7318 13.386 23.9224C11.7404 24.1129 10.073 23.9505 8.49512 23.446L8.49603 23.444Z" fill="#E0CD81"/>
<path fill-rule="evenodd" clip-rule="evenodd" d="M6.137 10.468C6.137 10.468 5.96425 10.468 5.93046 10.4918C5.89668 10.5157 6.10334 10.5654 6.16686 10.5893C6.23038 10.6131 6.3675 10.7223 6.40325 10.8098C6.43704 10.8933 7.64495 11.3799 7.64495 11.3799L8.49925 11.3362L8.79379 10.9293L8.23352 10.4385L8.62642 9.28027L8.10595 9.3637L6.8543 10.1102L6.22645 10.3507L6.137 10.468Z" fill="#DFC57C"/>
<path fill-rule="evenodd" clip-rule="evenodd" d="M8.01239 10.8514C8.02473 10.8714 8.04213 10.8878 8.06282 10.8989C8.08351 10.9101 8.10676 10.9156 8.13026 10.9149C8.30706 10.9149 8.46985 10.9587 8.53743 11.048C8.65072 11.1911 8.96464 11.6481 8.96464 11.6481L9.71561 11.9183L9.76406 11.034L8.94356 10.4639L8.00977 10.8075V10.8513H8.01186L8.01239 10.8514Z" fill="#E5CC7C"/>
<path fill-rule="evenodd" clip-rule="evenodd" d="M7.86518 11.1797C7.86518 11.1797 8.00217 11.1896 8.17505 11.126C8.34793 11.0623 8.63199 10.9253 8.75523 10.979C8.92798 11.0525 8.89222 11.283 9.07911 11.4898C9.19227 11.6169 9.39893 11.613 9.51615 11.7501C9.63336 11.8873 10.0366 11.8236 10.0366 11.8236L10.1896 12.6487L9.57574 13.4356L9.37497 14.413H8.5449L7.7866 14.1121L7.41309 13.2085L7.59984 12.2946L7.86518 11.1797Z" fill="#D2C281"/>
<path fill-rule="evenodd" clip-rule="evenodd" d="M9.47096 11.2188C9.49155 11.2251 9.51294 11.2284 9.53448 11.2287C9.51064 11.2486 9.46087 11.2922 9.48078 11.4055C9.50069 11.5188 9.56421 11.6618 9.51064 11.7492C9.5534 11.7959 9.58529 11.8516 9.60402 11.9121C9.63781 12.0095 9.64776 12.0988 9.86818 12.1129C9.83637 12.1324 9.80704 12.1558 9.78083 12.1824C9.78083 12.1824 9.9338 12.3155 10.0113 12.4386C10.0907 12.4352 10.3013 12.3697 10.3013 12.3697L10.345 12.3995L10.4384 12.3602C10.4384 12.3602 10.3511 12.3265 10.4146 12.1139C10.4742 11.9271 10.5279 11.9371 10.5324 11.9232C10.537 11.9093 10.5762 11.7126 10.5762 11.6331C10.6059 11.5299 10.6298 11.216 10.6298 11.216L10.5662 10.5227L10.2087 10.3061L9.91795 10.0254L9.6437 10.5419L9.4631 10.722L9.44922 11.169L9.47096 11.2188Z" fill="#E2C270"/>
<path fill-rule="evenodd" clip-rule="evenodd" d="M10.3311 10.639C10.3311 10.639 10.3946 10.8197 10.4185 10.9588C10.427 10.9318 10.4317 10.9037 10.4324 10.8754C10.4324 10.8754 10.4821 11.1496 10.4919 11.2629C10.5118 11.2588 10.5312 11.2529 10.5356 11.2727C10.5401 11.2925 10.5854 11.5132 10.5749 11.6363C10.6576 11.4998 10.7721 11.3853 10.9086 11.3026C10.9881 11.2528 11.0815 11.1992 11.1789 11.1952C11.3319 11.1913 11.4431 11.2926 11.6259 11.2926C12.0669 11.2926 12.4663 10.9687 12.7604 10.8695C12.9768 10.7959 13.1636 10.7423 13.2947 10.623C13.3583 10.5694 13.4716 10.4503 13.5748 10.2733C13.712 10.0376 13.855 9.83235 13.9981 9.80655C13.9334 9.81845 13.8675 9.82311 13.8017 9.82043C13.8017 9.82043 13.8454 9.77669 13.9195 9.7171C13.9937 9.65751 14.0825 9.58404 14.2095 9.58404C14.4361 9.58404 14.5492 9.6177 14.6764 9.6177C14.8036 9.61377 14.877 9.58404 14.877 9.58404C14.877 9.58404 15.0102 9.67742 15.3101 9.67742C15.6102 9.68135 15.8108 9.70715 15.9679 9.72116C16.1249 9.73517 16.6512 9.67742 16.8022 9.68187C16.9007 9.68566 16.9974 9.70932 17.0864 9.75141L16.5996 8.33697L14.851 6.80859L13.8099 7.54567L12.2085 9.147L10.6589 9.72116L10.335 10.0847V10.639H10.3311Z" fill="#CCB360"/>
<path fill-rule="evenodd" clip-rule="evenodd" d="M13.8078 9.82885C13.8078 9.82885 13.8515 9.78523 13.9248 9.72564C13.9982 9.66605 14.0879 9.59245 14.2149 9.59245C14.4414 9.59245 14.5547 9.62624 14.6818 9.62624C14.809 9.62231 14.8825 9.59245 14.8825 9.59245C14.8825 9.59245 15.0158 9.6857 15.3156 9.6857C15.6156 9.68963 15.8163 9.71543 15.9733 9.72931C16.1303 9.74319 16.6567 9.6857 16.8077 9.69002C16.9061 9.69373 17.0028 9.71739 17.0918 9.75957L16.8712 9.12176L16.615 8.63509L15.8838 7.83436C15.8838 7.83436 15.0064 7.31782 14.9997 7.31389C14.9958 7.30997 14.6957 7.23047 14.6957 7.23047L13.901 7.71125L13.1799 9.57687L13.166 9.96977L13.6328 10.1903C13.75 9.99386 13.8793 9.8367 14.0004 9.8168C13.891 9.82872 13.8076 9.82872 13.8076 9.82872L13.8078 9.82885Z" fill="#D5B457"/>
<path fill-rule="evenodd" clip-rule="evenodd" d="M13.7977 9.96175C13.7282 9.96568 13.6707 9.9518 13.6547 9.90217C13.5951 9.73531 13.5475 9.71148 13.4976 9.71148C13.4477 9.71148 13.3804 9.81874 13.3404 9.82856C13.3005 9.83838 13.2531 9.70545 13.2531 9.70545L13.2093 9.68555C13.2093 9.68555 12.953 9.8524 12.7723 10.0491C12.5915 10.2458 12.2954 10.5797 12.1624 10.6391C12.0293 10.6986 11.5722 10.7186 11.4159 10.7524C11.2595 10.7862 11.0861 10.8995 11.0622 10.9253C11.0384 10.9511 11.1319 10.9788 11.1458 11.0046C11.1597 11.0285 10.9927 11.0185 10.9788 11.0439C10.969 11.0638 11.0181 11.177 11.0425 11.2346C11.0851 11.2134 11.1319 11.2019 11.1795 11.2008C11.3324 11.1969 11.4438 11.2983 11.6264 11.2983C12.0675 11.2983 12.4669 10.9744 12.7609 10.875C12.9775 10.8015 13.1643 10.7478 13.2954 10.6286C13.3589 10.5751 13.4722 10.4558 13.5755 10.279C13.6509 10.1578 13.7245 10.0445 13.7981 9.9611L13.7977 9.96175Z" fill="#D2B257"/>
<path fill-rule="evenodd" clip-rule="evenodd" d="M7.4722 19.7946C7.4722 19.7946 7.43291 19.6475 7.06882 19.2681C6.96549 19.1608 6.90197 19.0716 6.83243 19.0079C6.65955 18.8448 6.55818 18.8012 6.43507 18.7078C6.16489 18.5072 5.87087 18.5072 5.64443 18.2608C5.41799 18.0145 5.15409 17.5438 4.97074 17.0627C4.79 16.5819 4.74023 16.429 4.74023 16.4151C4.74023 16.4012 4.79 16.3078 4.85352 16.3217C4.91704 16.3356 4.91704 16.4587 4.93302 16.4886C4.96466 16.5373 5.00056 16.5831 5.04028 16.6256C5.13366 16.733 5.26672 16.8613 5.3343 17.0528C5.32042 16.8899 5.26476 16.7091 5.26476 16.7091C5.26476 16.7091 5.61444 16.9297 5.91239 17.16C6.21243 17.3905 6.33554 17.47 6.42316 17.617C6.51077 17.7639 6.71718 18.1515 6.81606 18.2647C6.91494 18.378 8.26978 18.8051 8.26978 18.8051L8.91427 19.2856L9.23422 19.987L8.98381 20.3799L8.50304 20.4832L7.72221 20.1335L7.4722 19.7944V19.7946Z" fill="#D2B159"/>
<path fill-rule="evenodd" clip-rule="evenodd" d="M5.73828 17.3785C5.73828 17.3785 5.9012 17.6388 6.29856 17.8851C6.65623 18.1017 7.22239 18.2984 7.72714 18.4156C8.0171 18.4852 8.30719 18.5388 8.56742 18.5428C9.26875 18.5526 9.75149 18.3521 10.3496 18.2865C10.6735 18.2527 11.0708 18.2269 11.484 18.1294C12.0145 18.0022 12.3284 17.859 12.7556 17.6579C13.0655 17.5149 13.3497 17.4076 13.58 17.2705C13.9039 17.0798 14.1403 16.8672 14.4146 16.8037C14.3808 16.8971 14.345 17.0639 14.0748 17.2368C14.2178 17.2328 14.4146 17.2229 14.4146 17.2229C14.4146 17.2229 14.2239 17.3361 13.8881 17.5904C13.6814 17.7476 13.4073 18.0136 13.1272 18.1904C12.9463 18.3037 12.7496 18.3868 12.6204 18.4547C12.3061 18.6276 12.1794 18.7149 11.9728 18.9262C12.0463 18.9222 12.0523 18.9262 12.0523 18.9262C12.0523 18.9262 11.792 18.9599 11.6053 19.0592C11.566 19.0592 11.4979 19.0453 11.3788 19.0791C11.2854 19.1089 11.1621 19.1766 11.0351 19.2122C10.8542 19.2659 10.7948 19.242 10.7948 19.242L10.8245 19.3016C10.8245 19.3016 10.5888 19.2976 10.5102 19.3056C10.5241 19.3095 10.5201 19.3155 10.5201 19.3155C10.5063 19.3178 10.493 19.3225 10.4808 19.3294C10.443 19.3539 10.4014 19.372 10.3577 19.383C10.3339 19.3869 10.314 19.3869 10.2841 19.3929C10.2941 19.4168 10.3716 19.5501 10.4074 19.6287C10.3776 19.6486 9.93052 19.9863 9.93052 19.9863C9.94439 20.0082 9.95573 20.0315 9.96431 20.0559C9.97819 20.0995 9.98422 20.1631 9.9981 20.1929C10.0318 20.2525 10.0517 20.2624 10.0517 20.2624C10.0517 20.2624 9.9981 20.2724 9.90459 20.2962C9.82523 20.3161 9.72779 20.3498 9.59027 20.3697C9.54808 20.3752 9.50564 20.3785 9.4631 20.3796C9.48301 20.4234 9.57036 20.5902 9.40941 20.7829C9.24845 20.9755 9.19881 21.0035 9.14918 21.1267C9.12419 21.1078 9.09759 21.0911 9.06968 21.0769C9.01611 21.0531 8.94251 21.0174 8.91671 20.9696C8.90167 21.0333 8.88175 21.0958 8.85712 21.1564C8.80748 21.2894 8.73401 21.4207 8.72013 21.5199C8.66643 21.4604 8.56716 21.3431 8.43004 21.367C8.29292 21.3908 8.18369 21.5776 8.15985 21.6313C8.15985 21.5975 8.13602 21.5717 8.13012 21.6114C8.12606 21.6551 8.05063 22.1119 7.62944 22.4815C7.62551 22.3881 7.62551 22.1815 7.61556 22.114C7.57627 22.1533 7.5282 22.2113 7.24204 22.3346C6.9619 22.4577 7.0063 22.5809 7.0063 22.5809C7.0063 22.5809 6.98246 22.3845 7.13347 22.1775C7.28644 21.971 7.37982 21.8736 7.37982 21.8577C7.37735 21.8416 7.37046 21.8264 7.35991 21.814C7.34 21.7941 7.30032 21.7702 7.30032 21.7544C7.32416 21.7446 7.56055 21.6313 7.54667 21.3967C7.53279 21.1862 7.44347 21.0769 7.37982 20.9995C7.36999 20.9895 7.47333 20.9161 7.45931 20.8922C7.44936 20.8783 7.32232 20.7848 7.30635 20.7351C7.3101 20.7054 7.31677 20.6761 7.32625 20.6477C7.34013 20.604 7.35009 20.5741 7.34616 20.5444C7.33621 20.4947 7.28251 20.3576 7.26666 20.3437C7.28054 20.3477 7.37982 20.3437 7.37982 20.3437C7.37982 20.3437 7.30045 20.2166 7.28644 20.157C7.27242 20.0974 7.2427 19.9404 7.22685 19.9106C7.26064 19.9146 7.34406 19.9205 7.34406 19.9106C7.34812 19.8808 7.27059 19.8311 7.30477 19.7928C7.32861 19.7967 7.37432 19.8166 7.41793 19.8723C7.39409 19.8086 7.35441 19.6855 7.27085 19.6359C7.31014 19.622 7.44373 19.5861 7.56094 19.6556C7.67816 19.7252 7.7181 19.8225 7.7181 19.8225C7.7181 19.8225 7.78765 19.8762 7.89504 19.9557C8.01815 20.053 8.17505 20.1914 8.42545 20.2894C8.47915 20.3192 8.61614 20.3192 8.71555 20.2993C8.75883 20.289 8.80032 20.2723 8.83865 20.2497C8.85249 20.2415 8.86716 20.2349 8.8824 20.2298C8.86104 20.1869 8.83648 20.1457 8.80892 20.1066C8.84271 20.1066 8.8824 20.1106 8.8824 20.1106C8.8824 20.1106 8.90623 20.0569 8.79897 19.9535C8.82281 19.9296 8.85267 19.9142 8.85267 19.874C8.81888 19.87 8.75929 19.8204 8.74541 19.8005C8.76518 19.7866 8.79504 19.7409 8.82883 19.727C8.79897 19.7032 8.7255 19.6038 8.69171 19.594C8.72399 19.582 8.75522 19.5673 8.78509 19.5502C8.78509 19.5502 8.61824 19.5065 8.56454 19.4707C8.51084 19.4314 8.43148 19.3635 8.38381 19.3435C8.33404 19.3236 8.24668 19.3138 8.21093 19.274C8.24459 19.284 8.29829 19.274 8.3381 19.274C8.36783 19.274 8.38184 19.2779 8.39167 19.2779C8.38774 19.2641 8.38774 19.2342 8.46527 19.2244C8.50256 19.2187 8.53875 19.2073 8.57253 19.1906C8.57253 19.1906 8.49893 19.1866 8.41537 19.1072C8.33181 19.0277 8.2624 18.9641 8.21473 18.9542C8.16509 18.9442 8.07171 18.988 8.01409 18.9839C7.93459 18.9741 7.9008 18.9343 7.9008 18.9343C7.9008 18.9343 7.63664 18.9581 7.05057 18.6006C6.54386 18.2906 6.32331 18.0165 6.32331 18.0165C6.27589 17.9993 6.23005 17.978 6.18632 17.9528C5.99563 17.8535 5.73134 17.6469 5.73933 17.3766L5.73828 17.3785Z" fill="#C2A44D"/>
<path fill-rule="evenodd" clip-rule="evenodd" d="M13.0471 5.4537C13.093 5.46863 13.1339 5.49617 13.1649 5.53319C13.2583 5.64046 13.3179 5.84306 13.1054 6.05968C13.1888 6.08941 13.2232 6.09897 13.296 6.08941C13.2226 6.1769 13.0557 6.36365 13.0458 6.52658C13.0358 6.65964 13.1192 6.69945 13.1192 6.69945C13.1192 6.69945 12.9921 6.8464 12.9862 7.09235C13.0462 7.02463 13.1119 6.96215 13.1826 6.90559C13.3297 6.78838 13.5323 6.65532 13.6694 6.57189C13.6676 6.60686 13.6723 6.64186 13.6833 6.67509C13.6833 6.67509 13.9395 6.4645 14.1548 6.55801C14.2521 6.60175 14.2084 6.73874 14.2084 6.73874C14.2084 6.73874 14.3415 6.68911 14.4349 6.78249C14.5283 6.87586 14.6603 7.11671 14.728 7.21009C14.7578 7.25383 14.8353 7.33726 14.9147 7.46639C15.0231 7.64718 15.1136 7.83812 15.185 8.03649C15.1889 7.93316 15.2147 7.77233 15.5089 7.87357C15.8029 7.9769 16.1366 8.19352 16.4167 8.62008C16.6969 9.04664 16.7663 9.5282 16.9073 9.71155C17.0503 9.88836 17.1974 10.1824 17.2074 10.3056C17.2173 10.4289 17.1636 10.8261 17.4576 11.9009C17.5411 11.5672 17.6682 10.8261 17.6682 10.8261L17.7378 10.1724L17.8173 8.14991L15.7053 6.39535L14.0543 5.19727L12.9795 5.3006L13.0469 5.45357L13.0471 5.4537Z" fill="#CAA13E"/>
<path fill-rule="evenodd" clip-rule="evenodd" d="M16.9714 8.46349C16.9714 8.46349 16.9415 8.26704 16.4449 7.93307C15.9481 7.6033 15.5607 7.6033 15.2032 7.32316C14.929 7.10261 14.6429 6.5959 14.4567 6.42905C14.2758 6.26416 14.2461 5.78731 14.2461 5.78731L14.856 5.27654L15.7631 3.96544L16.5299 3.12109L16.8974 3.63186L17.4082 4.23182L17.6922 5.4358L17.7955 7.19809L16.9705 8.46362L16.9714 8.46349Z" fill="#B59544"/>
<path fill-rule="evenodd" clip-rule="evenodd" d="M17.5849 10.5758C17.6 10.3085 17.567 10.0407 17.4875 9.78512C17.3565 9.37782 17.0704 8.65462 16.9374 8.38378C16.8837 8.08374 16.9236 8.0599 16.9812 8.02611C17.0388 7.99232 17.2554 7.86895 17.3741 7.43611C17.4927 7.00326 17.8609 6.98912 17.8609 6.98912L18.0873 6.82227L18.4311 7.68245L18.731 8.45935L18.8244 9.05341L18.894 9.55999L18.731 10.6309L17.9265 11.358L17.5848 10.5758H17.5849Z" fill="#C89D3A"/>
<path fill-rule="evenodd" clip-rule="evenodd" d="M6.35742 22.5122V22.4902C6.37414 22.4797 6.3889 22.4664 6.40103 22.4509C6.41492 22.431 6.425 22.4071 6.43482 22.4012C6.45473 22.3913 6.54811 22.362 6.59775 22.3714C6.64738 22.3808 6.77861 22.4349 6.84815 22.431C6.99117 22.427 7.15802 22.3177 7.42231 22.3675C7.81966 22.4409 7.91304 22.7111 8.14354 22.8641C8.3007 22.9715 8.46337 22.9237 8.4872 22.9237H8.54077C8.55072 22.9237 8.62419 22.8402 8.66401 22.8443C8.7435 22.8482 8.75136 22.9138 8.801 22.9178C8.91821 22.9317 9.14478 22.8582 9.25807 22.888C9.29166 22.8986 9.32221 22.9171 9.34711 22.9419C9.37202 22.9668 9.39053 22.9973 9.40109 23.0309C9.42492 23.1044 9.40502 23.1978 9.34739 23.2515C9.22428 23.3646 9.10707 23.472 9.08323 23.5658C9.11355 23.5889 9.14266 23.6136 9.17045 23.6397C8.18744 23.3892 7.24165 23.0105 6.35742 22.5133V22.5122Z" fill="#CEB052"/>
<path fill-rule="evenodd" clip-rule="evenodd" d="M16.9375 18.5424C16.9375 18.5424 17.2474 18.1292 17.3548 17.9245C17.462 17.7135 17.015 15.0418 17.015 15.0418L17.9131 12.0995L17.8891 11.1418C17.8891 11.1418 17.9329 10.2577 18.0362 9.87422C18.1594 10.0948 18.5429 10.361 18.6263 10.5021C18.6656 10.2318 18.7991 9.66166 18.7793 9.05371C18.8528 9.16687 19.0296 10.3054 19.0296 10.3054L19.2064 11.0722L19.4369 11.8868L19.6932 12.7471L19.8462 13.3412L19.9335 13.4842L20.0071 13.7345L20.0767 14.0048L20.2773 14.6385L20.3952 15.159L20.4885 16.1027C20.5089 16.175 20.5235 16.2487 20.5323 16.3233C20.5362 16.4266 20.5184 16.4862 20.5184 16.5041C20.5184 16.5221 20.5522 16.7306 20.5383 16.8876C20.5184 17.0448 20.5184 17.1677 20.3952 17.2805C20.2719 17.3933 20.1945 18.0672 20.1945 18.0672L19.974 17.9203C19.974 17.9203 20.0177 17.7195 19.9144 17.5368C19.8111 17.3541 19.6104 17.3163 19.4971 17.3461C19.384 17.37 19.1575 17.4056 19.0839 17.4692C19.0144 17.5328 18.8436 17.7295 18.6866 17.8189C18.4901 17.9368 18.17 17.9461 17.9993 17.9858C17.8264 18.0251 17.6357 18.1429 17.4349 18.2798C17.2775 18.3817 17.1113 18.4694 16.9383 18.5417L16.9375 18.5424Z" fill="#CCA847"/>
<path fill-rule="evenodd" clip-rule="evenodd" d="M16.9375 22.8831C16.9375 22.8831 16.9506 22.8916 16.9759 22.9055C18.3874 22.2442 19.6521 21.3068 20.6953 20.1487C20.6839 19.7466 20.6691 19.3345 20.6529 19.1817C20.6192 18.8579 20.6431 18.5281 20.6331 18.3374C20.6232 18.1467 20.5159 17.3698 20.4663 17.1692C20.4126 16.9685 20.3091 16.8691 20.2934 16.8691C20.2795 16.8732 20.1959 17.2467 20.1959 17.3406C20.1959 17.4345 20.176 17.6606 20.176 17.7182C20.1622 17.7141 20.1563 17.6789 20.1563 17.6645C20.1364 17.7141 20.1125 17.8016 20.1026 17.8116C20.0926 17.8215 20.1165 17.7281 20.1026 17.7082C20.0887 17.6883 20.0633 17.6983 20.0688 17.6487C20.0711 17.6192 20.0758 17.59 20.0827 17.5613C20.0827 17.5613 20.0231 17.6487 19.9795 17.8712C19.9357 18.0917 19.9357 18.0977 19.9199 18.1175C19.906 18.1415 19.8265 18.2208 19.8224 18.2507C19.8185 18.3043 19.896 18.358 19.9019 18.3877C19.9059 18.4375 19.8324 18.6678 19.8085 18.7806C19.7847 18.8934 19.7947 19.1143 19.7693 19.2276C19.7494 19.3309 19.73 19.3905 19.662 19.4341C19.7116 19.4441 19.7593 19.458 19.7593 19.458C19.7593 19.458 19.8288 19.752 19.652 20.0024C19.5885 20.0897 19.5727 20.1296 19.5051 20.209C19.3719 20.356 19.2686 20.5234 19.2586 20.6322C19.2517 20.6001 19.2471 20.5675 19.2447 20.5348C19.2447 20.5348 19.0382 20.7752 18.9507 20.9123C18.8376 21.0891 18.6805 21.0792 18.6364 21.1229C18.5923 21.1667 18.5827 21.246 18.5971 21.3097C18.5578 21.3195 18.484 21.3335 18.4342 21.4865C18.4103 21.5659 18.3508 21.6437 18.2574 21.6971C18.164 21.7505 18.0507 21.7666 17.9931 21.7805C18.0427 21.7944 18.0626 21.7944 18.0865 21.8102C18.0567 21.8599 17.9196 21.9374 17.7666 22.0368C17.6137 22.1302 17.5401 22.2672 17.5024 22.3566C17.4631 22.4401 17.405 22.4938 17.3117 22.5037C17.351 22.5276 17.4091 22.5831 17.4388 22.601C17.3951 22.611 17.321 22.611 17.1886 22.7243C17.0495 22.8395 17.0018 22.8733 16.9382 22.8833L16.9375 22.8831Z" fill="#C39D3C"/>
<path fill-rule="evenodd" clip-rule="evenodd" d="M14.1725 23.8042C14.2486 23.7509 14.331 23.7072 14.4178 23.6741C14.7277 23.551 15.0555 23.5272 15.1846 23.4875C15.3079 23.4482 15.4052 23.394 15.5582 23.3643C15.5541 23.3991 15.5507 23.4318 15.547 23.4627C15.096 23.6045 14.6368 23.7185 14.1719 23.8042H14.1725Z" fill="#D2BA6B"/>
<path fill-rule="evenodd" clip-rule="evenodd" d="M19.8883 15.6534C19.8883 15.6534 19.8248 15.997 19.7115 16.2136C19.5982 16.4303 19.4757 16.7302 19.4757 16.7302C19.4765 16.6626 19.4845 16.5953 19.4996 16.5294C19.3565 16.6128 19.0088 16.8136 18.9102 16.9029C18.8168 16.9863 18.6598 17.1334 18.6201 17.203C18.7135 16.9288 18.8108 16.6825 18.8268 16.5692C18.6838 16.6725 18.0161 17.2229 17.6685 17.5864L16.5857 18.4626C16.4607 18.53 16.332 18.5903 16.2003 18.6431C16.0136 18.7224 15.7931 18.79 15.6302 18.8537C15.6739 18.7364 15.7433 18.633 15.8407 18.5337C15.9441 18.4364 16.2539 18.1006 16.3016 17.9444C16.3454 17.7814 16.3553 17.6841 16.2977 17.547C16.244 17.5609 16.1209 17.5669 16.0375 17.5908C15.954 17.6146 15.8646 17.7039 15.8646 17.7039C15.8646 17.7039 15.9281 17.3403 16.0652 16.9967C15.9619 17.0006 15.7851 17.0303 15.7851 17.0303C15.7851 17.0303 16.0314 16.6171 16.453 16.3291C16.3239 16.3566 16.1976 16.3958 16.0756 16.4462C15.8292 16.5496 15.559 16.7025 15.3584 16.786C15.4716 16.6288 16.2663 15.4946 16.7392 14.4376C17.2107 13.3827 17.3868 13.1125 17.4901 12.5463C17.5437 12.2662 17.5294 11.8522 17.5437 11.4814C17.5576 11.1138 17.6033 10.784 17.5736 10.5635C17.6967 10.7164 18.1577 11.1476 18.1735 12.1112C18.1874 13.0748 17.7326 14.3762 17.2497 15.0774C17.3676 15.1112 17.673 15.151 17.9868 14.6059C18.3006 14.0608 18.2968 13.9086 18.4101 13.6821C18.4239 13.7953 18.4199 13.835 18.4199 13.835C18.4199 13.835 18.8769 13.2808 19.0934 12.5834C19.1372 12.8834 19.2663 13.1477 19.0636 13.698C18.8828 14.1947 18.6464 14.3159 18.6464 14.3159C18.6464 14.3159 18.7637 14.296 18.9364 14.1927C18.9663 14.2662 18.9604 14.3499 19.01 14.3794C19.0596 14.409 19.1272 14.4589 19.1372 14.5066C19.1907 14.4271 19.2742 14.3258 19.3001 14.2503C19.2802 14.4075 19.2663 15.0947 19.3394 15.4443C19.4925 15.4305 19.6494 15.4205 19.7566 15.1443C19.6832 15.4146 19.6832 15.5774 19.7328 15.8079C19.8143 15.7524 19.8877 15.653 19.8877 15.653L19.8883 15.6534Z" fill="#C0993A"/>
<path fill-rule="evenodd" clip-rule="evenodd" d="M14.7258 4.70255C14.7258 4.70255 14.5728 4.76607 14.3126 4.76607C14.0862 4.76607 14.1497 4.67871 13.7961 4.67871C13.2518 4.67871 11.3504 4.99303 11.0166 4.98858C10.7999 4.98465 11.7476 5.08196 11.7476 5.08196L14.1696 5.11575L14.6563 5.07646L14.8371 4.70844L14.7258 4.70255Z" fill="#A88F33"/>
<path fill-rule="evenodd" clip-rule="evenodd" d="M8.44605 9.43743C8.44605 9.43743 8.13605 9.67382 8.00495 9.85469C7.87386 10.0356 7.80431 10.1546 7.65527 10.3017C7.69026 10.303 7.72521 10.2983 7.75861 10.2878C7.75861 10.2878 7.75861 10.3271 7.73477 10.3374C7.75537 10.3351 7.77622 10.3375 7.7958 10.3443C7.81538 10.3511 7.83319 10.3621 7.84793 10.3767C7.80418 10.4006 7.685 10.5199 7.77838 10.6609C7.84793 10.7682 7.995 10.778 7.995 10.778C7.995 10.778 7.96121 10.8754 8.10226 10.8655C8.40624 10.8516 8.74596 10.7184 8.90286 10.7522C9.06002 10.7915 9.14934 10.8059 9.26053 10.9987C9.3784 11.1894 9.48108 11.2192 9.48108 11.2192C9.48108 11.2192 9.55062 11.0423 9.53478 10.7781C9.5918 10.6357 9.6234 10.4845 9.62815 10.3311L9.52482 9.57023L9.0739 9L8.48979 9.32388L8.44605 9.43704V9.43743Z" fill="#E3C571"/>
<path fill-rule="evenodd" clip-rule="evenodd" d="M9 9.32364C9 9.32364 9.04374 9.42697 9.22657 9.43679C9.20667 9.48053 9.20667 9.48656 9.21269 9.52022C9.21662 9.55401 9.22251 9.60364 9.22251 9.60364C9.24264 9.5939 9.26083 9.58059 9.27621 9.56435C9.28616 9.6081 9.26625 9.67751 9.27621 9.72727C9.28235 9.75754 9.29234 9.7869 9.30594 9.81463C9.30884 9.80783 9.31216 9.80123 9.31589 9.79485C9.31982 9.7849 9.35518 9.90212 9.45301 9.9913C9.45293 9.97759 9.45631 9.96407 9.46284 9.95201C9.46434 9.97693 9.47257 10.001 9.48667 10.0216C9.47935 10.0181 9.47267 10.0134 9.4669 10.0077C9.4669 10.0077 9.47672 10.322 9.53041 10.4845C9.53939 10.474 9.54737 10.4627 9.55425 10.4507C9.55425 10.4409 9.55032 10.5382 9.54037 10.6079C9.52649 10.6774 9.53644 10.7747 9.53644 10.7747C9.57226 10.7465 9.61162 10.7232 9.65352 10.7052C9.71311 10.6812 9.81068 10.6078 9.87014 10.4448C9.90464 10.3526 9.93123 10.2575 9.94964 10.1608C9.96885 10.1978 9.98211 10.2375 9.98893 10.2786C9.99299 10.3283 10.0864 10.3025 10.0864 10.3025L10.1063 10.0859L10.2241 9.59513L10.3314 9.29116L10.8479 8.48663L11.7812 7.76788L12.5958 7.95464L13.2831 7.02085L12.0991 6.30957L10.9785 6.42679L9.96156 7.83533L9.14708 9.11291L9 9.3235V9.32364Z" fill="#D8B65B"/>
<path fill-rule="evenodd" clip-rule="evenodd" d="M14.8687 7.28565C14.8687 7.28565 14.7992 7.29953 14.5985 7.40352C14.3979 7.5075 14.2588 7.54051 14.1813 7.69348C14.1038 7.84645 14.0979 7.96772 14.0979 7.96772C14.0979 7.96772 14.235 7.90813 14.3145 7.88823C14.3979 7.86845 14.4913 7.87434 14.4813 7.90813C14.4718 7.9313 14.4585 7.95276 14.442 7.97165C14.442 7.97165 14.5992 7.96772 14.595 8.04525C14.5908 8.12279 14.5653 8.20818 14.5355 8.2459C14.5057 8.28519 14.3826 8.34333 14.3687 8.38904C14.3349 8.48242 14.3826 8.48635 14.3646 8.56179C14.3508 8.63539 14.2853 8.77841 14.0706 9.02868C13.8501 9.27909 13.7563 9.4559 13.7563 9.4559C13.7563 9.4559 13.649 9.25526 13.5934 9.08238C13.5541 9.10216 13.3431 9.21937 13.3431 9.21937L12.8543 7.5168L12.8642 7.40352C12.8642 7.40352 12.9079 7.34995 12.9178 7.25055C12.8444 7.22671 12.8344 7.2068 12.737 7.11356C12.6395 7.02031 12.5602 6.90689 12.3974 6.82936C12.3736 6.78561 12.3437 6.72616 12.2245 6.70219C12.1053 6.67822 12.0338 6.65858 12.0338 6.65858C12.0338 6.65858 12.0973 6.63461 12.1272 6.58497C12.0536 6.59493 11.9941 6.61876 11.8332 6.61483C11.6703 6.61077 11.6523 6.60488 11.563 6.61876C11.4737 6.63265 11.3666 6.67246 11.3266 6.53534C11.2829 6.50155 11.1895 6.53141 11.11 6.64849C11.0305 6.76558 11.0027 6.85909 10.8498 6.90479C10.839 6.97222 10.8154 7.03696 10.7802 7.09548C10.7365 7.16909 10.6669 7.24256 10.5735 7.35178C10.4265 7.52466 10.4503 7.80873 10.2159 8.02535C9.97949 8.24184 10.2552 7.42526 10.2552 7.42526L10.6326 6.52159L11.7075 5.47058L13.3764 5.35742L13.5393 6.2218L14.3539 6.50194L14.8685 7.28669L14.8687 7.28565Z" fill="#D3AE4D"/>
<path fill-rule="evenodd" clip-rule="evenodd" d="M15.1328 7.47611L14.4315 6.46492L13.9407 6.08735C13.9407 6.08735 13.5911 5.44378 13.5672 5.42387C13.5473 5.40999 13.2176 5.37423 13.007 5.36035L13.0463 5.45766C13.0922 5.47259 13.1331 5.50014 13.1641 5.53716C13.2575 5.64442 13.3171 5.84702 13.1045 6.06364C13.188 6.09337 13.2224 6.10293 13.2952 6.09337C13.2217 6.18086 13.0549 6.36761 13.0449 6.53053C13.035 6.6636 13.1184 6.70328 13.1184 6.70328C13.1184 6.70328 12.9912 6.85035 12.9854 7.09618C13.0454 7.02845 13.1111 6.96597 13.1818 6.90942C13.3289 6.79155 13.5315 6.65901 13.6686 6.57559C13.6667 6.6106 13.6714 6.64565 13.6825 6.67892C13.6825 6.67892 13.9387 6.46833 14.154 6.5617C14.2513 6.60545 14.2075 6.74257 14.2075 6.74257C14.2075 6.74257 14.3407 6.69293 14.4341 6.78631C14.5275 6.87969 14.6605 7.12001 14.7281 7.21352C14.7578 7.25727 14.8354 7.34069 14.9147 7.46969C15.0232 7.65052 15.1137 7.8415 15.1851 8.03992C15.189 7.96042 15.205 7.84923 15.3422 7.84923L15.1336 7.47572L15.1328 7.47611Z" fill="#CAA13E"/>
<path fill-rule="evenodd" clip-rule="evenodd" d="M4.61972 10.3488C4.61972 10.3488 4.57008 10.2256 4.61972 9.98524C4.66935 9.74492 4.74689 9.63163 4.77269 9.27802C4.79849 8.92441 5.02899 8.48332 5.02899 8.48332L5.66667 8.19336L6.11772 8.31647L6.25078 8.92049L5.68055 9.23481C5.68055 9.23481 5.65082 9.36787 5.48986 9.47513C5.3289 9.58239 5.10639 9.66582 5.05282 9.77517C5.0208 9.84214 4.99743 9.9129 4.98328 9.98577C4.98328 9.98577 4.82036 9.95198 4.72305 10.0592C4.61972 10.1686 4.62365 10.2659 4.61972 10.3493V10.3488Z" fill="#F4EFC8"/>
<path fill-rule="evenodd" clip-rule="evenodd" d="M5.90716 10.1883C5.90716 10.1883 5.85347 10.2221 5.81378 10.3062C5.77449 10.2427 5.68059 9.86512 5.67666 9.52539C5.67273 9.18566 5.65243 9.10145 5.73101 8.98437C5.80959 8.86728 6.11776 8.74391 6.07401 8.53306C6.03027 8.33242 5.84744 8.24899 5.62297 8.30662C5.46581 8.34591 5.34885 8.68013 5.18593 8.84698C5.06269 8.97415 4.91575 8.95424 4.87606 9.02379C4.82237 9.11717 4.872 9.21055 4.85616 9.27014C4.8521 9.29004 4.80246 9.3973 4.71301 9.52644C4.53228 9.78667 4.22634 10.1543 4.18652 10.4841C4.20041 10.2973 4.19058 10.2934 4.24022 10.0867L4.21036 10.0371L4.40681 9.39337L4.53398 8.86296L4.81818 7.97475L5.31873 7.06689L5.80553 6.52246L6.31211 6.55625L6.3717 7.31716L6.66179 8.74575L7.2717 9.49671L6.29417 10.1546L5.90677 10.1883H5.90716Z" fill="#EBCC73"/>
<path fill-rule="evenodd" clip-rule="evenodd" d="M6.21083 10.4576C6.21083 10.4576 6.1274 10.4775 6.09754 10.4616C6.06768 10.4458 6.03808 10.4278 6.04791 10.4079C6.05773 10.388 6.11143 10.3543 6.11143 10.3384C6.11253 10.3239 6.10796 10.3096 6.09869 10.2985C6.08943 10.2874 6.07619 10.2803 6.06179 10.2788C6.01608 10.2729 6.0022 10.3026 6.0022 10.3026C6.0022 10.3026 5.95846 10.269 5.92283 10.2633C5.94391 10.2607 5.96512 10.2594 5.98635 10.2593C5.93145 10.2344 5.87321 10.2177 5.81348 10.2096C5.86311 10.1799 5.96055 10.0924 6.02407 10.0924C6.08759 10.0924 6.1274 10.0826 6.11745 10.0488C6.1075 10.015 6.05786 9.96538 6.0043 9.94547C6.02407 9.92163 6.03808 9.88588 5.99041 9.78831C5.94064 9.691 5.96055 9.62538 5.97653 9.60168C5.99041 9.57182 6.04005 9.51825 6.06388 9.48446C6.08772 9.45067 6.10763 9.40497 6.14731 9.38113C6.16722 9.36725 6.23074 9.34184 6.29439 9.31761C6.36393 9.29378 6.42155 9.26391 6.46124 9.29377C6.50498 9.3235 6.48507 9.36332 6.48507 9.36332C6.48507 9.36332 6.6222 9.31355 6.7453 9.3772C6.86854 9.43666 7.16859 9.47451 7.16859 9.47451L7.27611 9.69113L6.56483 10.301L6.27081 10.4481L6.21122 10.4579L6.21083 10.4576Z" fill="#E5C66B"/>
<path fill-rule="evenodd" clip-rule="evenodd" d="M7.19826 9.46105C7.19826 9.46105 6.97771 9.60813 6.92808 9.6617C6.95781 9.66576 7.00744 9.68566 6.98754 9.71539C6.9637 9.74512 6.82068 9.84845 6.74119 9.94589C6.65776 10.0432 6.57827 10.1664 6.5505 10.226C6.52077 10.2796 6.2942 10.4366 6.2168 10.4564C6.37972 10.4564 6.70753 10.2558 6.83064 10.2558C6.82671 10.3153 6.86443 10.3829 6.93397 10.3888C7.00351 10.3947 7.20415 10.4326 7.47434 10.2657C7.74452 10.1028 7.6552 9.98152 7.76836 9.90215C7.98498 9.759 8.07233 9.63183 8.19151 9.55247C8.31069 9.4731 8.37238 9.45503 8.37238 9.45503C8.37238 9.45503 8.37631 9.39544 8.41167 9.40147C8.42135 9.40257 8.43054 9.40631 8.43825 9.41226C8.44596 9.41822 8.45189 9.42617 8.45541 9.43525C8.45541 9.43525 8.66208 9.28818 8.92689 9.2485C8.92071 9.24573 8.91577 9.24079 8.91301 9.23461C8.91301 9.23461 8.93278 9.22466 8.93684 9.21471C8.93684 9.21471 8.95073 9.1948 8.96068 9.20475C8.97063 9.21471 8.98452 9.28818 9.00442 9.31804C9.04817 9.29813 9.13159 9.11137 9.13159 9.11137L9.33236 8.53722V8.0127L9.1752 8.04256L7.9965 8.54311L7.28116 9.28425L7.19774 9.46105H7.19826Z" fill="#E6BD62"/>
<path fill-rule="evenodd" clip-rule="evenodd" d="M10.591 6.88784C10.6548 6.87237 10.7159 6.84757 10.7724 6.81424C10.7486 6.87789 10.7486 6.94743 10.6452 7.09843C10.5419 7.24944 10.538 7.27131 10.4545 7.42821C10.3711 7.59113 10.3612 7.82556 10.2817 7.92876C10.3173 7.91145 10.3555 7.90008 10.3948 7.8951C10.3948 7.8951 10.3155 7.96464 10.2817 8.03812C10.2479 8.11159 10.1883 8.26456 10.0413 8.35807C9.89439 8.45158 9.7075 8.51104 9.50686 8.73158C9.30609 8.94807 9.09956 9.22231 8.99609 9.32093C9.04979 9.22755 9.12326 9.04079 9.14317 8.91769C9.16308 8.79458 9.13911 8.64737 9.1729 8.48458C9.20669 8.32179 9.20669 8.20444 9.36935 7.92025C9.53201 7.63605 9.81044 6.64869 9.81044 6.64869L10.4104 6.45801L10.5913 6.88718L10.591 6.88784Z" fill="#B6933F"/>
<path fill-rule="evenodd" clip-rule="evenodd" d="M10.1584 6.52417C10.1584 6.52417 9.97762 6.78441 9.92798 7.01491C9.87835 7.24541 9.92392 7.2255 9.8942 7.33879C9.87641 7.40786 9.87641 7.48031 9.8942 7.54938C9.95679 7.44854 10.0425 7.36405 10.1442 7.3029C10.3151 7.1997 10.4542 7.1261 10.5371 7.03874C10.6205 6.94536 10.6901 6.79239 10.8708 6.67518C10.7973 6.66523 10.694 6.63144 10.6744 6.63589C10.748 6.55246 10.9684 6.42529 11.1909 6.27233C11.4114 6.11517 11.3976 6.05178 11.7552 5.89488C11.638 5.91479 11.5824 5.88493 11.4849 5.89488C11.5242 5.81145 11.6617 5.77164 11.7992 5.63465C11.9367 5.49766 11.7119 5.29492 11.7119 5.29492L10.6641 5.92867L10.1576 6.5247L10.1584 6.52417Z" fill="#C49937"/>
<path fill-rule="evenodd" clip-rule="evenodd" d="M7.31543 6.05149L7.33927 5.8608L7.63931 5.38002L7.95324 4.53568V3.38134L7.9294 2.7138L7.97904 2.27664L8.01676 2.13768L8.05657 2.08398L8.31274 2.21705L8.66648 2.69782L8.70027 3.62572L8.35648 5.08993L7.37502 6.16084L7.31543 6.05149Z" fill="#DFC068"/>
<path fill-rule="evenodd" clip-rule="evenodd" d="M8.09579 2.03031C8.09579 2.03031 7.93863 2.03437 7.9051 2.68803C7.87157 3.34168 7.85533 3.68534 7.8315 4.00922C7.80766 4.3331 7.75213 4.52968 7.72424 4.7205C7.69634 4.91132 7.68049 5.17142 7.59117 5.33041C7.55188 5.40388 7.46793 5.63438 7.27122 5.80726C7.05067 5.99795 6.72116 6.13114 6.67126 6.14109C6.58378 6.16087 6.14072 6.20461 5.95999 6.30402C5.89647 6.33781 5.78711 6.37749 5.66596 6.49078C5.42551 6.70726 5.10569 7.09466 4.87519 7.56156C4.52158 8.25896 4.16797 10.2278 4.16797 10.2278L4.24747 10.0947C4.24747 10.0947 4.25742 9.91791 4.43422 9.60791C4.6071 9.29804 4.55746 8.95033 4.79779 8.35626C4.89117 8.12982 5.00838 7.8358 5.1514 7.58539C5.37797 7.17809 5.65208 6.82841 5.92829 6.63772C6.37921 6.32785 6.87597 6.26027 6.87597 6.26027L7.41044 5.90666C7.41044 5.90666 7.50382 5.72593 7.62706 5.51927C7.7998 5.22931 8.01996 4.90542 8.06802 4.4346C8.14163 3.7372 7.96469 3.28026 7.97464 2.86706C7.9846 2.45386 7.98853 2.14989 8.07208 2.07628C8.15564 2.00268 8.09592 2.03058 8.09592 2.03058L8.09579 2.03031Z" fill="#A88F33"/>
<path fill-rule="evenodd" clip-rule="evenodd" d="M8.09621 5.14971C8.09621 5.14971 8.33195 4.56953 8.43987 4.05496C8.45977 3.95162 8.49946 3.84842 8.50941 3.765C8.55905 3.27819 8.57293 3.07755 8.50941 2.8113C8.45977 2.61485 8.26909 2.43778 8.16968 2.30053C8.07237 2.15738 8.02667 2.10408 8.04657 2.07396C8.06648 2.04383 8.14388 1.99459 8.21932 2.00048C8.29951 2.00282 8.37838 2.02144 8.45115 2.05521C8.52392 2.08898 8.58906 2.1372 8.6426 2.19693C8.79557 2.37374 8.91672 2.97383 8.91672 2.97383L9.04415 3.76565L9.36803 4.76296L8.09647 5.15049L8.09621 5.14971Z" fill="#C99E3D"/>
<path fill-rule="evenodd" clip-rule="evenodd" d="M10.3111 4.5456C10.3111 4.5456 10.2674 4.56538 10.188 4.5456C10.1914 4.57803 10.1858 4.61077 10.1717 4.64021C10.1577 4.66965 10.1358 4.69465 10.1085 4.71245C10.0251 4.67866 9.24412 4.74624 9.24412 4.74624C9.24412 4.74624 8.88056 4.68259 8.76727 4.20181C8.68791 3.88186 8.82686 3.4409 8.78116 3.1508C8.71161 2.72359 8.6143 2.64003 8.60435 2.5071C8.5944 2.37417 8.58444 2.34025 8.58444 2.25683C8.5407 2.24687 8.5149 2.23299 8.47129 2.23299C8.46134 2.1937 8.48111 2.15939 8.4375 2.08984C8.46134 2.0998 8.62426 2.1197 8.81495 2.30044C8.97211 2.44751 8.97211 2.50108 8.99581 2.53094C9.02554 2.56067 9.26599 2.76668 9.36933 2.97203C9.47266 3.17739 9.6733 3.83222 9.71901 3.93949C9.73289 3.98323 9.76275 4.02697 9.83688 4.12624C9.95213 4.26939 10.1209 4.50605 10.3116 4.54534L10.3111 4.5456Z" fill="#B58634"/>
<path fill-rule="evenodd" clip-rule="evenodd" d="M9.02441 2.54102C9.14477 2.73544 9.2529 2.93717 9.34816 3.14503C9.46538 3.40919 9.53492 3.62581 9.682 3.80262C9.6025 3.57225 9.46145 3.11923 9.37802 2.95828C9.28464 2.78802 9.09396 2.60467 9.02441 2.54115V2.54102Z" fill="#A88F33"/>
<path fill-rule="evenodd" clip-rule="evenodd" d="M7.67285 5.80775C7.67285 5.80775 7.47221 5.85738 7.09869 6.0541C6.97545 6.11761 6.85837 6.17118 6.74508 6.22095C6.4508 6.35401 6.13517 6.47699 5.88477 6.54483C5.90467 6.56866 5.9145 6.57849 5.9145 6.57849C5.9145 6.57849 5.9145 6.67593 5.96819 6.73146C5.93846 6.76132 5.54098 7.0315 5.65833 7.93543C5.73769 7.9057 5.83107 7.86589 5.84495 7.86589C5.86892 7.86995 5.87481 7.93543 5.90454 7.93543C5.93427 7.93543 6.03171 7.89614 6.13504 7.76256C6.13111 7.81625 6.07152 8.35662 6.39134 8.72018C6.45093 8.65064 6.60194 8.42014 6.60194 8.42014L6.60587 8.34667C6.60587 8.34667 6.61975 8.09037 6.70331 7.85594C6.78686 7.6215 6.94965 7.44863 6.94965 7.44863L7.79976 6.2347L7.67259 5.80762L7.67285 5.80775Z" fill="#E6C367"/>
<path fill-rule="evenodd" clip-rule="evenodd" d="M6.87806 7.58967C6.83914 7.61717 6.79626 7.63859 6.75089 7.65319C6.73701 7.60355 6.7171 7.43264 6.83432 7.26579C6.97144 7.06502 7.27135 6.80479 7.35478 6.59786C7.40848 6.46466 7.38464 6.13096 7.86149 5.70375C8.33834 5.27653 8.52497 5.12959 8.52497 5.12959L9.29584 4.74219L10.2435 5.11571L9.77269 6.96103L9.40716 7.82541L7.95343 7.5513L6.87793 7.58967H6.87806Z" fill="#DCBA5A"/>
<path fill-rule="evenodd" clip-rule="evenodd" d="M7.43262 7.08927L7.61348 6.86283V6.70187C7.61348 6.70187 7.81412 6.64817 8.03061 6.42762C8.2471 6.20708 8.54715 5.78392 8.81144 5.80972C9.07573 5.83958 9.10153 6.38388 9.11148 6.53698C9.12143 6.69008 9.15522 7.03754 9.20879 7.22443C9.26838 7.41119 8.56509 8.11841 8.56509 8.11841L8.08745 8.48197L7.43262 7.08927Z" fill="#E9CE77"/>
<path fill-rule="evenodd" clip-rule="evenodd" d="M7.99316 8.97468C7.99316 8.97468 8.14024 8.74418 8.03245 8.69454C8.09597 8.55153 8.21319 8.40052 8.21319 8.40052C8.21319 8.40052 8.29661 8.19399 8.56679 7.93965C8.83698 7.68531 9.00396 7.51637 9.0477 7.34559C9.07467 7.23429 9.08934 7.12036 9.09144 7.00586C9.12065 7.02972 9.1519 7.05098 9.18482 7.06938C9.22856 7.08928 9.4351 7.26007 9.40537 7.60385C9.37564 7.94764 9.24821 8.09066 9.24821 8.09066C9.24821 8.09066 9.1251 8.21377 9.03775 8.27741C8.94424 8.34093 8.91058 8.41441 8.75355 8.42043C8.76969 8.4076 8.78783 8.39751 8.80725 8.39057C8.80725 8.39057 8.64433 8.37079 8.55684 8.45016C8.46936 8.52953 8.28338 8.77404 8.19001 8.84764C8.09663 8.90723 7.99356 8.97481 7.99356 8.97481L7.99316 8.97468Z" fill="#CDAE50"/>
<path fill-rule="evenodd" clip-rule="evenodd" d="M14.5992 5.11015C14.3645 5.0246 14.1178 4.97634 13.8681 4.96713C13.4509 4.95325 12.841 4.97708 12.243 4.98101C11.5993 4.98494 11.0152 4.76046 10.2046 4.72078C10.0716 4.64128 9.73313 4.29357 8.67676 5.03065C8.74028 5.02672 9.4437 4.86773 9.68795 5.1738C9.9343 5.47777 9.86476 5.9943 9.8311 6.11741C9.76745 6.39166 9.56078 6.79097 9.47749 7.07111C9.39419 7.35125 9.41384 7.49846 9.35425 7.69491C9.29466 7.89136 9.16356 7.98893 9.24096 8.21537C9.34429 8.15185 9.39812 8.15185 9.57074 7.76445C9.74335 7.37705 9.70786 7.10084 9.99402 6.77303C10.2742 6.44326 10.7405 5.99221 10.9179 5.87892C11.0952 5.76563 12.5032 5.03458 13.9775 5.73198C14.3331 5.69426 14.5993 5.11001 14.5993 5.11001L14.5992 5.11015Z" fill="#D2A83E"/>
<path fill-rule="evenodd" clip-rule="evenodd" d="M9.27045 4.83974C9.26899 4.82481 9.26569 4.81012 9.26063 4.796C9.24684 4.76695 9.22874 4.74014 9.20693 4.7165C9.20693 4.7165 8.85725 4.65299 8.68044 4.67276C8.37044 4.70655 8.0903 5.09002 7.9592 5.28673C7.82811 5.48345 7.66518 5.78729 7.48838 5.94432C7.49031 5.92902 7.48679 5.91353 7.47842 5.90058C7.47842 5.90058 7.48838 5.91446 7.4686 5.93437C7.44882 5.95427 7.44869 5.9641 7.45865 5.97366L7.48851 6.00339C7.49833 6.00339 7.77258 5.88015 8.14609 5.53191C8.54345 5.16834 8.84742 4.98184 9.00642 4.91793C9.09121 4.8819 9.17984 4.85567 9.27058 4.83974H9.27045Z" fill="#C29637"/>
<path fill-rule="evenodd" clip-rule="evenodd" d="M16.053 3.3457C16.053 3.3457 15.9893 3.42507 15.9098 3.51255C15.733 3.69931 15.5025 3.90978 15.3058 4.12639C15.1192 4.33306 14.9086 4.49402 14.6721 4.7642C14.4356 5.03439 14.1613 5.3343 14.0919 5.42179C14.0284 5.50927 13.9787 5.65229 13.9787 5.72576C13.945 5.70192 13.9053 5.67612 13.9053 5.67612C13.922 5.70731 13.942 5.73664 13.9649 5.76361C14.0145 5.83315 14.0919 5.92077 14.1317 5.9742C14.1806 6.04223 14.2156 6.11915 14.2349 6.20064C14.2588 6.20457 14.4117 6.23443 14.6025 5.92051C14.7934 5.60658 15.0435 5.26292 15.0435 5.26292L15.4409 4.67279L15.6913 4.17223L16.0056 3.61196L16.0534 3.3457H16.053Z" fill="#AC8132"/>
<path fill-rule="evenodd" clip-rule="evenodd" d="M16.4607 2.94434C16.4607 2.94434 16.2202 3.14079 16.1268 3.25866C16.0334 3.37653 15.8125 3.68587 15.8125 3.68587L15.892 3.67592L16.2954 3.31838L16.4525 3.03824L16.4605 2.94486L16.4607 2.94434Z" fill="#A88F33"/>
<path fill-rule="evenodd" clip-rule="evenodd" d="M16.3868 18.733C16.3868 18.733 16.3829 18.5701 16.4743 18.4728C16.5677 18.3754 16.8041 18.2323 17.0346 17.6959C17.2651 17.1595 17.2907 17.0383 17.2907 17.0383C17.2907 17.0383 16.8775 17.3919 16.6228 17.4754C16.6824 17.3521 16.7162 17.2648 16.746 17.2011C16.7122 17.1714 16.5692 17.1376 16.5553 17.1217C16.6347 17.0422 16.6785 16.8475 16.8394 16.7184C17.0461 16.5612 17.4235 16.2912 17.7169 16.0504C18.0103 15.8097 18.587 15.2498 18.6606 15.0869C18.7044 15.1504 18.7142 15.1901 18.7142 15.1901C18.7142 15.1901 18.4242 15.5677 18.2732 15.808C18.14 16.0147 18.15 16.1319 18.15 16.1319L18.4242 16.014C18.4242 16.014 18.5036 16.308 18.1441 16.7552C18.3013 16.6956 18.3646 16.7313 18.454 16.6816C18.3069 16.7751 18.1043 16.9022 17.9136 17.2518C17.7268 17.6015 17.4725 18.0088 17.0435 18.263C16.6262 18.5312 16.3857 18.7318 16.3857 18.7318L16.3868 18.733Z" fill="#A67A2E"/>
<path fill-rule="evenodd" clip-rule="evenodd" d="M15.31 5.31714C15.31 5.31714 15.147 5.65673 15.1232 5.92102C15.1193 5.98467 15.1033 6.03431 15.1033 6.10778C15.0994 6.34417 15.1172 6.60846 15.064 6.73157C15.0441 6.68194 15.0341 6.64815 15.0142 6.62837C14.9845 6.7118 14.9308 6.97203 14.8871 7.06933C14.8673 7.00582 14.8235 6.78527 14.8276 6.52504C14.8317 6.26481 14.8374 6.21504 14.8374 6.16148C14.8276 6.24084 14.7739 6.34823 14.754 6.41175C14.7243 6.35819 14.6905 6.28864 14.6507 6.23102C14.6268 6.27031 14.5971 6.32833 14.5713 6.35819C14.5672 6.33435 14.5574 6.2707 14.5514 6.18138C14.5475 6.07805 14.5414 5.94499 14.5475 5.91709C14.5573 5.86353 14.6409 5.65293 14.8177 5.46015C15.0282 5.22965 15.2449 4.78672 15.3084 4.6496C15.3719 4.51248 15.6421 3.94238 15.6421 3.94238H15.8487L15.5487 4.62577C15.5487 4.62577 15.368 4.99928 15.2746 5.13653C15.1812 5.27379 14.9845 5.66708 14.897 5.82005C14.9605 5.73662 15.0142 5.69288 15.0779 5.61338C15.1394 5.55772 15.3102 5.3174 15.3102 5.3174L15.31 5.31714Z" fill="#8C6228"/>
<path fill-rule="evenodd" clip-rule="evenodd" d="M16.464 2.91895C16.4302 3.02284 16.3769 3.11932 16.3068 3.20314C16.1836 3.35022 15.9193 3.5468 15.7903 3.7037C15.6724 3.85667 15.4367 4.27393 15.5438 4.76859C15.5831 4.66133 15.6571 4.44877 15.8538 4.20831C16.0505 3.96786 16.2611 3.69178 16.3646 3.47726C16.4678 3.26064 16.4817 3.08986 16.4817 3.08986L16.521 3.04022L16.4971 2.92693L16.4633 2.91895H16.464Z" fill="#CBA94C"/>
<path fill-rule="evenodd" clip-rule="evenodd" d="M20.4876 16.0965C20.4876 16.0965 20.4081 15.88 20.3843 15.6833C20.3605 15.4866 20.4236 15.4476 20.3505 15.2225C20.3068 15.0853 20.2274 15.1046 20.2075 15.0853C20.1876 15.0661 20.1737 14.8589 20.1776 14.7456C20.1816 14.6323 20.1737 14.4854 20.1538 14.4217C20.1241 14.3979 20.1042 14.378 20.0604 14.2311C20.0108 14.084 19.987 14.0105 19.9631 13.9669C19.9393 13.9233 19.8696 13.8835 19.8696 13.8397C19.8696 13.7522 19.9491 13.7067 19.9491 13.6826C19.9452 13.6329 19.8856 13.6727 19.8696 13.6587C19.8498 13.6349 19.9194 13.4919 19.8936 13.472C19.8836 13.4621 19.8141 13.5456 19.7961 13.5217C19.7762 13.4978 19.7524 13.2614 19.7166 13.1045C19.683 12.9515 19.6471 12.8403 19.6432 12.7946C19.6392 12.7509 19.3689 11.98 19.3034 11.7932C19.2507 11.6354 19.2063 11.475 19.1704 11.3125C19.1505 11.2191 19.1366 11.0283 19.1266 11.0482C19.1167 11.0681 19.1227 11.1654 19.1067 11.1615C19.0928 11.1574 19.0432 10.8178 19.0274 10.7641C19.0135 10.7104 18.9299 10.5284 18.9095 10.3966C18.8896 10.2634 18.846 9.91571 18.8161 9.67931C18.7863 9.44292 18.7724 9.34561 18.7724 9.28641C18.7773 9.14162 18.7693 8.99669 18.7485 8.85331C18.7092 8.6029 18.6307 8.29893 18.5618 8.12225C18.4287 7.78842 18.075 6.93413 18.0117 6.72157C18.0117 6.66787 18.0813 6.69773 18.0813 6.69773C18.0813 6.69773 18.254 7.13084 18.3812 7.46454C18.5044 7.79837 18.6216 8.09239 18.6515 8.12225C18.6753 8.15198 18.8621 8.47979 18.9455 9.01623C19.0289 9.55267 19.0587 10.0473 19.1084 10.3771C19.1323 10.5343 19.1522 10.701 19.2018 10.8678C19.2554 11.0487 19.3388 11.2355 19.4482 11.5215C19.5415 11.7619 19.6111 11.9626 19.6488 12.1355C19.6925 12.356 19.6925 12.5229 19.7183 12.6322C19.7423 12.7256 19.7779 12.9122 19.8615 13.1823C19.9451 13.4523 20.068 13.8002 20.1515 14.0167C20.3145 14.4498 20.3872 14.8114 20.4118 15.0041C20.4336 15.2028 20.5072 15.8903 20.4873 16.0968L20.4876 16.0965Z" fill="#A88F33"/>
<path fill-rule="evenodd" clip-rule="evenodd" d="M16.474 2.89465L16.464 2.91848C16.464 2.91848 16.4938 2.92843 16.4879 2.96825C16.4883 3.02272 16.485 3.07716 16.4779 3.13117C16.4681 3.20071 16.4482 3.25428 16.4443 3.29802C16.4443 3.3914 16.4582 3.49866 16.3264 3.76492C16.2871 3.83839 16.2629 3.90191 16.243 3.94565C16.1933 4.05292 16.1834 4.06889 16.1396 4.11853C16.2092 4.07924 16.4596 3.92208 16.5866 3.94565C16.4993 3.99529 16.3661 4.09273 16.2827 4.2199C16.3026 4.22383 16.386 4.2398 16.5184 4.2199C16.7389 4.18611 16.9853 4.10661 17.2018 4.12246C17.4383 4.13634 17.3449 3.83839 17.3449 3.83839L17.072 3.23843L16.5555 2.875L16.474 2.89478V2.89465Z" fill="#BE9C44"/>
<path fill-rule="evenodd" clip-rule="evenodd" d="M17.8216 7.38928C17.8216 7.38928 17.5911 7.15878 17.4977 6.36774C17.4043 5.57303 17.4242 4.40324 17.4242 4.40324L17.2375 3.9463C17.2375 3.9463 17.1982 3.64232 17.1004 3.52917C17.0025 3.41601 16.8104 3.22519 16.7229 3.13182C16.6354 3.03844 16.5362 2.91127 16.4766 2.89136C16.5063 2.84172 16.6395 2.56159 17.15 2.55766C17.6605 2.55373 17.8179 2.8378 17.8712 2.94113C17.9245 3.04446 18.1652 3.49119 18.2546 4.34247C18.338 5.19271 18.3421 5.25636 18.3282 5.55038C18.3182 5.7133 18.2645 6.09074 18.171 6.49399C18.0856 6.83581 17.9922 7.21732 17.8213 7.39007L17.8216 7.38928Z" fill="#A17C34"/>
<path fill-rule="evenodd" clip-rule="evenodd" d="M17.0984 8.06627C17.1753 8.07181 17.252 8.0545 17.319 8.0165C17.3925 8.01257 17.6587 8.04636 17.8633 7.78613C17.8772 7.84559 17.9131 8.00668 17.8196 8.1497C17.8693 8.09993 17.9428 8.08015 17.9528 8.06627C17.9567 8.13974 18.0262 8.36618 17.7322 8.9165C17.8116 8.82915 17.905 8.83308 17.9884 8.82312C17.9924 8.92646 18.048 9.27404 17.901 9.46093C17.8037 9.5881 17.6447 9.54828 17.6447 9.54828C17.647 9.52052 17.647 9.49262 17.6447 9.46486C17.6408 9.41116 17.6209 9.3576 17.6349 9.32184C17.5581 9.28675 17.4881 9.23828 17.4282 9.1787C17.2554 9.01578 17.0309 8.73773 17.015 8.53107C16.9951 8.30057 17.2018 8.25093 17.2018 8.25093C17.1845 8.23544 17.1697 8.21732 17.158 8.19724C17.1481 8.16358 17.1381 8.10988 17.0984 8.06627Z" fill="#8C6228"/>
<path fill-rule="evenodd" clip-rule="evenodd" d="M15.5664 5.56695C15.5664 5.56695 15.5565 5.55307 15.5029 5.61659C15.5129 5.55307 15.5228 5.49335 15.5268 5.43572C15.5521 5.38237 15.5849 5.3329 15.6242 5.28878C15.5943 5.34824 15.5744 5.40193 15.5744 5.40193C15.5744 5.40193 15.648 5.26481 15.7553 5.18139C15.8288 5.1218 15.9222 5.09403 15.9618 5.03837C16.0056 4.97878 15.9956 4.96883 16.0056 4.95887C16.0056 4.95887 16.103 4.89536 16.2521 4.70847C16.2718 4.68463 16.3017 4.65883 16.3216 4.63499C16.3553 4.62111 16.4348 4.58536 16.5281 4.53755C16.6256 4.48399 16.7348 4.41052 16.8024 4.38039C16.9354 4.32081 17.0766 4.32683 17.1421 4.23332C17.1917 4.21944 17.2453 4.0704 17.2355 3.94336C17.3089 3.97309 17.6864 4.20752 17.8157 4.72012C17.909 5.08369 17.7421 5.64396 17.6725 5.91428C17.603 6.18459 17.5931 6.3851 17.4957 6.50821C17.3725 6.67126 16.9752 6.90111 16.8778 7.01492C16.7944 7.1083 16.5441 7.34469 16.5539 7.51547C16.5639 7.64264 16.7208 7.71192 16.7547 7.73602C16.7886 7.76012 16.7884 7.78972 16.852 7.77531C16.9157 7.76091 16.9394 7.73157 16.9653 7.73157C16.995 7.7355 16.995 7.74152 17.0089 7.74152C17.019 7.74122 17.029 7.73986 17.0388 7.73746C17.0388 7.73746 17.0288 7.91833 16.6057 7.9732C16.5758 7.97726 16.5461 7.98708 16.5082 7.99311C16.558 7.96927 16.5877 7.96927 16.6414 7.8958C16.5818 7.88585 16.4109 7.87589 16.3672 7.86201C16.3811 7.83818 16.4268 7.77453 16.4645 7.7448C16.4983 7.71507 16.4606 7.70551 16.4308 7.72096C16.3796 7.75578 16.3305 7.79357 16.2837 7.83412C16.2341 7.87786 16.1904 7.93745 16.1109 7.99128C16.087 7.91178 16.091 7.76077 16.1845 7.65155C16.1605 7.65548 16.1148 7.72502 16.0712 7.71114C16.0633 7.63867 16.068 7.56539 16.0851 7.49452C16.1089 7.40507 16.238 7.24817 16.238 7.24817L16.8618 6.13351L16.9949 5.28917L15.5664 5.56669V5.56695Z" fill="#92723A"/>
<path fill-rule="evenodd" clip-rule="evenodd" d="M15.5321 5.6145C15.5321 5.6145 15.4984 5.63833 15.5659 5.68404C15.556 5.69792 15.5321 5.74756 15.5023 5.78135C15.4686 5.82064 15.4327 5.845 15.4189 5.87879C15.3891 5.94833 15.3653 5.996 15.3653 6.02586C15.3653 6.05573 15.3553 6.24641 15.2719 6.36952C15.242 6.41326 15.2083 6.48674 15.1844 6.53637C15.1348 6.62373 15.091 6.69353 15.0811 6.73282C15.0613 6.80237 15.0474 6.99305 15.0474 6.99305C15.0474 6.99305 15.0912 6.93936 15.107 6.91958C15.0831 6.96922 15.0573 7.02278 15.0195 7.0626C15.0434 7.04269 15.1129 6.99305 15.2301 6.88972C15.3931 6.75273 15.6474 6.52223 15.9574 6.33966C15.8639 6.37345 15.7845 6.37345 15.721 6.3834C15.7706 6.33377 16.2176 5.80925 16.4521 5.75961C16.4663 5.74156 16.4734 5.7189 16.472 5.69596L16.2712 5.67618L15.8639 5.76354L15.8044 5.44922L15.5321 5.61411V5.6145Z" fill="#B18E3E"/>
<path fill-rule="evenodd" clip-rule="evenodd" d="M16.1806 7.40301C16.1806 7.40301 16.1269 7.45657 16.0773 7.58977C16.0391 7.54986 16.0063 7.50508 15.9798 7.45657C15.9064 7.33346 15.7932 7.17644 15.5289 7.26589C15.525 7.18246 15.519 7.13872 15.5289 7.07913C15.5727 7.0693 15.7057 6.96204 15.8388 6.80501C15.9323 6.69775 16.0197 6.57451 16.0792 6.41761C16.1185 6.38775 16.1865 6.33812 16.2757 6.28049C16.4029 6.19314 16.5558 6.07383 16.5797 5.94077C16.5201 5.9646 16.3929 6.02419 16.2021 6.01437C16.2757 5.98058 16.3888 5.94483 16.375 5.79775C16.4048 5.77784 16.4287 5.76396 16.4287 5.76396C16.4063 5.75649 16.3827 5.75312 16.3591 5.75401C16.3551 5.74012 16.3492 5.72035 16.3154 5.73017C16.2816 5.73999 16.2761 5.74012 16.2716 5.75401C16.2577 5.75807 16.212 5.75401 16.1783 5.77797C16.1445 5.80194 16.0511 5.88118 16.0153 5.89506C16.0292 5.87122 16.049 5.8356 16.049 5.8356C16.049 5.8356 15.9517 5.84542 15.8821 5.87489C15.755 5.91863 15.608 5.99813 15.459 6.07553C15.4729 6.05169 15.4789 6.03624 15.4887 6.03179C15.4985 6.02733 15.5225 6.02196 15.5225 6.0179C15.5225 6.01384 15.5127 5.97861 15.5186 5.96434C15.5631 5.86994 15.6157 5.77955 15.6757 5.69416C15.7453 5.60065 15.7592 5.46758 15.7592 5.46758L16.0631 5.31461L16.9174 5.11816L17.4718 5.15195L17.4023 5.53542L17.0749 6.20493L16.7947 6.81484L16.4748 7.18848L16.1807 7.40301H16.1806Z" fill="#543E26"/>
<path fill-rule="evenodd" clip-rule="evenodd" d="M17.5649 5.74322C17.5649 5.74322 17.231 6.15642 17.1376 6.22007C17.1972 6.0929 17.5649 5.33592 17.6979 5.12532C17.6682 5.10149 17.6284 5.10149 17.7218 4.73242C17.6424 4.91905 17.6145 5.01649 17.549 5.06612C17.4835 5.11576 17.4754 5.09991 17.4311 5.09991C17.4395 5.08479 17.4429 5.06744 17.441 5.05028C17.441 5.05028 17.1608 5.01649 16.9695 5.01649C16.7781 5.01649 16.3994 5.11982 16.1887 5.20325C16.0218 5.27279 15.9284 5.27279 15.8688 5.3164C15.8093 5.36604 15.7755 5.41973 15.7456 5.43362C15.7218 5.4475 15.6086 5.48325 15.5827 5.52097C15.5589 5.56026 15.5192 5.6044 15.5192 5.61435C15.5192 5.6243 15.5092 5.63832 15.5391 5.62823C15.5489 5.6243 15.6225 5.58449 15.7059 5.53485C15.8191 5.47134 15.9562 5.39786 16.0556 5.35412C16.3397 5.24083 16.4291 5.26074 16.5562 5.23691C16.6892 5.21307 16.88 5.15741 17.0071 5.15741C17.1342 5.15348 17.3747 5.15741 17.4304 5.16736C17.4065 5.18727 17.3866 5.2111 17.3966 5.29453C17.3966 5.31837 17.3767 5.34417 17.3573 5.40179C17.2978 5.56471 17.1845 5.8349 17.1215 5.97202C17.0342 6.15865 16.9349 6.31568 16.8858 6.41299C16.8367 6.51029 16.7286 6.7666 16.6216 6.90372C16.5146 7.04084 16.4587 7.12426 16.4252 7.15413C16.3917 7.18399 16.1509 7.36066 16.1689 7.42431C16.2126 7.41043 16.4888 7.30644 16.6893 7.08065C16.8899 6.85487 16.9298 6.71709 17.0867 6.59385C17.2436 6.47061 17.3668 6.26408 17.4403 6.0933C17.5019 5.9343 17.488 5.88467 17.5654 5.74362L17.5649 5.74322Z" fill="#806031"/>
<path fill-rule="evenodd" clip-rule="evenodd" d="M10.3707 8.8269C10.3707 8.8269 10.3269 9.00763 10.2275 9.09708C10.1302 9.18457 9.95733 9.26001 9.93755 9.40708C9.91371 9.55403 10.1104 9.62763 10.1104 9.62763C10.1104 9.62763 10.003 9.80444 10.003 9.9375C10.003 10.0746 9.99911 10.1004 10.013 10.2315C9.99723 10.2417 9.98383 10.2551 9.9737 10.2708C9.9737 10.2708 9.98352 10.398 10.081 10.4773C10.1784 10.5567 10.2617 10.6045 10.3113 10.5846C10.3189 10.6008 10.3256 10.6174 10.3312 10.6344C10.3312 10.6344 10.4048 10.4476 10.4545 10.2847C10.5041 10.1178 10.5479 10.1415 10.5676 9.91707C10.5874 9.69259 10.8034 9.30716 10.8034 9.30716L10.9507 8.97777L10.7104 8.79102L10.3707 8.82677V8.8269Z" fill="#B6903C"/>
<path fill-rule="evenodd" clip-rule="evenodd" d="M10.818 9.15137C10.7685 9.20224 10.7227 9.2567 10.6812 9.31429C10.6176 9.40178 10.568 9.48114 10.4746 9.51506C10.3812 9.54898 10.3217 9.54872 10.3275 9.64223C10.3334 9.73574 10.4209 9.77529 10.4706 9.82296C10.5243 9.8726 10.568 9.95603 10.5442 10.0495C10.5739 10.0357 10.6276 10.0197 10.6772 9.91241C10.7269 9.80515 11.0741 9.1515 11.0741 9.1515H10.818V9.15137Z" fill="#685026"/>
<path fill-rule="evenodd" clip-rule="evenodd" d="M12.1871 7.64287C12.1871 7.64287 12.2168 7.5635 12.1871 7.50588C12.1572 7.44629 11.9765 7.42638 11.8871 7.3588C11.7937 7.28926 11.6804 7.24093 11.587 7.27145C11.6009 7.23766 11.6566 7.16406 11.6108 7.14821C11.5671 7.13433 11.4043 7.2078 11.3606 7.24159C11.3168 7.27538 11.2174 7.31506 11.1976 7.33903C11.1779 7.36299 11.144 7.40857 11.124 7.38866C11.1041 7.37478 11.0943 7.33903 11.0605 7.3588C11.0267 7.37858 10.8641 7.51177 10.8341 7.5893C10.8041 7.66684 10.7366 7.83971 10.534 8.03629C10.3314 8.23287 10.2439 8.36017 10.3035 8.43364C10.3631 8.50712 10.391 8.45355 10.401 8.51707C10.4086 8.57942 10.4053 8.64264 10.391 8.70383C10.3672 8.80716 10.3275 8.90447 10.3811 8.92437C10.5182 8.96812 10.6514 8.88508 10.6811 8.91049C10.7407 8.96406 10.6473 9.15684 10.7884 9.19456C10.9315 9.23385 11.0726 9.16077 11.0726 9.16077L11.593 8.88063L12.0937 8.61647L12.3499 8.10976L12.2125 7.68661L12.1863 7.64287H12.1871Z" fill="#D4B968"/>
<path fill-rule="evenodd" clip-rule="evenodd" d="M11.6967 8.85283C11.6967 8.85283 11.6092 8.71977 11.7166 8.60242C11.824 8.48508 11.9768 8.43557 12.0364 8.3621C12.0251 8.34811 12.0098 8.33777 11.9927 8.33237C12.0322 8.26159 12.0926 8.20467 12.1655 8.16932C12.1358 8.13959 12.096 8.11575 12.0524 8.11575C11.9549 8.11575 11.8952 8.17534 11.8059 8.17534C11.7186 8.17534 11.7086 8.1316 11.7086 8.1316C11.7086 8.1316 11.8557 8.11772 11.8417 8.0521C11.8278 7.98256 11.8024 7.98256 11.8024 7.98256C11.8024 7.98256 12.0864 7.86469 12.1361 7.80182C12.1857 7.73896 12.1798 7.6647 12.1898 7.63497C12.2234 7.63497 12.4201 7.53164 12.4996 7.57538C12.5791 7.61913 12.5235 7.73831 12.5235 7.73831C12.5235 7.73831 12.7641 7.55744 12.8866 7.38011C12.9939 7.39007 13.0438 7.30664 13.1224 7.30664C13.2198 7.30664 13.3728 7.4397 13.4025 7.72377C13.4224 7.88669 13.4522 7.98007 13.4224 8.2682C13.4085 8.43112 13.4125 8.77896 13.4617 8.95158C13.4954 9.0887 13.5749 9.07482 13.5749 9.07482C13.5627 9.1166 13.5385 9.15389 13.5053 9.18208C13.4516 9.23172 13.4457 9.36294 13.4516 9.41258C13.4596 9.44887 13.4695 9.48468 13.4815 9.51984C13.4815 9.51984 13.418 9.59331 13.402 9.64308C13.3881 9.69272 13.3226 9.72651 13.2748 9.72651C13.227 9.72651 13.251 9.72245 13.1875 9.72651C13.124 9.73057 13.104 9.74039 13.0642 9.72651C13.0244 9.71262 12.9947 9.69665 13.0107 9.56935C13.0246 9.44218 12.5199 9.14619 12.5199 9.14619L11.6948 8.85218L11.6967 8.85283Z" fill="#CCA849"/>
<path fill-rule="evenodd" clip-rule="evenodd" d="M10.7487 10.1088C10.7487 10.1088 10.9294 10.3493 11.6725 10.3493C12.0262 10.3493 12.1494 10.3155 12.2226 10.2956C12.3021 10.2757 12.6001 10.1586 12.9001 9.80483C13.1703 9.48501 13.1107 9.35391 13.1107 9.35391L12.9535 9.33008L12.4428 9.39962L10.9314 10.0433L10.748 10.1088H10.7487Z" fill="#585136"/>
<path fill-rule="evenodd" clip-rule="evenodd" d="M11.3029 10.1678C11.3029 10.1678 10.6592 10.3109 10.6592 9.90363C10.6592 9.50628 11.0565 9.08903 11.1559 9.01556C11.2593 8.94195 11.5056 8.8584 11.5056 8.8584H12.0997L12.2128 9.15844L12.1632 9.80606L11.3029 10.1677V10.1678Z" fill="#252211"/>
<path fill-rule="evenodd" clip-rule="evenodd" d="M11.8971 8.97991C11.8971 8.97991 11.774 8.86662 11.4939 9.0192C11.2137 9.17178 10.9871 9.49068 10.9733 9.78025C10.9594 10.0364 11.1839 10.2272 11.5335 10.2372C11.7938 10.247 11.9508 10.2173 12.0303 10.1979C12.0104 10.1741 11.9071 10.0449 11.9071 10.0449L11.8972 8.98004L11.8971 8.97991Z" fill="#C3B378"/>
<path fill-rule="evenodd" clip-rule="evenodd" d="M11.776 9.04404C11.776 9.04404 11.7462 9.02021 11.6581 9.06788C11.5846 9.10717 11.4774 9.21103 11.3939 9.2845C11.3402 9.32824 11.3064 9.34802 11.2761 9.3818C11.1528 9.52888 11.0495 9.76933 11.1092 9.88851C11.1689 10.0077 11.3655 10.1448 11.8662 10.0514L11.7745 9.04418L11.776 9.04404Z" fill="#E6D89C"/>
<path fill-rule="evenodd" clip-rule="evenodd" d="M11.6124 9.28988C11.6124 9.28988 11.5329 9.41312 11.5329 9.60983C11.5329 9.81047 11.6462 10.1303 12.0634 10.1541C12.3832 10.174 12.5978 9.69326 12.8302 9.5065C13.007 9.36348 13.1143 9.35942 13.1143 9.35942C13.1143 9.35942 12.9336 9.16297 12.4508 8.9085C11.974 8.6522 11.4395 8.61841 11.1494 9.01184C11.2865 9.00188 11.7296 8.8886 11.7296 8.8886L11.9462 8.95814L11.6124 9.29001V9.28988Z" fill="#252211"/>
<path fill-rule="evenodd" clip-rule="evenodd" d="M12.236 9.55028C12.2221 9.52055 12.2122 9.48074 12.2698 9.47092C12.3274 9.46109 12.3532 9.46686 12.3731 9.51021C12.393 9.55356 12.4124 9.5897 12.3829 9.60765C12.3532 9.62349 12.2757 9.60764 12.2359 9.55002L12.236 9.55028ZM12.1426 9.27015C12.1426 9.27015 12.1227 9.28403 12.1327 9.25626C12.1366 9.2226 12.1625 9.16288 12.226 9.1769C12.2896 9.19091 12.2758 9.26032 12.2653 9.28023C12.2549 9.30014 12.2018 9.33379 12.162 9.31952C12.157 9.31823 12.1523 9.31577 12.1484 9.31233C12.1445 9.3089 12.1414 9.30459 12.1395 9.29975C12.1375 9.29492 12.1367 9.28969 12.1372 9.2845C12.1377 9.27931 12.1393 9.2743 12.1421 9.26988L12.1426 9.27015Z" fill="#6F674D"/>
<path fill-rule="evenodd" clip-rule="evenodd" d="M6.76562 9.3976C6.76562 9.3976 6.92278 9.51547 7.10535 9.51088C7.28609 9.50682 7.51855 9.3202 7.62581 9.20088C7.68933 9.13134 7.74368 9.05787 7.80262 9.00024C7.85239 8.95061 7.88604 8.92677 7.90988 8.89298C7.94367 8.85369 7.97942 8.77983 7.99737 8.75586C7.95362 8.78965 7.8901 8.84937 7.82449 8.88905C7.76097 8.92834 7.62385 9.00221 7.56819 9.02212C7.51462 9.04202 6.95828 9.33644 6.95828 9.33644L6.76562 9.3976Z" fill="#AC924C"/>
<path fill-rule="evenodd" clip-rule="evenodd" d="M7.00586 7.9287C7.00586 7.9287 7.09321 7.86911 7.26216 7.83126C7.42508 7.79197 7.75289 7.76172 7.75289 7.76172L8.02308 7.87959L8.13034 8.2869L7.93389 8.71018L7.68361 8.86734L7.39941 8.4104L7.00651 7.92949L7.00586 7.9287Z" fill="#9F8E57"/>
<path fill-rule="evenodd" clip-rule="evenodd" d="M6.6521 8.29255L6.55859 8.36236C6.55859 8.36236 6.58256 8.31862 6.60234 8.18555C6.62211 8.05249 6.72558 7.72861 6.87658 7.54185C7.02759 7.35509 7.02366 7.36504 7.02366 7.36504C7.00976 7.3625 6.99548 7.36295 6.98178 7.36636C6.96807 7.36977 6.95525 7.37606 6.94416 7.38482C6.96407 7.34081 7.09124 7.18365 7.2184 7.10507C7.34557 7.02649 7.39521 7.00174 7.52827 7.06578C7.66133 7.12983 7.69512 7.16309 7.79256 7.15916C7.89 7.15523 7.9733 7.0519 7.9733 7.0519C7.9733 7.0519 7.9932 7.11542 7.91973 7.2625C7.84626 7.40957 7.55617 7.70949 7.55617 7.70949L6.95215 8.12269L6.6521 8.29295V8.29255Z" fill="#EAC970"/>
<path fill-rule="evenodd" clip-rule="evenodd" d="M7.09916 7.87926C7.09916 7.87926 7.53632 7.93885 7.66939 7.81574C7.67331 7.82963 7.68929 7.82963 7.68929 7.83958C7.68822 7.84708 7.68473 7.85403 7.67934 7.85935C7.69381 7.85705 7.70843 7.85573 7.72308 7.85543C7.74058 7.86063 7.75858 7.86397 7.77678 7.86538C7.79144 7.86506 7.80605 7.86371 7.82052 7.86132C7.81914 7.87119 7.81578 7.88069 7.81065 7.88924C7.80552 7.89779 7.79872 7.90522 7.79066 7.91109C7.81057 7.91109 7.82995 7.91502 7.82995 7.93086C7.82995 7.94671 7.83388 7.99451 7.81004 8.00447C7.7903 8.00993 7.76928 8.00849 7.75045 8.00041C7.75203 8.03802 7.76225 8.07477 7.78031 8.1078C7.8196 8.18127 7.90342 8.26496 8.01605 8.24086C8.01605 8.24086 8.07551 8.38388 7.82524 8.70173C7.79158 8.74547 7.75569 8.80506 7.71208 8.8547C7.69485 8.89226 7.68168 8.93156 7.67279 8.97192C7.67279 8.97192 8.09607 8.80899 8.21722 8.43744C8.34046 8.06392 8.36429 7.69643 8.34046 7.35278C8.3364 7.25534 8.32055 7.18592 8.29672 7.13616C8.23713 7.01292 8.07014 7.03282 8.0027 7.10237C7.90526 7.19981 7.74233 7.4421 7.51589 7.60895C7.28539 7.7758 7.27557 7.8054 7.09863 7.87926H7.09916Z" fill="#D7BC6B"/>
<path fill-rule="evenodd" clip-rule="evenodd" d="M6.57407 8.41558C6.57407 8.41558 6.49064 8.46522 6.4469 8.65132C6.40316 8.84201 6.48619 9.07447 6.53426 9.14795C6.58232 9.22142 6.69142 9.42219 6.91773 9.43214C6.97375 9.43185 7.02914 9.42036 7.08066 9.39835C7.15966 9.36213 7.23377 9.31605 7.30121 9.26123C7.39865 9.18776 7.47802 9.12424 7.46806 9.11822C7.44423 9.10826 6.8681 8.63141 6.8681 8.63141L6.65147 8.38965L6.57394 8.41584L6.57407 8.41558Z" fill="#585136"/>
<path fill-rule="evenodd" clip-rule="evenodd" d="M7.11899 9.20682C7.11899 9.20682 7.2362 9.19699 7.30575 9.15325C7.37529 9.10951 6.89844 8.63672 6.89844 8.63672L6.93223 9.14749L7.11899 9.20682Z" fill="#453A25"/>
<path fill-rule="evenodd" clip-rule="evenodd" d="M6.61234 8.37967C6.61234 8.37967 6.55275 8.49295 6.55275 8.52281C6.54279 8.62012 6.57266 8.92606 6.59649 9.02337C6.62033 9.1267 6.74946 9.2836 6.91644 9.2836C7.01964 9.2836 7.16279 9.22008 7.16279 9.20423C7.16279 9.18433 7.01571 9.16494 6.97603 9.09095C6.9522 9.05166 6.94224 8.95396 6.93674 8.85521C6.93281 8.79169 6.93281 8.72215 6.95665 8.69805C7.01034 8.63846 7.02017 8.46755 7.02017 8.46755L7.21085 8.11328H6.96005L6.66001 8.30004L6.61234 8.37967Z" fill="#84754B"/>
<path fill-rule="evenodd" clip-rule="evenodd" d="M6.53906 8.48901C6.53906 8.48901 6.73551 8.22878 6.91258 8.16906C7.08964 8.10934 7.16888 8.14522 7.16888 8.14522L7.06555 8.40951L6.91847 8.57244L6.92842 8.65586C6.92842 8.65586 6.90446 8.87641 7.05153 9.02938C7.19861 9.18235 7.30783 9.17645 7.37148 9.17645C7.43513 9.17645 7.61783 9.12276 7.71121 8.90221C7.79463 8.69567 7.86417 8.43073 7.69732 8.16513C7.53427 7.90084 7.24628 7.89062 7.19062 7.89062C7.13496 7.89062 6.69792 7.9125 6.53906 8.48862V8.48901Z" fill="#252211"/>
<path fill-rule="evenodd" clip-rule="evenodd" d="M11.583 9.3732C11.5096 9.33941 11.5791 9.13288 11.6526 9.06923C11.726 9.00558 11.8194 8.93224 11.9825 8.92216C12.0419 8.91823 12.0996 8.95595 12.0897 8.99576C12.0759 9.06923 11.9725 9.17256 11.8791 9.24604C11.75 9.3474 11.6665 9.41092 11.583 9.3732Z" fill="#F7F7E7"/>
<path fill-rule="evenodd" clip-rule="evenodd" d="M7.60959 8.24732C7.66329 8.24339 7.73283 8.28661 7.74672 8.34476C7.7606 8.40828 7.71293 8.53545 7.60959 8.53545C7.52617 8.53545 7.48242 8.43211 7.48242 8.40238C7.48336 8.37794 7.49019 8.35408 7.50233 8.33284C7.50626 8.32682 7.51621 8.25727 7.60959 8.24732Z" fill="#F8F6DE"/>
<path fill-rule="evenodd" clip-rule="evenodd" d="M6.8347 8.29297C6.8347 8.29297 6.69758 8.35649 6.63406 8.48942C6.58868 8.58758 6.57495 8.69742 6.59477 8.80373C6.60473 8.85337 6.65436 8.97648 6.68815 9.02022C6.72194 9.06396 6.76765 9.09382 6.80144 9.08976C6.83523 9.0857 6.90464 8.99638 6.90464 8.94282C6.90464 8.88925 6.9087 8.66268 6.97418 8.53945C7.03181 8.41634 6.8351 8.2931 6.8351 8.2931L6.8347 8.29297Z" fill="#D4C38B"/>
<path fill-rule="evenodd" clip-rule="evenodd" d="M6.85406 8.28302C6.83022 8.2969 6.79054 8.31681 6.80036 8.34261C6.81031 8.36645 6.89374 8.3819 6.9236 8.44005C6.95739 8.49964 6.95739 8.56316 6.94744 8.59302C6.97339 8.58069 6.99694 8.56384 7.01698 8.54325C7.06072 8.49361 7.11429 8.42617 7.16 8.42617C7.18986 8.42617 7.21959 8.44005 7.24748 8.44005C7.29122 8.44005 7.33484 8.42617 7.34086 8.38046C7.35068 8.32087 7.25744 8.26718 7.20374 8.27713C7.21369 8.23784 7.22757 8.17982 7.18383 8.14001C7.14009 8.1002 7.0031 8.16987 6.97324 8.18978C6.94338 8.20968 6.85406 8.28315 6.85406 8.28315V8.28302Z" fill="#E2D59D"/>
<path fill-rule="evenodd" clip-rule="evenodd" d="M10.0112 12.4569L10.3053 12.3701L10.3887 12.4297C10.3887 12.4297 10.4481 12.5569 10.5416 12.5727C10.5118 12.6362 10.4343 12.6906 10.4383 12.7356C10.4424 12.7807 10.4821 12.8151 10.4821 12.8151C10.4821 12.8151 10.2178 13.2522 10.7384 13.6926C10.6151 13.7423 10.4582 13.8105 10.3748 13.8498C10.4343 13.8637 10.5614 13.8891 10.6151 13.9373C10.6688 13.9855 10.6688 14.0008 10.7185 14.0306C10.7681 14.0605 10.7978 14.1002 10.788 14.118C10.7542 14.0981 10.6409 14.0386 10.6211 14.0942C10.6014 14.1497 10.1304 14.1279 10.1304 14.1279L9.33571 14.2809C9.33571 14.2809 9.36544 14.2014 9.28201 14.1279C9.1847 14.0406 9.06552 14.1319 8.93836 14.0346C8.7715 13.9074 8.76548 13.7603 8.71191 13.7048C8.76548 13.671 8.87484 13.6214 9.13507 13.5869C9.12511 13.567 9.09132 13.5074 9.11123 13.4539C9.13507 13.3843 9.23434 13.3406 9.20461 13.2574C9.24835 13.2475 9.26813 13.2475 9.37749 13.1103C9.48082 12.9732 9.54434 12.9435 9.62383 12.9335C9.70333 12.9236 9.751 12.9335 9.89808 12.7964C10.0013 12.6991 9.96762 12.6157 9.96762 12.6157C9.96762 12.6157 10.0351 12.5938 10.0114 12.4567L10.0112 12.4569Z" fill="#CBAC5A"/>
<path fill-rule="evenodd" clip-rule="evenodd" d="M9.14317 12.5012C9.1471 12.4812 9.16308 12.4713 9.27034 12.4812C9.3776 12.4912 10.0571 12.4177 10.2419 12.4078C10.4286 12.3939 11.0862 12.4037 11.4062 12.4713C11.7261 12.5389 12.0499 12.6184 12.2068 12.6581C12.3639 12.7018 12.4134 12.7175 12.4074 12.7374C12.4035 12.7573 12.3681 12.7767 12.3478 12.7712C12.328 12.7673 11.8074 12.6083 11.6466 12.5748C11.4858 12.5412 10.9293 12.4515 10.6251 12.4569C10.341 12.461 10.2277 12.453 9.98739 12.4807C9.74693 12.5106 9.34958 12.5503 9.2304 12.5344C9.11253 12.5205 9.13689 12.5205 9.14291 12.5006L9.14317 12.5012Z" fill="#D6BC6F"/>
<path fill-rule="evenodd" clip-rule="evenodd" d="M10.7424 14.0581C10.7424 14.0581 11.1497 14.2786 11.2968 14.5488C11.4041 14.7494 11.2333 14.8488 11.2333 14.8488C11.2333 14.8488 11.4638 14.8488 11.4339 14.976C11.42 15.0554 11.0366 15.2699 10.7803 15.3832C10.52 15.4965 10.53 15.4906 10.4028 15.5104C10.2796 15.5303 9.94182 15.4711 9.87228 15.5699C9.80274 15.6688 9.83299 15.7707 9.85237 15.7866C9.87228 15.8004 10.0332 15.8204 10.0332 15.8204C10.0332 15.8204 9.99945 15.9137 9.66575 15.9237C9.33204 15.9336 9.24849 15.9573 9.22858 15.9932C9.20868 16.0269 9.2921 16.0071 9.4452 16.0325C9.59817 16.0564 9.81269 16.0718 9.81269 16.0718C9.81269 16.0718 9.74315 16.1314 9.56242 16.1791C9.35575 16.2326 9.03187 16.2824 8.93456 16.342C8.9842 16.3758 9.0578 16.4254 9.09172 16.4293C9.0083 16.4493 8.89095 16.493 8.87117 16.5088C8.9009 16.5287 8.94072 16.5526 8.94072 16.5526C8.94072 16.5526 8.77374 16.7532 8.67643 16.803C8.57912 16.8528 8.01884 17.1129 7.82606 17.0632C7.34528 16.9361 7.28569 16.4096 7.16848 16.3699C6.99167 16.3103 6.90825 16.4293 6.75122 16.3459C6.82076 16.2963 6.85861 16.2666 6.93208 16.2328C6.85259 16.1935 6.44135 15.9327 6.44135 15.9327C6.39835 15.839 6.35062 15.7475 6.29834 15.6586C6.21884 15.5215 6.10189 15.3387 6.01414 15.1777C5.82345 14.8241 5.8135 14.6612 5.64062 14.4605C5.67049 14.4212 5.77369 14.4267 5.77369 14.4267L7.22218 14.9036L9.79056 14.978L10.4585 14.0244L10.7426 14.0582L10.7424 14.0581Z" fill="#DFC677"/>
<path fill-rule="evenodd" clip-rule="evenodd" d="M6.9375 15.5127C6.953 15.53 6.97107 15.5447 6.99107 15.5565C7.04083 15.5902 7.1143 15.6301 7.16394 15.6895C7.18385 15.6598 7.23348 15.6061 7.3211 15.6895C7.40872 15.7729 7.51755 15.7135 7.58526 15.7333C7.6548 15.7572 7.65873 15.7671 7.65873 15.7671C7.65873 15.7671 7.69802 15.7333 7.7859 15.6975C7.8396 15.6776 7.90312 15.6637 7.97266 15.6439C8.03618 15.6301 8.10572 15.6102 8.15353 15.6102C8.19727 15.6399 8.35417 15.8066 8.98398 15.5605C9.57805 15.33 9.71504 15.3042 9.81444 15.3398C9.8244 15.316 9.83435 15.2703 9.98732 15.2763C9.98732 15.2128 9.86015 14.9962 9.86015 14.9962L9.15882 14.7559H8.77522L7.62494 14.9665L6.98753 15.3301L6.93789 15.5135L6.9375 15.5127Z" fill="#C4A859"/>
<path fill-rule="evenodd" clip-rule="evenodd" d="M6.55469 15.1093C6.55469 15.1093 6.56857 15.2165 6.72756 15.3298C6.88472 15.443 6.9341 15.5106 6.9341 15.5106C6.9341 15.5106 6.96396 15.4713 6.98779 15.4312C7.01163 15.3875 7.03154 15.3378 7.07122 15.3239C7.15072 15.2902 7.33145 15.3537 7.37126 15.3437C7.40505 15.3339 7.3951 15.2644 7.43085 15.2644C7.51428 15.2603 7.56784 15.3179 7.5977 15.3179C7.62757 15.3179 7.70091 15.314 7.71086 15.2981C7.72081 15.2823 7.72474 15.1173 7.83803 15.0378C7.96127 14.9504 8.11227 14.9881 8.15235 15.0081C8.15235 15.0378 8.15628 15.1114 8.23577 15.1153C8.31527 15.1192 8.32313 15.1054 8.39293 15.1292C8.46274 15.153 8.5459 15.1253 8.58362 15.2424C8.61741 15.2325 8.69691 15.2226 8.677 15.1093C8.71629 15.0796 8.7506 15.0597 8.83416 14.9424C8.85407 14.9127 8.88773 14.8789 8.91366 14.8352C8.9832 14.8352 9.06663 14.8213 9.17782 14.9186C9.14403 14.9424 9.12412 14.9579 9.1143 14.9821C9.14338 15.0109 9.16993 15.0422 9.19366 15.0755C9.22353 15.1148 9.24343 15.163 9.28115 15.1729C9.36458 15.1968 9.5017 15.163 9.65467 15.1729C9.80174 15.1829 9.92485 15.2365 9.97855 15.2702C9.99845 15.2604 9.99845 15.2564 10.0481 15.2663C10.0977 15.2763 10.1354 15.2802 10.0819 15.2167C10.1116 15.2306 10.1454 15.2604 10.1753 15.2306C10.2051 15.2007 10.2288 15.1571 10.3122 15.1471C10.3957 15.1372 10.4255 15.1511 10.4593 15.0637C10.5031 14.9565 10.3521 14.9564 10.3521 14.9564C10.3521 14.9564 10.4216 14.8928 10.4991 14.8094C10.5925 14.722 10.6998 14.6087 10.7256 14.4696C10.7693 14.2133 10.519 14.1797 10.519 14.1797L9.30512 14.5532L7.821 14.4796L6.55547 15.1094L6.55469 15.1093Z" fill="#927D49"/>
<path fill-rule="evenodd" clip-rule="evenodd" d="M5.46339 11.6027C5.46339 11.6027 5.4241 11.6524 5.39988 11.7696C5.37565 11.8868 5.38599 11.8729 5.36609 11.9563C5.34618 12.0398 5.10166 12.8702 5.19334 13.1504C5.28502 13.4305 5.44375 13.5338 5.54302 13.7603C5.56293 13.8099 5.58231 13.8398 5.59266 13.8835C5.62645 14.0305 5.59672 14.1438 5.6364 14.2908C5.65028 14.3405 5.68617 14.3981 5.73973 14.4577C5.8576 14.5808 6.04973 14.698 6.13263 14.7814C6.24972 14.9047 6.4167 15.1551 6.62926 15.1788C6.74255 15.1927 6.9035 15.145 7.03656 15.0656C7.15443 14.992 7.22725 14.8888 7.35088 14.8299C7.43824 14.7862 7.53162 14.7703 7.61504 14.7504C7.78792 14.7166 7.94495 14.7111 8.03833 14.7305C8.18134 14.7604 8.51911 14.8637 8.70626 14.8637C8.8525 14.8613 8.99792 14.8413 9.13936 14.8041C9.42343 14.7207 9.76709 14.5775 9.99366 14.514C10.1267 14.4747 10.234 14.4644 10.3433 14.4405C10.5301 14.3968 10.687 14.3372 10.7764 14.2239C10.7169 14.1544 10.6434 14.0471 10.2459 14.051C9.79498 14.061 9.27439 14.3113 9.01809 14.3511C8.76179 14.3909 8.6506 14.4246 8.36444 14.3212C8.0839 14.2168 8.07461 14.1478 8.07461 14.1478C8.07461 14.1478 7.78006 13.9418 7.65682 13.4166C7.53358 12.8915 7.65682 12.5088 7.97677 12.1451C8.0602 12.0517 8.04029 11.9683 8.04029 11.9683C8.04029 11.9683 8.25089 11.6842 8.19326 11.4182C8.12974 11.1539 7.72244 11.2076 7.72244 11.2076L5.46353 11.6027H5.46339Z" fill="#6E6342"/>
<path fill-rule="evenodd" clip-rule="evenodd" d="M5.80341 12.4863C5.78589 12.5193 5.77765 12.5563 5.77957 12.5936C5.7835 12.6472 5.79948 12.7167 5.9603 12.8737C6.09743 13.0107 6.06756 13.1637 6.06756 13.1637C6.06756 13.1637 6.13658 13.1776 6.32387 13.0899C6.47094 13.0204 6.52032 13.1436 6.52032 13.1436C6.56313 13.1212 6.60953 13.1064 6.65744 13.0999C6.70084 13.0959 6.74285 13.0825 6.78055 13.0606C6.78055 13.0606 6.95342 13.2374 7.10443 13.3208C7.24155 13.3944 7.32104 13.4441 7.38862 13.3944C7.45214 13.3507 7.45214 13.2613 7.44808 13.2216C7.43232 13.1849 7.41237 13.1503 7.38862 13.1182C7.34488 13.0547 7.27534 12.9811 7.27075 12.9218C7.2608 12.7848 7.37409 12.6217 7.35012 12.5821C7.32615 12.5424 7.23696 12.5324 7.01642 12.6119C6.78801 12.6874 5.80249 12.4867 5.80249 12.4867L5.80341 12.4863Z" fill="#39331F"/>
<path fill-rule="evenodd" clip-rule="evenodd" d="M6.32409 13.375C6.32409 13.375 6.21095 13.2677 6.25063 12.7471C6.29866 12.7464 6.34662 12.7511 6.39363 12.761C6.39363 12.761 6.45531 13.1644 6.32409 13.375Z" fill="#292311"/>
<path fill-rule="evenodd" clip-rule="evenodd" d="M5.51714 11.2055C5.53293 11.1939 5.54758 11.1807 5.56089 11.1662C5.5216 11.2397 5.34021 11.5337 5.48728 11.9967C5.63436 12.4576 6.00381 12.8012 6.45879 12.8172C6.91377 12.8332 7.15292 12.6105 7.42637 12.2768C7.53364 12.1438 7.65688 11.9768 7.7661 11.8636C7.92902 11.6867 8.05619 11.6371 8.05619 11.4663C8.05619 11.1166 7.69852 10.9596 7.17204 10.8027C6.64555 10.6458 6.17067 10.6652 5.92432 10.7726C5.68399 10.8896 5.58066 11.0129 5.51701 11.2057L5.51714 11.2055Z" fill="#252211"/>
<path fill-rule="evenodd" clip-rule="evenodd" d="M7.2084 13.5314L7.24769 13.5115C7.24769 13.5115 7.25751 13.3543 7.32116 13.3585C7.38468 13.3684 7.41454 13.452 7.40851 13.4817C7.40458 13.5115 7.38874 13.5612 7.32509 13.5552C7.24166 13.5572 7.20801 13.5314 7.20801 13.5314H7.2084Z" fill="#3F3824"/>
<path fill-rule="evenodd" clip-rule="evenodd" d="M7.03125 12.8642C7.03125 12.8642 7.07054 12.8503 7.1186 12.898C7.15789 12.898 7.3292 12.8781 7.3829 12.9119C7.43659 12.9456 7.45244 12.9754 7.45244 12.9754C7.45244 12.9754 7.2518 13.0191 7.14244 12.9754C7.03125 12.9377 7.03125 12.8642 7.03125 12.8642Z" fill="#2D2815"/>
<path fill-rule="evenodd" clip-rule="evenodd" d="M7.9157 12.8939C7.9157 12.884 7.80844 12.8105 7.69515 12.7865C7.67524 12.7826 7.67118 12.7965 7.65586 12.7965C7.64591 12.7926 7.64198 12.7627 7.64198 12.7627L7.57754 12.7966C7.57754 12.7966 7.56759 12.8105 7.60138 12.8359C7.63111 12.8597 7.68087 12.8796 7.69476 12.9193C7.70864 12.959 7.70864 12.9729 7.71466 12.9789C7.71859 12.9828 7.78814 12.9789 7.82193 12.959C7.85572 12.9391 7.91937 12.9066 7.91531 12.8935L7.9157 12.8939Z" fill="#82764F"/>
<path fill-rule="evenodd" clip-rule="evenodd" d="M6.91211 13.2978C6.91211 13.2978 6.93189 13.1609 7.06508 13.1548C7.20207 13.1449 7.228 13.2779 7.228 13.2779L7.1485 13.3574C7.1485 13.3555 7.08891 13.272 6.91276 13.2978H6.91211Z" fill="#2D2816"/>
<path fill-rule="evenodd" clip-rule="evenodd" d="M7.7759 12.707C7.7759 12.707 7.7023 12.7865 7.53951 12.8103C7.52563 12.7904 7.49577 12.7507 7.53951 12.6872C7.58325 12.6237 7.63289 12.6038 7.68252 12.6235C7.70442 12.6271 7.72485 12.6368 7.7414 12.6516C7.75794 12.6664 7.76992 12.6856 7.7759 12.707Z" fill="#574F35"/>
<path fill-rule="evenodd" clip-rule="evenodd" d="M8.07663 12.8049C8.08069 12.785 8.0668 12.7811 8.07663 12.7711C8.08645 12.7612 8.14028 12.7414 8.15023 12.7512C8.15416 12.7553 8.15023 12.7711 8.15023 12.7905C8.15023 12.8099 8.15023 12.8298 8.14028 12.8441C8.12639 12.864 8.08671 12.8739 8.0668 12.868C8.0469 12.8622 8.04297 12.8343 8.04297 12.8288C8.05279 12.8248 8.07663 12.8149 8.07663 12.8049ZM8.41583 12.5904C8.41583 12.5805 8.44962 12.5605 8.46953 12.5605C8.49926 12.5605 8.49926 12.5844 8.50332 12.5904C8.51314 12.5943 8.51314 12.5863 8.52309 12.6043C8.53305 12.6222 8.54706 12.6539 8.53697 12.6738C8.52689 12.6937 8.48734 12.7075 8.47752 12.7036C8.46363 12.6936 8.41989 12.6043 8.41583 12.5904Z" fill="#82764F"/>
<path fill-rule="evenodd" clip-rule="evenodd" d="M7.73242 12.8507C7.73242 12.8507 7.77617 12.8605 7.83576 12.9103C7.81585 12.9242 7.78599 12.94 7.78599 12.94C7.78599 12.94 7.78206 12.8943 7.73242 12.8506V12.8507Z" fill="#6E6342"/>
<path fill-rule="evenodd" clip-rule="evenodd" d="M7.63536 12.4129C7.62541 12.4031 7.66509 12.3792 7.68893 12.3832C7.71276 12.3871 7.72272 12.4031 7.74852 12.407C7.77432 12.4109 7.77838 12.3971 7.78781 12.3871C7.79724 12.3771 7.83155 12.3832 7.83744 12.3871C7.84111 12.3915 7.84444 12.3961 7.8474 12.401C7.84781 12.3934 7.84978 12.386 7.85319 12.3793C7.85659 12.3725 7.86135 12.3665 7.86717 12.3617C7.87479 12.3561 7.88358 12.3523 7.89288 12.3506C7.90218 12.3488 7.91175 12.3492 7.92087 12.3517C7.9248 12.3656 7.94471 12.4153 7.94078 12.4252C7.93685 12.4352 7.87726 12.4492 7.86717 12.4391C7.87713 12.4631 7.92087 12.5127 7.92676 12.5225C7.93266 12.5323 7.88302 12.5563 7.86324 12.5524C7.83548 12.5504 7.66457 12.451 7.63484 12.4133L7.63536 12.4129ZM7.89559 12.0831C7.89191 12.0731 7.88488 12.0647 7.87569 12.0593C7.8618 12.0554 7.81609 12.0593 7.81609 12.0831C7.81609 12.107 7.85539 12.2403 7.89952 12.3097C7.94929 12.3792 7.98295 12.4367 8.01674 12.4527C8.02735 12.4575 8.03939 12.4582 8.05045 12.4545C8.06151 12.4508 8.07075 12.443 8.07633 12.4328C8.08026 12.4229 8.09021 12.3494 8.08628 12.1765C8.08235 12.0036 8.07633 11.8368 8.06637 11.8268C8.05642 11.8169 8.01674 11.817 8.00285 11.8368C7.98897 11.8565 7.89952 12.0534 7.89546 12.0831H7.89559Z" fill="#585136"/>
<path fill-rule="evenodd" clip-rule="evenodd" d="M7.71825 13.1005C7.71825 13.1005 7.64871 13.0567 7.58112 13.0866C7.5176 13.1165 7.52153 13.2337 7.52153 13.2337C7.53582 13.2393 7.55126 13.2413 7.56651 13.2395C7.58176 13.2378 7.59635 13.2324 7.60902 13.2237C7.65277 13.194 7.7083 13.1444 7.71825 13.1006V13.1005Z" fill="#574F35"/>
<path fill-rule="evenodd" clip-rule="evenodd" d="M7.84984 13.258C7.84591 13.2187 7.81055 13.2187 7.81055 13.1984C7.81298 13.1887 7.8186 13.1801 7.82651 13.174C7.83442 13.1679 7.84416 13.1646 7.85416 13.1647C7.87407 13.1647 7.89345 13.1885 7.91781 13.2039C7.94164 13.2178 7.9774 13.2432 7.98133 13.2735C7.98526 13.3037 7.94204 13.3866 7.89397 13.3866C7.84591 13.3866 7.86018 13.2972 7.85023 13.2575L7.84984 13.258ZM8.23331 13.2043C8.23331 13.2043 8.15381 13.2282 8.1597 13.2043C8.1656 13.1805 8.18367 13.1746 8.20947 13.1746C8.22258 13.1609 8.24021 13.1524 8.25911 13.1506C8.26992 13.1501 8.28053 13.1537 8.28884 13.1606C8.28884 13.1606 8.34253 13.1368 8.35838 13.1506C8.37423 13.1645 8.36244 13.1645 8.37226 13.1805C8.38477 13.1982 8.39298 13.2186 8.39623 13.2401C8.39623 13.2559 8.33664 13.2897 8.28884 13.2838C8.23331 13.2719 8.24313 13.2143 8.23331 13.2043ZM8.69614 13.1149C8.69614 13.1149 8.71998 13.1288 8.7002 13.1447C8.68632 13.1586 8.61678 13.184 8.55706 13.1885C8.49747 13.1885 8.4439 13.1983 8.4439 13.1785C8.4439 13.1588 8.49354 13.1189 8.52327 13.109C8.52923 13.1015 8.5368 13.0955 8.54542 13.0914C8.55404 13.0872 8.56348 13.0851 8.57303 13.0852C8.59687 13.0852 8.69012 13.0752 8.71605 13.0713C8.73989 13.0672 8.75979 13.0811 8.74578 13.101C8.73989 13.1149 8.69614 13.1149 8.69614 13.1149ZM8.83327 12.5014C8.83327 12.5014 8.8034 12.565 8.76975 12.565C8.73596 12.561 8.73596 12.5511 8.73596 12.5411C8.73596 12.5272 8.76975 12.4915 8.76569 12.4815C8.75586 12.4815 8.7319 12.4815 8.73596 12.4577C8.73596 12.4378 8.76975 12.4139 8.79948 12.4184C8.82194 12.3999 8.84991 12.3895 8.87897 12.3887C8.91276 12.3887 8.94249 12.3985 8.94249 12.4184C8.94249 12.4383 8.9032 12.4819 8.8888 12.492C8.87295 12.5079 8.85304 12.5182 8.83327 12.5018V12.5014ZM8.38025 13.6756C8.38025 13.6756 8.34096 13.6796 8.34096 13.6994C8.34096 13.7094 8.35078 13.7094 8.3648 13.7035C8.37287 13.703 8.38087 13.7016 8.38863 13.6994C8.39256 13.7035 8.39256 13.7232 8.42242 13.7232C8.44694 13.7199 8.47057 13.7118 8.49197 13.6994C8.5158 13.6896 8.53571 13.6795 8.53571 13.6601C8.52576 13.6263 8.50585 13.6103 8.47612 13.6103C8.46088 13.6094 8.44569 13.6128 8.43238 13.6203C8.43238 13.6203 8.42242 13.6004 8.38863 13.6203C8.35484 13.6402 8.35877 13.6402 8.36873 13.6502C8.38654 13.666 8.38064 13.6763 8.38064 13.6763L8.38025 13.6756ZM8.15577 13.8822C8.15577 13.8723 8.20541 13.8524 8.21929 13.8584C8.23318 13.8623 8.27286 13.9378 8.27286 13.9457C8.27286 13.9557 8.22322 13.9795 8.20332 13.9795C8.18341 13.9795 8.14975 13.9457 8.14975 13.9402C8.14975 13.9363 8.17359 13.9304 8.17359 13.9264C8.17948 13.9165 8.15577 13.8926 8.15577 13.8826V13.8822ZM7.99861 13.5921C8.00857 13.5882 8.00857 13.5783 8.02245 13.5683C8.0268 13.5654 8.03175 13.5635 8.03692 13.5629C8.0421 13.5622 8.04736 13.5627 8.05231 13.5644C8.05581 13.5581 8.06066 13.5527 8.06651 13.5486C8.07235 13.5444 8.07904 13.5416 8.0861 13.5404C8.10994 13.5365 8.12984 13.5404 8.12539 13.5504C8.12539 13.5802 8.1453 13.6 8.1453 13.6238C8.1453 13.6477 8.13142 13.6775 8.08178 13.6974C8.03214 13.7113 7.96456 13.7113 7.95461 13.7074C7.94466 13.7035 7.9347 13.6636 7.94466 13.6437C7.95461 13.6238 7.98238 13.6021 7.99835 13.5921H7.99861Z" fill="#82764F"/>
<path fill-rule="evenodd" clip-rule="evenodd" d="M8.06221 13.6055C8.06221 13.6055 8.02841 13.6254 8.02841 13.6353C8.02542 13.6449 8.02409 13.655 8.02448 13.6651C8.02448 13.6709 8.06823 13.6611 8.07413 13.6551C8.07609 13.6512 8.06221 13.6158 8.06221 13.6055Z" fill="#6E6342"/>
<path fill-rule="evenodd" clip-rule="evenodd" d="M7.7664 13.5123C7.78618 13.5164 7.81997 13.5123 7.84577 13.5223C7.86567 13.5322 7.87956 13.5522 7.85965 13.576C7.83974 13.5998 7.82036 13.6356 7.77623 13.6295C7.72659 13.6256 7.67892 13.5998 7.67892 13.5799C7.67808 13.5673 7.67976 13.5547 7.68385 13.5428C7.68795 13.5308 7.69437 13.5198 7.70275 13.5104C7.72266 13.4945 7.73248 13.5045 7.76627 13.5123H7.7664Z" fill="#585136"/>
<path fill-rule="evenodd" clip-rule="evenodd" d="M7.7425 13.5322C7.7425 13.5322 7.67898 13.5819 7.663 13.6058C7.64309 13.6297 7.54579 13.7528 7.51606 13.7786C7.52593 13.7612 7.53719 13.7446 7.54972 13.7289C7.51043 13.7541 7.48097 13.7919 7.46629 13.8362C7.44246 13.9098 7.59948 13.9495 7.70268 13.9793C7.80588 14.0092 7.84582 14.0186 7.84582 14.0186C7.80783 13.9615 7.77521 13.901 7.74839 13.8379C7.7091 13.7445 7.6888 13.7346 7.7146 13.6908C7.73451 13.6471 7.76437 13.6174 7.76437 13.5836C7.75245 13.5521 7.7425 13.5322 7.7425 13.5322Z" fill="#574F35"/>
<path fill-rule="evenodd" clip-rule="evenodd" d="M5.4778 13.6888C5.49226 13.6914 5.50708 13.6914 5.52154 13.6888C5.55127 13.6847 5.86127 13.5709 6.18515 13.5913C6.42761 13.606 6.66793 13.6455 6.90232 13.7092C7.30963 13.8165 7.81621 14.029 8.14402 14.1503C8.23137 14.184 8.3169 14.2437 8.37976 14.2674C8.63017 14.3648 8.63999 14.3648 8.78707 14.3906C8.95994 14.4145 9.13675 14.3568 9.32154 14.3171C9.54798 14.2674 9.93538 14.2435 10.2751 14.1939C10.385 14.1787 10.4933 14.1541 10.599 14.1204C10.599 14.1204 10.3288 14.3906 9.68104 14.4879C9.41921 14.5277 9.15314 14.531 8.8904 14.4979C8.68373 14.478 8.54674 14.4481 8.44341 14.4184C8.32619 14.3846 8.08574 14.2951 7.78975 14.2219C7.58309 14.1682 7.35259 14.1286 7.08843 14.0789C6.43674 13.9596 5.72952 13.8226 5.47754 13.6895L5.4778 13.6888Z" fill="#252211"/>
<path fill-rule="evenodd" clip-rule="evenodd" d="M4.74665 12.4609C4.58949 12.594 4.42277 12.7212 4.25997 12.8443L3.76924 13.2213C3.60239 13.3444 3.43947 13.4716 3.27249 13.5948C3.10551 13.7181 2.93879 13.8352 2.76172 13.9485C2.91888 13.8154 3.0856 13.6922 3.25245 13.571C3.4193 13.4499 3.59231 13.3311 3.75327 13.2082L4.244 12.8307C4.41281 12.7075 4.57573 12.5804 4.74665 12.4612V12.4609ZM3.87847 13.8517C3.87847 13.8517 4.05527 13.7046 4.27582 13.4981C4.54993 13.2419 4.88573 12.914 4.99299 12.8545L3.87834 13.8518L3.87847 13.8517Z" fill="#CFB66C"/>
<path fill-rule="evenodd" clip-rule="evenodd" d="M3.87793 13.852C3.96542 13.7646 4.05879 13.6792 4.15217 13.5957L4.29519 13.4725C4.33893 13.4333 4.3887 13.3891 4.43231 13.3454C4.51967 13.258 4.60519 13.1645 4.69254 13.0752C4.73584 13.0303 4.78162 12.9878 4.82966 12.948C4.85368 12.9268 4.88036 12.9087 4.90903 12.8943C4.933 12.8804 4.9588 12.855 4.99246 12.8506C4.97268 12.8804 4.94884 12.8943 4.92894 12.9201C4.9051 12.94 4.88519 12.9639 4.86542 12.9836C4.82167 13.0274 4.77204 13.0671 4.7283 13.1069C4.63492 13.1864 4.53761 13.264 4.44423 13.3472C4.35085 13.4304 4.2635 13.5201 4.16999 13.6035C4.06875 13.689 3.97537 13.7725 3.87793 13.8523V13.852ZM5.06606 13.0573C5.06606 13.0573 4.41843 13.6911 4.28524 13.7943L5.06606 13.0573Z" fill="#CFB66C"/>
<path fill-rule="evenodd" clip-rule="evenodd" d="M5.06598 13.0566C5.00772 13.1241 4.94525 13.1878 4.87896 13.2473L4.68251 13.4341C4.61899 13.4976 4.55927 13.5613 4.49182 13.6248C4.42228 13.6844 4.35876 13.7426 4.28516 13.7976L4.47584 13.6109C4.53949 13.5474 4.60904 13.4938 4.67662 13.4302L4.8673 13.2434C4.93279 13.1779 4.99644 13.1143 5.06598 13.0566ZM5.09571 13.4003C5.03601 13.5669 4.96567 13.7295 4.88511 13.8871C4.71826 14.2209 4.46799 14.6381 4.35863 14.8508L5.09571 13.4003Z" fill="#CFB66C"/>
<path fill-rule="evenodd" clip-rule="evenodd" d="M5.09644 13.4004C5.09644 13.4739 5.07654 13.5375 5.0527 13.601C5.02947 13.6646 5.00298 13.7269 4.97333 13.7878C4.94347 13.8474 4.90969 13.911 4.8759 13.9687C4.84211 14.0263 4.80242 14.0857 4.77256 14.1455L4.57192 14.4991C4.50238 14.6169 4.4348 14.7355 4.36133 14.8488C4.41096 14.7216 4.47854 14.6024 4.54219 14.4852C4.61174 14.3673 4.67526 14.2494 4.73864 14.1275C4.76959 14.0668 4.79744 14.0045 4.82207 13.9409C4.8518 13.8772 4.88153 13.8177 4.90549 13.76C4.93522 13.6965 4.95906 13.6368 4.98892 13.5793C5.02258 13.5176 5.05047 13.458 5.09618 13.4004H5.09644Z" fill="#CFB66C"/>
<path fill-rule="evenodd" clip-rule="evenodd" d="M5.80319 15.0303C5.80319 15.0303 5.60674 15.2905 5.62638 15.6203C5.67995 15.4475 5.74753 15.1832 5.80319 15.0303ZM5.98994 15.2912C5.98994 15.2912 5.9204 15.9984 5.86278 16.3461C5.94424 15.9442 5.96008 15.9779 5.98994 15.2912ZM7.29123 16.3879C7.29123 16.3879 6.99721 17.2523 6.99119 17.4924C7.05484 17.2454 7.17794 16.7408 7.29123 16.3872V16.3879Z" fill="#DEC270"/>
<path fill-rule="evenodd" clip-rule="evenodd" d="M7.97852 14.9766C7.97852 14.9766 8.45537 15.7633 8.81304 16.4347C8.71625 16.0969 8.49361 15.4771 7.97852 14.9766Z" fill="#CBAF59"/>
<path fill-rule="evenodd" clip-rule="evenodd" d="M9.26074 16.1348C9.52256 16.5976 9.75865 17.0744 9.96796 17.5632C9.92828 17.2255 9.82089 16.6474 9.26074 16.1348Z" fill="#E3C677"/>
<path fill-rule="evenodd" clip-rule="evenodd" d="M13.0275 17.2941C13.1068 17.2445 13.2639 16.9742 13.401 16.9067C13.538 16.8372 13.6413 16.8233 13.7645 16.6862C13.8877 16.543 13.9217 16.4557 14.1916 16.3425C14.5692 16.1795 14.3095 15.9689 14.3095 15.9689C14.3511 15.928 14.3956 15.8902 14.4426 15.8557C14.54 15.7822 14.6532 15.6928 14.6433 15.5358C14.6295 15.2716 14.5798 14.8881 14.3632 14.6656C14.5738 14.6219 14.977 14.5921 15.2276 14.5286C15.5175 14.455 15.6507 14.3517 15.6507 14.3517C15.6507 14.3517 15.4839 14.0676 15.7541 13.7816C16.0242 13.4956 16.2448 13.3247 16.4077 13.0047C16.221 12.9809 15.9362 12.8816 15.2096 13.1577C15.2489 13.1761 15.2867 13.1974 15.3229 13.2212C15.3229 13.2212 14.8759 13.3444 14.713 13.4816C14.4288 13.7219 14.3931 13.9186 14.0852 14.0657C13.7773 14.2127 13.4673 14.1729 13.2111 14.2921C12.9549 14.4113 12.9171 14.5127 12.8235 14.5564C12.8435 14.5802 12.8196 14.6199 12.8573 14.6537C12.8335 14.6875 12.6944 14.9139 12.5534 14.9139C12.5672 14.9676 12.6864 15.0073 12.6864 15.0073C12.6864 15.0073 12.5991 15.071 12.3766 15.0868C12.4897 15.2047 12.5971 15.3332 12.8931 15.5199C12.8693 15.5696 12.7699 15.6432 12.8097 15.7365C12.8534 15.8299 12.9668 15.9571 13.4196 16.0604C13.1891 16.0702 12.919 16.1239 12.5552 16.0743C12.1916 16.0306 12.132 16.0048 11.9076 16.0604C11.9314 16.0843 11.9949 16.0843 12.0506 16.1478C11.991 16.1517 11.6175 16.104 11.4903 16.271C11.3572 16.4438 11.2996 16.728 11.3096 16.9186C11.24 16.9524 11.1725 17.012 11.2062 17.1353C11.24 17.2585 11.4168 17.2982 11.5301 17.3756C11.6433 17.459 11.6532 17.4887 11.7606 17.469C11.8738 17.4451 12.0406 17.332 12.1381 17.332C12.2355 17.332 12.3049 17.4054 12.3049 17.4054C12.3049 17.4054 12.5692 17.2783 12.595 17.3021C12.6188 17.3259 12.5989 17.4789 12.6247 17.5028C12.6509 17.5207 12.9486 17.3439 13.0281 17.2941H13.0275Z" fill="#ECD592"/>
<path fill-rule="evenodd" clip-rule="evenodd" d="M18.8024 9.34362C17.5607 6.13703 14.4911 5.54297 14.4911 5.54297H5.73353L5.76732 8.80914H7.5114V16.1025H5.7334V19.3628H14.2487C16.301 19.3628 17.946 17.3005 17.946 17.3005C20.5804 13.5615 18.8023 9.34362 18.8023 9.34362H18.8024ZM14.2944 15.1031C14.2944 15.1031 13.6265 16.0668 12.8998 16.0668H11.446L11.4116 8.81713H13.2772C13.2772 8.81713 14.1416 8.99787 14.7455 10.7084C14.7455 10.7084 15.5461 13.1575 14.2944 15.1031Z" fill="white"/>
</svg>
