<svg width="24" height="24" viewBox="0 0 24 24" fill="none" xmlns="http://www.w3.org/2000/svg">
<circle cx="12" cy="12" r="12" fill="#F2F2F2"/>
<path d="M12.0543 4.5C10.4505 4.5057 8.91401 5.11369 7.7799 6.19141C6.6458 7.26913 6.006 8.7292 6 10.2533C5.99992 10.8888 6.10765 11.5201 6.31905 12.123C6.39495 12.3203 6.54738 12.4825 6.74511 12.5765C6.94284 12.6704 7.1709 12.689 7.38254 12.6283C7.58796 12.5541 7.75581 12.4082 7.85182 12.2204C7.94782 12.0325 7.96474 11.8169 7.8991 11.6177C7.71927 11.1488 7.63923 10.6507 7.66361 10.1523C7.68873 9.34759 7.95954 8.56723 8.44306 7.90622C8.92658 7.24521 9.60194 6.73208 10.3869 6.42932C11.1718 6.12656 12.0325 6.04724 12.864 6.20102C13.6955 6.3548 14.4621 6.73504 15.0703 7.29544C15.6784 7.85583 16.102 8.57219 16.2894 9.35727C16.4767 10.1424 16.4198 10.9623 16.1256 11.7172C15.8313 12.4721 15.3124 13.1293 14.632 13.609C13.9517 14.0886 13.1392 14.3699 12.2936 14.4185C12.2936 14.4185 11.4466 14.4691 11.0212 14.5196C10.8652 14.5405 10.7105 14.5694 10.5578 14.6062C10.5469 14.614 10.5333 14.6178 10.5196 14.6169C10.5059 14.616 10.4931 14.6104 10.4834 14.6012C10.4737 14.592 10.4678 14.5797 10.4668 14.5667C10.4659 14.5537 10.4698 14.5408 10.4781 14.5304L10.611 13.8482L11.4086 10.4157C11.4545 10.2114 11.413 9.99806 11.2933 9.82274C11.1737 9.64743 10.9856 9.52447 10.7705 9.48092C10.5555 9.43736 10.331 9.47678 10.1465 9.59049C9.96203 9.70421 9.83264 9.88291 9.7868 10.0873C9.7868 10.0873 7.8877 18.4682 7.8877 18.544C7.86155 18.6451 7.8574 18.7503 7.87549 18.853C7.89358 18.9557 7.93354 19.0538 7.99292 19.1413C8.0523 19.2288 8.12985 19.3039 8.22083 19.3619C8.3118 19.42 8.41428 19.4597 8.522 19.4788C8.62866 19.5031 8.73939 19.5065 8.84748 19.4889C8.95556 19.4713 9.05875 19.4329 9.15075 19.3762C9.24276 19.3195 9.32168 19.2456 9.3827 19.159C9.44373 19.0724 9.48559 18.9749 9.50574 18.8725C9.53232 18.7714 9.77161 17.6597 9.77161 17.6597C9.85975 17.2505 10.0778 16.8768 10.3963 16.589C10.7148 16.3012 11.1185 16.113 11.553 16.0499C11.7353 16.0247 12.5063 15.9742 12.5063 15.9742C14.0471 15.8388 15.4748 15.1476 16.4959 14.0427C17.5169 12.9378 18.0536 11.5032 17.9958 10.0338C17.9379 8.56434 17.2898 7.17184 16.1847 6.14257C15.0796 5.11329 13.6015 4.52548 12.0543 4.5Z" fill="#1E1E1E"/>
<path d="M12.2023 17.5198C12.0731 17.4938 11.94 17.4934 11.8107 17.5187C11.6813 17.5439 11.5583 17.5944 11.4486 17.6671C11.3389 17.7398 11.2448 17.8333 11.1716 17.9423C11.0984 18.0513 11.0476 18.1737 11.022 18.3022C10.9943 18.4308 10.9927 18.5636 11.0175 18.6928C11.0422 18.822 11.0928 18.9449 11.1661 19.0543C11.2395 19.1638 11.3342 19.2574 11.4446 19.3298C11.5549 19.4022 11.6788 19.4519 11.8089 19.4759C11.938 19.5051 12.0718 19.5078 12.2021 19.4838C12.3324 19.4599 12.4564 19.4098 12.5665 19.3365C12.6766 19.2633 12.7705 19.1685 12.8426 19.0579C12.9146 18.9473 12.9632 18.8233 12.9853 18.6935C13.0295 18.4355 12.9731 18.1705 12.8276 17.9524C12.6821 17.7343 12.4585 17.5796 12.2023 17.5198Z" fill="#E6007A"/>
</svg>
