<svg width="24" height="24" viewBox="0 0 24 24" fill="none" xmlns="http://www.w3.org/2000/svg">
<g clip-path="url(#clip0_2625_7110)">
<path d="M12 24C18.6274 24 24 18.6274 24 12C24 5.37259 18.6274 0 12 0C5.37259 0 0 5.37259 0 12C0 18.6274 5.37259 24 12 24Z" fill="black"/>
<path fill-rule="evenodd" clip-rule="evenodd" d="M5.51328 8.63219L9.12489 3L3.7409 8.38389C3.29288 8.83191 3.50372 9.59732 4.11789 9.75275L6.97154 10.4752C6.71671 10.8757 6.4282 11.3807 6.20398 11.9161C5.99845 12.4065 5.8272 12.968 5.81026 13.5241C5.79291 14.0935 5.93885 14.7037 6.42044 15.1852C7.14401 15.9088 7.66939 16.1613 8.08903 16.3628C8.12026 16.3778 8.15088 16.3925 8.18088 16.4071C8.37611 16.5019 8.52042 16.5797 8.6734 16.702C8.82791 16.8255 9.01549 17.0142 9.25633 17.3455C9.2992 17.4045 9.34471 17.4675 9.39258 17.534C9.91795 18.263 10.7425 19.4071 11.8064 20.1666C12.4001 20.5903 13.1047 20.9232 13.9104 20.9884C14.7266 21.0545 15.5788 20.8401 16.4463 20.2814C17.2771 19.7462 17.8246 19.1501 18.0822 18.4559C18.3416 17.7567 18.2648 17.0714 18.0761 16.4499C17.9033 15.8806 17.6149 15.3001 17.3458 14.7583L17.3453 14.7573L17.34 14.7467L17.2951 14.6562C17.0006 14.0626 16.723 13.4889 16.5381 12.8882C16.1774 11.7156 16.4221 11.2075 16.5759 11.0063C16.6498 10.9096 16.7436 10.8299 16.851 10.7726C16.891 10.7512 16.9231 10.7386 16.9407 10.7323L16.9502 10.729L16.9672 10.725L16.9963 10.7155L17.124 10.6737L17.4606 10.5629C17.7393 10.471 18.1117 10.3479 18.4859 10.2232C18.8596 10.0987 19.2371 9.97176 19.5253 9.87246C19.6687 9.82306 19.7936 9.77928 19.8859 9.7455C19.9311 9.72897 19.9744 9.71264 20.0101 9.69825C20.0271 9.69141 20.0505 9.68161 20.0748 9.67018C20.0939 9.66127 20.1126 9.65164 20.131 9.6413L20.1321 9.64069C20.1897 9.60816 20.2427 9.568 20.2896 9.52129C20.5797 9.23115 20.4868 8.87559 20.4773 8.83905L20.4768 8.83732C20.4617 8.77828 20.4393 8.72137 20.4101 8.66791C20.391 8.63323 20.3695 8.59995 20.3458 8.5683C20.3206 8.53462 20.2926 8.50166 20.2714 8.47717C20.2114 8.40918 20.1503 8.34222 20.0881 8.27632C19.9999 8.18223 18.2881 6.44802 16.8499 4.99119C15.854 3.98238 14.9894 3.10644 14.8859 3C14.8981 3.01255 15.8192 4.46173 16.7308 5.8961C17.6242 7.3017 18.5086 8.69311 18.5201 8.70505C18.3635 8.75782 18.1989 8.81282 18.0341 8.86773C17.5825 9.0182 17.1305 9.16768 16.6783 9.31616L16.5704 9.35157L16.5616 9.35402L16.5551 9.35586C16.5299 9.3632 16.4981 9.37321 16.461 9.38647C16.387 9.4128 16.2898 9.45281 16.18 9.51118C15.8915 9.66484 15.6394 9.8788 15.4409 10.1385C14.9315 10.8047 14.717 11.8275 15.1725 13.3083C15.3959 14.0343 15.7242 14.7044 16.015 15.2909L16.0436 15.3484C16.333 15.9317 16.5719 16.4133 16.709 16.8649C16.8456 17.315 16.8548 17.6567 16.7427 17.9589C16.6288 18.266 16.3471 18.6458 15.6726 19.0802C15.0348 19.491 14.4908 19.6019 14.0255 19.5643C13.55 19.5258 13.0882 19.3262 12.6365 19.0037C11.7751 18.3888 11.084 17.4338 10.5394 16.681C10.4959 16.621 10.4534 16.5623 10.4118 16.5052C10.1146 16.0965 9.84182 15.8068 9.56536 15.5859C9.28746 15.3638 9.03008 15.2311 8.80495 15.1218C8.77249 15.106 8.74024 15.0906 8.7081 15.0752C8.33835 14.8979 7.9831 14.7274 7.43068 14.175C7.30342 14.0476 7.22922 13.8646 7.23831 13.5676C7.2478 13.2574 7.34955 12.8792 7.52171 12.4681C7.86502 11.6488 8.40959 10.8794 8.62717 10.5888C8.98232 10.1142 8.72953 9.44638 8.17221 9.30524L5.51328 8.63219ZM11.5362 14.4733C11.5362 14.4733 10.4351 14.4733 9.70109 13.7979C8.96711 13.1224 9.70109 11.7716 9.70109 11.7716C9.70109 11.7716 9.9152 11.9066 10.7257 12.8522C11.5362 13.7979 11.5362 14.4733 11.5362 14.4733Z" fill="url(#paint0_linear_2625_7110)"/>
</g>
<defs>
<linearGradient id="paint0_linear_2625_7110" x1="12.0283" y1="11.1082" x2="12.0001" y2="21" gradientUnits="userSpaceOnUse">
<stop stop-color="#22E1FF"/>
<stop offset="1" stop-color="#002EFF"/>
</linearGradient>
<clipPath id="clip0_2625_7110">
<rect width="24" height="24" fill="white"/>
</clipPath>
</defs>
</svg>
