<svg width="24" height="24" viewBox="0 0 24 24" fill="none" xmlns="http://www.w3.org/2000/svg">
<circle cx="12" cy="12" r="12" fill="#121212"/>
<path d="M12.4562 4C14.1428 4 15.4887 4.20624 16.7498 4.8748C18.011 5.54337 18.8554 6.48544 19.5392 7.70101C20.2381 8.90139 20.4595 10.4198 20.4595 12C20.4595 13.5651 20.2381 15.0834 19.5392 16.299C18.8554 17.5146 18.0034 18.3286 16.727 18.9972C15.4659 19.6657 14.1276 20 12.4562 20H6.46191V4H12.4562ZM12.0775 16.3707C13.5513 16.3707 14.6985 16.0961 15.5191 15.2908C16.3396 14.4854 16.6218 13.4739 16.6218 12C16.6218 10.5261 16.3396 9.50696 15.5191 8.68645C14.6985 7.86594 13.5513 7.58372 12.0775 7.58372H10.7435L9.71913 11.9772L10.7435 16.3707H12.0775Z" fill="url(#paint0_linear_629_4312_dxcad)"/>
<path d="M6.94506 11.6942L4.96741 7.57962H7.83004L8.83729 9.98975H8.86243L10.7043 7.57962H13.6541L10.1062 11.8673L12.2095 16.4147H9.24808L8.1654 13.6467H8.14026L6.03693 16.4147H3L6.94521 11.6942H6.94506Z" fill="white"/>
<defs>
<linearGradient id="paint0_linear_629_4312_dxcad" x1="13.4998" y1="21.9207" x2="13.4998" y2="0.729216" gradientUnits="userSpaceOnUse">
<stop offset="0.0155" stop-color="#FD6422"/>
<stop offset="0.2601" stop-color="#FC194A"/>
<stop offset="0.6054" stop-color="#FC125F"/>
<stop offset="1" stop-color="#9B2AA6"/>
</linearGradient>
</defs>
</svg>
