<svg width="24" height="24" viewBox="0 0 24 24" fill="none" xmlns="http://www.w3.org/2000/svg">
<path d="M12 24C18.6274 24 24 18.6274 24 12C24 5.37258 18.6274 0 12 0C5.37258 0 0 5.37258 0 12C0 18.6274 5.37258 24 12 24Z" fill="url(#paint0_linear_1847_5868)"/>
<path d="M14.8111 5.95544L6.33325 18.0434H8.93613L17.4579 5.95544H14.8111Z" fill="white"/>
<path d="M9.57895 6L12 9.2353L10.7368 11L7 6H9.57895Z" fill="url(#paint1_linear_1847_5868)"/>
<path d="M15.0909 18L12 13.9444L13.6115 12L18 18H15.0909Z" fill="url(#paint2_linear_1847_5868)"/>
<defs>
<linearGradient id="paint0_linear_1847_5868" x1="18" y1="1.6" x2="10" y2="23.6" gradientUnits="userSpaceOnUse">
<stop stop-color="#4D4C6A"/>
<stop offset="1" stop-color="#282844"/>
</linearGradient>
<linearGradient id="paint1_linear_1847_5868" x1="9.00001" y1="6.68628" x2="12.1779" y2="10.8053" gradientUnits="userSpaceOnUse">
<stop stop-color="white"/>
<stop offset="1" stop-color="white" stop-opacity="0.55"/>
</linearGradient>
<linearGradient id="paint2_linear_1847_5868" x1="16.1905" y1="18" x2="7.39142" y2="3.60609" gradientUnits="userSpaceOnUse">
<stop stop-color="#7370FF"/>
<stop offset="1" stop-color="#6966FF" stop-opacity="0.31"/>
</linearGradient>
</defs>
</svg>
