<svg width="24" height="24" viewBox="0 0 24 24" fill="none" xmlns="http://www.w3.org/2000/svg">
<circle cx="12" cy="12" r="12" fill="#0D022B"/>
<path d="M9.17052 7.41245C10.0218 6.84996 10.9608 6.58747 11.9999 6.57497C13.014 6.57497 13.9529 6.84996 14.8293 7.41245L16.6321 5.61248C15.2174 4.53749 13.69 4 11.9999 4C10.3098 4 8.75738 4.53749 7.38024 5.61248L9.17052 7.41245Z" fill="white"/>
<path d="M16.8074 7.17496C16.7448 7.11246 16.7072 7.04996 16.7072 6.96246C16.7072 6.87496 16.7448 6.81247 16.8074 6.74997C16.9325 6.63747 17.1329 6.63747 17.2706 6.74997C17.3332 6.81247 17.3707 6.87496 17.3707 6.96246C17.3707 7.04996 17.3332 7.11246 17.2706 7.17496C17.208 7.22496 17.1203 7.26246 17.0452 7.26246C16.9576 7.27496 16.8699 7.24996 16.8074 7.17496Z" fill="white"/>
<path d="M16.0061 8.03745C15.956 7.97495 15.9185 7.91245 15.9185 7.82495C15.9185 7.73745 15.956 7.67495 16.0061 7.61245C16.1188 7.49995 16.3191 7.49995 16.4318 7.61245C16.4819 7.67495 16.5194 7.73745 16.5194 7.82495C16.5194 7.91245 16.4819 7.97495 16.4318 8.03745C16.3692 8.08745 16.3066 8.12495 16.219 8.12495C16.1313 8.12495 16.0687 8.08745 16.0061 8.03745Z" fill="white"/>
<path d="M15.0421 8.64994C15.0421 8.73743 15.0797 8.81243 15.1298 8.86243C15.1799 8.91243 15.255 8.94993 15.3426 8.94993C15.4302 8.94993 15.4928 8.92493 15.5554 8.86243C15.6055 8.79993 15.6431 8.73743 15.6431 8.64994C15.6431 8.56244 15.6055 8.48744 15.5554 8.43744C15.4428 8.32494 15.2424 8.32494 15.1298 8.43744C15.0797 8.49994 15.0421 8.56244 15.0421 8.64994Z" fill="white"/>
<path d="M14.2909 9.69992C14.2283 9.64993 14.1908 9.57493 14.1908 9.48743C14.1908 9.39993 14.2283 9.33743 14.2909 9.27493C14.4161 9.16243 14.6164 9.16243 14.7541 9.27493C14.8167 9.32493 14.8543 9.39993 14.8543 9.48743C14.8543 9.57493 14.8167 9.64993 14.7541 9.69992C14.6915 9.76242 14.6039 9.78742 14.5288 9.78742C14.4412 9.78742 14.366 9.77492 14.2909 9.69992Z" fill="white"/>
<path d="M13.4021 10.3249C13.4021 10.4124 13.4271 10.4874 13.4897 10.5374C13.5398 10.6124 13.6274 10.6374 13.7026 10.6249C13.7902 10.6249 13.8653 10.5999 13.9154 10.5374C13.9655 10.4874 14.003 10.4124 14.003 10.3249C14.003 10.2374 13.978 10.1624 13.9154 10.1124C13.8027 9.99992 13.6024 9.99992 13.4897 10.1124C13.4396 10.1749 13.4021 10.2374 13.4021 10.3249Z" fill="white"/>
<path d="M12.5257 11.1624C12.5257 11.0749 12.5633 11.0124 12.6133 10.9499C12.726 10.8374 12.9263 10.8374 13.039 10.9499C13.1016 11.0124 13.1266 11.0749 13.1266 11.1624C13.1266 11.2499 13.0891 11.3124 13.039 11.3749C12.9889 11.4249 12.9138 11.4624 12.8262 11.4624C12.7385 11.4624 12.6759 11.4249 12.6133 11.3749C12.5507 11.3249 12.5257 11.2499 12.5257 11.1624Z" fill="white"/>
<path d="M10.8731 12.7999C10.8731 12.8874 10.9107 12.9624 10.9608 13.0124C11.0234 13.0874 11.0985 13.1124 11.1736 13.0999C11.2612 13.0999 11.3363 13.0749 11.3864 13.0124C11.4365 12.9499 11.4741 12.8874 11.4741 12.7999C11.4741 12.7124 11.449 12.6499 11.3864 12.5874C11.2737 12.4749 11.0734 12.4749 10.9608 12.5874C10.9107 12.6499 10.8731 12.7124 10.8731 12.7999Z" fill="white"/>
<path d="M10.0969 13.8499C10.0343 13.7999 9.99678 13.7249 9.99678 13.6374C9.99678 13.5499 10.0343 13.4874 10.0969 13.4249C10.2221 13.3124 10.4224 13.3124 10.5602 13.4249C10.6228 13.4874 10.6603 13.5499 10.6603 13.6374C10.6603 13.7249 10.6228 13.7874 10.5602 13.8499C10.4976 13.9124 10.4099 13.9374 10.3348 13.9374C10.2346 13.9499 10.1595 13.9124 10.0969 13.8499Z" fill="white"/>
<path d="M9.19554 14.4874C9.19554 14.5749 9.2331 14.6499 9.28317 14.6999L9.29723 14.7093C9.36482 14.7545 9.41395 14.7874 9.496 14.7874C9.58364 14.7874 9.64624 14.7624 9.70883 14.6999C9.75891 14.6374 9.79647 14.5749 9.79647 14.4874C9.79647 14.3999 9.75891 14.3249 9.70883 14.2749C9.59616 14.1624 9.39585 14.1624 9.28317 14.2749C9.2331 14.3249 9.19554 14.3999 9.19554 14.4874Z" fill="white"/>
<path d="M8.4444 15.5373C8.3818 15.4873 8.35676 15.4123 8.35676 15.3248C8.35676 15.2373 8.39432 15.1748 8.4444 15.1123C8.55707 14.9999 8.75738 14.9999 8.87005 15.1123C8.92013 15.1748 8.95769 15.2373 8.95769 15.3248C8.95769 15.4123 8.92013 15.4873 8.87005 15.5373C8.80746 15.5998 8.74486 15.6248 8.65722 15.6248C8.58211 15.6248 8.49447 15.5998 8.4444 15.5373Z" fill="white"/>
<path d="M7.48041 16.1623C7.48041 16.2498 7.51797 16.3248 7.58057 16.3748C7.63065 16.4373 7.70576 16.4623 7.7934 16.4623C7.86851 16.4623 7.95615 16.4248 8.01875 16.3748C8.08134 16.3248 8.1189 16.2498 8.1189 16.1623C8.1189 16.0748 8.08134 16.0123 8.01875 15.9498C7.90607 15.8373 7.70576 15.8373 7.58057 15.9498C7.51797 16.0123 7.48041 16.0748 7.48041 16.1623Z" fill="white"/>
<path d="M6.75427 17.2123C6.69168 17.1498 6.66664 17.0873 6.66664 16.9998C6.66664 16.9123 6.7042 16.8498 6.75427 16.7873C6.86695 16.6748 7.06726 16.6748 7.17993 16.7873C7.24253 16.8498 7.26757 16.9123 7.26757 16.9998C7.26757 17.0873 7.23001 17.1498 7.17993 17.2123C7.12986 17.2623 7.05474 17.2998 6.9671 17.2998C6.90451 17.3123 6.82939 17.2748 6.75427 17.2123Z" fill="white"/>
<path d="M7.26757 6.96246C7.26757 7.04996 7.23001 7.11246 7.17993 7.17496C7.12986 7.24996 7.05474 7.27496 6.9671 7.26246C6.87947 7.26246 6.80435 7.22496 6.75427 7.17496C6.7042 7.11246 6.66664 7.04996 6.66664 6.96246C6.66664 6.87496 6.69168 6.81247 6.75427 6.74997C6.86695 6.63747 7.06726 6.63747 7.17993 6.74997C7.23001 6.81247 7.26757 6.87496 7.26757 6.96246Z" fill="white"/>
<path d="M8.01875 8.03745C8.08135 7.97495 8.1189 7.91245 8.1189 7.82495C8.1189 7.73745 8.08135 7.67495 8.01875 7.61245C7.89356 7.49995 7.69325 7.49995 7.55553 7.61245C7.49294 7.67495 7.45538 7.73745 7.45538 7.82495C7.45538 7.91245 7.49294 7.97495 7.55553 8.03745C7.61813 8.08745 7.70577 8.12495 7.78088 8.12495C7.86852 8.11245 7.95615 8.08745 8.01875 8.03745Z" fill="white"/>
<path d="M8.95769 8.64994C8.95769 8.73743 8.92013 8.81243 8.87005 8.86243C8.80746 8.91243 8.73234 8.94993 8.65722 8.94993C8.56959 8.94993 8.50699 8.92493 8.4444 8.86243C8.39432 8.79993 8.35676 8.73743 8.35676 8.64994C8.35676 8.56244 8.39432 8.48744 8.4444 8.43744C8.55707 8.32494 8.75738 8.32494 8.87005 8.43744C8.92013 8.49994 8.95769 8.56244 8.95769 8.64994Z" fill="white"/>
<path d="M9.70883 9.69992C9.75891 9.64993 9.79647 9.57493 9.79647 9.48743C9.79647 9.39993 9.75891 9.33743 9.70883 9.27493C9.59616 9.16243 9.39585 9.16243 9.28317 9.27493C9.2331 9.32493 9.19554 9.39993 9.19554 9.48743C9.19554 9.57493 9.2331 9.64993 9.28317 9.69992C9.34577 9.76242 9.40837 9.78742 9.496 9.78742C9.57112 9.78742 9.64624 9.77492 9.70883 9.69992Z" fill="white"/>
<path d="M10.6353 10.3249C10.6353 10.4124 10.5977 10.4874 10.5351 10.5374C10.485 10.6124 10.3974 10.6374 10.3223 10.6249C10.2472 10.6249 10.1595 10.5999 10.0969 10.5374C10.0343 10.4874 9.99678 10.4124 9.99678 10.3249C9.99678 10.2374 10.0343 10.1624 10.0969 10.1124C10.2096 9.99992 10.4224 9.99992 10.5351 10.1124C10.5977 10.1749 10.6353 10.2374 10.6353 10.3249Z" fill="white"/>
<path d="M11.4741 11.1624C11.4741 11.0749 11.4365 11.0124 11.3864 10.9499C11.2737 10.8374 11.0734 10.8374 10.9608 10.9499C10.8982 11.0124 10.8731 11.0749 10.8731 11.1624C10.8731 11.2499 10.9107 11.3124 10.9608 11.3749C11.0108 11.4249 11.086 11.4624 11.1736 11.4624C11.2612 11.4624 11.3238 11.4249 11.3864 11.3749C11.449 11.3249 11.4741 11.2499 11.4741 11.1624Z" fill="white"/>
<path d="M12.3129 12.0124C12.3129 12.0999 12.2879 12.1624 12.2253 12.2249C12.1752 12.2749 12.1001 12.3124 12.0124 12.3124C11.9248 12.3124 11.8497 12.2749 11.7996 12.2249C11.7495 12.1624 11.712 12.0999 11.712 12.0124C11.712 11.9249 11.737 11.8624 11.7996 11.7999C11.9123 11.6874 12.1126 11.6874 12.2253 11.7999C12.2753 11.8624 12.3129 11.9249 12.3129 12.0124Z" fill="white"/>
<path d="M13.064 13.0124C13.1266 12.9624 13.1642 12.8874 13.1642 12.7999C13.1642 12.7124 13.1266 12.6499 13.064 12.5874C12.9389 12.4749 12.7385 12.4749 12.6259 12.5874C12.5633 12.6499 12.5257 12.7124 12.5257 12.7999C12.5257 12.8874 12.5633 12.9499 12.6259 13.0124C12.6885 13.0749 12.7761 13.0999 12.8512 13.0999C12.9138 13.1124 13.0014 13.0874 13.064 13.0124Z" fill="white"/>
<path d="M14.003 13.6374C14.003 13.7249 13.9655 13.7999 13.9154 13.8499C13.8528 13.9124 13.7652 13.9499 13.7026 13.9374C13.6149 13.9374 13.5523 13.9124 13.4897 13.8499C13.4396 13.7874 13.4021 13.7249 13.4021 13.6374C13.4021 13.5499 13.4396 13.4874 13.4897 13.4249C13.6024 13.3124 13.8027 13.3124 13.9154 13.4249C13.9655 13.4874 14.003 13.5499 14.003 13.6374Z" fill="white"/>
<path d="M14.7541 14.6999C14.8042 14.6499 14.8418 14.5749 14.8418 14.4874C14.8418 14.3999 14.8042 14.3249 14.7541 14.2749C14.6415 14.1624 14.4411 14.1624 14.3285 14.2749C14.2784 14.3249 14.2408 14.3999 14.2408 14.4874C14.2408 14.5749 14.2784 14.6374 14.3285 14.6999C14.3911 14.7624 14.4537 14.7874 14.5413 14.7874C14.6289 14.7874 14.6915 14.7499 14.7541 14.6999Z" fill="white"/>
<path d="M15.6305 15.3248C15.6305 15.4123 15.6055 15.4873 15.5429 15.5373C15.4928 15.5998 15.4052 15.6248 15.3301 15.6248C15.2424 15.6248 15.1798 15.5998 15.1172 15.5373C15.0672 15.4873 15.0296 15.4123 15.0296 15.3248C15.0296 15.2373 15.0672 15.1748 15.1172 15.1123C15.2299 14.9999 15.4302 14.9999 15.5429 15.1123C15.593 15.1748 15.6305 15.2373 15.6305 15.3248Z" fill="white"/>
<path d="M16.4318 16.3748C16.4944 16.3248 16.5194 16.2498 16.5194 16.1623C16.5194 16.0748 16.4819 16.0123 16.4318 15.9498C16.3191 15.8373 16.1188 15.8373 16.0061 15.9498C15.9435 16.0123 15.9185 16.0748 15.9185 16.1623C15.9185 16.2498 15.956 16.3248 16.0061 16.3748C16.0562 16.4248 16.1313 16.4623 16.219 16.4623C16.3066 16.4623 16.3817 16.4373 16.4318 16.3748Z" fill="white"/>
<path d="M17.3707 16.9998C17.3707 17.0873 17.3332 17.1498 17.2706 17.2123C17.1955 17.2748 17.1204 17.3123 17.0578 17.2998C16.9826 17.2998 16.895 17.2623 16.8324 17.2123C16.7698 17.1498 16.7323 17.0873 16.7323 16.9998C16.7323 16.9123 16.7698 16.8498 16.8324 16.7873C16.9451 16.6748 17.1454 16.6748 17.2706 16.7873C17.3332 16.8498 17.3707 16.9123 17.3707 16.9998Z" fill="white"/>
<path d="M6.5164 11.9999C6.5164 12.9999 6.79182 13.9249 7.36772 14.7999L5.58996 16.6248C4.52581 15.2248 4 13.6874 4 12.0124C4 10.3124 4.52581 8.78744 5.57744 7.41245L7.36772 9.19993C6.79182 10.0499 6.5164 10.9874 6.5164 11.9999Z" fill="white"/>
<path d="M14.8167 16.5873C13.9654 17.1623 13.0265 17.4623 12.0124 17.4748C10.9733 17.4748 10.0218 17.1998 9.1705 16.5998L7.36771 18.3873C8.75736 19.4748 10.3098 20.0123 12.0124 19.9998C13.7025 19.9873 15.2299 19.4373 16.607 18.3873L14.8167 16.5873Z" fill="white"/>
<path d="M17.4333 12.0249C17.4583 10.9999 17.1579 10.0499 16.582 9.17493L18.3848 7.34996C19.474 8.73744 20.0123 10.2874 19.9998 11.9874C19.9998 13.6624 19.4489 15.1874 18.3848 16.5623L16.582 14.7749C17.1328 13.9374 17.4208 13.0249 17.4333 12.0249Z" fill="white"/>
<path d="M18.4599 17.1498C19.1484 17.1498 19.7243 17.7123 19.7243 18.4123C19.7243 19.0998 19.161 19.6748 18.4599 19.6748C17.7713 19.6748 17.1954 19.1123 17.1954 18.4123C17.1954 17.7123 17.7588 17.1498 18.4599 17.1498Z" fill="white"/>
<path d="M6.81686 18.4123C6.81686 17.7123 6.25349 17.1498 5.56492 17.1498C4.87636 17.1498 4.31298 17.7123 4.31298 18.4123C4.31298 19.1123 4.87636 19.6748 5.56492 19.6748C6.25349 19.6748 6.81686 19.0998 6.81686 18.4123Z" fill="white"/>
<path d="M18.485 4.275C19.1735 4.275 19.7369 4.83749 19.7369 5.53748C19.7369 6.23747 19.1735 6.79997 18.485 6.79997C17.7964 6.79997 17.233 6.23747 17.233 5.53748C17.233 4.83749 17.7964 4.275 18.485 4.275Z" fill="white"/>
<path d="M6.80433 5.52498C6.80433 4.83749 6.22844 4.275 5.53987 4.275C4.83879 4.275 4.27542 4.83749 4.27542 5.52498C4.27542 6.21247 4.85131 6.77497 5.53987 6.77497C6.24096 6.77497 6.80433 6.21247 6.80433 5.52498Z" fill="white"/>
</svg>
