<svg width="24" height="24" viewBox="0 0 24 24" fill="none" xmlns="http://www.w3.org/2000/svg">
<circle cx="12" cy="12" r="12" fill="url(#paint0_radial)"/>
<path d="M19.6226 7.456C21.2992 9.03783 22.5734 11.0102 22.835 13.3732C23.405 18.5744 19.2336 23.2743 13.5198 23.8602C7.80592 24.4461 2.71576 20.7096 2.14571 15.5084C1.57567 10.3072 4.80816 10.6587 10.522 10.0663C13.6405 9.74738 18.6099 6.49909 19.6226 7.456Z" fill="url(#paint1_radial)"/>
<path d="M20.4491 9.26897L20.4359 9.11691H18.4717L20.4491 7.42435L20.4425 7.34501C20.3631 5.39459 19.4637 4.13178 19.4306 4.07889L19.3843 3.98633H8.77654C7.77132 3.98633 5.827 4.29707 4.39852 5.89707C3.77687 6.59129 2.44097 8.68715 2.4542 11.0343C2.46081 12.3566 2.59308 13.3814 3.08908 14.5318C3.34039 15.1136 3.62476 15.6491 3.93559 16.1186C4.94081 17.9235 6.03863 19.1797 7.19596 19.8541C8.17473 20.4227 9.04769 20.502 9.76854 20.502H15.7867L15.8197 20.4822C15.8396 20.4756 17.8104 19.4442 19.5827 18.3665L19.6356 18.3334L19.6555 18.2805C19.6621 18.2607 19.6687 18.2475 19.6753 18.2277C19.6885 18.1946 19.7018 18.1615 19.715 18.1219C19.9332 17.4938 20.1184 16.145 20.2044 15.4045C20.2374 15.1334 20.2639 14.9549 20.2639 14.9549L20.2837 14.7698H20.2771L20.2904 14.6177H18.1873L20.4359 12.9119L20.4425 12.8392C20.588 11.1797 20.4491 9.28881 20.4491 9.26897Z" fill="url(#paint2_linear)"/>
<path d="M11.613 16.6483C11.613 16.6483 9.64222 16.84 3.8291 15.3193C6.20329 19.9408 8.41876 20.1921 10.0721 20.1921C11.4344 20.1921 15.7133 20.1921 15.7133 20.1921C15.7133 20.1921 17.5848 19.1739 19.3638 18.0962L11.613 16.6483Z" fill="white"/>
<path d="M10.072 20.0335C9.35774 20.0335 8.35913 20.0401 7.36713 19.3922C5.64105 18.2682 5.0723 17.3823 4.08691 15.5244C8.51785 16.6616 10.6407 16.7872 11.3616 16.7872C11.4939 16.7872 11.5732 16.7806 11.6063 16.7806L19.2579 18.0236C17.6906 18.9624 15.8388 19.9211 15.6272 20.0335H10.072Z" fill="url(#paint3_linear)"/>
<path d="M7.88294 14.843C7.88294 14.843 6.93062 13.7389 6.59996 12.8992L17.3797 14.843L20.1441 12.7537C20.1374 11.0347 20.1308 9.39507 20.1308 9.39507H6.59996C6.59996 9.39507 7.07612 8.02647 7.94246 7.47771L17.8162 9.32234L20.1441 7.33226C20.0515 5.46118 19.1521 4.31738 19.1521 4.31738H13.7556C9.95953 4.31738 8.72945 4.31738 8.72945 4.31738C7.81681 4.31738 5.95846 4.51573 4.56305 6.08267C3.16102 7.64962 1.91772 11.1339 3.26022 14.3868C4.62257 17.686 6.39494 18.1091 7.39356 18.1091C9.23868 18.1091 19.3703 18.1091 19.3703 18.1091C19.3901 18.0628 19.41 18.0166 19.4232 17.9571C19.7142 16.9852 19.9589 14.8496 19.9589 14.8496H17.3797H7.88294V14.843Z" fill="white"/>
<path d="M10.7664 5.41504C10.7664 5.41504 6.87773 6.17537 6.68594 6.26793C6.49415 6.36049 5.74023 9.77868 5.74023 9.77868H17.0424L19.9391 7.32578L10.7664 5.41504Z" fill="url(#paint4_linear)"/>
<path d="M10.8394 10.8359C10.8394 10.8359 6.95075 11.5963 6.75896 11.6888C6.56717 11.7814 5.80664 15.1996 5.80664 15.1996H16.6922L20.0187 12.6872L10.8394 10.8359Z" fill="url(#paint5_linear)"/>
<path d="M20.1449 12.7466H6.60739C6.93806 13.5863 7.89038 14.6904 7.89038 14.6904H19.9663C19.9663 14.6904 19.7282 17.0706 19.4174 17.95C19.4174 17.95 8.08216 17.95 7.7515 17.95C6.2635 17.95 4.66307 17.4541 3.26766 14.2276C1.86563 11.0012 3.17507 7.49044 4.57049 5.92349C5.97251 4.35655 7.83086 4.1582 8.73689 4.1582C8.73689 4.1582 9.97358 4.1582 13.763 4.1582H19.1529C19.1529 4.1582 20.0523 5.40118 20.1317 7.32515H7.9499C7.09017 7.8673 6.60739 9.24251 6.60739 9.24251H20.1383C20.1449 9.24251 20.2772 11.1004 20.1449 12.7466Z" fill="url(#paint6_linear)"/>
<path d="M18.0479 3.37879C18.0479 3.37879 13.3392 1.51433 9.09347 3.91433C5.36355 6.01681 1.14425 9.3821 4.27897 16.2912C1.44185 12.2515 1.4154 8.96557 3.63747 5.52094C5.74713 2.26805 11.9372 -0.69394 18.0479 3.37879Z" fill="url(#paint7_linear)"/>
<path opacity="0.4" d="M11.9902 0C5.52232 0 0.0332577 5.18348 0.000191052 11.9868C-0.00642228 13.1504 0.158911 14.2876 0.456511 15.3389C0.456511 15.3389 0.449898 15.2199 0.443284 15.0149C0.403604 13.7587 0.568938 9.14381 2.92328 9.54712C5.27763 9.95043 8.72979 10.6446 12.8102 9.52067C16.8906 8.39671 20.1444 4.58182 18.048 1.63967C18.048 1.63967 15.5944 0 11.9902 0Z" fill="url(#paint8_linear)"/>
<path d="M10.0322 4.22575C10.3232 4.97305 9.32458 5.85924 8.07466 6.13039C6.82474 6.40153 5.5616 5.99151 5.34336 5.22436C4.99285 4.00751 6.2097 3.57103 7.45962 3.29988C8.70954 3.03535 9.44362 2.73113 10.0322 4.22575Z" fill="white"/>
<defs>
<radialGradient id="paint0_radial" cx="0" cy="0" r="1" gradientUnits="userSpaceOnUse" gradientTransform="translate(4.73791 3.84942) scale(13.3318)">
<stop stop-color="#77FFFF"/>
<stop offset="0.3939" stop-color="#87E4FF"/>
<stop offset="0.8606" stop-color="#6273FF"/>
<stop offset="1" stop-color="#9468FF"/>
</radialGradient>
<radialGradient id="paint1_radial" cx="0" cy="0" r="1" gradientUnits="userSpaceOnUse" gradientTransform="translate(12.5294 15.2387) rotate(-5.88517) scale(9.49471 10.6632)">
<stop offset="0.497" stop-color="#00FFFF"/>
<stop offset="1" stop-color="#00F4FF" stop-opacity="0"/>
</radialGradient>
<linearGradient id="paint2_linear" x1="13.9434" y1="12.3512" x2="20.4524" y2="16.6118" gradientUnits="userSpaceOnUse">
<stop stop-color="#5A27ED"/>
<stop offset="1" stop-color="#AB37F4"/>
</linearGradient>
<linearGradient id="paint3_linear" x1="4.68729" y1="16.6311" x2="17.3945" y2="19.8442" gradientUnits="userSpaceOnUse">
<stop offset="2.05407e-07" stop-color="#7618F4"/>
<stop offset="0.5036" stop-color="#575FF8"/>
<stop offset="1" stop-color="#09FFFF"/>
</linearGradient>
<linearGradient id="paint4_linear" x1="8.1492" y1="7.58494" x2="18.7618" y2="8.66052" gradientUnits="userSpaceOnUse">
<stop offset="2.05407e-07" stop-color="#7F4CFF"/>
<stop offset="1" stop-color="#3095FF"/>
</linearGradient>
<linearGradient id="paint5_linear" x1="7.79223" y1="11.0805" x2="17.0425" y2="16.2525" gradientUnits="userSpaceOnUse">
<stop offset="2.05407e-07" stop-color="#7F52FF"/>
<stop offset="1" stop-color="#3096FF"/>
</linearGradient>
<linearGradient id="paint6_linear" x1="16.8789" y1="15.3355" x2="12.7503" y2="11.2058" gradientUnits="userSpaceOnUse">
<stop stop-color="white"/>
<stop offset="0.1573" stop-color="#FBFFFF"/>
<stop offset="0.3191" stop-color="#EFFFFF"/>
<stop offset="0.4829" stop-color="#DAFFFF"/>
<stop offset="0.6481" stop-color="#BDFFFE"/>
<stop offset="0.8144" stop-color="#98FFFE"/>
<stop offset="0.9795" stop-color="#6BFFFD"/>
<stop offset="1" stop-color="#65FFFD"/>
</linearGradient>
<linearGradient id="paint7_linear" x1="4.06686" y1="16.1671" x2="13.112" y2="0.496378" gradientUnits="userSpaceOnUse">
<stop stop-color="white" stop-opacity="0"/>
<stop offset="0.5154" stop-color="#E6FFFF"/>
<stop offset="1" stop-color="#CEFFFF" stop-opacity="0.5"/>
</linearGradient>
<linearGradient id="paint8_linear" x1="0.00071359" y1="7.67031" x2="18.7005" y2="7.67031" gradientUnits="userSpaceOnUse">
<stop stop-color="white"/>
<stop offset="0.8672" stop-color="white" stop-opacity="0.3062"/>
<stop offset="1" stop-color="white" stop-opacity="0.2"/>
</linearGradient>
</defs>
</svg>
