<svg width="24" height="24" viewBox="0 0 24 24" fill="none" xmlns="http://www.w3.org/2000/svg">
<path d="M24.0002 12C24.0002 5.37258 18.6277 0 12.0002 0C5.37283 0 0.000244141 5.37258 0.000244141 12C0.000244141 18.6274 5.37283 24 12.0002 24C18.6277 24 24.0002 18.6274 24.0002 12Z" fill="url(#paint0_linear_1526_5744)"/>
<path d="M6.78853 7.83236C6.93584 7.5589 7.14838 7.32576 7.40753 7.15354L11.756 4.12805L7.30045 11.4687C7.30045 11.4687 6.91117 10.8133 6.75929 10.4816C6.57013 10.0645 6.4747 9.61138 6.47974 9.15375C6.48478 8.69612 6.59019 8.24511 6.78853 7.83236ZM4.99385 12.8962C5.04296 13.5982 5.24201 14.2816 5.57773 14.9007C5.91339 15.5198 6.37798 16.0603 6.94035 16.486L11.7501 19.8277C11.7501 19.8277 8.74083 15.5066 6.20264 11.2069C5.94565 10.7527 5.77289 10.256 5.69264 9.74074C5.65712 9.50741 5.65712 9.27005 5.69264 9.03672C5.62645 9.15893 5.498 9.40911 5.498 9.40911C5.24062 9.93207 5.06533 10.4913 4.97825 11.0673C4.92814 11.6761 4.93337 12.2882 4.99385 12.8962ZM17.2568 13.478C17.101 13.1463 16.7156 12.4908 16.7156 12.4908L12.2679 19.8277L16.6164 16.8041C16.8755 16.6319 17.0881 16.3988 17.2354 16.1253C17.4337 15.7125 17.5391 15.2615 17.5442 14.8039C17.5492 14.3463 17.4538 13.8931 17.2646 13.4761L17.2568 13.478ZM19.0222 11.0615C18.9731 10.3595 18.7741 9.67604 18.4384 9.05693C18.1027 8.43783 17.6381 7.8973 17.0757 7.47164L12.2737 4.12805C12.2737 4.12805 15.2811 8.44906 17.8213 12.7488C18.0775 13.2032 18.2496 13.6998 18.3293 14.215C18.3648 14.4483 18.3648 14.6857 18.3293 14.919C18.3955 14.7968 18.5239 14.5466 18.5239 14.5466C18.7813 14.0236 18.9566 13.4644 19.0436 12.8884C19.0944 12.2796 19.0899 11.6675 19.0301 11.0595L19.0222 11.0615Z" fill="white"/>
<defs>
<linearGradient id="paint0_linear_1526_5744" x1="22.2482" y1="31.824" x2="-2.63399" y2="-1.56601" gradientUnits="userSpaceOnUse">
<stop stop-color="#DE82FF"/>
<stop offset="1" stop-color="#7F6AFF"/>
</linearGradient>
</defs>
</svg>
