<?xml version="1.0" encoding="UTF-8"?>
<svg width="24px" height="24px" viewBox="0 0 24 24" version="1.1" xmlns="http://www.w3.org/2000/svg" xmlns:xlink="http://www.w3.org/1999/xlink">
    <title>Token Symbol/EOS</title>
    <g id="Token-Symbol/EOS" stroke="none" stroke-width="1" fill="none" fill-rule="evenodd">
        <path d="M23.6382977,14.9030984 C22.0355477,21.3317234 15.5244227,25.2440984 9.09504771,23.6409734 C2.66829771,22.0382234 -1.24407729,15.5267234 0.359422711,9.09847338 C1.96142271,2.66909838 8.47254771,-1.24365162 14.9000477,0.359098378 C21.3290477,1.96184838 25.2410477,8.47409838 23.6382977,14.9030984 Z" id="Oval" fill="#3892E3" fill-rule="nonzero"></path>
        <path d="M10.6740686,17.4966212 L11.46,19.999 L7.678,17.496 L10.6740686,17.4966212 Z M16.324,17.496 L12.542,19.998 L13.3294844,17.4966212 L16.324,17.496 Z M12.7098874,17.4966212 L12.0017765,19.7475013 L11.2936656,17.4966212 L12.7098874,17.4966212 Z M12.0017765,7.86702844 L14.3916507,12.1451912 L12.9016674,16.9003616 L11.1018856,16.9003616 L9.61190227,12.1451912 L12.0017765,7.86702844 Z M14.7899631,12.8457962 L17.0003593,16.7905657 C16.988876,16.8491875 16.9666602,16.9076129 16.9444444,16.954513 L16.966,16.9 L13.5212644,16.9003616 L14.7899631,12.8457962 Z M9.2135899,12.8457962 L10.4822886,16.9003616 L7.03824003,16.9013686 C7.02241422,16.8632265 7.00821855,16.8222166 7,16.7875159 L7.002,16.793 L9.2135899,12.8457962 Z M15.685,10.028 L16.739,15.1 L15.0407524,12.0706587 L15.685,10.028 Z M8.321,10.041 L8.96280063,12.0706587 L7.278,15.077 L8.321,10.041 Z M12.2964218,4.99959179 C12.4238433,5.05366481 12.5359766,5.14452191 12.616351,5.264712 L12.616351,5.264712 L15.327,9.174 L14.64244,11.3700537 L12.2968227,7.18132988 Z M11.7060544,5.00382368 L11.7067303,7.18132988 L9.361113,11.3551472 L8.681,9.178 L11.3958965,5.264712 C11.47421,5.1476037 11.5826746,5.05834344 11.7060544,5.00382368 Z" id="EOS" fill="#FFFFFF"></path>
    </g>
</svg>