<svg width="24" height="24" viewBox="0 0 24 24" fill="none" xmlns="http://www.w3.org/2000/svg">
<circle cx="12" cy="12" r="12" fill="#313131"/>
<path fill-rule="evenodd" clip-rule="evenodd" d="M11.425 20.0907C10.3202 20.3607 9.19044 20.4007 8.06064 20.3507C6.5959 20.4207 5.20615 20.1657 3.98136 19.3159C2.86656 18.536 2.22668 17.4512 2.05171 16.0964C1.87174 14.7167 2.17668 13.4169 2.73159 12.1671C3.30648 10.8674 4.11634 9.72756 5.09117 8.69274C6.84586 6.82807 8.93549 5.46831 11.3551 4.62846C12.6498 4.17854 13.9896 3.93859 15.3743 4.01357C15.5008 4.01357 15.6278 4.01191 15.755 4.01025C16.01 4.00691 16.2657 4.00357 16.5191 4.01357C17.9589 4.06856 19.2986 4.4085 20.4184 5.38333C20.6384 5.5733 20.8384 5.78326 21.0083 6.02322C21.5682 6.6831 21.8332 7.46796 21.9482 8.31281C22.0982 9.45261 21.8932 10.5524 21.4983 11.6122C21.0483 12.807 20.4134 13.9068 19.5886 14.8866C19.5201 14.9676 19.4525 15.0496 19.3848 15.1317C19.1263 15.4451 18.8667 15.76 18.5538 16.0214C18.5016 16.0696 18.4495 16.1178 18.3974 16.1661C17.8649 16.6588 17.3306 17.1532 16.7341 17.5812C16.0992 18.0361 15.4493 18.456 14.7645 18.8259C13.7096 19.3958 12.5898 19.8058 11.425 20.0907ZM8.35059 15.1116C8.64054 15.4415 9.04047 15.5315 9.44539 15.6115C10.3902 15.5765 11.2201 15.1916 12.0149 14.7117C13.3697 13.9068 14.4295 12.817 15.1094 11.3823C15.4143 10.7374 15.5693 10.0525 15.6393 9.34263C15.6493 9.23765 15.6043 9.16766 15.5193 9.11767C15.1994 8.9327 14.8744 8.76773 14.4945 8.75273C13.7346 8.83272 13.0348 9.10767 12.3699 9.46761C10.7352 10.3574 9.49039 11.6122 8.77551 13.3519C8.57055 13.8518 8.44057 14.3767 8.39558 14.9166C8.39225 14.96 8.38003 15.0033 8.36781 15.0466C8.3617 15.0683 8.35559 15.0899 8.35059 15.1116Z" fill="#424242"/>
<path d="M15.3697 4.01838C15.7496 4.01838 16.1346 4.00339 16.5145 4.01838C17.9542 4.06838 19.299 4.41331 20.4188 5.38814C20.6388 5.57811 20.8387 5.78807 21.0087 6.02803C20.3288 5.6331 19.589 5.41814 18.8141 5.37314C17.3544 5.28316 15.9346 5.50312 14.5499 5.94804C13.4101 6.29298 12.3202 6.7629 11.3054 7.39279C10.1356 8.11266 9.10082 8.9875 8.36595 10.1523C7.76606 11.1021 7.48611 12.1569 7.67107 13.2917C7.78105 13.9416 7.97102 14.5715 8.35095 15.1214C8.6409 15.4514 9.04083 15.5363 9.44576 15.6213C9.97566 15.7263 10.5056 15.6963 11.0255 15.5863C12.6652 15.2464 13.995 14.3615 15.1098 13.1518C16.1246 12.047 16.7645 10.7522 16.8644 9.22746C16.8794 9.24746 16.9044 9.26245 16.9144 9.28245C17.8043 10.8722 17.8693 12.4769 16.9494 14.0766C16.3645 15.0914 15.5197 15.8563 14.5948 16.5462C13.82 17.0461 13.0301 17.516 12.1803 17.8809C10.8105 18.4658 9.39077 18.8757 7.90603 19.0007C7.19616 19.0607 6.48128 19.0607 5.76641 18.9357C5.23651 18.8408 4.75159 18.6208 4.26668 18.4108C3.5868 17.626 3.30185 16.6961 3.24686 15.6813C3.16187 14.1016 3.65179 12.6668 4.40165 11.3071C4.78159 10.6222 5.2365 9.99232 5.73142 9.38243C6.47129 8.47259 7.31114 7.67274 8.24097 6.97286C9.30578 6.168 10.4406 5.47313 11.6954 4.98321C12.3003 4.74825 12.9101 4.54329 13.53 4.36832C14.1349 4.18335 14.7548 4.11837 15.3697 4.01838Z" fill="url(#paint0_linear)"/>
<path d="M15.3693 4.01866C14.7545 4.11864 14.1346 4.18363 13.5347 4.3586C12.9148 4.53857 12.3049 4.73853 11.7 4.97349C10.4452 5.46341 9.31042 6.15828 8.24561 6.96314C7.31577 7.66302 6.47592 8.46287 5.73605 9.37271C5.24114 9.9826 4.78122 10.6125 4.40629 11.2974C3.65642 12.6571 3.16651 14.0919 3.25149 15.6716C3.30648 16.6814 3.59143 17.6163 4.27131 18.4011C4.86121 19.186 5.65607 19.6759 6.56591 20.0008C7.05082 20.1758 7.56073 20.2508 8.06564 20.3508C6.5959 20.4208 5.20615 20.1658 3.98136 19.311C2.86656 18.5361 2.22668 17.4513 2.05171 16.0965C1.87174 14.7168 2.17668 13.417 2.73159 12.1672C3.30648 10.8674 4.11634 9.72765 5.09117 8.69283C6.84586 6.82816 8.93548 5.46841 11.3501 4.62855C12.6448 4.17863 13.9896 3.94368 15.3693 4.01866Z" fill="#3A315A"/>
<path d="M14.6047 16.5415C15.4095 15.9816 16.3793 15.0868 16.9592 14.0719C17.8791 12.4722 17.8141 10.8725 16.9242 9.2778L16.8742 9.22281C16.4643 8.87287 15.9644 8.77289 15.4495 8.7029H14.4747C13.7148 8.78289 13.0399 9.11283 12.38 9.47277C10.7453 10.3626 9.50555 11.6224 8.78568 13.3571C8.58072 13.857 8.45074 14.3769 8.40575 14.9218C8.40242 14.9651 8.3902 15.0085 8.37798 15.0518C8.37187 15.0734 8.36576 15.0951 8.36076 15.1168C7.97583 14.5669 7.78586 13.937 7.68088 13.2871C7.49091 12.1523 7.77086 11.0925 8.37575 10.1476C9.10563 8.98285 10.1404 8.10801 11.3052 7.38814C12.3201 6.75825 13.4049 6.28833 14.5497 5.94339C15.9394 5.49847 17.3592 5.27851 18.8139 5.36849C19.5938 5.41849 20.3336 5.62845 21.0085 6.02338C21.5684 6.68326 21.8334 7.46812 21.9483 8.31297C22.1033 9.45277 21.8984 10.5476 21.4984 11.6124C21.0485 12.8122 20.4186 13.907 19.5888 14.8868C19.5203 14.9677 19.4528 15.0496 19.3852 15.1316L19.3851 15.1317L19.385 15.1318C19.1279 15.4437 18.8696 15.7569 18.5588 16.0175L18.559 16.0216C18.4799 16.094 18.4011 16.1665 18.3223 16.239L18.3221 16.2392C17.8134 16.7076 17.3063 17.1745 16.7393 17.5813C16.1044 18.0362 15.4545 18.4562 14.7696 18.8261C13.7148 19.396 12.595 19.8109 11.4302 20.0909C10.3254 20.3608 9.20061 20.4008 8.06581 20.3508C7.96555 20.331 7.8651 20.3121 7.76469 20.2933L7.76467 20.2933C7.35939 20.2171 6.95469 20.1411 6.56608 20.0009C5.65624 19.676 4.86138 19.186 4.27148 18.4012L4.40099 18.4569L4.40204 18.4574C4.84718 18.6493 5.28845 18.8396 5.77122 18.9261C6.48109 19.0561 7.20096 19.0561 7.91084 18.9911C9.39558 18.8661 10.8153 18.4612 12.1851 17.8713C12.1851 17.8713 13.7998 17.1014 14.6047 16.5415Z" fill="url(#paint1_linear)"/>
<path d="M20.6985 13.31C21.0105 12.7704 21.2764 12.2039 21.4984 11.6119C21.8983 10.5471 22.1033 9.4523 21.9483 8.3125C21.8333 7.46765 21.5684 6.68279 21.0085 6.02291C20.6892 5.83609 20.3554 5.69067 20.0098 5.58398C20.4352 6.18685 20.6498 6.87866 20.7502 7.6162C20.8925 8.69748 20.7153 9.74277 20.3596 10.7521H20.6985V13.31Z" fill="#EA8BE4"/>
<path d="M10.2578 20.2952C10.6489 20.251 11.038 20.1847 11.4246 20.0902C12.5894 19.8103 13.7092 19.3954 14.764 18.8255C15.4489 18.4555 16.0988 18.0356 16.7336 17.5807C17.3007 17.1738 17.8077 16.707 18.3165 16.2386C18.3953 16.166 18.4742 16.0934 18.5533 16.021L18.5532 16.0169C18.864 15.7562 19.1222 15.443 19.3794 15.1312L19.3795 15.131C19.4471 15.049 19.5147 14.967 19.5831 14.8862C20.413 13.9063 21.0429 12.8115 21.4928 11.6118C21.8927 10.5469 22.0977 9.45214 21.9427 8.31234C21.8762 7.82397 21.7597 7.35565 21.565 6.91992C21.4583 7.57946 21.2916 8.22958 21.0809 8.87195C20.5278 10.561 19.7534 12.1023 18.7331 13.4817C18.649 13.5955 18.5659 13.7109 18.4827 13.8264L18.4826 13.8266C18.1665 14.2656 17.849 14.7066 17.4669 15.0735L17.467 15.0793C17.3698 15.1812 17.2728 15.2834 17.176 15.3855L17.1758 15.3856C16.5504 16.045 15.927 16.7023 15.2299 17.2751C15.0497 17.4229 14.8685 17.5681 14.6861 17.7104L14.6859 17.7141L14.6861 17.7104C14.0781 18.1847 13.456 18.6269 12.8083 19.0275C11.988 19.5349 11.1358 19.9551 10.2578 20.2952Z" fill="url(#paint2_linear)"/>
<path d="M14.4992 8.75812C14.5492 8.74312 14.6042 8.72812 14.6542 8.71312C14.6891 8.71312 14.7191 8.70812 14.7541 8.70812C14.9841 8.70812 15.2191 8.70312 15.449 8.70312C15.9589 8.77311 16.4638 8.87309 16.8738 9.22303C16.7688 10.7478 16.1339 12.0425 15.1191 13.1473C14.0043 14.3571 12.6745 15.242 11.0348 15.5819C10.5099 15.6919 9.98498 15.7219 9.45508 15.6169C10.3999 15.5819 11.2298 15.197 12.0196 14.7271C13.3744 13.9222 14.4342 12.8324 15.1141 11.3976C15.419 10.7528 15.579 10.0679 15.644 9.35801C15.654 9.25303 15.609 9.18304 15.524 9.13305C15.2041 8.93808 14.8741 8.77311 14.4992 8.75812Z" fill="#4E3759"/>
<path d="M15.4439 8.70227C15.2139 8.70227 14.979 8.70727 14.749 8.70727C14.984 8.62729 15.2139 8.63728 15.4439 8.70227Z" fill="#7C69AF"/>
<defs>
<linearGradient id="paint0_linear" x1="20.1489" y1="5.22817" x2="3.52681" y2="17.7509" gradientUnits="userSpaceOnUse">
<stop stop-color="#1867E8"/>
<stop offset="1" stop-color="#63B0DC"/>
</linearGradient>
<linearGradient id="paint1_linear" x1="21.2735" y1="6.10336" x2="4.80139" y2="19.501" gradientUnits="userSpaceOnUse">
<stop stop-color="#ED6DEC"/>
<stop offset="1" stop-color="#2463E6"/>
</linearGradient>
<linearGradient id="paint2_linear" x1="23.0975" y1="10.252" x2="10.2498" y2="20.5502" gradientUnits="userSpaceOnUse">
<stop stop-color="#DC63CE"/>
<stop offset="1" stop-color="#3E5CDF"/>
</linearGradient>
</defs>
</svg>
