<svg width="24" height="24" viewBox="0 0 24 24" fill="none" xmlns="http://www.w3.org/2000/svg">
<circle cx="12" cy="12" r="12" fill="#0B8311"/>
<path d="M12.0196 7.77423L7 11.0372L11.9986 2L12 2.00249L12 2L17 11.0574L12.0196 7.77423Z" fill="white"/>
<path d="M12.0235 8.79555L7.19148 11.9797L12.0258 15.1434L12.0258 15.1453L12.0272 15.1443L12.0287 15.1453L12.4598 14.857L16.8265 11.9561L12.4035 9.04412L12.0259 8.79391L12.0247 8.79473L12.0235 8.79391L12.0235 8.79555Z" fill="white"/>
<path d="M12.0196 16.192C10.5998 15.2563 8.7616 14.0471 7 12.8919C8.19174 15.0601 9.61416 17.6383 10.9935 20.1384L12.0187 21.9968V22C12.0187 22 12.0191 21.9995 12.0197 21.9985L12.0205 22C12.0283 21.9858 12.0361 21.9716 12.0439 21.9575C12.3579 21.4257 15.5322 16.034 16.9999 12.892C17 12.892 16.9999 12.8921 16.9999 12.892L12.0196 16.192Z" fill="white"/>
</svg>
