<svg width="24" height="24" viewBox="0 0 24 24" fill="none" xmlns="http://www.w3.org/2000/svg">
<path fill-rule="evenodd" clip-rule="evenodd" d="M0.000244141 12C0.000244141 5.3726 5.37285 0 12.0002 0C18.6276 0 24.0002 5.3726 24.0002 12C24.0002 18.6274 18.6276 24 12.0002 24C5.37285 24 0.000244141 18.6274 0.000244141 12Z" fill="url(#paint0_linear_1356_5534)"/>
<path d="M7.74174 12.5502L7.30696 13.1371C7.2041 13.3407 7.35216 13.5813 7.58023 13.5813H9.00309C9.45301 15.4413 10.7486 16.7097 12.4846 16.6835C13.717 16.6835 14.6461 16.0707 15.2665 14.8506C15.3454 14.6953 15.2762 14.5047 15.117 14.4336L14.4384 14.1304C14.289 14.0637 14.1128 14.1262 14.0404 14.2729C13.7201 14.923 13.1878 15.3373 12.4846 15.3373C11.848 15.3373 11.3372 15.0255 10.9459 14.3956C10.793 14.1517 10.6713 13.8796 10.5787 13.5815H12.4011C12.5165 13.5815 12.6222 13.5165 12.6744 13.4134L13.1091 12.8265C13.212 12.6228 13.0639 12.3823 12.8359 12.3823H10.3737C10.3666 12.2561 10.3622 12.1274 10.3622 11.9946C10.3609 11.863 10.3646 11.7343 10.3715 11.6074H12.4011C12.5165 11.6074 12.6222 11.5423 12.6744 11.4393L13.1091 10.8524C13.212 10.6489 13.0639 10.4082 12.8359 10.4082H10.5765C10.907 9.33074 11.5969 8.62485 12.4846 8.6388C13.1609 8.6388 13.6861 9.00906 14.0229 9.61561C14.0984 9.75158 14.2683 9.80368 14.4105 9.74082L15.0927 9.43964C15.2559 9.36754 15.3253 9.17023 15.2389 9.0141C14.6093 7.87696 13.6912 7.30569 12.4846 7.30569C11.3836 7.30569 10.5016 7.74334 9.83183 8.61225C9.4404 9.12401 9.1678 9.72435 9.00611 10.4082H8.01519C7.89973 10.4082 7.79401 10.4733 7.74191 10.5763L7.30712 11.1632C7.20427 11.3669 7.35233 11.6074 7.5804 11.6074H8.84242C8.83637 11.7348 8.83048 11.8625 8.83048 11.9946C8.8288 12.1255 8.832 12.2546 8.83754 12.3823H8.01536C7.8999 12.3823 7.79418 12.4474 7.74208 12.5504L7.74174 12.5502Z" fill="white"/>
<path d="M4.10389 11.4944C4.35095 7.54957 7.52674 4.36386 11.4708 4.1052C13.5441 3.96924 15.461 4.63898 16.9432 5.82907C17.0871 5.94453 17.2931 5.93932 17.4308 5.81646L18.0121 5.29781C18.1846 5.14403 18.181 4.87142 18.0029 4.7242C16.274 3.29529 14.0293 2.46924 11.594 2.57193C6.76406 2.77562 2.8338 6.66067 2.57733 11.4882C2.46641 13.5763 3.03901 15.5281 4.09061 17.1405C4.21649 17.3336 4.48624 17.3671 4.65834 17.2136L5.23901 16.6955C5.37632 16.5729 5.4059 16.3692 5.30758 16.2138C4.45246 14.8608 3.99515 13.2329 4.10406 11.4944H4.10389Z" fill="white"/>
<path d="M19.9098 6.85928C19.7839 6.66634 19.5141 6.63272 19.342 6.78617L18.7614 7.30432C18.6241 7.42684 18.5945 7.63054 18.6928 7.786C19.5479 9.13894 20.0054 10.767 19.8963 12.5055C19.6491 16.4502 16.4733 19.6357 12.5293 19.8944C10.456 20.0304 8.53919 19.3606 7.05684 18.1705C6.91297 18.0551 6.70692 18.0603 6.56927 18.1831L5.9881 18.7018C5.81566 18.8556 5.81919 19.1282 5.99734 19.2754C7.72642 20.7045 9.97112 21.5304 12.4066 21.4277C17.2365 21.2238 21.1668 17.3386 21.4229 12.511C21.5336 10.4231 20.961 8.47138 19.9096 6.85928H19.9098Z" fill="white"/>
<defs>
<linearGradient id="paint0_linear_1356_5534" x1="26.8014" y1="26.8012" x2="9.831" y2="9.83076" gradientUnits="userSpaceOnUse">
<stop stop-color="#8656EF"/>
<stop offset="0.97" stop-color="#1AA3FF"/>
</linearGradient>
</defs>
</svg>
