<svg width="24" height="24" viewBox="0 0 24 24" fill="none" xmlns="http://www.w3.org/2000/svg">
<path d="M12.0002 24C18.6277 24 24.0002 18.6274 24.0002 12C24.0002 5.37258 18.6277 0 12.0002 0C5.37283 0 0.000244141 5.37258 0.000244141 12C0.000244141 18.6274 5.37283 24 12.0002 24Z" fill="#ED4E33"/>
<path d="M9.78282 6.3913C6.52717 7.64311 6.22894 10.849 5.29542 12.3462C4.35084 13.8612 2.18684 14.6971 2.48276 15.4692C2.77867 16.2412 4.94525 15.412 6.65933 15.9046C8.3531 16.3914 10.7163 18.5742 13.972 17.3223C15.6305 16.6846 16.8314 15.3721 17.3837 13.8174C17.4431 13.6506 17.332 13.4721 17.1559 13.4556C17.0463 13.4453 16.9413 13.5027 16.8919 13.6011C16.3923 14.5977 15.5354 15.4185 14.4139 15.8495C12.5626 16.5614 10.5369 16.0025 9.29279 14.6008C9.01024 14.2825 8.76856 13.9202 8.57779 13.5197C8.52534 13.4095 8.47547 13.2975 8.43125 13.1816C8.38677 13.0657 8.34897 12.9491 8.31427 12.8319C9.29279 12.3751 10.422 11.8912 11.7021 11.3991C12.9572 10.9165 14.0995 10.525 15.1166 10.2119C15.8047 10.0002 16.4353 9.82405 17.0047 9.6801C17.0459 9.66979 17.0865 9.6595 17.1268 9.64945C17.213 9.62808 17.3014 9.67418 17.3333 9.7571L17.3339 9.75864C17.3527 9.80782 17.3688 9.85727 17.3862 9.90671C17.4988 10.2258 17.5833 10.5482 17.639 10.8714C17.6634 11.0128 17.8177 11.0898 17.9442 11.0218C18.4116 10.7704 18.8391 10.5253 19.2211 10.2894C20.6448 9.41125 21.434 8.6665 21.272 8.24442C21.1103 7.82208 20.0263 7.79788 18.3817 8.09918C17.8591 8.19498 17.2796 8.32373 16.6551 8.48314C16.5471 8.5107 16.4379 8.53928 16.3273 8.56864C15.8017 8.70822 15.2475 8.86813 14.6703 9.04711C13.5969 9.38008 12.4453 9.77899 11.2565 10.2361C10.1443 10.6638 9.09019 11.1073 8.1235 11.5492C8.11168 9.67367 9.24368 7.90062 11.0951 7.18884C12.2163 6.75774 13.4015 6.79304 14.4386 7.19914C14.5409 7.23931 14.6574 7.2115 14.7322 7.13039C14.852 7.00033 14.8153 6.79328 14.6597 6.70882C13.2107 5.92416 11.4414 5.75368 9.78282 6.3913Z" fill="white"/>
</svg>
