<svg width="24" height="24" viewBox="0 0 24 24" fill="none" xmlns="http://www.w3.org/2000/svg">
<circle cx="12" cy="12" r="12" fill="#A566FF"/>
<path d="M9.21885 18.6307C10.0079 18.6307 10.797 18.3613 11.4514 17.8993C11.5092 17.8416 11.5092 17.7454 11.4899 17.6876C11.2782 17.4567 11.0857 17.2257 10.8933 16.9755C10.8548 16.9178 10.7585 16.8985 10.7008 16.937C10.2774 17.2257 9.75775 17.3797 9.2381 17.3797C8.27579 17.3797 7.35197 16.8216 6.63986 15.7823C5.88926 14.6852 5.46585 13.2033 5.46585 11.6251C5.46585 11.6155 5.46103 11.6058 5.45622 11.5962C5.45141 11.5866 5.4466 11.577 5.4466 11.5674C5.40811 11.4904 5.33112 11.4519 5.25414 11.4904L4.31107 11.9138C4.25334 11.933 4.21484 11.9908 4.21484 12.0485C4.25334 13.6267 4.73449 15.1664 5.60057 16.4944C6.56288 17.8801 7.83313 18.6307 9.21885 18.6307Z" fill="white"/>
<path d="M14.781 18.6307C16.1667 18.6307 17.4562 17.8609 18.3993 16.4944C19.3039 15.1856 19.785 13.4342 19.785 11.6058C19.785 9.77746 19.2846 8.0453 18.38 6.73656C18.1876 6.46711 17.9759 6.19766 17.7257 5.94746C17.6872 5.88973 17.6294 5.88973 17.5717 5.90897L16.6286 6.33239C16.6094 6.33239 16.5901 6.35163 16.5709 6.37088C16.5324 6.42862 16.5324 6.52485 16.5901 6.58259C16.8788 6.83279 17.1483 7.12148 17.36 7.44867C18.1106 8.5457 18.534 10.0277 18.534 11.6058C18.534 13.184 18.1106 14.666 17.36 15.763C16.6479 16.7831 15.7241 17.3605 14.7618 17.3605C13.7994 17.3605 12.8756 16.8023 12.1635 15.763C11.4129 14.666 10.9895 13.184 10.9895 11.6058C10.9895 10.7783 11.4129 9.83519 11.9711 9.83519C12.5292 9.83519 12.9526 10.7783 12.9526 11.6058C12.9526 12.7029 12.7409 13.7999 12.2982 14.82C12.279 14.8585 12.279 14.9162 12.2982 14.9547C12.3945 15.1471 12.4907 15.3011 12.6062 15.4743C12.7024 15.6091 12.8179 15.7438 12.9334 15.8785C12.9407 15.8858 12.9453 15.8932 12.9491 15.8995C12.9554 15.9096 12.96 15.917 12.9719 15.917C13.0296 15.9555 13.1258 15.9362 13.1643 15.8593C13.8572 14.5505 14.2036 13.107 14.1844 11.6251C14.1844 9.93143 13.2028 8.60344 11.9711 8.60344C10.7393 8.60344 9.75775 9.93143 9.75775 11.6251C9.75775 13.4535 10.2581 15.1856 11.1627 16.4944C12.125 17.8609 13.3953 18.6307 14.781 18.6307Z" fill="white"/>
</svg>
