<svg width="24" height="24" viewBox="0 0 24 24" fill="none" xmlns="http://www.w3.org/2000/svg">
<circle cx="12" cy="12" r="12" fill="#121212"/>
<path d="M17.6326 19.0211L14.2169 20.9729V16.9338L17.6326 14.982V19.0211Z" fill="#299197"/>
<path d="M8.41564 3.54214V21L11.8313 19.0482V5.49395L8.41564 3.54214Z" fill="#299197"/>
<path d="M14.1084 12.9759L17.6325 14.9819L14.2168 16.9338L10.6927 14.9277L14.1084 12.9759Z" fill="#036F7D"/>
<path d="M8.41566 3L20.6145 10.0482L17.1988 12L5 4.95181L8.41566 3Z" fill="#036F7D"/>
<path d="M20.6145 14.0874L17.1989 16.0392V12.0001L20.6145 10.0482V14.0874Z" fill="#299197"/>
<path d="M10.6927 18.9668L14.2168 20.9729V16.9337L10.6927 14.9277V18.9668Z" fill="#29CCC4"/>
<path fill-rule="evenodd" clip-rule="evenodd" d="M17.1988 16.0391L8.41566 10.9644V20.9999L5 19.0481V8.99091V4.95175L8.41566 6.90356V6.92525L17.1988 11.9999V16.0391Z" fill="#29CCC4"/>
</svg>
