<svg width="24" height="24" viewBox="0 0 24 24" fill="none" xmlns="http://www.w3.org/2000/svg">
<circle cx="12" cy="12" r="12" fill="#202944"/>
<path d="M10.9755 5.85596H9.50354V7.39196H10.9755V5.85596Z" fill="white"/>
<path d="M7.32754 5.85596H5.79154V7.39196H7.32754V5.85596Z" fill="white"/>
<path d="M7.26354 11.104V9.56796H5.72754V11.104H7.26354Z" fill="white"/>
<path d="M6.23954 18.016H6.81554V17.44H6.23954V18.016Z" fill="white"/>
<path d="M5.79154 14.944H7.32754V13.472H5.79154V14.944Z" fill="white"/>
<path d="M10.0155 18.016H10.5915V17.44H10.0155V18.016Z" fill="white"/>
<path d="M10.0155 14.432H10.5915V13.856H10.0155V14.432Z" fill="white"/>
<path d="M9.50354 11.168H11.0395V9.63196H9.50354V11.168Z" fill="white"/>
<path d="M13.7275 18.016H14.3035V17.44H13.7275V18.016Z" fill="white"/>
<path d="M13.7275 14.432H14.3035V13.856H13.7275V14.432Z" fill="white"/>
<path d="M13.7275 10.656H14.3035V10.08H13.7275V10.656Z" fill="white"/>
<path d="M13.2795 7.39196H14.8155V5.85596H13.2795V7.39196Z" fill="white"/>
<path d="M17.5035 18.016H18.0795V17.44H17.5035V18.016Z" fill="white"/>
<path d="M17.5035 14.432H18.0795V13.856H17.5035V14.432Z" fill="white"/>
<path d="M17.5035 10.656H18.0795V10.08H17.5035V10.656Z" fill="white"/>
<path d="M17.5035 6.94396H18.0795V6.36796H17.5035V6.94396Z" fill="white"/>
</svg>
