<svg width="24" height="24" viewBox="0 0 24 24" fill="none" xmlns="http://www.w3.org/2000/svg">
<circle cx="12" cy="12" r="12" fill="#0090FF"/>
<path fill-rule="evenodd" clip-rule="evenodd" d="M12.7405 10.6273L12.3888 12.5029L15.7297 12.9718L15.4952 13.8509L12.2129 13.382C11.9785 14.144 11.8613 14.9646 11.5682 15.6679C11.2751 16.4885 10.9821 17.3091 10.6304 18.0711C10.1615 19.0675 9.34092 19.7708 8.22728 19.9467C7.58254 20.0639 6.87919 20.0053 6.35168 19.595C6.17584 19.4778 6 19.2433 6 19.0675C6 18.833 6.11723 18.54 6.29306 18.4227C6.41029 18.3641 6.70335 18.4227 6.87919 18.4813C7.05503 18.6572 7.23087 18.8916 7.34809 19.1261C7.69977 19.595 8.16867 19.6536 8.63757 19.3019C9.16508 18.833 9.45815 18.1883 9.63398 17.5435C9.98566 16.1368 10.3373 14.7888 10.6304 13.382V13.1476L7.52393 12.6787L7.64115 11.7995L10.8649 12.2684L11.2751 10.4514L7.93422 9.9239L8.05144 8.9861L11.5096 9.455C11.6268 9.10332 11.6854 8.81026 11.8027 8.5172C12.0957 7.46217 12.3888 6.40714 13.0921 5.46934C13.7955 4.53154 14.6161 3.94541 15.8469 4.00402C16.3744 4.00402 16.902 4.17986 17.2536 4.59015C17.3122 4.64876 17.4295 4.76599 17.4295 4.88321C17.4295 5.11766 17.4295 5.41073 17.2536 5.58657C17.0192 5.7624 16.7261 5.70379 16.4917 5.46934C16.3158 5.2935 16.1986 5.11766 16.0228 4.94183C15.6711 4.47293 15.1436 4.41431 14.7333 4.8246C14.4402 5.11766 14.1472 5.52795 13.9713 5.93824C13.561 7.16911 13.268 8.45859 12.8577 9.74806L16.0814 10.217L15.8469 11.0962L12.7405 10.6273Z" fill="white"/>
</svg>
