<svg width="24" height="24" viewBox="0 0 24 24" fill="none" xmlns="http://www.w3.org/2000/svg">
<g clip-path="url(#clip0_1888_5947)">
<path d="M12 24C5.37258 24 0 18.6274 0 12C0 5.37258 5.37258 0 12 0C18.6274 0 24 5.37258 24 12C24 18.6274 18.6274 24 12 24Z" fill="#23292F"/>
<path fill-rule="evenodd" clip-rule="evenodd" d="M6.60088 15.2653C7.19754 15.2316 7.86594 15.0825 8.60608 14.8182C8.63035 14.8026 8.65475 14.7872 8.67927 14.772L6.85495 4.36365L4.36366 4.48297L6.60088 15.2653ZM6.97238 17.0558L7.50782 19.6364H9.9513L11.0335 16.2146C10.4 16.2584 9.7939 16.3463 9.21521 16.4783L8.85121 17.6089L8.83032 16.5736C8.75509 16.5938 8.68034 16.6147 8.60608 16.6364C8.06151 16.8552 7.51695 16.995 6.97238 17.0558ZM11.7486 13.9128L12.1409 12.4819L12.5235 13.9256C13.0873 13.9619 13.6139 14.058 14.1033 14.214L12.7227 9.5456H11.4216L9.94295 14.1995C10.4975 14.0278 11.0994 13.9323 11.7486 13.9128ZM13.2017 16.233L14.2248 19.6364H16.5836L17.0939 17.0833C16.4742 17.0492 15.9075 16.9002 15.394 16.6364C15.303 16.6098 15.2113 16.5844 15.1189 16.5601L15.0604 17.6089L14.7456 16.4694C14.2509 16.3585 13.7363 16.2797 13.2017 16.233ZM17.456 15.272L19.6364 4.36365H17.47L15.2297 14.7168C15.2851 14.7496 15.3398 14.7834 15.394 14.8182C16.0296 15.1212 16.6896 15.2727 17.3738 15.2727C17.4011 15.2727 17.4285 15.2725 17.456 15.272V15.272Z" fill="#00F3AB"/>
</g>
<defs>
<clipPath id="clip0_1888_5947">
<rect width="24" height="24" fill="white"/>
</clipPath>
</defs>
</svg>
