<svg width="24" height="24" viewBox="0 0 24 24" fill="none" xmlns="http://www.w3.org/2000/svg">
<g clip-path="url(#clip0_1888_5947)">
<path fill-rule="evenodd" clip-rule="evenodd" d="M12 0C18.6274 0 24 5.37258 24 12C24 18.6274 18.6274 24 12 24C5.37258 24 0 18.6274 0 12C0 5.37258 5.37258 0 12 0Z" fill="url(#paint0_linear_1888_5947)"/>
<path d="M12 0.5C18.3513 0.5 23.5 5.64872 23.5 12C23.5 18.3512 18.3512 23.5 12 23.5C5.64872 23.5 0.5 18.3513 0.5 12C0.5 5.64872 5.64872 0.5 12 0.5Z" stroke="#00F3AB" stroke-opacity="0.2"/>
<path fill-rule="evenodd" clip-rule="evenodd" d="M12.7591 15.4046C13.3044 15.4356 13.8265 15.5007 14.3254 15.5999L14.7345 16.8709L14.7581 15.6957L14.9474 15.7443C15.4416 15.9259 15.9358 16.039 16.4301 16.0835L15.9011 18.6316H13.7792L12.7591 15.4046ZM11.0335 15.4181L10.068 18.6316H8.01951L7.51427 16.1019C8.07675 16.081 8.58953 15.9618 9.05263 15.7443C9.12656 15.7246 9.20105 15.7057 9.27608 15.6875L9.3423 16.8709L9.69409 15.596C10.1234 15.5116 10.5699 15.4523 11.0335 15.4181ZM7.24972 5.36841L9.16842 14.2349C9.12947 14.2563 9.09087 14.2783 9.05263 14.3007C8.5006 14.5413 7.9275 14.6616 7.33334 14.6616C7.29769 14.6616 7.26183 14.6612 7.22574 14.6603L5.36842 5.36841H7.24972ZM16.4681 5.36841L18.6316 5.47203L16.7264 14.6575C16.1987 14.6346 15.6057 14.5157 14.9474 14.3007C14.9338 14.2928 14.9202 14.2849 14.9066 14.277L16.4681 5.36841ZM12.5023 9.86852L13.7517 13.7998C13.2736 13.6679 12.7553 13.5951 12.1968 13.5813L11.8776 12.4185L11.5667 13.5908C11.0815 13.618 10.6279 13.6916 10.2059 13.8116L11.3724 9.86852H12.5023Z" fill="url(#paint1_linear_1888_5947)"/>
</g>
<defs>
<linearGradient id="paint0_linear_1888_5947" x1="0" y1="0" x2="24" y2="24" gradientUnits="userSpaceOnUse">
<stop stop-color="#0093ED"/>
<stop offset="1" stop-color="#00F3AB"/>
</linearGradient>
<linearGradient id="paint1_linear_1888_5947" x1="18.6316" y1="18.6316" x2="5.36842" y2="5.36841" gradientUnits="userSpaceOnUse">
<stop stop-color="#000A17"/>
<stop offset="1" stop-color="#00554F"/>
</linearGradient>
<clipPath id="clip0_1888_5947">
<rect width="24" height="24" fill="white"/>
</clipPath>
</defs>
</svg>
