<?xml version="1.0" encoding="UTF-8"?>
<svg width="24px" height="24px" viewBox="0 0 24 24" version="1.1" xmlns="http://www.w3.org/2000/svg" xmlns:xlink="http://www.w3.org/1999/xlink">
  <defs>
    <linearGradient x1="0.333333333%" y1="50.1666667%" x2="100.333333%" y2="50.1666667%" id="TIBPFNRYFXCEZBUWXEAGESCTSEYROSKKKHY">
      <stop stop-color="#E96161" offset="0%"></stop>
      <stop stop-color="#E65B76" offset="20%"></stop>
      <stop stop-color="#DF4AAC" offset="61%"></stop>
      <stop stop-color="#D739E6" offset="100%"></stop>
    </linearGradient>
  </defs>
  <circle fill="url(#TIBPFNRYFXCEZBUWXEAGESCTSEYROSKKKHY)" fill-rule="nonzero" cx="12" cy="12" r="12"></circle>
  <path d="M13.58,3.99987449 C14.2631413,3.99588654 14.9411714,4.11793197 15.58,4.36 L15.84,4.47 C16.2991903,4.67075835 16.7269472,4.93684338 17.11,5.26 L17.19,5.32 L17.19,5.32 C18.3397682,6.31025767 19.0006784,7.75257567 19,9.27 L19,9.43 C18.9645168,10.70121 18.4626482,11.9149491 17.59,12.84 L10.76,19.49 C10.3765472,19.820844 9.88644838,20.0019675 9.38,20 C9.25346061,20.0080303 9.12653939,20.0080303 9,20 L8.6,19.88 C8.17105127,19.7378064 7.75323873,19.5639964 7.35,19.36 L7.26,19.31 C7.14872348,19.2501005 7.09136234,19.1230865 7.12,19 C7.11993259,18.9381328 7.14111394,18.878119 7.18,18.83 L14.84,11.36 C14.8733841,11.31911 14.9034782,11.2756408 14.93,11.23 C14.9783475,11.1404694 15.0185106,11.0467555 15.05,10.95 L15.05,10.76 C15.0550197,10.7201575 15.0550197,10.6798425 15.05,10.64 C15.0233128,9.96757744 14.4729347,9.43481151 13.8,9.43 L7.66,9.43 L6.66,10.43 L5.94,11.13 C5.90302306,11.1889149 5.85132211,11.2371692 5.79,11.27 C5.68412687,11.3423036 5.55372862,11.3692479 5.42786931,11.3448274 C5.30200999,11.320407 5.19115052,11.2466514 5.12,11.14 C5.05722881,11.0696477 5.01562867,10.9829807 5,10.89 L5,8.67 C5.01564165,8.13769566 5.24292738,7.63360951 5.63148936,7.26944998 C6.02005133,6.90529045 6.53780027,6.71113154 7.07,6.73 L8.63,6.73 L9.16,6.17 C9.53277424,5.74264696 9.94455374,5.35095426 10.39,5 C11.3229217,4.34193688 12.4383651,3.9922681 13.58,3.99987449 L13.58,3.99987449 Z" fill="#FFFFFF"></path>
</svg>
