<svg width="24" height="24" viewBox="0 0 24 24" fill="none" xmlns="http://www.w3.org/2000/svg">
<circle cx="12" cy="12" r="12" fill="#00EF8B"/>
<path d="M18.9595 8.42404H15.1435C14.4475 8.42404 13.8715 9.00004 13.8715 9.69604V10.128L10.4876 10.128V13.512H9.21557C8.51957 13.512 7.94357 14.088 7.94357 14.784C7.94357 15.48 8.51957 16.056 9.21557 16.056C9.91157 16.056 10.4876 15.48 10.4876 14.784V13.512H13.8716V14.784C13.8716 17.352 11.7836 19.44 9.21557 19.44C6.64757 19.44 4.55957 17.352 4.55957 14.784C4.55957 12.216 6.64757 10.128 9.21557 10.128H10.4876L10.4875 9.69604C10.4875 7.12804 12.5755 5.04004 15.1435 5.04004H18.9595V8.42404Z" fill="white"/>
<path d="M17.2556 10.128L13.8715 10.128L13.8716 13.512H17.2556V10.128Z" fill="white"/>
</svg>
