<svg width="24" height="24" viewBox="0 0 24 24" fill="none" xmlns="http://www.w3.org/2000/svg">
<circle cx="12" cy="12" r="12" fill="#1969FF"/>
<path fill-rule="evenodd" clip-rule="evenodd" d="M13 9.75L16 8V11.5L13 9.75ZM16 17.25L12 19.5833L8 17.25V13.1667L12 15.5L16 13.1667V17.25ZM8 8L11 9.75L8 11.5V8ZM12.5 10.5833L15.5 12.3333L12.5 14.0833V10.5833ZM11.5 14.0833L8.5 12.3333L11.5 10.5833V14.0833ZM15.5 7.16667L12 9.16667L8.5 7.16667L12 5.08333L15.5 7.16667ZM7 6.83333V17.75L12 20.5833L17 17.75V6.83333L12 4L7 6.83333Z" fill="white"/>
</svg>
