<svg width="24" height="24" viewBox="0 0 24 24" fill="none" xmlns="http://www.w3.org/2000/svg">
<circle cx="12" cy="12" r="12" fill="#62D1E5"/>
<path d="M19.9992 6.00088C16.1736 5.99971 12.3483 5.99971 8.52321 6.00088C8.52199 7.23687 8.52199 8.47307 8.52321 9.70949C12.3487 9.71066 16.174 9.71066 19.9992 9.70949C20.0003 8.4735 20.0003 7.2373 19.9992 6.00088Z" fill="white"/>
<path d="M7.70762 11.1047C6.47314 11.0983 5.23886 11.0983 4.0048 11.1047C3.9984 12.3392 3.9984 13.5736 4.0048 14.8079C5.23891 14.814 6.47319 14.8139 7.70762 14.8075C7.71402 13.5731 7.71402 12.3388 7.70762 11.1047Z" fill="white"/>
<path d="M8.52609 11.1047C11.287 11.0989 14.0477 11.0989 16.8082 11.1047C16.814 12.3388 16.814 13.5731 16.8082 14.8076C14.0473 14.8134 11.2867 14.8134 8.52609 14.8076C8.52033 13.5735 8.52033 12.3392 8.52609 11.1047Z" fill="white"/>
<path d="M12.2248 16.2097C10.9933 16.1963 9.76151 16.1963 8.52953 16.2097C8.51716 17.4417 8.51737 18.6733 8.53017 19.9044C9.76167 19.917 10.9934 19.9172 12.2254 19.905C12.2378 18.6727 12.2376 17.4409 12.2248 16.2097Z" fill="white"/>
</svg>
