<svg width="24" height="24" viewBox="0 0 24 24" fill="none" xmlns="http://www.w3.org/2000/svg">
<path d="M12 24C18.6274 24 24 18.6274 24 12C24 5.37258 18.6274 0 12 0C5.37258 0 0 5.37258 0 12C0 18.6274 5.37258 24 12 24Z" fill="#3A2AC2"/>
<path d="M8.52321 6.00088C12.3483 5.99971 16.1736 5.99971 19.9991 6.00088C20.0003 7.23729 20.0003 8.47348 19.9991 9.70946C16.174 9.71064 12.3486 9.71064 8.52321 9.70946C8.52198 8.47306 8.52198 7.23686 8.52321 6.00088Z" fill="#998B93"/>
<path d="M4.0048 11.1047C5.23886 11.0983 6.47314 11.0983 7.70762 11.1047C7.71402 12.3388 7.71402 13.5731 7.70762 14.8075C6.47319 14.8139 5.23891 14.814 4.0048 14.8079C3.9984 13.5736 3.9984 12.3392 4.0048 11.1047Z" fill="#BFADB7"/>
<path d="M8.52609 11.1047C11.287 11.0989 14.0476 11.0989 16.8081 11.1047C16.814 12.3388 16.814 13.5731 16.8081 14.8075C14.0473 14.8133 11.2866 14.8133 8.52609 14.8075C8.52033 13.5734 8.52033 12.3392 8.52609 11.1047Z" fill="#BFADB7"/>
<path d="M8.52953 16.2097C9.76151 16.1963 10.9933 16.1963 12.2248 16.2097C12.2376 17.4409 12.2378 18.6726 12.2254 19.905C10.9934 19.9172 9.76167 19.9169 8.53017 19.9044C8.51737 18.6733 8.51716 17.4417 8.52953 16.2097Z" fill="#D8C5CF"/>
</svg>
