<svg width="24" height="24" viewBox="0 0 24 24" fill="none" xmlns="http://www.w3.org/2000/svg">
<circle cx="12" cy="12" r="12" fill="#ED1968"/>
<path d="M9.52466 20.1751C8.56644 19.9096 7.67298 19.4501 6.89966 18.8251C6.13767 18.2381 5.47867 17.5284 4.94966 16.7251C4.38555 15.88 3.97901 14.9399 3.74966 13.9501C3.48709 12.7645 3.48709 11.5357 3.74966 10.3501C3.97343 9.34715 4.35303 8.38547 4.87466 7.5001C5.63831 6.27491 6.72941 5.28773 8.02466 4.6501C8.47952 4.40528 8.95668 4.20437 9.44966 4.0501C10.1997 4.9501 10.9497 5.9251 11.6997 6.9001C11.7747 7.0501 11.9247 7.1251 11.9997 7.2751C11.2474 7.30663 10.5085 7.48498 9.82466 7.8001C9.22011 8.11615 8.68466 8.5496 8.24966 9.0751C7.82164 9.64089 7.49203 10.2748 7.27466 10.9501C7.07437 11.7666 7.1003 12.6222 7.34966 13.4251L10.5747 10.8751C11.3247 11.8501 12.0747 12.7501 12.8247 13.7251C11.7747 14.5501 10.6497 15.3751 9.59966 16.2751C10.6497 17.6251 11.7747 19.0501 12.8247 20.4751C11.7158 20.6062 10.5917 20.504 9.52466 20.1751ZM16.6722 11.0896C16.6446 10.9668 16.6121 10.8452 16.5747 10.7251C16.4734 10.8046 14.2422 12.5101 13.3497 13.2751C12.5997 12.3001 11.8497 11.4001 11.0997 10.4251C12.1497 9.6001 13.2747 8.7751 14.3247 7.8751C13.2747 6.5251 12.2247 5.1751 11.0997 3.7501C11.0997 3.6751 11.0247 3.6751 11.0247 3.6001H12.0747C13.9985 3.61806 15.8556 4.30782 17.3247 5.5501C18.0406 6.14172 18.6495 6.85208 19.1247 7.6501C19.6843 8.50917 20.0432 9.48329 20.1747 10.5001C20.3756 11.6691 20.3501 12.8657 20.0997 14.0251C19.885 14.9965 19.4769 15.9148 18.8997 16.7251C18.3959 17.503 17.7616 18.1881 17.0247 18.7501C16.3069 19.3737 15.4625 19.8343 14.5497 20.1001C13.8747 19.2751 13.2747 18.5251 12.6747 17.7001C12.4505 17.4435 12.2497 17.1674 12.0747 16.8751C12.7843 16.8775 13.485 16.7163 14.1223 16.4042C14.7596 16.092 15.3165 15.6372 15.7497 15.0751C16.1816 14.5225 16.4887 13.8828 16.6497 13.2001C16.7892 12.6308 16.7967 11.9273 16.6722 11.0896ZM13.1299 17.3693C13.6478 18.0768 14.1856 18.7696 14.7424 19.4468C15.4547 19.1893 16.1129 18.8014 16.6834 18.3031C17.375 17.7744 17.9698 17.1299 18.4414 16.3981C18.9743 15.6504 19.3513 14.803 19.5499 13.9066C19.7854 12.8176 19.8087 11.6933 19.6174 10.5721C19.4947 9.6318 19.1612 8.73138 18.6417 7.9381C18.1982 7.19375 17.6299 6.53133 16.9617 5.97985C15.6117 4.83781 13.9093 4.19625 12.1414 4.16335C12.8367 5.04835 13.5409 5.9506 14.7687 7.5301L15.0987 7.9531L14.6907 8.30185C14.1572 8.75557 13.6125 9.19596 13.0572 9.6226C13.0047 9.66385 12.3672 10.1536 11.8887 10.5241C12.0859 10.7753 12.3147 11.0618 12.6642 11.4991C13.0092 11.9303 13.2379 12.2176 13.4352 12.4688C13.7832 12.1816 14.1627 11.8801 14.6172 11.5276C14.6907 11.4706 15.8892 10.5481 16.2274 10.2826L16.8694 9.77785L17.1117 10.5578C17.3912 11.4567 17.4207 12.4147 17.1972 13.3291C17.018 14.0898 16.6761 14.8026 16.1952 15.4186C15.4303 16.4111 14.3318 17.093 13.1029 17.3378L13.1299 17.3693Z" fill="white"/>
</svg>
