<svg width="24" height="24" viewBox="0 0 24 24" fill="none" xmlns="http://www.w3.org/2000/svg">
<circle cx="12" cy="12" r="12" fill="white"/>
<path fill-rule="evenodd" clip-rule="evenodd" d="M3 16.7969C3.24375 16.9259 3.56368 17.1232 3.7922 17.275C3.87599 17.332 3.97121 17.3813 4.06262 17.4382C4.11213 17.4686 4.1426 17.4838 4.1883 17.5141C4.21115 17.5293 4.2302 17.5445 4.25305 17.5559C4.27971 17.5711 4.29495 17.5787 4.32161 17.5938L7.25428 19.3927C7.29617 19.4155 7.33426 19.442 7.37996 19.4686L10.0422 21.1043C10.0727 21.1233 10.0841 21.127 10.1108 21.146L11.3829 21.924C11.44 21.9544 11.4628 21.9923 11.5276 21.9961V12.091L11.1239 11.8595C11.0858 11.8405 11.0629 11.8253 11.0249 11.8026L10.7087 11.6204C10.2593 11.3851 9.84036 11.0967 9.38713 10.8614C9.34142 10.8386 9.32619 10.8234 9.27668 10.8007L8.87296 10.5692C8.77393 10.5084 8.32451 10.239 8.24453 10.22V11.7836L9.89749 12.7361C9.94319 12.7627 9.97366 12.7817 10.0156 12.8045C10.0613 12.8272 10.0841 12.8538 10.1412 12.8652V19.5711C9.85178 19.3775 9.54328 19.2029 9.24621 19.0246L8.52637 18.5806C8.2331 18.3832 7.91698 18.22 7.62372 18.0265C7.58944 18.0037 7.57039 17.9961 7.53612 17.9733L6.90007 17.5825C6.83151 17.5445 6.782 17.5141 6.71725 17.4686C6.48493 17.313 6.23355 17.1764 5.99742 17.0246C5.93267 16.9828 5.87935 16.9563 5.8146 16.9145C5.4642 16.6792 5.08715 16.4667 4.72913 16.2504C4.69866 16.2314 4.672 16.2124 4.64534 16.1935L4.36731 16.0227V7.97332C4.31399 7.93917 4.26067 7.90881 4.19973 7.87465C4.13879 7.8405 4.09309 7.81393 4.03215 7.77598L3.1752 7.29021C3.11045 7.25606 3.06094 7.2181 3 7.18774V16.7969Z" fill="#060606"/>
<path fill-rule="evenodd" clip-rule="evenodd" d="M12.3503 12.0759V15.8823L12.8568 15.5977C13.0891 15.4763 13.3024 15.3283 13.5348 15.2068C13.5767 15.184 13.5919 15.1765 13.6224 15.1537C13.6528 15.1347 13.6833 15.1233 13.7138 15.1081V12.8653C13.7595 12.8539 13.7747 12.8463 13.809 12.8235C13.8433 12.8007 13.8661 12.7931 13.9004 12.7742C14.0794 12.6717 14.2546 12.5503 14.4374 12.4592C14.685 12.3377 14.9211 12.1859 15.1573 12.0455C15.2182 12.0114 15.2677 11.981 15.3325 11.943L15.6905 11.7419C15.7286 11.7191 15.74 11.7115 15.7781 11.6888C15.9342 11.6091 16.0789 11.5028 16.2389 11.4193L16.4141 11.3169C16.4446 11.2979 16.4751 11.2865 16.5055 11.2713L17.6748 10.5958C17.9223 10.4668 18.1509 10.3112 18.3946 10.1821L18.7564 9.96961C18.8783 9.8975 18.9964 9.83299 19.1183 9.75709C19.183 9.71914 19.2363 9.69257 19.2935 9.65462L19.4839 9.54836V16.0417C19.4306 16.0531 19.4153 16.0721 19.3696 16.0987L19.0345 16.3036C19.0002 16.3264 18.9735 16.3453 18.9316 16.3719C18.8859 16.3985 18.8555 16.4212 18.8174 16.444C18.7755 16.4668 18.7526 16.4858 18.7107 16.5085L18.3718 16.7097C18.0671 16.8842 17.7814 17.0816 17.4767 17.2562L16.5855 17.8064C16.5436 17.833 16.5208 17.8444 16.4789 17.871C16.0789 18.1404 15.6524 18.3643 15.2487 18.6262C15.1763 18.6755 15.1001 18.7173 15.0278 18.7628L13.9118 19.4459C13.8775 19.4649 13.8395 19.4877 13.8052 19.5104C13.4738 19.7267 13.1272 19.9127 12.7959 20.129L12.3427 20.4061V22C12.4188 21.981 12.5407 21.8899 12.6093 21.8482C12.7007 21.7913 12.7883 21.7457 12.8797 21.685C13.1349 21.5142 13.4129 21.3738 13.6681 21.203C13.7176 21.1727 13.7557 21.1461 13.8014 21.1195L14.4755 20.7059C14.5212 20.6793 14.5555 20.6565 14.6012 20.63L18.1889 18.4288C18.2385 18.3985 18.2804 18.3719 18.3223 18.3453L20.7179 16.8766C20.7636 16.8463 20.8093 16.8197 20.855 16.7969V7.203C20.7865 7.21818 20.775 7.24095 20.7217 7.27131C20.6722 7.29788 20.6379 7.31686 20.5922 7.34342L19.7962 7.80262C19.5258 7.94684 19.2744 8.12521 19.0002 8.26183L16.8712 9.48384C16.7759 9.53697 16.6998 9.58631 16.6084 9.63944L16.2161 9.86714C15.938 10.0076 15.5343 10.2467 15.2791 10.406C15.2334 10.4364 15.1953 10.4478 15.1496 10.4782L14.2851 10.9791C14.247 10.9981 14.2546 10.9981 14.2165 11.0208L13.9461 11.1689C13.7861 11.2523 13.6452 11.3548 13.4852 11.4383C13.4472 11.4573 13.4472 11.4649 13.4167 11.4801L13.1463 11.6281C12.9673 11.7153 12.495 12.0455 12.3503 12.0759Z" fill="#060606"/>
<path fill-rule="evenodd" clip-rule="evenodd" d="M3.52942 6.55029C3.58274 6.56168 3.61321 6.59204 3.66272 6.6186C3.84173 6.71348 4.00169 6.82733 4.18451 6.91842L5.6318 7.75333C6.32117 8.17079 7.0372 8.54271 7.73037 8.96016L7.85987 9.03227C7.90938 9.05884 7.94366 9.08161 7.98936 9.10438L8.77776 9.55979C8.81203 9.57876 8.80823 9.57876 8.83489 9.59394C9.20433 9.81785 9.59281 10.0076 9.95844 10.2391L11.1315 10.9108C11.1772 10.9374 11.2115 10.9602 11.2572 10.9867C11.3943 11.0702 11.8856 11.3662 11.9351 11.3662C12.0075 11.3662 12.4265 11.1006 12.5331 11.0361L12.7388 10.9146C12.8073 10.8729 12.8683 10.8463 12.9368 10.8046C13.0092 10.7628 13.0625 10.7325 13.1349 10.6907L13.5348 10.4554C13.6033 10.4137 13.6643 10.3833 13.729 10.3416L14.3346 10C14.3727 9.98104 14.3993 9.96206 14.4336 9.94309C14.4679 9.92032 14.4908 9.90893 14.5326 9.88616L14.9364 9.65466C15.0011 9.61671 15.0735 9.55979 15.1497 9.54081C15.1382 9.49527 15.1306 9.49906 15.0925 9.47629L13.8014 8.73625C13.2872 9.0057 12.7997 9.3207 12.2893 9.59774C12.2474 9.62051 12.2132 9.64328 12.1751 9.66984C12.0951 9.71918 12.0227 9.76092 11.9389 9.80647L11.162 9.35865C10.8916 9.22202 10.644 9.04366 10.3736 8.90324C10.3126 8.86908 10.2517 8.83113 10.1984 8.80077L8.6216 7.89754C8.59113 7.87857 8.56447 7.86339 8.534 7.84441C8.49972 7.82164 8.47687 7.81405 8.44259 7.79508L6.424 6.63378C6.38592 6.61101 6.38211 6.59963 6.32879 6.58824C6.37068 6.52752 6.42019 6.52373 6.48875 6.48198C6.54588 6.44403 6.5992 6.42506 6.66014 6.3909L8.41593 5.44593C8.45402 5.42316 8.45402 5.41936 8.49211 5.40039C8.53019 5.38141 8.54924 5.37382 8.58352 5.35105C8.64445 5.3131 8.70539 5.28653 8.76633 5.25617L10.9563 4.0797C10.9944 4.06072 11.0058 4.04934 11.0439 4.02657L11.9351 3.55218C11.9847 3.55218 12.6588 3.94308 12.8149 4.02277C12.853 4.04175 12.8797 4.05313 12.9178 4.07591C12.9635 4.10247 12.9749 4.11386 13.0282 4.13663L15.4505 5.43834C15.6638 5.57116 16.3113 5.90893 16.5398 6.02278C16.7988 6.15181 17.0464 6.30741 17.3054 6.43644L18.745 7.21443C18.7945 7.241 18.8098 7.24859 18.8555 7.27515C19.0269 7.37762 19.0307 7.29033 19.3087 7.13853L19.8229 6.84631C19.9143 6.79697 20.2609 6.57686 20.3409 6.55788C20.3256 6.50855 20.2799 6.48957 20.2342 6.46301L19.7124 6.17838C19.4496 6.04555 19.1868 5.88236 18.924 5.75712L18.4022 5.47249C18.2232 5.38141 18.0442 5.29792 17.8767 5.19166L15.2449 3.77609C15.1915 3.74953 15.1611 3.73435 15.1154 3.70399L14.0566 3.13473C14.0071 3.10816 13.9766 3.08919 13.9271 3.06262C13.9004 3.04744 13.889 3.04365 13.8661 3.03226L12.476 2.28084C12.3884 2.2277 11.9808 2 11.9313 2C11.8894 2 11.5962 2.17457 11.5314 2.20493L8.51877 3.82923C8.46925 3.852 8.43117 3.87097 8.38546 3.89754L6.27547 5.03226C6.22595 5.05883 6.2031 5.0778 6.14597 5.10437L5.95554 5.20684C5.91745 5.22581 5.91745 5.2334 5.88698 5.24858C5.84509 5.27515 5.79938 5.28653 5.75368 5.31689L5.34996 5.53321C5.29664 5.55978 5.26998 5.58255 5.22047 5.60532L4.60727 5.93929C4.58442 5.95067 4.58442 5.94688 4.56538 5.95826C4.47778 6.0076 4.38637 6.04175 4.30258 6.09868C4.25306 6.12904 4.2226 6.14042 4.16927 6.16699L3.57893 6.49337C3.53323 6.51993 3.54465 6.49716 3.52942 6.55029Z" fill="#060606"/>
</svg>
