<svg width="24" height="24" viewBox="0 0 24 24" fill="none" xmlns="http://www.w3.org/2000/svg">
<g clip-path="url(#clip0_2046_6952)">
<path d="M12 24C18.6274 24 24 18.6274 24 12C24 5.37259 18.6274 0 12 0C5.37259 0 0 5.37259 0 12C0 18.6274 5.37259 24 12 24Z" fill="black"/>
<path d="M3.08984 16.5357L2.93422 16.2389H5.55292L5.61675 16.3304C6.44997 17.5476 7.61387 18.5013 8.97123 19.0789C10.3286 19.6565 11.8228 19.834 13.2777 19.5904C17.2057 18.9218 19.9827 15.3427 19.6698 11.3807L14.992 11.3723L16.3566 15.2345L14.6864 17.5316L11.6872 9.02789L21.5557 9.04455L21.5938 9.19167C21.7082 9.56724 21.7976 9.95 21.8613 10.3374C21.9559 10.8891 22.0023 11.448 21.9999 12.0077C21.9999 16.791 18.548 21.0387 13.6702 21.8627C13.1097 21.952 12.5432 21.9984 11.9756 22.0014C10.1334 22.0033 8.32704 21.4932 6.75798 20.528C5.18893 19.5629 3.91897 18.1807 3.08984 16.5357ZM4.76855 14.9374H2.43001L2.38827 14.7904C2.28215 14.4197 2.19978 14.0426 2.14164 13.6614C1.21993 8.22881 4.89392 3.05999 10.3289 2.14434C12.4257 1.78187 14.5834 2.10025 16.4862 3.05283C18.389 4.00542 19.9368 5.54219 20.903 7.43809L21.0588 7.73501H18.4244L18.3569 7.64342C17.5254 6.42787 16.3633 5.47575 15.0079 4.89955C13.6525 4.32335 12.1606 4.14715 10.7083 4.39177C6.78001 5.06035 3.99445 8.63947 4.30735 12.5932L9.00232 12.6014L7.63408 8.73932L9.31542 6.44213L12.3071 14.946L4.76855 14.9374Z" fill="url(#paint0_linear_2046_6952)"/>
</g>
<defs>
<linearGradient id="paint0_linear_2046_6952" x1="18.5" y1="4.099" x2="6.19806" y2="18.9194" gradientUnits="userSpaceOnUse">
<stop stop-color="#03D1CF" stop-opacity="0.988"/>
<stop offset="1" stop-color="#4E09F8"/>
</linearGradient>
<clipPath id="clip0_2046_6952">
<rect width="24" height="24" fill="white"/>
</clipPath>
</defs>
</svg>
