<svg width="24" height="24" viewBox="0 0 24 24" fill="none" xmlns="http://www.w3.org/2000/svg">
<circle cx="12" cy="12" r="12" fill="#122236"/>
<path d="M6.06737 9.96863C6.06737 9.96863 10.3086 5.73357 11.1814 4.86381C11.6639 4.3813 12.337 4.37823 12.8195 4.85767C14.5252 6.5603 16.2278 8.26293 17.9366 9.96248C18.0227 10.0485 18.0196 10.0885 17.9366 10.1745C16.6458 11.4592 14.1683 13.9643 14.0547 14.0777C13.941 14.1911 13.8831 14.1482 13.8122 14.0777C13.2436 13.5122 12.672 12.9467 12.1065 12.3751C12.0266 12.2951 11.9897 12.289 11.9067 12.372C11.3381 12.9467 10.7634 13.5153 10.1949 14.09C10.118 14.1668 10.0781 14.1791 9.99203 14.0961C8.68278 12.7838 7.37047 11.4746 6.05815 10.1684C5.96903 10.0823 5.99054 10.0424 6.06737 9.96863ZM10.0812 11.072C10.1119 11.0351 10.1334 11.0013 10.1641 10.9736C10.5544 10.5833 10.9355 10.1838 11.3443 9.81189C11.7438 9.44616 12.3001 9.48304 12.6843 9.86414C13.0654 10.2422 13.4465 10.6202 13.8214 11.0043C13.8982 11.0843 13.9351 11.0781 14.0089 11.0013C14.2855 10.7155 14.5682 10.4327 14.854 10.1561C14.9217 10.0916 14.9247 10.0578 14.854 9.99014C14.854 9.99014 12.7642 7.90642 12.0942 7.23951C12.0481 7.19341 12.0174 7.11965 11.9282 7.20877C10.997 8.14307 10.0627 9.07429 9.12842 10.0055C9.0731 10.0578 9.07925 10.0885 9.12842 10.1377C9.42039 10.4235 9.70928 10.7155 9.99817 11.0043C10.0197 11.0228 10.0443 11.0412 10.0812 11.072Z" fill="#89919B"/>
<path d="M6.06737 15.3186C6.06737 15.3186 10.3086 11.0836 11.1814 10.2138C11.6639 9.73131 12.337 9.72823 12.8195 10.2077C14.5252 11.9103 16.2278 13.6129 17.9366 15.3125C18.0227 15.3985 18.0196 15.4385 17.9366 15.5246C16.6458 16.8092 14.1683 19.3143 14.0547 19.4277C13.941 19.5411 13.8831 19.4982 13.8122 19.4277C13.2436 18.8622 12.672 18.2967 12.1065 17.7251C12.0266 17.6452 11.9897 17.639 11.9067 17.722C11.3381 18.2967 10.7634 18.8653 10.1949 19.44C10.118 19.5168 10.0781 19.5291 9.99203 19.4461C8.68278 18.1338 7.37047 16.8246 6.05815 15.5184C5.96903 15.4324 5.99054 15.3924 6.06737 15.3186ZM10.0812 16.422C10.1119 16.3851 10.1334 16.3513 10.1641 16.3236C10.5544 15.9333 10.9355 15.5338 11.3443 15.1619C11.7438 14.7962 12.3001 14.833 12.6843 15.2141C13.0654 15.5922 13.4465 15.9702 13.8214 16.3544C13.8982 16.4343 13.9351 16.4281 14.0089 16.3513C14.2855 16.0655 14.5682 15.7827 14.854 15.5061C14.9217 15.4416 14.9247 15.4078 14.854 15.3401C14.854 15.3401 12.7642 13.2564 12.0942 12.5895C12.0481 12.5434 12.0174 12.4697 11.9282 12.5588C10.997 13.4931 10.0627 14.4243 9.12842 15.3555C9.0731 15.4078 9.07925 15.4385 9.12842 15.4877C9.42039 15.7735 9.70928 16.0655 9.99817 16.3544C10.0197 16.3728 10.0443 16.3912 10.0812 16.422Z" fill="#4D5968"/>
<path d="M6.06737 12.4686C6.06737 12.4686 10.3086 8.23357 11.1814 7.36381C11.6639 6.8813 12.337 6.87823 12.8195 7.35767C14.5252 9.0603 16.2278 10.7629 17.9366 12.4625C18.0227 12.5485 18.0196 12.5885 17.9366 12.6745C16.6458 13.9592 14.1683 16.4643 14.0547 16.5777C13.941 16.6911 13.8831 16.6482 13.8122 16.5777C13.2436 16.0122 12.672 15.4467 12.1065 14.8751C12.0266 14.7951 11.9897 14.789 11.9067 14.872C11.3381 15.4467 10.7634 16.0153 10.1949 16.59C10.118 16.6668 10.0781 16.6791 9.99203 16.5961C8.68278 15.2838 7.37047 13.9746 6.05815 12.6684C5.96903 12.5823 5.99054 12.5424 6.06737 12.4686ZM10.0812 13.572C10.1119 13.5351 10.1334 13.5013 10.1641 13.4736C10.5544 13.0833 10.9355 12.6838 11.3443 12.3119C11.7438 11.9462 12.3001 11.983 12.6843 12.3641C13.0654 12.7422 13.4465 13.1202 13.8214 13.5043C13.8982 13.5843 13.9351 13.5781 14.0089 13.5013C14.2855 13.2155 14.5682 12.9327 14.854 12.6561C14.9217 12.5916 14.9247 12.5578 14.854 12.4901C14.854 12.4901 12.7642 10.4064 12.0942 9.73951C12.0481 9.69341 12.0174 9.61965 11.9282 9.70877C10.997 10.6431 10.0627 11.5743 9.12842 12.5055C9.0731 12.5578 9.07925 12.5885 9.12842 12.6377C9.42039 12.9235 9.70928 13.2155 9.99817 13.5043C10.0197 13.5228 10.0443 13.5412 10.0812 13.572Z" fill="white"/>
<path d="M10.1642 13.4736C10.1334 13.5013 10.1119 13.5351 10.0812 13.572C10.0443 13.5412 10.0197 13.5228 9.99821 13.5044C9.70931 13.2155 9.42042 12.9235 9.12845 12.6377C9.07928 12.5885 9.07313 12.5578 9.12845 12.5055C10.0627 11.5743 10.997 10.6431 11.9283 9.70878C12.0174 9.61965 12.0481 9.69341 12.0942 9.73951C12.7642 10.4064 14.8541 12.4902 14.8541 12.4902C14.9248 12.5578 14.9217 12.5916 14.8541 12.6561C14.5683 12.9327 14.2855 13.2155 14.0089 13.5013C13.9352 13.5781 13.8983 13.5843 13.8214 13.5044C13.4465 13.1202 13.0654 12.7422 12.6843 12.3641C12.3001 11.9831 11.7439 11.9462 11.3443 12.3119C10.9356 12.6838 10.5545 13.0833 10.1642 13.4736Z" fill="#122236"/>
</svg>
