<svg width="24" height="24" viewBox="0 0 24 24" fill="none" xmlns="http://www.w3.org/2000/svg">
<circle cx="12" cy="12" r="12" fill="#00A6C4"/>
<path fill-rule="evenodd" clip-rule="evenodd" d="M4.04044 5.595L12.0334 13.622L19.9264 5.762L19.6254 5.428C17.6694 3.254 14.8594 2 11.9334 2H11.9164C9.02344 2 6.33144 3.171 4.35844 5.261L4.04044 5.595ZM12.0344 12.301L5.34544 5.595C7.11744 3.873 9.44144 2.936 11.9334 2.936H11.9504C14.4584 2.936 16.8664 3.957 18.6394 5.729L12.0344 12.301Z" fill="white"/>
<path d="M19.3584 7.73601L20.0944 7.00001L20.2774 7.30101C21.1974 8.822 21.6824 10.561 21.6824 12.334C21.6664 17.669 17.3344 22 12.0004 22H11.9834C6.64941 22 2.30141 17.635 2.31841 12.301C2.31841 10.512 2.81941 8.77301 3.73941 7.26801L3.90641 6.98401L4.79241 7.87001C4.62541 8.12001 4.47441 8.38801 4.37441 8.68901C3.67241 10.612 4.67541 12.736 6.61541 13.438C7.76941 13.839 8.99041 13.655 9.94341 13.02L12.0004 15.094L14.3584 12.736C14.5764 12.887 14.8264 13.004 15.0944 13.104C16.9844 13.773 19.0574 12.786 19.7264 10.913C20.1274 9.81 19.9434 8.656 19.3584 7.73601Z" fill="white"/>
<path d="M5.47937 10.161C5.47937 9.70999 5.62937 9.29099 5.88037 8.957L8.6564 11.7159C8.3224 11.9829 7.90439 12.1339 7.45239 12.1339C6.36538 12.1339 5.47937 11.248 5.47937 10.161Z" fill="white"/>
<path d="M15.5624 11.548C15.8804 11.765 16.2484 11.882 16.6664 11.882C17.7534 11.882 18.6394 10.996 18.6394 9.90899C18.6394 9.50799 18.5224 9.12299 18.3054 8.80499L15.5624 11.548Z" fill="white"/>
</svg>
