<svg width="24" height="24" viewBox="0 0 24 24" fill="none" xmlns="http://www.w3.org/2000/svg">
<circle cx="12" cy="12" r="12" fill="#6747ED"/>
<path fill-rule="evenodd" clip-rule="evenodd" d="M11.8254 13.5498C10.0504 13.5498 8.62539 12.1248 8.62539 10.3498C8.62539 8.57481 10.0504 7.14981 11.8254 7.14981C13.6004 7.14981 15.0254 8.57481 15.0254 10.3498C15.0254 12.1248 13.6004 13.5498 11.8254 13.5498ZM11.8254 5.5498C14.4754 5.5498 16.6254 7.69981 16.6254 10.3498C16.6254 12.9998 14.4754 15.1498 11.8254 15.1498C9.17539 15.1498 7.02539 12.9998 7.02539 10.3498C7.02539 7.69981 9.17539 5.5498 11.8254 5.5498ZM16.4004 15.3998C16.7254 15.7248 16.7254 16.2248 16.4004 16.5248L13.2004 19.7248C12.8754 20.0498 12.3754 20.0498 12.0754 19.7248C11.7504 19.3998 11.7504 18.8998 12.0754 18.5998L15.2754 15.3998C15.5754 15.0748 16.1004 15.0748 16.4004 15.3998ZM18.2504 6.34981C18.2504 6.79981 17.9004 7.14981 17.4504 7.14981C17.0004 7.14981 16.6504 6.79981 16.6504 6.34981C16.6504 5.89981 17.0004 5.5498 17.4504 5.5498C17.8754 5.5498 18.2504 5.89981 18.2504 6.34981Z" fill="white"/>
</svg>
