<svg width="24" height="24" viewBox="0 0 24 24" fill="none" xmlns="http://www.w3.org/2000/svg">
<circle cx="12" cy="12" r="12" fill="#C85655"/>
<path d="M19.1212 7.57291C18.303 8.05019 17.5076 8.50473 16.7197 8.96685C16.5379 9.07291 16.4318 8.94413 16.3106 8.87595C15.0758 8.1714 13.8409 7.47443 12.6212 6.73958C11.9091 6.31534 11.2424 6.30776 10.5303 6.73958C9.31061 7.46685 8.07576 8.1714 6.83333 8.87595C6.62121 8.99716 6.53788 9.12595 6.53788 9.37594C6.55303 10.7472 6.54545 12.1259 6.54545 13.4972C6.54545 14.3759 6.90909 15.035 7.68939 15.4744C8.88636 16.1487 10.0682 16.8381 11.25 17.535C11.4697 17.6638 11.6364 17.679 11.8636 17.5426C13.3485 16.6714 14.8485 15.8078 16.3409 14.9517C16.5152 14.8532 16.5909 14.7396 16.5833 14.535C16.5682 14.0502 16.5758 13.5653 16.5758 13.0123C15.9621 13.3305 15.4015 13.6259 14.7803 13.9517C14.7803 12.9062 14.7803 11.9214 14.7803 10.929C14.7803 10.8078 14.8409 10.7472 14.9394 10.6941C16.5758 9.83807 18.2121 8.97443 19.8561 8.11837C19.8864 8.10322 19.9242 8.10322 19.9924 8.09564C19.9924 9.07291 19.9848 10.0426 20 11.0123C20 11.1941 19.8939 11.2623 19.7652 11.3002C19.2273 11.4593 19.1136 11.8305 19.1439 12.3532C19.1894 13.232 19.1591 14.1184 19.1591 14.9972C19.1591 15.8456 18.8106 16.4896 18.053 16.9214C16 18.0956 13.9545 19.2775 11.9091 20.4744C11.6515 20.6259 11.4697 20.6108 11.2273 20.4669C9.18182 19.2775 7.13636 18.0956 5.08333 16.9138C4.36364 16.4972 4.00758 15.8911 4.00758 15.0578C4.00758 12.679 4.01515 10.2926 4 7.91382C4 7.63352 4.09091 7.48958 4.32576 7.35322C6.37121 6.18655 8.40152 5.00473 10.4394 3.83049C11.1439 3.4214 11.8864 3.37595 12.5985 3.78504C14.7197 4.98958 16.8333 6.21685 18.947 7.43655C19 7.46685 19.0455 7.51231 19.1212 7.57291Z" fill="white"/>
</svg>
