<svg width="24" height="24" viewBox="0 0 24 24" fill="none" xmlns="http://www.w3.org/2000/svg">
<circle cx="12" cy="12" r="12" fill="white"/>
<path d="M20.9949 9.11992C19.727 9.11992 18.4932 9.11992 17.2545 9.11992C17.2398 9.06628 17.2203 9.01264 17.2155 8.95899C17.1472 8.35428 16.9277 8.0763 16.3376 7.97389C15.7671 7.87636 15.1867 7.78858 14.6064 7.77882C12.8947 7.75444 11.1829 7.76419 9.46633 7.77395C8.90063 7.77882 8.33493 7.85197 7.81312 8.08606C7.22304 8.3494 6.93043 8.8517 6.79876 9.45154C6.72561 9.77341 6.70123 10.105 6.65246 10.4757C6.77438 10.4757 6.85728 10.4757 6.94019 10.4757C8.20814 10.4757 9.47121 10.4757 10.7392 10.4659C10.9098 10.4659 11.0903 10.4123 11.2415 10.3342C11.812 10.0514 12.3729 9.7539 12.9629 9.50519C12.7971 9.61247 12.6313 9.71976 12.4655 9.82217C10.5831 11.0023 8.70069 12.1776 6.81827 13.3627C6.74512 13.4066 6.65246 13.4727 6.65246 13.5675C6.65246 14.043 6.72561 14.5087 6.84753 14.9525C7.05723 15.6938 7.65219 16.0302 8.36419 16.1278C9.02743 16.2156 9.70041 16.2692 10.3685 16.279C11.5926 16.3033 12.8215 16.3082 14.0456 16.2741C14.7137 16.2595 15.3916 16.2009 16.045 16.079C16.9033 15.9181 17.1716 15.5865 17.235 14.7379C17.2691 14.3283 17.2398 13.9137 17.2398 13.4748C17.1618 13.47 17.0838 13.4651 17.0058 13.4651C15.7329 13.4651 14.4552 13.4651 13.1824 13.4748C13.0654 13.4748 12.9434 13.509 12.841 13.5577C12.0705 13.9235 11.3 14.299 10.5295 14.6745C10.4758 14.6989 10.4173 14.7184 10.3393 14.6989C10.7197 14.4502 11.1 14.2015 11.4853 13.9576C13.2702 12.8311 15.0502 11.7046 16.8399 10.5829C16.9375 10.5195 17.0594 10.4708 17.1764 10.4708C18.3859 10.461 19.5953 10.4561 20.8047 10.4561C20.8681 10.4561 20.9315 10.4708 20.9949 10.4805C20.9949 11.1048 20.9998 11.7095 20.9949 12.3191C20.99 13.075 20.9949 13.8308 20.9559 14.5819C20.912 15.3865 20.8145 16.1912 20.5267 16.9519C20.1122 18.0492 19.3027 18.7076 18.2201 19.0684C17.352 19.3513 16.4547 19.483 15.5476 19.4976C13.3482 19.5366 11.1488 19.5659 8.9494 19.5415C7.78874 19.5269 6.6232 19.4147 5.52594 18.9758C4.27262 18.4735 3.57037 17.5177 3.27289 16.2302C3.04856 15.2305 2.99004 14.2161 2.99979 13.1969C3.00954 12.2166 2.99491 11.2315 3.03881 10.2513C3.0827 9.27598 3.14122 8.30063 3.4582 7.35943C3.88248 6.10123 4.72615 5.29169 5.97947 4.88692C6.92556 4.57969 7.90578 4.46753 8.89575 4.44802C10.51 4.41388 12.1241 4.37975 13.7383 4.40413C15.1038 4.42364 16.4742 4.48216 17.8153 4.79427C18.4688 4.94545 19.0979 5.17953 19.6489 5.57942C20.4682 6.17438 20.795 7.03268 20.912 7.9934C20.9608 8.36403 20.9705 8.73466 20.9949 9.11992Z" fill="url(#paint0_linear_gzil)"/>
<defs>
<linearGradient id="paint0_linear_gzil" x1="11.9979" y1="4.39587" x2="11.9979" y2="19.5504" gradientUnits="userSpaceOnUse">
<stop stop-color="#C73BA2"/>
<stop offset="0.390625" stop-color="#5E3BBC"/>
<stop offset="0.540828" stop-color="#3C5AA8"/>
<stop offset="1" stop-color="#29CCC4"/>
</linearGradient>
</defs>
</svg>
