<svg width="24" height="24" viewBox="0 0 24 24" fill="none" xmlns="http://www.w3.org/2000/svg">
<circle cx="12" cy="12" r="12" fill="black"/>
<path fill-rule="evenodd" clip-rule="evenodd" d="M14.2797 12.6201H20.2797L20.3597 12.9801V13.1501V13.3201V13.4701V13.6201V13.6901V13.8101C20.3904 13.9215 20.434 14.0289 20.4897 14.1301C20.5751 14.2448 20.6269 14.381 20.6393 14.5235C20.6517 14.6659 20.6241 14.809 20.5598 14.9367C20.4954 15.0644 20.3967 15.1717 20.2748 15.2464C20.153 15.3212 20.0127 15.3606 19.8697 15.3601H3.84966C3.70666 15.3606 3.56635 15.3212 3.44447 15.2464C3.32258 15.1717 3.22393 15.0644 3.15956 14.9367C3.0952 14.809 3.06766 14.6659 3.08004 14.5235C3.09242 14.381 3.14423 14.2448 3.22966 14.1301C3.25529 14.0814 3.28911 14.0374 3.32966 14.0001C3.59823 13.5722 3.7563 13.0842 3.78966 12.5801H9.71966C9.90357 13.0341 10.2188 13.4228 10.625 13.6965C11.0312 13.9702 11.5099 14.1164 11.9997 14.1164C12.4895 14.1164 12.9681 13.9702 13.3743 13.6965C13.7805 13.4228 14.0957 13.0341 14.2797 12.5801V12.6201ZM11.9997 4.62012C13.8099 4.65111 15.5612 5.26822 16.991 6.37887C18.4208 7.48952 19.4519 9.03382 19.9297 10.7801C19.9591 10.8514 19.9826 10.9249 19.9997 11.0001H14.3697C14.2256 10.4823 13.9159 10.0259 13.4879 9.70067C13.0599 9.37549 12.5372 9.19944 11.9997 9.19944C11.4621 9.19944 10.9394 9.37549 10.5114 9.70067C10.0834 10.0259 9.77372 10.4823 9.62966 11.0001H3.99966V10.9001C4.46002 9.12097 5.49247 7.54248 6.93803 6.40772C8.38358 5.27296 10.1621 4.64486 11.9997 4.62012Z" fill="#F4922C"/>
<path fill-rule="evenodd" clip-rule="evenodd" d="M14.2802 12.6201H18.3802V12.7901V12.8701V13.0401C18.5202 13.7101 18.7502 14.2901 19.1502 14.4601C19.2722 14.4601 19.3892 14.5086 19.4754 14.5948C19.5617 14.6811 19.6102 14.7981 19.6102 14.9201C19.6115 14.9809 19.6006 15.0413 19.5779 15.0977C19.5553 15.1542 19.5215 15.2054 19.4785 15.2484C19.4355 15.2914 19.3842 15.3252 19.3278 15.3479C19.2714 15.3705 19.2109 15.3815 19.1502 15.3801H3.85016C3.74952 15.3814 3.64961 15.3627 3.55625 15.3251C3.46288 15.2875 3.37792 15.2318 3.30628 15.1611C3.23465 15.0904 3.17777 15.0061 3.13895 14.9133C3.10014 14.8204 3.08015 14.7207 3.08016 14.6201C3.07854 14.5132 3.10108 14.4073 3.1461 14.3104C3.19112 14.2134 3.25746 14.1278 3.34016 14.0601C3.62385 13.6313 3.78626 13.1337 3.81016 12.6201H9.72016C9.90407 13.0741 10.2193 13.4628 10.6255 13.7365C11.0317 14.0102 11.5104 14.1564 12.0002 14.1564C12.49 14.1564 12.9686 14.0102 13.3748 13.7365C13.781 13.4628 14.0962 13.0741 14.2802 12.6201ZM12.0002 4.6201C13.0713 4.57847 14.1287 4.87211 15.025 5.46007C15.9213 6.04804 16.6117 6.90102 17.0002 7.9001L17.0902 8.0901V8.1901L17.1802 8.3801L17.2702 8.5801L17.3502 8.7901L17.4302 8.9901L17.5102 9.2101V9.3101L17.5802 9.5301L17.6602 9.7501L17.7302 9.9701L17.8002 10.2001L17.8702 10.4301L17.9802 10.7801C18.0036 10.8585 18.0203 10.9388 18.0302 11.0201H14.3702C14.2261 10.5022 13.9164 10.0458 13.4884 9.72065C13.0604 9.39547 12.5377 9.21941 12.0002 9.21941C11.4626 9.21941 10.9399 9.39547 10.5119 9.72065C10.0839 10.0458 9.77422 10.5022 9.63016 11.0201H4.00016V10.9101C4.45866 9.12909 5.4903 7.54837 6.93603 6.41167C8.38175 5.27497 10.1613 4.64542 12.0002 4.6201Z" fill="#F7A32B"/>
<path d="M11.8502 13.2301C12.7835 13.2301 13.5402 12.4735 13.5402 11.5401C13.5402 10.6067 12.7835 9.8501 11.8502 9.8501C10.9168 9.8501 10.1602 10.6067 10.1602 11.5401C10.1602 12.4735 10.9168 13.2301 11.8502 13.2301Z" fill="#F8F8F7"/>
<path fill-rule="evenodd" clip-rule="evenodd" d="M8.69008 8.61984C8.85008 8.67984 8.85008 8.46984 8.84008 8.35984C8.49041 7.52263 7.95329 6.77683 7.27008 6.17984C7.15767 6.09942 7.0298 6.04318 6.89456 6.01467C6.75932 5.98616 6.61963 5.98599 6.48432 6.01418C6.34901 6.04237 6.22101 6.09831 6.10841 6.17845C5.9958 6.2586 5.90103 6.36122 5.83008 6.47984C5.68049 6.68519 5.57336 6.91832 5.51498 7.16558C5.4566 7.41284 5.44813 7.66926 5.49008 7.91984C6.6041 7.80592 7.72537 8.05119 8.69008 8.61984Z" fill="#FBB42B"/>
<path fill-rule="evenodd" clip-rule="evenodd" d="M14.8596 8.31012C14.7096 8.37012 14.7396 8.19012 14.7696 8.09012C15.2229 7.37788 15.8024 6.75434 16.4796 6.25012C16.7176 6.13522 16.9876 6.10431 17.2454 6.16241C17.5033 6.22052 17.7339 6.36423 17.8996 6.57012C18.2196 6.96012 18.2196 7.72012 17.9696 7.69012C16.8974 7.63305 15.828 7.84624 14.8596 8.31012Z" fill="#FBB42B"/>
<path fill-rule="evenodd" clip-rule="evenodd" d="M10 4.85994C10.6 4.74994 10.33 3.68994 11.78 3.68994C13.23 3.68994 12.97 4.68994 13.55 4.75994C12.87 4.75994 12.23 7.75994 11.7 7.75994C11.17 7.75994 10.6 4.85994 10 4.85994Z" fill="#FBB42B"/>
</svg>
