<svg width="24" height="24" viewBox="0 0 24 24" fill="none" xmlns="http://www.w3.org/2000/svg">
<circle cx="12" cy="12" r="12" fill="white"/>
<path d="M15.1959 6.24249C15.8922 5.54611 17.0363 5.54611 17.7326 6.24249C18.429 6.93886 18.429 8.0829 17.7326 8.77927C17.3223 9.18964 16.7751 9.36373 16.2155 9.28912C16.1907 9.28912 16.1658 9.28912 16.1285 9.28912C15.9668 9.26425 15.7927 9.28912 15.6187 9.36373C15.3824 9.47565 15.2207 9.66218 15.1337 9.88601C15.0466 10.1098 15.0591 10.3585 15.1585 10.5824C15.7554 11.8756 15.4819 13.4425 14.4622 14.4497C13.4425 15.4694 11.8881 15.743 10.5948 15.1461C10.3585 15.0342 10.1098 15.0342 9.88601 15.1212C9.66218 15.2083 9.47565 15.3699 9.37617 15.5938C9.31399 15.743 9.27668 15.8922 9.28912 16.0539C9.28912 16.0788 9.28912 16.1161 9.28912 16.1409C9.3886 16.713 9.18964 17.2974 8.79171 17.7078C8.09534 18.4041 6.95129 18.4041 6.25492 17.7078C5.91917 17.372 5.73264 16.9244 5.73264 16.4394C5.73264 15.9668 5.91917 15.5067 6.25492 15.171C6.66528 14.7606 7.21244 14.5865 7.77202 14.6611C7.78446 14.6611 7.78446 14.6611 7.79689 14.6611C7.85907 14.6736 7.92124 14.686 7.98342 14.686C8.12021 14.686 8.24456 14.6611 8.36891 14.599C8.60518 14.487 8.76684 14.3005 8.84145 14.0891C8.9285 13.8653 8.9285 13.6041 8.81658 13.3679C8.21969 12.0622 8.49326 10.5078 9.51295 9.50052C10.5326 8.48083 12.087 8.20725 13.3803 8.80414C13.6041 8.91606 13.8653 8.91606 14.0891 8.82902C14.313 8.74197 14.4995 8.58031 14.6114 8.35648C14.6984 8.18238 14.7109 7.98342 14.686 7.79689C14.599 7.23731 14.7855 6.65285 15.1959 6.24249ZM13.4176 13.4052C14.1886 12.6342 14.1886 11.3782 13.4176 10.5948C12.6466 9.82383 11.3907 9.82383 10.6073 10.5948C9.83627 11.3658 9.83627 12.6218 10.6073 13.4052C11.3907 14.1762 12.6466 14.1762 13.4176 13.4052ZM12 0C18.628 0 24 5.37202 24 12C24 18.628 18.628 24 12 24C5.37202 24 0 18.628 0 12C0 5.37202 5.37202 0 12 0ZM18.3917 9.45078C19.4487 8.39378 19.4487 6.67772 18.3917 5.60829C17.3347 4.55129 15.6187 4.55129 14.5492 5.60829C14.1513 6.00622 13.915 6.49119 13.8031 6.9886C11.8756 6.26736 9.67461 6.72746 8.20725 8.19482C6.7399 9.66218 6.27979 11.8756 7.01347 13.8031C6.50363 13.9026 6.01865 14.1513 5.62073 14.5492C4.56373 15.6062 4.56373 17.3223 5.62073 18.3917C6.67772 19.4487 8.39378 19.4487 9.46321 18.3917C9.86114 17.9938 10.1098 17.4964 10.2093 16.9865C10.8062 17.2104 11.428 17.3223 12.0497 17.3223C13.4301 17.3223 14.7855 16.7876 15.7927 15.7803C17.2601 14.313 17.7202 12.1244 17.0114 10.2093C17.5088 10.085 17.9938 9.83627 18.3917 9.45078Z" fill="#38A2FF"/>
</svg>
