<svg width="24" height="24" viewBox="0 0 24 24" fill="none" xmlns="http://www.w3.org/2000/svg">
<circle cx="12" cy="12" r="12" fill="#1BA7AE"/>
<path fill-rule="evenodd" clip-rule="evenodd" d="M5 6.4934C6.56398 6.21564 8.3021 6.53853 9.51034 7.70743C10.3992 8.54764 10.9098 9.75241 11.1844 10.9734C11.7335 10.934 12.2719 11.0093 12.8135 11.0706C13.1254 9.55451 13.8818 8.06388 15.1509 7.26417C16.2951 6.52812 17.6999 6.33485 19 6.57788C18.6688 7.15076 18.3505 7.73289 18.0108 8.29997C17.2971 8.23979 16.5408 8.36363 15.9457 8.82077C15.2193 9.36008 14.8272 10.294 14.7033 11.2164C15.0078 11.2164 15.3133 11.2164 15.6178 11.2187C15.8891 11.7685 16.168 12.3136 16.4521 12.8552C15.871 12.854 15.2909 12.8552 14.7097 12.854C14.9148 13.707 15.2407 14.5819 15.8881 15.1536C16.4692 15.6779 17.2886 15.8341 18.0108 15.6131C18.3505 16.179 18.6678 16.7588 18.9989 17.3294C17.7886 17.5944 16.4585 17.5504 15.371 16.8549C14.0399 16.0297 13.2472 14.4905 12.8295 12.9385C12.2762 12.9836 11.7335 12.8934 11.1854 12.8482C10.7709 14.4303 9.98039 16.0147 8.62259 16.8549C7.5404 17.5493 6.21679 17.5956 5.01068 17.3294C5.34185 16.7588 5.65914 16.179 5.99886 15.6131C6.71889 15.8318 7.5372 15.6733 8.11515 15.1501C8.7636 14.5807 9.09264 13.707 9.30095 12.854C8.7198 12.8552 8.13865 12.854 7.5575 12.8552C7.84166 12.3136 8.12049 11.7673 8.3929 11.2176C8.69523 11.2176 8.99756 11.2176 9.29989 11.2153C9.17276 10.3218 8.81274 9.41563 8.12156 8.86937C7.52117 8.37288 6.73491 8.23979 5.99779 8.29997C5.657 7.7028 5.34399 7.08826 5 6.4934Z" fill="white"/>
</svg>
