<svg width="24" height="24" viewBox="0 0 24 24" fill="none" xmlns="http://www.w3.org/2000/svg">
<circle cx="12" cy="12" r="12" fill="#1C2143"/>
<path d="M12.0606 4H11.8541C11.8796 4.91078 11.7215 5.81766 11.4889 6.69602C11.3164 7.26194 11.0465 7.79155 10.761 8.30755C10.3904 8.92732 9.90548 9.46785 9.42485 10.0036C9.40981 10.0204 9.39478 10.0371 9.37975 10.0539C8.43952 10.9355 7.58555 11.9772 7.22226 13.2309C6.98769 13.9984 6.93934 14.8198 7.0746 15.61C7.25689 16.6212 7.73582 17.5709 8.42188 18.3377C8.52354 18.4326 8.62124 18.5322 8.719 18.6319C8.94607 18.8634 9.17346 19.0953 9.45162 19.268C10.0299 19.6621 10.6983 20.0089 11.4164 19.9998C11.4386 19.9726 11.4824 19.9188 11.5039 19.8916C11.4068 19.6502 11.2808 19.4233 11.1547 19.1963C11.0526 19.0123 10.9504 18.8284 10.8636 18.6366C10.6981 18.3497 10.6006 18.0346 10.5033 17.7202C10.4772 17.636 10.4512 17.5519 10.4239 17.4685C10.3664 17.2818 10.3395 17.0895 10.3126 16.8972C10.2914 16.7461 10.2703 16.5951 10.2344 16.4468C10.2631 15.7811 10.4389 15.127 10.7297 14.5267C11.1552 13.7146 11.7156 12.9912 12.276 12.2677C12.5579 11.9037 12.8399 11.5397 13.1047 11.1643C13.1489 11.0923 13.194 11.0205 13.2391 10.9484C13.5131 10.5113 13.7906 10.0685 13.9005 9.55929C14.0293 9.08025 14.0214 8.57462 13.943 8.08779C13.8326 6.95208 13.4308 5.85072 12.827 4.8829C12.6238 4.54776 12.3481 4.26448 12.0606 4Z" fill="white"/>
<path d="M14.9402 10C14.911 10.0195 14.8537 10.0577 14.825 10.0772C14.8055 10.3061 14.7288 10.5208 14.6528 10.7337C14.6498 10.7423 14.6467 10.7509 14.6437 10.7594C14.6092 10.8335 14.575 10.9077 14.5407 10.9819C14.353 11.3887 14.1653 11.7955 13.943 12.183C13.7987 12.4308 13.6418 12.67 13.4849 12.9091C13.2956 13.1976 13.1063 13.486 12.9393 13.7897C12.8121 13.9983 12.71 14.2216 12.6079 14.4451C12.5461 14.5803 12.4842 14.7156 12.4168 14.8477C12.3996 14.898 12.3822 14.9484 12.3648 14.9989C12.1678 15.5699 11.9653 16.1567 12.005 16.7724C12.0093 16.8605 12.0067 16.9493 12.0041 17.0381C11.9989 17.2138 11.9938 17.3896 12.042 17.5594C12.1571 18.3423 12.5785 19.0413 13.0672 19.6283C13.0827 19.6494 13.0981 19.6711 13.1136 19.6929C13.2068 19.8246 13.3046 19.9626 13.465 20C13.6521 19.58 14.0314 19.3177 14.4158 19.1232C14.7411 18.9698 15.011 18.724 15.279 18.48C15.3534 18.4123 15.4276 18.3447 15.5028 18.2792C15.8147 17.9102 16.1291 17.5359 16.3563 17.1005C17.1747 15.5904 17.2097 13.6583 16.4785 12.1018C16.4417 11.9584 16.3653 11.8358 16.2888 11.7131C16.2447 11.6424 16.2006 11.5716 16.1641 11.4967C15.9197 11.0296 15.5629 10.6558 15.2074 10.2833C15.1176 10.1893 15.028 10.0953 14.9402 10Z" fill="white"/>
</svg>
