<svg width="24" height="24" viewBox="0 0 24 24" fill="none" xmlns="http://www.w3.org/2000/svg">
<circle cx="12" cy="12" r="12" fill="#005FFA"/>
<path d="M14.4729 18.953H17.0277L17.0265 13.2782C17.0253 11.8682 15.8829 10.7258 14.4729 10.7246H10.8009C10.0965 10.7246 9.52528 10.1522 9.52528 9.44776V5.04856H6.97168V10.7246C6.97168 12.1346 8.11528 13.2782 9.52528 13.2782H13.1985C13.9029 13.2782 14.4729 13.8506 14.4729 14.555V18.953Z" fill="white"/>
<path d="M7.05928 18.953H9.61408L9.61288 17.2178C9.61288 15.8066 8.46928 14.6642 7.05928 14.6642V18.953Z" fill="white"/>
<path d="M16.9389 5.04736H14.3853V6.78496C14.3853 8.19496 15.5277 9.33856 16.9389 9.33856V5.04736Z" fill="white"/>
</svg>
