<svg width="24" height="24" viewBox="0 0 24 24" fill="none" xmlns="http://www.w3.org/2000/svg">
<circle cx="12" cy="12" r="12" fill="#292A2E"/>
<path d="M17.1421 7C16.0241 7 14.8053 7.57292 13.5171 8.70139C12.906 9.23611 12.3783 9.80903 11.9824 10.2674C11.9824 10.2674 11.9824 10.2674 11.9859 10.2708V10.2674C11.9859 10.2674 12.6109 10.9479 13.3019 11.6771C13.6734 11.2361 14.2081 10.6354 14.8227 10.0938C15.9685 9.09028 16.7151 8.87847 17.1421 8.87847C18.7498 8.87847 20.0553 10.1528 20.0553 11.7188C20.0553 13.2743 18.7463 14.5486 17.1421 14.559C17.0692 14.559 16.9755 14.5486 16.8574 14.5243C17.3262 14.7257 17.8296 14.8715 18.3088 14.8715C21.2533 14.8715 21.8296 12.9514 21.8678 12.8125C21.9546 12.4618 21.9998 12.0938 21.9998 11.7153C21.9998 9.11806 19.8192 7 17.1421 7Z" fill="url(#paint0_linear)"/>
<path d="M6.85763 16.4443C7.97569 16.4443 9.19444 15.8714 10.4826 14.7429C11.0937 14.2082 11.6215 13.6353 12.0174 13.1769C12.0174 13.1769 12.0174 13.1769 12.0139 13.1734V13.1769C12.0139 13.1769 11.3889 12.4964 10.6979 11.7672C10.3264 12.2082 9.79166 12.8089 9.17708 13.3505C8.03124 14.354 7.28472 14.5658 6.85763 14.5658C5.25 14.5658 3.94444 13.2915 3.94444 11.7255C3.94444 10.17 5.25347 8.89567 6.85763 8.88525C6.93055 8.88525 7.0243 8.89567 7.14236 8.91998C6.67361 8.71859 6.17013 8.57275 5.69097 8.57275C2.74653 8.57275 2.17014 10.4929 2.13194 10.6318C2.04514 10.9825 2 11.3505 2 11.729C2 14.3262 4.18055 16.4443 6.85763 16.4443Z" fill="url(#paint1_linear)"/>
<path d="M18.302 14.8298C16.795 14.7916 15.2291 13.6041 14.9096 13.309C14.0832 12.5451 12.177 10.4791 12.0277 10.3159C10.6318 8.75342 8.73948 7.00342 6.85753 7.00342H6.85406H6.85059C4.56586 7.01383 2.64225 8.56244 2.13184 10.6284C2.17003 10.493 2.9235 8.53467 5.68739 8.60411C7.19434 8.64231 8.76725 9.84716 9.09017 10.1423C9.91656 10.9062 11.8228 12.9722 11.9721 13.1354C13.3679 14.6979 15.2603 16.4479 17.1423 16.4479H17.1457H17.1492C19.4339 16.4374 21.3575 14.8888 21.868 12.8229C21.8263 12.9548 21.0693 14.8958 18.302 14.8298Z" fill="#29ABE2"/>
<defs>
<linearGradient id="paint0_linear" x1="14.6135" y1="7.62273" x2="21.218" y2="14.4619" gradientUnits="userSpaceOnUse">
<stop offset="0.21" stop-color="#F15A24"/>
<stop offset="0.6841" stop-color="#FBB03B"/>
</linearGradient>
<linearGradient id="paint1_linear" x1="9.3863" y1="15.8216" x2="2.78176" y2="8.98237" gradientUnits="userSpaceOnUse">
<stop offset="0.21" stop-color="#ED1E79"/>
<stop offset="0.8929" stop-color="#522785"/>
</linearGradient>
</defs>
</svg>
