<svg width="24" height="24" viewBox="0 0 24 24" fill="none" xmlns="http://www.w3.org/2000/svg">
<circle cx="12" cy="12" r="12" fill="#18A0B1"/>
<path d="M20 5.37931C20 6.14108 19.3825 6.75862 18.6207 6.75862C17.8589 6.75862 17.2414 6.14108 17.2414 5.37931C17.2414 4.61754 17.8589 4 18.6207 4C19.3825 4 20 4.61754 20 5.37931Z" fill="white"/>
<path d="M7.41443 11.4403C7.28528 12.4556 7.49708 13.485 8.01656 14.3669L6.91311 15.4703C6.11702 14.2927 5.75375 12.8755 5.88515 11.4601C6.01655 10.0447 6.6345 8.71859 7.63377 7.70761C8.63305 6.69662 9.95186 6.06326 11.3656 5.91538C12.7794 5.7675 14.2007 6.11424 15.3876 6.89655L15.4428 6.94069L14.3393 8.04414C13.4575 7.52466 12.428 7.31286 11.4127 7.44201C10.3974 7.57116 9.45379 8.03395 8.73008 8.75766C8.00637 9.48137 7.54358 10.425 7.41443 11.4403Z" fill="white"/>
<path d="M15.9835 9.6938C16.5029 10.5756 16.7147 11.6051 16.5856 12.6204C16.4564 13.6357 15.9936 14.5793 15.2699 15.303C14.5462 16.0267 13.6026 16.4895 12.5873 16.6187C11.572 16.7478 10.5426 16.536 9.6607 16.0166L8.55725 17.12C9.73909 17.9224 11.1637 18.2876 12.5858 18.1528C14.0079 18.0181 15.3385 17.3917 16.3486 16.3817C17.3586 15.3716 17.985 14.041 18.1197 12.6189C18.2545 11.1968 17.8893 9.77218 17.0869 8.59035L15.9835 9.6938Z" fill="white"/>
<path d="M6.75862 18.6207C6.75862 19.3825 6.14108 20 5.37931 20C4.61754 20 4 19.3825 4 18.6207C4 17.8589 4.61754 17.2414 5.37931 17.2414C6.14108 17.2414 6.75862 17.8589 6.75862 18.6207Z" fill="white"/>
</svg>
