<svg width="24" height="24" viewBox="0 0 24 24" fill="none" xmlns="http://www.w3.org/2000/svg">
<circle cx="12" cy="12" r="12" fill="black"/>
<path d="M14.607 20.9038C14.5583 20.855 14.5096 20.8063 14.4608 20.8063C13.3401 20.5627 12.2193 20.1728 11.2447 19.5881C9.19805 18.3698 7.83362 16.5668 7.78489 14.4715C7.78489 13.6918 7.93108 12.9121 8.27219 12.1812C8.46711 11.6939 9.63662 10.0371 9.7828 9.7447C10.5625 8.52646 10.3188 8.62392 9.19805 7.11331L7.6387 4.82302L6.61538 3.26367C6.03063 3.65351 5.44587 4.1408 4.90985 4.6281C3.8378 5.70015 3.0094 7.06458 2.5221 8.52646C2.03481 9.98835 1.88862 11.5477 2.08354 13.0583C2.27845 14.5689 2.86321 16.0308 3.74034 17.2978C4.61747 18.5647 5.78698 19.6368 7.10268 20.3677C3.64288 17.8338 2.03481 13.9842 3.3505 10.1345C3.69161 9.11122 4.22764 8.13663 4.90985 7.25949L6.03063 8.9163C6.07936 9.01376 6.12809 9.11122 6.12809 9.25741C6.12809 9.35486 6.07936 9.50105 6.03063 9.59851C5.4946 10.2807 5.05604 11.0117 4.76366 11.8401C3.30177 16.0795 7.24887 20.4652 11.3909 21.1961C12.1706 21.3423 13.6324 21.4885 14.4121 21.2936C14.4608 21.2936 14.5096 21.2449 14.5096 21.2449C14.5583 21.1961 14.5583 21.1961 14.5583 21.1474C14.5583 21.0987 14.5583 21.05 14.5583 21.0012C14.6558 21.0012 14.6558 20.9525 14.607 20.9038Z" fill="url(#paint0_linear)"/>
<path d="M9.34463 2.48378C9.39336 2.53251 9.44209 2.58124 9.49082 2.58124C10.6116 2.82489 11.7324 3.21473 12.707 3.79948C14.7536 5.01772 16.118 6.82071 16.1668 8.91608C16.1668 9.69576 16.0206 10.4754 15.6795 11.2064C15.4846 11.6937 14.315 13.3505 14.1689 13.6428C13.3892 14.8611 13.6328 14.7636 14.7536 16.2742L16.313 18.5645L17.385 20.1239C17.9698 19.734 18.5545 19.2467 19.0905 18.7594C20.1626 17.6874 20.991 16.323 21.4783 14.8611C21.9656 13.3992 22.1118 11.8399 21.9169 10.3292C21.7219 8.81862 21.1372 7.35674 20.26 6.08977C19.3829 4.8228 18.2134 3.75075 16.8977 3.01981C20.3575 5.55374 21.9656 9.40338 20.6012 13.253C20.26 14.2763 19.724 15.2509 19.0418 16.1281L17.921 14.4713C17.8723 14.3738 17.8236 14.2763 17.8236 14.1301C17.8236 14.0327 17.8723 13.8865 17.921 13.789C18.4571 13.1068 18.8956 12.3759 19.188 11.5475C20.6499 7.30801 16.7028 2.92235 12.5608 2.19141C11.7811 2.04522 10.3192 1.89903 9.53955 2.09395C9.49082 2.09395 9.44209 2.14268 9.44209 2.14268C9.34463 2.14268 9.2959 2.19141 9.2959 2.24014C9.2959 2.28886 9.2959 2.33759 9.2959 2.38632C9.2959 2.38632 9.2959 2.43505 9.34463 2.48378Z" fill="url(#paint1_linear)"/>
<defs>
<linearGradient id="paint0_linear" x1="5.72125" y1="19.6025" x2="13.0204" y2="6.95903" gradientUnits="userSpaceOnUse">
<stop stop-color="#174E5B"/>
<stop offset="0.07" stop-color="#195A6C"/>
<stop offset="0.21" stop-color="#1E779A"/>
<stop offset="0.4" stop-color="#27A7E3"/>
<stop offset="0.47" stop-color="#2ABAFF"/>
<stop offset="0.7" stop-color="#1DDAF0"/>
<stop offset="1" stop-color="#0EFFE0"/>
</linearGradient>
<linearGradient id="paint1_linear" x1="18.2318" y1="3.7854" x2="10.932" y2="16.4279" gradientUnits="userSpaceOnUse">
<stop stop-color="#174E5B"/>
<stop offset="0.07" stop-color="#195A6C"/>
<stop offset="0.21" stop-color="#1E779A"/>
<stop offset="0.4" stop-color="#27A7E3"/>
<stop offset="0.47" stop-color="#2ABAFF"/>
<stop offset="0.7" stop-color="#1DDAF0"/>
<stop offset="1" stop-color="#0EFFE0"/>
</linearGradient>
</defs>
</svg>
