<svg width="24" height="24" viewBox="0 0 24 24" fill="none" xmlns="http://www.w3.org/2000/svg">
<circle cx="12" cy="12" r="12" fill="black"/>
<path d="M12 2.75977L4 7.37843V16.6158L12 21.2344L20 16.6158V7.37843L12 2.75977ZM12.1636 17.7215L6.02311 14.2193L6.048 12.5162L12.16 16.0149L15.1076 14.3153L13.1307 13.174L12.3911 13.6007L11.0044 12.8042L11.7476 12.374L10.7769 11.8122L10.1902 12.1535L8.8 11.3571L9.39022 11.0158L6.25778 9.20599L12.16 5.79977L17.728 8.97488L16.2347 9.84243L12.16 7.50643L9.21244 9.20599L10.8622 10.1589L11.7049 9.66821L13.0951 10.4647L12.2453 10.9553L13.216 11.5171L13.9058 11.1153L15.296 11.9118L14.5991 12.3171L18.0551 14.3118L12.1636 17.7215Z" fill="white"/>
</svg>
