<?xml version="1.0" encoding="UTF-8"?>
<svg width="24px" height="24px" viewBox="0 0 24 24" version="1.1" xmlns="http://www.w3.org/2000/svg" xmlns:xlink="http://www.w3.org/1999/xlink">
  <path d="M12,24 C18.627417,24 24,18.627417 24,12 C24,5.372583 18.627417,0 12,0 C5.372583,0 0,5.372583 0,12 C0,18.627417 5.372583,24 12,24 Z" fill="#4276E6"></path>
  <path d="M16.08,14.06 C16.08,12.06 14.8,11.33 12.24,11.06 C10.42,10.83 10.05,10.36 10.05,9.55 C10.05,8.74 10.66,8.22 11.88,8.22 C13.1,8.22 13.58,8.56 13.88,9.43 C13.9442575,9.61179714 14.1171965,9.73245226 14.31,9.73 L15.31,9.73 C15.4213999,9.73268397 15.5293002,9.69098821 15.6099478,9.61409162 C15.6905955,9.53719502 15.7373792,9.43140135 15.74,9.32 L15.74,9.24 C15.4645244,7.92151565 14.3440599,6.94826545 13,6.86 L13,5.46 C13,5.23 12.81,5.06 12.51,5 L11.59,5 C11.3364676,5.0093488 11.1301241,5.20709471 11.11,5.46 L11.11,6.8 C9.28,7.03 8.11,8.2 8.11,9.65 C8.11,11.56 9.33,12.32 11.89,12.65 C13.59,12.94 14.14,13.29 14.14,14.22 C14.14,15.15 13.29,15.79 12.14,15.79 C10.56,15.79 10.01,15.15 9.83,14.28 C9.78744333,14.0763428 9.60805584,13.9303297 9.4,13.93 L8.4,13.93 C8.29049256,13.9245177 8.18353542,13.9642275 8.10413762,14.0398445 C8.02473981,14.1154615 7.97986285,14.2203555 7.97999969,14.33 L7.97999969,14.39 C8.22,15.84 9.2,16.89 11.21,17.18 L11.21,18.58 C11.21,18.81 11.39,18.98 11.69,19.04 L12.61,19.04 C12.8655562,19.0311892 13.0750824,18.834491 13.1,18.58 L13.1,17.18 C14.7332657,17.0560056 16.0190217,15.7359627 16.1,14.1 L16.08,14.06 Z" fill="#FFFFFF" fill-rule="nonzero"></path>
</svg>
