<svg width="24" height="24" viewBox="0 0 24 24" fill="none" xmlns="http://www.w3.org/2000/svg">
<circle cx="12" cy="12" r="12" fill="#0093DD"/>
<path fill-rule="evenodd" clip-rule="evenodd" d="M9.50829 12L14.105 16.6851L17.0221 13.768C17.5525 13.2376 18.3481 13.2376 18.7901 13.768C19.3204 14.2983 19.3204 15.1823 18.7901 15.7127L14.989 19.6022C14.4586 20.1326 13.663 20.1326 13.1326 19.6022L7.65193 13.9448V17.3039C7.65193 18.011 7.03315 18.6298 6.32597 18.6298C5.61878 18.6298 5 18.011 5 17.3039V6.69613C5 5.98895 5.61878 5.37017 6.32597 5.37017C7.03315 5.37017 7.65193 5.98895 7.65193 6.69613V10.0552L13.1326 4.39779C13.663 3.8674 14.4586 3.8674 14.989 4.39779L18.7901 8.28729C19.3204 8.81768 19.3204 9.70166 18.7901 10.232C18.2597 10.7624 17.4641 10.7624 17.0221 10.232L14.105 7.22652L9.50829 12ZM14.105 10.674C14.8122 10.674 15.4309 11.2928 15.4309 12C15.4309 12.7072 14.8122 13.326 14.105 13.326C13.3978 13.326 12.779 12.7072 12.779 12C12.779 11.2928 13.3978 10.674 14.105 10.674Z" fill="white"/>
</svg>
