<svg width="24" height="24" viewBox="0 0 24 24" fill="none" xmlns="http://www.w3.org/2000/svg">
<circle cx="12" cy="12" r="12" fill="url(#paint0_linear)"/>
<path d="M4.50001 11.9918L4.50001 11.9914C4.50061 11.4037 4.56864 10.8179 4.70276 10.2456C4.93191 9.28888 5.34731 8.38662 5.92522 7.59042C6.50335 6.7939 7.2328 6.11913 8.07186 5.60468C8.91092 5.09024 9.84315 4.74619 10.8152 4.59222C11.7873 4.43825 12.7803 4.47737 13.7372 4.70735L13.7372 4.70737L13.7419 4.70846C13.7867 4.71875 13.8289 4.73783 13.8662 4.76458C13.9035 4.79133 13.9351 4.82523 13.9592 4.8643C13.9833 4.90337 13.9993 4.94684 14.0065 4.99217C14.0136 5.03751 14.0117 5.08381 14.0008 5.1284L14 5.13176C13.9781 5.22402 13.9205 5.30385 13.8399 5.35376C13.7596 5.4035 13.6629 5.41949 13.5708 5.39828C12.131 5.05493 10.6185 5.19116 9.26318 5.78629C7.90742 6.38163 6.78327 7.40358 6.0618 8.69664C5.34032 9.98969 5.06104 11.483 5.26643 12.9494C5.47183 14.4158 6.15066 15.775 7.19963 16.8201C8.2486 17.8651 9.61027 18.5389 11.0774 18.7388C12.5446 18.9388 14.0369 18.6539 15.3272 17.9277C16.6176 17.2014 17.6354 16.0734 18.2256 14.7155C18.8142 13.3615 18.9456 11.8528 18.6003 10.4177C18.5849 10.3288 18.6033 10.2373 18.6523 10.1613C18.7028 10.083 18.7817 10.0273 18.8724 10.006L18.7581 9.51927L18.8724 10.006C18.963 9.98477 19.0584 9.99952 19.1385 10.0472C19.2167 10.0938 19.2743 10.1684 19.2997 10.2558C19.4325 10.8132 19.4997 11.3843 19.5 11.9574C19.5 11.9575 19.5 11.9576 19.5 11.9576L19.5 12.0171C19.5 12.0173 19.5 12.0175 19.5 12.0177C19.4965 14.0066 18.7031 15.9127 17.2943 17.3167C15.8854 18.7208 13.9765 19.5078 11.9873 19.5044C9.99821 19.5011 8.0919 18.7077 6.68775 17.2988C5.2836 15.8899 4.49665 13.9809 4.50001 11.9918Z" fill="url(#paint1_linear)" stroke="white"/>
<path d="M16.0629 6.10344C16.0489 6.1175 16.0424 6.13155 16.0348 6.13804C15.8378 6.34711 15.7168 6.61627 15.691 6.90236V7.03966C15.691 7.07425 15.6845 7.10128 15.6845 7.13588C15.6552 7.43808 15.5665 7.73152 15.4234 7.99935C15.2804 8.26717 15.0859 8.50412 14.851 8.69657C14.6162 8.88903 14.3456 9.03321 14.0549 9.12084C13.7642 9.20847 13.4591 9.23783 13.157 9.20723C13.0551 9.19833 12.954 9.18244 12.8543 9.15966C12.7956 9.14746 12.7378 9.13121 12.6813 9.11101C12.4362 9.04917 12.1837 9.02152 11.931 9.02885C11.1941 9.04326 10.488 9.32708 9.94617 9.82669C9.91915 9.85371 9.88455 9.87533 9.85644 9.90885C9.55989 10.1828 9.32171 10.5139 9.15619 10.8821C8.99067 11.2504 8.90121 11.6482 8.89317 12.0519C8.88514 12.4556 8.95869 12.8567 9.10943 13.2312C9.26017 13.6058 9.48498 13.946 9.7704 14.2316C10.0558 14.5172 10.396 14.7422 10.7704 14.8931C11.1449 15.044 11.546 15.1178 11.9496 15.1099C12.3533 15.1021 12.7512 15.0129 13.1196 14.8475C13.4879 14.6822 13.8191 14.4442 14.0932 14.1478C14.2171 14.0226 14.33 13.887 14.4305 13.7424C14.6723 13.3946 14.8378 12.9997 14.9162 12.5834C14.9947 12.1672 14.9842 11.7391 14.8856 11.3272C14.8685 11.2729 14.8545 11.2177 14.8435 11.1618C14.8435 11.1543 14.837 11.1478 14.837 11.1337C14.7682 10.8377 14.7585 10.531 14.8085 10.2312C14.8586 9.93139 14.9673 9.64444 15.1285 9.38679C15.2897 9.12914 15.5003 8.90587 15.748 8.72979C15.9957 8.55371 16.2758 8.4283 16.5721 8.36074C16.6785 8.33465 16.7871 8.31873 16.8964 8.31317L16.944 8.30561C16.9921 8.3002 17.0405 8.29804 17.0889 8.29912H17.1029C17.4018 8.27046 17.6815 8.13903 17.8943 7.92723C17.9429 7.87209 17.9916 7.81912 18.0327 7.76182C18.1312 7.62389 18.2013 7.46778 18.239 7.30254C18.2768 7.1373 18.2814 6.96621 18.2525 6.79919C18.2236 6.63217 18.1619 6.47254 18.0709 6.32954C17.9799 6.18655 17.8615 6.06303 17.7224 5.96615C17.4736 5.7907 17.1711 5.70832 16.8677 5.73342C16.5644 5.75852 16.2795 5.8895 16.0629 6.10344Z" fill="white"/>
<defs>
<linearGradient id="paint0_linear" x1="23.207" y1="0.592836" x2="1.91157" y2="22.1714" gradientUnits="userSpaceOnUse">
<stop offset="0.15358" stop-color="#00EDD3"/>
<stop offset="0.819381" stop-color="#1B456E"/>
</linearGradient>
<linearGradient id="paint1_linear" x1="17.9578" y1="6.11849" x2="6.06595" y2="17.8482" gradientUnits="userSpaceOnUse">
<stop offset="0.09" stop-color="#00EDD3"/>
<stop offset="0.41" stop-color="#1B456E"/>
</linearGradient>
</defs>
</svg>
