<svg width="24" height="24" viewBox="0 0 24 24" fill="none" xmlns="http://www.w3.org/2000/svg">
<circle cx="12" cy="12" r="12" fill="#31CB9E"/>
<path d="M13.3517 3.07551L17.9404 6.45058C17.9879 6.48411 18.026 6.52934 18.0509 6.58189C18.0759 6.63443 18.0869 6.69253 18.0828 6.75056C18.0788 6.80859 18.0598 6.8646 18.0278 6.91317C17.9958 6.96175 17.9518 7.00124 17.9001 7.02785L11.1016 10.7869L12.7771 3.26883C12.7929 3.21106 12.8227 3.15805 12.8638 3.1145C12.9049 3.07094 12.9561 3.03816 13.0129 3.01906C13.0697 2.99996 13.1302 2.99512 13.1893 3.00497C13.2484 3.01481 13.3042 3.03904 13.3517 3.07551Z" fill="white"/>
<path d="M18.0827 15.8454L11.3701 12.0005L18.0827 8.15287C18.1362 8.11966 18.1978 8.10146 18.2608 8.10018C18.3239 8.0989 18.3861 8.11459 18.441 8.14561C18.4959 8.17662 18.5414 8.22183 18.5728 8.27648C18.6043 8.33114 18.6205 8.39324 18.6197 8.45628V15.5393C18.6201 15.6023 18.6037 15.6642 18.5723 15.7187C18.5408 15.7732 18.4954 15.8184 18.4408 15.8496C18.3861 15.8808 18.3241 15.8968 18.2611 15.8961C18.1982 15.8953 18.1366 15.8779 18.0827 15.8454Z" fill="white"/>
<path d="M13.3463 20.9228L17.9404 17.5477C17.9886 17.5139 18.0272 17.4682 18.0527 17.4151C18.0781 17.362 18.0895 17.3033 18.0857 17.2445C18.082 17.1858 18.0632 17.129 18.0311 17.0796C17.9991 17.0302 17.9549 16.9898 17.9028 16.9624L11.1016 13.2034L12.7771 20.7214C12.791 20.7798 12.8192 20.8339 12.8591 20.8787C12.8991 20.9235 12.9495 20.9577 13.006 20.9782C13.0624 20.9987 13.1231 21.0049 13.1825 20.9961C13.2419 20.9874 13.2982 20.964 13.3463 20.9282V20.9228Z" fill="white"/>
<path d="M11.3701 3.69844L9.62488 11.8609L11.3487 20.0287C11.362 20.0963 11.3548 20.1664 11.3281 20.23C11.3014 20.2935 11.2563 20.3476 11.1986 20.3854C11.1409 20.4232 11.0733 20.4429 11.0044 20.442C10.9354 20.4411 10.8683 20.4197 10.8117 20.3804L6.36258 16.9624C6.24792 16.8745 6.15543 16.7609 6.09249 16.6308C6.02955 16.5008 5.99791 16.3578 6.00011 16.2133V7.51384C5.99958 7.37116 6.03202 7.23029 6.09489 7.10221C6.15777 6.97413 6.24938 6.86231 6.36258 6.77546L10.8331 3.3467C10.8898 3.30746 10.9569 3.28602 11.0259 3.28513C11.0948 3.28424 11.1624 3.30395 11.2201 3.34172C11.2778 3.3795 11.3228 3.43362 11.3496 3.49717C11.3763 3.56072 11.3835 3.6308 11.3701 3.69844Z" fill="white"/>
</svg>
