<svg width="24" height="24" viewBox="0 0 24 24" fill="none" xmlns="http://www.w3.org/2000/svg">
<circle cx="12" cy="12" r="12" fill="black"/>
<path d="M20.3045 6.90634C20.0216 6.68321 19.6841 6.37844 19.0692 6.30225C18.4923 6.22606 17.9045 6.61246 17.5073 6.86824C17.11 7.12402 16.359 7.87504 16.0488 8.10362C15.7386 8.33219 14.944 8.54443 13.6651 9.31178C12.3862 10.0791 7.36849 13.3009 7.36849 13.3009L8.67461 13.3172L2.85149 16.3159H3.4338L2.5957 16.9526C2.5957 16.9526 3.33584 17.1485 3.95625 16.7567V16.9363C3.95625 16.9363 10.8896 14.2043 12.2284 14.9118L11.412 15.1512C11.4828 15.1512 12.7998 15.2383 12.7998 15.2383C12.8318 15.511 12.9234 15.7734 13.0683 16.0066C13.2131 16.2399 13.4076 16.4384 13.6379 16.588C14.4324 17.1104 14.4488 17.3989 14.4488 17.3989C14.4488 17.3989 14.0352 17.5676 14.0352 17.7798C14.0352 17.7798 14.6447 17.5948 15.2107 17.6111C15.5699 17.6247 15.9262 17.6814 16.2719 17.7798C16.2719 17.7798 16.2284 17.5513 15.6787 17.3989C15.129 17.2465 14.5848 16.6479 14.3182 16.3213C14.1548 16.1135 14.0484 15.8667 14.0092 15.6053C13.9701 15.3438 13.9997 15.0767 14.095 14.8302C14.2855 14.3349 14.9494 14.0628 16.3209 13.3553C17.9372 12.5172 18.3073 11.8968 18.5358 11.4125C18.7644 10.9281 19.1018 9.96485 19.2923 9.51314C19.5318 8.93083 19.8256 8.62062 20.0705 8.43559C20.3154 8.25056 21.4039 7.84239 21.4039 7.84239C21.4039 7.84239 20.5712 7.11858 20.3045 6.90634Z" fill="white"/>
</svg>
