<svg width="24" height="24" viewBox="0 0 24 24" fill="none" xmlns="http://www.w3.org/2000/svg">
<circle cx="12" cy="12" r="12" fill="#F05547"/>
<circle cx="12" cy="12" r="11" fill="#121212"/>
<path d="M13.3104 19C13.2512 18.7114 13.1919 18.4228 13.1289 18.1342C13.1029 18.0232 13.1252 17.9788 13.2549 17.9936C13.5254 18.0195 13.7959 18.038 14.0626 18.0454C14.4888 18.0602 14.637 17.9121 14.6407 17.4792C14.6444 16.9649 14.6407 16.4469 14.6407 15.9289C14.6407 15.1407 14.637 14.3563 14.6444 13.5682C14.6444 13.4275 14.6147 13.3831 14.4665 13.3831C13.7699 13.3905 13.077 13.3831 12.3804 13.3905C12.247 13.3905 12.1914 13.372 12.1914 13.2166C12.1988 11.8883 12.1988 10.5636 12.1914 9.23525C12.1914 9.09465 12.2322 9.06504 12.3656 9.06504C14.2368 9.06874 16.108 9.06874 17.9793 9.06504C18.1164 9.06504 18.1534 9.09465 18.1534 9.23525C18.146 10.5636 18.146 11.8883 18.1534 13.2166C18.1534 13.372 18.1015 13.3942 17.9681 13.3942C17.2715 13.3868 16.5786 13.3942 15.882 13.3868C15.7412 13.3868 15.7115 13.4275 15.7115 13.5608C15.7153 14.9261 15.7153 16.2878 15.7153 17.6531C15.7153 17.8196 15.7115 17.9825 15.6782 18.149C15.5819 18.5856 15.3373 18.8742 14.8852 18.963C14.8593 18.9667 14.8371 18.9704 14.826 18.9963C14.3183 19 13.8144 19 13.3104 19ZM15.1817 10.0382C14.5851 10.0382 13.9885 10.0419 13.392 10.0345C13.2771 10.0345 13.2326 10.053 13.2326 10.1825C13.24 10.8818 13.24 11.5812 13.2326 12.2842C13.2326 12.4063 13.2697 12.4359 13.3883 12.4359C14.5814 12.4322 15.7745 12.4322 16.9677 12.4359C17.0937 12.4359 17.1159 12.3952 17.1159 12.2805C17.1122 11.5849 17.1085 10.8929 17.1159 10.1973C17.1159 10.0678 17.0788 10.0345 16.9529 10.0345C16.3637 10.0419 15.7708 10.0382 15.1817 10.0382Z" fill="#F05547"/>
<path d="M5.80699 9.16495C5.59949 9.36475 5.42163 9.53126 5.22524 9.71997C5.14743 9.36105 5.07702 9.02804 5.00292 8.69502C4.98809 8.62842 5.03256 8.59512 5.07332 8.55442C6.02931 7.60348 6.66664 6.46013 7.07424 5.18357C7.12241 5.03186 7.1854 5.01706 7.31879 5.06516C7.5263 5.13917 7.73751 5.21317 7.95242 5.26497C8.10805 5.30197 8.11175 5.36488 8.05246 5.49068C7.95983 5.69049 7.88943 5.9014 7.79679 6.10121C7.74121 6.21961 7.77085 6.24552 7.89313 6.24552C8.61939 6.24182 9.34565 6.24922 10.0719 6.24182C10.2275 6.24182 10.2535 6.28992 10.2683 6.43792C10.3016 6.83384 10.1942 7.18166 10.0052 7.52577C9.78659 7.92169 9.56798 8.32131 9.32342 8.69872C9.36418 8.75793 9.41976 8.73573 9.46422 8.73573C9.87182 8.73943 10.2757 8.73943 10.6833 8.73573C10.7945 8.73573 10.8463 8.75053 10.8463 8.88373C10.8426 10.8929 10.8426 12.9021 10.8463 14.9113C10.8463 15.063 10.7759 15.0593 10.6685 15.0593C9.11221 15.0556 7.55594 15.0556 5.99967 15.063C5.84775 15.063 5.80699 15.0297 5.80699 14.8743C5.8144 13.0538 5.81069 11.237 5.81069 9.41656C5.80699 9.34625 5.80699 9.27965 5.80699 9.16495ZM6.19976 8.73573C6.87785 8.73573 7.51518 8.73573 8.15251 8.73573C8.23773 8.73573 8.27108 8.68762 8.30814 8.63212C8.51564 8.33981 8.70462 8.0401 8.88248 7.73298C8.99364 7.53687 9.1048 7.34447 9.23078 7.12246C8.58604 7.12246 7.98206 7.12246 7.37438 7.12246C7.29656 7.12246 7.27062 7.17426 7.23728 7.22606C7.09647 7.44807 6.95937 7.67378 6.80745 7.89209C6.62218 8.1622 6.41838 8.43231 6.19976 8.73573ZM7.88572 10.5414C7.88572 10.2824 7.88202 10.0271 7.88572 9.76807C7.88943 9.67187 7.8709 9.62377 7.75974 9.62747C7.46331 9.63487 7.17058 9.63487 6.87415 9.62747C6.77781 9.62747 6.74816 9.66077 6.74816 9.75327C6.75187 10.275 6.75187 10.7967 6.74816 11.3184C6.74816 11.4183 6.78522 11.4405 6.87785 11.4405C7.17428 11.4368 7.46701 11.4331 7.76344 11.4405C7.86349 11.4442 7.88943 11.4072 7.88572 11.3147C7.88202 11.0594 7.88572 10.8004 7.88572 10.5414ZM8.77131 10.5451C8.77131 10.8041 8.77502 11.0594 8.76761 11.3184C8.7639 11.4146 8.79725 11.4479 8.89359 11.4442C9.19002 11.4405 9.48275 11.4405 9.77918 11.4442C9.86441 11.4442 9.89776 11.4183 9.89776 11.3295C9.89405 10.8004 9.89405 10.275 9.89776 9.74587C9.89776 9.65707 9.87182 9.62747 9.78289 9.63117C9.48646 9.63487 9.19373 9.63857 8.8973 9.63117C8.78243 9.62747 8.76761 9.67927 8.77131 9.77177C8.77502 10.0271 8.77131 10.2861 8.77131 10.5451ZM7.88572 13.2277C7.88572 12.9761 7.88202 12.7245 7.88943 12.4729C7.89313 12.3693 7.87461 12.3175 7.75233 12.3212C7.46331 12.3323 7.17428 12.3286 6.88526 12.3212C6.7741 12.3175 6.75187 12.3619 6.75187 12.4581C6.75557 12.9724 6.75557 13.4904 6.75187 14.0048C6.75187 14.1158 6.79633 14.138 6.89267 14.1343C7.18169 14.1306 7.47072 14.1269 7.75974 14.1343C7.8709 14.138 7.89313 14.0936 7.88943 13.9937C7.88202 13.742 7.88572 13.483 7.88572 13.2277ZM9.89776 13.2277C9.89776 12.9761 9.89405 12.7245 9.90146 12.4729C9.90517 12.3656 9.88294 12.3175 9.76066 12.3212C9.47905 12.3286 9.19373 12.3286 8.91212 12.3212C8.79355 12.3175 8.76761 12.3619 8.77131 12.4692C8.77502 12.9798 8.77872 13.4867 8.77131 13.9974C8.77131 14.1158 8.81207 14.1417 8.91953 14.138C9.19743 14.1306 9.47164 14.1306 9.74954 14.138C9.87923 14.1417 9.90517 14.0936 9.90146 13.9789C9.89405 13.7309 9.89776 13.4793 9.89776 13.2277Z" fill="#F05547"/>
<path d="M15.1409 7.69968C13.9589 7.69968 12.7806 7.69598 11.5985 7.70338C11.4392 7.70338 11.3651 7.67748 11.3836 7.49617C11.4022 7.28896 11.3947 7.07805 11.3836 6.87084C11.3762 6.73764 11.4207 6.70804 11.5504 6.70804C12.536 6.71174 13.5179 6.71174 14.5036 6.71174C14.7111 6.71174 14.7074 6.71174 14.6481 6.51193C14.5258 6.10491 14.3887 5.70529 14.2294 5.31677C14.1775 5.19097 14.2146 5.15767 14.3294 5.13917C14.5888 5.09846 14.8519 5.05776 15.1113 5.00596C15.2187 4.98376 15.2484 5.02446 15.278 5.11327C15.441 5.59059 15.5856 6.07161 15.7115 6.55633C15.7449 6.68214 15.7968 6.71544 15.9228 6.71544C16.8528 6.70804 17.7792 6.71544 18.7092 6.70804C18.8685 6.70804 18.9056 6.75244 18.8982 6.90415C18.8834 7.11135 18.8871 7.32226 18.8982 7.52947C18.9056 7.66638 18.8685 7.70708 18.7277 7.70338C17.8792 7.69598 17.0307 7.69968 16.1821 7.69968C15.8301 7.69968 15.4855 7.69968 15.1409 7.69968Z" fill="#F05547"/>
<path d="M11.769 18.5375C11.7431 18.519 11.7171 18.5042 11.6912 18.4857C11.48 18.334 11.2762 18.1823 11.0613 18.0379C10.9797 17.9824 10.9797 17.938 11.0279 17.8603C11.6875 16.8169 12.1877 15.6994 12.599 14.5413C12.6361 14.4377 12.6657 14.4007 12.7769 14.4599C12.9955 14.5746 13.2178 14.6782 13.4401 14.7781C13.518 14.8114 13.5328 14.8484 13.5031 14.9335C13.077 16.1583 12.5545 17.3386 11.8653 18.445C11.8431 18.4783 11.832 18.5338 11.769 18.5375Z" fill="#F05547"/>
<path d="M17.2419 14.3563C17.2938 14.36 17.3049 14.4007 17.3197 14.434C17.9274 15.4663 18.498 16.5172 18.976 17.6161C19.0168 17.7086 19.0094 17.7567 18.9242 17.8122C18.7241 17.9417 18.5277 18.0824 18.335 18.223C18.2498 18.2859 18.209 18.2896 18.1608 18.1786C17.7014 17.0648 17.1307 16.0029 16.5304 14.9631C16.4749 14.8632 16.4675 14.8114 16.5823 14.7485C16.7787 14.6449 16.964 14.5228 17.153 14.4081C17.1826 14.3896 17.2122 14.3711 17.2419 14.3563Z" fill="#F05547"/>
<path d="M6.57401 15.866C6.49249 16.8132 6.32575 17.753 6.02561 18.667C5.98855 18.7854 5.94038 18.8187 5.82181 18.7743C5.63654 18.7077 5.44757 18.6485 5.25859 18.5967C5.15854 18.5708 5.13261 18.5375 5.17337 18.4302C5.49574 17.5754 5.6773 16.6874 5.74029 15.7771C5.7477 15.6661 5.78105 15.6254 5.89592 15.6439C6.0849 15.6735 6.27387 15.6957 6.46285 15.7179C6.55178 15.729 6.60365 15.7586 6.57401 15.866Z" fill="#F05547"/>
<path d="M8.03394 17.9676C8.04135 18.1157 8.04506 18.2637 8.05617 18.408C8.06358 18.5042 8.04506 18.5523 7.9339 18.5597C7.75604 18.5708 7.57818 18.593 7.40402 18.6226C7.29286 18.6411 7.25581 18.6152 7.2521 18.4968C7.24099 17.7049 7.20393 16.9131 7.14464 16.125C7.11871 15.7623 7.12241 15.7623 7.48925 15.7216C7.84497 15.6846 7.84497 15.6846 7.88943 16.0399C7.97095 16.68 8.01171 17.3238 8.03394 17.9676Z" fill="#F05547"/>
<path d="M9.68655 18.1897C9.71619 18.2933 9.66061 18.3303 9.55316 18.334C9.40124 18.3414 9.2419 18.3488 9.09739 18.3821C8.92694 18.4228 8.88989 18.3673 8.88248 18.2082C8.84913 17.5717 8.77132 16.939 8.6231 16.3137C8.58234 16.1361 8.53417 15.9548 8.47118 15.7845C8.43042 15.6698 8.46747 15.6476 8.57122 15.6402C8.73056 15.6291 8.88989 15.618 9.04552 15.5847C9.17521 15.5551 9.21597 15.6106 9.24931 15.7179C9.47164 16.4099 9.5828 17.124 9.66061 17.8455C9.66432 17.9565 9.67543 18.0676 9.68655 18.1897Z" fill="#F05547"/>
<path d="M10.587 17.5051C10.5129 17.5273 10.5092 17.4718 10.4943 17.4237C10.3276 16.8539 10.1386 16.2878 9.91629 15.7364C9.88294 15.655 9.90147 15.618 9.9904 15.5958C10.1646 15.5514 10.335 15.5033 10.5017 15.4441C10.5833 15.4145 10.6092 15.4441 10.6388 15.5107C10.876 16.0695 11.065 16.6467 11.2391 17.2276C11.2539 17.2794 11.2762 17.3349 11.1947 17.3571C10.9946 17.4089 10.7908 17.457 10.587 17.5051Z" fill="#F05547"/>
<path d="M15.1817 10.0382C15.7708 10.0382 16.3637 10.0419 16.9529 10.0345C17.0826 10.0345 17.1196 10.0678 17.1159 10.1973C17.1085 10.8929 17.1122 11.5849 17.1159 12.2805C17.1159 12.3952 17.0937 12.4396 16.9677 12.4359C15.7745 12.4322 14.5814 12.4322 13.3883 12.4359C13.2697 12.4359 13.2326 12.4063 13.2326 12.2842C13.24 11.5849 13.24 10.8855 13.2326 10.1825C13.2326 10.053 13.2771 10.0345 13.392 10.0345C13.9885 10.0419 14.5851 10.0382 15.1817 10.0382Z" fill="#121212"/>
<path d="M6.19976 8.73573C6.41838 8.43231 6.62218 8.1622 6.81116 7.88469C6.96308 7.66638 7.09647 7.44067 7.24098 7.21866C7.27433 7.16686 7.29656 7.11505 7.37808 7.11505C7.98577 7.11875 8.59346 7.11505 9.23449 7.11505C9.10851 7.33706 8.99735 7.53317 8.88618 7.72558C8.70833 8.03639 8.51935 8.33611 8.31185 8.62472C8.27109 8.68022 8.23774 8.73202 8.15622 8.72832C7.51518 8.73202 6.87415 8.73573 6.19976 8.73573Z" fill="#121212"/>
<path d="M7.88572 10.5414C7.88572 10.8004 7.88202 11.0557 7.88572 11.3147C7.88943 11.4072 7.86349 11.4442 7.76344 11.4405C7.46701 11.4331 7.17428 11.4368 6.87785 11.4405C6.78522 11.4405 6.74816 11.4183 6.74816 11.3184C6.75187 10.7967 6.75187 10.275 6.74816 9.75327C6.74816 9.65707 6.7741 9.62377 6.87415 9.62747C7.17058 9.63117 7.4633 9.63487 7.75974 9.62747C7.87461 9.62377 7.88943 9.67187 7.88572 9.76807C7.88202 10.0271 7.88572 10.2861 7.88572 10.5414Z" fill="#121212"/>
<path d="M8.77131 10.5451C8.77131 10.2861 8.77502 10.0308 8.77131 9.77177C8.77131 9.67557 8.78243 9.62747 8.8973 9.63117C9.19373 9.63857 9.48646 9.63487 9.78289 9.63117C9.87182 9.63117 9.90146 9.66077 9.89776 9.74587C9.89405 10.275 9.89405 10.8004 9.89776 11.3295C9.89776 11.4183 9.86441 11.4442 9.77918 11.4442C9.48275 11.4405 9.19002 11.4405 8.89359 11.4442C8.79725 11.4442 8.76761 11.4146 8.76761 11.3184C8.77502 11.0594 8.77131 10.8004 8.77131 10.5451Z" fill="#121212"/>
<path d="M7.88572 13.2277C7.88572 13.4867 7.88202 13.7421 7.88943 14.0011C7.89314 14.101 7.8709 14.1417 7.75974 14.1417C7.47072 14.1343 7.1817 14.1343 6.89267 14.1417C6.79263 14.1417 6.75187 14.1232 6.75187 14.0122C6.75557 13.4978 6.75557 12.9798 6.75187 12.4655C6.75187 12.3656 6.7741 12.3249 6.88526 12.3286C7.17429 12.336 7.46331 12.336 7.75233 12.3286C7.87461 12.3249 7.89314 12.373 7.88943 12.4803C7.88202 12.7245 7.88572 12.9761 7.88572 13.2277Z" fill="#121212"/>
<path d="M9.89776 13.2277C9.89776 13.4793 9.89405 13.731 9.90146 13.9826C9.90517 14.0973 9.87923 14.1454 9.74954 14.1417C9.47534 14.1306 9.19744 14.1343 8.91953 14.1417C8.81208 14.1454 8.76761 14.1195 8.77132 14.0011C8.77873 13.4904 8.77502 12.9835 8.77132 12.4729C8.77132 12.3656 8.79355 12.3212 8.91212 12.3249C9.19373 12.3323 9.47905 12.3323 9.76066 12.3249C9.88294 12.3212 9.90517 12.3693 9.90146 12.4766C9.89405 12.7245 9.89776 12.9761 9.89776 13.2277Z" fill="#121212"/>
</svg>
