<svg width="24" height="24" viewBox="0 0 24 24" fill="none" xmlns="http://www.w3.org/2000/svg">
<circle cx="12" cy="12" r="12" fill="#11021E"/>
<path d="M7.72714 10.712H7.73522L7.87267 10.7606L8.00202 10.8092L8.13947 10.8497L8.26883 10.9064L8.40627 10.955L8.53563 11.0036L8.67307 11.0522L8.80243 11.1008L8.93179 11.1494L9.06114 11.198L9.19859 11.2467L9.32795 11.3034L9.46539 11.3439L9.59475 11.3925L9.73219 11.4411L9.86155 11.4978L9.99899 11.5464L10.1284 11.5869L10.2577 11.6355L10.3952 11.6922L10.5326 11.7408V11.5302V11.4978V11.3277V11.2062V11.117V10.9064V10.7039V10.4933V10.2908V10.072V9.86952V9.84521H10.3709H10.2173H10.2011H10.0313H9.90197H9.85347H9.68368H9.59475H9.50581H9.32795H9.27944H9.15816H8.98838H8.9803H8.97221H8.81051H8.66499H8.64073H8.46286H8.34967H8.04245H7.73522H7.72714H7.54927L7.41991 9.91002L7.11268 10.072L6.79737 10.2422L6.48206 10.3961L6.18292 10.5581L5.86761 10.7282L5.5523 10.8821L5.24507 11.0522L4.92976 11.2143L4.62254 11.3682L4.31531 11.5383L4.03234 11.6841L4 16.3259L4.31531 16.5446L4.62254 16.7633L4.92976 16.9739L5.24507 17.2007L5.5523 17.4195L5.86761 17.6382L6.00505 17.7435L6.18292 17.5167L6.48206 17.1116L6.5144 17.0711L6.48206 17.0468L6.18292 16.8281L5.86761 16.6094L5.5523 16.3907L5.24507 16.1719L4.92976 15.9451L4.84891 15.8965L4.87317 12.1377L4.92976 12.1053L5.24507 11.9514L5.5523 11.7975L5.86761 11.6436L6.18292 11.4897L6.48206 11.3277L6.79737 11.1737L7.11268 11.0279L7.41991 10.8659L7.72714 10.712Z" fill="url(#paint0_linear)"/>
<path d="M13.0797 19.5663L12.821 19.6716L12.5299 19.7931L12.2389 19.9065L11.9478 20.028L11.8184 20.0766L11.6648 20.0037L11.3738 19.8498L11.0827 19.7121L10.7997 19.5582L10.5087 19.4124L10.2176 19.2747L9.92658 19.1207L9.63552 18.9749L9.34447 18.8291L9.05341 18.6833L8.76235 18.5294L8.48747 18.3917L8.19641 18.2459L8.16407 18.2297V14.4385H7.90535H7.6143H7.32324V18.7481L7.6143 18.8858L7.90535 19.0316L8.19641 19.1856L8.48747 19.3233L8.76235 19.4772L9.05341 19.623L9.34447 19.7688L9.63552 19.9146L9.92658 20.0604L10.2176 20.2063L10.5087 20.3521L10.7997 20.506L11.0827 20.6437L11.3738 20.7976L11.6648 20.9353L11.778 21.0001L11.9478 20.9191L12.2389 20.8138L12.5299 20.6923L12.821 20.5708L13.1039 20.4574L13.395 20.344L13.1039 19.6149L13.0797 19.5663Z" fill="url(#paint1_linear)"/>
<path d="M18.2452 14.3004L18.2614 16.0826L18.1886 16.1474L17.6955 16.4877L17.2023 16.8441L16.7091 17.2005L16.2159 17.5489L15.7227 17.8972L15.2377 18.2536L14.7445 18.602L14.4534 18.8126L14.2513 18.6587L13.7662 18.2779L13.273 17.9053L12.7798 17.5246L12.2948 17.1519L12.2058 17.0871V15.1672L12.2948 15.0862L12.7798 14.5678L13.273 14.0574L13.7662 13.539L14.2513 13.0286L14.7283 12.5264H14.2513H13.7662H13.273H12.7798H12.2948H11.7935H11.3003H10.8152H10.322H9.82886H9.34376H8.85059L9.34376 13.0448L9.82886 13.5552L10.322 14.0655L10.8152 14.584L11.3003 15.0943L11.3731 15.1672V17.4922L11.7935 17.8243L12.2948 18.205L12.7798 18.5777L13.273 18.9584L13.7662 19.3311L14.2513 19.7118L14.4292 19.8495L14.7445 19.6227L15.2377 19.2824L15.7227 18.926L16.2159 18.5696L16.7091 18.2293L17.2023 17.8729L17.6955 17.5165L18.1886 17.1762L18.6818 16.8198L19.0861 16.5201L19.1669 14.3328L18.6818 14.3166L18.2452 14.3004Z" fill="url(#paint2_linear)"/>
<path d="M4.79986 10.1532H4.85645L4.86454 7.77153L5.17985 7.56901L5.57601 7.33408L5.96409 7.09916L6.35216 6.85614L6.74024 6.62121L7.1364 6.37819L7.51639 6.14326L7.91255 5.90834L8.30062 5.66532L8.69678 5.42229H8.70487L9.07677 5.64101L9.47293 5.85974L9.86101 6.08656L10.2491 6.30528L10.6372 6.524L11.0252 6.74272L11.4133 6.96955L11.7933 7.18827L11.8095 7.15587L12.1975 6.45109L11.8095 6.22427L11.4133 6.00555L11.0252 5.78683L10.6372 5.56811L10.2491 5.34128L9.86101 5.12256L9.47293 4.90384L9.07677 4.67702L8.69678 4.4583L8.68061 4.4502L8.30062 4.67702L7.91255 4.92004L7.51639 5.16307L7.1364 5.40609L6.74024 5.64101L6.35216 5.87594L5.96409 6.11896L5.57601 6.35389L5.17985 6.59691L4.79986 6.83183L4.4037 7.06676L4.03179 7.30168L4.01562 10.1451H4.4037L4.79986 10.1532Z" fill="url(#paint3_linear)"/>
<path d="M19.9998 7.97399L19.7977 7.81197L19.5956 7.64996L19.3935 7.47984L19.1913 7.31782L18.9892 7.15581L18.779 6.99379L18.5769 6.83177L18.3748 6.66976L18.1646 6.49964L18.011 6.38623L17.9544 6.45104L17.7522 6.70216L17.5501 6.96139L17.4935 7.02619L17.5501 7.0829L17.7522 7.25302L17.9544 7.42313L18.1646 7.59325L18.3748 7.76337L18.5769 7.94159L18.779 8.1117L18.9892 8.28182L19.0862 8.36283L19.0943 12.1945L18.9892 12.2674L18.779 12.397L18.5769 12.5266L18.3748 12.6563L18.1646 12.7859L17.9544 12.9155L17.7522 13.0451L17.5501 13.1747L17.348 13.3043L17.1459 13.4339L16.9437 13.5635L16.7335 13.6932L16.5314 13.8228L16.3293 13.9524L16.1272 14.082L15.917 14.2116L15.7148 14.3412L15.917 14.6653L16.1272 14.9893L16.1595 15.046L16.3293 14.9407L16.5314 14.8192L16.7335 14.6896L16.9437 14.568L17.1459 14.4303L17.348 14.3088L17.5501 14.1792L17.7522 14.0577L17.9544 13.9281L18.1646 13.8066L18.3748 13.6689L18.5769 13.5473L18.779 13.4177L18.9892 13.2962L19.1913 13.1666L19.3935 13.0451L19.5956 12.9074L19.7977 12.7859L19.9998 12.6563V7.97399Z" fill="url(#paint4_linear)"/>
<path d="M13.3299 10.2583V10.4689V10.6796V10.8902V11.1089V11.3276V11.5383V11.7489V11.9109L13.3945 11.8866L13.6694 11.7813L13.9443 11.6679L14.2111 11.5626L14.486 11.4491L14.7609 11.3357L15.0277 11.2304L15.3026 11.117L15.5775 11.0117L15.8443 10.8983L16.1191 10.793L16.3859 10.6796V10.4689V10.3879V9.82898V5.66517L16.0787 5.47075L15.7634 5.29253L15.4481 5.11431L15.1409 4.91989L14.8256 4.74167L14.5103 4.56346L14.203 4.37714L13.8877 4.19082L13.5805 4.0045L13.2652 3.82628L12.9499 3.63996L12.6426 3.45365L12.3354 3.27543L12.0201 3.09721L11.8503 3L11.7048 3.08101L11.3895 3.25113L11.0742 3.41314L10.775 3.59136L10.4597 3.76148L10.1444 3.92349L9.8291 4.10171L10.1444 4.27993L10.4597 4.45815L10.6538 4.57966L10.775 4.51485L11.0742 4.35283L11.3895 4.18272L11.7048 4.0207L11.8261 3.9559L12.0201 4.06931L12.3354 4.24752L12.6426 4.42574L12.9499 4.61206L13.2652 4.79838L13.5805 4.9766L13.8877 5.16292L14.203 5.34923L14.5103 5.52745L14.8256 5.70567L15.1409 5.90009L15.4481 6.07831L15.5532 6.13501V9.82898H15.4804H15.4481H15.3026H15.1409H15.1247H14.9388H14.8256H14.7609H14.583H14.5103H14.4051H14.2273H14.203H14.0494H13.8877H13.8715H13.6856H13.5805H13.5077H13.3703H13.346" fill="url(#paint5_linear)"/>
<path d="M13.3301 11.911L16.3862 10.6797L13.3301 9.8291" fill="url(#paint6_linear)"/>
<path d="M10.5327 11.9108V9.86133L7.73535 10.6957L10.5327 11.9027" fill="url(#paint7_linear)"/>
<defs>
<linearGradient id="paint0_linear" x1="7.26428" y1="9.84765" x2="7.26428" y2="17.7403" gradientUnits="userSpaceOnUse">
<stop stop-color="#F6E93D"/>
<stop offset="0.13" stop-color="#F8E330"/>
<stop offset="0.35" stop-color="#F7C730"/>
<stop offset="0.64" stop-color="#F59C2E"/>
<stop offset="0.98" stop-color="#EB5E2C"/>
<stop offset="1" stop-color="#EB5C2C"/>
</linearGradient>
<linearGradient id="paint1_linear" x1="10.3603" y1="14.4417" x2="10.3603" y2="20.9993" gradientUnits="userSpaceOnUse">
<stop stop-color="#F6E93D"/>
<stop offset="0.13" stop-color="#F8E330"/>
<stop offset="0.35" stop-color="#F7C730"/>
<stop offset="0.64" stop-color="#F59C2E"/>
<stop offset="0.98" stop-color="#EB5E2C"/>
<stop offset="1" stop-color="#EB5C2C"/>
</linearGradient>
<linearGradient id="paint2_linear" x1="14.0083" y1="12.5256" x2="14.0083" y2="19.8519" gradientUnits="userSpaceOnUse">
<stop stop-color="#F6E93D"/>
<stop offset="0.13" stop-color="#F8E330"/>
<stop offset="0.35" stop-color="#F7C730"/>
<stop offset="0.64" stop-color="#F59C2E"/>
<stop offset="0.98" stop-color="#EB5E2C"/>
<stop offset="1" stop-color="#EB5C2C"/>
</linearGradient>
<linearGradient id="paint3_linear" x1="8.10618" y1="4.45263" x2="8.10618" y2="10.154" gradientUnits="userSpaceOnUse">
<stop stop-color="#F6E93D"/>
<stop offset="0.13" stop-color="#F8E330"/>
<stop offset="0.35" stop-color="#F7C730"/>
<stop offset="0.64" stop-color="#F59C2E"/>
<stop offset="0.98" stop-color="#EB5E2C"/>
<stop offset="1" stop-color="#EB5C2C"/>
</linearGradient>
<linearGradient id="paint4_linear" x1="17.8606" y1="6.38461" x2="17.8606" y2="15.0468" gradientUnits="userSpaceOnUse">
<stop stop-color="#F6E93D"/>
<stop offset="0.13" stop-color="#F8E330"/>
<stop offset="0.35" stop-color="#F7C730"/>
<stop offset="0.64" stop-color="#F59C2E"/>
<stop offset="0.98" stop-color="#EB5E2C"/>
<stop offset="1" stop-color="#EB5C2C"/>
</linearGradient>
<linearGradient id="paint5_linear" x1="13.1067" y1="3" x2="13.1067" y2="11.9133" gradientUnits="userSpaceOnUse">
<stop stop-color="#F6E93D"/>
<stop offset="0.13" stop-color="#F8E330"/>
<stop offset="0.35" stop-color="#F7C730"/>
<stop offset="0.64" stop-color="#F59C2E"/>
<stop offset="0.98" stop-color="#EB5E2C"/>
<stop offset="1" stop-color="#EB5C2C"/>
</linearGradient>
<linearGradient id="paint6_linear" x1="14.8549" y1="9.83477" x2="14.8549" y2="11.9159" gradientUnits="userSpaceOnUse">
<stop stop-color="#F6E93D"/>
<stop offset="0.13" stop-color="#F8E330"/>
<stop offset="0.35" stop-color="#F7C730"/>
<stop offset="0.64" stop-color="#F59C2E"/>
<stop offset="0.98" stop-color="#EB5E2C"/>
<stop offset="1" stop-color="#EB5C2C"/>
</linearGradient>
<linearGradient id="paint7_linear" x1="9.10031" y1="11.3962" x2="9.76233" y2="9.58086" gradientUnits="userSpaceOnUse">
<stop stop-color="#F6E93D"/>
<stop offset="0.13" stop-color="#F8E330"/>
<stop offset="0.35" stop-color="#F7C730"/>
<stop offset="0.64" stop-color="#F59C2E"/>
<stop offset="0.98" stop-color="#EB5E2C"/>
<stop offset="1" stop-color="#EB5C2C"/>
</linearGradient>
</defs>
</svg>
