<svg width="24" height="24" viewBox="0 0 24 24" fill="none" xmlns="http://www.w3.org/2000/svg">
<circle cx="12" cy="12" r="12" fill="black"/>
<path fill-rule="evenodd" clip-rule="evenodd" d="M15.8402 11.5202C15.8402 13.9061 13.9061 15.8402 11.5202 15.8402C9.13433 15.8402 7.2002 13.9061 7.2002 11.5202C7.2002 9.13433 9.13433 7.2002 11.5202 7.2002C13.9061 7.2002 15.8402 9.13433 15.8402 11.5202ZM11.0402 10.0802C11.0402 10.6104 10.6104 11.0402 10.0802 11.0402C9.55005 11.0402 9.12024 10.6104 9.12024 10.0802C9.12024 9.54999 9.55005 9.12019 10.0802 9.12019C10.6104 9.12019 11.0402 9.54999 11.0402 10.0802Z" fill="url(#paint0_linear)"/>
<path fill-rule="evenodd" clip-rule="evenodd" d="M12 24C5.37258 24 0 18.6274 0 12C0 5.37258 5.37258 0 12 0C18.6274 0 24 5.37258 24 12C24 18.6274 18.6274 24 12 24ZM12 21.12C17.0368 21.12 21.12 17.0369 21.12 12C21.12 6.96318 17.0368 2.88002 12 2.88002C6.96317 2.88002 2.88 6.96318 2.88 12C2.88 17.0369 6.96317 21.12 12 21.12Z" fill="url(#paint1_linear)"/>
<defs>
<linearGradient id="paint0_linear" x1="5.57578" y1="11.9847" x2="11.9103" y2="17.8652" gradientUnits="userSpaceOnUse">
<stop stop-color="#0073CB"/>
<stop offset="1" stop-color="#4C9EE5"/>
</linearGradient>
<linearGradient id="paint1_linear" x1="-4.51228" y1="13.2903" x2="13.0836" y2="29.6249" gradientUnits="userSpaceOnUse">
<stop stop-color="#0073CB"/>
<stop offset="1" stop-color="#4C9EE5"/>
</linearGradient>
</defs>
</svg>
