<svg width="24" height="24" viewBox="0 0 24 24" fill="none" xmlns="http://www.w3.org/2000/svg">
<circle cx="12" cy="12" r="12" fill="url(#paint0_linear_lkt)"/>
<path fill-rule="evenodd" clip-rule="evenodd" d="M20.3023 12.9768C19.8139 17.1279 16.2907 20.3721 12.0348 20.3721C7.43019 20.3721 3.69763 16.6396 3.69763 12.0349C3.69763 7.43025 7.43019 3.69769 12.0348 3.69769C16.3255 3.69769 19.8488 6.94188 20.3023 11.093H15.593C15.1744 9.52327 13.7441 8.33723 12.0348 8.33723C10.0116 8.33723 8.33717 9.97676 8.33717 12.0349C8.33717 14.093 10.0116 15.6977 12.0348 15.6977C13.7441 15.6977 15.1744 14.5465 15.593 12.9419H20.3023V12.9768Z" fill="white"/>
<path d="M11.9651 13.1861C12.6201 13.1861 13.1511 12.655 13.1511 12C13.1511 11.345 12.6201 10.814 11.9651 10.814C11.3101 10.814 10.7791 11.345 10.7791 12C10.7791 12.655 11.3101 13.1861 11.9651 13.1861Z" fill="#1E1D18"/>
<path d="M7.39531 18.9419C6.20926 17.2326 4.98833 14.5116 5.58135 11.7558C6.41856 7.84886 11.372 6.55816 12.0697 3.69769H12.0348C7.43019 3.69769 3.69763 7.43025 3.69763 12.0349C3.69763 14.8954 5.16275 17.4419 7.39531 18.9419Z" fill="url(#paint1_linear_lkt)"/>
<defs>
<linearGradient id="paint0_linear_lkt" x1="0" y1="12" x2="24" y2="12" gradientUnits="userSpaceOnUse">
<stop stop-color="#9AF803"/>
<stop offset="1" stop-color="#04EAF3"/>
</linearGradient>
<linearGradient id="paint1_linear_lkt" x1="23.8749" y1="12.9088" x2="5.19997" y2="10.8105" gradientUnits="userSpaceOnUse">
<stop stop-color="#73E7F1"/>
<stop offset="1" stop-color="white"/>
</linearGradient>
</defs>
</svg>
