<svg width="24" height="24" viewBox="0 0 24 24" fill="none" xmlns="http://www.w3.org/2000/svg">
<circle cx="12" cy="12" r="12" fill="black"/>
<g clip-path="url(#clip0)">
<path d="M16.1421 19.1181L5.21008 11.4441C4.83727 11.1829 4.53291 10.8358 4.32278 10.432C4.11264 10.0282 4.00293 9.57975 4.00293 9.12458C4.00293 8.6694 4.11264 8.22093 4.32278 7.81717C4.53291 7.4134 4.83727 7.06623 5.21008 6.80508L7.85808 4.95508L18.7901 12.6301C19.1627 12.8914 19.4669 13.2386 19.6769 13.6423C19.8868 14.0461 19.9965 14.4945 19.9965 14.9496C19.9965 15.4047 19.8868 15.8531 19.6769 16.2568C19.4669 16.6606 19.1627 17.0078 18.7901 17.2691L16.1421 19.1181ZM7.85708 6.18908L5.79308 7.63308C5.55314 7.80097 5.35724 8.02425 5.22198 8.28398C5.08672 8.54372 5.0161 8.83224 5.0161 9.12508C5.0161 9.41792 5.08672 9.70644 5.22198 9.96617C5.35724 10.2259 5.55314 10.4492 5.79308 10.6171L16.1451 17.8841L18.2091 16.4411C18.4488 16.273 18.6445 16.0497 18.7796 15.79C18.9148 15.5303 18.9853 15.2418 18.9853 14.9491C18.9853 14.6563 18.9148 14.3679 18.7796 14.1082C18.6445 13.8484 18.4488 13.6251 18.2091 13.4571L7.85708 6.18908Z" fill="#4BC0C8"/>
<path d="M7.8471 17.8771L5.7861 16.4301C5.54637 16.2621 5.35065 16.0387 5.21553 15.779C5.08041 15.5193 5.00986 15.2309 5.00986 14.9381C5.00986 14.6453 5.08041 14.3569 5.21553 14.0972C5.35065 13.8375 5.54637 13.6141 5.7861 13.4461L11.1211 9.7161L10.2411 9.1001L5.2091 12.6181C4.8363 12.8793 4.53194 13.2264 4.3218 13.6302C4.11167 14.034 4.00195 14.4824 4.00195 14.9376C4.00195 15.3928 4.11167 15.8412 4.3218 16.245C4.53194 16.6488 4.8363 16.9959 5.2091 17.2571L7.8501 19.1111L11.1171 16.8251L10.2371 16.2071L7.8471 17.8771Z" fill="#02819B"/>
<path d="M18.7949 6.81591L16.1529 4.96191L12.8829 7.24991L13.7629 7.86791L16.1519 6.19991L18.2139 7.64691C18.4537 7.81495 18.6494 8.03828 18.7845 8.29799C18.9196 8.5577 18.9902 8.84615 18.9902 9.13891C18.9902 9.43167 18.9196 9.72012 18.7845 9.97984C18.6494 10.2396 18.4537 10.4629 18.2139 10.6309L12.8779 14.3579L13.7579 14.9759L18.7909 11.4549C19.1637 11.1938 19.4681 10.8466 19.6782 10.4428C19.8884 10.0391 19.9981 9.59059 19.9981 9.13541C19.9981 8.68024 19.8884 8.23177 19.6782 7.828C19.4681 7.42424 19.1637 7.07707 18.7909 6.81591H18.7949Z" fill="#02819B"/>
<path d="M9.99529 9.26642L5.83789 12.1753L6.41749 13.0037L10.5749 10.0948L9.99529 9.26642Z" fill="#02819B"/>
<path d="M17.6764 11L15.6514 12.418L16.2304 13.246L18.3304 11.775C18.1104 11.521 17.8934 11.261 17.6764 11Z" fill="#02819B"/>
</g>
<defs>
<clipPath id="clip0">
<rect width="16" height="14.118" fill="white" transform="translate(4 5)"/>
</clipPath>
</defs>
</svg>
