<svg width="24" height="24" viewBox="0 0 24 24" fill="none" xmlns="http://www.w3.org/2000/svg">
<path d="M11.8875 23.9431C17.7072 23.9431 22.425 19.2123 22.425 13.3767C22.425 7.54103 17.7072 2.8103 11.8875 2.8103C6.06781 2.8103 1.35001 7.54103 1.35001 13.3767C1.35001 19.2123 6.06781 23.9431 11.8875 23.9431Z" fill="#F2E373"/>
<path fill-rule="evenodd" clip-rule="evenodd" d="M16.1625 12.2523L1.76251 16.5614C2.43751 18.6596 3.75001 20.5706 5.81251 22.0319C10.8375 25.5539 17.1 24.0554 21.0375 19.8588C21.1125 19.7838 21.0375 19.6338 20.925 19.6713C20.175 20.0088 19.35 20.1213 18.5625 19.9713C17.025 19.6713 15.8625 18.5099 15.5625 16.9736C15.1875 15.0251 16.35 13.1141 18.2625 12.5523L16.1625 12.2523Z" fill="url(#paint0_linear_1888_5996)"/>
<path fill-rule="evenodd" clip-rule="evenodd" d="M14.5125 11.4281C14.8125 11.3156 15.075 11.1656 15.3375 11.016C18 9.48 21.375 10.0418 23.4375 12.3274C23.475 12.3649 23.475 12.4399 23.4375 12.4774C23.4 12.5149 23.3625 12.5149 23.325 12.5149C21.525 12.1399 19.575 12.0649 18.1125 12.5524C16.35 13.1516 15.0375 14.3884 14.1375 15.9619C12.825 18.2475 12.2625 18.9221 10.125 19.7464C6.41251 21.2078 2.92501 19.8589 1.76251 16.5615C0.22501 11.6528 2.43751 6.33225 7.01251 3.93412C8.28751 3.25988 9.86251 2.66025 11.175 2.28562C12.45 1.91062 14.5875 1.38637 15.15 0.0375C15.1875 0 15.2625 0 15.3 0C15.3375 0 15.375 0.0375 15.375 0.1125C15.6 1.7235 15.225 2.43562 14.2875 3.33487C13.275 4.27163 12.0375 4.72125 10.95 5.3955C9.26251 6.51975 8.73751 8.54288 9.86251 10.2292C10.5375 11.241 11.6625 11.7653 12.8625 11.7653C13.2375 11.7653 13.575 11.7278 13.95 11.6153C14.1375 11.5778 14.325 11.5031 14.5125 11.4281Z" fill="url(#paint1_linear_1888_5996)"/>
<defs>
<linearGradient id="paint0_linear_1888_5996" x1="9.90892" y1="16.7589" x2="11.8408" y2="21.3062" gradientUnits="userSpaceOnUse">
<stop stop-color="#F7D45C"/>
<stop offset="1" stop-color="#DE3633"/>
</linearGradient>
<linearGradient id="paint1_linear_1888_5996" x1="5.00605" y1="5.53429" x2="13.8043" y2="15.4131" gradientUnits="userSpaceOnUse">
<stop stop-color="#F7D45C"/>
<stop offset="1" stop-color="#DE3633"/>
</linearGradient>
</defs>
</svg>
