<svg width="24" height="24" viewBox="0 0 24 24" fill="none" xmlns="http://www.w3.org/2000/svg">
<circle cx="12" cy="12" r="12" fill="#172852"/>
<path d="M9.6759 5.40668C11.0912 4.88201 12.6842 4.88081 14.1261 5.31205C16.0031 5.88943 17.5876 7.29335 18.4155 9.05543C18.644 9.55735 18.8627 10.0808 18.8845 10.639C17.8293 10.0329 16.6727 9.64 15.5136 9.28183C13.6596 8.6194 11.7185 8.15942 9.96355 7.24903C9.55503 7.00706 9.03411 6.75909 8.92292 6.25479C8.8782 5.81876 9.34352 5.57559 9.6759 5.40668Z" fill="#FFD83D"/>
<path d="M5.40309 9.64696C5.81282 8.54491 6.48481 7.52193 7.39733 6.76367C7.62939 8.65512 8.44158 10.4831 9.78316 11.8582C11.3918 13.5149 13.6834 14.5319 16.0149 14.4936C16.9407 14.5223 17.8459 14.3103 18.7488 14.139C17.8604 17.3205 14.3421 19.4324 11.0824 18.9245C9.11479 18.6753 7.29822 17.5206 6.20199 15.8903C4.96557 14.0887 4.65374 11.6965 5.40309 9.64696Z" fill="#FFD83D"/>
<path d="M15.374 9.22266C16.5573 9.58082 17.738 9.97372 18.8151 10.5798L18.8879 10.617C18.9879 11.3465 19.0607 12.0904 18.9274 12.8211C18.3858 12.5983 17.9465 12.2066 17.4876 11.8604C16.6041 11.1464 15.7022 10.3295 15.374 9.22266Z" fill="#FF6F03"/>
</svg>
