<svg width="24" height="24" viewBox="0 0 24 24" fill="none" xmlns="http://www.w3.org/2000/svg">
<circle cx="12" cy="12" r="12" fill="url(#paint0_linear)"/>
<path fill-rule="evenodd" clip-rule="evenodd" d="M8.50195 7.7998V16.7998H16.002L8.50195 7.7998Z" fill="url(#paint1_linear)"/>
<path fill-rule="evenodd" clip-rule="evenodd" d="M1.00195 16.7998H8.50195V7.7998L1.00195 16.7998Z" fill="white"/>
<path fill-rule="evenodd" clip-rule="evenodd" d="M2.40039 19.2002C3.08439 20.1062 3.89439 20.9162 4.80039 21.6002H19.2004C20.1064 20.9162 20.9164 20.1062 21.6004 19.2002H2.40039Z" fill="#FC9965"/>
<path fill-rule="evenodd" clip-rule="evenodd" d="M4.7998 21.6001C6.8038 23.1061 9.2998 24.0001 11.9998 24.0001C14.6998 24.0001 17.1958 23.1061 19.1998 21.6001H4.7998Z" fill="#FF2D55"/>
<path fill-rule="evenodd" clip-rule="evenodd" d="M16.0977 12.6001V19.2001H21.5996L16.0977 12.6001Z" fill="url(#paint2_linear)"/>
<path fill-rule="evenodd" clip-rule="evenodd" d="M16.098 16.7998H1.00195C1.37395 17.6578 1.84795 18.4618 2.39995 19.1998H16.104V16.7998H16.098Z" fill="#FFBC5B"/>
<path fill-rule="evenodd" clip-rule="evenodd" d="M10.6016 19.2001H16.0975V12.6001L10.6016 19.2001Z" fill="white"/>
<path d="M16.0977 10.7998C17.7545 10.7998 19.0977 9.45666 19.0977 7.7998C19.0977 6.14295 17.7545 4.7998 16.0977 4.7998C14.4408 4.7998 13.0977 6.14295 13.0977 7.7998C13.0977 9.45666 14.4408 10.7998 16.0977 10.7998Z" fill="#FFC95B"/>
<path d="M8.50196 6C9.33039 6 10.002 5.32843 10.002 4.5C10.002 3.67157 9.33039 3 8.50196 3C7.67353 3 7.00195 3.67157 7.00195 4.5C7.00195 5.32843 7.67353 6 8.50196 6Z" fill="#FFC95B"/>
<defs>
<linearGradient id="paint0_linear" x1="20.4852" y1="3.5148" x2="3.5148" y2="20.4852" gradientUnits="userSpaceOnUse">
<stop stop-color="#FF2D55"/>
<stop offset="1" stop-color="#FFBC5B"/>
</linearGradient>
<linearGradient id="paint1_linear" x1="12.2494" y1="7.7998" x2="12.2494" y2="16.7998" gradientUnits="userSpaceOnUse">
<stop stop-color="#A524B3"/>
<stop offset="1" stop-color="#FF2D55"/>
</linearGradient>
<linearGradient id="paint2_linear" x1="18.8468" y1="12.6001" x2="18.8468" y2="19.2001" gradientUnits="userSpaceOnUse">
<stop stop-color="#A524B3"/>
<stop offset="1" stop-color="#FF2D55"/>
</linearGradient>
</defs>
</svg>
