<svg width="24" height="24" viewBox="0 0 24 24" fill="none" xmlns="http://www.w3.org/2000/svg">
<circle cx="12" cy="12" r="12" fill="black"/>
<path d="M16.9261 10.7176C16.5083 10.2998 16.5083 9.62241 16.9261 9.20461C17.3439 8.7868 18.0213 8.7868 18.4391 9.20461C18.8569 9.62241 18.8569 10.2998 18.4391 10.7176C18.0213 11.1354 17.3439 11.1354 16.9261 10.7176ZM13.3327 14.311C13.0193 13.9976 13.0193 13.4896 13.3327 13.1762C13.646 12.8629 14.1541 12.8629 14.4674 13.1762C14.7808 13.4896 14.7808 13.9976 14.4674 14.311C14.1541 14.6244 13.646 14.6244 13.3327 14.311ZM19.0064 12.4197C18.6931 12.1064 18.6931 11.5983 19.0064 11.285C19.3198 10.9716 19.8278 10.9716 20.1412 11.285C20.4545 11.5983 20.4545 12.1064 20.1412 12.4197C19.8278 12.7331 19.3198 12.7331 19.0064 12.4197ZM17.1152 14.311C16.8018 13.9976 16.8018 13.4896 17.1152 13.1762C17.4285 12.8629 17.9366 12.8629 18.2499 13.1762C18.5633 13.4896 18.5633 13.9976 18.2499 14.311C17.9366 14.6244 17.4285 14.6244 17.1152 14.311ZM21.0868 14.1219C20.8779 13.913 20.8779 13.5743 21.0868 13.3654C21.2957 13.1565 21.6344 13.1565 21.8433 13.3654C22.0522 13.5743 22.0522 13.913 21.8433 14.1219C21.6344 14.3308 21.2957 14.3308 21.0868 14.1219ZM19.1956 16.0131C18.9867 15.8042 18.9867 15.4655 19.1956 15.2566C19.4045 15.0477 19.7432 15.0477 19.9521 15.2566C20.161 15.4655 20.161 15.8042 19.9521 16.0131C19.7432 16.222 19.4045 16.222 19.1956 16.0131ZM15.0348 12.6089C14.617 12.1911 14.617 11.5137 15.0348 11.0959C15.4526 10.6781 16.13 10.6781 16.5478 11.0959C16.9656 11.5137 16.9656 12.1911 16.5478 12.6089C16.13 13.0267 15.4526 13.0267 15.0348 12.6089ZM15.0348 8.82636C14.617 8.40855 14.617 7.73116 15.0348 7.31335C15.4526 6.89555 16.13 6.89555 16.5478 7.31335C16.9656 7.73116 16.9656 8.40855 16.5478 8.82636C16.13 9.24416 15.4526 9.24416 15.0348 8.82636ZM13.1435 10.7176C12.7257 10.2998 12.7257 9.62241 13.1435 9.20461C13.5613 8.7868 14.2387 8.7868 14.6565 9.20461C15.0744 9.62241 15.0744 10.2998 14.6565 10.7176C14.2387 11.1354 13.5613 11.1354 13.1435 10.7176ZM9.34345 10.7176C8.92564 10.2998 8.92564 9.62241 9.34345 9.20461C9.76125 8.7868 10.4387 8.7868 10.8565 9.20461C11.2743 9.62241 11.2743 10.2998 10.8565 10.7176C10.4387 11.1354 9.76125 11.1354 9.34345 10.7176ZM5.75006 14.311C5.43671 13.9976 5.43671 13.4896 5.75006 13.1762C6.06342 12.8629 6.57146 12.8629 6.88482 13.1762C7.19817 13.4896 7.19817 13.9976 6.88482 14.311C6.57146 14.6244 6.06342 14.6244 5.75006 14.311ZM11.4238 12.4197C11.1105 12.1064 11.1105 11.5983 11.4238 11.285C11.7372 10.9716 12.2452 10.9716 12.5586 11.285C12.8719 11.5983 12.8719 12.1064 12.5586 12.4197C12.2452 12.7331 11.7372 12.7331 11.4238 12.4197ZM9.53258 14.311C9.21922 13.9976 9.21922 13.4896 9.53258 13.1762C9.84593 12.8629 10.354 12.8629 10.6673 13.1762C10.9807 13.4896 10.9807 13.9976 10.6673 14.311C10.354 14.6244 9.84593 14.6244 9.53258 14.311ZM2.15668 14.1219C1.94777 13.913 1.94777 13.5743 2.15668 13.3654C2.36558 13.1565 2.70428 13.1565 2.91318 13.3654C3.12208 13.5743 3.12208 13.913 2.91318 14.1219C2.70428 14.3308 2.36558 14.3308 2.15668 14.1219ZM4.04793 16.0131C3.83903 15.8042 3.83903 15.4655 4.04793 15.2566C4.25684 15.0477 4.59553 15.0477 4.80444 15.2566C5.01334 15.4655 5.01334 15.8042 4.80444 16.0131C4.59553 16.222 4.25684 16.222 4.04793 16.0131ZM11.613 16.0131C11.4041 15.8042 11.4041 15.4655 11.613 15.2566C11.8219 15.0477 12.1606 15.0477 12.3695 15.2566C12.5784 15.4655 12.5784 15.8042 12.3695 16.0131C12.1606 16.222 11.8219 16.222 11.613 16.0131ZM3.85881 12.4197C3.54545 12.1064 3.54545 11.5983 3.85881 11.285C4.17216 10.9716 4.68021 10.9716 4.99356 11.285C5.30692 11.5983 5.30692 12.1064 4.99356 12.4197C4.68021 12.7331 4.17216 12.7331 3.85881 12.4197ZM7.45219 12.6089C7.03439 12.1911 7.03439 11.5137 7.45219 11.0959C7.87 10.6781 8.5474 10.6781 8.9652 11.0959C9.383 11.5137 9.383 12.1911 8.9652 12.6089C8.5474 13.0267 7.87 13.0267 7.45219 12.6089ZM7.45219 8.82636C7.03439 8.40855 7.03439 7.73116 7.45219 7.31335C7.87 6.89555 8.5474 6.89555 8.9652 7.31335C9.383 7.73116 9.383 8.40855 8.9652 8.82636C8.5474 9.24416 7.87 9.24416 7.45219 8.82636ZM5.56094 10.7176C5.14313 10.2998 5.14313 9.62241 5.56094 9.20461C5.97874 8.7868 6.65614 8.7868 7.07394 9.20461C7.49175 9.62241 7.49175 10.2998 7.07394 10.7176C6.65614 11.1354 5.97874 11.1354 5.56094 10.7176Z" fill="white"/>
</svg>
