<svg width="24" height="24" viewBox="0 0 24 24" fill="none" xmlns="http://www.w3.org/2000/svg">
<circle cx="12" cy="12" r="12" fill="#8247E5"/>
<path d="M16.0475 9.27893C15.7567 9.11276 15.3828 9.11276 15.0504 9.27893L12.724 10.6499L11.1454 11.5223L8.86053 12.8932C8.56973 13.0593 8.19585 13.0593 7.8635 12.8932L6.07715 11.8131C5.78635 11.6469 5.57863 11.3145 5.57863 10.9407V8.8635C5.57863 8.53116 5.74481 8.19881 6.07715 7.9911L7.8635 6.95252C8.1543 6.78635 8.52819 6.78635 8.86053 6.95252L10.6469 8.03264C10.9377 8.19881 11.1454 8.53116 11.1454 8.90504V10.276L12.724 9.36202V7.94955C12.724 7.61721 12.5579 7.28487 12.2255 7.07715L8.90208 5.12463C8.61128 4.95846 8.23739 4.95846 7.90504 5.12463L4.49852 7.11869C4.16617 7.28487 4 7.61721 4 7.94955V11.8546C4 12.1869 4.16617 12.5193 4.49852 12.727L7.8635 14.6795C8.1543 14.8457 8.52819 14.8457 8.86053 14.6795L11.1454 13.3501L12.724 12.4362L15.0089 11.1068C15.2997 10.9407 15.6736 10.9407 16.0059 11.1068L17.7923 12.1454C18.0831 12.3116 18.2908 12.6439 18.2908 13.0178V15.095C18.2908 15.4273 18.1246 15.7596 17.7923 15.9674L16.0475 17.0059C15.7567 17.1721 15.3828 17.1721 15.0504 17.0059L13.2641 15.9674C12.9733 15.8012 12.7656 15.4688 12.7656 15.095V13.7656L11.1869 14.6795V16.0504C11.1869 16.3828 11.3531 16.7151 11.6855 16.9228L15.0504 18.8754C15.3412 19.0415 15.7151 19.0415 16.0475 18.8754L19.4125 16.9228C19.7033 16.7567 19.911 16.4243 19.911 16.0504V12.1039C19.911 11.7715 19.7448 11.4392 19.4125 11.2315L16.0475 9.27893Z" fill="white"/>
</svg>
