<svg width="24" height="24" viewBox="0 0 24 24" fill="none" xmlns="http://www.w3.org/2000/svg">
<circle cx="12" cy="12" r="12" fill="black"/>
<path d="M16.0908 5.31814C16.6402 5.31814 17.0867 4.86515 17.0867 4.30861C17.0867 3.75208 16.6402 3.2998 16.0908 3.2998C15.5413 3.30268 15.0948 3.75496 15.0948 4.31149C15.0948 4.86803 15.5413 5.31814 16.0908 5.31814ZM16.3846 7.9412C16.61 7.93949 16.8254 7.84846 16.9836 7.68814C17.1417 7.52782 17.2296 7.31135 17.2279 7.08633C17.2279 6.61608 16.8505 6.23139 16.3846 6.23139C15.9187 6.23139 15.5413 6.6132 15.5413 7.08633C15.5413 7.55946 15.9179 7.9412 16.3846 7.9412ZM18.6999 8.27555C19.1636 8.27555 19.541 7.89374 19.541 7.42277C19.541 6.9518 19.1636 6.56999 18.6999 6.56999C18.2361 6.56999 17.8587 6.9518 17.8587 7.42277C17.8587 7.89374 18.2368 8.27555 18.6999 8.27555ZM18.4219 10.5197C18.8194 10.5197 19.1413 10.1932 19.1413 9.79128C19.1413 9.38934 18.8194 9.06289 18.4219 9.06289C18.0244 9.06289 17.7025 9.38934 17.7025 9.79128C17.7025 10.1932 18.0244 10.5197 18.4219 10.5197ZM20.2755 11.2473C20.6759 11.2473 21 10.9187 21 10.5139C21 10.1091 20.6759 9.78049 20.2755 9.78049C20.1797 9.78115 20.085 9.80065 19.9967 9.83786C19.9085 9.87508 19.8284 9.92928 19.7612 9.99739C19.6939 10.0655 19.6407 10.1462 19.6047 10.2348C19.5686 10.3234 19.5504 10.4183 19.5511 10.5139C19.5511 10.9187 19.8759 11.2473 20.2755 11.2473ZM16.0922 10.2162C16.1896 10.2157 16.286 10.196 16.3757 10.1582C16.4655 10.1205 16.547 10.0654 16.6155 9.99626C16.6839 9.92709 16.7381 9.84513 16.7748 9.75506C16.8116 9.66498 16.8302 9.56857 16.8296 9.47131V9.46987C16.8296 9.05786 16.5005 8.72351 16.0922 8.72351C15.6839 8.72351 15.3548 9.05714 15.3548 9.46987C15.3548 9.87972 15.6846 10.2162 16.0922 10.2162ZM15.4239 12.0016C15.766 12.0016 16.0418 11.7212 16.0418 11.3768C16.0431 11.2124 15.979 11.0542 15.8636 10.937C15.7481 10.8199 15.5908 10.7533 15.4262 10.7519H15.4239C15.0819 10.7519 14.806 11.0323 14.806 11.3768C14.806 11.7212 15.0819 12.0016 15.4239 12.0016ZM17.7428 12.3173C17.8238 12.3167 17.904 12.3002 17.9786 12.2687C18.0533 12.2373 18.121 12.1914 18.1779 12.1338C18.2348 12.0762 18.2798 12.008 18.3103 11.933C18.3408 11.858 18.3562 11.7778 18.3556 11.6969V11.6954C18.3556 11.3517 18.082 11.0734 17.7428 11.0734C17.4036 11.0734 17.1299 11.3517 17.1299 11.6954C17.1289 11.776 17.1438 11.856 17.1737 11.9309C17.2036 12.0058 17.2481 12.0741 17.3044 12.1318C17.3608 12.1896 17.428 12.2357 17.5022 12.2675C17.5764 12.2993 17.6561 12.3162 17.7369 12.3173H17.7428ZM19.5914 13.0421C19.9335 13.0421 20.2093 12.7616 20.2093 12.415C20.2093 12.0685 19.9335 11.788 19.5914 11.788C19.2493 11.788 18.9735 12.0685 18.9735 12.415C18.9718 12.5796 19.0356 12.7381 19.1509 12.8557C19.2662 12.9733 19.4236 13.0403 19.5884 13.0421H19.5914ZM18.6783 14.3967C18.967 14.3967 19.2004 14.1587 19.2004 13.8682C19.2004 13.5777 18.967 13.3397 18.6783 13.3397C18.3895 13.3397 18.1562 13.5777 18.1562 13.8682C18.1562 14.1587 18.3895 14.3967 18.6783 14.3967ZM16.821 13.6834C17.1148 13.6834 17.3554 13.4404 17.3554 13.142C17.3554 12.8436 17.117 12.6006 16.821 12.6006C16.525 12.6006 16.2867 12.8436 16.2867 13.142C16.2867 13.4404 16.5272 13.6834 16.821 13.6834ZM14.505 13.3527C14.646 13.3505 14.7804 13.293 14.8794 13.1928C14.9783 13.0925 15.0338 12.9574 15.0339 12.8166C15.034 12.6759 14.9787 12.5407 14.8799 12.4403C14.7811 12.3399 14.6467 12.2823 14.5057 12.2799C14.3648 12.2821 14.2296 12.3395 14.1307 12.4398C14.0317 12.5401 13.9762 12.6752 13.9762 12.8159C13.9761 12.9567 14.0314 13.0918 14.1302 13.1923C14.229 13.2927 14.3641 13.3503 14.505 13.3527ZM15.7926 14.6254C16.0483 14.6254 16.2535 14.4154 16.2535 14.1602C16.2547 14.0379 16.2072 13.9202 16.1214 13.833C16.0357 13.7458 15.9187 13.6961 15.7963 13.6949H15.7926C15.537 13.6949 15.3317 13.9049 15.3317 14.1602C15.3304 14.2822 15.3777 14.3998 15.4631 14.487C15.5486 14.5743 15.6653 14.624 15.7875 14.6254H15.7926ZM17.6492 15.3509C17.9048 15.3509 18.1151 15.1409 18.1151 14.8806C18.1151 14.6203 17.9077 14.4104 17.6492 14.4104C17.5243 14.4104 17.4045 14.4599 17.3161 14.5481C17.2278 14.6363 17.1782 14.7559 17.1782 14.8806C17.1782 15.0053 17.2278 15.125 17.3161 15.2131C17.4045 15.3013 17.5243 15.3509 17.6492 15.3509ZM16.6035 15.8952C16.8059 15.8952 16.9708 15.7284 16.9708 15.5234C16.9714 15.4256 16.933 15.3314 16.8642 15.2617C16.7953 15.192 16.7016 15.1525 16.6035 15.1517C16.4012 15.1517 16.2362 15.3185 16.2362 15.5234C16.2361 15.6212 16.2745 15.7151 16.3433 15.7848C16.4121 15.8544 16.5056 15.8941 16.6035 15.8952ZM15.6126 16.1871C15.6565 16.1869 15.6999 16.178 15.7403 16.1609C15.7807 16.1439 15.8174 16.1191 15.8482 16.088C15.879 16.0568 15.9034 16.0199 15.92 15.9793C15.9365 15.9387 15.9449 15.8953 15.9446 15.8515V15.8506C15.9446 15.6637 15.7948 15.5141 15.6126 15.5141C15.5687 15.5144 15.5253 15.5233 15.4849 15.5403C15.4445 15.5573 15.4078 15.5821 15.377 15.6133C15.3462 15.6444 15.3218 15.6814 15.3052 15.7219C15.2887 15.7625 15.2803 15.8059 15.2806 15.8497V15.8506C15.2791 15.9383 15.3125 16.023 15.3736 16.0861C15.4346 16.1492 15.5182 16.1855 15.606 16.1871L15.6126 16.1871ZM14.7448 15.2193C14.963 15.2193 15.1402 15.0395 15.1402 14.8195C15.1402 14.5995 14.963 14.4197 14.7448 14.4197C14.5266 14.4197 14.3495 14.5995 14.3495 14.8195C14.3493 14.9247 14.3907 15.0258 14.4647 15.1007C14.5388 15.1755 14.6394 15.2182 14.7448 15.2193ZM13.4716 14.3025C13.7251 14.3025 13.9325 14.0954 13.9325 13.8373C13.9325 13.5792 13.7273 13.3721 13.4716 13.3721C13.2181 13.3721 13.0107 13.5792 13.0107 13.8373C13.0105 13.9599 13.0589 14.0776 13.1452 14.1647C13.2315 14.2518 13.3489 14.3014 13.4716 14.3025ZM17.2473 20.131C17.7946 20.131 18.2382 19.6809 18.2382 19.1266C18.2382 18.5722 17.7946 18.1221 17.2473 18.1221C16.7 18.1221 16.2564 18.5722 16.2564 19.1266C16.2564 19.6809 16.7 20.131 17.2473 20.131ZM14.7304 18.8598C15.1863 18.8598 15.5564 18.4852 15.5564 18.0228C15.5564 17.5605 15.1863 17.1859 14.7304 17.1859C14.2746 17.1859 13.9044 17.5605 13.9044 18.0228C13.9044 18.4852 14.2739 18.8598 14.7304 18.8598ZM13.2923 20.6998C13.7532 20.6998 14.1255 20.323 14.1255 19.8549C14.1255 19.3897 13.7532 19.0101 13.2923 19.0101C12.8314 19.0101 12.4591 19.3868 12.4591 19.8549C12.4574 20.0773 12.5442 20.2912 12.7004 20.4497C12.8567 20.6081 13.0696 20.6981 13.2923 20.6998ZM12.8595 17.3095C12.955 17.3089 13.0495 17.2894 13.1375 17.2523C13.2254 17.2152 13.3053 17.1612 13.3723 17.0933C13.4394 17.0254 13.4924 16.9449 13.5284 16.8566C13.5643 16.7682 13.5825 16.6736 13.5818 16.5783C13.5825 16.4829 13.5643 16.3883 13.5284 16.3C13.4924 16.2116 13.4394 16.1312 13.3723 16.0633C13.3053 15.9954 13.2254 15.9413 13.1375 15.9042C13.0495 15.8671 12.955 15.8477 12.8595 15.847C12.764 15.8477 12.6695 15.8671 12.5815 15.9042C12.4935 15.9413 12.4137 15.9954 12.3467 16.0633C12.2796 16.1312 12.2266 16.2116 12.1906 16.3C12.1547 16.3883 12.1365 16.4829 12.1372 16.5783C12.1379 16.9809 12.462 17.3095 12.8595 17.3095ZM11.425 19.1747C11.8225 19.1747 12.1444 18.8483 12.1444 18.4463C12.1444 18.0444 11.8225 17.718 11.425 17.718C11.0274 17.718 10.7055 18.0444 10.7055 18.4463C10.7036 18.6376 10.7779 18.8218 10.912 18.9584C11.0461 19.095 11.229 19.1728 11.4206 19.1747H11.425ZM9.87882 20.4402C10.2763 20.4402 10.5961 20.1138 10.5961 19.714C10.5961 19.3121 10.2742 18.9878 9.87882 18.9878C9.4813 18.9878 9.16155 19.3142 9.16155 19.714C9.16155 20.1138 9.48346 20.4402 9.87882 20.4402ZM8.59192 18.7929C8.75536 18.7914 8.91157 18.7254 9.0264 18.6092C9.14123 18.4931 9.20536 18.3363 9.20476 18.1731C9.20476 17.8316 8.93111 17.5533 8.59192 17.5533C8.42892 17.5558 8.27344 17.6222 8.15905 17.7381C8.04466 17.8541 7.98054 18.0103 7.98054 18.1731C7.98054 18.3359 8.04466 18.4921 8.15905 18.6081C8.27344 18.724 8.42892 18.7904 8.59192 18.7929ZM10.1409 17.5217C10.3045 17.5205 10.4609 17.4546 10.5758 17.3384C10.6907 17.2222 10.7547 17.0652 10.7538 16.9018C10.7538 16.5581 10.4801 16.282 10.1409 16.282C9.97793 16.2842 9.82232 16.3503 9.70771 16.4661C9.59311 16.5819 9.52871 16.738 9.52843 16.9008C9.52814 17.0636 9.592 17.2199 9.7062 17.3361C9.8204 17.4523 9.97578 17.5189 10.1388 17.5217H10.1409ZM11.5863 15.6572C11.6673 15.6566 11.7474 15.6402 11.8221 15.6087C11.8968 15.5772 11.9645 15.5313 12.0214 15.4737C12.0783 15.4161 12.1233 15.3479 12.1538 15.2729C12.1843 15.198 12.1997 15.1177 12.1991 15.0368V15.0353C12.1991 14.6916 11.9255 14.4133 11.5863 14.4133C11.5052 14.4139 11.4251 14.4304 11.3504 14.4618C11.2758 14.4933 11.2081 14.5392 11.1512 14.5968C11.0943 14.6544 11.0493 14.7226 11.0188 14.7976C10.9883 14.8726 10.9729 14.9528 10.9734 15.0337V15.0352C10.9734 15.3789 11.2471 15.6572 11.5863 15.6572ZM9.37543 15.9139C9.66925 15.9139 9.90762 15.6737 9.90762 15.3753C9.90762 15.0769 9.66925 14.8368 9.37543 14.8368C9.08162 14.8368 8.84325 15.0769 8.84325 15.3753C8.84325 15.6737 9.08162 15.9139 9.37543 15.9139ZM7.83433 17.1801C7.90393 17.1797 7.97278 17.1657 8.03694 17.1387C8.1011 17.1118 8.15932 17.0725 8.20827 17.0231C8.25722 16.9737 8.29594 16.9151 8.32223 16.8508C8.34852 16.7864 8.36185 16.7175 8.36147 16.648V16.6466C8.36282 16.5064 8.30834 16.3715 8.21004 16.2714C8.11173 16.1714 7.97765 16.1144 7.83728 16.1131H7.83433C7.76472 16.1134 7.69587 16.1275 7.63171 16.1544C7.56755 16.1814 7.50933 16.2207 7.46038 16.2701C7.41143 16.3195 7.37271 16.3781 7.34642 16.4424C7.32014 16.5068 7.3068 16.5757 7.30718 16.6451V16.6466C7.30671 16.7162 7.31997 16.7852 7.3462 16.8497C7.37244 16.9141 7.41113 16.9728 7.46008 17.0224C7.50903 17.0719 7.56728 17.1113 7.63149 17.1384C7.6957 17.1655 7.76463 17.1796 7.83433 17.1801ZM7.48002 15.696C7.60149 15.6951 7.71765 15.6461 7.80308 15.5599C7.88851 15.4736 7.93625 15.3571 7.93587 15.2358C7.93587 14.9806 7.73063 14.7757 7.48002 14.7757C7.22941 14.7757 7.02416 14.9827 7.02416 15.2358C7.02416 15.4911 7.22941 15.696 7.48002 15.696ZM7.46705 14.3938C7.51878 14.3934 7.56992 14.3827 7.61753 14.3625C7.66514 14.3423 7.7083 14.313 7.74455 14.2761C7.78079 14.2392 7.80941 14.1956 7.82877 14.1477C7.84813 14.0998 7.85785 14.0486 7.85737 13.9969C7.85737 13.7791 7.68238 13.6 7.46705 13.6C7.25173 13.6 7.07674 13.7769 7.07674 13.9969C7.07674 14.217 7.25173 14.3938 7.46705 14.3938ZM7.68166 13.311C7.86673 13.311 8.01364 13.1593 8.01364 12.9745C8.01364 12.7897 7.86385 12.638 7.68166 12.638C7.49658 12.638 7.34967 12.7897 7.34967 12.9745C7.34967 13.1593 7.49658 13.311 7.68166 13.311ZM9.01032 13.1298C9.22853 13.1298 9.40568 12.95 9.40568 12.73C9.40568 12.51 9.22853 12.3302 9.01032 12.3302C8.79212 12.3302 8.61496 12.51 8.61496 12.73C8.61458 12.8353 8.65595 12.9364 8.73003 13.0113C8.80411 13.0862 8.90489 13.1288 9.01032 13.1298ZM10.4686 12.5625C10.7221 12.5625 10.9295 12.3525 10.9295 12.0972C10.9307 11.975 10.8831 11.8573 10.7974 11.7701C10.7116 11.6828 10.5947 11.6332 10.4723 11.632H10.4686C10.2151 11.632 10.0077 11.842 10.0077 12.0972C10.0072 12.1579 10.0187 12.218 10.0415 12.2742C10.0643 12.3304 10.098 12.3815 10.1406 12.4247C10.1832 12.4679 10.2339 12.5023 10.2898 12.5259C10.3457 12.5496 10.4057 12.562 10.4665 12.5625H10.4686ZM10.8157 14.0394C10.9544 14.0391 11.0873 13.9838 11.1852 13.8858C11.2831 13.7877 11.338 13.6548 11.3379 13.5164C11.3378 13.3779 11.2826 13.2451 11.1845 13.1473C11.0863 13.0494 10.9533 12.9945 10.8146 12.9945C10.676 12.9945 10.5429 13.0494 10.4448 13.1473C10.3467 13.2451 10.2915 13.3779 10.2914 13.5164C10.2912 13.6548 10.3462 13.7877 10.4441 13.8858C10.542 13.9838 10.6749 14.0391 10.8136 14.0394H10.8157ZM9.02905 14.4327C9.28254 14.4327 9.4849 14.2256 9.4849 13.9696C9.4849 13.7136 9.27966 13.5065 9.02905 13.5065C8.96881 13.5069 8.90923 13.5191 8.85372 13.5425C8.79821 13.5658 8.74785 13.5999 8.70552 13.6427C8.66319 13.6855 8.62971 13.7362 8.60701 13.7919C8.58431 13.8476 8.57282 13.9072 8.57319 13.9674V13.9696C8.57234 14.0296 8.58331 14.0891 8.6055 14.1448C8.62768 14.2005 8.66064 14.2513 8.70249 14.2943C8.74434 14.3373 8.79426 14.3716 8.8494 14.3954C8.90454 14.4191 8.96382 14.4317 9.02386 14.4326L9.02905 14.4327ZM3.98804 13.746C4.53247 13.746 4.97608 13.298 4.97608 12.7465C4.97608 12.195 4.53247 11.7471 3.98804 11.7471C3.44361 11.7471 3 12.1957 3 12.7472C3 13.2987 3.44361 13.746 3.98804 13.746ZM6.23057 11.9613C6.69938 11.9613 7.07674 11.5767 7.07674 11.1035C7.07674 10.6304 6.6965 10.2457 6.23057 10.2457C6.00463 10.2472 5.78855 10.3383 5.62987 10.4989C5.47118 10.6595 5.38288 10.8764 5.3844 11.102V11.1035C5.3844 11.5795 5.76463 11.9613 6.23057 11.9613ZM5.35559 9.76108C5.82152 9.76108 6.19672 9.37927 6.19672 8.9083C6.19672 8.43733 5.81936 8.05552 5.35559 8.05552C5.24438 8.05627 5.1344 8.07887 5.03194 8.12206C4.92948 8.16524 4.83654 8.22816 4.75844 8.3072C4.68033 8.38625 4.61858 8.47989 4.57672 8.58277C4.53486 8.68565 4.5137 8.79575 4.51446 8.90679V8.9083C4.51218 9.13217 4.59905 9.34778 4.75596 9.5077C4.91288 9.66762 5.12699 9.75877 5.3512 9.76108H5.35559ZM7.51746 8.71847C7.91498 8.71847 8.23977 8.39203 8.23977 7.98721C8.23977 7.5824 7.9157 7.25595 7.51746 7.25595C7.11922 7.25595 6.79516 7.5824 6.79516 7.98721C6.79516 8.39203 7.11994 8.71847 7.51746 8.71847ZM8.40108 10.9137C8.80148 10.9137 9.12554 10.5851 9.12554 10.1803C9.12554 9.77546 8.80148 9.44686 8.40108 9.44686C8.00068 9.44686 7.67662 9.77546 7.67662 10.1803C7.67662 10.5851 8.00068 10.9137 8.40108 10.9137ZM10.3685 10.4578C10.5331 10.4565 10.6905 10.3899 10.8059 10.2727C10.9214 10.1556 10.9855 9.99742 10.9842 9.83306C10.9855 9.75232 10.9708 9.67213 10.941 9.59707C10.9112 9.52201 10.8669 9.45355 10.8106 9.39558C10.7543 9.33762 10.6871 9.2913 10.6129 9.25926C10.5386 9.22722 10.4588 9.2101 10.3779 9.20886C10.2971 9.20762 10.2168 9.2223 10.1416 9.25205C10.0664 9.2818 9.99785 9.32605 9.9398 9.38226C9.88175 9.43848 9.83536 9.50555 9.80327 9.57967C9.77118 9.65378 9.75403 9.73348 9.75279 9.81422C9.75279 9.82054 9.75279 9.8268 9.75279 9.83306C9.75089 9.99685 9.81422 10.1547 9.92887 10.2719C10.0435 10.3891 10.2001 10.456 10.3641 10.4579L10.3685 10.4578ZM12.0681 10.4636C12.3619 10.4636 12.6002 10.2234 12.6002 9.92718C12.6002 9.63093 12.3619 9.39078 12.0681 9.39078C11.9256 9.39078 11.7889 9.44729 11.6882 9.54788C11.5874 9.64848 11.5308 9.78492 11.5308 9.92718C11.5308 10.0694 11.5874 10.2059 11.6882 10.3065C11.7889 10.4071 11.9256 10.4636 12.0681 10.4636ZM13.4723 10.7864C13.7179 10.7864 13.921 10.5844 13.921 10.3334C13.921 10.0825 13.7208 9.88044 13.4723 9.88044C13.3528 9.88137 13.2384 9.92956 13.1543 10.0145C13.0703 10.0993 13.0233 10.214 13.0237 10.3334C13.0266 10.5815 13.226 10.7864 13.4723 10.7864ZM13.6553 9.13408C13.7594 9.13334 13.859 9.09135 13.9322 9.01733C14.0054 8.94332 14.0462 8.84333 14.0456 8.73933C14.0456 8.52146 13.8706 8.34457 13.6553 8.34457C13.4399 8.34457 13.2649 8.52146 13.2649 8.73933C13.2643 8.84333 13.3051 8.94332 13.3783 9.01733C13.4515 9.09135 13.5511 9.13334 13.6553 9.13408ZM12.575 8.59336C12.6942 8.59307 12.8084 8.54554 12.8926 8.46123C12.9767 8.37692 13.0239 8.26271 13.0237 8.1437C13.0236 8.02468 12.9761 7.91059 12.8918 7.82649C12.8074 7.74238 12.6931 7.69514 12.5739 7.69514C12.4547 7.69514 12.3404 7.74238 12.2561 7.82649C12.1717 7.91059 12.1243 8.02468 12.1241 8.1437C12.124 8.26271 12.1711 8.37692 12.2553 8.46123C12.3394 8.54554 12.4536 8.59307 12.5728 8.59336H12.575ZM11.1873 8.26548C11.328 8.26434 11.4625 8.20754 11.5613 8.10752C11.6602 8.00751 11.7152 7.87245 11.7145 7.73196C11.7145 7.43571 11.479 7.19843 11.1873 7.19843C10.8957 7.19843 10.6602 7.43859 10.6602 7.73196C10.6596 7.80145 10.6727 7.87038 10.6989 7.93481C10.725 7.99923 10.7635 8.05789 10.8124 8.10743C10.8612 8.15698 10.9193 8.19643 10.9834 8.22355C11.0475 8.25067 11.1163 8.26492 11.1859 8.26548H11.1873ZM9.49066 8.26764C9.83273 8.26764 10.1085 7.98721 10.1085 7.64279C10.1085 7.29837 9.83273 7.01795 9.49066 7.01795C9.14859 7.01795 8.87277 7.29837 8.87277 7.64279C8.8722 7.80732 8.93686 7.96539 9.05263 8.08247C9.16841 8.19955 9.32588 8.26612 9.49066 8.26764ZM7.20564 6.70517C7.59308 6.70517 7.9049 6.38879 7.9049 5.99692C7.9049 5.60504 7.59092 5.28866 7.20564 5.28866C6.8182 5.28866 6.50638 5.60504 6.50638 5.99692C6.50638 6.38879 6.82036 6.70517 7.20564 6.70517ZM9.17235 6.2759C9.51442 6.2759 9.79024 5.99548 9.79024 5.65106C9.79024 5.30664 9.51442 5.02621 9.17235 5.02621C8.83029 5.02621 8.55447 5.30664 8.55447 5.65106C8.55447 5.99548 8.83029 6.2759 9.17235 6.2759ZM10.8712 6.28381C11.165 6.28381 11.4034 6.04365 11.4034 5.74525C11.4034 5.44685 11.165 5.20669 10.8712 5.20669C10.8009 5.20707 10.7314 5.22126 10.6666 5.24846C10.6019 5.27566 10.5431 5.31533 10.4937 5.3652C10.4442 5.41508 10.4052 5.47419 10.3786 5.53915C10.3521 5.60411 10.3386 5.67366 10.339 5.74381V5.74525C10.3384 5.88703 10.394 6.02327 10.4938 6.12419C10.5935 6.22511 10.7292 6.2825 10.8712 6.28381ZM12.2654 6.6045C12.5138 6.6045 12.714 6.40245 12.714 6.15151C12.714 5.90057 12.5138 5.69852 12.2654 5.69852C12.145 5.69852 12.0296 5.74624 11.9446 5.83119C11.8595 5.91615 11.8117 6.03137 11.8117 6.15151C11.8117 6.27165 11.8595 6.38687 11.9446 6.47182C12.0296 6.55678 12.145 6.6045 12.2654 6.6045ZM13.3362 7.1596C13.4431 7.15884 13.5452 7.11579 13.6203 7.03989C13.6954 6.96399 13.7372 6.86145 13.7366 6.75478C13.7366 6.52972 13.5566 6.34996 13.3362 6.34996C13.1159 6.34996 12.9358 6.53188 12.9358 6.75478C12.9358 6.97768 13.1159 7.1596 13.3362 7.1596ZM14.1219 7.79667C14.1654 7.79639 14.2084 7.78755 14.2485 7.77067C14.2886 7.75378 14.325 7.72918 14.3555 7.69827C14.3861 7.66735 14.4102 7.63073 14.4266 7.59049C14.443 7.55026 14.4513 7.50719 14.451 7.46375C14.4514 7.42032 14.4432 7.37651 14.4269 7.33624C14.4106 7.29596 14.3865 7.25929 14.356 7.22831C14.3255 7.19733 14.2892 7.17265 14.2492 7.15568C14.2091 7.13871 14.1661 7.12978 14.1226 7.1294C14.0791 7.12968 14.0354 7.13852 13.9953 7.1554C13.9552 7.17229 13.9189 7.19689 13.8883 7.2278C13.8577 7.25871 13.8336 7.29534 13.8172 7.33557C13.8008 7.37581 13.7925 7.41888 13.7928 7.46232C13.7921 7.50547 13.8 7.54904 13.8159 7.58916C13.8318 7.62928 13.8555 7.66587 13.8856 7.69685C13.9157 7.72783 13.9516 7.75258 13.9913 7.76969C14.031 7.78681 14.0736 7.79595 14.1169 7.7966L14.1219 7.79667Z" fill="white"/>
</svg>
