<svg width="24" height="24" viewBox="0 0 24 24" fill="none" xmlns="http://www.w3.org/2000/svg">
<circle cx="12" cy="12" r="12" fill="#03083C"/>
<path d="M12.0102 21C11.9459 21 11.8821 21 11.8178 21C11.8006 20.9939 11.7839 20.9858 11.7667 20.9818C11.0871 20.8182 10.407 20.6552 9.72748 20.4921C9.65609 20.4749 9.58418 20.4572 9.50873 20.4389C9.50873 19.4687 9.50873 18.5026 9.50873 17.5354C9.48645 17.5288 9.46923 17.5233 9.45151 17.5187C8.66055 17.3288 7.86909 17.1389 7.07813 16.9485C6.99306 16.9283 7.00014 16.948 7.00014 16.8518C7.00014 14.4911 7.00014 12.1304 7.00014 9.76968C7.00014 9.07596 7.00014 8.38273 7.00014 7.689C7.00014 7.66571 7.00014 7.64242 7.00014 7.61102C7.83972 7.81256 8.67068 8.01207 9.50974 8.2131C9.50974 8.18474 9.50974 8.16347 9.50974 8.14221C9.50974 7.45557 9.50974 6.76842 9.50974 6.08178C9.50974 5.84378 9.50974 5.60579 9.50974 5.36779C9.50974 5.34855 9.51126 5.32931 9.51227 5.30652C9.93307 5.4078 10.3473 5.50806 10.7615 5.6068C11.1767 5.70554 11.5909 5.80733 12.0133 5.90607C12.0133 4.93434 12.0133 3.97173 12.0133 3C12.8513 3.16761 13.6828 3.3337 14.5173 3.50131C14.5173 4.47354 14.5173 5.4397 14.5173 6.40788C15.3528 6.64183 16.1843 6.87476 17.0142 7.10769C17.0142 10.2163 17.0142 13.3188 17.0142 16.427C16.1812 16.2285 15.3523 16.0274 14.5158 15.8279C14.5158 16.7996 14.5158 17.7628 14.5158 18.734C13.6782 18.533 12.8473 18.3334 12.0087 18.1324C12.0102 19.094 12.0102 20.047 12.0102 21ZM9.00792 15.5307C10.1756 15.7975 11.3418 16.0644 12.5085 16.3313C12.5207 16.272 12.5181 10.8538 12.506 10.8148C11.3423 10.549 10.1771 10.2821 9.00742 10.0148C9.00792 11.8564 9.00792 13.6915 9.00792 15.5307Z" fill="#1EB1FF"/>
</svg>
