<svg width="24" height="24" viewBox="0 0 24 24" fill="none" xmlns="http://www.w3.org/2000/svg">
<circle cx="12" cy="12" r="12" fill="#4A90E2"/>
<path d="M12.1082 10.3491H12.012C11.0049 10.3491 10.8606 10.1047 10.8606 9.17453C10.8606 8.53868 10.3566 8 9.70916 8C9.08581 8 8.55771 8.51415 8.55771 9.17453C8.55771 10.1047 8.41344 10.3245 7.40627 10.3245H7.31008C6.73482 10.3736 6.27887 10.8632 6.27887 11.4745C6.27887 12.1104 6.78292 12.6491 7.43031 12.6491C8.02962 12.6491 8.53367 12.1594 8.55771 11.5726V11.4991C8.55771 10.6425 8.8213 10.3245 9.70916 10.3245C10.597 10.3245 10.8606 10.6425 10.8606 11.4745C10.8606 12.1104 11.3646 12.6491 12.012 12.6491C12.6594 12.6491 13.1635 12.1349 13.1635 11.4745C13.1394 10.8877 12.6835 10.3981 12.1082 10.3491Z" fill="white"/>
<path d="M18.8726 8C18.2493 8 17.7212 8.51415 17.7212 9.17453C17.7212 10.1047 17.5769 10.3491 16.5697 10.3491H16.4736C15.8983 10.3981 15.4423 10.8877 15.4423 11.4991V11.5236C15.4423 12.4292 15.274 12.6491 14.2909 12.6491C14.2428 12.6491 14.1947 12.6491 14.1707 12.6736C13.5954 12.7472 13.1394 13.2368 13.1394 13.8236C13.1394 14.4594 13.6435 14.9981 14.2909 14.9981C14.8902 14.9981 15.3942 14.5085 15.4183 13.9217V13.8236C15.4183 12.9915 15.6819 12.6736 16.5457 12.6491H16.5697C17.169 12.6491 17.6731 12.1594 17.6971 11.5481V11.4745C17.6971 10.6179 17.9607 10.3 18.8486 10.3C19.4719 10.3 20 9.78585 20 9.12547C20 8.51415 19.496 8 18.8726 8Z" fill="white"/>
<path d="M6.30289 13.8236C6.30289 14.4723 5.78737 14.9981 5.15145 14.9981C4.51552 14.9981 4 14.4723 4 13.8236C4 13.1749 4.51552 12.6491 5.15145 12.6491C5.78737 12.6491 6.30289 13.1749 6.30289 13.8236Z" fill="white"/>
</svg>
