<svg width="24" height="24" viewBox="0 0 24 24" fill="none" xmlns="http://www.w3.org/2000/svg">
<circle cx="12" cy="12" r="12" fill="black"/>
<path fill-rule="evenodd" clip-rule="evenodd" d="M13.0048 5.80393C13.7133 7.23577 14.4152 8.65416 15.123 10.0874C14.1422 10.5715 13.1671 11.0522 12.1881 11.5347C11.1426 12.05 10.0926 12.5675 9.02673 13.0938C9.24788 12.4421 9.46794 11.7937 9.68738 11.1472C10.4964 8.76351 11.2969 6.40487 12.1123 4C12.4116 4.60503 12.7088 5.20566 13.0048 5.80393ZM6.31368 12.6783L6.31144 12.6776C5.54943 12.4196 4.78312 12.1601 4 11.8954C4.65082 11.5744 5.29533 11.2568 5.93833 10.94C7.17473 10.3308 8.40554 9.72444 9.66487 9.10122C9.40953 9.85443 9.15911 10.5913 8.91018 11.3238C8.68306 11.9921 8.45717 12.6567 8.22993 13.3269C7.58928 13.1102 6.95299 12.8948 6.31368 12.6783ZM9.90414 15.9604L9.10762 14.3489C10.5605 14.839 11.9386 15.3022 13.3346 15.7714C13.0538 16.5958 12.7772 17.4121 12.498 18.2357L12.4975 18.2373C12.3002 18.8193 12.1017 19.4051 11.8996 20C11.228 18.6386 10.5701 17.3078 9.90414 15.9604ZM9.35329 13.6885C9.37927 13.7026 9.3992 13.7144 9.41583 13.7243C9.44138 13.7394 9.45915 13.75 9.47911 13.7572C10.842 14.2204 12.2053 14.6836 13.5712 15.1349C13.6821 15.1707 13.8408 15.1408 13.9487 15.087C15.2907 14.4331 16.6283 13.7747 17.9672 13.1156L18.631 12.7889C19.0743 12.5708 19.5177 12.3496 20 12.1076L19.948 12.0868C19.8748 12.0574 19.828 12.0386 19.7813 12.0239C19.4115 11.8993 19.0419 11.7742 18.6723 11.649C17.7217 11.3272 16.7705 11.0052 15.815 10.6911C15.6892 10.6492 15.5094 10.6582 15.3926 10.718C14.1725 11.3101 12.9573 11.9086 11.7409 12.5077C11.2999 12.7249 10.8584 12.9424 10.4168 13.1595L10.1616 13.2869C9.90233 13.4166 9.63712 13.5491 9.35329 13.6885Z" fill="white"/>
</svg>
