<svg width="24" height="24" viewBox="0 0 24 24" fill="none" xmlns="http://www.w3.org/2000/svg">
<circle cx="12" cy="12" r="12" fill="black"/>
<path d="M16.2186 5.71476L13.2974 10.0499C13.0955 10.3452 13.4839 10.7026 13.7636 10.4539L16.6382 7.95228C16.7159 7.89012 16.8246 7.93674 16.8246 8.04551V15.8613C16.8246 15.97 16.6848 16.0166 16.6226 15.939L7.9212 5.5283C7.64151 5.18646 7.23751 5 6.7869 5H6.47614C5.66815 5 5 5.66815 5 6.49168V17.4928C5 18.3163 5.66815 18.9845 6.49168 18.9845C7.00444 18.9845 7.48613 18.7203 7.76582 18.2697L10.687 13.9345C10.889 13.6393 10.5006 13.2819 10.2209 13.5305L7.34628 16.0166C7.26859 16.0788 7.15982 16.0322 7.15982 15.9234V8.1232C7.15982 8.01443 7.29967 7.96781 7.36182 8.04551L16.0633 18.4562C16.343 18.798 16.7625 18.9845 17.1976 18.9845H17.5083C18.3319 18.9845 19 18.3163 19 17.4928V6.49168C19 5.66815 18.3319 5 17.5083 5C16.98 5 16.4983 5.26415 16.2186 5.71476Z" fill="white"/>
</svg>
