<?xml version="1.0" encoding="UTF-8"?>
<svg width="24px" height="24px" viewBox="0 0 24 24" version="1.1" xmlns="http://www.w3.org/2000/svg" xmlns:xlink="http://www.w3.org/1999/xlink">
  <path d="M23.64,14.9 C22.4681085,19.6107303 18.5735379,23.1514209 13.7728017,23.8706159 C8.97206554,24.5898109 4.21089736,22.3458306 1.71001077,18.1853168 C-0.790875832,14.0248029 -0.538812129,8.76736686 2.34863382,4.86519243 C5.23607976,0.963018006 10.190088,-0.81517569 14.9,0.36 C21.3271078,1.96363523 25.2391537,8.47177563 23.64,14.9 Z" fill="#0052F3" fill-rule="nonzero"></path>
  <path d="M17.47,15.27 C17.7698389,15.2808571 18.0056517,15.5300179 18,15.83 L18,15.83 L18,15.83 L17.65,18.03 C17.587361,18.5420264 17.1652189,18.9346186 16.65,18.96 L10.69,18.96 C10.5467751,18.9573723 10.4104632,18.8979436 10.3110636,18.7947932 C10.2116641,18.6916428 10.1573231,18.553224 10.16,18.41 C10.16,18.41 10.16,18.35 10.16,18.32 L10.5,16.16 C10.5775678,15.6360686 11.0205356,15.2437256 11.55,15.23 L17.47,15.27 Z M15.29,10.14 C15.4332249,10.1426277 15.5695368,10.2020564 15.6689364,10.3052068 C15.7683359,10.4083572 15.8226769,10.546776 15.82,10.69 C15.824941,10.7265002 15.824941,10.7634998 15.82,10.8 L15.41,13 C15.3263261,13.4943012 14.9106706,13.8642345 14.41,13.89 L6.53,13.89 C6.38131982,13.8876562 6.24018597,13.8241063 6.13987816,13.7143355 C6.03957034,13.6045647 5.98896681,13.4582888 6,13.31 C5.99505897,13.2734998 5.99505897,13.2365002 6,13.2 L6.41,11 C6.49367389,10.5056988 6.90932935,10.1357655 7.41,10.11 L15.29,10.14 Z M17.47,5 C17.6132249,5.00262775 17.7495368,5.06205636 17.8489364,5.16520679 C17.9483359,5.26835722 18.0026769,5.40677602 18,5.55 C18,5.55 18,5.62 18,5.65 L17.64,7.81 C17.5729021,8.31808741 17.1519081,8.70540195 16.64,8.73 L12,8.73 C11.8567494,8.7247928 11.7214471,8.66284247 11.6239077,8.5578 C11.5263683,8.45275754 11.4745963,8.31324336 11.48,8.17 L11.48,8.08 L11.84,5.92 C11.9070979,5.41191259 12.3280919,5.02459805 12.84,5 L17.47,5 Z" fill="#FFFFFF"></path>
</svg>
