<svg width="24" height="24" viewBox="0 0 24 24" fill="none" xmlns="http://www.w3.org/2000/svg">
<circle cx="12" cy="12" r="12" fill="black"/>
<path d="M8.15198 5.09057L15.9968 9.61765V14.2353L4 7.30884L7.84479 5.09057C7.89198 5.06509 7.94476 5.05176 7.99838 5.05176C8.05201 5.05176 8.10479 5.06509 8.15198 5.09057Z" fill="#3CA9E5"/>
<path d="M15.9971 5L11.9971 7.30881L15.9971 9.61762V5Z" fill="#2853C3"/>
<path d="M15.9971 5L19.8451 7.21827C19.8914 7.24642 19.9298 7.28575 19.957 7.33265C19.9841 7.37955 19.999 7.4325 20.0003 7.48666V16.5408L15.9971 14.2352V5Z" fill="#1A4199"/>
<path d="M19.997 16.5442L16.1522 18.7625C16.1031 18.7909 16.0473 18.8058 15.9905 18.8058C15.9338 18.8058 15.878 18.7909 15.8289 18.7625L7.9873 14.2354V9.61133L19.997 16.5442Z" fill="#2853C3"/>
<path d="M4.00001 7.30859V16.3628C3.99968 16.4186 4.0138 16.4735 4.041 16.5222C4.0682 16.571 4.10755 16.6118 4.15522 16.6408L8.00001 18.8591V9.61094L4.00001 7.30859Z" fill="#60BEFF"/>
<path d="M8 18.853L11.9968 16.5442L8 14.2354V18.853Z" fill="#3CA9E5"/>
</svg>
