<svg width="24" height="24" viewBox="0 0 24 24" fill="none" xmlns="http://www.w3.org/2000/svg">
<circle cx="12" cy="12" r="12" fill="url(#paint0_linear)"/>
<path d="M15.827 5.70309C16.4176 7.32645 15.4836 8.82309 15.4836 8.82309C15.4836 8.82309 13.829 8.21973 13.296 6.57621C12.7629 4.93269 13.6953 3.62109 13.6953 3.62109C13.6953 3.62109 15.2364 4.07973 15.827 5.70309Z" fill="white"/>
<path d="M14.6676 9.62758C14.6676 9.62758 13.3663 7.47646 10.9236 7.18318C8.48083 6.8899 6.90475 8.5531 6.90475 8.5531C6.90475 8.5531 7.97059 10.5821 10.4006 10.9632C12.8306 11.3443 14.6676 9.62758 14.6676 9.62758Z" fill="white"/>
<path d="M12.231 15.1497C12.231 15.1497 14.6726 15.7507 16.6079 14.2322C18.5433 12.7137 18.4799 10.4203 18.4799 10.4203C18.4799 10.4203 16.2916 9.73917 14.3039 11.1883C12.3162 12.6374 12.231 15.1497 12.231 15.1497Z" fill="white"/>
<path d="M12.2232 16.2962C12.2232 16.2962 12.6209 18.0151 14.1857 18.7442C15.7505 19.4733 17.1653 18.7091 17.1653 18.7091C17.1653 18.7091 16.8979 17.1232 15.3605 16.338C13.823 15.5527 12.2232 16.2962 12.2232 16.2962Z" fill="white"/>
<path d="M17.9783 16.4056C16.7461 16.4908 15.9021 15.5522 15.9021 15.5522C15.9021 15.5522 16.6446 14.5322 17.8799 14.4917C19.1152 14.4511 19.8316 15.352 19.8316 15.352C19.8316 15.352 19.2105 16.3204 17.9783 16.4056Z" fill="white"/>
<path d="M12.3561 6.74781C12.3561 6.74781 12.4226 5.48709 11.4921 4.67614C10.5617 3.86518 9.43655 4.1107 9.43655 4.1107C9.43655 4.1107 9.30647 5.25405 10.2079 6.09813C11.1093 6.94221 12.3561 6.74781 12.3561 6.74781Z" fill="white"/>
<path d="M7.72001 16.3281C8.01329 13.8857 10.1644 12.5841 10.1644 12.5841C10.1644 12.5841 11.8811 14.4211 11.5 16.8513C11.1189 19.2816 9.08993 20.3474 9.08993 20.3474C9.08993 20.3474 7.42673 18.7706 7.72001 16.3281Z" fill="white"/>
<path d="M9.35996 11.7681C9.35996 11.7681 7.86309 10.834 6.24117 11.4242C4.61926 12.0144 4.15918 13.5559 4.15918 13.5559C4.15918 13.5559 5.46958 14.4883 7.11117 13.9567C8.75277 13.4251 9.35996 11.7681 9.35996 11.7681Z" fill="white"/>
<path d="M5.21297 15.7598C6.02392 14.8291 7.28464 14.8958 7.28464 14.8958C7.28464 14.8958 7.47904 16.1424 6.63496 17.0438C5.79088 17.9452 4.64753 17.8152 4.64753 17.8152C4.64753 17.8152 4.40201 16.6905 5.21297 15.7598Z" fill="white"/>
<defs>
<linearGradient id="paint0_linear" x1="12" y1="0" x2="12" y2="24" gradientUnits="userSpaceOnUse">
<stop offset="0.01" stop-color="#6172B0"/>
<stop offset="0.08" stop-color="#495B9E"/>
<stop offset="0.09" stop-color="#485A9D"/>
<stop offset="0.37" stop-color="#2F4387"/>
<stop offset="0.55" stop-color="#253A7E"/>
<stop offset="1" stop-color="#20326E"/>
</linearGradient>
</defs>
</svg>
