<svg width="24" height="24" viewBox="0 0 24 24" fill="none" xmlns="http://www.w3.org/2000/svg">
<circle cx="12" cy="12" r="12" fill="#050708"/>
<path d="M22.57 16.048C22.5707 13.3484 22.5707 10.6489 22.57 7.94938C22.5809 7.67337 22.4423 7.39868 22.2208 7.23596C19.004 4.88552 15.787 2.53472 12.5701 0.183556C12.4728 0.10748 12.3604 0.0531238 12.2403 0.0241449C12.1202 -0.00483412 11.9954 -0.00776387 11.8741 0.0155527C11.7242 0.0449533 11.5891 0.119955 11.4687 0.210196C8.27474 2.54472 5.08059 4.87912 1.88629 7.2134C1.76688 7.29639 1.66946 7.40718 1.60241 7.53621C1.53537 7.66524 1.50071 7.80865 1.50144 7.95406C1.49952 10.6529 1.49952 13.3516 1.50144 16.0502C1.49724 16.3426 1.64892 16.6263 1.88929 16.7909C5.08327 19.1242 8.27662 21.4581 11.4693 23.7924C11.7748 24.0538 12.2541 24.0744 12.5695 23.8197C15.7761 21.4783 18.9816 19.1357 22.1858 16.7921C22.4271 16.6295 22.5832 16.3408 22.5698 16.0481" fill="white"/>
<path d="M10.9681 1.894C10.953 1.9127 10.9382 1.9311 10.9235 1.94774C10.9027 2.09064 10.9071 2.23587 10.9116 2.38069C10.9136 2.44615 10.9156 2.51152 10.9152 2.57655C11.0725 2.57775 11.2299 2.57775 11.3866 2.57775L11.3877 2.44596C11.3883 2.35833 11.389 2.2706 11.3902 2.18319C11.762 2.18375 12.134 2.18375 12.5062 2.18319C12.5279 2.44117 12.5203 2.69963 12.5127 2.9581C12.5089 3.08984 12.505 3.22249 12.505 3.35417C12.5116 3.3818 12.5234 3.42955 12.5328 3.46729L12.541 3.50057C12.658 3.50858 12.7753 3.50633 12.8924 3.50407C12.9262 3.50343 12.9599 3.50278 12.9937 3.50237C12.9918 2.9794 12.9918 2.45655 12.9937 1.93382C12.9721 1.91361 12.9511 1.89244 12.9302 1.87123C12.8783 1.81881 12.8262 1.76621 12.7638 1.72742C12.4421 1.71896 12.1198 1.72028 11.7977 1.7216C11.6128 1.72235 11.4278 1.72311 11.2431 1.72202C11.1201 1.70556 11.04 1.80486 10.9681 1.894Z" fill="#050708"/>
<path d="M10.1749 2.58313C10.0031 2.57893 9.83183 2.57893 9.66059 2.58553C9.66493 2.84694 9.66202 3.10875 9.6591 3.37056C9.65396 3.8324 9.64882 4.29421 9.68351 4.75373C9.84635 4.75493 10.0097 4.75493 10.1731 4.75133C10.1799 4.07025 10.1776 3.38917 10.1753 2.70758V2.70452L10.1749 2.58313Z" fill="#050708"/>
<path d="M14.0167 3.36256C14.4727 3.35656 14.928 3.35836 15.3838 3.36136C15.3862 3.52841 15.3862 3.69486 15.3838 3.86179C14.9278 3.86659 14.4717 3.86839 14.0157 3.86059C14.0141 3.69474 14.015 3.52781 14.0167 3.36256Z" fill="#050708"/>
<path d="M11.7422 3.60518C11.5786 3.60512 11.4151 3.60506 11.2516 3.60879C11.4422 3.95308 11.6358 4.2958 11.8365 4.63457L11.8723 4.63444C12.0292 4.63393 12.1867 4.63341 12.3436 4.62605C12.2529 4.39867 12.131 4.18706 12.0091 3.97539C11.9386 3.85303 11.8681 3.73064 11.8036 3.60519L11.7422 3.60518Z" fill="#050708"/>
<path d="M13.1299 4.21098C13.2891 4.20738 13.4482 4.20798 13.608 4.21038C13.8007 4.50929 13.991 4.80976 14.1814 5.11027C14.4188 5.48518 14.6566 5.86073 14.8988 6.23278C14.8988 6.43678 14.8988 6.64078 14.8952 6.84478C14.8479 6.83626 14.7548 6.81994 14.7082 6.81214C14.5096 6.51605 14.3194 6.21429 14.1294 5.91257C13.9651 5.65183 13.8008 5.39103 13.6311 5.13404C13.6281 5.44604 13.6285 5.75805 13.629 6.07005C13.6294 6.38206 13.6299 6.69406 13.6269 7.00607C13.461 7.00911 13.2948 7.00911 13.1283 7.00607L13.1277 6.75514C13.1258 5.90735 13.1238 5.05912 13.1299 4.21098Z" fill="#050708"/>
<path d="M15.6164 4.59031C15.447 4.58551 15.2769 4.58551 15.1075 4.58911C15.1063 4.75024 15.1069 4.91105 15.1081 5.07153C15.2769 5.07453 15.447 5.07453 15.6164 5.07033C15.6176 4.91049 15.6176 4.75004 15.6164 4.59031Z" fill="#050708"/>
<path d="M6.73052 4.74702C6.8642 4.74462 6.998 4.74522 7.13168 4.74642C7.48869 4.72242 7.84509 4.7295 8.20222 4.75002C8.20342 4.90495 8.20222 5.06047 8.20102 5.2154C7.97991 5.34816 7.76241 5.48699 7.54495 5.6258C7.24316 5.81844 6.94134 6.01111 6.63008 6.18742C6.5073 6.14077 6.40715 6.05401 6.30809 5.96819C6.27974 5.94363 6.25147 5.91914 6.22279 5.89569C6.36225 5.81068 6.50055 5.72384 6.63884 5.637C6.84802 5.50566 7.05717 5.37433 7.27029 5.24936C7.1315 5.24229 6.99242 5.24142 6.85351 5.24055C6.81309 5.2403 6.77269 5.24004 6.73232 5.23964C6.7292 5.07499 6.7286 4.91079 6.73052 4.74702Z" fill="#050708"/>
<path d="M11.4465 4.93099C11.2831 4.92679 11.1185 4.92619 10.9545 4.93099C10.9507 5.09555 10.9507 5.26015 10.9545 5.4248C11.1185 5.4292 11.2825 5.429 11.4465 5.4242C11.4507 5.25955 11.4507 5.09563 11.4465 4.93099Z" fill="#050708"/>
<path d="M8.86769 5.9045L8.86944 5.90713C9.02188 6.14244 9.17432 6.37776 9.33073 6.61032C9.44764 6.43406 9.56278 6.25661 9.67791 6.07918C9.82442 5.8534 9.97095 5.62757 10.1211 5.4043C10.1211 5.48401 10.1227 5.56397 10.1243 5.64402C10.128 5.82911 10.1317 6.0147 10.1157 6.19883C9.95406 6.47579 9.77562 6.74264 9.59719 7.00946C9.50704 7.14427 9.4169 7.27907 9.32893 7.41518C9.23994 7.27749 9.14912 7.14082 9.0583 7.00413L9.05774 7.00329C8.88574 6.74445 8.71354 6.48529 8.55372 6.21947C8.53382 6.02731 8.53848 5.83367 8.54313 5.64027C8.54496 5.56434 8.54678 5.48845 8.54712 5.4127C8.65484 5.57597 8.76131 5.7403 8.86769 5.9045Z" fill="#050708"/>
<path d="M18.1846 5.48048C17.396 5.47648 16.6075 5.47628 15.8191 5.47988C15.8179 5.63985 15.8184 5.80065 15.8191 5.9611C16.6077 5.96254 17.3959 5.96234 18.1839 5.9605C18.1846 5.80086 18.1846 5.64 18.1846 5.48048Z" fill="#050708"/>
<path d="M11.6454 6.10439C11.8039 6.10139 11.963 6.10139 12.1223 6.10319C12.1268 6.49876 12.1262 6.89456 12.1256 7.29048V7.29254C12.1251 7.59604 12.1247 7.89965 12.1265 8.20324C12.0527 8.27344 11.9795 8.34485 11.9075 8.41625C11.5952 8.41968 11.283 8.41919 10.9708 8.4187C10.7367 8.41833 10.5027 8.41796 10.2688 8.41925C10.2531 8.40423 10.2374 8.38936 10.2216 8.37451C10.1651 8.32117 10.1088 8.268 10.0582 8.20984C10.0388 8.06067 10.0429 7.9094 10.0469 7.75859C10.0487 7.69286 10.0504 7.62717 10.0503 7.56182C10.2023 7.56062 10.3547 7.56062 10.5077 7.56182C10.5119 7.68531 10.5113 7.80867 10.5095 7.93215C10.7531 7.95961 10.9979 7.95652 11.2428 7.95342C11.3758 7.95175 11.5088 7.95007 11.6417 7.95327C11.6424 7.72856 11.642 7.50372 11.6417 7.27888C11.6411 6.88722 11.6405 6.49537 11.6454 6.10439Z" fill="#050708"/>
<path d="M19.2685 6.58728C19.2635 7.11585 19.2635 7.64413 19.2685 8.17214C19.4337 8.1743 19.5993 8.1755 19.7647 8.17274C19.7701 7.64377 19.7701 7.11529 19.7647 6.58728C19.5989 6.58308 19.4337 6.58368 19.2685 6.58728Z" fill="#050708"/>
<path d="M16.9139 6.98616C17.0123 6.98521 17.1108 6.97974 17.2093 6.97428C17.4234 6.9624 17.6374 6.95053 17.8499 6.98496C17.9541 7.3245 18.0507 7.66672 18.1472 8.00903C18.2392 8.33476 18.3311 8.66063 18.4296 8.9843C18.2699 8.9855 18.1095 8.9855 17.9496 8.9855C17.8808 8.75311 17.8166 8.51947 17.7523 8.28582L17.752 8.28482C17.674 8.00123 17.5959 7.71715 17.5097 7.43568C17.4221 7.43688 17.3342 7.43808 17.2464 7.43868C17.1751 7.72183 17.0958 8.00261 17.0165 8.2833L17.0163 8.28429L17.0154 8.28732C16.9499 8.51944 16.8844 8.75149 16.8234 8.98478C16.6624 8.98534 16.5014 8.98514 16.3405 8.98418C16.4924 8.47556 16.637 7.96425 16.7815 7.45335C16.8256 7.29755 16.8696 7.14179 16.9139 6.98616Z" fill="#050708"/>
<path d="M5.73196 7.23911C5.01315 7.23311 4.29362 7.23491 3.57469 7.23911C3.57169 7.40387 3.57169 7.56946 3.57397 7.73469C4.2935 7.73889 5.01255 7.74069 5.73256 7.73409C5.73616 7.56886 5.73616 7.40435 5.73196 7.23911Z" fill="#050708"/>
<path d="M6.07097 7.23972C6.23442 7.23852 6.39774 7.23792 6.56178 7.23972C6.56538 7.40557 6.56538 7.57189 6.56178 7.73774C6.39774 7.73954 6.23442 7.73894 6.07097 7.73774C6.06905 7.57189 6.06905 7.40665 6.07097 7.24092V7.23972Z" fill="#050708"/>
<path d="M8.35954 7.26131C8.19922 7.25951 8.03817 7.25891 7.87785 7.26012C7.86938 7.57638 7.87126 7.89262 7.87313 8.20842L7.87425 8.41481C8.03637 8.41661 8.1991 8.41601 8.36194 8.41481L8.36224 8.12648C8.36269 7.83799 8.36314 7.54935 8.35954 7.26131Z" fill="#050708"/>
<path d="M20.876 7.60181L20.9991 7.60153C21.0559 7.70687 21.1166 7.81049 21.1772 7.91416C21.3115 8.14379 21.4464 8.37432 21.5401 8.62359C21.3759 8.62946 21.2106 8.63016 21.0461 8.63086L21.0348 8.63091C20.948 8.48241 20.8631 8.33283 20.7782 8.18328C20.6684 7.98981 20.5584 7.79616 20.4447 7.60513C20.5882 7.60233 20.7323 7.60207 20.876 7.60181Z" fill="#050708"/>
<path d="M13.6486 8.01613C13.4886 8.01493 13.3286 8.01493 13.1686 8.01613C13.1672 8.42038 13.1673 8.82425 13.1675 9.22844L13.1676 9.59739C13.3284 9.59739 13.4888 9.59679 13.6497 9.59559C13.6497 9.44199 13.6499 9.28841 13.6501 9.13483C13.6507 8.7619 13.6512 8.38902 13.6486 8.01613Z" fill="#050708"/>
<path d="M14.8567 8.65636C14.8548 8.49171 14.8548 8.32671 14.8567 8.16135C15.0182 8.15895 15.1807 8.15895 15.3426 8.16315L15.3427 8.28665C15.3429 8.40993 15.3432 8.53364 15.3414 8.65696C15.2355 8.65736 15.1291 8.65722 15.0229 8.65709H15.0177L14.8567 8.65636Z" fill="#050708"/>
<path d="M6.47871 8.87935C6.22362 9.04329 5.96839 9.20732 5.72358 9.38607C5.94907 9.54677 6.18187 9.69726 6.41464 9.84773C6.57852 9.95367 6.74241 10.0596 6.90369 10.1691C6.98913 10.1689 7.07457 10.1691 7.16001 10.1692C7.34506 10.1696 7.5301 10.17 7.71514 10.1667C7.54094 10.0554 7.36775 9.94236 7.19449 9.82924C6.96822 9.68152 6.74165 9.53359 6.51272 9.38967C6.69934 9.25879 6.89098 9.13566 7.08263 9.01252C7.29487 8.87617 7.50733 8.73964 7.71274 8.59274C7.57483 8.59086 7.43712 8.59078 7.2994 8.59071C7.1742 8.59064 7.04898 8.59057 6.92361 8.58914C6.77676 8.68779 6.62776 8.78355 6.47871 8.87935Z" fill="#050708"/>
<path d="M19.2691 8.92685C19.4348 8.92325 19.6007 8.92265 19.7671 8.92685C19.7712 9.0927 19.7707 9.25784 19.7659 9.42369C19.6007 9.42729 19.4349 9.42669 19.2697 9.42369C19.2661 9.2584 19.2661 9.09318 19.2697 8.92805L19.2691 8.92685Z" fill="#050708"/>
<path d="M4.73172 8.99584C3.90262 8.98804 3.07317 8.98984 2.24515 8.99464C2.24275 9.1608 2.24239 9.32681 2.24479 9.49265C2.55382 9.49622 2.86259 9.49576 3.17129 9.4953H3.17229C3.38315 9.49499 3.59398 9.49468 3.80482 9.49565C3.65423 9.60069 3.49819 9.69808 3.34219 9.79544L3.34132 9.79598C3.29176 9.82691 3.24219 9.85785 3.19281 9.88903C3.23566 9.91953 3.27698 9.95348 3.31844 9.98755C3.40992 10.0627 3.50208 10.1385 3.61282 10.1788C3.97632 9.96385 4.33041 9.73179 4.68408 9.5L4.73412 9.46721L4.73374 9.34936C4.73341 9.23138 4.73307 9.1134 4.73172 8.99584Z" fill="#050708"/>
<path d="M9.33506 9.47513C9.63702 9.47639 9.93897 9.47595 10.2409 9.47551C10.6559 9.47491 11.0709 9.47431 11.4858 9.47813C11.5032 9.6412 11.501 9.80577 11.4792 9.96832C11.0197 9.97025 10.5604 9.96994 10.1013 9.96964C9.84631 9.96947 9.59134 9.96931 9.33638 9.96952C9.3351 9.80416 9.33466 9.63936 9.33506 9.47513Z" fill="#050708"/>
<path d="M12.471 9.48053C12.2984 9.47453 12.1266 9.47453 11.9541 9.47813C11.9524 9.64003 11.9525 9.80192 11.9542 9.96406C12.126 9.96706 12.2984 9.96706 12.4703 9.96226C12.4713 9.80208 12.4715 9.64151 12.471 9.48053Z" fill="#050708"/>
<path d="M14.2095 10.1716C14.1936 10.0509 14.2769 9.97197 14.3585 9.89455C14.3918 9.863 14.4251 9.8315 14.451 9.7977L14.5658 9.79762C14.7381 9.79745 14.9104 9.79727 15.0828 9.8007C15.0876 9.95923 15.0876 10.1178 15.0851 10.277C15.0091 10.2784 14.9329 10.279 14.8567 10.2795C14.7996 10.28 14.7421 10.2804 14.6852 10.2812V11.4104C14.9708 11.4124 15.2563 11.412 15.5419 11.4116C15.8753 11.4112 16.209 11.4108 16.5424 11.414C16.5442 11.5744 16.5442 11.7348 16.54 11.894C16.1219 11.8969 15.7035 11.8966 15.2851 11.8962C15.0063 11.896 14.7266 11.8957 14.448 11.8964C14.4225 11.8631 14.3902 11.8322 14.3578 11.8009C14.277 11.7233 14.1946 11.644 14.2101 11.5237C14.207 11.0732 14.2064 10.6225 14.2095 10.1716Z" fill="#050708"/>
<path d="M16.5568 10.0215C16.7273 10.0155 16.8995 10.0155 17.0706 10.0215C17.0724 10.1849 17.0724 10.3483 17.0706 10.5117C16.8993 10.5177 16.7287 10.5177 16.5574 10.5117C16.5556 10.3481 16.555 10.1851 16.5568 10.0215Z" fill="#050708"/>
<path d="M19.6846 10.017C19.9068 10.0176 20.129 10.0181 20.3512 10.0179C20.3524 10.1843 20.3524 10.3514 20.3505 10.5177C20.1446 10.5177 19.9387 10.5182 19.7327 10.5187C19.2179 10.5199 18.7031 10.5211 18.1882 10.5147C18.1858 10.35 18.1858 10.1856 18.1882 10.0215C18.6868 10.0148 19.1845 10.0159 19.6829 10.017H19.6846Z" fill="#050708"/>
<path d="M8.80167 10.5967C8.59972 10.5967 8.39775 10.5967 8.19561 10.597C8.18929 10.7646 8.19025 10.9325 8.19729 11.1005C8.6005 11.1011 9.00395 11.1011 9.40764 11.1005C9.41124 10.9325 9.41124 10.7644 9.40764 10.5964C9.20556 10.5967 9.00362 10.5967 8.80167 10.5967Z" fill="#050708"/>
<path d="M10.8612 10.597C11.1148 10.5968 11.3684 10.5968 11.622 10.5967C12.0026 10.5966 12.3832 10.5966 12.7638 10.5958C12.9942 10.5598 13.2249 10.7991 13.1958 11.0266C13.1944 11.4925 13.1942 11.9588 13.1951 12.4257C13.1315 12.4945 13.0676 12.5625 13.0036 12.6306L12.9506 12.6871C12.7407 12.6871 12.5312 12.6871 12.3213 12.6847C12.3195 12.5247 12.3193 12.3649 12.3207 12.2054C12.3863 12.2045 12.4519 12.2038 12.5175 12.203C12.5833 12.2023 12.649 12.2015 12.7147 12.2006C12.7147 11.8339 12.7147 11.4666 12.7159 11.0998C12.3347 11.0658 11.9518 11.0704 11.5688 11.075C11.3328 11.0778 11.0967 11.0806 10.8611 11.0744C10.8596 10.9144 10.8597 10.7553 10.8612 10.597Z" fill="#050708"/>
<path d="M6.39163 10.7446C6.22755 11.3066 6.06696 11.8699 5.9067 12.433L5.81538 12.7537C5.97446 12.7555 6.13473 12.7555 6.29488 12.7555C6.35132 12.5286 6.41588 12.3039 6.47993 12.0792C6.56145 11.7932 6.64295 11.5073 6.70868 11.2172C6.79712 11.2105 6.88544 11.2039 6.97376 11.1985C7.06128 11.4728 7.13707 11.7506 7.2129 12.0286C7.2792 12.2716 7.34561 12.5151 7.41981 12.7561C7.57498 12.7549 7.73098 12.7549 7.88698 12.7549C7.7743 12.3273 7.65189 11.9025 7.52949 11.4777L7.52891 11.4757C7.45887 11.2326 7.38875 10.9893 7.32057 10.7458C7.01089 10.741 6.70132 10.7428 6.39163 10.7446Z" fill="#050708"/>
<path d="M19.9088 11.3498L19.9188 11.3497C20.4555 11.3443 20.9929 11.339 21.5288 11.3516C21.665 11.4356 21.8186 11.5719 21.789 11.751C21.789 11.8783 21.7887 12.0058 21.7885 12.1334V12.1356C21.7879 12.3919 21.7874 12.6483 21.789 12.9044C21.7866 12.9947 21.7875 13.0849 21.7883 13.1751C21.7891 13.2695 21.79 13.3638 21.7872 13.4581C21.7914 13.5333 21.7833 13.6079 21.7752 13.6826C21.767 13.7576 21.7589 13.8326 21.7632 13.9084C21.6095 13.9084 21.4557 13.9084 21.302 13.9066C21.303 13.5283 21.3029 13.1498 21.3028 12.7713C21.3028 12.456 21.3027 12.1407 21.3032 11.8255C21.0673 11.819 20.8315 11.8197 20.5957 11.8204C20.4546 11.8208 20.3134 11.8212 20.1722 11.8201L20.1718 11.9128V11.9149C20.1714 12.0121 20.1709 12.1097 20.1692 12.2073C20.0106 12.2097 19.852 12.2105 19.6934 12.2097C19.6906 12.0101 19.6911 11.8099 19.6915 11.6101L19.6916 11.5719C19.7647 11.4987 19.8368 11.4248 19.9088 11.3498Z" fill="#050708"/>
<path d="M5.04327 11.3691H4.54166C4.54116 11.5885 4.54058 11.808 4.5406 12.0275C4.54063 12.3347 4.54066 12.6421 4.53926 12.9492H5.04327L5.04353 12.4227C5.0438 12.0716 5.04407 11.7205 5.04327 11.3691Z" fill="#050708"/>
<path d="M2.96771 11.8098C3.13235 11.8074 3.29688 11.8122 3.46092 11.8231C3.46276 11.9792 3.46276 12.1355 3.46092 12.292C3.29508 12.2938 3.12935 12.2944 2.96351 12.292C2.96171 12.131 2.96231 11.9701 2.96771 11.8098Z" fill="#050708"/>
<path d="M8.86127 11.9021C8.85735 12.8342 8.85755 13.7662 8.86187 14.6981C9.02699 14.7023 9.1926 14.7023 9.3588 14.7007C9.3665 14.4607 9.36373 14.2202 9.36096 13.9798C9.35656 13.5983 9.35217 13.2168 9.38964 12.8374C9.61237 13.2126 9.84852 13.58 10.0847 13.9474C10.2066 14.1369 10.3286 14.3267 10.4487 14.5174C10.5049 14.5162 10.5618 14.515 10.6187 14.515C10.6099 14.4332 10.6145 14.3474 10.6191 14.2613C10.6288 14.08 10.6386 13.8976 10.5237 13.7495C10.4285 13.6003 10.333 13.4512 10.2376 13.3021L10.2316 13.2927C9.93602 12.8309 9.64024 12.3688 9.35148 11.9033C9.18804 11.8997 9.02471 11.8997 8.86127 11.9021Z" fill="#050708"/>
<path d="M11.0406 12.2605C11.2069 12.2569 11.3733 12.2565 11.5398 12.2593C11.5422 12.6666 11.5416 13.0739 11.5398 13.4811C11.3728 13.4841 11.2063 13.4841 11.0394 13.4799C11.0366 13.0733 11.0359 12.6666 11.0394 12.2605H11.0406Z" fill="#050708"/>
<path d="M14.5473 12.8052C14.3838 12.8034 14.2205 12.804 14.0576 12.8052C14.0557 12.9712 14.0557 13.1374 14.0576 13.3026C14.2206 13.3032 14.3838 13.3032 14.5473 13.3026C14.5503 13.1368 14.5503 12.971 14.5473 12.8052Z" fill="#050708"/>
<path d="M16.8767 12.8243L17.1669 12.8252C17.1874 12.9734 17.2001 13.1241 17.1856 13.2742C17.1501 13.3464 17.0778 13.3438 17.0078 13.3413C16.9833 13.3405 16.9591 13.3396 16.9368 13.342C16.7782 13.3373 16.6193 13.3394 16.4606 13.3416C16.1874 13.3452 15.9136 13.3489 15.6425 13.318C15.6395 13.1537 15.6395 12.9904 15.6449 12.827C16.0553 12.8216 16.466 12.823 16.8767 12.8243Z" fill="#050708"/>
<path d="M17.7841 12.8952C17.753 12.8959 17.7219 12.8967 17.6909 12.8972C17.6854 13.4743 17.686 14.0519 17.6915 14.629C17.8563 14.632 18.0213 14.632 18.1865 14.629C18.1871 14.5158 18.188 14.4025 18.1888 14.2892C18.1922 13.8291 18.1956 13.3684 18.183 12.9092C18.0505 12.8886 17.917 12.8919 17.7841 12.8952Z" fill="#050708"/>
<path d="M13.1686 13.2362L13.3284 13.2359C13.4349 13.2357 13.5422 13.2354 13.6486 13.2362C13.6504 13.4008 13.6509 13.5659 13.6486 13.7318C13.4886 13.7342 13.3286 13.7342 13.1686 13.7318C13.1674 13.5667 13.1674 13.4014 13.1686 13.2362Z" fill="#050708"/>
<path d="M6.54367 13.5587C6.18663 13.5542 5.82963 13.5498 5.47477 13.5882C5.47345 13.7506 5.47285 13.9125 5.47717 14.0746C5.93923 14.0785 6.40113 14.0779 6.86339 14.0773C7.12027 14.077 7.37727 14.0766 7.63446 14.077C7.63626 13.9107 7.63686 13.7437 7.63446 13.5772C7.48772 13.5621 7.34023 13.5554 7.19273 13.5573C6.97668 13.5641 6.76014 13.5614 6.54367 13.5587Z" fill="#050708"/>
<path d="M2.24578 13.9563L2.29987 13.9035C2.36014 13.8447 2.42065 13.7856 2.48122 13.727C2.68943 13.7258 2.89751 13.7252 3.10524 13.7294C3.10764 13.8867 3.10764 14.0446 3.10644 14.2019C3.00276 14.2043 2.89947 14.2052 2.79594 14.2061L2.71859 14.2067C2.71993 14.3749 2.71971 14.5431 2.71949 14.7113C2.71922 14.9183 2.71894 15.1253 2.72159 15.3323C2.94906 15.333 3.17654 15.3326 3.40403 15.3322C3.78937 15.3315 4.17533 15.3308 4.56063 15.3353C4.56363 15.4902 4.56363 15.6446 4.56243 15.7995C4.41051 15.8001 4.25799 15.8007 4.10642 15.8007C3.89039 15.7985 3.67425 15.7995 3.45812 15.8005C3.13003 15.802 2.80197 15.8036 2.47438 15.7941C2.38366 15.7426 2.29222 15.6579 2.25106 15.5618C2.24202 15.2233 2.24375 14.8846 2.24548 14.5459C2.24648 14.3494 2.24688 14.1528 2.24578 13.9563Z" fill="#050708"/>
<path d="M15.2111 14.0395C15.1269 14.1145 15.0446 14.1914 14.9629 14.2682L14.9621 14.3248C14.9615 14.5236 14.961 14.722 14.9657 14.9206C15.1243 14.9212 15.2834 14.9212 15.4425 14.9188C15.4455 14.7845 15.4461 14.6501 15.4455 14.5158C15.6305 14.5161 15.8152 14.5161 16.0001 14.5161H16.0019C16.1874 14.5161 16.373 14.5161 16.559 14.5164C16.5551 14.8315 16.5559 15.1463 16.5566 15.4612C16.5569 15.5872 16.5572 15.7132 16.5572 15.8393C16.7181 15.8435 16.8798 15.8447 17.0413 15.8435C17.0419 15.3192 17.0419 14.7947 17.0413 14.27C16.9867 14.2186 16.9323 14.1665 16.8779 14.1145L16.8013 14.0413C16.5804 14.0405 16.3595 14.0408 16.1387 14.0411C15.8295 14.0415 15.5202 14.0419 15.2111 14.0395Z" fill="#050708"/>
<path d="M19.9113 14.2089L20.141 14.0639C20.2827 14.1584 20.4219 14.2576 20.5599 14.3568C20.1331 14.6288 19.7067 14.9002 19.2806 15.1708C19.6337 15.1745 19.9869 15.174 20.3401 15.1736C20.6132 15.1732 20.887 15.1728 21.1603 15.1744C21.1615 15.3408 21.1615 15.5079 21.1603 15.6742C20.2293 15.6772 19.2986 15.6772 18.368 15.6742C18.3656 15.5138 18.3656 15.3534 18.3668 15.1942C18.8782 14.8611 19.3935 14.5357 19.9093 14.2102L19.9113 14.2089Z" fill="#050708"/>
<path d="M11.7114 15.2892C12.0063 15.093 12.3064 14.9034 12.6058 14.7143C12.9053 14.5251 13.2054 14.3357 13.5002 14.1394L13.6025 14.2104C13.7083 14.284 13.8139 14.3575 13.922 14.4274C13.6835 14.5951 13.4364 14.7502 13.1892 14.9053C13.0136 15.0155 12.8378 15.1259 12.6651 15.2407C12.999 15.2466 13.333 15.2458 13.6669 15.245C13.9556 15.2444 14.2444 15.2437 14.5331 15.2473C14.5373 15.4186 14.5373 15.5904 14.5331 15.7617C13.8675 15.7655 13.2018 15.7648 12.5361 15.7641C12.2698 15.7638 12.0034 15.7635 11.7371 15.7635C11.7142 15.6132 11.7132 15.461 11.7122 15.3091L11.7114 15.2892Z" fill="#050708"/>
<path d="M5.58616 14.8657L5.69486 15.0319C5.91769 15.3725 6.14063 15.7133 6.36078 16.0548C6.50454 15.8495 6.64039 15.6389 6.77625 15.4282C6.89999 15.2364 7.02374 15.0445 7.15352 14.8566C7.15672 15.0147 7.15655 15.1731 7.15638 15.3314C7.15626 15.4403 7.15615 15.5491 7.15712 15.6578C7.0406 15.8285 6.92833 16.002 6.81607 16.1755C6.66731 16.4054 6.51808 16.636 6.35958 16.859C6.28357 16.743 6.20823 16.6266 6.1329 16.5101C5.95282 16.2317 5.77255 15.9531 5.58316 15.6809L5.58308 15.6726C5.58046 15.4036 5.57784 15.1341 5.58616 14.8657Z" fill="#050708"/>
<path d="M8.42756 15.3739C8.41796 15.5428 8.41856 15.7122 8.42456 15.8817C8.58885 15.8836 8.7535 15.8829 8.91719 15.8815C8.92079 15.7162 8.92079 15.551 8.91719 15.3859C8.75434 15.3727 8.59041 15.3721 8.42756 15.3739Z" fill="#050708"/>
<path d="M10.7318 16.1262C10.897 16.1244 11.0627 16.1238 11.228 16.1262C11.2303 16.4708 11.23 16.8155 11.2298 17.1601C11.2295 17.4307 11.2293 17.7019 11.2304 17.9725C11.113 17.9773 10.9955 17.9828 10.8782 17.9936C10.8478 17.9877 10.793 17.978 10.7533 17.9709L10.728 17.9664C10.7297 17.6984 10.7293 17.4304 10.7289 17.1623C10.7285 16.8171 10.728 16.4712 10.7318 16.1262Z" fill="#050708"/>
<path d="M14.7389 16.5091C14.5428 16.5088 14.3466 16.5086 14.1502 16.5124C13.97 17.1827 13.7751 17.8499 13.5791 18.5168C13.7394 18.5192 13.8999 18.5192 14.0608 18.5192C14.204 18.0027 14.3476 17.4861 14.4916 16.9693L14.5497 16.9721C14.6174 16.9753 14.6852 16.9784 14.7529 16.9826C14.8143 17.2081 14.8775 17.4331 14.9406 17.6582C15.0206 17.9432 15.1007 18.2289 15.1771 18.5148C15.3375 18.5184 15.4985 18.5184 15.6594 18.5184C15.4677 17.8485 15.2763 17.1786 15.0851 16.5088C14.9697 16.5094 14.8543 16.5093 14.7389 16.5091Z" fill="#050708"/>
<path d="M7.08509 17.6221L7.31661 17.4733C7.83297 17.1413 8.34946 16.8092 8.87313 16.4886C8.92159 16.5227 8.97019 16.5564 9.01879 16.5901C9.10918 16.6528 9.19953 16.7155 9.28882 16.7804C9.11804 16.8866 8.94858 16.9951 8.77913 17.1036C8.52111 17.2687 8.26311 17.4338 8.00047 17.5912C8.3344 17.5976 8.66847 17.5967 9.00262 17.5958C9.2995 17.595 9.59643 17.5943 9.89339 17.5986C9.8964 17.7644 9.89699 17.9301 9.89219 18.096L9.64139 18.0968C8.79005 18.0996 7.93871 18.1025 7.08737 18.0942C7.08269 17.9367 7.08329 17.7794 7.08509 17.6221Z" fill="#050708"/>
<path d="M12.5085 16.5789C12.3362 16.6018 12.1625 16.6123 11.9887 16.6104C12.1849 16.9497 12.3788 17.2906 12.5703 17.633C12.6514 17.6325 12.7327 17.6321 12.814 17.6318C12.8953 17.6315 12.9766 17.6312 13.0579 17.6306C12.9728 17.3198 12.7979 17.0415 12.6258 16.7678C12.5862 16.7047 12.5467 16.6419 12.5085 16.5789Z" fill="#050708"/>
<path d="M18.8612 16.8155C19.0312 16.8101 19.2018 16.8101 19.3723 16.8137C19.3731 16.9764 19.3731 17.1394 19.3723 17.3026C19.2018 17.3068 19.0317 17.3068 18.8616 17.2996C18.8586 17.138 18.8582 16.9771 18.8612 16.8155Z" fill="#050708"/>
<path d="M17.9369 17.6067C17.826 17.7761 17.715 17.9458 17.608 18.1178C17.5963 18.1335 17.586 18.1503 17.575 18.1673C17.5424 18.2178 17.5091 18.2692 17.4526 18.2931C17.2964 18.0665 17.1471 17.8352 16.9979 17.6039C16.8917 17.4394 16.7854 17.2747 16.6768 17.1119C16.671 17.3484 16.6722 17.5853 16.6733 17.8223L16.6738 17.9174C16.7734 18.0685 16.8722 18.2199 16.9709 18.3712C17.1363 18.6246 17.3016 18.8779 17.4702 19.1294C17.5532 19.0036 17.6355 18.8771 17.7178 18.7507C17.8574 18.5362 17.9972 18.3214 18.1406 18.1094C18.1506 18.0922 18.1618 18.0751 18.1731 18.0579C18.2107 18.0008 18.2493 17.9423 18.2447 17.8715C18.2508 17.6259 18.2471 17.3801 18.2411 17.1351C18.1418 17.2936 18.0392 17.4503 17.9369 17.6067Z" fill="#050708"/>
<path d="M6.04637 17.6357L6.25371 17.6374C6.2542 17.6702 6.25501 17.7031 6.25583 17.736C6.25903 17.8649 6.26223 17.9941 6.24579 18.1226C5.84169 18.1423 5.43613 18.1347 5.03183 18.1272L4.94414 18.1256C4.94234 17.9641 4.94234 17.8031 4.94354 17.6416C5.31075 17.6293 5.67867 17.6325 6.04637 17.6357Z" fill="#050708"/>
<path d="M11.4537 18.6921C11.0568 18.6913 10.6599 18.6905 10.2628 18.6964H10.2616C10.2597 18.8528 10.2597 19.0094 10.2616 19.1661C10.6498 19.1748 11.0385 19.1735 11.4273 19.1723C11.6584 19.1715 11.8895 19.1708 12.1205 19.1721L12.1208 19.546C12.1211 19.7954 12.1213 20.0449 12.1205 20.2946C12.0888 20.2949 12.057 20.2948 12.0253 20.2947C11.9297 20.2945 11.8343 20.2943 11.7393 20.3043C11.7134 20.4101 11.7159 20.5189 11.7183 20.6276C11.7193 20.6711 11.7202 20.7149 11.7194 20.7582C11.9435 20.7648 12.1675 20.7642 12.3914 20.7594C12.46 20.6845 12.5294 20.6104 12.5996 20.5372L12.5993 20.3363V20.3353C12.5988 19.8673 12.5982 19.3996 12.6008 18.9325C12.5208 18.8515 12.4408 18.771 12.3608 18.691C12.0584 18.6933 11.756 18.6927 11.4537 18.6921Z" fill="#050708"/>
<path d="M6.90238 18.8743C7.06573 18.8719 7.22933 18.8723 7.39316 18.8755C7.39556 19.0387 7.39576 19.2025 7.39376 19.3668C7.22913 19.3692 7.06513 19.3694 6.90178 19.3674C6.89954 19.2028 6.90014 19.0384 6.90238 18.8743Z" fill="#050708"/>
<path d="M15.9281 19.2203C15.8112 19.1265 15.6885 19.0279 15.5572 19.1385C15.3273 19.2895 15.094 19.436 14.8614 19.5824C14.5363 19.787 14.2106 19.992 13.8937 20.2087C13.895 20.3624 13.8967 20.5174 13.907 20.6717C14.4165 20.6759 14.9261 20.6778 15.4356 20.6705C15.438 20.507 15.438 20.3431 15.4368 20.1797C15.3112 20.1769 15.1861 20.1755 15.0616 20.1755L14.8267 20.1773C15.0943 19.9917 15.37 19.8186 15.6457 19.6454C15.7871 19.5567 15.9288 19.4677 16.0691 19.3772V19.3185C16.023 19.2964 15.976 19.2587 15.9281 19.2203Z" fill="#050708"/>
<path d="M7.82155 19.5925L8.01071 19.5918C8.60913 19.5895 9.20818 19.5872 9.80639 19.5943C9.80759 19.757 9.80759 19.92 9.80639 20.0833C9.20124 20.0922 8.59658 20.0894 7.9916 20.0865L7.82095 20.0857C7.81795 19.9212 7.81915 19.7565 7.82155 19.5925Z" fill="#050708"/>
<path d="M10.1436 20.85C9.95715 20.8464 9.77079 20.847 9.58442 20.8488C9.65921 20.9782 9.7329 21.1083 9.8066 21.2386C9.92846 21.4539 10.0505 21.6695 10.1776 21.8818L10.2357 21.8814C10.3832 21.8804 10.5303 21.8795 10.678 21.8714C10.5945 21.6431 10.4725 21.4332 10.3506 21.2234C10.279 21.1001 10.2074 20.9769 10.1436 20.85Z" fill="#050708"/>
<path d="M12.8879 21.3703C13.0507 21.3691 13.2134 21.3715 13.3755 21.3823C13.3785 21.5452 13.3773 21.7085 13.3568 21.8708C13.2013 21.8714 13.0462 21.8714 12.8915 21.8708C12.8855 21.7027 12.8856 21.5368 12.8879 21.3703Z" fill="#050708"/>
<path d="M11.752 22.682C11.7526 22.7846 11.7532 22.8873 11.7532 22.9898C11.9192 22.9924 12.0852 22.9928 12.2513 22.9902C12.2531 22.6176 12.2531 22.2453 12.2513 21.8731C12.0878 21.8582 11.9233 21.8491 11.7592 21.8491C11.7486 22.1266 11.7503 22.4044 11.752 22.682Z" fill="#050708"/>
</svg>
