<svg width="24" height="24" viewBox="0 0 24 24" fill="none" xmlns="http://www.w3.org/2000/svg">
<circle cx="12" cy="12" r="12" fill="#20252E"/>
<path d="M18.807 13.1952C18.0924 13.1893 17.5301 12.6212 17.536 11.9066C17.536 11.192 18.11 10.6297 18.8246 10.6297C19.5567 10.6297 20.1132 11.2037 20.1073 11.9359C20.0956 12.6505 19.5274 13.201 18.807 13.1952Z" fill="#FBFBFA"/>
<path d="M6.47176 12.0472C6.47176 12.7617 5.90947 13.3357 5.20075 13.3416C4.49203 13.3533 3.88288 12.75 3.89459 12.0413C3.90631 11.3384 4.47445 10.782 5.19489 10.782C5.92119 10.782 6.47176 11.3267 6.47176 12.0472Z" fill="#FBFBFA"/>
<path d="M10.642 5.16498C10.6361 5.87956 11.2277 6.46528 11.9423 6.45942C12.6393 6.45356 13.2309 5.8737 13.2367 5.18841C13.2426 4.49726 12.6159 3.87054 11.9306 3.88225C11.2336 3.88811 10.6479 4.47383 10.642 5.16498Z" fill="#FBFBFA"/>
<path d="M10.7943 18.8064C10.7943 18.0801 11.3742 17.5002 12.0887 17.5061C12.7857 17.5119 13.3715 18.1035 13.3715 18.8005C13.3715 19.4975 12.7799 20.0832 12.077 20.0832C11.3683 20.0891 10.7943 19.521 10.7943 18.8064Z" fill="#FBFBFA"/>
<path fill-rule="evenodd" clip-rule="evenodd" d="M19.9141 14.9055C21.1617 14.4486 21.97 13.3006 21.9992 11.9359C22.0285 10.6766 21.2085 9.44072 20.0312 8.98386C18.7544 8.48014 17.3428 8.80229 16.4525 9.80387C16.3353 9.93273 16.2182 10.0616 16.0718 10.1612C15.3572 10.6414 14.3907 10.5009 13.8577 9.83901C13.3072 9.16543 13.3774 8.19899 14.0159 7.58985C14.8886 6.76398 15.2693 5.77411 15.0585 4.57925C14.8066 3.17352 13.5297 2.04308 12.1533 2.00208C10.5484 1.94936 9.20713 2.90409 8.85569 4.3801C8.55698 5.65111 8.90841 6.72884 9.8807 7.60156C10.8003 8.42743 10.5953 9.8683 9.48241 10.3662C8.81469 10.6649 8.11769 10.5067 7.54368 9.91515C6.96382 9.31772 6.27853 8.96629 5.44095 8.89014C3.29136 8.691 1.54006 10.7469 2.1082 12.8438C2.44206 14.0796 3.26207 14.8762 4.5038 15.1573C5.72209 15.4326 6.77053 15.0519 7.60811 14.1148C8.13526 13.5232 8.92012 13.3416 9.5937 13.6755C10.648 14.1968 10.8354 15.5439 9.96856 16.3991C8.83226 17.5178 8.56283 19.029 9.27155 20.3175C9.96856 21.5827 11.3801 22.2153 12.7976 21.899C14.4083 21.5417 15.4978 19.8783 15.2049 18.2734C15.0585 17.4651 14.6367 16.8442 14.0627 16.2878C13.3716 15.6201 13.3774 14.5541 14.051 13.9098C14.7305 13.2655 15.7906 13.3065 16.4232 14.0152C17.3311 15.0226 18.6665 15.3623 19.9141 14.9055ZM18.8246 10.0264C19.8731 10.0323 20.7107 10.8816 20.6989 11.9359C20.6931 12.9785 19.8379 13.816 18.8071 13.8043C17.7528 13.7926 16.9211 12.9492 16.9328 11.8949C16.9445 10.864 17.7938 10.0206 18.8246 10.0264ZM5.13637 10.1729C6.19653 10.1436 7.03996 10.9519 7.07511 12.0179C7.10439 13.0253 6.27853 13.9156 5.27109 13.939C4.22851 13.9683 3.33236 13.16 3.30307 12.1526C3.27379 11.069 4.07037 10.2022 5.13637 10.1729ZM13.8226 5.17082C13.8109 6.23098 12.9733 7.0627 11.9249 7.05098C10.8706 7.03927 10.0271 6.18998 10.0506 5.14739C10.0681 4.09896 10.9233 3.27309 11.9776 3.29066C12.9909 3.30238 13.8343 4.16338 13.8226 5.17082ZM13.9573 18.8064C13.9573 19.8431 13.1139 20.6807 12.0772 20.6807C11.0404 20.6865 10.2028 19.8607 10.1853 18.8122C10.1736 17.7579 11.0111 16.9145 12.0654 16.9145C13.1197 16.9145 13.9573 17.7521 13.9573 18.8064Z" fill="#FBFBFA"/>
</svg>
