<svg width="24" height="24" viewBox="0 0 24 24" fill="none" xmlns="http://www.w3.org/2000/svg">
<circle cx="12" cy="12" r="12" fill="#141414"/>
<path d="M5.30233 11.7643C5.30243 11.9558 5.24572 12.1431 5.13939 12.3023C5.03306 12.4616 4.88188 12.5858 4.70497 12.6592C4.52806 12.7325 4.33337 12.7518 4.14552 12.7145C3.95767 12.6772 3.78511 12.585 3.64965 12.4496C3.51419 12.3142 3.42193 12.1417 3.38453 11.9539C3.34713 11.766 3.36628 11.5713 3.43955 11.3944C3.51281 11.2174 3.63691 11.0662 3.79615 10.9598C3.95538 10.8534 4.14259 10.7966 4.33411 10.7966C4.59081 10.7966 4.83701 10.8985 5.01857 11.08C5.20014 11.2614 5.3022 11.5076 5.30233 11.7643ZM20.6859 11.7643C20.686 11.9558 20.6293 12.1431 20.5229 12.3024C20.4166 12.4617 20.2654 12.5859 20.0884 12.6592C19.9115 12.7326 19.7168 12.7518 19.5289 12.7144C19.341 12.6771 19.1685 12.5849 19.033 12.4494C18.8976 12.314 18.8054 12.1414 18.768 11.9536C18.7307 11.7657 18.7499 11.571 18.8232 11.394C18.8966 11.2171 19.0208 11.0659 19.1801 10.9595C19.3394 10.8532 19.5266 10.7965 19.7182 10.7966C19.9744 10.7972 20.22 10.8994 20.401 11.0808C20.5821 11.2622 20.6838 11.508 20.6839 11.7643H20.6859ZM12.9944 15.5839C12.9945 15.7755 12.9377 15.9627 12.8314 16.122C12.725 16.2813 12.5738 16.4055 12.3969 16.4788C12.2199 16.5522 12.0252 16.5714 11.8374 16.5341C11.6495 16.4967 11.4769 16.4045 11.3415 16.2691C11.2061 16.1336 11.1138 15.9611 11.0765 15.7732C11.0392 15.5853 11.0584 15.3906 11.1317 15.2137C11.2051 15.0367 11.3292 14.8855 11.4885 14.7792C11.6478 14.6728 11.8351 14.6161 12.0266 14.6162C12.2832 14.6163 12.5293 14.7183 12.7108 14.8998C12.8922 15.0812 12.9942 15.3273 12.9944 15.5839ZM9.12196 13.6983C9.12196 13.8898 9.06518 14.077 8.95879 14.2362C8.8524 14.3954 8.70118 14.5195 8.52427 14.5928C8.34735 14.6661 8.15267 14.6853 7.96485 14.6479C7.77704 14.6106 7.60452 14.5183 7.46911 14.3829C7.3337 14.2475 7.24149 14.075 7.20413 13.8872C7.16677 13.6994 7.18594 13.5047 7.25922 13.3278C7.33251 13.1509 7.45661 12.9996 7.61583 12.8932C7.77505 12.7869 7.96225 12.7301 8.15374 12.7301C8.41053 12.7301 8.6568 12.8321 8.83838 13.0137C9.01995 13.1952 9.12196 13.4415 9.12196 13.6983ZM16.814 13.6983C16.8145 13.89 16.758 14.0775 16.6519 14.2371C16.5457 14.3967 16.3945 14.5211 16.2175 14.5947C16.0405 14.6683 15.8457 14.6877 15.6577 14.6505C15.4696 14.6133 15.2969 14.521 15.1613 14.3855C15.0257 14.25 14.9334 14.0773 14.8961 13.8893C14.8588 13.7013 14.8781 13.5065 14.9516 13.3294C15.0251 13.1524 15.1495 13.0012 15.309 12.8949C15.4686 12.7886 15.656 12.7321 15.8477 12.7325C16.1037 12.733 16.3491 12.8349 16.5302 13.0159C16.7113 13.1969 16.8133 13.4423 16.814 13.6983ZM4.98822 14.6948C4.98812 14.8242 4.94967 14.9507 4.87771 15.0582C4.80576 15.1657 4.70354 15.2494 4.58398 15.2989C4.46442 15.3483 4.33289 15.3611 4.20602 15.3358C4.07915 15.3105 3.96265 15.2481 3.87124 15.1565C3.77983 15.065 3.71762 14.9484 3.69247 14.8215C3.66733 14.6946 3.68038 14.5631 3.72998 14.4436C3.77958 14.3241 3.86349 14.222 3.97111 14.1502C4.07873 14.0784 4.20523 14.0402 4.3346 14.0402C4.4205 14.0403 4.50554 14.0573 4.58488 14.0902C4.66421 14.1232 4.73629 14.1714 4.79698 14.2322C4.85768 14.293 4.9058 14.3651 4.93862 14.4445C4.97143 14.5239 4.98828 14.6089 4.98822 14.6948ZM20.3718 14.6948C20.3717 14.8242 20.3332 14.9507 20.2613 15.0582C20.1893 15.1657 20.0871 15.2494 19.9675 15.2989C19.848 15.3483 19.7164 15.3611 19.5896 15.3358C19.4627 15.3105 19.3462 15.2481 19.2548 15.1565C19.1634 15.065 19.1012 14.9484 19.076 14.8215C19.0509 14.6946 19.0639 14.5631 19.1135 14.4436C19.1631 14.3241 19.2471 14.222 19.3547 14.1502C19.4623 14.0784 19.5888 14.0402 19.7182 14.0402C19.8916 14.0404 20.0579 14.1093 20.1805 14.232C20.3032 14.3546 20.3721 14.5209 20.3723 14.6944L20.3718 14.6948ZM12.6802 18.5663C12.6803 18.6957 12.642 18.8222 12.5702 18.9298C12.4984 19.0375 12.3962 19.1214 12.2767 19.171C12.1571 19.2205 12.0256 19.2335 11.8986 19.2083C11.7717 19.1831 11.6551 19.1208 11.5636 19.0293C11.4721 18.9378 11.4098 18.8212 11.3846 18.6942C11.3593 18.5673 11.3723 18.4358 11.4219 18.3162C11.4715 18.1967 11.5554 18.0945 11.663 18.0227C11.7707 17.9508 11.8972 17.9125 12.0266 17.9126C12.1999 17.9129 12.366 17.9818 12.4885 18.1044C12.611 18.2269 12.68 18.393 12.6802 18.5663ZM8.80834 16.6293C8.80834 16.7587 8.76997 16.8852 8.69807 16.9928C8.62617 17.1004 8.52399 17.1842 8.40444 17.2337C8.28488 17.2832 8.15334 17.2961 8.02644 17.2708C7.89954 17.2456 7.78299 17.1832 7.69153 17.0917C7.60007 17.0002 7.53781 16.8836 7.51263 16.7566C7.48745 16.6297 7.50047 16.4982 7.55005 16.3787C7.59964 16.2592 7.68355 16.157 7.79118 16.0852C7.89882 16.0134 8.02533 15.9751 8.15472 15.9752C8.2406 15.9752 8.32563 15.9921 8.40496 16.025C8.4843 16.0579 8.55637 16.1061 8.61707 16.1668C8.67777 16.2276 8.72591 16.2997 8.75873 16.3791C8.79155 16.4584 8.80841 16.5435 8.80834 16.6293ZM16.5004 16.6293C16.5007 16.7588 16.4625 16.8855 16.3907 16.9933C16.319 17.1011 16.2168 17.1851 16.0972 17.2348C15.9777 17.2845 15.846 17.2976 15.719 17.2724C15.592 17.2472 15.4753 17.1849 15.3837 17.0933C15.2922 17.0018 15.2298 16.8851 15.2046 16.758C15.1795 16.631 15.1925 16.4994 15.2422 16.3798C15.2919 16.2602 15.376 16.1581 15.4838 16.0863C15.5916 16.0146 15.7182 15.9764 15.8477 15.9767C16.0206 15.9772 16.1863 16.0461 16.3085 16.1684C16.4307 16.2907 16.4995 16.4564 16.4999 16.6293H16.5004ZM4.6746 16.9967C4.6746 17.0643 4.65454 17.1304 4.61697 17.1867C4.5794 17.2429 4.52599 17.2867 4.46351 17.3126C4.40102 17.3385 4.33227 17.3453 4.26593 17.3321C4.1996 17.3189 4.13867 17.2863 4.09085 17.2385C4.04302 17.1907 4.01046 17.1297 3.99726 17.0634C3.98407 16.9971 3.99084 16.9283 4.01672 16.8658C4.0426 16.8033 4.08643 16.7499 4.14267 16.7124C4.1989 16.6748 4.26501 16.6547 4.33265 16.6547C4.42334 16.6547 4.51031 16.6908 4.57444 16.7549C4.63857 16.819 4.6746 16.906 4.6746 16.9967ZM20.0582 16.9967C20.0582 17.0643 20.0381 17.1304 20.0005 17.1867C19.963 17.2429 19.9095 17.2867 19.8471 17.3126C19.7846 17.3385 19.7158 17.3453 19.6495 17.3321C19.5832 17.3189 19.5222 17.2863 19.4744 17.2385C19.4266 17.1907 19.394 17.1297 19.3808 17.0634C19.3676 16.9971 19.3744 16.9283 19.4003 16.8658C19.4262 16.8033 19.47 16.7499 19.5262 16.7124C19.5825 16.6748 19.6486 16.6547 19.7162 16.6547C19.8069 16.6547 19.8939 16.6908 19.958 16.7549C20.0221 16.819 20.0582 16.906 20.0582 16.9967ZM12.3661 20.8691C12.3661 20.9367 12.3461 21.0028 12.3085 21.0591C12.2709 21.1153 12.2175 21.1591 12.155 21.185C12.0926 21.2109 12.0238 21.2177 11.9575 21.2045C11.8911 21.1913 11.8302 21.1587 11.7824 21.1109C11.7346 21.0631 11.702 21.0021 11.6888 20.9358C11.6756 20.8695 11.6824 20.8007 11.7083 20.7382C11.7341 20.6757 11.778 20.6223 11.8342 20.5848C11.8904 20.5472 11.9565 20.5271 12.0242 20.5271C12.1149 20.5271 12.2018 20.5632 12.266 20.6273C12.3301 20.6914 12.3661 20.7784 12.3661 20.8691ZM8.49423 18.9331C8.49423 19.0008 8.47418 19.0669 8.4366 19.1231C8.39903 19.1793 8.34562 19.2232 8.28314 19.2491C8.22065 19.2749 8.1519 19.2817 8.08557 19.2685C8.01923 19.2553 7.9583 19.2228 7.91048 19.1749C7.86266 19.1271 7.83009 19.0662 7.81689 18.9998C7.8037 18.9335 7.81047 18.8648 7.83635 18.8023C7.86224 18.7398 7.90606 18.6864 7.9623 18.6488C8.01853 18.6112 8.08465 18.5912 8.15228 18.5912C8.24297 18.5912 8.32995 18.6272 8.39408 18.6913C8.45821 18.7555 8.49423 18.8424 8.49423 18.9331ZM16.1863 18.9331C16.1863 19.0008 16.1662 19.0669 16.1286 19.1231C16.0911 19.1793 16.0376 19.2232 15.9752 19.2491C15.9127 19.2749 15.8439 19.2817 15.7776 19.2685C15.7113 19.2553 15.6503 19.2228 15.6025 19.1749C15.5547 19.1271 15.5221 19.0662 15.5089 18.9998C15.4957 18.9335 15.5025 18.8648 15.5284 18.8023C15.5543 18.7398 15.5981 18.6864 15.6543 18.6488C15.7106 18.6112 15.7767 18.5912 15.8443 18.5912C15.935 18.5912 16.022 18.6272 16.0861 18.6913C16.1502 18.7555 16.1863 18.8424 16.1863 18.9331ZM13.3075 4.30822C13.3075 4.567 13.2307 4.81997 13.0869 5.03513C12.9432 5.25029 12.7388 5.41797 12.4997 5.51695C12.2606 5.61594 11.9975 5.64179 11.7437 5.59123C11.4899 5.54068 11.2568 5.41598 11.0739 5.23293C10.891 5.04987 10.7664 4.81668 10.7161 4.56284C10.6657 4.30901 10.6917 4.04594 10.7909 3.80691C10.8901 3.56788 11.0579 3.36363 11.2732 3.22C11.4884 3.07637 11.7415 2.99981 12.0002 3C12.347 3.00026 12.6795 3.1382 12.9247 3.38351C13.1698 3.62883 13.3075 3.96143 13.3075 4.30822ZM13.3075 8.17817C13.3075 8.43693 13.2307 8.68988 13.087 8.90503C12.9432 9.12018 12.7389 9.28785 12.4998 9.38685C12.2607 9.48586 11.9976 9.51173 11.7439 9.46122C11.4901 9.4107 11.257 9.28606 11.074 9.10305C10.8911 8.92004 10.7665 8.68689 10.7161 8.43309C10.6657 8.17929 10.6917 7.91623 10.7908 7.6772C10.8899 7.43816 11.0576 7.23388 11.2728 7.09019C11.488 6.9465 11.741 6.86985 11.9998 6.86995C12.3466 6.87008 12.6793 7.00797 12.9245 7.25329C13.1697 7.49862 13.3075 7.83129 13.3075 8.17817ZM13.3075 11.9983C13.3075 12.2571 13.2307 12.51 13.087 12.7252C12.9432 12.9403 12.7389 13.108 12.4998 13.207C12.2607 13.306 11.9976 13.3319 11.7439 13.2813C11.4901 13.2308 11.257 13.1062 11.074 12.9232C10.8911 12.7402 10.7665 12.507 10.7161 12.2532C10.6657 11.9994 10.6917 11.7364 10.7908 11.4973C10.8899 11.2583 11.0576 11.054 11.2728 10.9103C11.488 10.7666 11.741 10.69 11.9998 10.6901C12.1717 10.6901 12.3419 10.7241 12.5007 10.79C12.6595 10.8559 12.8037 10.9524 12.9252 11.0741C13.0466 11.1958 13.1429 11.3402 13.2085 11.4991C13.2741 11.658 13.3077 11.8283 13.3075 12.0002V11.9983ZM21 8.17817C21 8.43691 20.9233 8.68984 20.7795 8.90498C20.6358 9.12011 20.4315 9.28779 20.1924 9.38681C19.9534 9.48582 19.6903 9.51173 19.4366 9.46125C19.1828 9.41077 18.9497 9.28618 18.7667 9.10322C18.5838 8.92026 18.4592 8.68716 18.4087 8.43339C18.3582 8.17962 18.3841 7.91658 18.4831 7.67754C18.5822 7.43849 18.7498 7.23417 18.965 7.09042C19.1801 6.94668 19.433 6.86995 19.6918 6.86995C20.0387 6.86995 20.3715 7.00778 20.6168 7.25312C20.8622 7.49846 21 7.83121 21 8.17817ZM5.61644 8.17817C5.61683 8.43699 5.54043 8.69012 5.39692 8.90551C5.2534 9.1209 5.04922 9.28888 4.81021 9.3882C4.5712 9.48752 4.3081 9.5137 4.0542 9.46345C3.8003 9.41319 3.56701 9.28875 3.38386 9.10587C3.20071 8.92299 3.07592 8.68989 3.02528 8.43606C2.97464 8.18224 3.00044 7.9191 3.0994 7.67994C3.19835 7.44078 3.36603 7.23635 3.58121 7.09251C3.79639 6.94868 4.04939 6.8719 4.30822 6.8719C4.65484 6.8719 4.9873 7.00946 5.23258 7.25438C5.47786 7.4993 5.61592 7.83155 5.61644 8.17817ZM9.48834 6.24222C9.48873 6.50096 9.41238 6.754 9.26895 6.96935C9.12553 7.1847 8.92146 7.35269 8.68256 7.45206C8.44367 7.55143 8.18066 7.57773 7.92682 7.52763C7.67297 7.47754 7.43969 7.35329 7.25646 7.1706C7.07322 6.98792 6.94828 6.755 6.89742 6.50131C6.84657 6.24761 6.87208 5.98454 6.97074 5.74534C7.0694 5.50615 7.23677 5.30158 7.45169 5.15751C7.66661 5.01344 7.91943 4.93634 8.17817 4.93595C8.52513 4.93595 8.85788 5.07378 9.10322 5.31912C9.34856 5.56446 9.48639 5.89721 9.48639 6.24417L9.48834 6.24222ZM9.48639 10.0638C9.48639 10.3225 9.40966 10.5755 9.26591 10.7906C9.12217 11.0057 8.91785 11.1734 8.6788 11.2724C8.43976 11.3715 8.17672 11.3974 7.92295 11.3469C7.66918 11.2964 7.43608 11.1718 7.25312 10.9889C7.07016 10.8059 6.94556 10.5728 6.89509 10.319C6.84461 10.0653 6.87051 9.80222 6.96953 9.56317C7.06855 9.32412 7.23622 9.11981 7.45136 8.97606C7.6665 8.83231 7.91943 8.75558 8.17817 8.75558C8.52513 8.75558 8.85788 8.89341 9.10322 9.13875C9.34856 9.38409 9.48639 9.71684 9.48639 10.0638ZM17.1804 6.24417C17.1804 6.50291 17.1036 6.75585 16.9599 6.97098C16.8161 7.18612 16.6118 7.35379 16.3728 7.45281C16.1337 7.55183 15.8707 7.57773 15.6169 7.52726C15.3632 7.47678 15.1301 7.35218 14.9471 7.16922C14.7641 6.98627 14.6395 6.75316 14.5891 6.49939C14.5386 6.24562 14.5645 5.98258 14.6635 5.74354C14.7625 5.50449 14.9302 5.30018 15.1453 5.15643C15.3605 5.01268 15.6134 4.93595 15.8721 4.93595C16.2191 4.93595 16.5519 5.07378 16.7972 5.31912C17.0425 5.56446 17.1804 5.89721 17.1804 6.24417ZM17.1804 10.0638C17.1804 10.3225 17.1036 10.5755 16.9599 10.7906C16.8161 11.0057 16.6118 11.1734 16.3728 11.2724C16.1337 11.3715 15.8707 11.3974 15.6169 11.3469C15.3632 11.2964 15.1301 11.1718 14.9471 10.9889C14.7641 10.8059 14.6395 10.5728 14.5891 10.319C14.5386 10.0653 14.5645 9.80222 14.6635 9.56317C14.7625 9.32412 14.9302 9.11981 15.1453 8.97606C15.3605 8.83231 15.6134 8.75558 15.8721 8.75558C16.2191 8.75558 16.5519 8.89341 16.7972 9.13875C17.0425 9.38409 17.1804 9.71684 17.1804 10.0638Z" fill="white"/>
</svg>
