<svg width="24" height="24" viewBox="0 0 24 24" fill="none" xmlns="http://www.w3.org/2000/svg">
<circle cx="12" cy="12" r="12" fill="#1A82FF"/>
<path d="M12.0007 18.9849C13.9024 18.9849 15.3777 18.3423 16.4268 17.0571C17.4758 15.7715 18.0002 14.1094 18 12.0708C17.9998 10.6966 17.7614 9.49363 17.2847 8.4618L14.4309 11.4366C14.4408 11.6394 14.4458 11.8508 14.4458 12.0708C14.4462 12.5511 14.4142 13.0056 14.3495 13.4342C14.2849 13.8628 14.1741 14.3108 14.0171 14.7782C13.86 15.2454 13.6061 15.6154 13.2555 15.8882C12.9049 16.1611 12.4792 16.2975 11.9786 16.2975C11.0752 16.297 10.4241 15.8571 10.0252 14.9777L13.3789 11.4829L13.3738 11.478L16.9204 7.78106C16.7711 7.53799 16.6063 7.30603 16.4261 7.0852C15.3775 5.79979 13.9021 5.15697 12 5.15674C10.0979 5.15651 8.62227 5.79933 7.57323 7.0852C6.52487 8.3706 6.00046 10.0325 6 12.0708C5.99974 13.2089 6.1632 14.2298 6.49038 15.1334L9.55502 11.9387C9.56004 11.507 9.59189 11.0965 9.65058 10.7073C9.71428 10.2787 9.82507 9.83069 9.98295 9.3633C10.1401 8.89614 10.394 8.52615 10.7446 8.25334C11.0952 7.98052 11.5209 7.84411 12.0215 7.84411C12.74 7.84434 13.2991 8.12316 13.6986 8.68057L6.80452 15.8663C7.01835 16.2938 7.27482 16.6907 7.57392 17.0571C8.62343 18.3423 10.099 18.9849 12.0007 18.9849Z" fill="white"/>
</svg>
