<svg width="24" height="24" viewBox="0 0 24 24" fill="none" xmlns="http://www.w3.org/2000/svg">
<circle cx="12" cy="12" r="12" fill="black"/>
<path d="M11.9996 11.2453C14.0003 11.2453 15.6222 9.62337 15.6222 7.62264C15.6222 5.62191 14.0003 4 11.9996 4C9.99887 4 8.37695 5.62191 8.37695 7.62264C8.37695 9.62337 9.99887 11.2453 11.9996 11.2453Z" fill="#88BDF3"/>
<path d="M11.9996 20.0002C14.0003 20.0002 15.6222 18.3783 15.6222 16.3775C15.6222 14.3768 14.0003 12.7549 11.9996 12.7549C9.99887 12.7549 8.37695 14.3768 8.37695 16.3775C8.37695 18.3783 9.99887 20.0002 11.9996 20.0002Z" fill="#3075EE"/>
<path d="M16.3775 15.6227C18.3783 15.6227 20.0002 14.0008 20.0002 12.0001C20.0002 9.99935 18.3783 8.37744 16.3775 8.37744C14.3768 8.37744 12.7549 9.99935 12.7549 12.0001C12.7549 14.0008 14.3768 15.6227 16.3775 15.6227Z" fill="#5795F1"/>
<path d="M7.62264 15.6227C9.62337 15.6227 11.2453 14.0008 11.2453 12.0001C11.2453 9.99935 9.62337 8.37744 7.62264 8.37744C5.62191 8.37744 4 9.99935 4 12.0001C4 14.0008 5.62191 15.6227 7.62264 15.6227Z" fill="#205FEC"/>
<path d="M11.1475 11.1471C10.5018 10.9901 9.91176 10.6585 9.44188 10.1886C8.97199 9.71869 8.6404 9.12862 8.4834 8.48291C9.12796 8.64231 9.71676 8.97469 10.1863 9.44419C10.6558 9.9137 10.9882 10.5025 11.1475 11.1471Z" fill="#134BEF"/>
<path d="M8.47559 15.5245C8.63259 14.8788 8.96418 14.2887 9.43407 13.8188C9.90395 13.3489 10.494 13.0174 11.1397 12.8604C10.9803 13.5049 10.648 14.0937 10.1785 14.5632C9.70895 15.0327 9.12015 15.3651 8.47559 15.5245Z" fill="#0932E8"/>
<path d="M12.8525 12.853C13.4982 13.01 14.0883 13.3416 14.5582 13.8115C15.0281 14.2814 15.3597 14.8715 15.5167 15.5172C14.8721 15.3578 14.2833 15.0254 13.8138 14.5559C13.3443 14.0864 13.0119 13.4976 12.8525 12.853Z" fill="#164BEA"/>
<path d="M15.5245 8.47559C15.3675 9.12129 15.0359 9.71137 14.566 10.1813C14.0961 10.6511 13.5061 10.9827 12.8604 11.1397C13.0197 10.4952 13.3521 9.90637 13.8216 9.43687C14.2911 8.96736 14.8799 8.63498 15.5245 8.47559Z" fill="#3170F1"/>
</svg>
