<svg width="24" height="24" viewBox="0 0 24 24" fill="none" xmlns="http://www.w3.org/2000/svg">
<g clip-path="url(#clip0_2530_7019)">
<circle cx="12" cy="12" r="12" fill="#131313"/>
<path d="M14.0243 9.6665H9.97981C9.80799 9.6665 9.6687 9.80579 9.6687 9.97762V14.0221C9.6687 14.1939 9.80799 14.3332 9.97981 14.3332H14.0243C14.1962 14.3332 14.3355 14.1939 14.3355 14.0221V9.97762C14.3355 9.80579 14.1962 9.6665 14.0243 9.6665Z" fill="white"/>
<path d="M9.35525 5.00012H5.31075C5.13892 5.00012 4.99963 5.13941 4.99963 5.31124V9.35573C4.99963 9.52755 5.13892 9.66684 5.31075 9.66684H9.35525C9.5271 9.66684 9.66639 9.52755 9.66639 9.35573V5.31124C9.66639 5.13941 9.5271 5.00012 9.35525 5.00012Z" fill="white"/>
<path d="M18.6893 5H14.6448C14.4729 5 14.3336 5.13929 14.3336 5.31112V9.35561C14.3336 9.52743 14.4729 9.66672 14.6448 9.66672H18.6893C18.8611 9.66672 19.0004 9.52743 19.0004 9.35561V5.31112C19.0004 5.13929 18.8611 5 18.6893 5Z" fill="white"/>
<path d="M9.35527 14.3333H5.31075C5.13892 14.3333 4.99963 14.4725 4.99963 14.6444V18.6889C4.99963 18.8607 5.13892 19 5.31075 19H9.35527C9.52709 19 9.66638 18.8607 9.66638 18.6889V14.6444C9.66638 14.4725 9.52709 14.3333 9.35527 14.3333Z" fill="white"/>
<path d="M18.6893 14.3333H14.6448C14.4729 14.3333 14.3336 14.4725 14.3336 14.6444V18.6889C14.3336 18.8607 14.4729 19 14.6448 19H18.6893C18.8611 19 19.0004 18.8607 19.0004 18.6889V14.6444C19.0004 14.4725 18.8611 14.3333 18.6893 14.3333Z" fill="white"/>
</g>
<defs>
<clipPath id="clip0_2530_7019">
<rect width="24" height="24" fill="white"/>
</clipPath>
</defs>
</svg>
