<svg width="24" height="24" viewBox="0 0 24 24" fill="none" xmlns="http://www.w3.org/2000/svg">
<circle cx="12" cy="12" r="12" fill="white"/>
<circle cx="12" cy="12" r="11" fill="#151515"/>
<path fill-rule="evenodd" clip-rule="evenodd" d="M8.66995 13.418C8.89904 12.9561 8.99087 12.4627 8.99424 11.9405C8.99216 11.8143 8.98571 11.6785 8.97094 11.5431C8.92642 11.1283 8.81446 10.7341 8.61304 10.3677C8.34824 9.886 7.97328 9.52032 7.46341 9.30522C7.01497 9.116 6.54783 9.07412 6.06878 9.15299C5.56715 9.23478 5.13993 9.45809 4.78712 9.8229C4.46993 10.1507 4.26342 10.542 4.1402 10.9781C3.99862 11.4792 3.97375 11.9881 4.05052 12.5027C4.10665 12.879 4.22098 13.2355 4.41065 13.5661C4.68698 14.0476 5.07449 14.4051 5.59461 14.6094C5.96018 14.753 6.34017 14.7976 6.73119 14.7641C6.99218 14.7417 7.24335 14.6833 7.48298 14.5783C8.02439 14.3411 8.40975 13.9426 8.66995 13.418ZM5.02847 12.6155C4.9694 12.3976 4.94761 12.1749 4.94503 11.9598C4.94933 11.5977 5.00503 11.2561 5.1595 10.9362C5.32774 10.5882 5.5792 10.3244 5.9442 10.181C6.16254 10.0953 6.38977 10.0674 6.62431 10.085C6.92308 10.1075 7.19081 10.2057 7.4237 10.3949C7.66204 10.5885 7.81816 10.8391 7.92081 11.125C8.01865 11.3974 8.05729 11.6799 8.05564 11.9684C8.05385 12.2717 8.00883 12.5671 7.895 12.8499C7.77257 13.154 7.58699 13.409 7.30901 13.5895C7.03985 13.7641 6.74129 13.8287 6.42339 13.8143C6.02326 13.7967 5.68335 13.6483 5.41268 13.3499C5.22093 13.139 5.10244 12.8885 5.02847 12.6155Z" fill="#FDFDFD"/>
<path d="M19.1 12.6815H17.68V11.7499H19.9183L19.9327 11.7501C19.9422 11.7502 19.9518 11.7504 19.9613 11.7499C19.982 11.7488 19.9923 11.7571 19.9912 11.7786C19.9907 11.7897 19.9909 11.8009 19.991 11.8121C19.9911 11.8176 19.9912 11.8232 19.9912 11.8288V14.5662C19.9911 14.5749 19.9911 14.5826 19.9912 14.5893C19.9913 14.6119 19.9913 14.6235 19.9856 14.6293C19.9796 14.6354 19.9672 14.6353 19.942 14.6351C19.9363 14.635 19.9298 14.635 19.9227 14.635C19.6814 14.6353 19.4401 14.6353 19.1987 14.635L19.1928 14.635C19.1595 14.635 19.1442 14.635 19.1373 14.6274C19.1313 14.6209 19.1314 14.6089 19.1317 14.5865C19.1317 14.5817 19.1318 14.5763 19.1318 14.5705V14.0561C19.1186 14.0481 19.114 14.056 19.1099 14.0629L19.1088 14.0647C18.8998 14.4113 18.5872 14.6204 18.2018 14.7112C17.5889 14.8558 17.0084 14.7699 16.4796 14.4143C16.1638 14.202 15.9296 13.9154 15.7535 13.5804C15.5672 13.2258 15.463 12.8465 15.4166 12.4495C15.3799 12.1362 15.3805 11.8196 15.4186 11.5065C15.4787 11.0125 15.6206 10.5457 15.8978 10.1274C16.2371 9.61525 16.7074 9.29223 17.3109 9.17478C17.7681 9.08587 18.2236 9.1058 18.6652 9.26083C19.3032 9.48461 19.7099 9.93189 19.903 10.5769C19.9441 10.7142 19.9694 10.8551 19.9873 10.9972L19.9883 11.0043C19.99 11.0161 19.9916 11.0276 19.9865 11.0393C19.9747 11.0481 19.9615 11.0474 19.9484 11.0468C19.9449 11.0466 19.9415 11.0464 19.9381 11.0464C19.6609 11.0467 19.3838 11.0467 19.1066 11.0464C19.0505 11.0464 19.0502 11.0459 19.0416 10.9919C18.9849 10.6385 18.7945 10.3777 18.4761 10.2222C18.0656 10.0214 17.641 10.0101 17.2169 10.1816C16.9756 10.2791 16.7916 10.4504 16.6482 10.6666C16.5049 10.8827 16.4178 11.1212 16.3695 11.3737C16.2878 11.801 16.2906 12.2282 16.395 12.6519C16.4567 12.9022 16.5598 13.1345 16.7235 13.3364C16.9421 13.6056 17.2232 13.7652 17.5667 13.8152C17.8104 13.851 18.0528 13.8428 18.288 13.7662C18.6985 13.6327 18.9474 13.3457 19.057 12.933C19.0702 12.8834 19.0792 12.8328 19.0883 12.7822C19.0918 12.7625 19.0954 12.7424 19.0992 12.7228C19.101 12.7146 19.1007 12.7064 19.1004 12.6963C19.1002 12.6918 19.1 12.6869 19.1 12.6815Z" fill="#FDFDFD"/>
<path d="M13.8656 10.8781L13.8563 10.9032C13.8503 10.9194 13.845 10.9336 13.8401 10.948L13.0118 13.4053C12.8811 13.7934 12.7506 14.1816 12.6204 14.57C12.6096 14.6024 12.6042 14.6186 12.593 14.6266C12.582 14.6345 12.5652 14.6345 12.532 14.6345H11.8295C11.7662 14.6345 11.7656 14.6345 11.7456 14.5752C11.5369 13.9571 11.3283 13.3389 11.1198 12.7208L10.5192 10.9399C10.5138 10.92 10.503 10.902 10.488 10.8877V14.5486C10.488 14.5913 10.488 14.6128 10.4772 14.6237C10.4663 14.6347 10.4443 14.6347 10.4 14.6347H9.73339C9.64142 14.6347 9.64142 14.6347 9.64142 14.5461V9.30141C9.64242 9.24814 9.64249 9.24728 9.69719 9.24728C10.0483 9.24699 10.3994 9.24699 10.7505 9.24728C10.8131 9.24728 10.8133 9.24728 10.8335 9.30787L12.1662 13.2928C12.1698 13.3036 12.1739 13.3143 12.1783 13.326L12.1847 13.343C12.2077 13.3311 12.2123 13.3101 12.2167 13.2901C12.2177 13.2854 12.2187 13.2808 12.2199 13.2764C12.2204 13.2746 12.2209 13.2729 12.2215 13.2713C12.3601 12.8602 12.4981 12.4488 12.6355 12.0373L13.4832 9.50325L13.5059 9.4364C13.5222 9.38869 13.5384 9.34098 13.5534 9.29288C13.563 9.26191 13.5754 9.2462 13.6123 9.24635C13.9729 9.24788 14.3336 9.24788 14.6942 9.24635C14.7305 9.24635 14.7483 9.25631 14.7432 9.29489C14.7423 9.30921 14.7423 9.32358 14.7432 9.33791V14.5469C14.7432 14.5602 14.7435 14.5715 14.7437 14.5811C14.7444 14.6073 14.7447 14.6208 14.7381 14.6277C14.731 14.6352 14.716 14.635 14.6849 14.6347C14.6766 14.6346 14.6672 14.6345 14.6565 14.6345C14.4988 14.6349 14.3411 14.6347 14.1834 14.6346L13.9468 14.6345C13.944 14.6345 13.9414 14.6345 13.9388 14.6345C13.9036 14.6346 13.8873 14.6346 13.8799 14.6265C13.8736 14.6195 13.8738 14.6066 13.8741 14.5826C13.8742 14.5761 13.8743 14.5687 13.8743 14.5604V10.9564C13.8744 10.9518 13.8746 10.9472 13.8748 10.9426C13.8756 10.9237 13.8765 10.9034 13.8656 10.8781Z" fill="#FDFDFD"/>
</svg>
