<svg width="24" height="24" viewBox="0 0 24 24" fill="none" xmlns="http://www.w3.org/2000/svg">
<circle cx="12" cy="12" r="12" fill="#1956EF"/>
<path fill-rule="evenodd" clip-rule="evenodd" d="M8.89397 6C7.51785 5.99913 6.33147 6.97113 6.05797 8.32375C5.78447 9.67638 6.49935 11.0349 7.76647 11.572C9.03734 12.1058 10.5083 11.6706 11.2843 10.5314C12.0602 9.3921 11.9264 7.86394 10.9642 6.87688H11.7838V6H8.89397ZM15.0672 6.00013C13.4708 6.00013 12.1766 7.298 12.1766 8.899C12.1766 10.5 13.4708 11.7979 15.0672 11.7979C16.6636 11.7979 17.9578 10.5 17.9578 8.899C17.9578 7.298 16.6638 6 15.0673 6L15.0672 6.00013ZM6.00347 15.0826C6.00347 13.4816 7.2976 12.1838 8.89397 12.1838H8.8941C10.4906 12.1838 11.7847 13.4816 11.7847 15.0826C11.7847 16.6836 10.4905 17.9815 8.8941 17.9815C7.29772 17.9815 6.00347 16.6836 6.00347 15.0826ZM6.87885 15.0836C6.87885 16.1999 7.78147 17.1046 8.89397 17.1046C10.0062 17.1033 10.9073 16.1989 10.9092 15.0836C10.9092 13.9674 10.0068 13.0626 8.89397 13.0626C7.7811 13.0626 6.87885 13.9674 6.87885 15.0836ZM13.0521 8.9C13.0521 10.0163 13.9547 10.921 15.0672 10.921L15.0673 10.9209C16.179 10.919 17.0807 10.0158 17.0826 8.9C17.0826 7.78375 16.1807 6.879 15.0673 6.879C13.954 6.879 13.0521 7.78375 13.0521 8.9ZM8.8941 10.9199C10.0071 10.9199 10.9093 10.015 10.9093 8.89888V8.89925H10.9103C10.9083 7.78338 10.0068 6.87825 8.89397 6.87825C7.7811 6.87825 6.87897 7.78275 6.87897 8.89888C6.87897 10.015 7.7811 10.9199 8.8941 10.9199Z" fill="white"/>
</svg>
