<svg width="24" height="24" viewBox="0 0 24 24" fill="none" xmlns="http://www.w3.org/2000/svg">
<circle cx="12" cy="12" r="12" fill="url(#paint0_linear)"/>
<path d="M15.9799 5C15.1803 4.99938 14.4131 5.31606 13.8467 5.88054C13.2803 6.44501 12.9611 7.21115 12.959 8.01078V11.349C12.6479 11.37 12.3298 11.3832 12 11.3832C11.6702 11.3832 11.3537 11.3964 11.041 11.4151V8.01078C11.0283 7.21809 10.7045 6.46216 10.1394 5.90609C9.57432 5.35001 8.81329 5.03836 8.0205 5.03836C7.22771 5.03836 6.46668 5.35001 5.90162 5.90609C5.33655 6.46216 5.01272 7.21809 5 8.01078V15.9892C5.01272 16.7819 5.33655 17.5378 5.90162 18.0939C6.46668 18.65 7.22771 18.9616 8.0205 18.9616C8.81329 18.9616 9.57432 18.65 10.1394 18.0939C10.7045 17.5378 11.0283 16.7819 11.041 15.9892V12.651C11.3521 12.63 11.6702 12.6168 12 12.6168C12.3298 12.6168 12.6463 12.6036 12.959 12.5849V15.9892C12.9717 16.7819 13.2955 17.5378 13.8606 18.0939C14.4257 18.65 15.1867 18.9616 15.9795 18.9616C16.7723 18.9616 17.5333 18.65 18.0984 18.0939C18.6635 17.5378 18.9873 16.7819 19 15.9892V8.01078C18.9979 7.21129 18.6788 6.44527 18.1126 5.88081C17.5464 5.31636 16.7794 4.99959 15.9799 5ZM8.02011 6.23356C8.49202 6.23335 8.94475 6.42035 9.27895 6.75353C9.61316 7.08672 9.80154 7.53887 9.80278 8.01078V11.5458C8.91905 11.6738 8.05606 11.9178 7.23611 12.2714C6.88085 12.4274 6.54642 12.627 6.24056 12.8657V8.01078C6.24179 7.53941 6.42975 7.08773 6.76328 6.75463C7.09681 6.42154 7.54874 6.23417 8.02011 6.23356ZM9.80278 15.9892C9.80278 16.462 9.61496 16.9154 9.28065 17.2498C8.94633 17.5841 8.4929 17.7719 8.02011 17.7719C7.54732 17.7719 7.09389 17.5841 6.75958 17.2498C6.42526 16.9154 6.23744 16.462 6.23744 15.9892V15.1889C6.23744 14.4819 6.79744 13.8122 7.73622 13.3953C8.3977 13.11 9.09176 12.907 9.80278 12.791V15.9892ZM15.9799 17.7664C15.508 17.7667 15.0553 17.5797 14.721 17.2465C14.3868 16.9133 14.1985 16.4611 14.1972 15.9892V12.4542C15.0809 12.3262 15.9439 12.0822 16.7639 11.7286C17.1192 11.5726 17.4536 11.373 17.7594 11.1343V15.9892C17.7582 16.4606 17.5703 16.9123 17.2367 17.2454C16.9032 17.5785 16.4513 17.7658 15.9799 17.7664ZM16.2638 10.6C15.6023 10.8854 14.9082 11.0883 14.1972 11.2043V8.01078C14.1972 7.53799 14.385 7.08456 14.7194 6.75024C15.0537 6.41593 15.5071 6.22811 15.9799 6.22811C16.4527 6.22811 16.9061 6.41593 17.2404 6.75024C17.5747 7.08456 17.7626 7.53799 17.7626 8.01078V8.81111C17.7626 9.515 17.2026 10.1847 16.2638 10.6Z" fill="white"/>
<defs>
<linearGradient id="paint0_linear" x1="1.52" y1="22.2119" x2="22.4004" y2="1.33193" gradientUnits="userSpaceOnUse">
<stop stop-color="#00AEE9"/>
<stop offset="1" stop-color="#69FABD"/>
</linearGradient>
</defs>
</svg>
