<svg width="24" height="24" viewBox="0 0 24 24" fill="none" xmlns="http://www.w3.org/2000/svg">
<circle cx="12" cy="12" r="12" fill="#121212"/>
<g style="mix-blend-mode:difference">
<path d="M11.9937 9.51221L14.2086 10.7563V13.2446L11.9937 14.4887L9.77877 13.2446V10.7557L11.9937 9.51221ZM11.9937 9.06626C11.9135 9.06616 11.8346 9.0867 11.7646 9.12591L9.54964 10.37C9.48053 10.4082 9.42287 10.4641 9.38259 10.532C9.34231 10.6 9.32088 10.6774 9.32051 10.7563V13.2446C9.32091 13.3235 9.34236 13.4009 9.38263 13.4688C9.42291 13.5367 9.48056 13.5927 9.54964 13.6309L11.7646 14.875C11.8346 14.9142 11.9136 14.9348 11.9938 14.9348C12.0741 14.9348 12.1531 14.9142 12.2231 14.875L14.4381 13.6309C14.5071 13.5927 14.5648 13.5367 14.6051 13.4688C14.6453 13.4009 14.6668 13.3235 14.6672 13.2446V10.7557C14.6668 10.6768 14.6453 10.5993 14.6051 10.5314C14.5648 10.4635 14.5071 10.4076 14.4381 10.3694L12.2231 9.12528C12.1531 9.08611 12.0742 9.06557 11.994 9.06563" fill="white"/>
<path d="M11.994 3.81774L19.2772 7.90893V16.091L11.994 20.1822L8.83795 18.4088V15.9616L11.508 17.4614C11.6568 17.5446 11.8245 17.5883 11.995 17.5883C12.1655 17.5883 12.3331 17.5446 12.4819 17.4614L16.6129 15.141C16.7597 15.0599 16.8822 14.9411 16.9678 14.7969C17.0534 14.6527 17.099 14.4882 17.0999 14.3205V9.68106C17.099 9.51334 17.0534 9.34889 16.9678 9.20466C16.8822 9.06043 16.7597 8.94162 16.6129 8.86049L12.4807 6.53857C12.3318 6.45537 12.1642 6.41169 11.9937 6.41169C11.8232 6.41169 11.6555 6.45537 11.5067 6.53857L7.37575 8.85891C7.22896 8.94004 7.10645 9.05885 7.02085 9.20308C6.93526 9.34732 6.88966 9.51176 6.88877 9.67948V17.3146L4.71108 16.091V7.90893L11.994 3.81774ZM11.994 3C11.8468 2.99983 11.702 3.03755 11.5736 3.10952L4.29038 7.20071C4.16366 7.27071 4.0579 7.37324 3.984 7.49773C3.91011 7.62222 3.87075 7.76417 3.87 7.90893V16.091C3.87075 16.2358 3.91011 16.3777 3.984 16.5022C4.0579 16.6267 4.16366 16.7292 4.29038 16.7992L6.46806 18.0228C6.59648 18.0947 6.74116 18.1324 6.88829 18.1324C7.03543 18.1324 7.1801 18.0947 7.30852 18.0228C7.43524 17.9528 7.541 17.8503 7.6149 17.7258C7.6888 17.6013 7.72815 17.4594 7.72891 17.3146V9.67948C7.72911 9.65651 7.73541 9.634 7.74717 9.61426C7.75892 9.59452 7.77571 9.57825 7.79582 9.56713L11.9268 7.24679C11.9472 7.23535 11.9702 7.22934 11.9935 7.22934C12.0169 7.22934 12.0399 7.23535 12.0603 7.24679L16.1912 9.56713C16.2113 9.57829 16.228 9.59457 16.2397 9.61431C16.2514 9.63405 16.2577 9.65654 16.2578 9.67948V14.3189C16.2577 14.3419 16.2514 14.3644 16.2396 14.3841C16.2279 14.4039 16.2111 14.4201 16.1909 14.4312L12.0606 16.7532C12.0402 16.7646 12.0172 16.7706 11.9938 16.7706C11.9705 16.7706 11.9475 16.7646 11.9271 16.7532L9.25707 15.2534C9.12866 15.1816 8.98398 15.1438 8.83684 15.1438C8.6897 15.1438 8.54502 15.1816 8.41661 15.2534C8.28987 15.3234 8.18409 15.4259 8.11019 15.5504C8.03629 15.6749 7.99695 15.8168 7.99623 15.9616V18.4088C7.99698 18.5536 8.03634 18.6955 8.11023 18.82C8.18413 18.9445 8.28989 19.047 8.41661 19.117L11.5727 20.8904C11.7011 20.9623 11.8458 21 11.9929 21C12.14 21 12.2847 20.9623 12.4131 20.8904L19.6973 16.7992C19.824 16.7292 19.9298 16.6267 20.0037 16.5022C20.0776 16.3777 20.1169 16.2358 20.1177 16.091V7.90893C20.117 7.76416 20.0776 7.6222 20.0037 7.4977C19.9298 7.37321 19.8241 7.27069 19.6973 7.20071L12.4141 3.10952C12.2857 3.03764 12.1411 2.99993 11.994 3Z" fill="white"/>
</g>
</svg>
