<svg width="24" height="24" viewBox="0 0 24 24" fill="none" xmlns="http://www.w3.org/2000/svg">
<circle cx="12" cy="12" r="12" fill="#5E12A0"/>
<path d="M20.5363 5.31765C20.3549 4.63083 19.7717 3.944 18.722 3.17942C17.8797 2.57035 16.9855 2.22046 16.2728 2.22046C16.1303 2.22046 16.0007 2.23342 15.8711 2.25934C15.5471 2.32413 15.262 2.55739 15.0806 2.90728C14.8603 3.32197 14.8084 3.87921 14.951 4.21614C15.0028 4.31981 15.0676 4.4494 15.1454 4.56603C14.4585 4.98072 14.0698 5.09735 14.0179 5.11031C15.8063 5.70642 17.2966 6.95048 18.2296 8.57035L18.2426 8.41484C18.2814 7.9872 18.411 7.49476 18.5925 6.98936C18.7739 7.04119 18.9553 7.06711 19.1367 7.06711C19.6162 7.06711 20.0309 6.87273 20.2901 6.52284C20.5493 6.17294 20.6529 5.70642 20.5363 5.31765Z" fill="#5E12A0"/>
<path d="M18.6698 6.61345C19.8491 6.93742 20.3285 6.0303 20.173 5.42122C20.0046 4.81215 19.4603 4.19012 18.5013 3.49034C17.5424 2.79056 16.5704 2.50546 15.9484 2.63505C15.3264 2.76464 15.145 3.71064 15.3005 4.07349C15.3653 4.21604 15.5078 4.42338 15.7022 4.65665C15.456 4.82511 15.2227 4.9547 15.0283 5.07133C16.2205 5.60265 17.2573 6.43202 18.0348 7.46874C18.1255 7.11885 18.2551 6.80783 18.3717 6.5357C18.4624 6.54865 18.5661 6.57457 18.6698 6.61345Z" fill="url(#paint0_radial_325_3004_osmo)"/>
<path d="M11.918 19.3131C15.9188 19.3131 19.1621 16.0698 19.1621 12.069C19.1621 8.06819 15.9188 4.82495 11.918 4.82495C7.91719 4.82495 4.67395 8.06819 4.67395 12.069C4.67395 16.0698 7.91719 19.3131 11.918 19.3131Z" fill="url(#paint1_radial_325_3004_osmo)"/>
<path d="M19.5774 4.82528C18.5925 3.78856 17.7631 3.51642 16.7653 3.29612C15.9877 3.11469 16.1951 2.67409 17.1411 2.7648C16.6875 2.60929 16.2599 2.57042 15.9489 2.63521C15.3268 2.7648 15.1454 3.71081 15.3009 4.07366C15.3657 4.21621 15.5083 4.42355 15.7026 4.65681C15.3527 4.89007 15.0547 5.05854 14.8085 5.18813C14.9251 5.23996 15.0677 5.30476 15.2361 5.39547C15.6767 5.62873 16.1562 6.0175 16.1562 6.0175C15.4305 5.39547 15.586 5.11037 16.5838 4.41059C16.8949 4.19029 17.4651 4.21621 17.9964 4.48834C18.5277 4.76048 19.1497 5.44731 19.1497 5.44731L18.5536 6.5877C18.5925 6.60066 18.6314 6.61361 18.6702 6.62657C19.0461 6.73025 19.3441 6.70433 19.5774 6.61361C19.8495 6.44515 20.5623 5.87495 19.5774 4.82528Z" fill="#A98698" fill-opacity="0.6"/>
<path d="M16.7519 3.91809C17.0111 4.02176 17.348 4.20318 17.7627 4.47532C18.2551 4.79929 18.6828 5.16215 18.9549 5.44724C18.5014 6.04335 18.2033 6.85977 18.0219 7.42996C18.1126 7.55955 18.2163 7.68914 18.307 7.81873C18.3977 7.49476 18.5532 7.01528 18.7605 6.5358C18.8124 6.54875 18.8772 6.54875 18.942 6.54875C19.0975 6.54875 19.2789 6.52284 19.4214 6.40621C19.5251 6.32845 19.6417 6.1859 19.6288 5.92672C19.6288 5.6805 19.4344 5.36949 19.0327 4.99368C18.7476 4.72154 18.3588 4.42348 17.97 4.15135C16.8556 3.41269 16.078 3.20534 15.7281 3.55523C15.4949 3.7885 15.5208 4.07359 15.5985 4.28094C15.1839 4.55307 14.834 4.74746 14.6007 4.87705C14.7562 4.92888 14.8988 4.99368 15.0543 5.05847C15.469 4.83817 16.0651 4.46236 16.7519 3.91809ZM19.2011 5.77122C19.24 5.83601 19.253 5.90081 19.253 5.93968C19.253 6.05631 19.2141 6.09519 19.1882 6.12111C19.1363 6.15999 19.0327 6.1859 18.942 6.1859C19.0197 6.0304 19.1104 5.90081 19.2011 5.77122ZM16.0003 3.84033C16.0392 3.80145 16.1428 3.77554 16.3113 3.80145C16.1817 3.90513 16.0521 3.99584 15.9225 4.08655C15.9096 3.99584 15.9225 3.90513 16.0003 3.84033Z" fill="#5E12A0"/>
<path d="M11.918 4.39728C7.68046 4.39728 4.24634 7.8314 4.24634 12.069C4.24634 16.3066 7.68046 19.7407 11.918 19.7407C16.1556 19.7407 19.5898 16.3066 19.5898 12.069C19.5898 7.8314 16.1427 4.39728 11.918 4.39728ZM11.918 19.313C7.91372 19.313 4.67398 16.0733 4.67398 12.069C4.67398 8.06466 7.91372 4.82492 11.918 4.82492C15.9224 4.82492 19.1621 8.06466 19.1621 12.069C19.1621 16.0733 15.9094 19.313 11.918 19.313Z" fill="#5E12A0"/>
<path d="M11.918 19.3131C15.9188 19.3131 19.1621 16.0698 19.1621 12.069C19.1621 8.06819 15.9188 4.82495 11.918 4.82495C7.91719 4.82495 4.67395 8.06819 4.67395 12.069C4.67395 16.0698 7.91719 19.3131 11.918 19.3131Z" fill="url(#paint2_linear_325_3004_osmo)"/>
<path d="M11.8663 18.4321C7.91383 17.7971 5.23132 14.0779 5.87927 10.1254C6.16437 8.37593 7.04558 6.88565 8.28964 5.81006C6.47538 6.85973 5.12765 8.68695 4.7648 10.9159C4.12981 14.8684 6.81232 18.5876 10.7518 19.2226C12.9549 19.5854 15.0801 18.8986 16.6482 17.5509C15.2616 18.3543 13.5769 18.7042 11.8663 18.4321Z" fill="#A98698" fill-opacity="0.6"/>
<path d="M13.0719 4.92866C11.2447 4.6306 9.4693 5.04529 8.01789 5.96538C7.99198 5.99129 7.96606 6.01721 7.96606 6.01721C8.52329 5.68028 9.33971 5.38222 9.33971 5.38222C7.24036 6.60037 6.59241 7.98698 6.59241 7.98698C7.40882 6.40598 9.80623 5.29151 11.6853 5.21376C13.5643 5.136 14.7954 5.69324 16.2987 6.89842C17.8019 8.11656 18.709 10.6047 18.6183 12.5744C18.5406 14.5442 17.5039 16.1382 17.5039 16.1382C18.2166 15.2181 18.6442 14.5442 18.9164 13.8574C18.9682 13.65 19.0201 13.4427 19.046 13.2224C19.6939 9.28287 17.0244 5.56365 13.0719 4.92866Z" fill="url(#paint3_linear_325_3004_osmo)"/>
<path d="M18.7999 12.0042C18.7999 15.8012 15.7157 18.8854 11.9187 18.8854C8.12173 18.8854 5.02454 15.8012 5.02454 12.0042H18.7999Z" fill="url(#paint4_linear_325_3004_osmo)"/>
<path d="M18.2556 12.0042C18.2556 15.7105 15.3268 18.7429 11.6465 18.8854H11.9186C15.7156 18.8854 18.7998 15.8012 18.7998 12.0042H18.2556Z" fill="url(#paint5_linear_325_3004_osmo)"/>
<path d="M5.99646 12.0042H5.02454C5.02454 15.8012 8.10877 18.8854 11.9057 18.8854C12.0742 18.8854 12.2297 18.8854 12.3852 18.8725C8.82151 18.6133 5.99646 15.6327 5.99646 12.0042Z" fill="url(#paint6_linear_325_3004_osmo)"/>
<path d="M18.787 12.0691C18.787 11.2786 17.4133 10.825 15.5861 10.6695C14.2643 10.5658 12.9295 10.6954 11.4003 11.1619C10.0785 11.5507 8.88631 11.4859 8.01806 11.3822C6.08717 11.1619 5.02454 11.136 5.02454 12.0691C5.02454 13.4168 7.77184 15.1014 11.8928 14.5183C13.9792 14.2202 15.0548 13.6112 16.2859 13.1965C17.6207 12.7559 18.787 12.7688 18.787 12.0691Z" fill="url(#paint7_linear_325_3004_osmo)"/>
<path d="M14.1728 8.80344C14.817 8.80344 15.3391 8.28132 15.3391 7.63713C15.3391 6.99294 14.817 6.47083 14.1728 6.47083C13.5286 6.47083 13.0065 6.99294 13.0065 7.63713C13.0065 8.28132 13.5286 8.80344 14.1728 8.80344Z" fill="white"/>
<path d="M16.078 9.67153C16.35 9.67153 16.5705 9.4511 16.5705 9.17909C16.5705 8.90708 16.35 8.68665 16.078 8.68665C15.806 8.68665 15.5856 8.90708 15.5856 9.17909C15.5856 9.4511 15.806 9.67153 16.078 9.67153Z" fill="white"/>
<path d="M17.8412 6.70415H17.8153C17.7375 6.69119 17.6857 6.61344 17.6986 6.52273C17.8153 5.92661 18.3077 5.35642 18.3336 5.3305C18.3855 5.26571 18.4891 5.26571 18.541 5.31754C18.6058 5.36938 18.6058 5.47305 18.5539 5.52489C18.541 5.53785 18.0874 6.06916 17.9837 6.58752C17.9708 6.66528 17.906 6.70415 17.8412 6.70415Z" fill="url(#paint8_linear_325_3004_osmo)"/>
<path d="M16.2721 2.2203C16.9978 2.2203 17.892 2.57019 18.7214 3.17927C19.7711 3.94384 20.3542 4.61771 20.5356 5.31749C20.6393 5.71922 20.5486 6.17279 20.2894 6.50972C20.0173 6.85961 19.6156 7.054 19.1361 7.054C18.9676 7.054 18.7862 7.02808 18.5918 6.97624C18.4752 7.2743 18.3845 7.57235 18.3197 7.85745C19.1102 9.06263 19.5767 10.514 19.5767 12.0691C19.5767 16.3067 16.1426 19.7408 11.905 19.7408C7.66739 19.7408 4.24622 16.3067 4.24622 12.0691C4.24622 7.83153 7.68035 4.39741 11.9179 4.39741C12.851 4.39741 13.7451 4.56587 14.5745 4.87689C14.73 4.79914 14.9244 4.69546 15.1447 4.56587C15.067 4.44924 14.9892 4.33261 14.9503 4.21598C14.8078 3.86609 14.8596 3.32181 15.0799 2.90713C15.2613 2.57019 15.5335 2.33693 15.8704 2.25918C15.987 2.23326 16.1296 2.2203 16.2721 2.2203ZM16.2721 2C16.1166 2 15.9611 2.01296 15.8186 2.05184C15.4298 2.14255 15.0929 2.40173 14.8726 2.81641C14.6264 3.2959 14.5616 3.91793 14.73 4.31965C14.7559 4.37149 14.7819 4.43629 14.8207 4.50108C14.73 4.55292 14.6393 4.60475 14.5486 4.64363C13.6933 4.34557 12.8121 4.19006 11.905 4.19006C10.8423 4.19006 9.80562 4.39741 8.83369 4.8121C7.88769 5.21382 7.04536 5.78402 6.31965 6.50972C5.59395 7.23542 5.02376 8.07775 4.62203 9.02376C4.20734 9.99568 4 11.0324 4 12.095C4 13.1577 4.20734 14.1944 4.62203 15.1663C5.02376 16.1123 5.59395 16.9546 6.31965 17.6803C7.04536 18.406 7.88769 18.9762 8.83369 19.378C9.80562 19.7927 10.8423 20 11.905 20C12.9676 20 14.0043 19.7927 14.9762 19.378C15.9222 18.9762 16.7646 18.406 17.4903 17.6803C18.216 16.9546 18.7862 16.1123 19.1879 15.1663C19.6026 14.1944 19.8099 13.1577 19.8099 12.095C19.8099 10.5788 19.3823 9.11447 18.5659 7.84449C18.6048 7.65011 18.6695 7.45572 18.7343 7.26134C18.8639 7.28726 19.0065 7.30022 19.1361 7.30022C19.6803 7.30022 20.1598 7.07991 20.4708 6.66523C20.7689 6.27646 20.8855 5.73218 20.7559 5.27862C20.5486 4.527 19.9525 3.81425 18.851 3.02376C17.9827 2.36285 17.0367 2 16.2721 2Z" fill="white"/>
<path d="M11.4387 17.4729C11.639 17.4729 11.8015 17.3104 11.8015 17.11C11.8015 16.9097 11.639 16.7472 11.4387 16.7472C11.2383 16.7472 11.0758 16.9097 11.0758 17.11C11.0758 17.3104 11.2383 17.4729 11.4387 17.4729Z" fill="white" fill-opacity="0.2"/>
<path d="M11.2313 17.3435C11.0887 17.201 11.0887 16.9677 11.2313 16.8252C11.2572 16.7993 11.2831 16.7863 11.309 16.7604C11.2572 16.7733 11.2183 16.7993 11.1794 16.8381C11.0369 16.9807 11.0369 17.2139 11.1794 17.3565C11.2961 17.4731 11.4775 17.499 11.62 17.4213C11.4904 17.4731 11.3349 17.4472 11.2313 17.3435Z" fill="url(#paint9_linear_325_3004_osmo)"/>
<path d="M11.5681 17.0065C11.611 17.0065 11.6459 16.9717 11.6459 16.9288C11.6459 16.8859 11.611 16.851 11.5681 16.851C11.5252 16.851 11.4904 16.8859 11.4904 16.9288C11.4904 16.9717 11.5252 17.0065 11.5681 17.0065Z" fill="white" fill-opacity="0.3"/>
<path d="M13.3309 17.2914C13.5312 17.2914 13.6937 17.1289 13.6937 16.9286C13.6937 16.7282 13.5312 16.5657 13.3309 16.5657C13.1305 16.5657 12.968 16.7282 12.968 16.9286C12.968 17.1289 13.1305 17.2914 13.3309 17.2914Z" fill="white" fill-opacity="0.2"/>
<path d="M13.1235 17.1621C12.9809 17.0195 12.9809 16.7863 13.1235 16.6437C13.1494 16.6178 13.1753 16.6048 13.2012 16.5789C13.1494 16.5919 13.1105 16.6178 13.0716 16.6567C12.9291 16.7992 12.9291 17.0325 13.0716 17.175C13.1883 17.2917 13.3697 17.3176 13.5122 17.2398C13.3826 17.2917 13.2271 17.2657 13.1235 17.1621Z" fill="url(#paint10_linear_325_3004_osmo)"/>
<path d="M13.4602 16.8251C13.5031 16.8251 13.538 16.7903 13.538 16.7474C13.538 16.7045 13.5031 16.6696 13.4602 16.6696C13.4173 16.6696 13.3824 16.7045 13.3824 16.7474C13.3824 16.7903 13.4173 16.8251 13.4602 16.8251Z" fill="white" fill-opacity="0.3"/>
<path d="M12.3981 18.1342C12.5484 18.1342 12.6703 18.0124 12.6703 17.862C12.6703 17.7117 12.5484 17.5899 12.3981 17.5899C12.2478 17.5899 12.126 17.7117 12.126 17.862C12.126 18.0124 12.2478 18.1342 12.3981 18.1342Z" fill="white" fill-opacity="0.2"/>
<path d="M12.2426 18.0301C12.1389 17.9265 12.1389 17.745 12.2426 17.6414C12.2556 17.6284 12.2815 17.6154 12.2944 17.6025C12.2556 17.6154 12.2296 17.6414 12.2037 17.6673C12.1001 17.7709 12.1001 17.9524 12.2037 18.056C12.2944 18.1468 12.424 18.1597 12.5407 18.0949C12.437 18.1338 12.3204 18.1079 12.2426 18.0301Z" fill="url(#paint11_linear_325_3004_osmo)"/>
<path d="M12.4887 17.771C12.5174 17.771 12.5406 17.7478 12.5406 17.7191C12.5406 17.6905 12.5174 17.6673 12.4887 17.6673C12.4601 17.6673 12.4369 17.6905 12.4369 17.7191C12.4369 17.7478 12.4601 17.771 12.4887 17.771Z" fill="white" fill-opacity="0.3"/>
<path d="M14.0691 17.9395C14.2195 17.9395 14.3413 17.8177 14.3413 17.6674C14.3413 17.5171 14.2195 17.3953 14.0691 17.3953C13.9188 17.3953 13.797 17.5171 13.797 17.6674C13.797 17.8177 13.9188 17.9395 14.0691 17.9395Z" fill="white" fill-opacity="0.2"/>
<path d="M13.9136 17.8361C13.81 17.7324 13.81 17.551 13.9136 17.4473C13.9266 17.4344 13.9525 17.4214 13.9655 17.4084C13.9266 17.4214 13.9007 17.4473 13.8748 17.4732C13.7711 17.5769 13.7711 17.7583 13.8748 17.862C13.9655 17.9527 14.0951 17.9657 14.2117 17.9009C14.108 17.9398 13.9914 17.9138 13.9136 17.8361Z" fill="url(#paint12_linear_325_3004_osmo)"/>
<path d="M14.1599 17.5764C14.1885 17.5764 14.2117 17.5533 14.2117 17.5246C14.2117 17.496 14.1885 17.4728 14.1599 17.4728C14.1312 17.4728 14.108 17.496 14.108 17.5246C14.108 17.5533 14.1312 17.5764 14.1599 17.5764Z" fill="white" fill-opacity="0.3"/>
<path d="M9.89653 17.3434C10.2258 17.3434 10.4926 17.0766 10.4926 16.7473C10.4926 16.4181 10.2258 16.1512 9.89653 16.1512C9.56737 16.1512 9.30042 16.4181 9.30042 16.7473C9.30042 17.0766 9.56737 17.3434 9.89653 17.3434Z" fill="white" fill-opacity="0.2"/>
<path d="M9.55971 17.1233C9.32645 16.89 9.32645 16.5142 9.55971 16.281C9.59858 16.2421 9.63746 16.2162 9.6893 16.1902C9.61154 16.2162 9.54675 16.268 9.48195 16.3198C9.24869 16.5531 9.24869 16.9289 9.48195 17.1622C9.67634 17.3566 9.97439 17.3954 10.2077 17.2529C9.98735 17.3436 9.72817 17.3047 9.55971 17.1233Z" fill="url(#paint13_linear_325_3004_osmo)"/>
<path d="M10.1038 16.5659C10.1754 16.5659 10.2334 16.5079 10.2334 16.4364C10.2334 16.3648 10.1754 16.3068 10.1038 16.3068C10.0323 16.3068 9.97424 16.3648 9.97424 16.4364C9.97424 16.5079 10.0323 16.5659 10.1038 16.5659Z" fill="white" fill-opacity="0.3"/>
<path d="M15.2232 15.879C15.5525 15.879 15.8193 15.6122 15.8193 15.2829C15.8193 14.9537 15.5525 14.6868 15.2232 14.6868C14.894 14.6868 14.6271 14.9537 14.6271 15.2829C14.6271 15.6122 14.894 15.879 15.2232 15.879Z" fill="white" fill-opacity="0.2"/>
<path d="M14.8732 15.6588C14.6399 15.4256 14.6399 15.0497 14.8732 14.8165C14.9121 14.7776 14.9509 14.7517 15.0028 14.7258C14.925 14.7517 14.8602 14.8035 14.7954 14.8554C14.5622 15.0886 14.5622 15.4644 14.7954 15.6977C14.9898 15.8921 15.2879 15.931 15.5211 15.7884C15.3008 15.8791 15.0546 15.8402 14.8732 15.6588Z" fill="url(#paint14_linear_325_3004_osmo)"/>
<path d="M15.4307 15.1015C15.5023 15.1015 15.5603 15.0435 15.5603 14.9719C15.5603 14.9004 15.5023 14.8423 15.4307 14.8423C15.3592 14.8423 15.3011 14.9004 15.3011 14.9719C15.3011 15.0435 15.3592 15.1015 15.4307 15.1015Z" fill="white" fill-opacity="0.3"/>
<defs>
<radialGradient id="paint0_radial_325_3004_osmo" cx="0" cy="0" r="1" gradientUnits="userSpaceOnUse" gradientTransform="translate(19.9367 4.6048) scale(5.79193)">
<stop stop-color="#FFEAFF" stop-opacity="0.6"/>
<stop offset="0.68" stop-color="#A087C9"/>
<stop offset="1" stop-color="#10002F"/>
</radialGradient>
<radialGradient id="paint1_radial_325_3004_osmo" cx="0" cy="0" r="1" gradientUnits="userSpaceOnUse" gradientTransform="translate(16.7142 7.07481) scale(14.1708)">
<stop stop-color="#FFEAFF" stop-opacity="0.6"/>
<stop offset="0.68" stop-color="#A087C9"/>
<stop offset="1" stop-color="#10002F"/>
</radialGradient>
<linearGradient id="paint2_linear_325_3004_osmo" x1="10.756" y1="19.2103" x2="13.073" y2="4.91566" gradientUnits="userSpaceOnUse">
<stop stop-color="#81FFFF" stop-opacity="0.6"/>
<stop offset="0.62" stop-color="white" stop-opacity="0"/>
<stop offset="1" stop-color="white" stop-opacity="0"/>
</linearGradient>
<linearGradient id="paint3_linear_325_3004_osmo" x1="17.0237" y1="7.14939" x2="11.0336" y2="12.6455" gradientUnits="userSpaceOnUse">
<stop stop-color="white" stop-opacity="0.6"/>
<stop offset="0.29" stop-color="white" stop-opacity="0.6"/>
<stop offset="0.78" stop-color="white" stop-opacity="0"/>
<stop offset="1" stop-color="white" stop-opacity="0"/>
</linearGradient>
<linearGradient id="paint4_linear_325_3004_osmo" x1="5.03037" y1="15.4408" x2="18.7965" y2="15.4408" gradientUnits="userSpaceOnUse">
<stop stop-color="#0002E9"/>
<stop offset="1" stop-color="#FF00C7"/>
</linearGradient>
<linearGradient id="paint5_linear_325_3004_osmo" x1="19.4482" y1="12.608" x2="11.9553" y2="19.6893" gradientUnits="userSpaceOnUse">
<stop stop-color="white" stop-opacity="0.6"/>
<stop offset="0.29" stop-color="white" stop-opacity="0.6"/>
<stop offset="0.78" stop-color="white" stop-opacity="0"/>
<stop offset="1" stop-color="white" stop-opacity="0"/>
</linearGradient>
<linearGradient id="paint6_linear_325_3004_osmo" x1="5.03037" y1="15.4408" x2="12.3952" y2="15.4408" gradientUnits="userSpaceOnUse">
<stop stop-color="#000292" stop-opacity="0.7"/>
<stop offset="1" stop-color="#7D00C7" stop-opacity="0.7"/>
</linearGradient>
<linearGradient id="paint7_linear_325_3004_osmo" x1="5.03961" y1="12.6407" x2="18.7874" y2="12.6407" gradientUnits="userSpaceOnUse">
<stop stop-color="#000292"/>
<stop offset="1" stop-color="#BE00C7"/>
</linearGradient>
<linearGradient id="paint8_linear_325_3004_osmo" x1="18.562" y1="5.26739" x2="17.574" y2="6.87301" gradientUnits="userSpaceOnUse">
<stop stop-color="white" stop-opacity="0.6"/>
<stop offset="0.29" stop-color="white" stop-opacity="0.6"/>
<stop offset="0.78" stop-color="white" stop-opacity="0"/>
<stop offset="1" stop-color="white" stop-opacity="0"/>
</linearGradient>
<linearGradient id="paint9_linear_325_3004_osmo" x1="11.0721" y1="17.1214" x2="11.6204" y2="17.1214" gradientUnits="userSpaceOnUse">
<stop stop-color="white" stop-opacity="0.6"/>
<stop offset="0.29" stop-color="white" stop-opacity="0.6"/>
<stop offset="0.78" stop-color="white" stop-opacity="0"/>
<stop offset="1" stop-color="white" stop-opacity="0"/>
</linearGradient>
<linearGradient id="paint10_linear_325_3004_osmo" x1="12.963" y1="16.9375" x2="13.5113" y2="16.9375" gradientUnits="userSpaceOnUse">
<stop stop-color="white" stop-opacity="0.6"/>
<stop offset="0.29" stop-color="white" stop-opacity="0.6"/>
<stop offset="0.78" stop-color="white" stop-opacity="0"/>
<stop offset="1" stop-color="white" stop-opacity="0"/>
</linearGradient>
<linearGradient id="paint11_linear_325_3004_osmo" x1="12.1243" y1="17.8648" x2="12.5359" y2="17.8648" gradientUnits="userSpaceOnUse">
<stop stop-color="white" stop-opacity="0.6"/>
<stop offset="0.29" stop-color="white" stop-opacity="0.6"/>
<stop offset="0.78" stop-color="white" stop-opacity="0"/>
<stop offset="1" stop-color="white" stop-opacity="0"/>
</linearGradient>
<linearGradient id="paint12_linear_325_3004_osmo" x1="13.7897" y1="17.6702" x2="14.2013" y2="17.6702" gradientUnits="userSpaceOnUse">
<stop stop-color="white" stop-opacity="0.6"/>
<stop offset="0.29" stop-color="white" stop-opacity="0.6"/>
<stop offset="0.78" stop-color="white" stop-opacity="0"/>
<stop offset="1" stop-color="white" stop-opacity="0"/>
</linearGradient>
<linearGradient id="paint13_linear_325_3004_osmo" x1="9.30106" y1="16.7626" x2="10.1964" y2="16.7626" gradientUnits="userSpaceOnUse">
<stop stop-color="white" stop-opacity="0.6"/>
<stop offset="0.29" stop-color="white" stop-opacity="0.6"/>
<stop offset="0.78" stop-color="white" stop-opacity="0"/>
<stop offset="1" stop-color="white" stop-opacity="0"/>
</linearGradient>
<linearGradient id="paint14_linear_325_3004_osmo" x1="14.6195" y1="15.2978" x2="15.5149" y2="15.2978" gradientUnits="userSpaceOnUse">
<stop stop-color="white" stop-opacity="0.6"/>
<stop offset="0.29" stop-color="white" stop-opacity="0.6"/>
<stop offset="0.78" stop-color="white" stop-opacity="0"/>
<stop offset="1" stop-color="white" stop-opacity="0"/>
</linearGradient>
</defs>
</svg>
