<svg width="24" height="24" viewBox="0 0 24 24" fill="none" xmlns="http://www.w3.org/2000/svg">
<circle cx="12" cy="12" r="12" fill="#5F45BA"/>
<path d="M3.31271 6.18886C3.6159 6.36885 4.00868 6.26886 4.18868 5.96567C4.36947 5.66248 4.26948 5.27049 3.96549 5.0897C3.6623 4.90971 3.26951 5.0089 3.08952 5.31289C2.90952 5.61688 3.00952 6.00887 3.31271 6.18886Z" fill="white"/>
<path d="M6.03741 6.68322C6.467 6.93841 7.02219 6.79681 7.27738 6.36723C7.53257 5.93764 7.39098 5.38245 6.96139 5.12726C6.5318 4.87207 5.97661 5.01367 5.72142 5.44325C5.46622 5.87284 5.60782 6.42802 6.03741 6.68322Z" fill="white"/>
<path d="M12.7868 19.0611C16.1019 18.6715 18.7682 15.9613 18.9858 12.5118C19.2306 8.63034 16.2819 5.28567 12.4004 5.04168C11.9452 5.01289 11.4884 5.02889 11.0364 5.08808C10.1037 5.16408 9.31569 5.52007 9.31569 5.52007C8.67731 5.83205 8.26533 6.35363 8.26533 7.0512C8.26533 7.95837 9.0005 8.69434 9.90768 8.69434C10.0597 8.69434 10.5845 8.52795 10.7093 8.48475C11.186 8.31835 11.6916 8.24956 12.1956 8.28236C13.5364 8.36715 14.6699 9.13832 15.2771 10.2319C15.6291 10.8655 15.7915 11.5862 15.7451 12.3094C15.6131 14.4013 13.8108 15.9909 11.718 15.8589C10.4821 15.7805 9.42209 15.1189 8.78771 14.1597C8.06811 13.2185 8.18905 11.7421 8.20262 11.5765C8.20335 11.5676 8.20373 11.5614 8.20373 11.5614C8.17253 10.6791 7.45015 9.97349 6.56058 9.97349C5.8006 9.97349 5.16302 10.4895 4.97342 11.1894C4.93662 11.327 4.91742 11.7302 4.92302 11.7838C4.76623 15.5981 7.68534 18.8563 11.514 19.0971C11.9388 19.1235 12.3644 19.1115 12.7868 19.0611Z" fill="white"/>
<path d="M4.72703 9.28878C5.2838 9.61997 6.00377 9.43677 6.33496 8.87919C6.66535 8.3224 6.48215 7.60242 5.92538 7.27123C5.3686 6.94004 4.64863 7.12403 4.31744 7.68082C3.98626 8.23761 4.17025 8.95759 4.72703 9.28878Z" fill="white"/>
</svg>
