<svg width="24" height="24" viewBox="0 0 24 24" fill="none" xmlns="http://www.w3.org/2000/svg">
<circle cx="12" cy="12" r="12" fill="black"/>
<path fill-rule="evenodd" clip-rule="evenodd" d="M10.8814 3.08812C11.2122 3.01022 11.5521 2.98977 11.891 3.00438C12.2194 2.99756 12.5208 3.1407 12.826 3.24196C13.0803 3.33495 13.3032 3.49561 13.5569 3.59006C13.5694 3.60807 13.594 3.64507 13.606 3.66357C13.866 3.80281 14.0966 3.99122 14.3499 4.14263C14.5333 4.20982 14.6999 4.31352 14.8781 4.39433C15.8425 4.81108 16.8858 4.97807 17.9113 5.1655C18.4674 5.27115 19.0596 5.2916 19.5604 5.5876C20.0091 5.80474 20.2913 6.25361 20.4699 6.70638C20.6697 7.44931 20.6047 8.23266 20.4675 8.97997C20.4082 9.15621 20.3447 9.33293 20.3269 9.51989C20.3009 9.52427 20.2758 9.52865 20.2508 9.53303C20.2325 9.62699 20.2961 9.7823 20.1622 9.80177C19.1805 8.19468 17.7313 6.90356 16.0885 6.01895C16.0322 5.96394 15.9614 5.92791 15.8819 5.92937C15.5098 5.79062 15.1376 5.64018 14.7428 5.58322C14.646 5.5618 14.5507 5.53308 14.4563 5.50484C13.7784 5.10367 13.0167 4.88362 12.2637 4.67768C11.1813 4.41673 10.072 4.26678 8.95983 4.24146C8.70369 4.2327 8.44707 4.25607 8.19141 4.22978C8.20104 4.22394 8.22078 4.21177 8.23041 4.20592C8.47259 4.2069 8.71573 4.19132 8.95694 4.22588C9.4986 3.70203 10.1573 3.29406 10.8814 3.08812Z" fill="#ECE638"/>
<path fill-rule="evenodd" clip-rule="evenodd" d="M6.93113 4.4515C7.33701 4.31372 7.76648 4.26649 8.19114 4.22998C8.4468 4.25627 8.70343 4.2329 8.95957 4.24166C8.43765 4.70612 7.99518 5.25188 7.54356 5.784C7.1839 6.24164 6.87335 6.73579 6.55799 7.22508C6.34759 7.53179 6.20026 7.87502 6.02645 8.20267C5.63068 9.01474 5.32398 9.87257 5.13091 10.7572C5.09239 11.004 5.04184 11.2489 4.99706 11.4947C4.89258 12.3467 4.87381 13.2201 5.05917 14.0629C5.15691 14.6403 5.38368 15.1875 5.66005 15.6997C5.75971 15.8895 5.8849 16.0633 6.01923 16.2289C6.29318 16.8666 6.64706 17.4679 7.07942 18.0083C6.42029 17.9572 5.78667 17.7396 5.17376 17.5C4.78907 17.3199 4.39859 17.1276 4.08708 16.8306C3.36584 16.2819 2.99559 15.3628 3.0004 14.464C2.99463 14.0054 3.05096 13.5458 3.16988 13.1028C3.3798 12.135 3.89835 11.2737 4.15112 10.319C4.43085 9.39935 4.57578 8.4461 4.77125 7.50599C4.88825 6.8872 5.05628 6.27037 5.35431 5.71341C5.68845 5.1029 6.27103 4.64624 6.93113 4.4515Z" fill="#BAD047"/>
<path fill-rule="evenodd" clip-rule="evenodd" d="M8.9597 4.2417C10.0719 4.26702 11.1812 4.41697 12.2636 4.67792C13.0166 4.88385 13.7783 5.10391 14.4562 5.50507C12.1153 5.13994 9.6275 5.87167 7.86532 7.47584C6.964 8.2845 6.26876 9.32441 5.86577 10.4734C5.20904 12.3239 5.28367 14.4139 6.01936 16.2289C5.88503 16.0634 5.75985 15.8896 5.66018 15.6997C5.38382 15.1875 5.15704 14.6403 5.05931 14.0629C4.87394 13.2202 4.89272 12.3468 4.9972 11.4948C5.04197 11.2489 5.09253 11.004 5.13105 10.7572C5.32411 9.8726 5.63081 9.01477 6.02658 8.20271C6.20039 7.87506 6.34772 7.53183 6.55812 7.22511C6.87349 6.73583 7.18404 6.24168 7.5437 5.78404C7.99532 5.25191 8.43779 4.70615 8.9597 4.2417Z" fill="#79B553"/>
<path fill-rule="evenodd" clip-rule="evenodd" d="M15.8818 5.92924C15.9613 5.92778 16.0321 5.96381 16.0884 6.01882C16.0051 6.06459 15.9074 6.01931 15.8818 5.92924Z" fill="#79B553"/>
<path fill-rule="evenodd" clip-rule="evenodd" d="M14.4563 5.50482C12.1153 5.13969 9.62759 5.87142 7.8654 7.47559C6.96409 8.28425 6.26885 9.32416 5.86585 10.4731C5.20913 12.3236 5.28376 14.4137 6.01944 16.2287C6.2934 16.8664 6.64728 17.4677 7.07964 18.0081C7.10612 18.0368 7.13501 18.068 7.17064 18.085C7.40744 18.0659 7.64148 18.0963 7.87558 18.1267C7.9937 18.142 8.11184 18.1573 8.23036 18.1663C8.37205 18.1827 8.51458 18.1852 8.65711 18.1876C8.81923 18.1904 8.98136 18.1931 9.14226 18.2165C10.176 18.2788 11.2193 18.1916 12.2251 17.937C12.9257 17.7408 13.6069 17.4638 14.2377 17.0967C14.516 16.8747 14.8121 16.6731 15.1226 16.5013C15.2335 16.3826 15.3537 16.2739 15.4739 16.1652C15.6226 16.0308 15.7712 15.8964 15.9021 15.7433C17.2098 14.3514 17.8848 12.3806 17.7177 10.4697C17.6503 9.478 17.3913 8.48142 16.8549 7.63966C16.4115 6.90744 15.7745 6.31251 15.0658 5.84708C15.0597 5.84347 15.0536 5.83986 15.0474 5.83625C14.9327 5.76874 14.8154 5.69966 14.7427 5.58321C14.6484 5.56232 14.5554 5.5345 14.4634 5.50695L14.4563 5.50482ZM7.51008 9.40692C8.27947 7.94296 9.77203 6.87336 11.4071 6.68202C12.3214 6.57346 13.2723 6.7643 14.061 7.24823C14.5607 7.55543 14.9892 7.9785 15.3099 8.47217C15.6224 8.9673 15.8347 9.52036 15.9893 10.0846C16.2584 11.0637 16.2984 12.1187 16.0273 13.1021C15.7726 14.0159 15.217 14.8436 14.4558 15.4034C13.5752 16.069 12.4577 16.4059 11.3604 16.3343C10.2631 16.2681 9.18752 15.8051 8.39598 15.031C7.64537 14.3236 7.14175 13.3538 6.99009 12.328C6.84469 11.33 7.04161 10.2944 7.51008 9.40692Z" fill="#075229"/>
<path fill-rule="evenodd" clip-rule="evenodd" d="M14.7422 5.58301C15.137 5.63997 15.5092 5.79041 15.8813 5.92916C15.9069 6.01922 16.0046 6.0645 16.0879 6.01874C17.7307 6.90334 19.1799 8.19447 20.1616 9.80156C20.1751 9.82347 20.2016 9.86728 20.2151 9.88968C20.0552 10.1764 19.9358 10.4831 19.8121 10.7865C19.606 11.1662 19.4385 11.5659 19.2203 11.9388C18.9864 12.3045 18.7577 12.6735 18.5169 13.0342C18.3677 13.2494 18.1919 13.4437 18.0369 13.654C17.5728 14.3307 16.9921 14.9145 16.4095 15.486C15.9955 15.8419 15.6098 16.2484 15.1221 16.5011C15.37 16.2358 15.6647 16.0201 15.9016 15.7431C17.2092 14.3512 17.8843 12.3804 17.7172 10.4695C17.6498 9.4778 17.3908 8.48122 16.8544 7.63946C16.411 6.90724 15.774 6.31231 15.0653 5.84688C14.9449 5.7758 14.8187 5.70569 14.7422 5.58301Z" fill="#2E8260"/>
<path fill-rule="evenodd" clip-rule="evenodd" d="M14.2373 17.0969C14.5156 16.8749 14.8117 16.6733 15.1222 16.5015C15.0216 16.6743 14.8117 16.7225 14.6745 16.8578C14.5527 16.9771 14.3909 17.0336 14.2373 17.0969Z" fill="#2E8260"/>
<path fill-rule="evenodd" clip-rule="evenodd" d="M19.8129 10.7864C19.9366 10.4831 20.056 10.1764 20.2159 9.88965C20.6858 10.7144 21.0406 11.6496 20.9968 12.616C20.967 13.3034 20.6945 13.9811 20.2197 14.4772C19.7951 14.947 19.2419 15.2786 18.667 15.5259C17.7965 15.9091 16.9775 16.4071 16.2274 16.9942C15.5138 17.5507 14.8576 18.1763 14.1888 18.7849C13.5013 19.3973 12.7295 20.0064 11.794 20.1369C11.1628 20.2532 10.5234 20.1067 9.92154 19.9168C9.07271 19.6188 8.25324 19.1909 7.60181 18.5556C7.45497 18.4017 7.28501 18.2669 7.1709 18.0848C7.52719 18.0561 7.87722 18.1393 8.23062 18.1661C8.53346 18.2011 8.84016 18.1724 9.14252 18.2162C10.1762 18.2786 11.2196 18.1914 12.2254 17.9368C12.9259 17.7406 13.6072 17.4636 14.2379 17.0965C14.3915 17.0332 14.5533 16.9767 14.6751 16.8574C14.8123 16.7221 15.0222 16.6739 15.1229 16.5011C15.6106 16.2484 15.9963 15.8419 16.4103 15.486C16.9929 14.9144 17.5736 14.3307 18.0377 13.654C18.1927 13.4436 18.3685 13.2494 18.5177 13.0342C18.7585 12.6735 18.9872 12.3044 19.2212 11.9388C19.4393 11.5659 19.6068 11.1662 19.8129 10.7864Z" fill="#0193D6"/>
</svg>
