<svg width="24" height="24" viewBox="0 0 24 24" fill="none" xmlns="http://www.w3.org/2000/svg">
<circle cx="12" cy="12" r="12" fill="black"/>
<path d="M19.0022 7.96844L18.1797 7.37069L20.1033 6.3999L19.0022 7.96844Z" fill="#3F4B80"/>
<path d="M14.1123 6L16.5078 7.23146L16.7955 9.21798L14.1123 6Z" fill="#313A62"/>
<path d="M16.7955 9.21798L16.4134 10.9079L14.1123 6L16.7955 9.21798Z" fill="#3F4B80"/>
<path d="M16.4135 10.9077L12.7461 6.27845L14.1169 6.00879L16.4135 10.9077Z" fill="#4B5897"/>
<path d="M16.4131 10.908L12.4355 9.35297L12.7457 6.27881L16.4131 10.908Z" fill="#5161A4"/>
<path d="M12.7459 6.27881L12.4358 9.35297L8.33691 9.92825L12.7459 6.27881Z" fill="#4B5897"/>
<path d="M16.4139 10.9081L12.0273 12.0991L12.4363 9.35303L16.4139 10.9081Z" fill="#4B5897"/>
<path d="M12.0273 12.0987L16.4139 10.9077L14.4363 11.8291L12.0273 12.0987Z" fill="#3F4B80"/>
<path d="M9.60449 12.5121L12.027 12.0986L12.0674 12.9256L9.60449 12.5121Z" fill="#3F4B80"/>
<path d="M12.0678 12.9257L12.0273 12.0988L14.4363 11.8291L12.0678 12.9257Z" fill="#313A62"/>
<path d="M8.33691 9.92831L12.4358 9.35303L12.0268 12.0991L8.33691 9.92831Z" fill="#3F4B80"/>
<path d="M8.33691 9.92822L12.0268 12.099L9.60433 12.5125L8.33691 9.92822Z" fill="#4B5897"/>
<path d="M8.33691 9.92822L9.60433 12.5125L8.38186 13.4069L8.33691 9.92822Z" fill="#313A62"/>
<path d="M6.25589 10.6245L6.74578 13.5683L5.39746 11.5414L6.25589 10.6245Z" fill="#5161A4"/>
<path d="M3.84277 11.5595L5.39783 11.5415L5.40682 12.4898L3.84277 11.5595Z" fill="#313A62"/>
<path d="M3.96862 12.2023L3.84277 11.5596L5.40682 12.4899L3.96862 12.2023Z" fill="#3F4B80"/>
<path d="M3.96899 12.2023L3.0791 12.9888L3.84315 11.5596L3.96899 12.2023Z" fill="#4B5897"/>
<path d="M3.07865 12.9888L3.01573 13.4652L2 13.2989L3.07865 12.9888Z" fill="#313A62"/>
<path d="M3.07855 12.9887L3.96844 12.2021L3.01562 13.4651L3.07855 12.9887Z" fill="#5161A4"/>
<path d="M5.39746 11.5415L6.74578 13.5685L5.40645 13.8336L5.39746 11.5415Z" fill="#3F4B80"/>
<path d="M5.79293 15.3438L4.81765 17.3617L4.67383 15.8067L5.79293 15.3438Z" fill="#3F4B80"/>
<path d="M4.67384 15.8066L4.81766 17.3617L4.25586 17.6313L4.67384 15.8066Z" fill="#1F243E"/>
<path d="M4.81788 17.3618L4.96619 18.1214L3.80664 18.3596L4.81788 17.3618Z" fill="#3F4B80"/>
<path d="M4.25608 17.6315L4.81788 17.3618L3.80664 18.3596L4.25608 17.6315Z" fill="#313A62"/>
<path d="M5.40641 13.8335L6.74574 13.5684L4.67383 15.8065L5.40641 13.8335Z" fill="#313A62"/>
<path d="M6.74574 13.5684L7.6581 14.6066L4.67383 15.8065L6.74574 13.5684Z" fill="#4B5897"/>
<path d="M6.25586 10.6249L8.33676 9.92822L6.74575 13.5687L6.25586 10.6249Z" fill="#4B5897"/>
<path d="M6.74609 13.5687L8.33711 9.92822L8.38206 13.4069L6.74609 13.5687Z" fill="#3F4B80"/>
<path d="M7.65846 14.6067L6.74609 13.5685L8.38206 13.4067L7.65846 14.6067Z" fill="#313A62"/>
<path d="M14.4355 11.8294L16.3636 11.8159L15.1322 13.6946L14.4355 11.8294Z" fill="#4B5897"/>
<path d="M14.4355 11.8291L16.4131 10.9077L16.3636 11.8156L14.4355 11.8291Z" fill="#5161A4"/>
<path d="M14.0586 13.492L14.4361 11.8291L15.1328 13.6943L14.0586 13.492Z" fill="#3F4B80"/>
<path d="M13.5957 14.3641L14.0586 13.4922L15.1328 13.6944L13.5957 14.3641Z" fill="#4B5897"/>
<path d="M12.6611 14.9888L12.9533 13.5596L14.0589 13.4922L12.6611 14.9888Z" fill="#3F4B80"/>
<path d="M12.6611 14.9888L14.0589 13.4922L13.596 14.3641L12.6611 14.9888Z" fill="#313A62"/>
<path d="M18.1797 7.37084L20.0134 6.08545L20.1033 6.40006L18.1797 7.37084Z" fill="#495692"/>
<path d="M20.0137 6.08519L21.5148 6.00879L20.1036 6.3998L20.0137 6.08519Z" fill="#5D6CAC"/>
<path d="M19.0518 9.0204L18.2158 8.43164L21.0428 8.43614L19.0518 9.0204Z" fill="#4F60A3"/>
<path d="M18.2158 8.43131L20.6473 8.1167L21.0428 8.4358L18.2158 8.43131Z" fill="#495692"/>
<path d="M20.6475 8.11688L21.7621 7.1416L21.043 8.43599L20.6475 8.11688Z" fill="#3F4B80"/>
<path d="M21.043 8.43599L21.7621 7.1416L22.0003 7.25396L21.043 8.43599Z" fill="#4F60A3"/>
<path d="M21.7617 7.14139L21.9595 6.57959L21.9999 7.25375L21.7617 7.14139Z" fill="#313A62"/>
<path d="M16.7951 9.21777L17.0648 11.5818L16.4131 10.9077L16.7951 9.21777Z" fill="#313A62"/>
<path d="M17.0656 11.5818L16.7959 9.21777L19.0521 9.02002L17.0656 11.5818Z" fill="#3F4B80"/>
<path d="M19.0516 9.02021L16.7955 9.21796L16.5078 7.23145L19.0516 9.02021Z" fill="#4B5897"/>
<path d="M19.0023 7.96875L19.3664 8.29684L18.2158 8.43167L19.0023 7.96875Z" fill="#313A62"/>
<path d="M16.5078 7.23145L19.0022 7.96853L18.2157 8.43145L16.5078 7.23145Z" fill="#3F4B80"/>
<path d="M16.5078 7.23145L18.1797 7.37077L19.0022 7.96852L16.5078 7.23145Z" fill="#313A62"/>
<path d="M18.9482 12.7593L19.0516 9.02002L19.9505 9.7526L18.9482 12.7593Z" fill="#3F4B80"/>
<path d="M18.9486 12.7593L19.0519 9.02002L17.0654 11.5818L18.9486 12.7593Z" fill="#495692"/>
<path d="M19.9506 9.75271L19.663 8.81787L19.0518 9.02012L19.9506 9.75271Z" fill="#313A62"/>
<path d="M20.0718 12.2428L18.9482 12.7597L19.9505 9.75293L20.0718 12.2428Z" fill="#313A62"/>
</svg>
