<svg width="24" height="24" viewBox="0 0 24 24" fill="none" xmlns="http://www.w3.org/2000/svg">
<circle cx="12" cy="12" r="12" fill="#0065FF"/>
<path d="M19.9797 9.79071C19.9797 10.5025 19.9797 11.2142 19.9797 11.9259C19.9797 12.4099 19.7682 12.776 19.3371 12.9915C18.2919 13.5202 17.2425 14.0449 16.1932 14.5655C16.0468 14.6387 15.9899 14.716 15.9899 14.8868C15.998 16.0541 15.9899 17.2172 15.9939 18.3845C15.9939 18.8929 15.7703 19.2549 15.3269 19.4786C14.4037 19.9463 13.4723 20.4059 12.545 20.8654C12.1749 21.0485 11.7967 21.0444 11.4307 20.8614C10.5034 20.4018 9.57605 19.9341 8.65282 19.4704C8.21357 19.2467 7.98988 18.8888 7.99395 18.3926C7.99801 17.2213 7.99395 16.0459 7.99801 14.8746C7.99801 14.7241 7.95734 14.6428 7.81906 14.5777C6.80635 14.0774 5.79771 13.565 4.78093 13.0688C4.25627 12.8126 3.99598 12.4221 4.00005 11.8283C4.01225 10.4333 4.00411 9.03422 4.00411 7.63921C4.00411 7.13489 4.23187 6.76885 4.67519 6.54515C5.60655 6.07744 6.54199 5.62192 7.46929 5.15014C7.84753 4.95898 8.1973 4.96712 8.57148 5.15827C9.62079 5.69106 10.6823 6.21165 11.7316 6.74444C11.9187 6.84205 12.0651 6.84205 12.2522 6.74444C13.3259 6.19538 14.4078 5.66666 15.4815 5.12167C15.8191 4.95085 16.1444 4.95898 16.4739 5.12573C17.4296 5.60159 18.3895 6.07337 19.3412 6.56142C19.7682 6.78105 19.9797 7.14709 19.9797 7.63514C19.9756 8.35502 19.9797 9.07083 19.9797 9.79071ZM5.22018 8.08659C5.21204 8.14353 5.20798 8.17606 5.20798 8.2086C5.20798 9.44094 5.21204 10.6733 5.20391 11.9097C5.20391 12.0764 5.28932 12.1334 5.41133 12.1944C7.07071 13.02 8.73009 13.8456 10.3895 14.6712C10.7148 14.8339 11.0402 14.9925 11.3859 15.1593C11.394 15.0901 11.4062 15.0535 11.4062 15.0129C11.4062 13.7846 11.4062 12.5604 11.4103 11.3321C11.4103 11.1857 11.329 11.1369 11.2192 11.08C9.6818 10.3154 8.1485 9.54668 6.61113 8.778C6.15155 8.55431 5.69196 8.32655 5.22018 8.08659ZM14.7941 10.0835C14.7209 10.1161 14.6762 10.1283 14.6396 10.1486C14.0255 10.4577 13.4113 10.779 12.7931 11.0759C12.6345 11.1532 12.5816 11.2427 12.5816 11.4135C12.5857 14.0774 12.5857 16.7373 12.5857 19.4013C12.5857 19.4704 12.5938 19.5436 12.602 19.629C12.6793 19.5965 12.7281 19.5762 12.7769 19.5518C13.3747 19.2508 13.9726 18.9458 14.5745 18.657C14.7453 18.5757 14.8023 18.474 14.8023 18.2828C14.7942 15.6189 14.7982 12.959 14.7982 10.295C14.7942 10.234 14.7941 10.173 14.7941 10.0835ZM9.79974 9.16031C9.83228 9.18877 9.84448 9.20504 9.86482 9.21318C10.5237 9.54261 11.1866 9.86798 11.8414 10.2015C11.9797 10.2706 12.0814 10.234 12.1993 10.173C13.5781 9.48161 14.9568 8.79427 16.3356 8.10286C16.9456 7.79782 17.5516 7.49279 18.1861 7.17556C17.4622 6.81358 16.7626 6.45975 16.055 6.11404C15.998 6.08557 15.8963 6.11404 15.8313 6.14251C15.3432 6.3784 14.8592 6.62243 14.3752 6.86646C12.8582 7.63107 11.3371 8.39162 9.79974 9.16031ZM18.7636 8.09472C18.7067 8.11913 18.662 8.13539 18.6213 8.15573C17.8038 8.56244 16.9904 8.97322 16.1729 9.37586C16.0387 9.44094 15.9899 9.51414 15.9899 9.66869C15.998 10.8726 15.9939 12.0805 15.9939 13.2844C15.9939 13.3413 16.0021 13.3982 16.0061 13.4674C16.8887 13.02 17.7509 12.5848 18.6172 12.1537C18.7474 12.0886 18.7799 12.0032 18.7799 11.8649C18.7758 10.6651 18.7758 9.46534 18.7758 8.26961C18.7758 8.21674 18.7677 8.16386 18.7636 8.09472ZM11.3818 19.6372C11.394 19.5762 11.4022 19.5518 11.4022 19.5274C11.4022 18.5228 11.4062 17.5223 11.3981 16.5177C11.3981 16.4404 11.3127 16.3387 11.2395 16.2981C10.8125 16.0663 10.3732 15.8507 9.93802 15.6311C9.70213 15.5131 9.46217 15.3952 9.21408 15.2732C9.20188 15.322 9.18968 15.3423 9.18968 15.3626C9.18968 16.3794 9.18561 17.3962 9.19374 18.413C9.19374 18.478 9.26288 18.5716 9.32796 18.6082C9.49471 18.7099 9.67366 18.7912 9.85261 18.8766C10.3529 19.1288 10.8572 19.3769 11.3818 19.6372ZM5.80178 7.17962C6.70874 7.63514 7.58317 8.07439 8.46166 8.5055C8.53487 8.5421 8.66095 8.52177 8.74229 8.48516C9.11647 8.31028 9.48251 8.11912 9.85261 7.93611C10.1576 7.78155 10.4627 7.63107 10.788 7.46432C9.87702 7.0088 8.99445 6.56549 8.10783 6.12624C8.05495 6.10184 7.96954 6.09777 7.92074 6.12218C7.2212 6.46381 6.52572 6.81358 5.80178 7.17962Z" fill="white"/>
</svg>
