<svg width="24" height="24" viewBox="0 0 24 24" fill="none" xmlns="http://www.w3.org/2000/svg">
<circle cx="12" cy="12" r="12" fill="#020202"/>
<path fill-rule="evenodd" clip-rule="evenodd" d="M11.2714 22.0001H13.1657C11.4636 19.2685 9.77517 16.5231 8.07304 13.7915C7.81223 13.3797 7.7436 12.9953 7.93577 12.5011C8.03186 12.2678 8.22404 12.0482 8.40249 11.8834C8.34758 11.8148 8.29267 11.7324 8.23776 11.6501C7.96323 11.2246 7.77105 10.7578 7.64751 10.2637C5.93166 11.101 5.5473 12.7894 6.53564 14.4641L11.2714 22.0001ZM10.5439 15.9878C11.6557 16.1113 12.6853 16.1113 13.7834 15.9878C15.1286 15.8368 16.3366 15.521 17.0778 15.0269C17.8603 14.519 18.3819 13.7091 18.3819 12.762C18.3819 11.6638 17.7093 10.8127 16.7896 10.3186C16.7072 10.7304 16.57 11.1147 16.3915 11.4579C16.2954 11.6501 16.1856 11.8285 16.0483 11.9933C16.2542 12.2129 16.4464 12.4874 16.4464 12.7482C16.4464 13.1875 15.9522 13.6679 15.5816 13.8738C15.1561 14.1072 14.5384 14.2582 14.0579 14.3131C13.4265 14.3817 12.7951 14.4092 12.1636 14.4229C11.8342 14.4229 11.4773 14.4092 11.1479 14.3817C10.5851 14.3543 9.98107 14.3131 9.432 14.1621L10.5439 15.9878Z" fill="white"/>
<path fill-rule="evenodd" clip-rule="evenodd" d="M12.2323 2C13.9344 4.78655 13.3442 6.4475 13.1108 7.49074C12.7539 9.1105 14.7992 9.64585 14.9502 7.76527C14.9914 7.32601 14.9639 6.81812 14.9365 6.33768C17.0367 9.71448 15.664 12.7618 12.2323 12.7618C9.34966 12.7618 7.72989 10.1263 8.86922 7.50446C8.74568 8.89087 9.72029 9.34386 9.55556 8.6987C9.51438 8.53397 9.43202 8.25944 9.36339 7.69664C9.10258 5.00618 12.4107 4.31984 12.2323 2Z" fill="#EA7437"/>
</svg>
