<svg width="24" height="24" viewBox="0 0 24 24" fill="none" xmlns="http://www.w3.org/2000/svg">
<circle cx="12" cy="12" r="12" fill="url(#paint0_linear)"/>
<path fill-rule="evenodd" clip-rule="evenodd" d="M16.6 9.44183L15.0045 12.416L16.6 15.3287V9.44183ZM14.384 13.5728L16.4799 17.3992C16.8031 17.9892 17.7 17.7597 17.7 17.0869V7.65104C17.7 6.97521 16.7967 6.74821 16.4772 7.34377L14.3739 11.2646L12.5097 7.86128C12.2651 7.41471 11.6253 7.41003 11.3742 7.85298L9.38858 11.3554L7.2152 7.5288C6.88556 6.94843 6 7.18236 6 7.84982V17.0985C6 17.7662 6.88615 17.9999 7.21545 17.419L9.38947 13.5842L11.3734 17.0773C11.626 17.522 12.2696 17.5142 12.5114 17.0635L14.384 13.5728ZM13.7533 12.4214L11.9329 9.09791L10.0214 12.4695L11.9274 15.8253L13.7533 12.4214ZM8.75665 12.47L7.1 9.55328V15.3922L8.75665 12.47Z" fill="#F5F5F6"/>
<defs>
<linearGradient id="paint0_linear" x1="12" y1="0" x2="12" y2="24" gradientUnits="userSpaceOnUse">
<stop stop-color="#01A5D3"/>
<stop offset="1" stop-color="#0046FE"/>
</linearGradient>
</defs>
</svg>
