<svg width="24" height="24" viewBox="0 0 24 24" fill="none" xmlns="http://www.w3.org/2000/svg">
<circle cx="12" cy="12" r="12" fill="black"/>
<path d="M15.6943 9.75114V14.2491L19.5898 12.0042V7.49805L15.6943 9.75114Z" fill="#9290B0"/>
<path d="M19.5898 16.5021L15.6943 14.249V18.7552L19.5898 21.0001V16.5021Z" fill="#A2EEE3"/>
<path d="M11.7992 7.49794V3L4 7.49794L7.89546 9.75103L11.7992 7.49794Z" fill="#46DDC8"/>
<path d="M11.7992 16.5021L7.89546 14.249L4 16.5021L7.89546 18.7552L11.7992 21.0001V16.5021Z" fill="#262261"/>
<path d="M4 7.49805V12.0042V16.5022L7.89546 14.2491V9.75114L4 7.49805Z" fill="#9290B0"/>
<path d="M15.6943 14.249L11.7988 16.5021V21.0001L15.6943 18.7552V14.249Z" fill="#46DDC8"/>
<path d="M15.6943 9.75103L19.5897 7.49794L15.6943 5.25309L11.7988 3V7.49794L15.6943 9.75103Z" fill="#262261"/>
</svg>
