<svg width="24" height="24" viewBox="0 0 24 24" fill="none" xmlns="http://www.w3.org/2000/svg">
<circle cx="12" cy="12" r="12" fill="#2E9AD0"/>
<path fill-rule="evenodd" clip-rule="evenodd" d="M17.4298 7.66321L18.4058 10.7845C18.4202 10.7834 18.4348 10.7829 18.4495 10.7829C18.7804 10.7829 19.0487 11.0586 19.0487 11.3987C19.0487 11.7388 18.7804 12.0145 18.4495 12.0145C18.4348 12.0145 18.4202 12.014 18.4058 12.0129L17.2984 15.5543L18.7192 16.9086C18.8531 16.8051 19.0196 16.7437 19.2 16.7437C19.6418 16.7437 20 17.1117 20 17.5658C20 18.0198 19.6418 18.3878 19.2 18.3878C18.7582 18.3878 18.4 18.0198 18.4 17.5658C18.4 17.4057 18.4445 17.2564 18.5215 17.1301L17.1165 15.8276L14.1278 18.0666C14.1421 18.1193 14.1498 18.1749 14.1498 18.2324C14.1498 18.5725 13.8815 18.8482 13.5505 18.8482C13.2718 18.8482 13.0375 18.6527 12.9705 18.3878H9.92986C9.86283 18.6527 9.62855 18.8482 9.34984 18.8482C9.01887 18.8482 8.75057 18.5725 8.75057 18.2324C8.75057 18.1522 8.76547 18.0757 8.79258 18.0054L6.26889 16.1051C6.16087 16.2135 6.01312 16.2803 5.85018 16.2803C5.51921 16.2803 5.25091 16.0046 5.25091 15.6645C5.25091 15.4303 5.37817 15.2266 5.56552 15.1225L4.59154 12.0145C4.26414 12.0102 4 11.7361 4 11.3987C4 11.0614 4.26391 10.7874 4.59112 10.7829L5.54914 7.71926C5.37079 7.61258 5.25091 7.41401 5.25091 7.18667C5.25091 6.84657 5.51921 6.57086 5.85018 6.57086C5.99698 6.57086 6.13145 6.6251 6.23565 6.71514L8.77804 4.80069C8.76019 4.74233 8.75057 4.68023 8.75057 4.61581C8.75057 4.27571 9.01887 4 9.34984 4C9.6104 4 9.83213 4.17088 9.91467 4.40954H12.9857C13.0682 4.17088 13.29 4 13.5505 4C13.8815 4 14.1498 4.27571 14.1498 4.61581C14.1498 4.65831 14.1456 4.6998 14.1376 4.73987L16.7119 6.6783C16.8082 6.61051 16.9247 6.57086 17.0502 6.57086C17.3812 6.57086 17.6495 6.84657 17.6495 7.18667C17.6495 7.37874 17.5639 7.55027 17.4298 7.66321ZM9.34984 5.23162C9.43232 5.23162 9.5109 5.2145 9.58241 5.18353L11.0215 7.2256C10.9645 7.30308 10.9245 7.39561 10.9082 7.4982L10.9059 7.51435L8.38776 7.84099C8.34959 7.76048 8.29483 7.68979 8.22806 7.63363L9.26866 5.22602C9.2952 5.22971 9.32231 5.23162 9.34984 5.23162ZM8.44412 8.18083C8.42587 8.34547 8.34445 8.4904 8.22537 8.58939L9.21815 10.7978C9.26052 10.788 9.3046 10.7829 9.34984 10.7829C9.40574 10.7829 9.45985 10.7907 9.51118 10.8055L11.0779 8.0343C11.0194 7.97465 10.9733 7.90303 10.9427 7.82411L8.44412 8.18083ZM7.84872 8.72619C7.79941 8.72619 7.75149 8.72007 7.70564 8.70853L6.60331 10.9439C6.68754 11.0229 6.74973 11.1263 6.77932 11.2432H8.76982C8.80254 11.114 8.87511 11.0012 8.97324 10.9196L7.98047 8.71127C7.93808 8.72104 7.89399 8.72619 7.84872 8.72619ZM7.24945 8.11038C7.24945 8.07238 7.2528 8.03518 7.25921 7.99908L6.31706 7.57277C6.2477 7.66123 6.155 7.72957 6.04859 7.76793L6.2935 10.7904C6.3101 10.7931 6.32647 10.7965 6.34259 10.8006L7.44619 8.56659C7.32534 8.45393 7.24945 8.29127 7.24945 8.11038ZM7.84872 7.49457C7.88702 7.49457 7.92448 7.49827 7.96078 7.50532L8.97135 5.09328C8.96109 5.08468 8.95111 5.07574 8.94143 5.06647L6.41374 6.97675C6.43685 7.04227 6.44946 7.11295 6.44946 7.18667C6.44946 7.21449 6.44766 7.24188 6.44418 7.26872L7.41061 7.69021C7.51999 7.56983 7.67581 7.49457 7.84872 7.49457ZM11.3399 8.19042L9.78576 10.9761C9.85379 11.0502 9.90414 11.1416 9.92986 11.2432H12.9705C13.0009 11.1232 13.0656 11.0175 13.1532 10.9377L11.6563 8.19145C11.5764 8.2137 11.4908 8.21922 11.4038 8.20471C11.382 8.20109 11.3607 8.1963 11.3399 8.19042ZM11.9088 8.04692L13.3957 10.8036C13.4451 10.7901 13.497 10.7829 13.5505 10.7829C13.5972 10.7829 13.6426 10.7884 13.6862 10.7987L14.7156 8.5819C14.6016 8.48339 14.5239 8.34205 14.5058 8.182L12.052 7.83642C12.0188 7.91747 11.9695 7.98878 11.9088 8.04692ZM14.7218 7.63358C14.6563 7.68869 14.6023 7.75778 14.5643 7.83642L12.0951 7.52508C12.0822 7.41145 12.0387 7.30544 11.972 7.21772L13.3605 5.20001C13.4202 5.22051 13.4841 5.23162 13.5505 5.23162C13.5942 5.23162 13.6367 5.22683 13.6777 5.21773L14.7218 7.63358ZM15.5504 7.70289C15.4406 7.57514 15.28 7.49457 15.1011 7.49457C15.0745 7.49457 15.0483 7.49635 15.0227 7.4998L13.9442 5.08011C13.9641 5.06226 13.9829 5.04308 14.0004 5.02271L16.5107 6.91824C16.4724 6.99937 16.4509 7.09044 16.4509 7.18667C16.4509 7.22378 16.4541 7.26013 16.4602 7.29543L15.5504 7.70289ZM15.5082 8.5623C15.6264 8.44982 15.7004 8.28898 15.7004 8.11038C15.7004 8.07454 15.6974 8.03942 15.6917 8.00526L16.6071 7.60135C16.675 7.67784 16.7613 7.7367 16.8589 7.77045L16.6517 10.7912L16.6404 10.7933L16.6296 10.7954L15.5082 8.5623ZM14.9694 8.71128C15.0118 8.72104 15.0559 8.72619 15.1011 8.72619C15.1504 8.72619 15.1984 8.72007 15.2443 8.70851L16.3466 10.9439C16.2624 11.0229 16.2002 11.1263 16.1706 11.2432H14.1305C14.1019 11.13 14.0426 11.0294 13.9624 10.9514L14.9694 8.71128ZM11.7185 7.02338L13.1029 5.02531C13.03 4.94117 12.9792 4.83633 12.9599 4.72044H9.9405C9.92233 4.82954 9.87622 4.92884 9.81002 5.0103L11.273 7.02674C11.3718 6.98513 11.4827 6.97014 11.5958 6.989C11.6386 6.99614 11.6796 7.00778 11.7185 7.02338ZM9.93061 11.5511H12.9698C13.0019 11.6808 13.0741 11.794 13.172 11.8761L11.6316 14.702C11.5892 14.6922 11.545 14.687 11.4997 14.687C11.4534 14.687 11.4083 14.6924 11.365 14.7026L9.76784 11.84C9.84566 11.7621 9.90295 11.6627 9.93061 11.5511ZM11.905 14.8492C11.9698 14.9104 12.0214 14.986 12.0551 15.0711L14.5054 14.7212C14.5227 14.5579 14.6022 14.4137 14.719 14.3142L13.6631 12.0036C13.6267 12.0108 13.589 12.0145 13.5505 12.0145C13.5062 12.0145 13.463 12.0096 13.4214 12.0002L11.905 14.8492ZM12.0942 15.3806L14.5623 15.0584C14.5999 15.1377 14.6537 15.2075 14.7191 15.2632L13.6795 17.6309C13.6379 17.6215 13.5948 17.6166 13.5505 17.6166C13.4831 17.6166 13.4183 17.628 13.3578 17.6491L11.9764 15.676C12.0389 15.5919 12.0807 15.4908 12.0942 15.3806ZM13.9478 17.7713L15.0207 15.399C15.047 15.4026 15.0739 15.4044 15.1011 15.4044C15.2828 15.4044 15.4456 15.3214 15.5555 15.1902L16.792 15.6667L13.9728 17.7955C13.9647 17.7872 13.9564 17.7791 13.9478 17.7713ZM16.9807 15.4033L15.6909 14.8985C15.6971 14.8628 15.7004 14.8261 15.7004 14.7886C15.7004 14.6125 15.6284 14.4536 15.513 14.3414L16.6304 12.0021C16.6378 12.0037 16.6453 12.0051 16.6528 12.0063L16.9807 15.4033ZM16.3512 11.8578L15.2189 14.1847C15.1808 14.1769 15.1414 14.1728 15.1011 14.1728C15.0565 14.1728 15.013 14.1778 14.9712 14.1873L13.9426 11.8644C14.0336 11.7834 14.1007 11.6748 14.1313 11.5511H16.1698C16.1996 11.6714 16.2639 11.7775 16.3512 11.8578ZM11.4997 15.9186C11.4182 15.9186 11.3404 15.9019 11.2696 15.8716L9.81452 17.8435C9.86803 17.9109 9.90791 17.9902 9.92986 18.0769H12.9705C12.9941 17.9836 13.0385 17.8989 13.0983 17.8284L11.7217 15.875C11.653 15.9031 11.5781 15.9186 11.4997 15.9186ZM11.0171 15.668C10.9581 15.5858 10.9185 15.488 10.9053 15.3817L8.38797 15.0576C8.35028 15.1372 8.29638 15.2073 8.23067 15.2632L9.26664 17.6225C9.29383 17.6186 9.32161 17.6166 9.34984 17.6166C9.43323 17.6166 9.51264 17.6341 9.58479 17.6657L11.0171 15.668ZM7.92257 15.3998L8.94715 17.7352L6.42733 15.8309C6.44175 15.778 6.44946 15.7222 6.44946 15.6645C6.44946 15.6281 6.44638 15.5924 6.44048 15.5577L7.39435 15.1902C7.50425 15.3214 7.66704 15.4044 7.84872 15.4044C7.87373 15.4044 7.89837 15.4029 7.92257 15.3998ZM10.9443 15.071C10.9757 14.9916 11.0229 14.9204 11.0817 14.8615L9.48457 11.9989C9.44127 12.0091 9.39617 12.0145 9.34984 12.0145C9.31254 12.0145 9.27604 12.011 9.24063 12.0043L8.22196 14.3068C8.3418 14.405 8.4242 14.5494 8.4436 14.7137L10.9443 15.071ZM7.95961 14.1833L8.99004 11.8912C8.88262 11.8082 8.80323 11.689 8.76907 11.5511H6.78007C6.75023 11.6716 6.68585 11.7778 6.59841 11.8581L7.72968 14.185C7.76816 14.177 7.80796 14.1728 7.84872 14.1728C7.88661 14.1728 7.92367 14.1764 7.95961 14.1833ZM7.44987 14.329L6.31976 12.0021C6.31243 12.0036 6.30505 12.005 6.29763 12.0063L6.04493 15.082C6.14443 15.1171 6.23209 15.1783 6.30015 15.2578L7.25522 14.8744C7.25141 14.8464 7.24945 14.8177 7.24945 14.7886C7.24945 14.6059 7.32689 14.4418 7.44987 14.329ZM16.9574 11.9768L17.2242 14.803L18.1352 11.9232C18.0048 11.8404 17.9075 11.7078 17.8687 11.5511H17.3314C17.2825 11.7483 17.1411 11.9075 16.9574 11.9768ZM17.3306 11.2432H17.8694C17.9088 11.0879 18.0056 10.9564 18.1352 10.8742L17.1602 7.79213L17.1568 7.79275L16.9343 10.8124C17.1282 10.8765 17.279 11.0393 17.3306 11.2432ZM4.87427 11.946L5.76919 14.7748L6.00398 11.981C5.81475 11.914 5.66842 11.7524 5.61854 11.5511H5.18004C5.13741 11.7231 5.02435 11.8662 4.87427 11.946ZM5.76638 8.03146L6.00297 10.8167C5.81517 10.8836 5.66978 11.0437 5.61929 11.2432H5.17929C5.1361 11.0726 5.02348 10.9307 4.87427 10.8514L5.76638 8.03146Z" fill="white"/>
</svg>
