<svg width="24" height="24" viewBox="0 0 24 24" fill="none" xmlns="http://www.w3.org/2000/svg">
<g clip-path="url(#clip0_1888_5967)">
<path d="M12 24C18.6274 24 24 18.6274 24 12C24 5.37258 18.6274 0 12 0C5.37258 0 0 5.37258 0 12C0 18.6274 5.37258 24 12 24Z" fill="#00F3AB"/>
<path d="M12 19.1999C15.9765 19.1999 19.2 15.9764 19.2 11.9999C19.2 8.02348 15.9765 4.79993 12 4.79993C8.02355 4.79993 4.8 8.02348 4.8 11.9999C4.8 15.9764 8.02355 19.1999 12 19.1999Z" stroke="#23292F" stroke-width="0.333333"/>
<path fill-rule="evenodd" clip-rule="evenodd" d="M11.9074 22.2299C12.6352 21.9039 13.1606 20.7862 13.4509 18.8653C13.5094 18.4781 13.5703 18.1168 13.6619 17.6023C13.6746 17.5309 13.7432 17.1475 13.7625 17.0386C14.0141 15.621 14.1309 14.7251 14.1908 13.4904C14.267 11.919 14.2157 10.0314 14.0106 7.56375C13.6511 3.23791 12.9366 1.0374 11.9804 0.968384C10.9992 1.60991 10.3781 3.08649 10.137 5.40715C9.88929 7.79164 9.79331 9.0275 9.76779 10.5568C9.73614 12.4525 9.84677 14.4685 10.1368 16.9811C10.5281 20.3703 11.1522 22.1243 11.9074 22.2299Z" stroke="#23292F" stroke-width="0.333333"/>
<path fill-rule="evenodd" clip-rule="evenodd" d="M21.2205 16.9889C21.3001 16.2001 20.5881 15.1894 19.058 13.9792C18.7496 13.7353 18.465 13.5022 18.0621 13.1662C18.0062 13.1196 17.7062 12.869 17.6208 12.7979C16.5104 11.8727 15.7874 11.3243 14.7406 10.6554C13.4083 9.8042 11.7365 8.90449 9.48203 7.84707C5.52977 5.99337 3.25354 5.50752 2.71521 6.29543C2.78408 7.46001 3.76126 8.73241 5.6645 10.1001C7.62011 11.5054 8.64989 12.2059 9.9708 12.9925C11.6082 13.9675 13.4217 14.8804 15.7578 15.8872C18.9092 17.2454 20.7508 17.5856 21.2205 16.9889Z" stroke="#23292F" stroke-width="0.333333"/>
<path fill-rule="evenodd" clip-rule="evenodd" d="M2.68032 16.8409C3.32844 17.3038 4.56586 17.1969 6.38622 16.486C6.75319 16.3427 7.09874 16.2145 7.59318 16.036C7.6618 16.0113 8.03041 15.8786 8.13509 15.8407C9.49714 15.3483 10.3368 15.0008 11.4436 14.4349C12.852 13.7148 14.4726 12.7268 16.522 11.3167C20.1147 8.84452 21.6765 7.12986 21.2585 6.27293C20.2085 5.74987 18.6103 5.95406 16.4659 6.90703C14.2626 7.88621 13.1368 8.42161 11.7904 9.1643C10.1214 10.0849 8.41851 11.1881 6.37242 12.6938C3.61231 14.7249 2.39477 16.1387 2.68032 16.8409Z" stroke="#23292F" stroke-width="0.333333"/>
<path d="M12.3932 13.6C13.0555 13.6 13.5925 13.0627 13.5925 12.4C13.5925 11.7372 13.0555 11.2 12.3932 11.2C11.7308 11.2 11.1938 11.7372 11.1938 12.4C11.1938 13.0627 11.7308 13.6 12.3932 13.6Z" fill="#23292F"/>
<path d="M4.79736 10.4C5.23895 10.4 5.59692 10.0419 5.59692 9.60005C5.59692 9.15822 5.23895 8.80005 4.79736 8.80005C4.35578 8.80005 3.9978 9.15822 3.9978 9.60005C3.9978 10.0419 4.35578 10.4 4.79736 10.4Z" fill="#23292F"/>
<path d="M10.3943 19.2C10.8359 19.2 11.1938 18.8418 11.1938 18.4C11.1938 17.9581 10.8359 17.6 10.3943 17.6C9.95269 17.6 9.59471 17.9581 9.59471 18.4C9.59471 18.8418 9.95269 19.2 10.3943 19.2Z" fill="#23292F"/>
<path d="M16.7907 7.19998C17.2323 7.19998 17.5903 6.8418 17.5903 6.39998C17.5903 5.95815 17.2323 5.59998 16.7907 5.59998C16.3492 5.59998 15.9912 5.95815 15.9912 6.39998C15.9912 6.8418 16.3492 7.19998 16.7907 7.19998Z" fill="#23292F"/>
<path fill-rule="evenodd" clip-rule="evenodd" d="M4.02797 8.54365V4.81302C4.05157 3.60433 4.6652 3 5.86888 3H7.63898V3.80191H6.2583C5.62106 3.80191 5.29064 4.1157 5.26704 4.74329V8.54365H4.02797Z" fill="white"/>
</g>
<defs>
<clipPath id="clip0_1888_5967">
<rect width="24" height="24" fill="white"/>
</clipPath>
</defs>
</svg>
