<svg width="24" height="24" viewBox="0 0 24 24" fill="none" xmlns="http://www.w3.org/2000/svg">
<g clip-path="url(#clip0_1888_5967)">
<path d="M12 23.842C18.5402 23.842 23.8421 18.5402 23.8421 11.9999C23.8421 5.45973 18.5402 0.157837 12 0.157837C5.45979 0.157837 0.157898 5.45973 0.157898 11.9999C0.157898 18.5402 5.45979 23.842 12 23.842Z" fill="url(#paint0_linear_1888_5967)"/>
<path d="M23.3421 11.9999C23.3421 18.264 18.2641 23.342 12 23.342C5.73593 23.342 0.657898 18.264 0.657898 11.9999C0.657898 5.73587 5.73593 0.657837 12 0.657837C18.2641 0.657837 23.3421 5.73587 23.3421 11.9999Z" stroke="#00F3AB" stroke-opacity="0.2"/>
<path d="M4.57895 7.2631C5.71259 7.2631 6.63158 6.34411 6.63158 5.21047C6.63158 4.07683 5.71259 3.15784 4.57895 3.15784C3.44532 3.15784 2.52632 4.07683 2.52632 5.21047C2.52632 6.34411 3.44532 7.2631 4.57895 7.2631Z" fill="url(#paint1_linear_1888_5967)"/>
<path fill-rule="evenodd" clip-rule="evenodd" d="M4.34696 4.63729V4.10522H3.78947V6.31575H4.34696V5.58712C4.34696 5.20876 4.87208 4.78311 5.30728 4.78311H5.36842V4.17223H5.30728C4.92603 4.17223 4.5196 4.32987 4.34696 4.63729Z" fill="url(#paint2_linear_1888_5967)"/>
<path fill-rule="evenodd" clip-rule="evenodd" d="M11.8421 6.11316C15.0836 6.11316 17.7114 8.75936 17.7114 12.0236C17.7114 15.2879 15.0836 17.9341 11.8421 17.9341C8.60056 17.9341 5.97278 15.2879 5.97278 12.0236C5.97278 8.75936 8.60056 6.11316 11.8421 6.11316Z" fill="url(#paint3_linear_1888_5967)" fill-opacity="0.2"/>
<path fill-rule="evenodd" clip-rule="evenodd" d="M11.971 3.63672C11.8907 3.56157 11.8492 3.56015 11.8423 3.56015C11.8353 3.56015 11.7938 3.56157 11.7135 3.63672C11.631 3.71385 11.5325 3.84695 11.4262 4.05231C11.2142 4.46221 11.0113 5.08176 10.8364 5.8812C10.6398 6.7802 10.4843 7.87903 10.3863 9.10908C10.8598 9.34196 11.3468 9.59514 11.8421 9.867C12.3375 9.5951 12.8246 9.34188 13.2982 9.10896C13.2001 7.87896 13.0447 6.78017 12.848 5.8812C12.6732 5.08176 12.4702 4.46221 12.2582 4.05231C12.1521 3.84695 12.0535 3.71385 11.971 3.63672ZM11.4277 10.0977C11.0639 9.90128 10.7055 9.71543 10.3546 9.54084C10.328 9.93683 10.3073 10.345 10.2929 10.7633C10.4785 10.6503 10.6668 10.5377 10.8576 10.4258C11.0484 10.3139 11.2386 10.2045 11.4277 10.0977ZM10.0043 8.9242C10.2884 5.5512 11.0042 3.15784 11.8423 3.15784C12.6802 3.15784 13.396 5.55115 13.6802 8.92408C16.6979 7.48767 19.0961 6.92069 19.5152 7.6579C19.9342 8.39512 18.2517 10.2214 15.5181 12.1578C18.2517 14.0943 19.9342 15.9206 19.5152 16.6578C19.0961 17.395 16.6979 16.8281 13.6802 15.3916C13.396 18.7646 12.6802 21.1578 11.8423 21.1578C11.0042 21.1578 10.2884 18.7645 10.0043 15.3915C6.98644 16.828 4.58804 17.395 4.16901 16.6578C3.74999 15.9206 5.43257 14.0943 8.16611 12.1578C5.43257 10.2214 3.74999 8.39512 4.16901 7.6579C4.58804 6.92067 6.98644 7.4877 10.0043 8.9242ZM8.51489 11.9141C7.51514 11.2128 6.65593 10.5266 5.98776 9.90408C5.39361 9.35049 4.96684 8.8622 4.72337 8.47074C4.60139 8.27462 4.53723 8.12137 4.5127 8.0103C4.48883 7.90214 4.50835 7.86512 4.51173 7.85915C4.51515 7.85315 4.53705 7.81737 4.64133 7.78426C4.74838 7.75027 4.91121 7.73009 5.13944 7.73933C5.59498 7.75778 6.22471 7.88907 6.99376 8.13495C7.85858 8.41144 8.87312 8.82415 9.97086 9.35292C9.93265 9.88586 9.90504 10.4407 9.88915 11.0123C9.40964 11.3122 8.95027 11.614 8.51489 11.9141ZM8.51489 12.4016C7.51514 13.1029 6.65593 13.7891 5.98776 14.4116C5.39361 14.9652 4.96684 15.4535 4.72337 15.8449C4.60139 16.0411 4.53723 16.1943 4.5127 16.3054C4.48883 16.4135 4.50835 16.4506 4.51173 16.4565C4.51514 16.4625 4.53702 16.4983 4.64133 16.5315C4.74838 16.5655 4.91121 16.5856 5.13944 16.5764C5.59498 16.5579 6.22471 16.4267 6.99376 16.1808C7.85858 15.9042 8.87312 15.4916 9.97086 14.9628C9.93265 14.4298 9.90504 13.875 9.88915 13.3034C9.40964 13.0035 8.95027 12.7017 8.51489 12.4016ZM9.87866 12.8234C9.52921 12.6017 9.19151 12.3793 8.86713 12.1578C9.19151 11.9364 9.52921 11.714 9.87866 11.4923C9.87514 11.7121 9.87335 11.934 9.87335 12.1578C9.87335 12.3817 9.87514 12.6037 9.87866 12.8234ZM10.2794 13.0743C10.2726 12.7732 10.2692 12.4675 10.2692 12.1578C10.2692 11.8483 10.2726 11.5425 10.2794 11.2414C10.5327 11.0849 10.7916 10.9291 11.0555 10.7742C11.3195 10.6194 11.5819 10.4696 11.8421 10.3249C12.1023 10.4696 12.3647 10.6194 12.6287 10.7742C12.8928 10.9291 13.1518 11.085 13.4051 11.2416C13.4118 11.5426 13.4153 11.8483 13.4153 12.1578C13.4153 12.4674 13.4118 12.7731 13.4051 13.0741C13.1518 13.2307 12.8928 13.3866 12.6287 13.5415C12.3647 13.6963 12.1023 13.8461 11.8421 13.9908C11.5819 13.8461 11.3195 13.6963 11.0555 13.5415C10.7916 13.3866 10.5327 13.2308 10.2794 13.0743ZM10.2929 13.5524C10.3073 13.9707 10.328 14.3789 10.3546 14.7749C10.7055 14.6003 11.0639 14.4144 11.4277 14.2179C11.2386 14.1112 11.0484 14.0018 10.8576 13.8899C10.6668 13.778 10.4785 13.6654 10.2929 13.5524ZM11.8421 14.4487C11.3468 14.7205 10.8598 14.9737 10.3863 15.2067C10.4843 16.4367 10.6398 17.5355 10.8364 18.4345C11.0113 19.234 11.2142 19.8535 11.4262 20.2634C11.5325 20.4687 11.631 20.6019 11.7135 20.679C11.7938 20.7541 11.8353 20.7556 11.8423 20.7556C11.8492 20.7556 11.8907 20.7541 11.971 20.679C12.0535 20.6019 12.1521 20.4687 12.2582 20.2634C12.4702 19.8535 12.6732 19.234 12.848 18.4345C13.0447 17.5355 13.2001 16.4367 13.2982 15.2067C12.8246 14.9738 12.3375 14.7206 11.8421 14.4487ZM13.7136 14.9629C14.8113 15.4916 15.8257 15.9043 16.6905 16.1808C17.4595 16.4267 18.0892 16.5579 18.5448 16.5764C18.773 16.5856 18.9358 16.5655 19.0429 16.5315C19.1472 16.4983 19.1691 16.4625 19.1725 16.4565C19.1759 16.4506 19.1954 16.4136 19.1715 16.3054C19.147 16.1943 19.0828 16.0411 18.9609 15.8449C18.7174 15.4535 18.2906 14.9652 17.6965 14.4116C17.0283 13.7891 16.169 13.1029 15.1693 12.4016C14.734 12.7016 14.2747 13.0034 13.7953 13.3032C13.7794 13.8749 13.7518 14.4299 13.7136 14.9629ZM15.1693 11.9141C16.169 11.2128 17.0283 10.5266 17.6965 9.90408C18.2906 9.35049 18.7174 8.8622 18.9609 8.47074C19.0828 8.27462 19.147 8.12137 19.1715 8.0103C19.1954 7.90211 19.1759 7.86509 19.1725 7.85914C19.1691 7.85316 19.1472 7.81739 19.0429 7.78426C18.9358 7.75027 18.773 7.73009 18.5448 7.73933C18.0892 7.75778 17.4595 7.88907 16.6905 8.13495C15.8257 8.41142 14.8113 8.82409 13.7136 9.3528C13.7518 9.88583 13.7794 10.4408 13.7953 11.0125C14.2747 11.3123 14.734 11.6141 15.1693 11.9141ZM13.8058 11.4924C14.1552 11.7141 14.4927 11.9365 14.8171 12.1578C14.4927 12.3792 14.1552 12.6016 13.8058 12.8233C13.8093 12.6035 13.8111 12.3817 13.8111 12.1578C13.8111 11.934 13.8093 11.7122 13.8058 11.4924ZM13.3916 10.7634C13.3772 10.3451 13.3564 9.9368 13.3298 9.54071C12.9788 9.71535 12.6204 9.90124 12.2565 10.0977C12.4457 10.2045 12.6357 10.3139 12.8266 10.4258C13.0175 10.5378 13.2059 10.6504 13.3916 10.7634ZM13.3298 14.775C12.9788 14.6004 12.6204 14.4145 12.2565 14.2179C12.4457 14.1112 12.6357 14.0018 12.8266 13.8899C13.0175 13.7779 13.2059 13.6653 13.3916 13.5523C13.3772 13.9707 13.3564 14.3789 13.3298 14.775Z" fill="url(#paint4_linear_1888_5967)"/>
<path fill-rule="evenodd" clip-rule="evenodd" d="M6.37296 9.60571C6.74132 9.60571 7.03993 9.90642 7.03993 10.2773C7.03993 10.6483 6.74132 10.949 6.37296 10.949C6.0046 10.949 5.70599 10.6483 5.70599 10.2773C5.70599 9.90642 6.0046 9.60571 6.37296 9.60571Z" fill="url(#paint5_linear_1888_5967)"/>
<path fill-rule="evenodd" clip-rule="evenodd" d="M16.2441 7.18774C16.6125 7.18774 16.9111 7.48845 16.9111 7.85939C16.9111 8.23032 16.6125 8.53103 16.2441 8.53103C15.8757 8.53103 15.5771 8.23032 15.5771 7.85939C15.5771 7.48845 15.8757 7.18774 16.2441 7.18774Z" fill="url(#paint6_linear_1888_5967)"/>
<path fill-rule="evenodd" clip-rule="evenodd" d="M10.6416 17.1281C11.0099 17.1281 11.3085 17.4287 11.3085 17.7997C11.3085 18.1706 11.0099 18.4713 10.6416 18.4713C10.2732 18.4713 9.97459 18.1706 9.97459 17.7997C9.97459 17.4287 10.2732 17.1281 10.6416 17.1281Z" fill="url(#paint7_linear_1888_5967)"/>
<path fill-rule="evenodd" clip-rule="evenodd" d="M11.8421 10.949C12.4315 10.949 12.9092 11.4301 12.9092 12.0236C12.9092 12.6171 12.4315 13.0982 11.8421 13.0982C11.2527 13.0982 10.7749 12.6171 10.7749 12.0236C10.7749 11.4301 11.2527 10.949 11.8421 10.949Z" fill="url(#paint8_linear_1888_5967)"/>
</g>
<defs>
<linearGradient id="paint0_linear_1888_5967" x1="0.157898" y1="0.157837" x2="23.8421" y2="23.842" gradientUnits="userSpaceOnUse">
<stop stop-color="#0093ED"/>
<stop offset="1" stop-color="#00F3AB"/>
</linearGradient>
<linearGradient id="paint1_linear_1888_5967" x1="6.63158" y1="7.26306" x2="2.52994" y2="3.15422" gradientUnits="userSpaceOnUse">
<stop stop-color="#000A17"/>
<stop offset="1" stop-color="#00554F"/>
</linearGradient>
<linearGradient id="paint2_linear_1888_5967" x1="3.78947" y1="4.10522" x2="5.88051" y2="5.59882" gradientUnits="userSpaceOnUse">
<stop stop-color="#0093ED"/>
<stop offset="1" stop-color="#00F3AB"/>
</linearGradient>
<linearGradient id="paint3_linear_1888_5967" x1="17.7114" y1="17.9339" x2="5.9011" y2="6.18521" gradientUnits="userSpaceOnUse">
<stop stop-color="#000A17"/>
<stop offset="1" stop-color="#00554F"/>
</linearGradient>
<linearGradient id="paint4_linear_1888_5967" x1="19.579" y1="21.1577" x2="1.79386" y2="5.84192" gradientUnits="userSpaceOnUse">
<stop stop-color="#000A17"/>
<stop offset="1" stop-color="#00554F"/>
</linearGradient>
<linearGradient id="paint5_linear_1888_5967" x1="7.03993" y1="10.949" x2="5.69785" y2="9.6139" gradientUnits="userSpaceOnUse">
<stop stop-color="#000A17"/>
<stop offset="1" stop-color="#00554F"/>
</linearGradient>
<linearGradient id="paint6_linear_1888_5967" x1="16.9111" y1="8.53102" x2="15.569" y2="7.19593" gradientUnits="userSpaceOnUse">
<stop stop-color="#000A17"/>
<stop offset="1" stop-color="#00554F"/>
</linearGradient>
<linearGradient id="paint7_linear_1888_5967" x1="11.3085" y1="18.4713" x2="9.96645" y2="17.1362" gradientUnits="userSpaceOnUse">
<stop stop-color="#000A17"/>
<stop offset="1" stop-color="#00554F"/>
</linearGradient>
<linearGradient id="paint8_linear_1888_5967" x1="12.9092" y1="13.0982" x2="10.7619" y2="10.9621" gradientUnits="userSpaceOnUse">
<stop stop-color="#000A17"/>
<stop offset="1" stop-color="#00554F"/>
</linearGradient>
<clipPath id="clip0_1888_5967">
<rect width="24" height="24" fill="white"/>
</clipPath>
</defs>
</svg>
