<svg width="24" height="24" viewBox="0 0 24 24" fill="none" xmlns="http://www.w3.org/2000/svg">
<circle cx="12" cy="12" r="12" fill="url(#paint0_linear)"/>
<path d="M11.1325 12.2764C11.7739 12.3299 12.3619 12.1933 12.9142 11.9023C13.8406 11.4213 14.5473 10.7205 14.9512 9.75839C15.646 8.11335 14.8799 6.75931 13.1042 6.52176C11.9699 6.37329 10.8534 6.48612 9.83789 7.08C9.26777 7.41851 8.87581 7.91737 8.5373 8.46968C8.31163 8.83788 8.09189 9.21796 7.84246 9.56835C7.57522 9.94249 7.20107 10.1088 6.73191 10.0435C6.26275 9.97219 6.01926 9.70494 6.00144 9.2239C5.97768 8.61815 6.25087 8.10741 6.60126 7.65012C7.41487 6.6049 8.48979 5.92194 9.72506 5.48841C11.2394 4.95986 12.7717 4.82326 14.3336 5.26273C15.4085 5.56561 16.329 6.11198 16.8575 7.13345C17.5702 8.52313 17.3742 9.86529 16.4537 11.0827C15.3907 12.4784 13.9178 13.2445 12.249 13.6661C11.9521 13.7433 11.9283 13.8502 12.0055 14.1115C12.2372 14.9133 12.54 15.6794 13.0745 16.3386C13.3952 16.7365 13.7753 16.9384 14.3039 16.9087C15.3788 16.8493 16.2221 16.3861 16.9229 15.5843C17.0713 15.4181 17.2792 15.2696 17.487 15.1924C17.7543 15.0974 18.0275 15.3171 17.9978 15.6022C17.9681 15.8575 17.9087 16.1545 17.7543 16.3386C16.8219 17.4551 15.6757 18.233 14.191 18.429C13.2646 18.5537 12.5579 18.1558 11.9699 17.4966C11.1029 16.5227 10.6396 15.3349 10.2299 14.1234C10.2002 14.0403 10.1705 13.9571 10.0695 13.8562C9.96261 14.1293 9.86759 14.4085 9.75475 14.6816C9.36873 15.6318 9.00052 16.588 8.58481 17.5263C8.45416 17.8233 8.21661 18.0846 7.97905 18.3162C7.61085 18.6784 7.08824 18.726 6.69628 18.4943C6.36964 18.2984 6.1796 17.8351 6.34589 17.36C6.53593 16.8255 6.80318 16.3148 7.07042 15.81C7.83652 14.3847 8.60263 12.9594 9.39842 11.5519C9.9151 10.6314 10.4318 9.70494 11.1919 8.95666C11.287 8.86164 11.3998 8.77255 11.5245 8.70723C11.8927 8.51719 12.255 8.69535 12.2787 9.09919C12.2906 9.32486 12.2431 9.57429 12.16 9.78809C11.8393 10.6195 11.4889 11.4213 11.1325 12.2764Z" fill="white"/>
<defs>
<linearGradient id="paint0_linear" x1="12" y1="0" x2="12" y2="24" gradientUnits="userSpaceOnUse">
<stop stop-color="#5F11FF"/>
<stop offset="1" stop-color="#F42E7F"/>
</linearGradient>
</defs>
</svg>
