<svg width="24" height="24" viewBox="0 0 24 24" fill="none" xmlns="http://www.w3.org/2000/svg">
<circle cx="12" cy="12" r="12" fill="black"/>
<path d="M12.4103 3H12.5235C12.6187 3.11843 12.7507 3.18438 12.8824 3.25016C12.9964 3.30715 13.1103 3.36401 13.1997 3.45475C13.1972 3.4794 13.1922 3.52955 13.1905 3.5542C13.0422 3.67968 12.8708 3.76802 12.6996 3.85627C12.6377 3.88818 12.5758 3.92007 12.5151 3.9537C12.0013 4.24988 11.4901 4.55069 10.9789 4.85151C10.2329 5.29055 9.48673 5.72966 8.7324 6.15435C8.6763 6.06007 8.62007 5.96558 8.56397 5.87045C8.36243 5.99242 8.15922 6.11142 7.95601 6.23042C7.75279 6.34942 7.54958 6.46843 7.34804 6.5904C7.28603 6.49605 7.22402 6.4017 7.16285 6.3065C6.87275 6.46737 6.58773 6.63773 6.30277 6.80806C5.87408 7.06429 5.44548 7.32046 5 7.5441C5.07876 7.31087 5.28559 7.20119 5.48838 7.09366C5.55313 7.05932 5.61747 7.0252 5.67709 6.98735C6.8762 6.28137 8.07688 5.57891 9.27759 4.87644C10.0326 4.43472 10.7884 3.99256 11.543 3.54995C11.6075 3.51183 11.6726 3.47453 11.7377 3.43723C11.9702 3.30398 12.2028 3.17067 12.4103 3Z" fill="white"/>
<path d="M8.9746 6.42249C10.5248 5.51173 12.0749 4.60101 13.6321 3.70465C13.8044 3.78782 13.9665 3.88901 14.1285 3.99021C14.2298 4.05346 14.3311 4.1167 14.4349 4.17555C13.7651 4.59838 13.0792 4.99519 12.3932 5.39206C11.9498 5.6486 11.5063 5.90516 11.0671 6.1688C10.9175 6.25266 10.7704 6.34093 10.6232 6.4292C10.3886 6.56998 10.1539 6.71073 9.90979 6.8335C9.84778 6.7434 9.78577 6.65245 9.7246 6.56235C9.38077 6.76983 9.03345 6.97151 8.6861 7.17322C8.23531 7.43498 7.78389 7.69711 7.34052 7.97165L7.27283 7.85549C7.23707 7.79401 7.20138 7.73264 7.16538 7.6716C6.45644 8.0881 5.74582 8.5029 5.03521 8.91685C5.0279 8.71123 5.19139 8.62485 5.34673 8.54277C5.38724 8.52137 5.42719 8.50026 5.46342 8.4774C6.63583 7.79654 7.80532 7.10945 8.9746 6.42249Z" fill="white"/>
<path d="M12.9745 5.44788C12.6015 5.66894 12.2284 5.89001 11.8522 6.10505C10.7839 6.73436 9.71365 7.3603 8.64341 7.98622C7.49905 8.65548 6.35473 9.32472 5.21286 9.99805C5.09471 10.0542 5.03689 10.1494 5.04024 10.2845C5.22544 10.1762 5.41093 10.0683 5.59644 9.96042C6.11671 9.65788 6.6375 9.35503 7.15197 9.0418C7.21649 9.1421 7.28102 9.2424 7.34555 9.34355C7.99493 8.93925 8.65625 8.55495 9.31767 8.17059C9.84516 7.86405 10.3728 7.55743 10.8944 7.24065C10.9564 7.335 11.0176 7.42935 11.0788 7.52455C11.9497 7.0234 12.8161 6.51424 13.6826 6.00504C14.3093 5.63678 14.9361 5.26844 15.5645 4.90315C15.4652 4.73531 15.2821 4.64573 15.1001 4.55668C14.9982 4.50683 14.8967 4.45715 14.8103 4.394C14.1894 4.72788 13.582 5.08787 12.9745 5.44788Z" fill="white"/>
<path d="M15.955 5.05955C16.0491 5.11505 16.1433 5.16996 16.2375 5.22485C16.4203 5.33135 16.603 5.43782 16.7838 5.5483L16.2541 5.86221C14.9224 6.65166 13.5899 7.44155 12.2411 8.2003C12.2032 8.14435 12.1651 8.08872 12.127 8.03323L12.0592 7.93425C11.5983 8.20485 11.1367 8.47457 10.6752 8.74429C9.56521 9.39299 8.45517 10.0417 7.35308 10.7027L7.27598 10.6003L7.27532 10.5994C7.23034 10.5396 7.18546 10.4799 7.14023 10.4205C6.92566 10.5461 6.71172 10.6728 6.4978 10.7995C6.01427 11.0858 5.53047 11.3722 5.04023 11.6462C5.00674 11.5023 5.11385 11.4329 5.21107 11.3698C5.22817 11.3587 5.24496 11.3479 5.26062 11.3368C6.63817 10.5264 8.01785 9.71986 9.39747 8.91332C11.5863 7.63375 13.7752 6.35409 15.955 5.05955Z" fill="white"/>
<path d="M16.5406 6.09535C16.4685 6.13918 16.3964 6.183 16.3237 6.22575C14.6565 7.20052 12.9902 8.17705 11.3239 9.15358C9.32441 10.3254 7.32446 11.4974 5.32345 12.6662C5.29987 12.6824 5.27396 12.6979 5.24758 12.7136C5.13433 12.7811 5.01264 12.8537 5.03099 13.013C5.41974 12.8084 5.79768 12.5834 6.1757 12.3585C6.46342 12.1872 6.75123 12.016 7.04384 11.8536C7.15287 11.7702 7.21996 11.8703 7.28247 11.9635C7.30788 12.0014 7.33253 12.0382 7.35893 12.061C9.33071 10.8982 11.3067 9.7422 13.2843 8.5896C13.3329 8.6848 13.3807 8.78 13.4285 8.87605C14.8064 8.0963 16.1702 7.28948 17.5335 6.48299L17.9109 6.25975C17.7974 6.11149 17.6255 6.02274 17.4536 5.93396C17.3476 5.87921 17.2415 5.82444 17.1491 5.7557C16.9382 5.85364 16.7394 5.97448 16.5406 6.09535Z" fill="white"/>
<path d="M11.4364 10.4563C13.7273 9.11332 16.0183 7.77031 18.3123 6.4323C18.4114 6.51253 18.5275 6.57254 18.6433 6.63245C18.8086 6.7179 18.9735 6.80315 19.0883 6.94655C18.4941 7.29054 17.9022 7.63909 17.3102 7.98767C16.4104 8.51757 15.5099 9.04779 14.6017 9.562C14.5515 9.47044 14.501 9.37816 14.4508 9.28745C13.0609 10.0783 11.6822 10.8894 10.3033 11.7006C9.31722 12.2807 8.33071 12.861 7.34049 13.4338L7.17708 13.1618C6.81287 13.3404 6.46535 13.5509 6.11777 13.7615C5.75602 13.9806 5.39418 14.1998 5.0134 14.3832C5.02566 14.2153 5.16342 14.132 5.28815 14.0565L5.32262 14.0356C7.36161 12.845 9.3994 11.6504 11.4364 10.4563Z" fill="white"/>
<path d="M15.8721 9.2274C15.0673 9.70124 14.2626 10.1751 13.4545 10.6432C12.3814 11.2712 11.3089 11.9001 10.2363 12.529L10.2324 12.5313C8.56404 13.5096 6.89565 14.4879 5.22541 15.4627C5.10977 15.5214 5.03854 15.6174 5.0134 15.7509C5.42391 15.5462 5.8181 15.3108 6.21239 15.0753C6.52718 14.8873 6.84207 14.6993 7.16535 14.5269C7.22401 14.6178 7.28267 14.7096 7.34133 14.8014L7.85416 14.5019C10.0438 13.2231 12.2339 11.9441 14.4173 10.6543C14.4729 10.7236 14.5281 10.794 14.5831 10.8643L14.6343 10.9297C15.8796 10.1929 17.1288 9.46171 18.3778 8.73062C18.8792 8.4371 19.3815 8.14311 19.8827 7.84925C19.8802 7.68275 19.876 7.51624 19.8718 7.34974C19.7444 7.27494 19.6179 7.19815 19.4922 7.12165C18.2781 7.81073 17.0751 8.51907 15.8721 9.2274Z" fill="white"/>
<path d="M12.155 12.7735C14.7265 11.2643 17.2987 9.75478 19.8785 8.26065C19.8819 8.5828 19.8802 8.9058 19.8785 9.22795C18.6446 9.93977 17.4164 10.6615 16.1879 11.3833C15.6502 11.6992 15.1124 12.0152 14.574 12.3305C14.5505 12.2875 14.5272 12.2444 14.5039 12.2013C14.4723 12.143 14.4407 12.0846 14.4089 12.027C12.0517 13.4193 9.69023 14.8048 7.32124 16.1767C7.29613 16.148 7.27509 16.1141 7.25397 16.0801C7.21447 16.0165 7.17471 15.9524 7.10755 15.9209C6.93729 15.9997 6.77779 16.1026 6.61846 16.2055C6.38254 16.3578 6.14698 16.5099 5.87738 16.583L5.82794 16.504C5.95364 16.3977 6.09694 16.3161 6.23939 16.2362C8.21363 15.0865 10.1846 13.9298 12.155 12.7735Z" fill="white"/>
<path d="M15.1018 12.417C12.5404 13.9179 9.9789 15.4188 7.41677 16.9188C7.3795 16.9435 7.33878 16.9661 7.29767 16.9889C7.16685 17.0614 7.03208 17.136 6.99191 17.2919C7.27895 17.2044 7.53383 17.0479 7.78912 16.8912C7.96015 16.7863 8.13139 16.6812 8.31258 16.5966C8.34236 16.6305 8.372 16.6645 8.40167 16.6986C8.4471 16.7507 8.49273 16.8031 8.53884 16.855C9.63868 16.1915 10.7482 15.5447 11.8578 14.8978C12.707 14.4027 13.5564 13.9075 14.4014 13.4049C14.4651 13.5026 14.5296 13.6004 14.595 13.6981C15.5922 13.095 16.599 12.5078 17.6058 11.9207C18.3655 11.4776 19.1253 11.0345 19.881 10.5846L19.8806 10.3701C19.8803 10.1201 19.8799 9.86956 19.876 9.6198C18.2864 10.5509 16.697 11.4822 15.1075 12.4136L15.1018 12.417Z" fill="white"/>
<path d="M13.1306 14.9404C15.381 13.6234 17.6315 12.3065 19.8777 10.9823C19.8792 11.1314 19.8797 11.2805 19.8802 11.4296C19.8807 11.6035 19.8813 11.7774 19.8835 11.9513C19.064 12.4384 18.241 12.9195 17.418 13.4006C16.4771 13.9506 15.536 14.5008 14.6 15.0598C14.533 14.968 14.4659 14.8762 14.3989 14.7852C13.4789 15.3131 12.5642 15.8511 11.6495 16.3891C10.9914 16.7762 10.3329 17.1635 9.67264 17.5469C9.64415 17.4997 9.61588 17.4524 9.5876 17.405C9.55935 17.3576 9.53098 17.3101 9.50253 17.263C9.33278 17.3464 9.17078 17.4463 9.00884 17.5463C8.73829 17.7132 8.46788 17.88 8.16174 17.9693C8.22964 17.7843 8.39752 17.6975 8.5626 17.6122C8.62572 17.5795 8.68843 17.5471 8.74498 17.5095C10.205 16.6524 11.6662 15.7974 13.1274 14.9423L13.1306 14.9404Z" fill="white"/>
<path d="M14.7513 15.3602C12.9617 16.4079 11.172 17.4556 9.38521 18.5074C9.22934 18.6332 9.48744 18.6672 9.56454 18.5805C9.77089 18.4707 9.97132 18.3506 10.1718 18.2305C10.3328 18.1341 10.4939 18.0376 10.6581 17.9464C10.7151 18.0374 10.7729 18.13 10.8299 18.2218C11.4529 17.8808 12.0645 17.5187 12.6762 17.1567C13.2492 16.8175 13.8223 16.4782 14.4048 16.1563L14.5933 16.4215C15.141 16.1006 15.6892 15.7805 16.2374 15.4605L16.2388 15.4597C17.4556 14.7493 18.6724 14.039 19.8835 13.319C19.8799 13.0429 19.88 12.7668 19.8801 12.4908L19.8802 12.3526C18.1719 13.3576 16.4614 14.359 14.7513 15.3602Z" fill="white"/>
<path d="M11.2028 18.8083C12.346 18.1397 13.4886 17.4698 14.6313 16.7999C16.3807 15.7743 18.1303 14.7486 19.8827 13.727L19.8812 14.0529C19.8803 14.2699 19.8793 14.487 19.8776 14.7045C19.05 15.1789 18.2277 15.6625 17.4054 16.1462C16.4684 16.6973 15.5314 17.2484 14.5866 17.7858L14.3989 17.5163C14.0671 17.7069 13.7375 17.9013 13.4079 18.0956C12.9408 18.3711 12.4737 18.6465 12.0006 18.9112C11.9486 18.816 11.8958 18.7199 11.843 18.6247C11.6664 18.7055 11.5006 18.8127 11.3351 18.9198C11.0599 19.0977 10.7853 19.2753 10.462 19.3311C10.6013 19.1409 10.8062 19.029 11.009 18.9181C11.0745 18.8823 11.1399 18.8465 11.2028 18.8083Z" fill="white"/>
<path d="M12.5385 19.3956L12.5316 19.3996C12.2121 19.5802 11.8904 19.762 11.6067 20H11.8187C12.2126 19.7799 12.6014 19.5495 12.9877 19.3149C13.0357 19.375 13.0838 19.4358 13.1318 19.4966C13.1558 19.527 13.1799 19.5574 13.2039 19.5877C13.4063 19.4643 13.6112 19.3453 13.8162 19.2263C14.0135 19.1118 14.2107 18.9973 14.4056 18.8788C14.4411 18.9368 14.4769 18.9948 14.5129 19.053C14.5355 19.0895 14.5581 19.126 14.5807 19.1628C15.4301 18.6739 16.2755 18.1777 17.1208 17.6816C18.0377 17.1435 18.9547 16.6053 19.8768 16.0764C19.881 15.7508 19.881 15.4253 19.8793 15.0989C17.4293 16.5259 14.9836 17.961 12.5385 19.3956Z" fill="white"/>
</svg>
