<svg width="24" height="24" viewBox="0 0 24 24" fill="none" xmlns="http://www.w3.org/2000/svg">
<circle cx="12" cy="12" r="12" fill="#FFD800"/>
<path fill-rule="evenodd" clip-rule="evenodd" d="M17.7623 9.6645C17.805 9.62175 17.8898 9.62175 17.973 9.62175C19.2383 9.62175 20.25 10.6927 20.25 11.979C20.25 13.179 19.365 14.1217 18.2265 14.3355H17.973C17.5515 14.3355 17.13 14.2072 16.7505 13.9928C16.6273 13.906 16.4796 13.8611 16.329 13.8645C16.1602 13.8645 15.9915 13.9072 15.8655 13.9928C15.57 14.1645 15.444 14.4645 15.444 14.8073V15.1927C15.3996 15.7222 15.174 16.2201 14.8052 16.6026C14.4365 16.9852 13.9472 17.2289 13.4197 17.2927H13.167C12.7455 17.2927 12.324 17.1645 11.9445 16.95C11.7757 16.8645 11.6497 16.8218 11.481 16.8218C11.3122 16.8218 11.1435 16.8645 11.0168 16.95C10.722 17.1217 10.5953 17.4218 10.5953 17.7645V18.15C10.5113 19.2645 9.6255 20.1217 8.52975 20.25H8.319C7.05375 20.25 6.042 19.1783 6.042 17.8927C6.084 16.6927 6.927 15.7072 8.0655 15.5782H8.319C8.7405 15.5782 9.162 15.7072 9.5415 15.9218C9.66467 16.0085 9.8124 16.0534 9.963 16.05C10.1318 16.05 10.3005 16.0072 10.4265 15.9218C10.722 15.75 10.848 15.45 10.848 15.1073C10.764 13.8645 11.6498 12.75 12.8723 12.6217H13.125C13.5465 12.6217 13.968 12.75 14.3475 12.9645C14.5162 13.05 14.643 13.0928 14.8118 13.0928C14.9798 13.0928 15.1493 13.05 15.2753 12.9645C15.57 12.7927 15.6968 12.4928 15.6968 12.15C15.6128 10.9073 16.5398 9.79275 17.7623 9.6645ZM12.915 6.70725C12.999 6.6645 13.0417 6.6645 13.1677 6.6645C14.433 6.6645 15.4447 7.7355 15.4447 9.02175C15.4028 10.2218 14.5597 11.2073 13.4205 11.3355H13.1677C12.7462 11.3355 12.3247 11.2072 11.9453 10.9927C11.8221 10.906 11.6744 10.8611 11.5237 10.8645C11.355 10.8645 11.1862 10.9072 11.0602 10.9927C10.7648 11.1645 10.638 11.4645 10.638 11.8073V12.1927C10.554 13.3065 9.669 14.1637 8.5725 14.2927H8.36175C7.09725 14.2927 6.08475 13.2217 6.08475 11.9355C6.08475 10.779 6.9285 9.8355 8.06625 9.6645H8.31975C8.74125 9.6645 9.16275 9.79275 9.54225 10.0073C9.66542 10.094 9.81315 10.1389 9.96375 10.1355C10.1325 10.1355 10.3012 10.0928 10.4272 10.0073C10.7227 9.8355 10.8488 9.5355 10.8488 9.19275C10.7648 7.95 11.6925 6.8355 12.915 6.70725ZM8.277 3.75C9.534 3.75 10.5533 4.7865 10.5533 6.0645C10.5533 7.3425 9.53325 8.37825 8.277 8.37825C7.01925 8.37825 6 7.3425 6 6.0645C6 4.7865 7.02 3.75 8.277 3.75Z" fill="white"/>
</svg>
