<svg width="24" height="24" viewBox="0 0 24 24" fill="none" xmlns="http://www.w3.org/2000/svg">
<g clip-path="url(#clip0_2797_6720)">
<path d="M12 24C18.6274 24 24 18.6274 24 12C24 5.37258 18.6274 0 12 0C5.37258 0 0 5.37258 0 12C0 18.6274 5.37258 24 12 24Z" fill="#F6F30E"/>
<path d="M23.7 12C23.7 18.4617 18.4617 23.7 12 23.7C5.53827 23.7 0.3 18.4617 0.3 12C0.3 5.53827 5.53827 0.3 12 0.3C18.4617 0.3 23.7 5.53827 23.7 12Z" stroke="black" stroke-width="0.6"/>
<path fill-rule="evenodd" clip-rule="evenodd" d="M9.63774 4.46824C9.63774 4.53555 9.73479 4.6252 9.89377 4.70489C10.1434 4.83 10.1454 4.83325 9.97293 4.83691C9.6878 4.84292 8.92452 5.07752 8.39258 5.3227C7.32103 5.81648 6.27811 6.78247 6.88795 6.71625C7.08036 6.6954 7.09133 6.76553 6.91982 6.91954C6.56209 7.24068 6.236 7.91312 5.97985 8.85772C5.7749 9.61362 5.69815 11.3307 5.86936 11.3307C5.92749 11.3307 5.99726 11.2504 6.03635 11.1384C6.12816 10.8757 6.19389 11.0448 6.19967 11.5585C6.211 12.5737 6.65011 13.8758 7.3082 14.8461C7.59514 15.2692 8.50535 16.1982 8.63301 16.1982C8.73711 16.1982 8.81259 16.0359 8.75313 15.9399C8.73024 15.9029 8.92669 16.0888 9.18965 16.3529C9.45267 16.6171 9.94708 17.0578 10.2884 17.3323C11.3604 18.1946 11.6332 18.5406 11.8093 19.2616C11.9255 19.737 11.9891 19.7398 12.0844 19.2738C12.2271 18.576 12.5408 18.1825 13.6599 17.2976C13.9824 17.0426 14.5242 16.5605 14.8638 16.2262C15.3659 15.7321 15.4813 15.644 15.4813 15.7546C15.4813 16.02 15.6076 15.9583 16.1346 15.4353C17.226 14.3525 17.7176 13.0871 17.8113 11.1203C17.8487 10.3334 17.8566 10.2919 17.9334 10.4787C18.1897 11.1024 18.333 10.0144 18.1258 9.01708C17.9592 8.21496 17.531 7.40942 16.9986 6.89689C16.7437 6.65141 16.732 6.62888 16.8783 6.66451C17.4644 6.80729 16.6926 5.96125 15.8464 5.53351C15.3984 5.30708 14.3961 4.98828 13.8397 4.89526C13.3105 4.8068 13.2874 4.78331 13.5883 4.64023C13.8873 4.49799 13.8239 4.387 13.4524 4.40208C13.1523 4.41428 12.2734 4.66835 12.135 4.78289C12.0836 4.82543 11.9032 4.79845 11.5429 4.69425C10.4888 4.38958 9.63774 4.28856 9.63774 4.46824Z" fill="black"/>
<path fill-rule="evenodd" clip-rule="evenodd" d="M8.78405 7.53904C9.02117 7.69294 9.04412 7.72431 8.94285 7.75592C8.52976 7.88481 8.20873 8.16485 8.36416 8.26069C8.43283 8.303 8.38904 8.56639 8.31337 8.56639C8.28849 8.56639 8.20066 8.46465 8.11812 8.34026C7.56365 7.50443 7.97252 7.01251 8.78405 7.53904Z" fill="#F6F30E"/>
<path fill-rule="evenodd" clip-rule="evenodd" d="M15.1868 7.53904C14.9497 7.69294 14.9268 7.72431 15.028 7.75592C15.4411 7.88481 15.7622 8.16485 15.6067 8.26069C15.5381 8.303 15.5819 8.56639 15.6575 8.56639C15.6824 8.56639 15.7702 8.46465 15.8528 8.34026C16.4072 7.50443 15.9984 7.01251 15.1868 7.53904Z" fill="#F6F30E"/>
<path d="M11.9165 14.9785C9.89827 14.9287 9.37881 14.7356 9.32845 13.6852C9.30303 13.1546 9.30303 13.1546 9.8069 12.6263C10.4787 11.9219 10.461 11.9887 10.0772 11.6059C9.48942 11.0195 9.06422 10.0686 8.98121 9.15465C8.94042 8.70564 8.94042 8.70564 9.44484 8.54435C10.2311 8.29299 11.0974 8.15444 11.9201 8.1372L12.0508 8.13718C12.8735 8.15442 13.7398 8.29297 14.5261 8.54433C15.0305 8.70562 15.0305 8.70562 14.9897 9.15463C14.9067 10.0686 14.4815 11.0195 13.8937 11.6059C13.5099 11.9887 13.4922 11.9219 14.164 12.6263C14.6679 13.1546 14.6679 13.1546 14.6424 13.6851C14.5921 14.7356 14.0726 14.9287 12.0544 14.9785L11.9165 14.9785Z" fill="#F6F30E"/>
<path d="M11.7643 12.6553C11.3277 12.2939 11.234 11.8394 11.5652 11.6895C11.759 11.6017 11.9343 11.5822 11.9854 11.5822C12.0366 11.5822 12.2119 11.6018 12.4057 11.6895C12.7368 11.8395 12.6431 12.2939 12.2066 12.6554C12.1453 12.7061 12.1195 12.8565 12.1195 13.1625C12.1195 13.5976 12.1195 13.5976 12.4457 13.6358C12.8909 13.688 12.9629 13.7238 12.9629 13.8928C12.9629 14.0959 12.8485 14.1188 12.5374 13.9781C12.3699 13.9023 12.178 13.8633 11.9854 13.8611C11.7929 13.8633 11.601 13.9022 11.4334 13.978C11.1224 14.1188 11.0079 14.0959 11.0079 13.8928C11.0079 13.7237 11.08 13.6879 11.5251 13.6358C11.8513 13.5975 11.8513 13.5975 11.8513 13.1625C11.8513 12.8564 11.8256 12.706 11.7643 12.6553Z" fill="black"/>
<path fill-rule="evenodd" clip-rule="evenodd" d="M10.148 9.72288C10.148 9.80425 10.2145 9.94246 10.2958 10.0299C10.4379 10.1829 10.5044 10.2031 10.9011 10.214C11.1218 10.22 11.1684 10.394 11.0258 10.6792C10.904 10.9228 10.9056 11.044 11.0302 11.0196C11.3963 10.9478 11.5257 10.0936 11.2172 9.7858C10.9701 9.5393 10.148 9.49093 10.148 9.72288Z" fill="black"/>
<path fill-rule="evenodd" clip-rule="evenodd" d="M13.8228 9.72288C13.8228 9.80425 13.7563 9.94246 13.6751 10.0299C13.533 10.1829 13.4665 10.2031 13.0698 10.214C12.8491 10.22 12.8025 10.394 12.9451 10.6792C13.0669 10.9228 13.0653 11.044 12.9406 11.0196C12.5746 10.9478 12.4452 10.0936 12.7537 9.7858C13.0008 9.5393 13.8228 9.49093 13.8228 9.72288Z" fill="black"/>
</g>
<defs>
<clipPath id="clip0_2797_6720">
<rect width="24" height="24" fill="white"/>
</clipPath>
</defs>
</svg>
