<svg width="24" height="24" viewBox="0 0 24 24" fill="none" xmlns="http://www.w3.org/2000/svg">
<circle cx="12" cy="12" r="12" fill="black"/>
<path fill-rule="evenodd" clip-rule="evenodd" d="M8.97178 5.75439H10.6998C10.7658 5.75439 10.8186 5.80839 10.8186 5.87439V8.39919C10.8186 8.46639 10.8726 8.51919 10.9386 8.51919H13.1574C13.2234 8.51919 13.2774 8.46639 13.2774 8.39919V5.87439C13.2774 5.80839 13.3302 5.75439 13.3974 5.75439H15.1242C15.1902 5.75439 15.2442 5.80839 15.2442 5.87439V8.39919C15.2442 8.46639 15.297 8.51919 15.3642 8.51919H17.4762C17.5434 8.51919 17.5962 8.57319 17.5962 8.63919V10.3624C17.5962 10.4296 17.5434 10.4824 17.4762 10.4824H15.3642C15.297 10.4824 15.2442 10.5364 15.2442 10.6024V13.2844C15.2442 13.3504 15.297 13.4044 15.3642 13.4044H17.4762C17.5434 13.4044 17.5962 13.4572 17.5962 13.5244V15.2476C17.5962 15.3136 17.5434 15.3676 17.4762 15.3676H15.3642C15.297 15.3676 15.2442 15.4216 15.2442 15.4876V18.0124C15.2442 18.0784 15.1902 18.1324 15.1242 18.1324H13.3974C13.3302 18.1324 13.2774 18.0784 13.2774 18.0124V15.4876C13.2774 15.4204 13.2234 15.3676 13.1574 15.3676H10.9398C10.8738 15.3676 10.8198 15.4216 10.8198 15.4876V18.0124C10.8198 18.0784 10.767 18.1324 10.701 18.1324H8.97298C8.90698 18.1324 8.85298 18.0784 8.85298 18.0124V15.4876C8.85298 15.4204 8.80018 15.3676 8.73298 15.3676H6.62098C6.55378 15.3676 6.50098 15.3136 6.50098 15.2476V13.5244C6.50098 13.4572 6.55378 13.4044 6.62098 13.4044H8.73298C8.80018 13.4044 8.85298 13.3504 8.85298 13.2844V10.6024C8.85298 10.5364 8.80018 10.4824 8.73298 10.4824H6.62098C6.55378 10.4824 6.50098 10.4296 6.50098 10.3624V8.63919C6.50098 8.57319 6.55378 8.51919 6.62098 8.51919H8.73298C8.80018 8.51919 8.85298 8.46639 8.85298 8.39919V5.87439C8.85058 5.80839 8.90578 5.75439 8.97178 5.75439ZM13.2786 13.2856V10.6024C13.2786 10.5364 13.2246 10.4824 13.1586 10.4824H10.9398C10.8738 10.4824 10.8198 10.5364 10.8198 10.6024V13.2844C10.8198 13.3504 10.8738 13.4044 10.9398 13.4044H13.1586C13.2246 13.4056 13.2786 13.3504 13.2786 13.2856Z" fill="white"/>
</svg>
