<svg width="24" height="24" viewBox="0 0 24 24" fill="none" xmlns="http://www.w3.org/2000/svg">
<g clip-path="url(#clip0_2866_7965)">
<path d="M12 23.842C18.5402 23.842 23.8421 18.5402 23.8421 11.9999C23.8421 5.45973 18.5402 0.157837 12 0.157837C5.45979 0.157837 0.157898 5.45973 0.157898 11.9999C0.157898 18.5402 5.45979 23.842 12 23.842Z" fill="url(#paint0_linear_2866_7965)"/>
<path d="M23.3421 11.9999C23.3421 18.264 18.2641 23.342 12 23.342C5.73593 23.342 0.657898 18.264 0.657898 11.9999C0.657898 5.73587 5.73593 0.657837 12 0.657837C18.2641 0.657837 23.3421 5.73587 23.3421 11.9999Z" stroke="#00F3AB" stroke-opacity="0.2"/>
<path d="M5 13.4182C5.06755 13.42 5.13533 13.421 5.20334 13.421C6.60181 13.421 7.90651 13.0195 9.00848 12.3256C9.4596 14.6475 11.504 16.4004 13.9578 16.4004C15.9661 16.4004 17.7001 15.2262 18.5109 13.527C18.5738 13.4938 18.6358 13.4592 18.6971 13.4235C17.811 16.3657 15.0804 18.5088 11.8493 18.5088C8.6163 18.5088 5.88441 16.3632 5 13.4182Z" fill="url(#paint1_radial_2866_7965)"/>
<path d="M5 13.4182C5.06755 13.42 5.13533 13.421 5.20334 13.421C6.60181 13.421 7.90651 13.0195 9.00848 12.3256C9.4596 14.6475 11.504 16.4004 13.9578 16.4004C15.9661 16.4004 17.7001 15.2262 18.5109 13.527C18.5738 13.4938 18.6358 13.4592 18.6971 13.4235C17.811 16.3657 15.0804 18.5088 11.8493 18.5088C8.6163 18.5088 5.88441 16.3632 5 13.4182Z" fill="#04171E" fill-opacity="0.88"/>
<path d="M5.03433 13.5289C5.09052 13.5302 5.14687 13.5309 5.20337 13.5309C6.61028 13.5309 7.92229 13.1246 9.02845 12.4229C9.5171 14.6962 11.5385 16.4002 13.9578 16.4002C15.9661 16.4002 17.7001 15.2261 18.5109 13.5269C18.5738 13.4936 18.6359 13.4591 18.6971 13.4233C17.811 16.3656 15.0805 18.5087 11.8494 18.5087C8.65706 18.5087 5.95335 16.4167 5.03433 13.5289Z" fill="url(#paint2_linear_2866_7965)"/>
<path d="M5.03433 13.5289C5.09052 13.5302 5.14687 13.5309 5.20337 13.5309C6.61028 13.5309 7.92229 13.1246 9.02845 12.4229C9.5171 14.6962 11.5385 16.4002 13.9578 16.4002C15.9661 16.4002 17.7001 15.2261 18.5109 13.5269C18.5738 13.4936 18.6359 13.4591 18.6971 13.4233C17.811 16.3656 15.0805 18.5087 11.8494 18.5087C8.65706 18.5087 5.95335 16.4167 5.03433 13.5289Z" fill="#04171E" fill-opacity="0.4"/>
<path d="M15.2323 16.2379C14.2156 17.0835 12.9087 17.592 11.4829 17.592C8.82162 17.592 6.57416 15.8201 5.85599 13.3916C7.00731 13.2874 8.07988 12.9104 9.00849 12.3256C9.4596 14.6475 11.504 16.4004 13.9578 16.4004C14.3981 16.4004 14.8252 16.3439 15.2323 16.2379Z" fill="url(#paint3_linear_2866_7965)" fill-opacity="0.64"/>
<path d="M17.7166 11.3583C17.7166 14.5985 15.0898 17.2253 11.8496 17.2253C8.60928 17.2253 5.98251 14.5985 5.98251 11.3583C5.98251 8.11798 8.60928 5.49121 11.8496 5.49121C15.0898 5.49121 17.7166 8.11798 17.7166 11.3583Z" fill="url(#paint4_radial_2866_7965)"/>
<path d="M17.3267 10.2565C17.3267 12.5348 15.4797 14.3818 13.2014 14.3818C10.9231 14.3818 9.07611 12.5348 9.07611 10.2565C9.07611 7.97817 10.9231 6.13123 13.2014 6.13123C15.4797 6.13123 17.3267 7.97817 17.3267 10.2565Z" fill="url(#paint5_radial_2866_7965)"/>
<path d="M12.2342 6.13864C12.1422 6.13372 12.0496 6.13123 11.9563 6.13123C11.0786 6.13123 10.2525 6.35206 9.53049 6.7412C9.91662 6.65611 10.3179 6.61126 10.7296 6.61126C11.1492 6.61126 11.558 6.65786 11.951 6.74616L12.2342 6.13864Z" fill="url(#paint6_linear_2866_7965)" fill-opacity="0.64"/>
<path d="M12.5737 6.92517C14.7307 7.68528 16.2766 9.74125 16.2766 12.1583C16.2766 13.152 16.0153 14.0847 15.5577 14.8913C16.4956 13.9633 17.0766 12.6753 17.0766 11.2516C17.0766 8.74718 15.2787 6.66273 12.9032 6.2186L12.5737 6.92517Z" fill="url(#paint7_linear_2866_7965)" fill-opacity="0.64"/>
<path d="M14.9849 16.3182C14.078 16.8927 13.0026 17.2253 11.8496 17.2253C10.0222 17.2253 8.38992 16.3899 7.3139 15.0801C7.61053 15.1345 7.91623 15.1629 8.22857 15.1629C10.4965 15.1629 12.4146 13.6655 13.0484 11.6055C13.2575 11.6239 13.4692 11.6333 13.6831 11.6333C15.1483 11.6333 16.5106 11.1926 17.6446 10.4365C17.692 10.7368 17.7166 11.0447 17.7166 11.3583C17.7166 11.5529 17.7071 11.7454 17.6886 11.9352C17.359 13.7151 16.3702 15.2637 14.9849 16.3182Z" fill="url(#paint8_linear_2866_7965)" fill-opacity="0.64"/>
<path d="M5.00192 13.4234C5.88794 16.3658 8.61855 18.509 11.8497 18.509C15.7836 18.509 18.9755 15.3323 19.0001 11.4042C18.6076 11.4017 18.2227 11.3676 17.8476 11.3043C16.9663 11.6928 15.9916 11.9084 14.9666 11.9084C14.6112 11.9084 14.2618 11.8825 13.9203 11.8324C13.2872 13.8936 11.3685 15.3921 9.09973 15.3921C7.51767 15.3921 6.10579 14.6634 5.18139 13.5234C5.12082 13.4913 5.06099 13.4579 5.00192 13.4234Z" fill="url(#paint9_linear_2866_7965)"/>
<path d="M18.9999 11.4103C17.9482 12.0186 16.7272 12.3668 15.4249 12.3668C15.1767 12.3668 14.9314 12.3541 14.6898 12.3295C14.2371 14.6494 12.1936 16.4004 9.74119 16.4004C7.73293 16.4004 5.9989 15.2263 5.1881 13.527C5.12524 13.4938 5.06317 13.4593 5.00192 13.4235C5.88802 16.3658 8.61857 18.5088 11.8497 18.5088C15.7814 18.5088 18.972 15.3355 18.9999 11.4103Z" fill="url(#paint10_linear_2866_7965)" fill-opacity="0.64"/>
<path d="M18.4786 11.6837C18.0479 11.8874 17.5936 12.0494 17.1209 12.1644C17.0596 12.6865 16.9418 13.2102 16.7636 13.7276C16.3293 14.9888 15.5901 16.0584 14.6567 16.8823C16.2527 16.1143 17.5531 14.7334 18.1753 12.9264C18.317 12.5149 18.4174 12.0992 18.4786 11.6837Z" fill="url(#paint11_linear_2866_7965)" fill-opacity="0.64"/>
<path opacity="0.2" fill-rule="evenodd" clip-rule="evenodd" d="M13.9172 11.8447C13.9253 11.8339 13.9403 11.8319 13.9508 11.8402C14.1895 12.0296 14.4474 12.1966 14.7239 12.3383C14.7358 12.3443 14.7406 12.3592 14.7347 12.3714C14.7288 12.3836 14.7144 12.3886 14.7026 12.3825C14.4233 12.2394 14.1627 12.0707 13.9216 11.8794C13.9111 11.8711 13.9091 11.8555 13.9172 11.8447Z" fill="url(#paint12_linear_2866_7965)"/>
<path d="M4.57894 7.2631C5.71257 7.2631 6.63157 6.34411 6.63157 5.21047C6.63157 4.07683 5.71257 3.15784 4.57894 3.15784C3.4453 3.15784 2.52631 4.07683 2.52631 5.21047C2.52631 6.34411 3.4453 7.2631 4.57894 7.2631Z" fill="url(#paint13_linear_2866_7965)"/>
<path fill-rule="evenodd" clip-rule="evenodd" d="M4.34695 4.63729V4.10522H3.78946V6.31575H4.34695V5.58712C4.34695 5.20876 4.87206 4.78311 5.30726 4.78311H5.36841V4.17223H5.30726C4.92601 4.17223 4.51959 4.32987 4.34695 4.63729Z" fill="url(#paint14_linear_2866_7965)"/>
</g>
<defs>
<linearGradient id="paint0_linear_2866_7965" x1="0.157898" y1="0.157837" x2="23.8421" y2="23.842" gradientUnits="userSpaceOnUse">
<stop stop-color="#0093ED"/>
<stop offset="1" stop-color="#00F3AB"/>
</linearGradient>
<radialGradient id="paint1_radial_2866_7965" cx="0" cy="0" r="1" gradientUnits="userSpaceOnUse" gradientTransform="translate(18.6971 16.9985) rotate(179.948) scale(51.9184 150.855)">
<stop offset="0.104167" stop-color="#24537E"/>
<stop offset="0.520341" stop-color="#4FC1C0"/>
<stop offset="1" stop-color="#DAFFF4"/>
</radialGradient>
<linearGradient id="paint2_linear_2866_7965" x1="18.6971" y1="18.5086" x2="14.1823" y2="8.35517" gradientUnits="userSpaceOnUse">
<stop stop-color="#000A17"/>
<stop offset="1" stop-color="#00554F"/>
</linearGradient>
<linearGradient id="paint3_linear_2866_7965" x1="15.0569" y1="18.5804" x2="12.698" y2="6.31061" gradientUnits="userSpaceOnUse">
<stop stop-color="#04171E"/>
<stop offset="1" stop-color="#04171E" stop-opacity="0"/>
</linearGradient>
<radialGradient id="paint4_radial_2866_7965" cx="0" cy="0" r="1" gradientUnits="userSpaceOnUse" gradientTransform="translate(11.8496 10.2972) rotate(128.139) scale(15.1042 15.0531)">
<stop stop-color="#00554F"/>
<stop offset="1" stop-color="#000A17"/>
</radialGradient>
<radialGradient id="paint5_radial_2866_7965" cx="0" cy="0" r="1" gradientUnits="userSpaceOnUse" gradientTransform="translate(17.3041 6.13284) rotate(144.267) scale(10.1639 10.0918)">
<stop offset="0.216485" stop-color="#16A49A"/>
<stop offset="0.906332" stop-color="#00554F" stop-opacity="0"/>
</radialGradient>
<linearGradient id="paint6_linear_2866_7965" x1="15.5623" y1="8.42465" x2="9.51193" y2="11.0602" gradientUnits="userSpaceOnUse">
<stop stop-color="#0AAA9F"/>
<stop offset="0.732381" stop-color="#0AAA9F" stop-opacity="0"/>
</linearGradient>
<linearGradient id="paint7_linear_2866_7965" x1="15.5623" y1="8.42465" x2="9.51193" y2="11.0602" gradientUnits="userSpaceOnUse">
<stop stop-color="#0AAA9F"/>
<stop offset="0.732381" stop-color="#0AAA9F" stop-opacity="0"/>
</linearGradient>
<linearGradient id="paint8_linear_2866_7965" x1="26.7929" y1="-4.11202" x2="2.04719" y2="16.5046" gradientUnits="userSpaceOnUse">
<stop stop-color="#000A17"/>
<stop offset="1" stop-color="#000A17" stop-opacity="0"/>
</linearGradient>
<linearGradient id="paint9_linear_2866_7965" x1="4.26418" y1="16.3545" x2="16.7904" y2="21.2715" gradientUnits="userSpaceOnUse">
<stop stop-color="#000A17"/>
<stop offset="1" stop-color="#00554F"/>
</linearGradient>
<linearGradient id="paint10_linear_2866_7965" x1="12.0009" y1="25.3194" x2="16.697" y2="18.9172" gradientUnits="userSpaceOnUse">
<stop stop-color="#000A17"/>
<stop offset="1" stop-color="#00554F"/>
</linearGradient>
<linearGradient id="paint11_linear_2866_7965" x1="17.7117" y1="13.0447" x2="14.5085" y2="14.2356" gradientUnits="userSpaceOnUse">
<stop stop-color="#0AAA9F"/>
<stop offset="0.732381" stop-color="#0AAA9F" stop-opacity="0"/>
</linearGradient>
<linearGradient id="paint12_linear_2866_7965" x1="14.7373" y1="12.3851" x2="14.2303" y2="11.6234" gradientUnits="userSpaceOnUse">
<stop stop-color="#000A17"/>
<stop offset="1" stop-color="#00554F"/>
</linearGradient>
<linearGradient id="paint13_linear_2866_7965" x1="6.63157" y1="7.26306" x2="2.52992" y2="3.15422" gradientUnits="userSpaceOnUse">
<stop stop-color="#000A17"/>
<stop offset="1" stop-color="#00554F"/>
</linearGradient>
<linearGradient id="paint14_linear_2866_7965" x1="3.78946" y1="4.10522" x2="5.8805" y2="5.59882" gradientUnits="userSpaceOnUse">
<stop stop-color="#0093ED"/>
<stop offset="1" stop-color="#00F3AB"/>
</linearGradient>
<clipPath id="clip0_2866_7965">
<rect width="24" height="24" fill="white"/>
</clipPath>
</defs>
</svg>
