<svg width="24" height="24" viewBox="0 0 24 24" fill="none" xmlns="http://www.w3.org/2000/svg">
<circle cx="12" cy="12" r="12" fill="black"/>
<path d="M11.2538 18.2279L6 22L9.3353 6.65175L11.2538 18.2279ZM11.3601 18.1925L14.5596 18.2338L9.45927 6.71078L11.3601 18.1925ZM14.8607 17.9386L17.3105 8.85954L16.3837 7.72613L14.8607 17.9386ZM13.68 3.70605L9.64817 6.42152L15.5396 4.51479L13.68 3.70605ZM13.1724 3.70605L10.6694 3.7887L10.3034 4.83356L13.1724 3.70605Z" fill="#384182"/>
<path d="M16.2071 7.37782L9.75488 6.49234L15.5695 4.66235L16.2071 7.37782ZM14.6781 3.96578L15.0323 3.00356L13.1728 2.19482L14.6781 3.96578ZM15.2153 2.90911L15.6345 4.42032L18.1138 3.76507L15.2153 2.90911Z" fill="#F79534"/>
<path d="M14.7015 18.1747L9.53027 6.60449L16.2717 7.549L14.7015 18.1747ZM13.4854 3.70602L10.2977 4.95159L9.53027 6.36836L13.4854 3.70602ZM11.5078 2.76151L10.7109 3.64109L13.3555 3.57615L11.5078 2.76151ZM12.901 2.07674L11.6377 2.66116L14.5185 3.93034L12.901 2.07674ZM14.3414 2H12.9836L15.0852 2.81464L14.3414 2ZM15.1265 3.08028L14.8018 4.04841L15.4512 4.36128L15.1265 3.08028Z" fill="#F0513A"/>
</svg>
