<svg width="24" height="24" viewBox="0 0 24 24" fill="none" xmlns="http://www.w3.org/2000/svg">
<circle cx="12" cy="12" r="12" fill="black"/>
<path d="M11.3438 13.9707L11.4848 14.6646L11.7453 14.3177L12.0008 15.6203L12.255 14.3177L12.5155 14.6646L12.6566 13.9707H11.3438Z" fill="url(#paint0_linear)"/>
<path d="M12.6919 12.8673V10.9127C12.6919 10.5315 12.0056 9.56689 12.0056 9.56689C12.0056 9.56689 11.313 10.5315 11.313 10.9127V12.8673C10.8629 13.0135 10.4709 13.2987 10.1934 13.682H13.8064C13.5302 13.2996 13.1401 13.0144 12.6919 12.8673Z" fill="white"/>
<path d="M20.327 14.8524C20.327 14.6499 20.2669 14.4518 20.1543 14.2834C20.0418 14.1149 19.8818 13.9836 19.6946 13.9061C19.5075 13.8286 19.3015 13.8083 19.1028 13.8478C18.9041 13.8873 18.7216 13.9849 18.5783 14.1281C18.4351 14.2714 18.3375 14.4539 18.298 14.6526C18.2585 14.8513 18.2788 15.0573 18.3563 15.2444C18.4338 15.4316 18.5651 15.5916 18.7336 15.7041C18.902 15.8167 19.1 15.8768 19.3026 15.8768C19.5742 15.8764 19.8345 15.7684 20.0266 15.5764C20.2186 15.3844 20.3266 15.124 20.327 14.8524ZM18.7028 14.8524C18.7025 14.7338 18.7375 14.6177 18.8033 14.5188C18.869 14.42 18.9626 14.3429 19.0722 14.2974C19.1818 14.2518 19.3024 14.2397 19.4189 14.2627C19.5353 14.2857 19.6423 14.3427 19.7263 14.4266C19.8104 14.5104 19.8676 14.6173 19.8909 14.7337C19.9141 14.8501 19.9023 14.9708 19.8569 15.0804C19.8116 15.1901 19.7347 15.2839 19.636 15.3498C19.5374 15.4158 19.4213 15.451 19.3026 15.451C19.1439 15.4507 18.9917 15.3876 18.8793 15.2754C18.7669 15.1633 18.7035 15.0112 18.7028 14.8524Z" fill="url(#paint1_linear)"/>
<path d="M12.0006 1C9.08434 1.00336 6.28843 2.16326 4.22617 4.22528C2.16392 6.28729 1.0037 9.08307 1 11.9994C1 16.1932 3.57605 19.5661 6.99341 19.8495C9.07255 20.0211 11.0831 19.2802 12.4073 18.6269C13.1979 18.3017 13.9335 17.8563 14.5881 17.3065L14.7305 17.1883C14.8372 17.0955 14.9363 17.0066 15.0317 16.9164C16.272 15.7408 17.75 13.6261 17.75 10.224V9.84905L12.0477 5.93732L6.344 9.84905V10.2227C6.344 13.6248 7.82202 15.7395 9.06239 16.9151C9.20727 17.0523 9.35977 17.187 9.51736 17.3167C10.0384 17.1286 10.5569 16.9354 11.064 16.7105C9.76899 15.8692 7.89192 14.0505 7.76737 10.5912L12.0477 7.65427L16.3267 10.5912C16.2263 13.3872 14.9681 15.1041 13.8675 16.0738L13.7303 16.1792C13.6972 16.2047 10.3943 18.7108 7.11033 18.4376C5.05788 18.2673 3.39304 16.5986 2.72965 14.2742C2.90601 14.149 3.04421 13.9773 3.12893 13.7783C3.21365 13.5793 3.24156 13.3607 3.20957 13.1468C3.17758 12.9329 3.08694 12.732 2.94771 12.5665C2.80848 12.4009 2.62611 12.2772 2.42083 12.2091C2.42083 12.1392 2.42083 12.0705 2.42083 11.9994C2.41981 10.6526 2.70484 9.32103 3.25706 8.09272C3.59284 8.22952 3.95185 8.30028 4.31442 8.30114C4.79407 8.30013 5.26531 8.17513 5.68239 7.93826C6.09947 7.7014 6.44822 7.36072 6.69479 6.9493C6.94136 6.53789 7.07736 6.06971 7.08961 5.59022C7.10185 5.11073 6.98991 4.63622 6.76466 4.21275C6.73289 4.15429 6.69857 4.09965 6.66426 4.04373C7.72112 3.33357 8.90908 2.84146 10.1585 2.59623C11.408 2.35101 12.6938 2.3576 13.9407 2.61561C15.1876 2.87363 16.3705 3.37789 17.42 4.09884C18.4695 4.81979 19.3646 5.74295 20.0529 6.81422C19.7408 7.0781 19.5174 7.43147 19.4129 7.8265C19.3083 8.22153 19.3276 8.63914 19.4683 9.02283C19.6089 9.40651 19.8639 9.73773 20.199 9.97165C20.534 10.2056 20.9329 10.3309 21.3415 10.3307C21.372 10.3307 21.4038 10.3307 21.4343 10.3307C21.5343 10.8814 21.5857 11.4397 21.5881 11.9994C21.5881 16.9685 17.6344 20.8954 11.9803 21.5855C7.45855 22.1409 4.55843 20.2638 4.55843 20.2638C6.24996 22.1307 8.61504 23 12.0019 23C14.8988 22.9687 17.6664 21.7959 19.7038 19.7363C21.7412 17.6766 22.8838 14.8964 22.8837 11.9994C22.8835 9.1023 21.7405 6.32225 19.7029 4.26285C17.6653 2.20345 14.8975 1.03097 12.0006 1V1ZM2.77922 13.4799C2.75244 13.6036 2.69422 13.7183 2.61019 13.8129C2.5297 13.4434 2.47408 13.0689 2.44371 12.692C2.57405 12.7727 2.67625 12.8917 2.73631 13.0328C2.79637 13.1739 2.81136 13.33 2.77922 13.4799ZM6.38848 4.41228C6.61533 4.83846 6.70579 5.32405 6.64761 5.80333C6.58943 6.2826 6.38543 6.73244 6.0632 7.09197C5.74096 7.4515 5.31607 7.70336 4.84599 7.81348C4.37592 7.9236 3.88337 7.88665 3.43498 7.70764C4.1146 6.35871 5.10143 5.18818 6.31604 4.29028C6.33765 4.32967 6.36688 4.37034 6.38975 4.41228H6.38848ZM21.3415 9.90624C21.0252 9.90652 20.7162 9.81122 20.455 9.63286C20.1939 9.45449 19.9926 9.20137 19.8778 8.90668C19.7629 8.61198 19.7398 8.28946 19.8114 7.98139C19.883 7.67331 20.046 7.39406 20.2791 7.18023C20.774 8.02806 21.1354 8.94709 21.3504 9.90497L21.3415 9.90624Z" fill="url(#paint2_linear)"/>
<defs>
<linearGradient id="paint0_linear" x1="12.0008" y1="15.6203" x2="12.0008" y2="13.9707" gradientUnits="userSpaceOnUse">
<stop stop-color="#B5E0DA"/>
<stop offset="0.63" stop-color="#3CBAB2"/>
<stop offset="0.97" stop-color="#00A89E"/>
<stop offset="1" stop-color="#00A69C"/>
</linearGradient>
<linearGradient id="paint1_linear" x1="19.3036" y1="15.8768" x2="19.3036" y2="13.8281" gradientUnits="userSpaceOnUse">
<stop stop-color="#B5E0DA"/>
<stop offset="0.63" stop-color="#3CBAB2"/>
<stop offset="0.97" stop-color="#00A89E"/>
<stop offset="1" stop-color="#00A69C"/>
</linearGradient>
<linearGradient id="paint2_linear" x1="11.9524" y1="23" x2="11.9524" y2="1" gradientUnits="userSpaceOnUse">
<stop stop-color="#B5E0DA"/>
<stop offset="0.63" stop-color="#3CBAB2"/>
<stop offset="0.97" stop-color="#00A89E"/>
<stop offset="1" stop-color="#00A69C"/>
</linearGradient>
</defs>
</svg>
