<svg width="24" height="24" viewBox="0 0 24 24" fill="none" xmlns="http://www.w3.org/2000/svg">
<circle cx="12" cy="12" r="12" fill="#20EE82"/>
<path d="M15.6018 11.9993V15.599H11.9991C11.2871 15.599 10.5912 15.3879 9.9992 14.9924C9.40722 14.5968 8.94583 14.0346 8.67338 13.3768C8.40092 12.7191 8.32964 11.9953 8.46853 11.297C8.60743 10.5987 8.95027 9.95731 9.4537 9.45388C9.95714 8.95045 10.5985 8.60761 11.2968 8.46871C11.9951 8.32981 12.7189 8.4011 13.3767 8.67355C14.0344 8.94601 14.5966 9.4074 14.9922 9.99937C15.3877 10.5913 15.5988 11.2873 15.5988 11.9993H15.6018ZM12.0466 5.99972C11.2588 5.97631 10.474 6.10832 9.73713 6.38821C9.00027 6.6681 8.32576 7.09037 7.7521 7.63094C7.17844 8.1715 6.71687 8.81976 6.39374 9.53871C6.07062 10.2577 5.89226 11.0332 5.86886 11.8211C5.84545 12.6089 5.97747 13.3937 6.25735 14.1306C6.53724 14.8674 6.95952 15.5419 7.50008 16.1156C8.04064 16.6893 8.6889 17.1508 9.40785 17.474C10.1268 17.7971 10.9023 17.9754 11.6902 17.9988H17.9987V12.0706C17.9987 8.76189 15.3553 6.02348 12.0466 5.99972Z" fill="white"/>
</svg>
