<svg width="24" height="24" viewBox="0 0 24 24" fill="none" xmlns="http://www.w3.org/2000/svg">
<circle cx="12" cy="12" r="12" fill="#EF3925"/>
<circle cx="12.2491" cy="12.7511" r="9.24911" fill="#EF3925"/>
<path d="M4.18652 14.6007C4.2065 13.3096 4.50297 12.0378 5.05594 10.871C5.32031 10.3138 5.39276 9.83819 5.13302 9.25704C4.891 8.71751 4.78155 8.1194 4.61352 7.5475C4.55109 7.05575 4.47787 6.56478 4.427 6.07149C4.34992 5.34775 4.32295 4.62247 4.44781 3.90026C4.4671 3.78766 4.49467 3.67662 4.53028 3.56807C4.71835 2.99693 4.89639 2.90059 5.46675 3.0848C6.26372 3.34301 6.87647 3.88716 7.48537 4.42669C7.58788 4.51841 7.66573 4.64559 7.81526 4.67488C8.19601 5.20439 8.70086 5.6206 9.12555 6.11388C9.22189 6.22564 9.3298 6.16398 9.44079 6.12853C11.3677 5.51192 13.2992 5.54815 15.2269 6.13315C15.3579 6.17323 15.4635 6.21023 15.5676 6.08151C15.9668 5.60287 16.3715 5.12808 16.773 4.65175C17.1106 4.38199 17.4397 4.09989 17.7873 3.844C18.2711 3.48773 18.818 3.22622 19.399 3.07324C19.7751 2.97381 19.9609 3.0979 20.0834 3.44706C20.3447 4.19238 20.3147 4.95466 20.2291 5.71617C20.1636 6.28422 20.048 6.84688 19.9539 7.41184C19.6991 8.24478 19.4473 9.07514 19.1986 9.90294C19.1439 10.0848 19.2472 10.2243 19.3265 10.3654C20.0557 11.6919 20.3856 13.1193 20.4002 14.6261C18.9234 14.3841 17.5561 14.6177 16.353 15.5618C16.1749 15.7021 15.9768 15.9773 15.8273 15.9526C15.6439 15.9218 15.6331 15.5796 15.539 15.3761C14.9694 14.1429 14.0492 13.3814 12.6757 13.255C11.2706 13.1255 10.2092 13.7251 9.4169 14.862C9.21201 15.1551 9.03817 15.4687 8.89817 15.7977C8.82572 15.9696 8.771 16.0559 8.58987 15.8748C7.3582 14.65 5.86061 14.3171 4.18652 14.6007ZM14.7529 13.2619C15.5614 13.1625 16.39 12.9806 17.1168 12.4834C17.4251 12.2722 17.5407 11.6271 17.3442 11.3157C17.2586 11.1801 17.1407 11.1716 17.0112 11.2125C16.0586 11.5085 15.1817 12.0082 14.4415 12.6769C14.3128 12.7925 14.1632 12.9544 14.2503 13.1394C14.3374 13.3243 14.5455 13.2326 14.7529 13.2588V13.2619ZM9.99188 13.2619C10.1815 13.2311 10.4158 13.3344 10.496 13.1301C10.5761 12.9259 10.3934 12.7786 10.2647 12.6407C10.1806 12.5447 10.0854 12.4591 9.98109 12.3856C9.38144 12.0002 8.77485 11.6194 8.10583 11.3581C7.9413 11.2871 7.76472 11.2481 7.58557 11.2433C7.52838 11.2405 7.47199 11.2577 7.42603 11.2918C7.38007 11.326 7.34738 11.375 7.33353 11.4306C7.24926 11.6309 7.23921 11.8548 7.30519 12.0619C7.37116 12.269 7.50884 12.4458 7.69348 12.5605C8.40566 12.9821 9.19106 13.1833 9.99188 13.2596V13.2619ZM8.56675 10.7955C8.76483 10.77 9.0292 10.7492 9.29512 10.6984C9.60342 10.6398 9.71518 10.4301 9.66431 10.1311C9.59725 9.73337 9.08932 9.29404 8.68082 9.27246C8.25613 9.24933 7.77826 9.58615 7.65263 9.9962C7.53778 10.3731 7.7297 10.6953 8.11508 10.7539C8.24149 10.7731 8.36866 10.7747 8.56675 10.7901V10.7955ZM15.966 10.8009V10.7808C16.0431 10.7808 16.1202 10.7855 16.1973 10.7808C16.4539 10.7623 16.7114 10.7539 16.8301 10.4533C16.9488 10.1527 16.8632 9.89754 16.6659 9.67402C16.4162 9.39192 16.1002 9.21157 15.7155 9.29943C15.5202 9.34025 15.339 9.43175 15.1902 9.56474C15.0414 9.69773 14.9301 9.86753 14.8677 10.0571C14.7498 10.3916 14.8931 10.6344 15.2477 10.7068C15.4797 10.7469 15.7232 10.7646 15.9637 10.7955L15.966 10.8009Z" fill="#FFA409"/>
<path d="M4.18601 14.6008C5.8601 14.3203 7.35768 14.6532 8.59013 15.8818C8.77049 16.0622 8.82136 15.9759 8.89843 15.8047C9.03843 15.4757 9.21227 15.1621 9.41715 14.869C10.2064 13.7322 11.267 13.1325 12.6759 13.262C14.0494 13.3884 14.9697 14.1515 15.5393 15.3831C15.6333 15.5866 15.6441 15.9288 15.8276 15.9597C15.9771 15.9843 16.1752 15.7092 16.3532 15.5689C17.5564 14.6247 18.9237 14.3912 20.4005 14.6332C20.4298 15.2683 20.2109 15.8356 19.9026 16.372C19.5266 17.0273 19.0379 17.611 18.4589 18.0962C16.8018 19.4951 14.9235 20.4039 12.7491 20.649C12.0115 20.7314 11.2963 20.5981 10.5987 20.3831C8.47143 19.7271 6.61005 18.6365 5.13327 16.9447C4.70242 16.4499 4.36251 15.8965 4.21453 15.2444C4.15613 15.0348 4.14638 14.8147 4.18601 14.6008ZM14.6159 17.2522C14.1496 17.1543 13.7226 17.3694 13.2756 17.3239C12.9858 17.2946 12.8432 17.0927 12.7777 16.8915C12.7121 16.6903 12.6821 16.4375 13.0089 16.3034C13.5661 16.0768 13.7396 15.6013 13.6956 15.0224C13.6687 14.6686 13.5083 14.4829 13.1469 14.4775C12.7006 14.4675 12.2535 14.4775 11.8065 14.4775C11.4913 14.4775 11.3441 14.6448 11.3094 14.94C11.2323 15.5889 11.4543 15.9419 12.1395 16.2903C12.2451 16.345 12.3892 16.3443 12.4354 16.4992C12.5588 16.9077 12.2559 17.2946 11.8265 17.3262C11.3641 17.3601 10.914 17.1474 10.4307 17.2623C10.6619 17.6839 10.8824 18.0831 11.1198 18.5155C11.2808 18.2565 11.2022 18.0114 11.2038 17.7817C11.2038 17.5914 11.2593 17.542 11.4481 17.5713C12.1807 17.6848 12.9266 17.6829 13.6586 17.5659C13.8405 17.5366 13.9045 17.5813 13.9076 17.7771C13.9076 18.0037 13.8166 18.2527 14.0548 18.5417C14.091 17.9922 14.6683 17.7895 14.6159 17.2491V17.2522ZM11.7094 17.838L11.6747 17.9482C11.9383 18.1178 12.3306 17.9613 12.5534 18.2388C12.5864 18.2239 12.6162 18.2027 12.6412 18.1764C12.743 18.0469 12.8447 17.9737 13.0228 18.0685C13.0998 18.1101 13.2016 18.033 13.2031 17.929C13.2047 17.8249 13.1045 17.838 13.0351 17.838C12.5942 17.838 12.1526 17.838 11.7094 17.838Z" fill="#FFFCF9"/>
<path d="M14.7529 13.259C14.5455 13.2328 14.3343 13.3145 14.2503 13.1364C14.1663 12.9584 14.3128 12.7888 14.4415 12.674C15.1818 12.0053 16.0586 11.5056 17.0112 11.2095C17.1407 11.1687 17.2586 11.1771 17.3442 11.3128C17.5407 11.6211 17.4212 12.2693 17.1168 12.4805C16.39 12.9776 15.5637 13.1595 14.7529 13.259Z" fill="black"/>
<path d="M9.99186 13.2596C9.19104 13.1826 8.40564 12.9845 7.69115 12.5582C7.50651 12.4435 7.36883 12.2667 7.30285 12.0596C7.23688 11.8525 7.24693 11.6287 7.3312 11.4283C7.34505 11.3727 7.37774 11.3237 7.4237 11.2896C7.46966 11.2554 7.52605 11.2382 7.58324 11.241C7.76239 11.2458 7.93897 11.2848 8.1035 11.3559C8.77252 11.6171 9.37911 11.994 9.97876 12.3833C10.083 12.4568 10.1782 12.5425 10.2624 12.6384C10.3934 12.7764 10.5707 12.9297 10.4936 13.1278C10.4165 13.3259 10.1815 13.2288 9.99186 13.2596Z" fill="black"/>
<path d="M8.56629 10.7902C8.36821 10.7748 8.24026 10.7733 8.11463 10.754C7.72925 10.6954 7.53733 10.3733 7.65217 9.99635C7.7778 9.58631 8.25567 9.24949 8.68036 9.27261C9.08578 9.29419 9.5968 9.73506 9.66385 10.1258C9.71472 10.4249 9.60142 10.6345 9.29466 10.6931C9.0326 10.7471 8.76438 10.7648 8.56629 10.7902Z" fill="#FFFCF9"/>
<path d="M15.9634 10.7954C15.7229 10.7645 15.4794 10.7491 15.2428 10.7006C14.8882 10.6281 14.7449 10.3853 14.8628 10.0508C14.9252 9.86126 15.0364 9.69146 15.1853 9.55847C15.3341 9.42548 15.5153 9.33399 15.7106 9.29316C16.096 9.20453 16.4112 9.38565 16.661 9.66775C16.8583 9.89127 16.9438 10.1456 16.8251 10.447C16.7064 10.7484 16.449 10.7553 16.1923 10.7746C16.1153 10.78 16.0382 10.7746 15.9611 10.7746L15.9634 10.7954Z" fill="#FFFCF9"/>
<path d="M14.6165 17.2491C14.6689 17.7886 14.0916 17.9898 14.0577 18.537C13.8195 18.248 13.9136 17.9975 13.9105 17.7724C13.9105 17.5767 13.8434 17.532 13.6615 17.5612C12.9295 17.6783 12.1836 17.6801 11.451 17.5666C11.2622 17.5373 11.2082 17.5867 11.2067 17.7771C11.2067 18.0083 11.2837 18.2518 11.1227 18.5108C10.8853 18.0784 10.6648 17.6792 10.4336 17.2576C10.9169 17.1427 11.367 17.3554 11.8294 17.3215C12.2588 17.2899 12.5617 16.903 12.4383 16.4945C12.3921 16.3404 12.248 16.3404 12.1424 16.2856C11.4572 15.9342 11.239 15.5842 11.3123 14.9353C11.3454 14.6385 11.4942 14.469 11.8094 14.4728C12.2564 14.4728 12.7035 14.4659 13.1497 14.4728C13.5112 14.4813 13.6716 14.664 13.6985 15.0177C13.7425 15.5966 13.569 16.0721 13.0118 16.2987C12.6827 16.4329 12.7127 16.6841 12.7806 16.8868C12.8484 17.0895 12.9887 17.2899 13.2785 17.3192C13.7232 17.3662 14.1502 17.1512 14.6165 17.2491Z" fill="black"/>
<path d="M11.7095 17.8381C12.1504 17.8381 12.592 17.8381 13.0329 17.8381C13.1023 17.8381 13.2048 17.8165 13.2032 17.9283C13.2017 18.04 13.1007 18.1094 13.0229 18.0678C12.8448 17.973 12.7431 18.0462 12.6413 18.1757C12.6163 18.202 12.5865 18.2232 12.5535 18.2381C12.3307 17.9607 11.9369 18.1171 11.6748 17.9475L11.7095 17.8381Z" fill="black"/>
</svg>
