<svg width="24" height="24" viewBox="0 0 24 24" fill="none" xmlns="http://www.w3.org/2000/svg">
<circle cx="12" cy="12" r="12" fill="#4360DF"/>
<path d="M9.975 11.2648C9.55658 11.2626 9.13883 11.2988 8.727 11.3728C9.066 8.23778 11.679 5.86328 14.79 5.86328C16.695 5.86328 18 6.79628 18 8.72678C18 10.658 16.4333 11.591 14.148 11.591C12.4605 11.591 11.6625 11.2655 9.975 11.2655V11.2648ZM9.852 12.4085C7.56675 12.4085 6 13.3423 6 15.2728C6 17.2033 7.305 18.1363 9.21 18.1363C12.321 18.1363 14.934 15.7625 15.273 12.6268C14.8612 12.7008 14.4434 12.7369 14.025 12.7348C12.3375 12.7348 11.5387 12.4085 9.852 12.4085Z" fill="white"/>
</svg>
