<svg width="24" height="24" viewBox="0 0 24 24" fill="none" xmlns="http://www.w3.org/2000/svg">
<circle cx="12" cy="12" r="12" fill="url(#paint0_linear)"/>
<path d="M8.04614 9.01551C7.95023 8.89644 7.80471 8.8303 7.64927 8.8303H4.44454C4.41808 8.8303 4.39493 8.82038 4.37509 8.80384C4.35855 8.78731 4.34863 8.76746 4.34863 8.74431V6.58468C4.34863 6.56153 4.35855 6.54168 4.37509 6.52515C4.39493 6.5053 4.41808 6.49538 4.44454 6.49869H7.83117C8.68444 6.49869 9.42196 6.84926 10.0437 7.54709L10.8672 8.55249L9.26321 10.5071L8.04614 9.01551ZM13.9661 7.53716C14.5846 6.84595 15.3254 6.49869 16.1886 6.49869H19.5653C19.5884 6.49538 19.6116 6.5053 19.6281 6.51853C19.6447 6.53507 19.6513 6.55822 19.648 6.58468V8.74431C19.648 8.76746 19.6414 8.78731 19.6281 8.80384C19.6116 8.82368 19.5884 8.83361 19.5653 8.8303H16.3606C16.2084 8.82699 16.0629 8.89644 15.9637 9.01551L13.6023 11.8895L15.9736 14.7833C16.0695 14.8925 16.2117 14.9586 16.3573 14.9553H19.562C19.5851 14.952 19.6116 14.9652 19.6248 14.9818C19.6381 15.0016 19.648 15.0281 19.6447 15.0512V17.2109C19.6447 17.234 19.6381 17.2539 19.6248 17.2704C19.6083 17.2902 19.5851 17.3002 19.562 17.2969H16.1886C15.3254 17.2969 14.5912 16.9463 13.976 16.2485L12.0115 13.8507L10.047 16.2485C9.42857 16.9463 8.68775 17.2969 7.82455 17.2969H4.44454C4.42139 17.3002 4.39493 17.2869 4.38171 17.2704C4.36517 17.2506 4.35855 17.2241 4.36186 17.2009V15.0413C4.36186 15.0182 4.36848 14.9983 4.38171 14.9818C4.39824 14.9619 4.42139 14.952 4.44454 14.9553H7.64927C7.8014 14.9553 7.94692 14.8859 8.04614 14.7701L10.3645 11.9391L13.9661 7.53716Z" fill="#00D1FF"/>
<defs>
<linearGradient id="paint0_linear" x1="12.0017" y1="-6.94598e-05" x2="12.0017" y2="6.35054" gradientUnits="userSpaceOnUse">
<stop stop-color="#090220"/>
<stop offset="1" stop-color="#170659"/>
</linearGradient>
</defs>
</svg>
