<svg width="24" height="24" viewBox="0 0 24 24" fill="none" xmlns="http://www.w3.org/2000/svg">
<circle cx="12" cy="12" r="12" fill="url(#paint0_linear)"/>
<path d="M6.59949 6.15286C6.70006 6.05632 6.83281 6 6.96958 6H19.7377C19.971 6 20.0877 6.28159 19.9228 6.44652L17.4005 8.96877C17.304 9.06532 17.1712 9.12163 17.0304 9.12163H4.26229C4.02897 9.12163 3.91231 8.84004 4.07724 8.67511L6.59949 6.15286Z" fill="white"/>
<path d="M6.59949 15.5701C6.69604 15.4735 6.82879 15.4172 6.96958 15.4172H19.7377C19.971 15.4172 20.0877 15.6988 19.9228 15.8637L17.4005 18.386C17.304 18.4825 17.1712 18.5389 17.0304 18.5389H4.26229C4.02897 18.5389 3.91231 18.2573 4.07724 18.0923L6.59949 15.5701Z" fill="white"/>
<path d="M17.0304 10.6785C17.1712 10.6785 17.304 10.7348 17.4005 10.8313L19.9228 13.3536C20.0877 13.5185 19.971 13.8001 19.7377 13.8001H6.96958C6.82879 13.8001 6.69604 13.7438 6.59949 13.6472L4.07724 11.125C3.91231 10.96 4.02897 10.6785 4.26229 10.6785H17.0304Z" fill="white"/>
<defs>
<linearGradient id="paint0_linear" x1="18.8607" y1="-4.82679" x2="-0.161937" y2="23.7272" gradientUnits="userSpaceOnUse">
<stop stop-color="#00FFA3"/>
<stop offset="1" stop-color="#DC1FFF"/>
</linearGradient>
</defs>
</svg>
