<svg width="24" height="24" viewBox="0 0 24 24" fill="none" xmlns="http://www.w3.org/2000/svg">
<path d="M12 24C18.6274 24 24 18.6274 24 12C24 5.37258 18.6274 0 12 0C5.37258 0 0 5.37258 0 12C0 18.6274 5.37258 24 12 24Z" fill="url(#paint0_linear_2625_6984)"/>
<path d="M12 7.80005C13.6575 7.80005 15 6.45755 15 4.80005H9C9 6.45755 10.3425 7.80005 12 7.80005Z" fill="url(#paint1_radial_2625_6984)"/>
<path d="M4.80005 9C6.45755 9 7.80005 10.3425 7.80005 12C7.80005 13.6575 6.45755 15 4.80005 15V9Z" fill="url(#paint2_radial_2625_6984)"/>
<path d="M12 15C13.6569 15 15 13.6569 15 12C15 10.3431 13.6569 9 12 9C10.3431 9 9 10.3431 9 12C9 13.6569 10.3431 15 12 15Z" fill="url(#paint3_radial_2625_6984)"/>
<path d="M16.2001 12C16.2001 13.6575 17.5426 15 19.2001 15V9C17.5426 9 16.2001 10.3425 16.2001 12Z" fill="url(#paint4_radial_2625_6984)"/>
<path d="M19.2001 4.80005V7.80005C17.5426 7.80005 16.2001 6.45755 16.2001 4.80005H19.2001Z" fill="url(#paint5_radial_2625_6984)"/>
<path d="M7.80005 4.80005H4.80005V7.80005C6.45755 7.80005 7.80005 6.45755 7.80005 4.80005Z" fill="url(#paint6_radial_2625_6984)"/>
<path d="M9 19.2001C9 17.5426 10.3425 16.2001 12 16.2001C13.6575 16.2001 15 17.5426 15 19.2001H9Z" fill="url(#paint7_radial_2625_6984)"/>
<path d="M19.2001 16.2001C17.5426 16.2001 16.2001 17.5426 16.2001 19.2001H19.2001V16.2001Z" fill="url(#paint8_radial_2625_6984)"/>
<path d="M4.80005 19.2001V16.2001C6.45755 16.2001 7.80005 17.5426 7.80005 19.2001H4.80005Z" fill="url(#paint9_radial_2625_6984)"/>
<defs>
<linearGradient id="paint0_linear_2625_6984" x1="0" y1="0" x2="24" y2="24" gradientUnits="userSpaceOnUse">
<stop offset="0.13945" stop-color="#1F1F2D"/>
<stop offset="0.421227" stop-color="#422044"/>
<stop offset="0.658042" stop-color="#6F2560"/>
<stop offset="0.861813" stop-color="#C63183"/>
</linearGradient>
<radialGradient id="paint1_radial_2625_6984" cx="0" cy="0" r="1" gradientUnits="userSpaceOnUse" gradientTransform="translate(4.80005 4.80005) rotate(44.9999) scale(20.3647)">
<stop stop-color="#7A2C66"/>
<stop offset="0.522319" stop-color="#DB3F76"/>
<stop offset="1" stop-color="#F36F60"/>
</radialGradient>
<radialGradient id="paint2_radial_2625_6984" cx="0" cy="0" r="1" gradientUnits="userSpaceOnUse" gradientTransform="translate(4.80005 4.80005) rotate(44.9999) scale(20.3647)">
<stop stop-color="#7A2C66"/>
<stop offset="0.522319" stop-color="#DB3F76"/>
<stop offset="1" stop-color="#F36F60"/>
</radialGradient>
<radialGradient id="paint3_radial_2625_6984" cx="0" cy="0" r="1" gradientUnits="userSpaceOnUse" gradientTransform="translate(4.80005 4.80005) rotate(44.9999) scale(20.3647)">
<stop stop-color="#7A2C66"/>
<stop offset="0.522319" stop-color="#DB3F76"/>
<stop offset="1" stop-color="#F36F60"/>
</radialGradient>
<radialGradient id="paint4_radial_2625_6984" cx="0" cy="0" r="1" gradientUnits="userSpaceOnUse" gradientTransform="translate(4.80005 4.80005) rotate(44.9999) scale(20.3647)">
<stop stop-color="#7A2C66"/>
<stop offset="0.522319" stop-color="#DB3F76"/>
<stop offset="1" stop-color="#F36F60"/>
</radialGradient>
<radialGradient id="paint5_radial_2625_6984" cx="0" cy="0" r="1" gradientUnits="userSpaceOnUse" gradientTransform="translate(4.80005 4.80005) rotate(44.9999) scale(20.3647)">
<stop stop-color="#7A2C66"/>
<stop offset="0.522319" stop-color="#DB3F76"/>
<stop offset="1" stop-color="#F36F60"/>
</radialGradient>
<radialGradient id="paint6_radial_2625_6984" cx="0" cy="0" r="1" gradientUnits="userSpaceOnUse" gradientTransform="translate(4.80005 4.80005) rotate(44.9999) scale(20.3647)">
<stop stop-color="#7A2C66"/>
<stop offset="0.522319" stop-color="#DB3F76"/>
<stop offset="1" stop-color="#F36F60"/>
</radialGradient>
<radialGradient id="paint7_radial_2625_6984" cx="0" cy="0" r="1" gradientUnits="userSpaceOnUse" gradientTransform="translate(4.80005 4.80005) rotate(44.9999) scale(20.3647)">
<stop stop-color="#7A2C66"/>
<stop offset="0.522319" stop-color="#DB3F76"/>
<stop offset="1" stop-color="#F36F60"/>
</radialGradient>
<radialGradient id="paint8_radial_2625_6984" cx="0" cy="0" r="1" gradientUnits="userSpaceOnUse" gradientTransform="translate(4.80005 4.80005) rotate(44.9999) scale(20.3647)">
<stop stop-color="#7A2C66"/>
<stop offset="0.522319" stop-color="#DB3F76"/>
<stop offset="1" stop-color="#F36F60"/>
</radialGradient>
<radialGradient id="paint9_radial_2625_6984" cx="0" cy="0" r="1" gradientUnits="userSpaceOnUse" gradientTransform="translate(4.80005 4.80005) rotate(44.9999) scale(20.3647)">
<stop stop-color="#7A2C66"/>
<stop offset="0.522319" stop-color="#DB3F76"/>
<stop offset="1" stop-color="#F36F60"/>
</radialGradient>
</defs>
</svg>
