<svg width="24" height="24" viewBox="0 0 24 24" fill="none" xmlns="http://www.w3.org/2000/svg">
<path d="M12 24C8.79394 24 5.78182 22.7515 3.51515 20.4848C1.24848 18.2182 0 15.2061 0 12C0 8.79394 1.24848 5.78182 3.51515 3.51515C5.78182 1.24848 8.79394 0 12 0C15.2061 0 18.2182 1.24848 20.4848 3.51515C22.7515 5.78182 24 8.79394 24 12C24 15.2061 22.7515 18.2182 20.4848 20.4848C18.2182 22.7515 15.2061 24 12 24ZM12 0.975758C5.92121 0.975758 0.975758 5.92121 0.975758 12C0.975758 18.0788 5.92121 23.0242 12 23.0242C18.0788 23.0242 23.0242 18.0788 23.0242 12C23.0242 5.92121 18.0788 0.975758 12 0.975758Z" fill="url(#paint0_linear_778_5798)"/>
<path d="M10.5697 8.48484L3.56363 6.7515L8.21817 12.2727L4.39999 18.406L11.0909 15.6848L15.7454 21.206L15.2242 14.006L21.9151 11.2848L14.9091 9.5515L14.3879 2.3515L10.5697 8.48484Z" fill="url(#paint1_linear_778_5798)"/>
<defs>
<linearGradient id="paint0_linear_778_5798" x1="1.78678" y1="9.47627" x2="25.0952" y2="15.2359" gradientUnits="userSpaceOnUse">
<stop stop-color="#FEF5A0"/>
<stop offset="0.6354" stop-color="#93D4CB"/>
<stop offset="1" stop-color="#719AD1"/>
</linearGradient>
<linearGradient id="paint1_linear_778_5798" x1="1.78678" y1="9.47627" x2="25.0952" y2="15.2359" gradientUnits="userSpaceOnUse">
<stop stop-color="#FEF5A0"/>
<stop offset="0.6354" stop-color="#93D4CB"/>
<stop offset="1" stop-color="#719AD1"/>
</linearGradient>
</defs>
</svg>
