<svg width="24" height="24" viewBox="0 0 24 24" fill="none" xmlns="http://www.w3.org/2000/svg">
<g clip-path="url(#clip0_1744_5808)">
<mask id="mask0_1744_5808" style="mask-type:alpha" maskUnits="userSpaceOnUse" x="0" y="0" width="24" height="24">
<path d="M12 24C18.6274 24 24 18.6274 24 12C24 5.37259 18.6274 0 12 0C5.37259 0 0 5.37259 0 12C0 18.6274 5.37259 24 12 24Z" fill="#D9D9D9"/>
</mask>
<g mask="url(#mask0_1744_5808)">
<path d="M24 0H0V24H24V0Z" fill="#E50571"/>
<path d="M12.1043 4.41736C11.1727 4.41736 10.4172 7.79664 10.4172 11.9652C10.4172 16.1338 11.1727 19.5131 12.1043 19.5131C13.0361 19.5131 13.7915 16.1338 13.7915 11.9652C13.7915 7.79664 13.0361 4.41736 12.1043 4.41736ZM12.2209 19.0871C12.1144 19.2292 12.0078 19.1226 12.0078 19.1226C11.5787 18.6254 11.3642 17.7019 11.3642 17.7019C10.6137 15.2866 10.7923 10.1008 10.7923 10.1008C11.145 5.98373 11.7866 5.0112 12.005 4.79527C12.0273 4.77323 12.0567 4.75977 12.0879 4.75724C12.1191 4.75472 12.1503 4.76329 12.1758 4.78146C12.4926 5.00592 12.7583 5.94475 12.7583 5.94475C13.5429 8.8573 13.4718 11.5923 13.4718 11.5923C13.5429 13.9721 13.0786 16.636 13.0786 16.636C12.7213 18.6605 12.2209 19.0871 12.2209 19.0871Z" fill="white"/>
<path d="M18.6515 8.20882C18.1875 7.4004 14.8807 8.42688 11.2631 10.5013C7.64553 12.5756 5.09376 14.9127 5.55729 15.7209C6.02083 16.5289 9.32803 15.5028 12.9456 13.4283C16.5631 11.354 19.1149 9.0169 18.6515 8.20882ZM5.98526 15.6099C5.80766 15.5876 5.84779 15.4416 5.84779 15.4416C6.06561 14.8221 6.75888 14.1764 6.75888 14.1764C8.48121 12.3234 13.0685 9.89775 13.0685 9.89775C16.8147 8.15482 17.9784 8.22835 18.2736 8.30962C18.3038 8.31811 18.3301 8.33703 18.3479 8.36299C18.3656 8.38901 18.3734 8.42045 18.3702 8.45174C18.3348 8.83843 17.6509 9.53583 17.6509 9.53583C15.5165 11.6666 13.1087 12.9663 13.1087 12.9663C11.0797 14.2126 8.53809 15.1351 8.53809 15.1351C6.60408 15.8319 5.98536 15.6099 5.98536 15.6099H5.98526Z" fill="white"/>
<path d="M18.6352 15.748C19.1026 14.9417 16.5572 12.594 12.9523 10.504C9.34754 8.41397 6.04111 7.37477 5.57407 8.18246C5.10698 8.99011 7.65194 11.3366 11.2589 13.4266C14.8658 15.5166 18.1681 16.5558 18.6352 15.748ZM5.88381 8.49398C5.81474 8.33026 5.96052 8.29085 5.96052 8.29085C6.60588 8.16898 7.51236 8.4467 7.51236 8.4467C9.97845 9.00826 14.3759 11.7627 14.3759 11.7627C17.7616 14.132 18.2808 15.1754 18.3586 15.4717C18.3665 15.502 18.3634 15.5343 18.3499 15.5626C18.3364 15.591 18.3133 15.6136 18.2848 15.6265C17.9316 15.7882 16.9861 15.5473 16.9861 15.5473C14.0718 14.766 11.741 13.3342 11.741 13.3342C9.64677 12.2047 7.576 10.4667 7.576 10.4667C6.00252 9.14189 5.88429 8.49581 5.88429 8.49581L5.88381 8.49398Z" fill="white"/>
<path d="M12.0867 12.8352C12.5771 12.8352 12.9746 12.4376 12.9746 11.9472C12.9746 11.4568 12.5771 11.0592 12.0867 11.0592C11.5963 11.0592 11.1987 11.4568 11.1987 11.9472C11.1987 12.4376 11.5963 12.8352 12.0867 12.8352Z" fill="white"/>
<path d="M15.7273 9.07007C16.0118 9.07007 16.2424 8.83156 16.2424 8.53727C16.2424 8.24303 16.0118 8.00452 15.7273 8.00452C15.4429 8.00452 15.2124 8.24303 15.2124 8.53727C15.2124 8.83156 15.4429 9.07007 15.7273 9.07007Z" fill="white"/>
<path d="M7.27383 10.8815C7.55828 10.8815 7.78887 10.643 7.78887 10.3487C7.78887 10.0545 7.55828 9.81592 7.27383 9.81592C6.98938 9.81592 6.75879 10.0545 6.75879 10.3487C6.75879 10.643 6.98938 10.8815 7.27383 10.8815Z" fill="white"/>
<path d="M11.039 17.417C11.3234 17.417 11.5541 17.1785 11.5541 16.8842C11.5541 16.59 11.3234 16.3514 11.039 16.3514C10.7545 16.3514 10.5239 16.59 10.5239 16.8842C10.5239 17.1785 10.7545 17.417 11.039 17.417Z" fill="white"/>
</g>
</g>
<defs>
<clipPath id="clip0_1744_5808">
<rect width="24" height="24" fill="white"/>
</clipPath>
</defs>
</svg>
