<svg width="24" height="24" viewBox="0 0 24 24" fill="none" xmlns="http://www.w3.org/2000/svg">
<circle cx="12" cy="12" r="12" fill="#1627C1"/>
<path d="M9.65791 6.44874C10.1267 5.53162 10.9729 4.74835 11.7525 4.09893C11.9536 3.94277 12.0868 3.96508 12.0202 4.21171C12.0202 4.36431 11.9916 4.50932 11.9628 4.65536C11.9408 4.7667 11.9187 4.87864 11.9091 4.99498C11.8647 5.39777 11.8425 5.82287 11.8647 6.22565C11.8869 6.76229 11.9758 7.30017 12.1768 7.8145C12.262 8.05789 12.3841 8.29216 12.5075 8.52897C12.577 8.66235 12.647 8.79654 12.711 8.93363C13.2451 10.0081 13.7582 11.0827 14.248 12.1795C14.5156 12.762 14.7821 13.3432 15.0276 13.9468C15.0571 14.0151 15.0874 14.0839 15.1179 14.153C15.3168 14.6042 15.5232 15.0722 15.5617 15.558C15.6505 16.9225 14.6032 18.0875 13.6904 18.96C13.3561 19.2958 12.9774 19.6317 12.5987 19.9229L12.5973 19.924C12.5077 19.9906 12.4197 20.056 12.3976 19.9006C12.3828 19.7661 12.437 19.6025 12.4879 19.4485C12.5135 19.3712 12.5382 19.2964 12.5531 19.2289C12.5664 19.1826 12.5799 19.136 12.5935 19.089C12.7843 18.4306 12.9954 17.7024 12.954 17.0129C12.9096 16.4081 12.6653 15.8033 12.442 15.2667C12.11 14.457 11.7151 13.6789 11.3208 12.9022C10.974 12.2189 10.6278 11.5366 10.3253 10.8348C9.99097 10.0515 9.68011 9.24595 9.45684 8.44037C9.27921 7.76988 9.32362 7.09816 9.65791 6.44874Z" fill="white"/>
<path d="M6.80719 5.80056C6.1164 6.38181 5.40341 7.09816 5.11352 7.9719C4.77923 9.0018 5.24675 10.054 5.69329 10.9711C5.86414 11.3315 6.04152 11.6888 6.21917 12.0467C6.50457 12.6216 6.79065 13.1979 7.05144 13.7906C7.09002 13.8785 7.13038 13.9681 7.17142 14.0592C7.48595 14.7576 7.84043 15.5447 7.74223 16.2978C7.69322 16.6316 7.61003 16.9581 7.52665 17.2854C7.45893 17.5513 7.39108 17.8176 7.34132 18.0887C7.26587 18.4309 7.52779 18.1917 7.69001 18.0436C7.71876 18.0173 7.74438 17.994 7.76443 17.9772C8.54403 17.3054 9.39025 16.5445 9.70234 15.5146C9.85777 15.0002 9.76895 14.5293 9.59132 14.0373C9.45548 13.6781 9.30592 13.3319 9.15314 12.9782C9.10617 12.8695 9.05883 12.7599 9.01155 12.6492C8.58844 11.7085 8.14313 10.7691 7.69658 9.82844C7.51895 9.49258 7.34009 9.13441 7.18466 8.77623C7.02923 8.39575 6.93918 7.99297 6.91698 7.56787C6.89477 7.232 6.89477 6.91845 6.93918 6.58259C6.95028 6.45927 6.97249 6.34184 6.99469 6.22441C7.0169 6.10699 7.0391 5.98956 7.0502 5.86624C7.07364 5.73363 6.96262 5.68778 6.80719 5.80056Z" fill="white"/>
<path d="M17.0099 5.80056C16.3191 6.38305 15.6061 7.09939 15.3162 7.9719C14.9819 9.0018 15.4495 10.054 15.896 10.9711C16.0686 11.3356 16.248 11.6966 16.4276 12.0581C16.7116 12.6294 16.9962 13.2021 17.2554 13.7919C17.294 13.8797 17.3343 13.9693 17.3753 14.0604C17.6898 14.7587 18.0444 15.5459 17.9462 16.2991C17.8972 16.6328 17.814 16.9594 17.7306 17.2867C17.6629 17.5525 17.595 17.8189 17.5453 18.0899C17.4698 18.4321 17.7317 18.193 17.894 18.0448C17.9227 18.0186 17.9483 17.9952 17.9684 17.9784C18.748 17.3067 19.5942 16.5457 19.9063 15.5158C20.0617 15.0015 19.9729 14.5305 19.7953 14.0385C19.6594 13.6793 19.5099 13.3331 19.3571 12.9795C19.3101 12.8707 19.2628 12.7612 19.2155 12.6504C18.7924 11.7098 18.3471 10.7703 17.9005 9.82968C17.7229 9.49382 17.544 9.13565 17.3886 8.77747C17.2332 8.39699 17.1431 7.9942 17.1209 7.56911C17.0987 7.23324 17.0987 6.91969 17.1431 6.58383C17.1542 6.46051 17.1764 6.34308 17.1986 6.22565C17.2208 6.10823 17.243 5.99079 17.2542 5.86748C17.2776 5.73363 17.1666 5.68778 17.0099 5.80056Z" fill="white"/>
</svg>
