<svg width="24" height="24" viewBox="0 0 24 24" fill="none" xmlns="http://www.w3.org/2000/svg">
<path d="M12 24C18.6274 24 24 18.6274 24 12C24 5.37258 18.6274 0 12 0C5.37258 0 0 5.37258 0 12C0 18.6274 5.37258 24 12 24Z" fill="#E50571"/>
<path d="M10.2683 7.03306C7.32871 8.1715 7.05944 11.087 6.21655 12.4487C5.36368 13.8265 3.40978 14.5867 3.67699 15.2889C3.94416 15.991 5.90038 15.2368 7.44803 15.6848C8.97734 16.1275 11.1112 18.1127 14.0507 16.9741C15.5482 16.3943 16.6325 15.2005 17.1311 13.7867C17.1848 13.635 17.0845 13.4726 16.9255 13.4576C16.8266 13.4483 16.7317 13.5005 16.687 13.59C16.236 14.4963 15.4623 15.2427 14.4497 15.6347C12.7782 16.2822 10.9491 15.7738 9.82581 14.4991C9.57069 14.2096 9.35247 13.8801 9.18023 13.5159C9.13287 13.4156 9.08784 13.3138 9.04791 13.2084C9.00775 13.1031 8.97363 12.9969 8.94228 12.8904C9.82581 12.475 10.8453 12.0348 12.0012 11.5873C13.1344 11.1484 14.1659 10.7924 15.0841 10.5077C15.7054 10.3151 16.2747 10.1549 16.7889 10.024C16.8261 10.0146 16.8628 10.0053 16.8992 9.99615C16.977 9.97671 17.0568 10.0186 17.0856 10.094L17.0861 10.0954C17.1032 10.1402 17.1178 10.1851 17.1333 10.2301C17.2351 10.5203 17.3113 10.8135 17.3616 11.1074C17.3837 11.236 17.5231 11.306 17.6372 11.2442C18.0592 11.0156 18.4452 10.7927 18.7901 10.5781C20.0756 9.77951 20.7882 9.10221 20.6419 8.71836C20.496 8.33426 19.5172 8.31226 18.0324 8.58626C17.5603 8.67339 17.0372 8.79048 16.4733 8.93546C16.3759 8.96052 16.2771 8.98651 16.1773 9.01321C15.7027 9.14015 15.2024 9.28558 14.6812 9.44837C13.712 9.75117 12.6722 10.1139 11.5988 10.5297C10.5947 10.9186 9.64287 11.322 8.77004 11.7239C8.75938 10.0182 9.78146 8.40569 11.453 7.75837C12.4654 7.36631 13.5355 7.39841 14.472 7.76775C14.5645 7.80427 14.6696 7.77898 14.7371 7.70521C14.8453 7.58694 14.8121 7.39864 14.6716 7.32182C13.3632 6.60823 11.7658 6.45319 10.2683 7.03306Z" fill="white"/>
</svg>
