<svg width="24" height="24" viewBox="0 0 24 24" fill="none" xmlns="http://www.w3.org/2000/svg">
<path d="M12 24C18.6274 24 24 18.6274 24 12C24 5.37258 18.6274 0 12 0C5.37258 0 0 5.37258 0 12C0 18.6274 5.37258 24 12 24Z" fill="#E50571"/>
<path d="M18.5628 7.23703C18.3594 6.94668 17.7834 6.34533 17.2018 6.00173C16.7382 5.72284 16.2412 5.66859 15.6179 5.8494C15.5418 5.72836 15.4175 5.53839 15.3373 5.42625C14.627 4.42738 13.7511 3.77572 12.839 3.50796C11.1259 3.00413 9.03911 4.32133 8.5084 5.69332C7.74883 5.69926 6.99869 5.85851 6.33153 6.26422C4.7454 7.22797 4.83039 9.07586 5.06053 10.1996L5.16272 10.165C5.24997 9.87926 5.37804 9.13615 6.71475 8.463C6.71475 8.463 5.96242 9.2561 5.71222 10.3358C7.26982 9.93986 10.7854 10.3518 11.008 9.50344C10.7854 8.9391 8.82389 9.56409 7.91662 9.72704C6.80101 9.92753 5.82665 10.2468 5.0435 10.6264C3.67682 11.2913 2.90576 12.1434 3.0332 12.878C3.14362 13.5137 3.92554 13.7993 4.60605 13.9283L4.59745 13.8906C3.48936 13.5486 2.6237 12.7502 5.20962 11.8007C7.46864 10.9716 15.7126 10.3294 15.7126 10.3294C15.7126 10.3294 8.95242 11.8392 7.31496 12.6154C5.89943 13.2853 5.68301 13.845 5.63891 14.006C5.823 14.6181 6.08914 15.1991 6.42961 15.7322C6.32835 17.362 6.40697 20.0139 8.99423 20.5527C10.3469 20.8344 11.8519 19.8106 11.8519 19.8106L12.1594 19.5859C13.3983 18.5606 14.7395 17.0451 15.6084 15.1083C16.5841 12.9325 16.9084 11.3327 16.973 10.5663L17.0615 10.4024C18.502 12.222 18.6106 14.0547 18.4024 15.069C18.2426 15.8472 18.034 16.9203 16.9709 17.8708C16.3666 18.4136 15.3063 18.6712 14.8461 18.6884L14.7767 18.7675C15.5103 18.8456 16.342 18.4991 16.8164 18.2088C18.3265 17.2773 19.3151 15.8116 19.8215 13.3447C20.3645 10.6739 19.5143 8.59795 18.5628 7.23703ZM12.3648 6.67571C11.4279 6.23324 10.256 5.75028 8.77432 5.69644L8.79187 5.63928C9.29738 5.48138 10.338 5.29938 11.8087 5.87246C13.6229 6.57971 16.4782 9.45856 16.9332 10.0925C16.7849 9.93086 14.0418 7.4687 12.3648 6.67571ZM15.6363 12.4233C15.6363 12.4233 12.5166 17.3912 9.17754 17.6933C8.01627 17.798 7.01353 16.6756 6.60532 16.0952L6.60589 16.0072C7.01644 16.5789 8.12117 17.787 9.77873 17.1317C12.4075 16.0927 15.6084 12.7043 15.6084 12.7043L16.8975 10.471L15.6363 12.4233ZM17.0433 10.1154C17.041 10.0584 17.029 9.93794 17.0211 9.87432C16.8533 8.48253 16.3981 7.14873 15.6865 5.96398C16.327 5.79343 16.8471 5.83727 17.2065 6.13766C18.5767 7.28612 17.0422 10.1152 17.0422 10.1152L17.0433 10.1154Z" fill="white"/>
</svg>
