<svg width="24" height="24" viewBox="0 0 24 24" fill="none" xmlns="http://www.w3.org/2000/svg">
<path d="M12 24C18.6274 24 24 18.6274 24 12C24 5.37258 18.6274 0 12 0C5.37258 0 0 5.37258 0 12C0 18.6274 5.37258 24 12 24Z" fill="#E50571"/>
<path d="M11.637 20.1702C16.0018 20.1702 19.5402 16.6221 19.5402 12.2454C19.5402 7.86862 16.0018 4.32056 11.637 4.32056C7.27225 4.32056 3.73389 7.86862 3.73389 12.2454C3.73389 16.6221 7.27225 20.1702 11.637 20.1702Z" fill="white"/>
<path d="M15.5396 11.754C14.4785 12.4304 13.8998 13.7002 14.148 14.9902L14.1481 14.9908C14.3927 16.2431 15.3428 17.1922 16.5956 17.4366L16.5967 17.4368C17.006 17.5148 17.4258 17.5059 17.8326 17.4192C14.9364 20.1202 10.671 20.9473 7.22496 18.5324C5.80358 17.5251 4.87434 16.2274 4.36352 14.799L14.8625 11.6572L15.5396 11.754Z" fill="#E50571" stroke="white" stroke-width="0.5"/>
<path d="M14.3495 10.6914C16.0903 9.68709 18.2619 9.94315 19.7425 11.2573C18.5211 11.0598 17.2381 11.0528 16.2268 11.3899L16.2254 11.3904C14.8358 11.8629 13.8073 12.837 13.1078 14.0597C12.6144 14.9189 12.2782 15.4448 11.8774 15.8354C11.4832 16.2197 11.0125 16.4858 10.2253 16.7894L10.2236 16.79C8.88025 17.3188 7.59537 17.3326 6.5514 16.9332C5.51146 16.5353 4.69302 15.7214 4.28055 14.555C3.16639 10.9907 4.7733 7.12696 8.09689 5.3848L8.09769 5.38438C9.03609 4.88813 10.2007 4.44444 11.1713 4.16739L11.1713 4.1674L11.1733 4.16684C11.2403 4.14712 11.3113 4.12665 11.3855 4.10526C11.8295 3.97727 12.3886 3.81611 12.897 3.58552C13.3261 3.3909 13.7519 3.13292 14.0473 2.77544C14.0622 3.12458 14.0222 3.39086 13.9375 3.61862C13.8201 3.93458 13.6063 4.20501 13.2657 4.53194C12.9086 4.8619 12.5082 5.10989 12.0864 5.34133C11.952 5.41506 11.813 5.48831 11.6723 5.56245C11.3807 5.71612 11.0818 5.87358 10.8022 6.04694L10.8022 6.04682L10.7954 6.05136C9.42816 6.96221 8.98131 8.63084 9.91036 10.0235L9.91037 10.0235C10.4687 10.8604 11.3956 11.2867 12.3683 11.2867C12.6651 11.2867 12.9401 11.2572 13.2449 11.167C13.4053 11.1334 13.5607 11.0712 13.6927 11.0184L13.6962 11.017C13.9375 10.9262 14.1473 10.8066 14.3385 10.6977L14.3484 10.692L14.3495 10.6914Z" fill="#E50571" stroke="white" stroke-width="0.5"/>
</svg>
