<svg width="24" height="24" viewBox="0 0 24 24" fill="none" xmlns="http://www.w3.org/2000/svg">
<circle cx="12" cy="12" r="12" fill="black"/>
<path d="M4.18792 15.2207L4.18792 9.06529H5.02734L5.02734 15.2207H4.18792Z" fill="#8711FF"/>
<path d="M10.5676 20.3267L5.23683 17.249L5.65655 16.522L10.9873 19.5997L10.5676 20.3267Z" fill="#348EFF"/>
<path fill-rule="evenodd" clip-rule="evenodd" d="M6.17372 8.25286C6.23576 7.99586 6.23212 7.73103 6.16898 7.48143L11.3026 4.51749L10.8829 3.79053L5.75833 6.74923C5.65841 6.64742 5.54319 6.55732 5.41363 6.48252C4.65179 6.04268 3.67977 6.29669 3.22931 7.04849L3.21582 7.07142C2.77153 7.84095 3.03519 8.82494 3.80472 9.26923C4.45975 9.64741 5.27017 9.51264 5.77085 8.98955L9.11893 10.9226L9.53865 10.1956L6.17372 8.25286ZM4.99391 7.20949C5.36195 7.42197 5.48804 7.89258 5.27556 8.26061C5.06307 8.62864 4.59247 8.75474 4.22444 8.54226C3.8564 8.32977 3.7303 7.85917 3.94279 7.49113C4.15527 7.1231 4.62588 6.997 4.99391 7.20949Z" fill="#FF80C7"/>
<path fill-rule="evenodd" clip-rule="evenodd" d="M11.9995 2C11.111 2 10.3906 2.72033 10.3906 3.6089C10.3906 4.36047 10.906 4.99168 11.6025 5.16846V9.0652H12.442V5.15621C12.713 5.07886 12.9548 4.93222 13.147 4.73666L18.0525 7.56888L18.4722 6.84191L13.5592 4.00536C13.5914 3.87854 13.6084 3.74572 13.6084 3.6089C13.6084 2.72033 12.8881 2 11.9995 2ZM11.9995 2.83943C12.4245 2.83943 12.769 3.18393 12.769 3.6089C12.769 4.03387 12.4245 4.37838 11.9995 4.37838C11.5746 4.37838 11.2301 4.03387 11.2301 3.6089C11.2301 3.18393 11.5746 2.83943 11.9995 2.83943Z" fill="#FF4545"/>
<path d="M18.5862 6.48242C19.3557 6.03814 20.3397 6.3018 20.784 7.07132C21.2283 7.84085 20.9646 8.82484 20.1951 9.26913C20.0714 9.34053 19.9422 9.39365 19.8106 9.42932L19.8106 15.2205H18.9711L18.9711 9.42902C18.7042 9.35693 18.4557 9.21645 18.2542 9.01525L15.0928 10.8404C15.1238 10.9553 15.1482 11.0729 15.1656 11.1928L15.1684 11.2133L15.1709 11.2145C15.3105 11.2808 15.4076 11.4219 15.4106 11.5861L15.4107 11.5938C15.4107 11.823 15.2269 12.0093 14.9987 12.0134L14.9909 12.0135H14.7777C14.5525 12.0135 14.3681 11.8359 14.3584 11.6122L14.3581 11.6008C14.3382 10.4008 13.3684 9.43423 12.1709 9.41502L12.1346 9.41473C11.9028 9.41473 11.7148 9.22682 11.7148 8.99501C11.7148 8.76321 11.9028 8.5753 12.1346 8.5753C13.2489 8.5753 14.2257 9.17083 14.7617 10.0623L17.835 8.28793C17.653 7.60268 17.9428 6.8539 18.5862 6.48242ZM20.057 7.49104C19.8446 7.123 19.374 6.9969 19.0059 7.20939C18.6379 7.42187 18.5118 7.89248 18.7243 8.26051C18.9368 8.62855 19.4074 8.75465 19.7754 8.54216C20.1434 8.32968 20.2695 7.85907 20.057 7.49104Z" fill="#FFBF00"/>
<path d="M14.9915 11.1743C16.0832 11.1743 16.9682 12.0593 16.9682 13.151C16.9682 13.571 16.8372 13.9603 16.614 14.2805L18.2825 15.2437C18.786 14.7648 19.5632 14.6518 20.1956 15.0169C20.9652 15.4612 21.2288 16.4452 20.7845 17.2147C20.3402 17.9842 19.3562 18.2479 18.5867 17.8036C18.4457 17.7222 18.3217 17.6227 18.2159 17.5097L13.3172 20.3379L12.8975 19.611L17.8225 16.7676C17.7626 16.5053 17.7681 16.2277 17.8459 15.961L15.9621 14.8734C15.6754 15.0354 15.3442 15.1278 14.9915 15.1278C14.7597 15.1278 14.5717 14.9399 14.5717 14.7081C14.5717 14.4788 14.7555 14.2925 14.9837 14.2884L14.9915 14.2883C15.6196 14.2883 16.1288 13.7792 16.1288 13.151C16.1288 12.5292 15.6297 12.0239 15.0103 12.0139L14.9915 12.0137H14.7783C14.5465 12.0137 14.3585 11.8258 14.3585 11.594C14.3585 11.3648 14.5423 11.1785 14.7705 11.1744L14.7783 11.1743H14.9915ZM18.7248 16.0255C18.5123 16.3935 18.6384 16.8641 19.0064 17.0766C19.3745 17.2891 19.8451 17.163 20.0576 16.795C20.27 16.4269 20.1439 15.9563 19.7759 15.7438C19.4079 15.5314 18.9373 15.6575 18.7248 16.0255Z" fill="#00DE64"/>
<path fill-rule="evenodd" clip-rule="evenodd" d="M10.0092 10.9217C10.0092 10.6899 9.82127 10.502 9.58947 10.502H9.34549L9.30724 10.5023C8.04757 10.5227 7.03271 11.5502 7.03271 12.8147C7.03271 13.3521 7.216 13.8467 7.52346 14.2394L5.74263 15.2675C5.24012 14.7684 4.44758 14.6454 3.80472 15.0166C3.03519 15.4609 2.77153 16.4449 3.21582 17.2144C3.66011 17.9839 4.6441 18.2476 5.41363 17.8033C6.05832 17.4311 6.34796 16.6801 6.16371 15.9937L8.19452 14.8212C8.53347 15.0161 8.92647 15.1275 9.34549 15.1275C9.57729 15.1275 9.7652 14.9396 9.7652 14.7078C9.7652 14.476 9.57729 14.2881 9.34549 14.2881L9.32112 14.2879C8.51866 14.2749 7.87214 13.6203 7.87214 12.8147C7.87214 12.001 8.53178 11.3414 9.34549 11.3414H9.58947L9.59718 11.3413C9.82542 11.3372 10.0092 11.1509 10.0092 10.9217ZM5.27556 16.0252C5.48804 16.3933 5.36195 16.8639 4.99391 17.0763C4.62588 17.2888 4.15527 17.1627 3.94279 16.7947C3.7303 16.4267 3.8564 15.9561 4.22444 15.7436C4.59247 15.5311 5.06307 15.6572 5.27556 16.0252Z" fill="#8711FF"/>
<path fill-rule="evenodd" clip-rule="evenodd" d="M15.4108 14.7078C15.4108 14.476 15.2229 14.2881 14.9911 14.2881H9.3455L9.33779 14.2882C9.10954 14.2923 8.92578 14.4786 8.92578 14.7078C8.92578 14.9396 9.11369 15.1275 9.3455 15.1275H11.592V19.1204C10.901 19.301 10.3911 19.9295 10.3911 20.6771C10.3911 21.5657 11.1114 22.286 12 22.286C12.8886 22.286 13.6089 21.5657 13.6089 20.6771C13.6089 19.9379 13.1105 19.3152 12.4314 19.1267V15.1275H14.9911L14.9988 15.1274C15.227 15.1233 15.4108 14.937 15.4108 14.7078ZM12 19.9076C12.425 19.9076 12.7695 20.2521 12.7695 20.6771C12.7695 21.1021 12.425 21.4466 12 21.4466C11.575 21.4466 11.2305 21.1021 11.2305 20.6771C11.2305 20.2521 11.575 19.9076 12 19.9076Z" fill="#348EFF"/>
<path d="M12.1349 8.57568C12.9354 8.57568 13.6884 8.88461 14.2547 9.42757C14.422 9.58799 14.4276 9.85368 14.2672 10.021C14.1088 10.1862 13.8477 10.1937 13.6801 10.0394L13.6738 10.0335C13.2622 9.63892 12.7167 9.41511 12.1349 9.41511C11.1422 9.41511 10.2785 10.0714 10.002 11.0072L9.9938 11.0356C9.93107 11.2588 9.69932 11.3888 9.47617 11.3261C9.25301 11.2634 9.12296 11.0316 9.18569 10.8085C9.55411 9.49781 10.7536 8.57568 12.1349 8.57568Z" fill="#FF4545"/>
<path d="M10.4535 9.5564C10.6234 9.7098 10.6388 9.97058 10.4895 10.1428L10.4838 10.1492C10.2561 10.4014 10.0887 10.7022 9.99568 11.0295C9.98758 11.0603 9.97601 11.0897 9.96147 11.1173C9.93559 11.1666 9.9006 11.2093 9.85927 11.2438L9.84867 11.2523C9.84572 11.2546 9.84273 11.2569 9.83971 11.2591C9.79729 11.2906 9.74873 11.3142 9.69617 11.3279L9.67871 11.3321C9.64695 11.339 9.61414 11.3422 9.5809 11.3415L9.34599 11.3415C9.05221 11.3415 8.77226 11.4272 8.53324 11.5857L8.51976 11.5947C8.32798 11.7249 8.06696 11.675 7.93676 11.4832C7.80656 11.2915 7.85649 11.0304 8.04827 10.9002C8.41296 10.6526 8.84121 10.5135 9.28955 10.5027C9.42396 10.1663 9.61746 9.85619 9.86068 9.58673C10.016 9.41466 10.2814 9.40108 10.4535 9.5564Z" fill="#FF80C7"/>
</svg>
