<svg width="24" height="24" viewBox="0 0 24 24" fill="none" xmlns="http://www.w3.org/2000/svg">
<g clip-path="url(#clip0_1744_5809)">
<mask id="mask0_1744_5809" style="mask-type:alpha" maskUnits="userSpaceOnUse" x="0" y="0" width="24" height="24">
<path d="M12 24C18.6274 24 24 18.6274 24 12C24 5.37259 18.6274 0 12 0C5.37259 0 0 5.37259 0 12C0 18.6274 5.37259 24 12 24Z" fill="#D9D9D9"/>
</mask>
<g mask="url(#mask0_1744_5809)">
<path d="M24 0H0V24H24V0Z" fill="#E50571"/>
<path fill-rule="evenodd" clip-rule="evenodd" d="M17.0843 5.57107C17.9305 6.18581 18.4006 6.73805 18.5469 7.29024C18.6409 7.60282 18.5573 7.97794 18.3484 8.25926C18.1394 8.54054 17.8052 8.69683 17.4186 8.69683C17.2724 8.69683 17.1154 8.67446 16.9693 8.6328C17.0135 8.51438 17.0624 8.39194 17.1155 8.26949C17.1573 8.2799 17.2096 8.2799 17.2618 8.2799C17.3871 8.2799 17.5334 8.25902 17.6484 8.16528C17.7318 8.10278 17.826 7.98816 17.8155 7.77974C17.8155 7.58179 17.6588 7.33171 17.3349 7.02955C17.1051 6.81077 16.7917 6.57111 16.4783 6.35232C15.5798 5.75842 14.953 5.59171 14.6709 5.87304C14.4829 6.06058 14.5037 6.28982 14.5664 6.45653C14.4356 6.54216 14.3128 6.61819 14.2004 6.6853C13.9295 6.27941 13.9155 5.78986 14.1486 5.35229C14.2948 5.07096 14.5247 4.88342 14.7859 4.8313C14.8903 4.81046 14.9948 4.80005 15.1098 4.80005C15.6843 4.80005 16.4052 5.08138 17.0843 5.57107ZM14.1236 7.08758C14.4578 6.91046 14.9425 6.60235 15.4962 6.16479C15.7052 6.24811 15.9768 6.39399 16.3111 6.61282C16.7081 6.87327 17.0528 7.16501 17.2723 7.39426C16.9072 7.87272 16.6671 8.52773 16.5208 8.98603C17.313 10.0223 17.7841 11.3157 17.7841 12.7187C17.7841 16.1257 15.0157 18.8869 11.5995 18.8869C8.18329 18.8869 5.41479 16.1257 5.41479 12.7187C5.41479 9.31157 8.18329 6.55046 11.5995 6.55046C12.4965 6.55046 13.3502 6.74203 14.1209 7.08648L14.1236 7.08758ZM11.5995 18.5431C8.37131 18.5431 5.75953 15.9383 5.75953 12.7187C5.75953 9.49915 8.37131 6.89429 11.5995 6.89429C14.8276 6.89429 17.4395 9.49915 17.4395 12.7187C17.4395 15.9383 14.8172 18.5431 11.5995 18.5431ZM17.5125 7.79016C17.5125 7.75891 17.5021 7.70683 17.4708 7.65475C17.3976 7.75891 17.3245 7.86312 17.2618 7.98816C17.3349 7.98816 17.4185 7.96733 17.4602 7.93603C17.4812 7.9152 17.5125 7.88395 17.5125 7.79016ZM15.1411 6.07099C15.0052 6.05016 14.9216 6.07099 14.8903 6.10224C14.8276 6.15437 14.8172 6.22728 14.8276 6.30019C14.9321 6.22728 15.0365 6.15437 15.1411 6.07099ZM14.5559 11.5934C16.029 11.7183 17.1468 12.0307 17.1468 12.6663C17.1468 15.7191 14.6604 18.1989 11.5994 18.1989C8.56667 18.1989 6.08771 15.7647 6.04215 12.7507C6.04172 12.74 6.04148 12.7293 6.04148 12.7186C6.04148 12.7134 6.04153 12.7081 6.04163 12.7029C6.04153 12.6907 6.04153 12.6785 6.04153 12.6663H6.04297C6.08276 11.9695 6.93529 11.9935 8.45478 12.1664C9.15476 12.2497 10.1159 12.3018 11.1815 11.9893C12.4143 11.6142 13.4903 11.5099 14.5559 11.5934ZM11.3018 12.392L11.2998 12.3926C10.1564 12.728 9.13095 12.6701 8.4062 12.5839C7.61363 12.4937 7.07209 12.4543 6.73182 12.5096C6.56728 12.5364 6.50828 12.5773 6.49124 12.5937L6.49072 12.5942C6.48548 12.599 6.46182 12.6206 6.46182 12.7186C6.46182 12.8448 6.52878 13.0341 6.74358 13.2592C6.95497 13.4808 7.28401 13.708 7.72979 13.8991C8.61908 14.2804 9.92435 14.4968 11.5195 14.2717C12.7033 14.103 13.4378 13.8159 14.1555 13.5354C14.427 13.4293 14.696 13.3241 14.9861 13.2266L14.9874 13.2263L14.9886 13.2258C15.2746 13.1317 15.5488 13.0627 15.7908 13.0045C15.8343 12.994 15.8764 12.984 15.9171 12.9743L15.9205 12.9734L15.9214 12.9732C16.1114 12.9279 16.271 12.8898 16.4099 12.8478C16.5839 12.795 16.6708 12.7508 16.7107 12.7191C16.7127 12.7175 16.7144 12.716 16.7159 12.7147C16.7133 12.6746 16.6686 12.527 16.2411 12.3542C15.837 12.1909 15.2402 12.0733 14.5217 12.0122C13.5108 11.9334 12.4877 12.0312 11.3038 12.3913L11.3018 12.392ZM13.4173 10.0931C13.9366 10.0931 14.3574 9.67325 14.3574 9.15533C14.3574 8.63746 13.9366 8.2176 13.4173 8.2176C12.898 8.2176 12.477 8.63746 12.477 9.15533C12.477 9.67325 12.898 10.0931 13.4173 10.0931ZM15.35 10.3956C15.35 10.6143 15.1722 10.7916 14.953 10.7916C14.7337 10.7916 14.556 10.6143 14.556 10.3956C14.556 10.177 14.7337 9.9997 14.953 9.9997C15.1722 9.9997 15.35 10.177 15.35 10.3956Z" fill="white"/>
</g>
</g>
<defs>
<clipPath id="clip0_1744_5809">
<rect width="24" height="24" fill="white"/>
</clipPath>
</defs>
</svg>
