<svg width="24" height="24" viewBox="0 0 24 24" fill="none" xmlns="http://www.w3.org/2000/svg">
<circle cx="12" cy="12" r="12" fill="url(#paint0_linear)"/>
<path fill-rule="evenodd" clip-rule="evenodd" d="M12.3361 18.9213C12.4093 18.9689 12.4946 18.9942 12.5818 18.9941L12.5819 18.9936C12.6675 18.9929 12.7512 18.9685 12.8238 18.9231L19.4888 14.6229C19.8063 14.4184 19.9979 14.0652 19.9967 13.6864V12.4017C20.0006 12.2676 19.9475 12.1382 19.8508 12.0458C19.6993 11.9085 19.4751 11.89 19.3033 12.0006L12.5129 16.3504C12.5086 16.3534 12.5029 16.3534 12.4986 16.3504L5.84113 12.1015C5.67767 11.9973 5.57895 11.8161 5.57968 11.6217V10.4109C5.57944 10.4085 5.57997 10.4061 5.58118 10.404C5.58502 10.3978 5.59306 10.3958 5.59933 10.3995L12.3478 14.6657C12.4958 14.7583 12.6834 14.7583 12.8314 14.6657L19.7881 10.2551C19.9197 10.1713 19.9994 10.0257 19.9994 9.86924C19.9994 9.71277 19.9197 9.56717 19.7881 9.48335L12.8904 5.07128C12.7484 4.9805 12.568 4.97612 12.4218 5.05991L12.4143 5.06443L5.27923 9.73361L5.15 9.8224L5.1275 9.84062C5.04546 9.92563 4.99971 10.0394 5 10.1578V11.6224C4.99988 12.0169 5.20206 12.3837 5.53505 12.593L12.2611 16.8898C12.4099 16.9847 12.5999 16.9847 12.7486 16.8898L19.4046 12.6333C19.4065 12.6325 19.4086 12.6319 19.4107 12.6318C19.4181 12.6317 19.4243 12.6373 19.425 12.6447V13.6915C19.4254 13.8714 19.3341 14.039 19.1831 14.1358L12.5929 18.3878C12.5886 18.3908 12.5829 18.3908 12.5786 18.3878L5.6249 13.8907C5.6197 13.8861 5.61195 13.8861 5.60675 13.8907L5.3075 14.3581C5.30296 14.3633 5.30296 14.3711 5.3075 14.3763L12.3361 18.9213ZM12.5817 14.1252L6.01873 9.97264C6.0178 9.97178 6.01704 9.97076 6.01648 9.96963C6.01406 9.96675 6.01293 9.96301 6.01336 9.95927C6.01378 9.95554 6.01573 9.95214 6.01873 9.94989L12.6432 5.6114C12.6475 5.60839 12.6532 5.60839 12.6575 5.6114L19.2913 9.85659C19.2928 9.85744 19.2942 9.85875 19.295 9.86035C19.2971 9.86322 19.2978 9.86683 19.2971 9.87029C19.2964 9.87375 19.2943 9.87676 19.2913 9.87858L12.596 14.1252C12.5917 14.1282 12.586 14.1282 12.5817 14.1252Z" fill="white"/>
<defs>
<linearGradient id="paint0_linear" x1="2.21485e-06" y1="10.9669" x2="24.0009" y2="10.9669" gradientUnits="userSpaceOnUse">
<stop stop-color="white"/>
<stop stop-color="#21BBC0"/>
<stop offset="0.34" stop-color="#20B9C0"/>
<stop offset="1" stop-color="#1387C9"/>
</linearGradient>
</defs>
</svg>
