<svg width="24" height="24" viewBox="0 0 24 24" fill="none" xmlns="http://www.w3.org/2000/svg">
<circle cx="12" cy="12" r="12" fill="#E50571"/>
<path d="M12.3095 18.9733C10.632 18.9733 9.25712 18.6007 8.18485 17.8555C7.20013 17.171 6.57273 16.2171 6.30275 14.9939C6.2615 14.807 6.37792 14.6249 6.55873 14.5768L8.87966 13.9609C9.07991 13.9079 9.28086 14.0389 9.33681 14.2433C9.45812 14.6867 9.62752 15.048 9.84516 15.327C10.139 15.6819 10.4936 15.9391 10.9087 16.0988C11.3411 16.2408 11.808 16.3117 12.3095 16.3117C13.0705 16.3117 13.6326 16.1786 13.9957 15.9125C14.3589 15.6286 14.5406 15.2826 14.5406 14.8746C14.5406 14.4665 14.3675 14.1559 14.0216 13.9429C13.6757 13.7123 13.1223 13.526 12.3614 13.384L11.6351 13.251C10.7357 13.0735 9.9143 12.8339 9.17064 12.5324C8.42693 12.2129 7.83033 11.7782 7.38067 11.2282C6.93107 10.6781 6.70626 9.96831 6.70626 9.09892C6.70626 7.78586 7.17315 6.78337 8.10704 6.0913C9.04098 5.38157 10.2688 5.02673 11.7907 5.02673C13.2261 5.02673 14.4194 5.35497 15.3706 6.01145C16.2172 6.59583 16.8035 7.3418 17.1294 8.24946C17.1972 8.43803 17.0888 8.64043 16.9017 8.6995L14.5805 9.43233C14.3779 9.49625 14.1682 9.36653 14.0995 9.16085C13.9416 8.68868 13.6907 8.33976 13.3472 8.11415C12.9321 7.83023 12.4133 7.68829 11.7907 7.68829C11.1681 7.68829 10.6925 7.80363 10.3639 8.0343C10.0353 8.2472 9.871 8.54884 9.871 8.93927C9.871 9.36508 10.044 9.68449 10.3899 9.89739C10.7357 10.0925 11.2026 10.2434 11.7907 10.3498L12.517 10.4829C13.4855 10.6603 14.3589 10.8998 15.1372 11.2015C15.9327 11.4854 16.5553 11.9024 17.0049 12.4524C17.4718 12.9848 17.7053 13.7123 17.7053 14.6351C17.7053 16.019 17.2124 17.0925 16.2266 17.8555C15.2582 18.6007 13.9525 18.9733 12.3095 18.9733Z" fill="white"/>
</svg>
