<svg width="24" height="24" viewBox="0 0 24 24" fill="none" xmlns="http://www.w3.org/2000/svg">
<circle cx="12" cy="12" r="12" fill="black"/>
<path d="M7.30141 5.04492L19.7306 13.5315L16.6567 18.0755L4.22754 9.52209L7.30141 5.04492Z" fill="url(#paint0_linear)"/>
<path d="M19.7308 13.5315C18.6616 15.0684 15.0531 14.467 11.6451 12.0614C8.17033 9.72254 6.29928 6.58184 7.30163 5.0449C8.3708 3.50796 11.9793 4.10937 15.3873 6.51501C18.8621 8.78701 20.7331 11.9945 19.7308 13.5315Z" fill="url(#paint1_linear)"/>
<path d="M16.6567 18.0084C15.5875 19.5454 11.9791 18.944 8.57109 16.5383C5.1631 14.1327 3.22522 11.0588 4.2944 9.45506C5.36357 7.91812 8.97203 8.51953 12.38 10.9252C15.788 13.3308 17.6591 16.4715 16.6567 18.0084Z" fill="url(#paint2_linear)"/>
<path d="M19.7308 13.5313L16.6569 18.0753C15.5877 19.6122 11.9792 18.944 8.57125 16.6051C7.90302 16.1374 7.30161 15.6696 6.7002 15.135C7.16796 15.0682 7.76937 14.8009 8.37078 14.1327C9.43995 12.9967 9.97454 12.7294 10.4423 12.7962C10.9101 12.7962 11.4447 13.264 12.3134 14.4C13.1821 15.536 14.3849 15.8701 15.1199 15.2687C15.1868 15.2019 15.2536 15.2019 15.3204 15.135C15.9218 14.6673 16.1223 14.4668 17.2583 12.3284C17.5256 11.7939 18.4611 10.9252 19.7308 11.3261C20.0649 12.1948 20.0649 12.9299 19.7308 13.5313Z" fill="#0E0F23"/>
<path fill-rule="evenodd" clip-rule="evenodd" d="M19.2631 13.2642C18.3276 14.6007 15.0532 13.9324 11.9125 11.7273C8.70502 9.52209 6.83397 6.71551 7.7695 5.37904C8.70502 4.04257 11.9794 4.7108 15.1201 6.91598C18.2608 9.12115 20.1318 11.9277 19.2631 13.2642ZM16.3229 11.2595C15.8551 11.9277 14.2514 11.5936 12.6476 10.5244C11.1107 9.45526 10.1751 8.05197 10.6429 7.38374C11.1107 6.71551 12.7144 7.04962 14.3182 8.1188C15.8551 9.18797 16.7907 10.5913 16.3229 11.2595Z" fill="white"/>
<path d="M7.0339 6.58181C7.0339 6.51498 6.96707 6.44816 6.90025 6.51498C6.83343 6.58181 6.7666 6.58181 6.7666 6.64863C6.83342 6.8491 6.90025 6.98275 6.90025 7.11639C6.90025 7.18322 6.96707 7.25004 7.0339 7.18322C7.10072 7.18322 7.16754 7.11639 7.10072 7.04957C7.10072 6.91592 7.10072 6.78228 7.0339 6.58181Z" fill="white"/>
<path d="M7.36844 7.65065C7.36844 7.58383 7.30162 7.51701 7.23479 7.58383C7.16797 7.65065 7.16797 7.65066 7.16797 7.71748C7.90303 9.38806 9.43996 11.1923 11.4447 12.5288C11.5115 12.5956 11.5783 12.5288 11.6451 12.5288C11.712 12.4619 11.6451 12.3951 11.6451 12.3283C9.57361 10.9918 8.1035 9.25442 7.36844 7.65065Z" fill="white"/>
<path d="M15.454 14.1997C15.3871 14.1997 15.3203 14.1997 15.3203 14.2665C15.3203 14.3334 15.3203 14.4002 15.3871 14.4002C15.5876 14.467 15.8549 14.5338 16.0554 14.6006C16.1222 14.6006 16.189 14.6006 16.189 14.5338C16.189 14.467 16.189 14.4002 16.1222 14.4002C15.9217 14.3334 15.6544 14.2665 15.454 14.1997Z" fill="white"/>
<path d="M16.6571 14.4668C16.5903 14.4668 16.5234 14.5336 16.5234 14.6004C16.5234 14.6673 16.5903 14.7341 16.6571 14.7341C17.1917 14.8009 17.7931 14.8677 18.2608 14.8009C18.3277 14.8009 18.3945 14.7341 18.3945 14.6673C18.3945 14.6004 18.3277 14.5336 18.2608 14.5336C17.7263 14.6004 17.1917 14.5336 16.6571 14.4668Z" fill="white"/>
<defs>
<linearGradient id="paint0_linear" x1="9.73659" y1="3.83829" x2="12.2014" y2="12.3023" gradientUnits="userSpaceOnUse">
<stop stop-color="#03B8FF"/>
<stop offset="1" stop-color="#FA52A0"/>
</linearGradient>
<linearGradient id="paint1_linear" x1="11.7666" y1="3.24708" x2="14.2315" y2="11.7111" gradientUnits="userSpaceOnUse">
<stop stop-color="#03B8FF"/>
<stop offset="1" stop-color="#FA52A0"/>
</linearGradient>
<linearGradient id="paint2_linear" x1="7.71308" y1="4.42733" x2="10.178" y2="12.8914" gradientUnits="userSpaceOnUse">
<stop stop-color="#03B8FF"/>
<stop offset="1" stop-color="#FA52A0"/>
</linearGradient>
</defs>
</svg>
