<svg width="24" height="24" viewBox="0 0 24 24" fill="none" xmlns="http://www.w3.org/2000/svg">
<circle cx="12" cy="12" r="12" fill="#14C8FF"/>
<path d="M20.172 7.93033C20.7417 8.39203 21.1008 9.34693 20.9748 10.048L19.7508 16.8196C19.623 17.5252 18.948 18.3019 18.2532 18.5458L11.5761 20.8903C10.8813 21.1342 9.8481 20.9578 9.2793 20.4961L3.8271 16.0708C3.2574 15.6091 2.8974 14.6587 3.0261 13.9531L4.2501 7.18153C4.377 6.47593 5.052 5.70013 5.7477 5.45533L12.4257 3.10993C13.1214 2.86513 14.1537 3.04333 14.7234 3.50413L20.172 7.93033ZM14.4921 10.9705L14.7639 9.59353L12.2151 9.59803L12.5751 7.78363H11.7516C11.1576 8.69396 10.2924 9.39449 9.2784 9.78613L9.0471 10.9732H10.1613C10.1613 10.9732 9.7842 12.6778 9.6573 13.3069C9.3423 14.9089 10.1343 16.0447 11.3511 16.0447H13.4103L13.7703 14.5237H12.0477C11.2827 14.5237 11.3232 14.1052 11.4717 13.3627L11.946 10.9669L14.4921 10.9705Z" fill="white"/>
</svg>
