<svg width="24" height="24" viewBox="0 0 24 24" fill="none" xmlns="http://www.w3.org/2000/svg">
<circle cx="12" cy="12" r="12" fill="url(#paint0_linear)"/>
<path fill-rule="evenodd" clip-rule="evenodd" d="M15.2638 11.2801L15.2677 11.2787C15.6832 11.1394 16.3511 10.9156 16.3918 9.50405C16.5031 9.67461 16.6608 9.85713 16.8398 10.0644C17.6912 11.0501 19.0264 12.596 18.1678 16.0801C17.7454 17.7241 16.171 18.5233 14.6878 19.1281C13.7614 19.5217 12.8158 20.1793 12.4318 21.1681C12.4318 21.1681 5.42136 20.2825 5.63976 13.3201C5.74993 11.0488 7.12891 9.66002 8.49368 8.28559C9.29928 7.47429 10.0999 6.66797 10.6318 5.68805C11.395 4.02245 11.1358 2.35205 11.1358 2.35205C11.1358 2.35205 15.5998 5.12885 13.5838 9.40805C12.9286 10.9201 14.4934 11.4313 15.2638 11.2801ZM8.37573 14.856V12.528H15.6477V14.856H13.1757V17.328H10.8477V14.856H8.37573Z" fill="white"/>
<path d="M16.6077 8.32804C16.5545 8.39142 16.5212 8.4819 16.4898 8.56717C16.4321 8.72405 16.3808 8.86333 16.2238 8.78403C16.2238 8.78403 14.5366 8.13844 15.5758 6.24004C15.6392 6.14089 15.703 6.06265 15.7635 5.98865C15.9707 5.73487 16.1372 5.53093 16.1038 4.70405C16.1542 4.78063 16.227 4.87221 16.312 4.97919C16.664 5.42201 17.2256 6.12868 17.2797 7.12804C17.3315 7.7663 17.0496 7.97816 16.8056 8.16156C16.733 8.21608 16.6638 8.26809 16.6077 8.32804Z" fill="white"/>
<defs>
<linearGradient id="paint0_linear" x1="0" y1="12" x2="24" y2="12" gradientUnits="userSpaceOnUse">
<stop stop-color="#FFA50D"/>
<stop offset="1" stop-color="#FE5413"/>
</linearGradient>
</defs>
</svg>
