<svg width="24" height="24" viewBox="0 0 24 24" fill="none" xmlns="http://www.w3.org/2000/svg">
<circle cx="12" cy="12" r="12" fill="#EACB7D"/>
<path d="M13.7417 5.30122C13.5786 4.96808 13.4238 4.63077 13.2691 4.29372C13.1688 4.07521 13.0686 3.8568 12.9662 3.63971C12.9481 3.61488 12.9292 3.58716 12.9091 3.55755C12.7564 3.33293 12.5301 3 12 3C11.4 3 11 3.5 10.9565 3.67085C10.8942 3.81803 10.832 3.96522 10.764 4.10958C10.5348 4.59359 10.3027 5.07478 10.0649 5.55597C9.96582 5.75411 9.96016 5.95224 10.0253 6.15887C10.1158 6.44475 10.2545 6.70516 10.4527 6.9316C10.8235 7.35335 11.2679 7.64772 11.8481 7.66188C12.6803 7.68452 13.4757 7.10426 13.7814 6.26926C13.9002 5.94092 13.9031 5.62673 13.7417 5.30122Z" fill="black"/>
<path d="M20 18.4263L19.9945 18.4408C19.9879 18.4577 19.9818 18.4737 19.9773 18.4914C19.8839 18.8368 19.7028 19.0066 19.3518 19.0123C18.8604 19.0222 18.3704 19.0224 17.8799 19.0226C17.6698 19.0226 17.4592 19.0227 17.2487 19.0236C17.0676 19.0236 16.9657 18.9104 16.8864 18.7717C16.6854 18.4122 16.6317 18.0244 16.7024 17.6253C16.8694 16.6799 17.6308 16.0204 18.5932 15.9694C18.8027 15.9581 18.947 16.0345 19.0404 16.2185C19.2103 16.5554 19.3773 16.8894 19.5443 17.229C19.6405 17.4215 19.7367 17.6168 19.8217 17.8149C19.8739 17.9412 19.9161 18.0707 19.9585 18.201C19.9713 18.2402 19.9841 18.2795 19.9972 18.3188C20 18.3527 20 18.3896 20 18.4263Z" fill="black"/>
<path d="M12.8841 18.0074V19.0887C13.252 18.9528 13.586 18.8311 13.9229 18.7094C16.1024 17.9197 17.3167 15.9638 17.4271 13.8664C17.4667 13.1418 17.2827 12.4681 16.9261 11.8397C16.8326 11.6756 16.7138 11.5623 16.5043 11.5623C15.8388 11.5657 15.1723 11.5661 14.506 11.5664C14.0616 11.5666 13.6166 11.5669 13.1728 11.568C12.9916 11.568 12.9237 11.6388 12.9067 11.8227C12.9011 11.8794 12.9011 11.936 12.9011 11.9926L12.8841 18.0074Z" fill="black"/>
<path d="M11.0895 19.0208C8.99495 18.4518 7.24286 17.3819 6.63996 14.6306C6.44182 13.7192 6.50409 12.8247 6.94565 11.9784C6.94848 11.9728 6.95163 11.9671 6.95478 11.9614C6.96107 11.9501 6.96736 11.9388 6.97113 11.9275C7.09284 11.6218 7.31928 11.5029 7.64479 11.5057C8.26974 11.5108 8.89366 11.5098 9.51779 11.5088C9.93394 11.5081 10.3502 11.5074 10.7669 11.5086C10.9905 11.5086 11.0556 11.5822 11.0584 11.8312C11.0669 12.5883 11.0697 13.3454 11.0725 14.0997L11.0726 14.1041C11.0754 14.891 11.0775 15.6772 11.0796 16.4634C11.0817 17.2495 11.0839 18.0358 11.0867 18.8226C11.0895 18.8849 11.0895 18.9443 11.0895 19.0208Z" fill="black"/>
<path d="M7.46082 10.8688H11.599C11.599 10.9821 11.599 11.0613 11.5962 11.1406C11.5976 12.391 11.5983 13.6422 11.599 14.8937L11.599 14.9055C11.5997 16.16 11.6005 17.4149 11.6019 18.6698C11.6019 19.0321 11.6019 19.0321 11.9642 19.0462C12.2557 19.0575 12.3604 18.9556 12.3604 18.6669L12.3689 11.0104V10.8349H16.4364C16.3005 10.5631 16.1562 10.3424 15.9495 10.1669C15.7854 10.031 15.6071 9.96025 15.3834 9.96025C13.6065 9.96874 11.8296 9.97245 10.0527 9.97617C9.46048 9.97741 8.86825 9.97865 8.27601 9.98006C8.21374 9.98006 8.14581 9.99421 8.08637 10.0169C7.7185 10.1607 7.59929 10.4883 7.4699 10.8439L7.46082 10.8688Z" fill="black"/>
<path d="M5.58134 19.0377H4.57934C4.31893 19.0377 4.02455 18.7915 4.00474 18.5311C3.99342 18.3811 3.99908 18.2112 4.05852 18.0782C4.31499 17.5171 4.58912 16.9637 4.86186 16.413L4.91051 16.3148C4.99542 16.1449 5.11996 16.0997 5.30961 16.128C5.8559 16.2072 6.34841 16.4025 6.70505 16.8412C7.14095 17.379 7.29097 17.9791 7.05887 18.65C6.9598 18.9387 6.8296 19.0292 6.52673 19.0349C6.31722 19.0387 6.10646 19.0374 5.89611 19.0362H5.89374C5.78943 19.0355 5.68523 19.0349 5.58134 19.0349V19.0377Z" fill="black"/>
<path d="M8.69772 9.34321H14.8484C14.8513 9.33189 14.8541 9.32055 14.8569 9.30358C14.8032 9.26415 14.7502 9.22359 14.6974 9.18306C14.5832 9.09557 14.4693 9.00823 14.3474 8.93278C13.32 8.29592 12.1991 8.17137 11.0329 8.35819C10.2092 8.49122 9.47328 8.86202 8.76565 9.28943C8.75146 9.2983 8.73838 9.30939 8.72432 9.32132C8.71595 9.32841 8.70722 9.33582 8.69772 9.34321Z" fill="black"/>
<path d="M13.9453 7.13706C14.0805 6.94945 14.2167 6.76035 14.356 6.56647C14.4923 6.84344 14.6273 7.117 14.7613 7.38863L14.7623 7.39057C14.9731 7.81782 15.1816 8.24033 15.3891 8.66388C15.3834 8.67238 15.375 8.68087 15.3693 8.68653C14.8215 8.42873 14.2693 8.17093 13.709 7.90932L13.47 7.79775C13.627 7.57881 13.7825 7.36309 13.9393 7.14544L13.9453 7.13706Z" fill="black"/>
<path d="M9.70166 6.92318L9.51012 6.67969C9.20726 7.31939 8.91854 7.93361 8.63266 8.545C8.64398 8.55349 8.65247 8.56199 8.66097 8.57048C8.99185 8.42232 9.32369 8.27417 9.65927 8.12434L10.3904 7.79775C10.1569 7.50191 9.93347 7.2179 9.70166 6.92318Z" fill="black"/>
<path d="M17.9111 13.8862C18.0042 14.077 18.0977 14.2679 18.192 14.4601C18.327 14.7354 18.4634 15.0136 18.6017 15.2986C18.453 15.3397 18.3074 15.3803 18.1605 15.4212C17.9635 15.4762 17.764 15.5318 17.5516 15.5902C17.6646 15.0081 17.772 14.4515 17.8793 13.8948L17.8799 13.8918C17.8844 13.8903 17.8897 13.8896 17.8954 13.8889C17.9004 13.8882 17.9058 13.8875 17.9111 13.8862Z" fill="black"/>
<path d="M7.58818 19.0151H9.1846C8.69492 18.6556 8.23637 18.316 7.75518 17.9593C7.72846 18.126 7.70345 18.2859 7.67887 18.443C7.64879 18.6352 7.61934 18.8235 7.58818 19.0151Z" fill="black"/>
<path d="M16.3175 18.9953H14.6815C14.9305 18.8111 15.1718 18.6331 15.4118 18.456C15.6329 18.2929 15.853 18.1305 16.0769 17.965L16.1509 18.2804C16.2071 18.5195 16.2623 18.7547 16.3175 18.9953Z" fill="black"/>
<path d="M5.91366 15.6339C6.05352 15.6724 6.19537 15.7115 6.34276 15.7515L6.33085 15.6986C6.2078 15.1517 6.08997 14.628 5.97479 14.107C5.96772 14.107 5.96135 14.1063 5.95498 14.1055C5.94861 14.1048 5.94224 14.1041 5.93517 14.1041C5.79514 14.4031 5.65512 14.7008 5.51172 15.0057C5.4406 15.1569 5.36866 15.3098 5.29547 15.4656C5.50478 15.5213 5.70704 15.577 5.91366 15.6339Z" fill="black"/>
</svg>
