<svg width="24" height="24" viewBox="0 0 24 24" fill="none" xmlns="http://www.w3.org/2000/svg">
<circle cx="12" cy="12" r="12" fill="#252A43"/>
<path d="M18.7531 7.44941C18.6717 7.61007 18.5242 7.67772 18.3783 7.74457C18.3235 7.76971 18.2689 7.79473 18.2182 7.82453C17.2645 8.3792 16.3094 8.93112 15.3539 9.48323C14.6181 9.9084 13.8821 10.3337 13.1464 10.7604C12.4565 11.1604 11.7742 11.1853 11.0727 10.7805C10.0467 10.187 9.01796 9.59687 7.98956 9.007C7.21572 8.56313 6.4419 8.11927 5.66987 7.67429C5.6571 7.66715 5.64411 7.6602 5.6311 7.65324C5.5466 7.60806 5.46119 7.56239 5.42967 7.45707C6.90049 6.85133 17.066 6.84654 18.7531 7.44941Z" fill="#87C44C"/>
<path d="M5 7.95181C5.58414 8.20796 6.09079 8.51509 6.58359 8.81383C6.84561 8.97267 7.10371 9.12913 7.36746 9.2743C8.2043 9.74014 9.03504 10.2253 9.86524 10.7101C10.1742 10.8906 10.4832 11.071 10.7923 11.2504C11.3981 11.6016 11.7799 12.1193 11.7856 12.8274C11.7965 14.2947 11.7929 15.7598 11.7893 17.2251C11.7875 17.9578 11.7856 18.6905 11.7856 19.4236C11.7766 19.4925 11.7626 19.5606 11.7435 19.6274C8.97877 16.0579 6.7103 12.1303 5 7.95181Z" fill="#87C44C"/>
<path d="M12.4412 19.5652C15.177 16.0525 17.3865 12.16 19 8.01018C18.459 8.31841 17.917 8.62496 17.3751 8.93149C15.9991 9.70985 14.6232 10.4881 13.2632 11.2934C12.666 11.6465 12.3512 12.2217 12.3598 12.9738C12.3749 14.2821 12.3736 15.5907 12.3723 16.8995C12.3715 17.6605 12.3708 18.4214 12.3732 19.1824C12.3732 19.2136 12.3685 19.2468 12.3637 19.2805C12.3494 19.3814 12.3343 19.4878 12.4412 19.5652Z" fill="#87C44C"/>
</svg>
