<svg width="24" height="24" viewBox="0 0 24 24" fill="none" xmlns="http://www.w3.org/2000/svg">
<circle cx="12" cy="12" r="12" fill="#C63127"/>
<path fill-rule="evenodd" clip-rule="evenodd" d="M19.3963 9.21258L19.0514 8.96798C18.5143 8.5872 17.9538 8.18986 17.4039 7.7954C17.3891 7.78415 17.3743 7.7729 17.3558 7.76165C17.2819 7.70542 17.1969 7.64543 17.0934 7.61169L17.086 7.60794C15.4531 7.2076 13.7956 6.7979 12.181 6.39877L11.7186 6.28448C10.921 6.08786 10.1243 5.89124 9.32767 5.69463L9.32518 5.69401C8.52761 5.49717 7.73003 5.30033 6.93153 5.10349C6.89087 5.09224 6.85021 5.08099 6.80585 5.06974C6.66168 5.0285 6.49534 4.98351 6.3179 5.00601C6.26615 5.01351 6.22179 5.03225 6.18113 5.0585L6.13677 5.09599C6.06654 5.16347 6.02957 5.2497 6.01109 5.29844L6 5.32844V5.5009L6.00739 5.52714C6.76617 7.68365 7.53957 9.86346 8.30089 12.0092C8.55211 12.7173 8.80202 13.4217 9.04966 14.1203L9.74173 16.07C10.2915 17.6185 10.8488 19.1882 11.397 20.7376C11.445 20.8875 11.5818 20.985 11.7518 21H11.7888C11.9478 21 12.0882 20.9213 12.1585 20.7938L15.0861 16.4635C15.4425 15.9372 15.799 15.4099 16.1554 14.8826L16.1565 14.881C16.5131 14.3534 16.8698 13.8258 17.2264 13.2992C17.3724 13.0836 17.5185 12.8671 17.6645 12.6506C17.8105 12.4341 17.9565 12.2176 18.1025 12.002L18.1626 11.9129C18.6242 11.2286 19.099 10.5249 19.57 9.8387L19.5959 9.80121V9.75622C19.607 9.62499 19.6107 9.35505 19.3963 9.21258ZM15.9659 10.791C15.7094 10.9266 15.4508 11.0639 15.1908 11.2019C14.7539 11.4338 14.3125 11.6681 13.87 11.9007L15.1046 10.5585C15.5517 10.0692 16.0156 9.56561 16.4744 9.06763L16.6794 8.84514L16.6905 8.8339C16.7348 8.77391 16.7903 8.71767 16.8494 8.65769C16.8595 8.64749 16.8697 8.63729 16.8801 8.62699C16.9118 8.5956 16.9445 8.56315 16.9751 8.52646C17.2486 8.71767 17.5259 8.91263 17.792 9.10384C17.9842 9.24256 18.1802 9.38128 18.3798 9.52C17.5665 9.93991 16.7533 10.3711 15.9659 10.791ZM12.5798 12.3769C13.1232 11.7882 13.6703 11.1921 14.1989 10.611L14.6647 10.1032C15.212 9.50641 15.7694 8.89858 16.3244 8.29775C15.2524 8.03343 14.1795 7.76912 13.1066 7.5048C12.0336 7.24048 10.9607 6.97616 9.88873 6.71185C9.50798 6.61437 9.11984 6.52064 8.74649 6.43066C8.32139 6.32943 7.88889 6.22445 7.46009 6.11198C7.48208 6.13898 7.50407 6.16561 7.52594 6.1921C7.57394 6.25022 7.62139 6.30769 7.6671 6.36692C7.70028 6.40779 7.73347 6.44943 7.76678 6.49123C7.83735 6.57978 7.90848 6.66904 7.9813 6.75309L7.985 6.75684L9.40817 8.49271C10.4506 9.76368 11.5263 11.0796 12.5798 12.3769ZM12.3395 17.9181C12.3507 17.8096 12.3622 17.7002 12.3738 17.5903C12.4041 17.3017 12.4347 17.01 12.4615 16.7221L12.4948 16.4018C12.517 16.1877 12.5391 15.9736 12.5613 15.7661L12.5847 15.5415C12.6294 15.1131 12.6752 14.6745 12.7129 14.2439L12.724 14.1539C12.7609 13.8315 12.7979 13.4978 12.8201 13.1642C12.8607 13.1417 12.9051 13.1192 12.9532 13.1004C12.967 13.0939 12.9809 13.0875 12.9947 13.0812C13.0363 13.0622 13.0779 13.0433 13.1195 13.0179C13.9734 12.5643 14.8273 12.1106 15.6849 11.6607C16.5388 11.2108 17.4149 10.7459 18.2836 10.2848C17.4925 11.447 16.6978 12.6205 15.9289 13.764L15.4952 14.4056C14.9719 15.18 14.44 15.9671 13.9106 16.7446C13.7601 16.9693 13.6061 17.1964 13.4532 17.4218C13.3357 17.5951 13.2188 17.7674 13.1047 17.9369C12.809 18.3718 12.5059 18.8179 12.2102 19.2641C12.2471 18.8142 12.2915 18.3605 12.3395 17.9181ZM7.13774 6.861C7.15417 6.90641 7.17059 6.95182 7.18661 6.99681C8.02212 9.35654 8.85764 11.7129 9.69315 14.0694C10.1108 15.2472 10.5284 16.425 10.946 17.6032L11.3415 18.7167C11.3933 18.8705 11.4487 19.0279 11.5042 19.1779C11.5113 19.1981 11.519 19.2189 11.5268 19.24C11.5392 19.2737 11.552 19.3083 11.5633 19.3428C11.5784 19.1999 11.5928 19.057 11.607 18.9148C11.6242 18.7436 11.6413 18.5735 11.6594 18.4056C11.6662 18.3407 11.673 18.2756 11.6799 18.2104C11.7512 17.5296 11.8242 16.8322 11.8849 16.141L11.8886 16.1148C11.8886 16.1148 11.9478 15.5974 11.9736 15.3687C11.9778 15.3312 11.9822 15.2936 11.9866 15.2558C12.0016 15.1271 12.0168 14.9967 12.0254 14.8663V14.8626C12.055 14.5964 12.0808 14.334 12.1067 14.0715C12.1231 13.9206 12.1389 13.7673 12.1547 13.6128C12.1783 13.3834 12.2022 13.1513 12.2287 12.9205C12.1276 12.8069 12.0326 12.6892 11.9392 12.5735C11.9062 12.5326 11.8734 12.492 11.8406 12.4519C11.7445 12.3319 11.6447 12.2082 11.5448 12.0919C11.2072 11.677 10.8696 11.2654 10.532 10.8538C10.3632 10.6481 10.1944 10.4423 10.0256 10.2361C9.04598 9.04386 8.04052 7.81413 7.04245 6.59189C7.07202 6.67938 7.10488 6.77019 7.13774 6.861Z" fill="white"/>
</svg>
