<svg width="24" height="24" viewBox="0 0 24 24" fill="none" xmlns="http://www.w3.org/2000/svg">
<circle cx="12" cy="12" r="12" fill="#0052CC"/>
<path d="M11.6756 4.09684C12.0502 3.86216 12.5525 4.08194 12.7317 4.45692C13.457 5.70304 14.1835 6.94864 14.9101 8.1943C16.1136 10.2577 17.3173 12.3212 18.5156 14.3877C18.8413 14.8918 18.3515 15.5921 17.7652 15.5102C17.3607 15.4583 17.1644 15.1046 16.9842 14.7798C16.9529 14.7234 16.9221 14.6679 16.8908 14.6149C16.5642 14.0567 16.2395 13.4972 15.9149 12.9378C15.2944 11.8687 14.6735 10.7989 14.0395 9.7377C13.804 9.3056 13.105 9.29318 12.8469 9.7079C12.5468 10.1832 12.2676 10.6713 11.9884 11.1594C11.679 11.7004 11.3695 12.2414 11.0317 12.7649C10.716 13.2292 9.9418 13.1113 9.74136 12.6034C9.57202 12.2577 9.76901 11.9324 9.95151 11.6312C9.99312 11.5625 10.034 11.495 10.0696 11.4288C10.3698 10.9048 10.6763 10.3841 10.9829 9.86339C11.4912 8.9999 11.9996 8.13647 12.4786 7.2581C12.4725 7.0003 12.335 6.78038 12.199 6.56276C12.1411 6.47014 12.0835 6.37793 12.0364 6.2834C11.9461 6.12296 11.8518 5.96477 11.7576 5.80659C11.6192 5.57424 11.4809 5.34193 11.3549 5.10258C11.167 4.75243 11.3073 4.26943 11.6756 4.09684Z" fill="white"/>
<path d="M9.82652 6.97749C9.98312 6.67825 10.265 6.3939 10.6345 6.43736C11.1945 6.44357 11.5566 7.14883 11.2221 7.60204C10.6842 8.53459 10.141 9.46402 9.59794 10.3933C9.11287 11.2233 8.62766 12.0535 8.14659 12.8853C7.85595 13.2926 8.09899 13.9457 8.62013 13.9966C9.27721 14.0306 9.93585 14.0246 10.5945 14.0186C11.1125 14.0139 11.6306 14.0091 12.1479 14.0239C12.6339 13.9953 13.0549 14.5367 12.8807 14.9924C12.7905 15.3053 12.4773 15.5238 12.1516 15.5201C11.3516 15.5349 10.5506 15.5306 9.74967 15.5263C8.73591 15.5208 7.7222 15.5154 6.71094 15.5487C6.4234 15.7747 6.25142 16.0991 6.08013 16.4222C5.99545 16.5819 5.91094 16.7414 5.81272 16.8884C5.75192 16.9791 5.69626 17.0815 5.63956 17.1858C5.46027 17.5155 5.27065 17.8642 4.87567 17.9227C4.46602 18.0047 4.10774 17.6905 4 17.318V17.0585C4.15736 16.684 4.36647 16.3351 4.57537 15.9866C4.66082 15.8441 4.74624 15.7015 4.82807 15.5574C5.5266 14.3571 6.22624 13.1574 6.92587 11.9578L6.92637 11.957C7.89408 10.2977 8.86179 8.6384 9.82652 6.97749Z" fill="white"/>
<path d="M14.1247 11.7442C13.9368 11.3642 13.4282 11.1693 13.0561 11.4102C12.6816 11.6026 12.5575 12.1192 12.7905 12.4644C13.0405 12.9047 13.2968 13.3417 13.5532 13.7789C13.8673 14.3144 14.1815 14.8501 14.4843 15.3922C14.7599 15.8156 14.3928 16.4389 13.8917 16.4302C12.717 16.4393 11.5416 16.4378 10.366 16.4362C9.4516 16.4351 8.53716 16.4339 7.62296 16.4377C7.19954 16.4166 6.79365 16.7915 6.81995 17.2187C6.82246 17.6259 7.2083 17.9823 7.62171 17.9388C11.4714 17.9413 15.3223 17.9413 19.1733 17.9388C19.593 17.9897 19.9976 17.6359 19.9988 17.2162C20.0226 16.8263 19.6744 16.4675 19.286 16.4451C18.9408 16.4278 18.5948 16.4322 18.2486 16.4367C17.851 16.4418 17.4532 16.4469 17.0561 16.419C16.8688 16.4237 16.7679 16.2621 16.6802 16.1217C16.6735 16.111 16.6669 16.1004 16.6603 16.09C16.3251 15.5169 15.9914 14.9429 15.6578 14.3689C15.1486 13.4927 14.6394 12.6166 14.1247 11.7442Z" fill="white"/>
</svg>
