<svg width="24" height="24" viewBox="0 0 24 24" fill="none" xmlns="http://www.w3.org/2000/svg">
<circle cx="12" cy="12" r="12" fill="#002868"/>
<path d="M15.1467 7.70987H12.9456V12.0299C12.9456 12.1179 12.8736 12.1899 12.7856 12.1899H11.3989C11.3109 12.1899 11.2389 12.1179 11.2389 12.0299V7.70987H8.85333C8.76533 7.70987 8.69333 7.63787 8.69333 7.54987V6.1632C8.69333 6.0752 8.76533 6.0032 8.85333 6.0032H15.1467C15.2347 6.0032 15.3067 6.0752 15.3067 6.1632V7.54987C15.3067 7.63787 15.2347 7.70987 15.1467 7.70987Z" fill="white"/>
<path d="M17.0853 16.9472C17.0853 17.4517 16.7253 17.8165 16.2629 17.8165L15.7797 17.816C15.7376 17.816 15.7035 17.7819 15.7035 17.7397V16.1584C15.7035 16.1157 15.7376 16.0779 15.7797 16.0779H16.2587C16.7248 16.0779 17.0853 16.4427 17.0853 16.9472Z" fill="white"/>
<path fill-rule="evenodd" clip-rule="evenodd" d="M5.28 20H18.72C19.424 20 20 19.424 20 18.72V5.28C20 4.576 19.424 4 18.72 4H5.28C4.576 4 4 4.576 4 5.28V18.72C4 19.424 4.576 20 5.28 20ZM4.42667 13.92H19.5733C19.6907 13.92 19.7867 13.824 19.7867 13.7067V5.28C19.7867 4.69333 19.3067 4.21333 18.72 4.21333H5.28C4.69333 4.21333 4.21333 4.69333 4.21333 5.28V13.7067C4.21333 13.824 4.30933 13.92 4.42667 13.92ZM13.9611 16.4475C13.8933 16.4475 13.872 16.4219 13.8464 16.3712C13.7573 16.1632 13.5621 16.032 13.2656 16.032C12.9984 16.032 12.7739 16.1253 12.7739 16.3035C12.7739 16.4987 12.9819 16.5792 13.4395 16.6341C14.1349 16.7147 14.5333 16.9269 14.5333 17.4779C14.5333 18.0971 13.9904 18.4235 13.2955 18.4235C12.6933 18.4235 12.176 18.1307 12.0955 17.5163C12.0869 17.4571 12.1168 17.4357 12.176 17.4357H12.6427C12.7019 17.4357 12.736 17.4613 12.7531 17.5077C12.8165 17.7115 13.0331 17.8683 13.3467 17.8683C13.6224 17.8683 13.864 17.7664 13.864 17.5504C13.864 17.2917 13.6096 17.2453 13.1008 17.1813C12.5157 17.1051 12.1088 16.9355 12.1088 16.3968C12.1088 15.8581 12.5712 15.4725 13.296 15.4725C13.9488 15.4725 14.4027 15.8245 14.496 16.3504C14.5088 16.4096 14.4917 16.448 14.4283 16.448L13.9611 16.4475ZM7.04587 18.3088C7.04587 18.3509 7.08 18.3893 7.12213 18.3893H7.6352C7.67733 18.3893 7.71147 18.3509 7.71147 18.3088V16.1589C7.71147 16.1163 7.74987 16.0784 7.792 16.0784H8.54667C8.5888 16.0784 8.6272 16.0443 8.6272 16.0021V15.5867C8.6272 15.544 8.5888 15.5061 8.54667 15.5061H6.21067C6.16853 15.5061 6.13013 15.5445 6.13013 15.5867V16.0021C6.13013 16.0443 6.168 16.0784 6.21067 16.0784H6.9696C7.01173 16.0784 7.04587 16.1168 7.04587 16.1589V18.3088ZM11.0352 15.5061C10.9931 15.5061 10.9589 15.5445 10.9589 15.5867V17.0747C10.9589 17.5029 10.7387 17.808 10.3568 17.808C9.97493 17.808 9.75467 17.5029 9.75467 17.0747V15.5867C9.75467 15.544 9.71627 15.5061 9.67413 15.5061H9.16533C9.1232 15.5061 9.08907 15.5445 9.08907 15.5867V17.0539C9.08907 17.9232 9.57653 18.4277 10.3525 18.4277C11.1328 18.4277 11.6245 17.9232 11.6245 17.0539V15.5867C11.6245 15.544 11.5861 15.5061 11.544 15.5061H11.0352ZM15.0336 18.3088C15.0336 18.3509 15.0677 18.3893 15.1099 18.3893H16.2629C17.128 18.3893 17.7851 17.8043 17.7851 16.9563C17.7851 16.0955 17.1195 15.5061 16.2629 15.5061H15.1099C15.0677 15.5061 15.0336 15.5445 15.0336 15.5867V18.3088Z" fill="white"/>
</svg>
