<svg width="24" height="24" viewBox="0 0 24 24" fill="none" xmlns="http://www.w3.org/2000/svg">
<circle cx="12" cy="12" r="12" fill="#FF4A4A"/>
<path d="M3.33905 14.4965H8.06846C8.25905 14.4965 8.41434 14.3412 8.41434 14.1506V10.2612C8.41434 10.1129 8.29434 10 8.15316 10H7.41199C7.26375 10 7.15081 10.12 7.15081 10.2612V13.2188H4.28493V10.2612C4.28493 10.1129 4.16493 10 4.02375 10H3.2614C3.11316 10 3.00022 10.1129 2.99316 10.2612V14.1506C2.99316 14.3412 3.14846 14.4965 3.33905 14.4965Z" fill="white"/>
<path d="M13.772 14.5035H14.5343C14.6755 14.5035 14.7885 14.3835 14.7814 14.2424V10.3741C14.7743 10.3106 14.7602 10.24 14.7179 10.1835C14.612 10.0282 14.3932 9.98589 14.2379 10.0918L12.1343 11.5388C12.0496 11.6024 11.9296 11.6024 11.8449 11.5388L9.7414 10.0918C9.68493 10.0494 9.6214 10.0282 9.55081 10.0282C9.36022 10.0282 9.20493 10.1835 9.20493 10.3741V14.2424C9.20493 14.3906 9.32493 14.5035 9.4661 14.5035H10.2214C10.3696 14.5035 10.4826 14.3835 10.4826 14.2424V12.2377L11.8096 13.0706C11.9226 13.1412 12.0637 13.1412 12.1767 13.0706L13.5108 12.2377V14.2424C13.5108 14.3906 13.6308 14.5035 13.772 14.5035Z" fill="white"/>
<path d="M15.932 10H20.6614C20.852 10 21.0073 10.1553 21.0073 10.3459V14.2353C21.0073 14.3765 20.8943 14.4965 20.7532 14.4965H19.9908C19.8496 14.4965 19.7296 14.3835 19.7296 14.2353V11.4471C19.7296 11.3553 19.652 11.2776 19.5602 11.2776H17.0402C16.9484 11.2776 16.8708 11.3553 16.8708 11.4471V14.2353C16.8708 14.3765 16.7579 14.4965 16.6096 14.4965H15.8473C15.7061 14.4965 15.5861 14.3835 15.5861 14.2353V10.3459C15.5861 10.1553 15.7414 10 15.932 10Z" fill="white"/>
<path d="M18.6708 12.0965H17.9155C17.7743 12.0965 17.6543 12.2094 17.6543 12.3506V13.127C17.6543 13.2753 17.7743 13.3882 17.9155 13.3882H18.6708C18.819 13.3882 18.9319 13.2682 18.9319 13.127V12.3576C18.9319 12.2094 18.8119 12.0965 18.6708 12.0965Z" fill="white"/>
</svg>
