<svg width="24" height="24" viewBox="0 0 24 24" fill="none" xmlns="http://www.w3.org/2000/svg">
<circle cx="12" cy="12" r="12" fill="#FF007A"/>
<path fill-rule="evenodd" clip-rule="evenodd" d="M4.70656 3.257C7.10986 6.17603 8.45718 7.90093 8.64284 8.14848C8.79756 8.35477 8.73568 8.55075 8.47781 8.69515C8.33341 8.77767 8.03428 8.86018 7.88988 8.86018C7.72484 8.86018 7.52887 8.77767 7.39478 8.64358C7.30195 8.55075 6.89968 7.96281 5.99199 6.54971C5.30091 5.46668 4.71298 4.56931 4.70267 4.55899C4.66141 4.53836 4.66141 4.53837 5.91979 6.78695C6.71401 8.20005 6.97188 8.70546 6.97188 8.76735C6.97188 8.90144 6.93062 8.97364 6.76559 9.15931C6.48709 9.46875 6.36332 9.81944 6.27049 10.5518C6.16734 11.3666 5.88885 11.9442 5.09462 12.9241C4.63046 13.5018 4.55826 13.6049 4.4448 13.8421C4.3004 14.1309 4.25914 14.296 4.23851 14.6673C4.21788 15.0593 4.25914 15.3068 4.3726 15.6781C4.47574 16.0082 4.58921 16.2248 4.8677 16.6477C5.10494 17.019 5.24934 17.2975 5.24934 17.4007C5.24934 17.4832 5.26997 17.4832 5.64129 17.4007C6.52835 17.1944 7.26069 16.8437 7.66296 16.4105C7.91051 16.1423 7.97239 15.9979 7.97239 15.6266C7.97239 15.3893 7.96208 15.3378 7.90019 15.1933C7.79705 14.9664 7.60107 14.7808 7.17817 14.492C6.62118 14.1103 6.38395 13.8009 6.32206 13.3883C6.27049 13.0376 6.33237 12.8004 6.64181 12.1505C6.96156 11.4801 7.04408 11.2016 7.09565 10.5208C7.1266 10.0876 7.17817 9.91227 7.30195 9.77818C7.43604 9.63378 7.5495 9.5822 7.86925 9.54095C8.39529 9.46874 8.73568 9.33465 9.00386 9.07679C9.24109 8.86018 9.34424 8.64358 9.35455 8.32382L9.36487 8.08659L9.23078 7.94218C8.74599 7.3852 4.38681 2.81347 4.35586 2.81347C4.34956 2.81347 4.40869 2.8866 4.50034 2.99994C4.55872 3.07214 4.6303 3.16067 4.70656 3.257ZM5.51752 15.1108C5.63098 14.9149 5.56909 14.6673 5.38343 14.5435C5.20808 14.4301 4.9399 14.4816 4.9399 14.6364C4.9399 14.6776 4.96053 14.7189 5.02242 14.7395C5.11525 14.7911 5.12557 14.8426 5.05336 14.9561C4.98116 15.0696 4.98116 15.1727 5.07399 15.2449C5.2184 15.3584 5.41437 15.2965 5.51752 15.1108Z" fill="white"/>
<path d="M8.80805 4.5487C8.59145 4.51775 8.58113 4.50744 8.68428 4.49713C8.88026 4.46618 9.3341 4.50744 9.65385 4.57964C10.3965 4.75499 11.067 5.20883 11.7787 6.00306L11.9643 6.21966L12.2325 6.17841C13.3774 5.99274 14.5533 6.13715 15.5332 6.59099C15.8014 6.71477 16.2242 6.96232 16.2758 7.0242C16.2965 7.04483 16.3274 7.17892 16.348 7.31301C16.4202 7.7978 16.3893 8.15881 16.2346 8.4373C16.152 8.59202 16.152 8.63328 16.2036 8.76737C16.2449 8.87052 16.3687 8.94272 16.4821 8.94272C16.7297 8.94272 16.9875 8.55076 17.1113 8.00409L17.1629 7.78748L17.2557 7.89063C17.7818 8.47856 18.1943 9.29342 18.2562 9.87103L18.2769 10.0258L18.184 9.89166C18.0293 9.65443 17.8849 9.49971 17.6889 9.36562C17.3382 9.12838 16.9669 9.05618 15.987 9.00461C15.1 8.95303 14.5945 8.88083 14.0994 8.7158C13.2536 8.4373 12.8204 8.07629 11.8199 6.74571C11.3764 6.15778 11.0979 5.83802 10.8194 5.56984C10.2108 4.98191 9.60228 4.67247 8.80805 4.5487Z" fill="white"/>
<path d="M16.4924 5.85862C16.513 5.46666 16.5646 5.2088 16.6781 4.97156C16.7193 4.87873 16.7606 4.79621 16.7709 4.79621C16.7812 4.79621 16.7606 4.86841 16.7296 4.95093C16.6471 5.17785 16.6368 5.4976 16.6884 5.85862C16.7606 6.32277 16.7915 6.38466 17.2866 6.89008C17.5136 7.12731 17.7817 7.42644 17.8849 7.55021L18.0602 7.77713L17.8849 7.6121C17.6683 7.40581 17.1732 7.01385 17.0597 6.96228C16.9875 6.92102 16.9772 6.92102 16.9256 6.97259C16.8844 7.01385 16.8741 7.07574 16.8741 7.37486C16.8637 7.83902 16.8019 8.12783 16.6471 8.42695C16.5646 8.58167 16.5543 8.55073 16.6265 8.37538C16.6781 8.24129 16.6884 8.1794 16.6884 7.73588C16.6884 6.8385 16.5852 6.6219 15.9561 6.26089C15.8013 6.16805 15.5332 6.03396 15.3784 5.96176C15.2134 5.88956 15.0896 5.82767 15.0999 5.82767C15.1206 5.80704 15.7291 5.98239 15.9664 6.08554C16.3274 6.22994 16.3893 6.24026 16.4305 6.22994C16.4615 6.199 16.4821 6.11648 16.4924 5.85862Z" fill="white"/>
<path d="M8.58118 5.17787C8.51929 5.86895 8.79778 6.79726 9.231 7.39551C9.57138 7.85967 10.0974 8.22068 10.4894 8.26194C10.7472 8.28256 10.8194 8.20005 10.706 8.03501C10.541 7.80809 10.345 7.44708 10.2934 7.29236C10.2625 7.19953 10.1903 6.91072 10.1387 6.66317C9.96333 5.81737 9.77767 5.47699 9.36509 5.22944C9.21037 5.13661 8.89061 5.01284 8.70495 4.98189L8.60181 4.96126L8.58118 5.17787Z" fill="white"/>
<path d="M15.9664 11.8823C13.9241 11.0572 13.2021 10.3455 13.2021 9.13866C13.2021 8.96332 13.2124 8.81891 13.2124 8.81891C13.2193 8.81891 13.2536 8.84639 13.3032 8.88608C13.328 8.90592 13.3569 8.92898 13.3877 8.953C13.8003 9.28307 14.2645 9.42747 15.5538 9.61313C16.3068 9.7266 16.74 9.80911 17.1319 9.9432C18.38 10.3558 19.1536 11.2016 19.3393 12.3465C19.3908 12.6766 19.3599 13.3058 19.2774 13.6358C19.2052 13.8937 18.9989 14.3682 18.9473 14.3785C18.937 14.3785 18.9164 14.3269 18.9164 14.2444C18.8957 13.8112 18.6791 13.3986 18.3181 13.0788C17.8849 12.7075 17.3279 12.429 15.9664 11.8823Z" fill="white"/>
<path d="M14.4192 11.7896C14.4501 11.8721 14.5017 12.0681 14.5223 12.2228C14.6874 13.1924 14.182 13.9866 13.1608 14.3063C13.0577 14.3476 12.6451 14.4301 12.2428 14.492C11.428 14.6364 11.0566 14.7292 10.6956 14.9046C10.4378 15.0284 10.118 15.214 10.1386 15.2346C10.149 15.245 10.2108 15.2243 10.2727 15.2037C10.7369 15.0387 11.2526 14.9562 12.0262 14.9149C12.2852 14.8976 12.573 14.8731 12.7326 14.8596L12.8101 14.853C13.5012 14.7602 13.986 14.5539 14.3573 14.1722C14.5636 13.9556 14.6874 13.7597 14.7905 13.4812C14.8524 13.3058 14.8627 13.2336 14.8627 12.9242C14.8627 12.6044 14.8627 12.5425 14.7905 12.3466C14.6977 12.0887 14.5945 11.903 14.4605 11.7483L14.3676 11.6348L14.4192 11.7896Z" fill="white"/>
<path d="M15.461 13.8834C15.1928 13.2955 15.1309 12.7385 15.2753 12.2124C15.2959 12.1609 15.3166 12.1093 15.3372 12.1093C15.3578 12.1093 15.4197 12.1402 15.4816 12.1815C15.6054 12.264 15.8632 12.4084 16.5234 12.7694C17.3589 13.2233 17.8333 13.574 18.1634 13.9762C18.4522 14.3269 18.6276 14.7292 18.7101 15.2243C18.7617 15.5028 18.7307 16.1732 18.6585 16.4517C18.4316 17.3285 17.9159 18.0299 17.1629 18.4321C17.0494 18.494 16.9566 18.5353 16.9463 18.5353C16.936 18.5353 16.9772 18.4321 17.0391 18.3084C17.2867 17.7823 17.3176 17.2769 17.1319 16.7096C17.0185 16.3589 16.7812 15.936 16.3068 15.2243C15.7395 14.3991 15.6054 14.1825 15.461 13.8834Z" fill="white"/>
<path d="M10.345 15.8019C9.47854 15.9463 8.53991 16.4002 7.77663 17.0397L7.56002 17.246L7.756 17.2769C8.78746 17.4316 9.06595 17.576 9.78797 18.3187C10.2006 18.7416 10.345 18.8344 10.6853 18.9272C11.1908 19.0613 11.6859 18.8241 11.8612 18.3702C11.9334 18.164 11.9231 17.8339 11.8406 17.6689C11.6343 17.2666 11.0257 17.1428 10.7369 17.4316C10.4997 17.6689 10.5719 18.0402 10.871 18.1021C10.8989 18.1067 10.9143 18.1093 10.9151 18.1069C10.9161 18.104 10.8956 18.0938 10.8504 18.0711C10.7163 18.0092 10.6544 17.9267 10.6544 17.7926C10.6441 17.4729 11.0051 17.3078 11.3352 17.4523C11.5827 17.5657 11.6755 17.7101 11.6755 17.9577C11.6755 18.3393 11.3455 18.6384 10.9638 18.5869C10.7575 18.5559 10.51 18.4321 10.3759 18.2774C10.0458 17.9061 10.1696 17.2975 10.6441 17.0706C11.0051 16.8953 11.4796 16.9468 11.8509 17.1841C12.2738 17.4626 12.4595 17.7101 12.8205 18.5456C12.9442 18.8241 13.0886 19.1232 13.1608 19.2264C13.5012 19.7421 13.9241 20 14.4192 20C14.6977 20 14.904 19.9587 15.1619 19.8246C15.3475 19.7318 15.626 19.5461 15.6054 19.5255C15.6054 19.5174 15.5542 19.5348 15.487 19.5578L15.4301 19.5771C14.8834 19.7833 14.3264 19.773 14.0066 19.5358C13.8004 19.3811 13.6353 19.0923 13.5528 18.7209L13.5427 18.6621C13.5231 18.5489 13.483 18.3169 13.4497 18.0918C13.3362 17.38 13.2227 17.0603 12.9752 16.689C12.7173 16.3073 12.2222 15.9979 11.6755 15.8535C11.3352 15.7607 10.7163 15.74 10.345 15.8019Z" fill="white"/>
<path fill-rule="evenodd" clip-rule="evenodd" d="M9.13815 10.2939C9.21035 10.0257 9.44759 9.75755 9.69514 9.68535C9.86017 9.63378 10.1799 9.66472 10.3346 9.74724C10.6338 9.90195 10.8504 10.2423 10.7988 10.4899C10.7472 10.789 10.2624 11.0366 9.69514 11.0366C9.40633 11.0366 9.30318 10.9953 9.18972 10.8509C9.11752 10.7581 9.09689 10.4589 9.13815 10.2939ZM10.2521 9.85038C10.4068 9.94321 10.4378 10.0773 10.3553 10.2011C10.2934 10.2836 10.1077 10.3661 9.97363 10.3661C9.76734 10.3661 9.55073 10.2217 9.55073 10.0876C9.55073 9.81944 9.97363 9.67503 10.2521 9.85038Z" fill="white"/>
</svg>
