<?xml version="1.0" encoding="UTF-8"?>
<svg width="24px" height="24px" viewBox="0 0 24 24" version="1.1" xmlns="http://www.w3.org/2000/svg" xmlns:xlink="http://www.w3.org/1999/xlink">
    <title>Token Symbol/USD</title>
    <g id="Token-Symbol/USD" stroke="none" stroke-width="1" fill="none" fill-rule="evenodd">
        <path d="M12,24 C18.65004,24 24,18.65004 24,12 C24,5.34996 18.65004,0 12,0 C5.34996,0 0,5.34996 0,12 C0,18.65004 5.34996,24 12,24 Z" id="Path" fill="#4276E6"></path>
        <path d="M15.5,14.0622106 C15.5,12.0290688 14.4029785,11.3319757 12.2089356,11.0415667 C10.641762,10.8091558 10.3283273,10.3444735 10.3283273,9.53110529 C10.3283273,8.71773704 10.8507603,8.19505661 11.8955009,8.19505661 C12.835805,8.19505661 13.358238,8.54360317 13.6193918,9.41496958 C13.6716727,9.58924286 13.82839,9.70537857 13.9851074,9.70537857 L14.8208497,9.70537857 C15.0298479,9.70537857 15.1865653,9.53110529 15.1865653,9.29883386 L15.1865653,9.2406963 C14.977567,7.96264577 14.0372629,6.97514365 12.835805,6.85900794 L12.835805,5.46482169 C12.835805,5.23241085 12.6790876,5.05813757 12.4179338,5 L11.6343471,5 C11.4253488,5 11.2686315,5.17427328 11.2163505,5.46482169 L11.2163505,6.80087037 C9.64917701,7.03328122 8.65671735,8.19505661 8.65671735,9.64738042 C8.65671735,11.5643865 9.70145792,12.3194778 11.8955009,12.6100262 C13.358238,12.9004352 13.82839,13.2489817 13.82839,14.1784857 C13.82839,15.1079897 13.0969588,15.7469452 12.1044991,15.7469452 C10.7461985,15.7469452 10.2760464,15.1078503 10.1193291,14.2364839 C10.0671735,14.0042124 9.91045618,13.8879373 9.75373883,13.8879373 L8.86559024,13.8879373 C8.65671735,13.8879373 8.5,14.0622106 8.5,14.2946214 L8.5,14.352759 C8.70887289,15.8049434 9.54474057,16.8505831 11.2686315,17.1411315 L11.2686315,18.5353177 C11.2686315,18.7675892 11.4253488,18.9418624 11.6865026,19 L12.4700894,19 C12.6790876,19 12.835805,18.8257267 12.8880859,18.5353177 L12.8880859,17.1411315 C14.4552594,16.8505831 15.5,15.6306701 15.5,14.0622106 L15.5,14.0622106 Z" id="Path" fill="#FFFFFF" fill-rule="nonzero"></path>
    </g>
</svg>