<?xml version="1.0" encoding="UTF-8"?>
<svg width="24px" height="24px" viewBox="0 0 24 24" version="1.1" xmlns="http://www.w3.org/2000/svg" xmlns:xlink="http://www.w3.org/1999/xlink">
  <path d="M12,24 C18.627417,24 24,18.627417 24,12 C24,5.372583 18.627417,0 12,0 C5.372583,0 0,5.372583 0,12 C0,18.627417 5.372583,24 12,24 Z" fill="#2775CA"></path>
  <path d="M10,3.31 L10,4.19 C10.001329,4.40947634 9.85937219,4.60415991 9.65,4.67 L9.25,4.81 L9.05,4.88 C6.18100557,6.0823815 4.3139571,8.88923638 4.3139571,12 C4.3139571,15.1107636 6.18100557,17.9176185 9.05,19.12 L9.25,19.19 L9.25,19.19 L9.51,19.28 L9.65,19.28 C9.85937219,19.3458401 10.001329,19.5405237 10,19.76 L10,20.64 C10,20.8056854 9.86568542,20.94 9.7,20.94 L9.62,20.94 L9.19,20.81 L9.19,20.81 L8.84,20.7 L8.84,20.7 L8.55,20.6 L8.44,20.55 C4.95935634,19.1164951 2.68779592,15.7242817 2.68779592,11.96 C2.68779592,8.19571832 4.95935634,4.80350488 8.44,3.37 L8.7,3.27 L9,3.2 L9,3.2 L9.39,3.08 L9.62,3 C9.77948488,2.96096891 9.94174163,3.05306058 9.99,3.21 C10.0022484,3.24183159 10.0057026,3.27637331 10,3.31 Z M14,4.19 L14,3.31 C13.9971764,3.22960266 14.0278758,3.1516449 14.0847603,3.09476035 C14.1416449,3.0378758 14.2196027,3.0071764 14.3,3.00982108 L14.38,3.00982108 C14.782283,3.11116968 15.1766603,3.24151473 15.56,3.4 C19.0406437,4.83350488 21.3122041,8.22571832 21.3122041,11.99 C21.3122041,15.7542817 19.0406437,19.1464951 15.56,20.58 L15.45,20.63 L15.45,20.63 L15.16,20.73 L15.16,20.73 L14.81,20.84 L14.81,20.84 L14.38,20.97 L14.38,20.97 C14.2205151,21.0090311 14.0582584,20.9169394 14.01,20.76 C14.0051108,20.7335574 14.0051108,20.7064426 14.01,20.68 L14.01,19.8 C14.008671,19.5805237 14.1506278,19.3858401 14.36,19.32 L14.64,19.23 L14.64,19.23 L14.86,19.14 L14.96,19.14 C17.8451338,17.9517601 19.7313133,15.1435821 19.7400657,12.0233522 C19.7488181,8.90312236 17.8784223,6.08440695 15,4.88 L14.9,4.88 L14.9,4.88 L14.54,4.75 L14.4,4.75 C14.1389802,4.69937808 13.9632305,4.45332853 14,4.19 Z" fill="#FFFFFF"></path>
  <path d="M15.5,13.77 C15.5,12.02 14.4,11.43 12.21,11.18 C10.64,10.98 10.33,10.58 10.33,9.88 C10.33,9.18 10.85,8.74 11.9,8.74 C12.95,8.74 13.36,9.04 13.62,9.74 C13.6765342,9.90016894 13.8302301,10.0053293 14,10 L14.83,10 C14.9262398,10.0055085 15.0204908,9.97108011 15.0905204,9.90483587 C15.16055,9.83859163 15.2001575,9.74639721 15.2,9.65 L15.2,9.65 C14.9486133,8.53490393 13.990944,7.71986623 12.85,7.65 L12.85,6.4 C12.85,6.2 12.69,6.05 12.43,6 L11.64,6 C11.4233743,6.01394208 11.2492858,6.18378451 11.23,6.4 L11.23,7.54 C9.85860199,7.55383873 8.73377845,8.63051807 8.66,10 C8.66,11.65 9.66,12.29 11.9,12.54 C13.36,12.79 13.83,13.09 13.83,13.89 C13.83,14.69 13.1,15.23 12.1,15.23 C10.75,15.23 10.28,14.68 10.1,13.94 C10.0624258,13.765516 9.90848247,13.6406971 9.73,13.64 L8.87,13.64 C8.77199688,13.6343456 8.67612397,13.6701082 8.60576579,13.7385648 C8.5354076,13.8070214 8.49703227,13.9018788 8.5,14 L8.5,14 C8.73009488,15.3582043 9.89274117,16.361354 11.27,16.39 L11.27,17.6 C11.27,17.8 11.43,17.95 11.69,18 L12.47,18 C12.690503,17.9908652 12.8701262,17.8197955 12.89,17.6 L12.89,16.41 C14.306193,16.3249158 15.4311059,15.1870729 15.5,13.77 L15.5,13.77 Z" fill="#FFFFFF"></path>
</svg>
