<?xml version="1.0" encoding="UTF-8"?>
<svg width="24px" height="24px" viewBox="0 0 24 24" version="1.1" xmlns="http://www.w3.org/2000/svg" xmlns:xlink="http://www.w3.org/1999/xlink">
  <circle fill="#22A079" fill-rule="nonzero" cx="12" cy="12" r="12"></circle>
  <path d="M13.52,9.93 L13.52,12.07 L10.52,12.07 L10.52,9.93 C7.52,10.06 5.3,10.6 5.3,11.23 C5.3,11.86 8.3,12.57 12.04,12.57 C15.78,12.57 18.78,11.97 18.78,11.23 C18.78,10.49 16.51,10.06 13.52,9.93 Z M17.71,5 L17.71,7.9 L13.52,7.9 L13.52,9.7 C16.93,9.86 19.52,10.56 19.52,11.39 C19.52,12.22 16.95,12.91 13.52,13.07 L13.52,19 L10.52,19 L10.52,13.07 C7.11,12.91 4.52,12.22 4.52,11.39 C4.52,10.56 7.09,9.86 10.52,9.7 L10.52,7.9 L6.29,7.9 L6.29,5 L17.71,5 Z" fill="#FFFFFF"></path>
</svg>
