<svg width="24" height="24" viewBox="0 0 24 24" fill="none" xmlns="http://www.w3.org/2000/svg">
<g clip-path="url(#clip0_2627_6787)">
<path d="M12 24C18.6274 24 24 18.6274 24 12C24 5.37258 18.6274 0 12 0C5.37258 0 0 5.37258 0 12C0 18.6274 5.37258 24 12 24Z" fill="url(#paint0_linear_2627_6787)"/>
<path d="M10.4352 12.3227V19.0257C10.4352 19.1973 10.435 19.1978 10.2612 19.1978H8.41371C8.27067 19.1978 8.26611 19.193 8.26611 19.0502L8.26588 14.9771C8.26588 14.8139 8.25795 14.8087 8.10075 14.8427C7.21459 15.0337 6.31108 15.1326 5.40459 15.1379C5.30547 15.1384 5.27979 15.1043 5.28027 15.01C5.28339 14.3733 5.28339 13.7363 5.28027 13.0996C5.27979 13.0055 5.30739 12.97 5.40507 12.9688C6.37515 12.9595 7.33155 12.8361 8.26299 12.5654C8.74875 12.4243 9.21987 12.2327 9.69723 12.0631C9.72819 12.052 9.7558 12.0319 9.80812 12.0031C9.75244 11.9721 9.71955 11.9498 9.68403 11.9344C8.93163 11.6115 8.14569 11.3732 7.34067 11.2238C6.70407 11.1071 6.05892 11.043 5.41179 11.0323C5.31147 11.0303 5.27955 11.0003 5.28003 10.8995C5.28363 10.2628 5.28339 9.62587 5.28051 8.98915C5.28003 8.89435 5.31051 8.8581 5.40747 8.8605C6.01635 8.87562 6.62379 8.90971 7.22595 9.00595C7.53987 9.05611 7.85236 9.11634 8.16436 9.17538C8.25004 9.19146 8.26707 9.15522 8.26659 9.08058C8.26491 8.65026 8.26588 8.21971 8.26588 7.78939V4.95498C8.26588 4.8033 8.2666 4.80282 8.41756 4.80282H10.2968C10.4343 4.80282 10.435 4.80355 10.435 4.94467C10.435 6.54738 10.4362 8.14987 10.4326 9.75259C10.4326 9.85675 10.4693 9.90379 10.561 9.94818C11.017 10.1695 11.4706 10.3965 11.9206 10.6293C12.0077 10.6744 12.0646 10.6773 12.1433 10.6149C14.0194 9.13027 15.3041 7.24458 15.9869 4.95114C16.0212 4.83594 16.0702 4.79898 16.1895 4.79994C16.8332 4.80594 17.4771 4.80259 18.121 4.80307C18.2609 4.80307 18.2739 4.81939 18.2403 4.95475C17.5551 7.70994 16.14 10.0199 14.0062 11.891C13.8795 12.0021 13.879 12.0016 14.0084 12.1147C15.8494 13.7231 17.166 15.683 17.9391 18.0038C18.0538 18.3484 18.1424 18.7019 18.24 19.0521C18.2753 19.1791 18.2583 19.1975 18.1227 19.1975C17.4684 19.198 16.8142 19.1959 16.1597 19.1999C16.0596 19.2004 16.0205 19.162 15.9929 19.0706C15.092 16.102 13.2802 13.8693 10.5699 12.3635C10.5423 12.3486 10.514 12.3352 10.4849 12.3235C10.476 12.3199 10.4648 12.3227 10.4352 12.3227Z" fill="url(#paint1_radial_2627_6787)"/>
</g>
<defs>
<linearGradient id="paint0_linear_2627_6787" x1="2350.34" y1="49.6559" x2="99.5279" y2="2300.47" gradientUnits="userSpaceOnUse">
<stop stop-color="#282A2D"/>
<stop offset="1" stop-color="#354252"/>
</linearGradient>
<radialGradient id="paint1_radial_2627_6787" cx="0" cy="0" r="1" gradientUnits="userSpaceOnUse" gradientTransform="translate(654.074 1725.03) scale(1579.97 1753.38)">
<stop stop-color="#1E89DD"/>
<stop offset="1" stop-color="#60FBD0"/>
</radialGradient>
<clipPath id="clip0_2627_6787">
<rect width="24" height="24" fill="white"/>
</clipPath>
</defs>
</svg>
