<svg width="24" height="24" viewBox="0 0 24 24" fill="none" xmlns="http://www.w3.org/2000/svg">
<circle cx="12" cy="12" r="12" fill="#172852"/>
<path d="M10.3316 16.3335C10.7816 17.9985 12.3962 19.2686 13.2116 19.216C13.2402 19.2142 16.3042 18.6429 17.9816 15.841C19.2866 13.66 18.8427 11.5545 17.0672 11.5086C16.4287 11.5552 9.47458 13.1621 10.3321 16.3339L10.3316 16.3335ZM16.9016 5.64037L16.8998 5.63879L16.9023 5.63722C15.784 4.68609 14.4199 4.07024 12.9669 3.86061C11.5139 3.65098 10.0313 3.85611 8.68978 4.45237C8.52009 4.52295 8.35479 4.60364 8.19478 4.69402C8.08543 4.75229 7.97608 4.81012 7.86988 4.87402L7.89575 4.88212C7.58175 5.09587 7.30409 5.35864 7.07338 5.66039C4.83867 8.61442 12.3343 10.7625 16.3425 10.7688C18.1855 12.0922 18.703 7.04257 16.9016 5.64037V5.64037Z" fill="#0E3CA5"/>
<path d="M9.14254 5.70004C8.11271 7.24804 4.68259 8.33862 4.11851 8.16874L4.11469 8.16154C4.13719 8.11497 4.16126 8.06839 4.18511 8.02227C4.77006 6.89561 5.607 5.91907 6.63086 5.16859C6.84191 5.01379 7.06046 4.86912 7.28651 4.73457C7.63405 4.54268 8.02335 4.439 8.42029 4.43262C9.94782 4.46187 9.15019 5.68812 9.14209 5.70049L9.14254 5.70004ZM8.29744 16.638C8.37146 17.1242 8.29564 19.0455 8.19619 19.207C8.11046 19.2122 7.93204 19.2232 7.41521 18.9332C5.76492 17.9916 4.4917 16.5074 3.81205 14.7331C3.1324 12.9587 3.08828 11.0038 3.68719 9.20059C3.71464 9.11809 3.74336 9.03612 3.77336 8.95467C4.36534 9.74217 5.05046 10.4545 5.63276 11.2497C6.18739 12.0068 6.95036 13.2411 7.10561 13.5051C8.06951 15.1424 8.22319 16.1526 8.29676 16.6382L8.29744 16.638ZM19.6926 11.7962C19.6938 12.8287 19.4999 13.8521 19.1211 14.8125C18.1536 15.852 11.6322 13.2931 11.5683 13.265C10.6761 12.8742 7.96129 11.685 7.71626 9.81754C7.36504 7.12879 12.8168 5.25589 15.213 5.18502C15.5004 5.18839 16.3747 5.19852 16.8846 5.61252C17.7675 6.38254 18.4751 7.33297 18.9595 8.3997C19.4439 9.46643 19.6939 10.6246 19.6926 11.7962V11.7962ZM15.2778 19.0799C14.5671 19.4118 13.7843 19.1699 13.9877 18.4778C14.3781 17.1483 17.787 15.7852 18.5399 15.7103C18.6328 15.7011 18.6722 15.7643 18.631 15.8365C17.8467 17.2157 16.6832 18.341 15.2785 19.0788" fill="#5493F7"/>
<path d="M6.90057 20.3824C6.89053 20.5325 6.93981 20.6806 7.03781 20.7947C7.13581 20.9089 7.2747 20.98 7.4246 20.9928C14.3321 21.0401 21 20.7228 21 19.6878C21 16.5549 6.90057 20.3824 6.90057 20.3824Z" fill="url(#paint0_linear_930_6726)"/>
<path d="M6.9006 20.3824C6.89041 20.533 6.93997 20.6815 7.03852 20.7957C7.13707 20.91 7.27669 20.9808 7.4271 20.9928C14.3328 21.0453 20.9917 20.8284 21 19.6878C21 16.5549 6.9006 20.3824 6.9006 20.3824ZM7.42733 20.953C7.40891 20.953 7.3905 20.9519 7.3722 20.9499C7.26694 20.9351 7.16836 20.8896 7.08883 20.8191C7.0093 20.7486 6.95236 20.6562 6.92513 20.5534C6.95466 20.6648 7.0195 20.7636 7.10991 20.835C7.20033 20.9065 7.31146 20.9467 7.42665 20.9496C14.3276 20.9064 20.8918 18.7815 20.8918 19.7171C20.8918 20.672 14.3281 21 7.42733 20.953V20.953Z" fill="url(#paint1_linear_930_6726)"/>
<path d="M7.42781 11.5099C7.35856 11.5099 7.28999 11.5236 7.22602 11.5501C7.16204 11.5766 7.10392 11.6154 7.05496 11.6644C7.00601 11.7134 6.96718 11.7715 6.9407 11.8355C6.91422 11.8995 6.90061 11.9681 6.90064 12.0373V20.3823C6.90045 20.5217 6.95549 20.6555 7.0537 20.7544C7.15191 20.8532 7.28529 20.9092 7.42466 20.91C14.3317 20.8582 21.0084 18.572 21 19.6882V10.2884C21.0084 9.17239 14.334 11.4584 7.42781 11.5099V11.5099Z" fill="url(#paint2_linear_930_6726)"/>
<path d="M8.44614 17.2697C8.69207 17.26 8.93304 17.2497 9.16974 17.2364C9.40644 17.2231 9.63819 17.2081 9.86612 17.1914C10.094 17.1748 10.3175 17.1554 10.538 17.1354C10.7585 17.1154 10.9758 17.0949 11.1905 17.0735C11.4051 17.0521 11.6168 17.0299 11.8261 17.006C12.2385 16.9592 12.6504 16.9084 13.0618 16.8537C13.2654 16.8265 13.4668 16.7988 13.6693 16.7693C13.8718 16.7398 14.0709 16.7083 14.2727 16.6773C14.4746 16.6462 14.6777 16.615 14.8802 16.5828C15.0827 16.5506 15.2873 16.518 15.4918 16.4838C15.6963 16.4496 15.9022 16.4134 16.1108 16.3776C16.3193 16.3418 16.5306 16.3058 16.7441 16.2687C16.9577 16.2316 17.1739 16.1944 17.393 16.1562C17.6122 16.1179 17.8343 16.0781 18.0606 16.0401C18.287 16.0021 18.5174 15.9647 18.752 15.9289C18.9867 15.8932 19.202 15.8614 19.4945 15.8245C19.8134 15.7792 20.1357 15.762 20.4575 15.7732C20.7602 15.7937 20.9998 15.8707 20.9998 16.0817V15.3581C20.9998 15.1498 20.7701 15.0751 20.4881 15.0519C20.1876 15.0366 19.8863 15.0493 19.5881 15.0897C19.3071 15.1219 19.1046 15.1527 18.8931 15.184C18.6816 15.2152 18.4753 15.2479 18.2723 15.2812C18.0694 15.3145 17.8696 15.3487 17.6711 15.3831C17.4727 15.4175 17.2751 15.4528 17.0762 15.4877C16.8773 15.5226 16.6769 15.5572 16.4732 15.5921L15.8507 15.6992C15.6387 15.7357 15.4232 15.7723 15.1982 15.809C14.9732 15.8457 14.7383 15.8821 14.4946 15.9197C14.2509 15.9573 13.998 15.9973 13.7339 16.0365V15.3133C13.998 15.2744 14.2514 15.2341 14.4946 15.1966C14.7378 15.159 14.9727 15.1221 15.1982 15.0859C15.4236 15.0496 15.6396 15.0125 15.8507 14.9758C16.0617 14.9392 16.2698 14.9038 16.4735 14.869L17.0762 14.7646L17.6711 14.6599C17.8696 14.6251 18.0692 14.5924 18.2723 14.558C18.4755 14.5236 18.6814 14.4923 18.8931 14.4608C19.1048 14.4293 19.3071 14.3985 19.5881 14.3665C19.8863 14.3264 20.1876 14.3136 20.4881 14.3285C20.7703 14.351 21 14.4266 21 14.6347V13.9125C21 13.7046 20.7703 13.6294 20.4884 13.606C20.1878 13.5912 19.8866 13.6039 19.5884 13.6441C19.3073 13.6765 19.1051 13.7068 18.8933 13.7383C18.6816 13.7698 18.4755 13.8022 18.2726 13.8355C18.0696 13.8688 17.8698 13.903 17.6714 13.9375C17.4729 13.9719 17.2754 14.0077 17.0765 14.0423L16.4735 14.1467C16.2698 14.1818 16.0631 14.2169 15.8509 14.2536C15.6387 14.2903 15.4234 14.3269 15.1984 14.3632C14.9734 14.3994 14.7385 14.4365 14.4948 14.4741C14.2511 14.5117 13.9982 14.5517 13.7343 14.5906V13.8677C13.998 13.8286 14.2518 13.789 14.495 13.7509C14.7383 13.7129 14.9732 13.6765 15.1986 13.6402C15.4241 13.604 15.6396 13.5671 15.8511 13.5304L16.4739 13.4236C16.6764 13.3885 16.8778 13.354 17.0767 13.3192L17.6716 13.2145C18.0781 13.143 18.4854 13.0767 18.8936 13.0154C19.1053 12.9844 19.3076 12.9531 19.5886 12.9209C19.8868 12.8809 20.1881 12.8683 20.4886 12.8831C20.7705 12.9056 21.0002 12.9814 21.0002 13.1896V12.4657C21.0002 12.2576 20.7705 12.1831 20.4886 12.1597C20.1881 12.1447 19.8868 12.1573 19.5886 12.1975C19.3076 12.2297 19.1053 12.2605 18.8936 12.2918C18.6818 12.3231 18.4757 12.3559 18.2728 12.389C18.0698 12.4221 17.87 12.4565 17.6716 12.4907L17.0767 12.5958L16.4737 12.7C16.2701 12.7351 16.0633 12.7699 15.8511 12.8068C15.6389 12.8437 15.4236 12.8802 15.1986 12.9164C14.9736 12.9526 14.7385 12.9898 14.4946 13.0276C14.2507 13.0654 13.9978 13.1052 13.7341 13.1443V12.4212C13.9978 12.382 14.2502 12.342 14.4944 12.3042C14.7385 12.2664 14.9732 12.2299 15.1986 12.1933C15.4241 12.1566 15.6389 12.1201 15.8511 12.0837L16.4739 11.9768C16.6764 11.9417 16.8778 11.9075 17.0767 11.8724C17.2756 11.8373 17.4729 11.8024 17.6716 11.7678C17.8703 11.7331 18.0696 11.6987 18.2728 11.6656C18.476 11.6326 18.6818 11.5999 18.8933 11.5687C19.1048 11.5374 19.3076 11.5066 19.5886 11.4744C19.8868 11.4342 20.1881 11.4215 20.4886 11.4364C20.7707 11.4589 21.0005 11.5347 21.0005 11.7426V11.0197C21.0005 10.8115 20.7707 10.7366 20.4888 10.7132C20.1883 10.6985 19.887 10.7112 19.5888 10.7512C19.3078 10.7834 19.1055 10.814 18.8938 10.8455C18.6821 10.877 18.476 10.9094 18.273 10.9427C18.0701 10.976 17.8703 11.0102 17.6718 11.0446C17.4734 11.0791 17.2758 11.1148 17.0769 11.1495C16.878 11.1841 16.6775 11.2188 16.4741 11.2534L15.8513 11.3608C15.3999 11.4388 14.9476 11.5122 14.4946 11.581C14.2505 11.6188 13.9978 11.6587 13.7341 11.698V10.9648C11.647 11.2915 9.53979 11.4736 7.42757 11.5099C7.35832 11.5099 7.28975 11.5236 7.22577 11.5501C7.1618 11.5766 7.10367 11.6155 7.05472 11.6644C7.00576 11.7134 6.96693 11.7716 6.94046 11.8355C6.91398 11.8995 6.90036 11.9681 6.90039 12.0373V17.3023C7.17039 17.3023 7.43319 17.299 7.69059 17.2933C7.94799 17.2877 8.19999 17.2792 8.44614 17.2697V17.2697Z" fill="url(#paint3_linear_930_6726)"/>
<path d="M8.44498 18.7161C8.69135 18.7066 8.9321 18.6958 9.1688 18.6828C9.4055 18.6697 9.63748 18.6542 9.8663 18.6378C10.0951 18.6214 10.3174 18.6022 10.5379 18.582C10.7584 18.5617 10.9758 18.5417 11.1904 18.5199C11.4051 18.4981 11.6179 18.4762 11.8261 18.4524C12.2382 18.4053 12.65 18.3546 13.0613 18.3003C13.2647 18.2731 13.4663 18.2449 13.6688 18.2157C13.8713 18.1864 14.0709 18.1547 14.2725 18.1234C14.4741 18.0922 14.6775 18.0613 14.88 18.0294C15.0825 17.9974 15.2872 17.9641 15.492 17.9302C15.6967 17.8962 15.9026 17.86 16.1112 17.824L16.7443 17.7151C16.9579 17.6782 17.1743 17.641 17.3932 17.6026C17.6122 17.5641 17.8347 17.5247 18.061 17.4865C18.2874 17.4482 18.5178 17.4111 18.7525 17.3753C18.9871 17.3395 19.2011 17.3078 19.495 17.2709C19.8138 17.2253 20.1361 17.208 20.458 17.2194C20.7606 17.2401 21.0002 17.3173 21.0002 17.5281V16.8043C21.0002 16.5934 20.7606 16.516 20.4582 16.4956C20.1362 16.4842 19.8139 16.5014 19.495 16.5469C19.2009 16.5829 18.9869 16.6159 18.7525 16.6515C18.518 16.687 18.2874 16.7242 18.061 16.7624C17.8347 16.8007 17.6126 16.8396 17.3935 16.8785C17.1743 16.9174 16.9581 16.9546 16.7443 16.991C16.5306 17.0275 16.3198 17.0637 16.1112 17.0999C15.9026 17.1361 15.6967 17.1719 15.4922 17.2061C15.2877 17.2403 15.0834 17.2736 14.8802 17.3051L14.2727 17.3998C14.0702 17.4313 13.8704 17.4624 13.669 17.4916C13.4677 17.5209 13.2654 17.5495 13.0615 17.5762C12.8577 17.603 12.6534 17.6293 12.4477 17.6548C12.2421 17.6802 12.0355 17.7052 11.8263 17.7283C11.617 17.7515 11.4053 17.7733 11.1907 17.7958C10.976 17.8183 10.7587 17.8377 10.5382 17.8577C10.3177 17.8777 10.094 17.8969 9.8663 17.9137C9.6386 17.9306 9.40618 17.9459 9.1688 17.9587C8.93143 17.9716 8.69113 17.9826 8.44498 17.992C8.19883 18.0015 7.94728 18.0094 7.68965 18.0145C7.43203 18.0197 7.16945 18.024 6.8999 18.024V18.7469C7.41506 18.7454 7.93016 18.7351 8.44498 18.7161V18.7161Z" fill="url(#paint4_linear_930_6726)"/>
<path d="M20.4578 17.9416C20.1359 17.9303 19.8136 17.9475 19.4948 17.9929C19.2007 18.0291 18.9867 18.0617 18.7523 18.0975C18.5178 18.1333 18.2874 18.1704 18.0611 18.2084C17.8347 18.2464 17.6111 18.2858 17.393 18.3245C17.175 18.3632 16.9577 18.4008 16.7441 18.437L16.1108 18.5459C15.9022 18.5817 15.6963 18.6181 15.4916 18.6521C15.2868 18.6861 15.0827 18.7196 14.8796 18.7511C14.6764 18.7826 14.4746 18.8146 14.2721 18.8454C14.0696 18.8762 13.8698 18.9077 13.6682 18.9374C13.4666 18.9671 13.2632 18.9955 13.0607 19.0222C12.6494 19.0764 12.2376 19.1271 11.8254 19.1743C11.6162 19.1977 11.4044 19.2193 11.1898 19.2418C10.9751 19.2643 10.758 19.2839 10.5373 19.3039C10.3166 19.324 10.0931 19.3429 9.86545 19.3597C9.63775 19.3766 9.40532 19.3917 9.16795 19.4047C8.41234 19.4461 7.65579 19.4679 6.89905 19.47V20.1945C7.16905 20.1945 7.4323 20.1915 7.6888 20.1855C7.9453 20.1795 8.19707 20.172 8.44412 20.163C8.6905 20.1535 8.93125 20.1427 9.16795 20.1297C9.40465 20.1166 9.63662 20.1011 9.86545 20.0847C10.0943 20.0683 10.3168 20.0487 10.5373 20.0289C10.7578 20.0091 10.9749 19.9886 11.1898 19.967C11.4047 19.9454 11.6173 19.9234 11.8254 19.8995C12.0335 19.8757 12.2414 19.8514 12.4471 19.8257C12.6527 19.8001 12.857 19.7746 13.0604 19.7474C13.2638 19.7202 13.4654 19.6923 13.6679 19.6628C13.8704 19.6333 14.07 19.6016 14.2718 19.5708C14.4737 19.54 14.6768 19.5082 14.8793 19.4763C15.0818 19.4443 15.2864 19.4115 15.4913 19.3771C15.6963 19.3426 15.9024 19.3069 16.111 19.2709L16.7441 19.1622L17.3928 19.0497C17.612 19.0112 17.8345 18.9716 18.0611 18.9336C18.2876 18.8956 18.5176 18.8582 18.7523 18.8224C18.9869 18.7867 19.2023 18.7549 19.4948 18.7183C19.8137 18.673 20.1359 18.6559 20.4578 18.667C20.7604 18.687 21 18.7642 21 18.9752V18.25C21 18.039 20.7604 17.9625 20.4578 17.9416V17.9416Z" fill="url(#paint5_linear_930_6726)"/>
<path d="M8.39995 16.5486C8.62945 16.54 8.84995 16.5303 9.06663 16.5189C9.2833 16.5074 9.49413 16.4946 9.70113 16.4799C9.90813 16.4653 10.1142 16.4491 10.319 16.4316C10.7366 16.3953 11.154 16.355 11.5709 16.3107C11.7869 16.2878 12.0074 16.2628 12.2364 16.2349C12.4655 16.207 12.704 16.1775 12.9528 16.1449C13.2017 16.1123 13.4618 16.0774 13.7336 16.0365V10.965C11.6468 11.2916 9.54002 11.4737 7.42818 11.5099C7.35893 11.5099 7.29036 11.5236 7.22638 11.5501C7.16241 11.5766 7.10428 11.6154 7.05533 11.6644C7.00637 11.7134 6.96755 11.7715 6.94107 11.8355C6.91459 11.8995 6.90097 11.9681 6.901 12.0373V16.5789C7.17438 16.5789 7.43425 16.5758 7.68333 16.5702C7.9324 16.5645 8.17023 16.5569 8.39995 16.5486V16.5486Z" fill="url(#paint6_linear_930_6726)"/>
<path d="M8.5274 11.7233C8.50152 11.804 8.48892 11.8445 8.46327 11.9258L8.25537 11.9334L8.42345 12.0513L8.3591 12.2538C8.4266 12.2018 8.46012 12.1764 8.5274 12.1242C8.5949 12.1712 8.62775 12.1942 8.69547 12.2408C8.66937 12.162 8.65677 12.1226 8.63112 12.0437L8.79942 11.9125C8.71617 11.9165 8.67432 11.9177 8.5913 11.9215L8.5274 11.7233Z" fill="url(#paint7_linear_930_6726)"/>
<path d="M9.12807 14.218L9.06394 14.4216L8.85559 14.432L9.02389 14.5474C8.99824 14.6286 8.98542 14.6694 8.95954 14.7499C9.02704 14.6975 9.06079 14.6709 9.12807 14.6176C9.19557 14.6626 9.22932 14.6851 9.29682 14.7315L9.23224 14.5353L9.40099 14.4014C9.31752 14.4068 9.27589 14.4093 9.19264 14.4138L9.12807 14.218Z" fill="url(#paint8_linear_930_6726)"/>
<path d="M9.19264 15.4236L9.12807 15.2272L9.06394 15.431L8.85559 15.4411C8.92309 15.4875 8.95662 15.5109 9.02389 15.5566C8.99824 15.638 8.98542 15.6785 8.95954 15.7591C9.02704 15.7062 9.06079 15.6796 9.12807 15.6263C9.19557 15.6713 9.22932 15.6952 9.29682 15.7406L9.23224 15.5444L9.40099 15.4105C9.31752 15.4166 9.27589 15.42 9.19264 15.4236V15.4236Z" fill="url(#paint9_linear_930_6726)"/>
<path d="M8.52715 13.7415C8.50128 13.8227 8.48845 13.8627 8.46303 13.944C8.37978 13.9473 8.33815 13.9491 8.25513 13.9516C8.32263 13.9986 8.3557 14.0225 8.42298 14.0691L8.35908 14.2716C8.42658 14.2198 8.45988 14.1935 8.52715 14.1413C8.59465 14.1881 8.62773 14.2115 8.69545 14.2583C8.66935 14.1793 8.65653 14.1399 8.63088 14.0607L8.7994 13.9298C8.71615 13.9336 8.6743 13.9356 8.59128 13.9388L8.52715 13.7415Z" fill="url(#paint10_linear_930_6726)"/>
<path d="M8.52691 14.7506L8.46301 14.9531C8.37976 14.9558 8.33791 14.9578 8.25488 14.9608L8.42296 15.0782L8.35883 15.2807L8.52691 15.15L8.69543 15.2668C8.66933 15.1878 8.65651 15.1486 8.63086 15.0694C8.69836 15.0175 8.73188 14.9907 8.79938 14.9383L8.59126 14.9473L8.52691 14.7506V14.7506Z" fill="url(#paint11_linear_930_6726)"/>
<path d="M8.52738 12.7324L8.46303 12.9349L8.25513 12.9426L8.4232 13.0602L8.35908 13.2627C8.42658 13.211 8.4601 13.1849 8.52738 13.1327C8.59488 13.1795 8.62773 13.2029 8.69545 13.2495C8.66935 13.1707 8.65653 13.1311 8.63088 13.0521L8.7994 12.921C8.71615 12.9248 8.67453 12.9268 8.59128 12.9302C8.56585 12.8508 8.5528 12.8116 8.52738 12.7324V12.7324Z" fill="url(#paint12_linear_930_6726)"/>
<path d="M10.3309 15.1421L10.2668 15.3473C10.1833 15.3545 10.1415 15.3576 10.0582 15.3646C10.1257 15.4096 10.1595 15.4321 10.2268 15.4746L10.1626 15.6801L10.3309 15.5424L10.4992 15.651C10.4777 15.5863 10.4562 15.5215 10.4349 15.4566L10.6032 15.3176C10.5197 15.3255 10.4781 15.3288 10.3951 15.3363C10.3694 15.2584 10.3575 15.2199 10.3309 15.1421V15.1421Z" fill="url(#paint13_linear_930_6726)"/>
<path d="M9.12807 13.209L9.06394 13.4126C8.98047 13.4171 8.93884 13.4189 8.85559 13.423L9.02389 13.5382L8.95954 13.7418L9.12807 13.6093C9.19557 13.6543 9.22932 13.6768 9.29682 13.7231C9.27117 13.6448 9.25789 13.6054 9.23224 13.5267L9.40099 13.3933C9.31752 13.3982 9.27589 13.4011 9.19264 13.4054L9.12807 13.209Z" fill="url(#paint14_linear_930_6726)"/>
<path d="M9.72999 14.6849L9.66542 14.8897L9.45752 14.9025L9.62627 15.015L9.56192 15.2191L9.73044 15.0841L9.89897 15.1952L9.83462 14.9999C9.90212 14.9457 9.93564 14.9183 10.0029 14.8636L9.79479 14.8793C9.77272 14.8147 9.75112 14.7499 9.72999 14.6849V14.6849Z" fill="url(#paint15_linear_930_6726)"/>
<path d="M9.79504 15.8896L9.73069 15.6943L9.66611 15.8989C9.58309 15.9047 9.54124 15.9072 9.45776 15.9126L9.62651 16.0251L9.56216 16.2298C9.62966 16.1761 9.66319 16.1484 9.73069 16.0948C9.79819 16.1398 9.83171 16.1623 9.89921 16.2062L9.83486 16.0109C9.90236 15.9565 9.93589 15.9295 10.0032 15.8746L9.79504 15.8896V15.8896Z" fill="url(#paint16_linear_930_6726)"/>
<path d="M9.12807 12.1998L9.06394 12.4023C8.98047 12.4068 8.93884 12.4086 8.85559 12.4129L9.02389 12.5283C8.99824 12.6098 8.98542 12.6505 8.95954 12.7308C9.02704 12.678 9.06079 12.6516 9.12807 12.5983C9.19557 12.6433 9.22932 12.6658 9.29682 12.7124L9.23224 12.516C9.29974 12.4629 9.33327 12.4356 9.40099 12.3821C9.31752 12.3873 9.27589 12.39 9.19264 12.3945L9.12807 12.1998Z" fill="url(#paint17_linear_930_6726)"/>
<path d="M9.72953 13.676L9.6654 13.8806C9.58193 13.886 9.54075 13.8891 9.45728 13.894L9.6258 14.0065L9.56123 14.2111L9.72998 14.0761L9.8985 14.1872L9.83415 13.9917L10.0025 13.8567L9.79433 13.8724L9.72953 13.676Z" fill="url(#paint18_linear_930_6726)"/>
<path d="M8.59126 15.9576L8.52691 15.76L8.46278 15.9625L8.25488 15.9704C8.32238 16.017 8.35568 16.041 8.42296 16.0878L8.35883 16.2903L8.52691 16.1601L8.69543 16.2771L8.63086 16.0797L8.79938 15.9486L8.59126 15.9576V15.9576Z" fill="url(#paint19_linear_930_6726)"/>
<path d="M7.32405 13.7743L7.25948 13.9752C7.176 13.9752 7.13415 13.9752 7.0509 13.9766C7.1184 14.0256 7.15215 14.0504 7.21965 14.099L7.15508 14.2999L7.32383 14.1741C7.39133 14.2229 7.42508 14.2468 7.49258 14.2954L7.42845 14.0965L7.59698 13.9698C7.5135 13.9712 7.47188 13.9725 7.3884 13.9734L7.32405 13.7743Z" fill="url(#paint20_linear_930_6726)"/>
<path d="M7.32405 12.765L7.25948 12.9657C7.176 12.9657 7.13415 12.9668 7.0509 12.9671L7.21965 13.0895L7.1553 13.2904L7.32405 13.1651L7.49258 13.2859L7.42845 13.0868C7.49595 13.0364 7.52948 13.0114 7.59698 12.9603C7.51373 12.9619 7.47188 12.9626 7.3884 12.9637L7.32405 12.765V12.765Z" fill="url(#paint21_linear_930_6726)"/>
<path d="M7.38755 15.992L7.32297 15.7928L7.2584 15.9933C7.17492 15.9944 7.1333 15.9947 7.05005 15.9951L7.2188 16.1173L7.15445 16.3184L7.32297 16.1929L7.49172 16.3142C7.47017 16.2477 7.44872 16.1812 7.42737 16.1146L7.5959 15.9881C7.51332 15.9902 7.47192 15.9904 7.38755 15.992V15.992Z" fill="url(#paint22_linear_930_6726)"/>
<path d="M9.56121 13.2019L9.72951 13.0669C9.79701 13.1119 9.83098 13.1344 9.89826 13.1783L9.83413 12.9828L10.0024 12.8462C9.91896 12.853 9.87756 12.8561 9.79431 12.8622L9.72973 12.6671L9.66538 12.8712C9.58236 12.877 9.54051 12.8795 9.45703 12.8851L9.62578 12.9976L9.56121 13.2019V13.2019Z" fill="url(#paint23_linear_930_6726)"/>
<path d="M9.56121 12.1926C9.62871 12.1388 9.66246 12.1118 9.72973 12.0576C9.79723 12.1026 9.83098 12.1251 9.89826 12.1688L9.83413 11.9735C9.90163 11.9192 9.93516 11.8918 10.0024 11.8371C9.91896 11.8439 9.87756 11.8468 9.79431 11.8529L9.72973 11.6573L9.66538 11.8619C9.58236 11.8679 9.54051 11.8706 9.45703 11.8758L9.62578 11.9883L9.56121 12.1926Z" fill="url(#paint24_linear_930_6726)"/>
<path d="M7.32405 14.7834L7.25925 14.9844H7.0509L7.21965 15.1074L7.15508 15.3079L7.32383 15.1824L7.49258 15.3034L7.42845 15.1043L7.59675 14.9778C7.5135 14.9794 7.47188 14.9801 7.3884 14.9812L7.32405 14.7834V14.7834Z" fill="url(#paint25_linear_930_6726)"/>
<path d="M7.92612 12.2476L7.86177 12.4489C7.77852 12.451 7.7369 12.4523 7.6532 12.4541L7.82195 12.574L7.7576 12.7765L7.92612 12.6483L8.09487 12.7671L8.0303 12.5689L8.19882 12.4397L7.99092 12.4462C7.96482 12.367 7.952 12.3274 7.92612 12.2476V12.2476Z" fill="url(#paint26_linear_930_6726)"/>
<path d="M7.92612 13.2573L7.86177 13.4598L7.6532 13.4648C7.7207 13.5129 7.75445 13.5365 7.82195 13.5842C7.79607 13.6648 7.78325 13.7055 7.7576 13.7867C7.8251 13.7354 7.85862 13.7102 7.9259 13.6587C7.9934 13.7064 8.02737 13.7298 8.09487 13.7771L8.0303 13.5791L8.19882 13.4501L7.99047 13.4567C7.9646 13.3761 7.952 13.3367 7.92612 13.2573V13.2573Z" fill="url(#paint27_linear_930_6726)"/>
<path d="M7.99033 15.4737L7.92598 15.2755L7.86163 15.478C7.77816 15.4803 7.73631 15.4812 7.65283 15.483L7.82181 15.6027L7.75723 15.8052L7.92576 15.6771L8.09473 15.7959L8.03016 15.5977L8.19868 15.4686L7.99033 15.4737Z" fill="url(#paint28_linear_930_6726)"/>
<path d="M7.9259 14.2665L7.86155 14.469C7.7783 14.471 7.73645 14.4724 7.6532 14.4737L7.82172 14.5936C7.79585 14.6742 7.78302 14.7149 7.75737 14.7961L7.9259 14.6679L8.09465 14.7867C8.069 14.7075 8.05617 14.6679 8.03007 14.5887C8.09757 14.5374 8.13155 14.5111 8.19882 14.4593C8.11535 14.462 8.07372 14.4638 7.99047 14.4663L7.9259 14.2665V14.2665Z" fill="url(#paint29_linear_930_6726)"/>
<path d="M7.32405 11.7556L7.2597 11.9565C7.17623 11.9565 7.13415 11.9579 7.0509 11.9583C7.1184 12.0074 7.15238 12.0321 7.21965 12.0805L7.1553 12.281L7.32405 12.1561C7.39155 12.2047 7.4253 12.2286 7.4928 12.2767L7.42868 12.0778L7.59743 11.9511C7.51395 11.9529 7.47188 11.9538 7.3884 11.955L7.32405 11.7556V11.7556Z" fill="url(#paint30_linear_930_6726)"/>
<path d="M10.3309 14.1332L10.2668 14.3384C10.1833 14.3456 10.1419 14.3487 10.0585 14.3555C10.126 14.4005 10.1595 14.4216 10.2268 14.4653L10.1626 14.6709C10.2301 14.616 10.2637 14.5881 10.3309 14.533L10.4992 14.6417L10.4349 14.4475L10.6032 14.3085C10.5197 14.3163 10.4781 14.3197 10.3951 14.3271C10.3694 14.25 10.3575 14.211 10.3309 14.1332V14.1332Z" fill="url(#paint31_linear_930_6726)"/>
<path d="M12.7353 13.8754L12.6707 14.0835L12.4622 14.1098L12.6307 14.2124L12.5661 14.4205L12.7351 14.2756C12.8026 14.3161 12.8363 14.3368 12.9038 14.3776L12.8393 14.1859L13.0082 14.0401L12.7997 14.0673L12.7353 13.8754Z" fill="url(#paint32_linear_930_6726)"/>
<path d="M12.7353 12.8662C12.7094 12.9497 12.6964 12.9909 12.6707 13.0743C12.5873 13.0849 12.5454 13.0903 12.4622 13.1002C12.5297 13.1418 12.5634 13.1621 12.6309 13.2033L12.5666 13.4112C12.6341 13.3531 12.6678 13.3245 12.7353 13.2663L12.9041 13.3682L12.8395 13.1767L13.0085 13.0307C12.9252 13.0415 12.8831 13.0473 12.7999 13.0579L12.7353 12.8662V12.8662Z" fill="url(#paint33_linear_930_6726)"/>
<path d="M12.7994 15.0762L12.7351 14.8845L12.6705 15.0929C12.5873 15.103 12.5454 15.1088 12.4622 15.1187L12.6307 15.2216L12.5661 15.4297L12.7349 15.2848C12.8024 15.3255 12.8363 15.3458 12.9036 15.3867L12.8393 15.1952L13.008 15.0492L12.7994 15.0762V15.0762Z" fill="url(#paint34_linear_930_6726)"/>
<path d="M12.135 12.4355C12.1096 12.5186 12.097 12.5602 12.0711 12.6434L11.8636 12.6673L12.0315 12.7715L11.9676 12.9791C12.0351 12.922 12.0679 12.8932 12.135 12.8358L12.3031 12.9391L12.2387 12.7469L12.4075 12.6027L12.1991 12.6281C12.1768 12.5643 12.1555 12.5 12.135 12.4355V12.4355Z" fill="url(#paint35_linear_930_6726)"/>
<path d="M12.7355 11.8569L12.6707 12.0651C12.5873 12.0756 12.5456 12.0808 12.4622 12.0909L12.6311 12.194L12.5666 12.4023C12.6341 12.3445 12.6678 12.3148 12.7353 12.257L12.9043 12.3594C12.8829 12.2953 12.8614 12.2314 12.8397 12.1674C12.9072 12.1096 12.9412 12.0797 13.0087 12.0214L12.7999 12.0486L12.7355 11.8569Z" fill="url(#paint36_linear_930_6726)"/>
<path d="M12.135 11.4268C12.1096 11.5096 12.097 11.5514 12.0711 11.6344L11.8636 11.6583C11.9311 11.6997 11.9647 11.7208 12.0315 11.7625L11.9676 11.9699C12.0351 11.9128 12.0679 11.884 12.135 11.8266L12.3033 11.9299L12.2389 11.7379C12.3064 11.6801 12.3398 11.6513 12.4075 11.5937L12.1991 11.6191C12.1769 11.5553 12.1556 11.4912 12.135 11.4268V11.4268Z" fill="url(#paint37_linear_930_6726)"/>
<path d="M13.3374 13.291L13.2728 13.5C13.1896 13.5113 13.1479 13.5171 13.0647 13.5279L13.2332 13.629L13.1686 13.8378L13.3372 13.6911L13.5055 13.7912C13.4796 13.7149 13.467 13.6767 13.4413 13.6002C13.5088 13.5412 13.5421 13.512 13.6092 13.4526C13.5262 13.4647 13.4848 13.4701 13.4017 13.482L13.3374 13.291V13.291Z" fill="url(#paint38_linear_930_6726)"/>
<path d="M13.3379 12.282L13.2733 12.4906C13.19 12.5023 13.1484 12.5077 13.0649 12.5189C13.1324 12.5596 13.166 12.5792 13.2332 12.6195L13.1689 12.8287L13.3376 12.6816L13.5057 12.7822C13.4798 12.7057 13.4672 12.6674 13.4416 12.5907C13.5091 12.5317 13.5424 12.5025 13.6094 12.4433L13.402 12.4728L13.3379 12.282V12.282Z" fill="url(#paint39_linear_930_6726)"/>
<path d="M13.4008 15.5006L13.3367 15.3096L13.2721 15.5184C13.1891 15.5298 13.1472 15.5355 13.0642 15.5465L13.2325 15.6475L13.1679 15.8568C13.2354 15.7983 13.2694 15.7683 13.3367 15.7094L13.5048 15.81L13.4404 15.6187L13.6085 15.4711C13.5255 15.4833 13.485 15.4891 13.4008 15.5006Z" fill="url(#paint40_linear_930_6726)"/>
<path d="M13.3381 11.2723L13.2735 11.4814C13.1903 11.4928 13.1484 11.4987 13.0649 11.5097L13.2339 11.6105L13.1691 11.8191L13.3381 11.6726C13.4056 11.7127 13.4389 11.7329 13.5062 11.7725C13.4805 11.6962 13.4675 11.658 13.442 11.5815C13.5095 11.5225 13.5426 11.4933 13.6097 11.4339C13.5269 11.446 13.4855 11.4521 13.4024 11.4636L13.3381 11.2723Z" fill="url(#paint41_linear_930_6726)"/>
<path d="M13.3372 14.3004L13.2726 14.5092L13.0645 14.5371L13.2328 14.6384L13.1684 14.8469L13.3369 14.7005L13.505 14.8004L13.4409 14.6093C13.5084 14.5504 13.5417 14.5211 13.6087 14.4617C13.5259 14.4741 13.4843 14.4797 13.4011 14.4912L13.3372 14.3004V14.3004Z" fill="url(#paint42_linear_930_6726)"/>
<path d="M12.135 13.4449C12.1096 13.528 12.097 13.5696 12.0711 13.6526L11.8634 13.6767C11.9309 13.7183 11.9644 13.7397 12.0315 13.7811L11.9676 13.9885L12.135 13.845L12.3033 13.9485L12.2389 13.7563C12.3064 13.6987 12.3397 13.6697 12.4075 13.6121C12.324 13.6225 12.2819 13.6274 12.1991 13.6373L12.135 13.4449Z" fill="url(#paint43_linear_930_6726)"/>
<path d="M10.3309 12.1145L10.2668 12.3197C10.1833 12.3269 10.1415 12.3305 10.0582 12.337L10.2268 12.4473L10.1626 12.6527C10.2301 12.5978 10.2637 12.5697 10.3309 12.5146C10.3984 12.5596 10.4317 12.58 10.4992 12.6235L10.4349 12.4293C10.5024 12.3739 10.5359 12.3454 10.6032 12.29L10.3951 12.3089C10.3694 12.2308 10.3575 12.1924 10.3309 12.1145V12.1145Z" fill="url(#paint44_linear_930_6726)"/>
<path d="M10.9321 14.5823L10.8678 14.7886C10.7845 14.7965 10.7427 14.8005 10.6592 14.808L10.8279 14.9157L10.7634 15.1221L10.9321 14.9823C10.9996 15.0255 11.0334 15.0467 11.1009 15.0897L11.0363 14.8962C11.1038 14.8404 11.1373 14.812 11.2048 14.7558L10.9967 14.7765C10.9708 14.7 10.9578 14.6601 10.9321 14.5823V14.5823Z" fill="url(#paint45_linear_930_6726)"/>
<path d="M12.135 14.4541L12.0711 14.6618C11.9881 14.6715 11.9467 14.6766 11.8634 14.6859C11.9309 14.7279 11.9642 14.7489 12.0315 14.7903L11.9674 14.9975C12.0349 14.9403 12.0679 14.9118 12.135 14.8544L12.3031 14.9577L12.2389 14.7657C12.3064 14.7079 12.3397 14.6789 12.4075 14.6213C12.324 14.6316 12.2819 14.6364 12.1991 14.6465C12.1768 14.5827 12.1554 14.5185 12.135 14.4541V14.4541Z" fill="url(#paint46_linear_930_6726)"/>
<path d="M10.9321 12.5641L10.8678 12.7702L10.6592 12.7898L10.8279 12.8975L10.7634 13.1039C10.8309 13.0478 10.8648 13.0202 10.9321 12.9641C10.9996 13.0071 11.0334 13.0283 11.1009 13.0715C11.075 12.9938 11.0619 12.9551 11.0365 12.8775C11.104 12.8215 11.1375 12.7938 11.205 12.7373L10.9967 12.7578L10.9321 12.5641Z" fill="url(#paint47_linear_930_6726)"/>
<path d="M10.9321 15.5917L10.8678 15.7978C10.7845 15.8059 10.7427 15.8097 10.6592 15.8173L10.8279 15.9251L10.7634 16.1317L10.9321 15.9917L11.1009 16.0993L11.0363 15.9053C11.1038 15.8495 11.1373 15.8214 11.2048 15.7651L10.9967 15.7854L10.9321 15.5917V15.5917Z" fill="url(#paint48_linear_930_6726)"/>
<path d="M10.3309 13.125L10.2668 13.3304C10.1833 13.3374 10.1419 13.341 10.0585 13.3475C10.126 13.3925 10.1595 13.415 10.2268 13.4576L10.1626 13.663L10.3309 13.5251C10.3984 13.5687 10.4317 13.5905 10.4992 13.6337L10.4349 13.4396L10.6032 13.3005C10.5197 13.3084 10.4781 13.3117 10.3951 13.3194L10.3309 13.125Z" fill="url(#paint49_linear_930_6726)"/>
<path d="M10.9323 11.5547L10.8678 11.761C10.7845 11.7691 10.7427 11.7727 10.6592 11.7804L10.8277 11.8884L10.7634 12.0942L10.9323 11.9547C10.9998 11.9973 11.0331 12.0193 11.1009 12.0621L11.0365 11.8683C11.104 11.8125 11.1375 11.7842 11.2053 11.7279C11.1218 11.7363 11.0802 11.7408 10.9967 11.7486L10.9323 11.5547V11.5547Z" fill="url(#paint50_linear_930_6726)"/>
<path d="M10.9321 13.5732L10.8678 13.7793L10.6592 13.8L10.8279 13.908L10.7636 14.1144L10.9321 13.9744L11.1009 14.0817L11.0365 13.888L11.205 13.7476C11.1218 13.7562 11.0802 13.7602 10.9967 13.7683C10.971 13.6893 10.958 13.6511 10.9321 13.5732V13.5732Z" fill="url(#paint51_linear_930_6726)"/>
<path d="M12.198 15.656C12.1724 15.5793 12.1598 15.5403 12.1339 15.4634L12.07 15.6711C11.987 15.6812 11.9456 15.6855 11.8623 15.6949L12.0302 15.7993L11.9663 16.007C12.0338 15.9498 12.0668 15.9206 12.1339 15.8632C12.2014 15.9048 12.2349 15.9258 12.3022 15.9669L12.2378 15.7748L12.4064 15.6303L12.198 15.656Z" fill="url(#paint52_linear_930_6726)"/>
<path d="M11.5982 15.2193L11.5338 15.026L11.4692 15.2332L11.2611 15.2557L11.4296 15.3622L11.3653 15.5689L11.534 15.4274L11.7023 15.5331L11.6378 15.3401C11.7053 15.2834 11.739 15.2546 11.8063 15.1975C11.723 15.2058 11.6814 15.2105 11.5982 15.2193V15.2193Z" fill="url(#paint53_linear_930_6726)"/>
<path d="M11.5341 11.9987L11.4697 12.2054C11.3865 12.2144 11.3446 12.218 11.2614 12.2279L11.4299 12.3346L11.3655 12.5414L11.5343 12.3998L11.7026 12.5054L11.638 12.3125L11.8065 12.1701L11.5984 12.1926L11.5341 11.9987V11.9987Z" fill="url(#paint54_linear_930_6726)"/>
<path d="M11.5338 14.0171L11.4695 14.2239L11.2611 14.2464L11.4299 14.3526L11.3655 14.5593L11.534 14.4183L11.7026 14.5233L11.638 14.3307L11.8065 14.1883C11.7233 14.1973 11.6814 14.2023 11.5984 14.2108L11.5338 14.0171V14.0171Z" fill="url(#paint55_linear_930_6726)"/>
<path d="M11.534 13.0078C11.5084 13.0908 11.4953 13.1318 11.4695 13.2148C11.3864 13.2238 11.3444 13.2276 11.2611 13.2362L11.4299 13.3424L11.3655 13.5492L11.534 13.4081L11.7026 13.5134L11.638 13.3206C11.7055 13.2639 11.7392 13.2351 11.8065 13.1781C11.7235 13.1876 11.6816 13.1919 11.5984 13.2006L11.534 13.0078Z" fill="url(#paint56_linear_930_6726)"/>
<defs>
<linearGradient id="paint0_linear_930_6726" x1="6.90057" y1="19.7263" x2="21" y2="19.7263" gradientUnits="userSpaceOnUse">
<stop stop-color="#600000"/>
<stop offset="0.327" stop-color="#630000"/>
<stop offset="0.59" stop-color="#6D0000"/>
<stop offset="0.83" stop-color="#7E0000"/>
<stop offset="1" stop-color="#8F0000"/>
</linearGradient>
<linearGradient id="paint1_linear_930_6726" x1="13.9503" y1="18.4553" x2="13.9503" y2="21" gradientUnits="userSpaceOnUse">
<stop offset="0.35" stop-color="#BF1010"/>
<stop offset="0.645" stop-color="#BD1010"/>
<stop offset="0.752" stop-color="#B60F0F"/>
<stop offset="0.828" stop-color="#AB0D0D"/>
<stop offset="0.889" stop-color="#9A0A0A"/>
<stop offset="0.941" stop-color="#840606"/>
<stop offset="0.987" stop-color="#690202"/>
<stop offset="1" stop-color="#600000"/>
</linearGradient>
<linearGradient id="paint2_linear_930_6726" x1="6.90064" y1="15.4456" x2="21" y2="15.4456" gradientUnits="userSpaceOnUse">
<stop stop-color="#BF1010"/>
<stop offset="0.021" stop-color="#C11212"/>
<stop offset="0.244" stop-color="#D22323"/>
<stop offset="0.487" stop-color="#DC2D2D"/>
<stop offset="0.791" stop-color="#DF3030"/>
<stop offset="0.841" stop-color="#DC2E2E"/>
<stop offset="0.882" stop-color="#D22626"/>
<stop offset="0.919" stop-color="#C11919"/>
<stop offset="0.954" stop-color="#A90808"/>
<stop offset="0.966" stop-color="#9F0000"/>
<stop offset="1" stop-color="#DF3030"/>
</linearGradient>
<linearGradient id="paint3_linear_930_6726" x1="6.90062" y1="14.0036" x2="21" y2="14.0036" gradientUnits="userSpaceOnUse">
<stop stop-color="#DFDFDF"/>
<stop offset="0.021" stop-color="#E1E1E1"/>
<stop offset="0.244" stop-color="#F2F2F2"/>
<stop offset="0.487" stop-color="#FCFCFC"/>
<stop offset="0.791" stop-color="white"/>
<stop offset="0.841" stop-color="#FCFCFC"/>
<stop offset="0.882" stop-color="#F2F2F2"/>
<stop offset="0.919" stop-color="#E1E1E1"/>
<stop offset="0.954" stop-color="#C9C9C9"/>
<stop offset="0.966" stop-color="#BFBFBF"/>
<stop offset="1" stop-color="white"/>
</linearGradient>
<linearGradient id="paint4_linear_930_6726" x1="6.90058" y1="17.619" x2="21" y2="17.619" gradientUnits="userSpaceOnUse">
<stop stop-color="#DFDFDF"/>
<stop offset="0.021" stop-color="#E1E1E1"/>
<stop offset="0.244" stop-color="#F2F2F2"/>
<stop offset="0.487" stop-color="#FCFCFC"/>
<stop offset="0.791" stop-color="white"/>
<stop offset="0.841" stop-color="#FCFCFC"/>
<stop offset="0.882" stop-color="#F2F2F2"/>
<stop offset="0.919" stop-color="#E1E1E1"/>
<stop offset="0.954" stop-color="#C9C9C9"/>
<stop offset="0.966" stop-color="#BFBFBF"/>
<stop offset="1" stop-color="white"/>
</linearGradient>
<linearGradient id="paint5_linear_930_6726" x1="6.90062" y1="19.0652" x2="21" y2="19.0652" gradientUnits="userSpaceOnUse">
<stop stop-color="#DFDFDF"/>
<stop offset="0.021" stop-color="#E1E1E1"/>
<stop offset="0.244" stop-color="#F2F2F2"/>
<stop offset="0.487" stop-color="#FCFCFC"/>
<stop offset="0.791" stop-color="white"/>
<stop offset="0.841" stop-color="#FCFCFC"/>
<stop offset="0.882" stop-color="#F2F2F2"/>
<stop offset="0.919" stop-color="#E1E1E1"/>
<stop offset="0.954" stop-color="#C9C9C9"/>
<stop offset="0.966" stop-color="#BFBFBF"/>
<stop offset="1" stop-color="white"/>
</linearGradient>
<linearGradient id="paint6_linear_930_6726" x1="6.90055" y1="13.7718" x2="21" y2="13.7718" gradientUnits="userSpaceOnUse">
<stop stop-color="#00209F"/>
<stop offset="0.021" stop-color="#0222A1"/>
<stop offset="0.244" stop-color="#1333B2"/>
<stop offset="0.487" stop-color="#1D3DBC"/>
<stop offset="0.791" stop-color="#2040BF"/>
<stop offset="0.841" stop-color="#1E3DBC"/>
<stop offset="0.882" stop-color="#1933B2"/>
<stop offset="0.919" stop-color="#1122A1"/>
<stop offset="0.954" stop-color="#050A89"/>
<stop offset="0.966" stop-color="#00007F"/>
<stop offset="1" stop-color="#2040BF"/>
</linearGradient>
<linearGradient id="paint7_linear_930_6726" x1="6.90087" y1="11.9881" x2="20.9994" y2="11.9881" gradientUnits="userSpaceOnUse">
<stop stop-color="#DFDFDF"/>
<stop offset="0.021" stop-color="#E1E1E1"/>
<stop offset="0.244" stop-color="#F2F2F2"/>
<stop offset="0.487" stop-color="#FCFCFC"/>
<stop offset="0.791" stop-color="white"/>
<stop offset="0.841" stop-color="#FCFCFC"/>
<stop offset="0.882" stop-color="#F2F2F2"/>
<stop offset="0.919" stop-color="#E1E1E1"/>
<stop offset="0.954" stop-color="#C9C9C9"/>
<stop offset="0.966" stop-color="#BFBFBF"/>
<stop offset="1" stop-color="white"/>
</linearGradient>
<linearGradient id="paint8_linear_930_6726" x1="6.90079" y1="14.4844" x2="20.9986" y2="14.4844" gradientUnits="userSpaceOnUse">
<stop stop-color="#DFDFDF"/>
<stop offset="0.021" stop-color="#E1E1E1"/>
<stop offset="0.244" stop-color="#F2F2F2"/>
<stop offset="0.487" stop-color="#FCFCFC"/>
<stop offset="0.791" stop-color="white"/>
<stop offset="0.841" stop-color="#FCFCFC"/>
<stop offset="0.882" stop-color="#F2F2F2"/>
<stop offset="0.919" stop-color="#E1E1E1"/>
<stop offset="0.954" stop-color="#C9C9C9"/>
<stop offset="0.966" stop-color="#BFBFBF"/>
<stop offset="1" stop-color="white"/>
</linearGradient>
<linearGradient id="paint9_linear_930_6726" x1="6.90079" y1="15.4936" x2="20.9986" y2="15.4936" gradientUnits="userSpaceOnUse">
<stop stop-color="#DFDFDF"/>
<stop offset="0.021" stop-color="#E1E1E1"/>
<stop offset="0.244" stop-color="#F2F2F2"/>
<stop offset="0.487" stop-color="#FCFCFC"/>
<stop offset="0.791" stop-color="white"/>
<stop offset="0.841" stop-color="#FCFCFC"/>
<stop offset="0.882" stop-color="#F2F2F2"/>
<stop offset="0.919" stop-color="#E1E1E1"/>
<stop offset="0.954" stop-color="#C9C9C9"/>
<stop offset="0.966" stop-color="#BFBFBF"/>
<stop offset="1" stop-color="white"/>
</linearGradient>
<linearGradient id="paint10_linear_930_6726" x1="6.90085" y1="14.0067" x2="20.9994" y2="14.0067" gradientUnits="userSpaceOnUse">
<stop stop-color="#DFDFDF"/>
<stop offset="0.021" stop-color="#E1E1E1"/>
<stop offset="0.244" stop-color="#F2F2F2"/>
<stop offset="0.487" stop-color="#FCFCFC"/>
<stop offset="0.791" stop-color="white"/>
<stop offset="0.841" stop-color="#FCFCFC"/>
<stop offset="0.882" stop-color="#F2F2F2"/>
<stop offset="0.919" stop-color="#E1E1E1"/>
<stop offset="0.954" stop-color="#C9C9C9"/>
<stop offset="0.966" stop-color="#BFBFBF"/>
<stop offset="1" stop-color="white"/>
</linearGradient>
<linearGradient id="paint11_linear_930_6726" x1="6.90083" y1="15.0157" x2="20.9994" y2="15.0157" gradientUnits="userSpaceOnUse">
<stop stop-color="#DFDFDF"/>
<stop offset="0.021" stop-color="#E1E1E1"/>
<stop offset="0.244" stop-color="#F2F2F2"/>
<stop offset="0.487" stop-color="#FCFCFC"/>
<stop offset="0.791" stop-color="white"/>
<stop offset="0.841" stop-color="#FCFCFC"/>
<stop offset="0.882" stop-color="#F2F2F2"/>
<stop offset="0.919" stop-color="#E1E1E1"/>
<stop offset="0.954" stop-color="#C9C9C9"/>
<stop offset="0.966" stop-color="#BFBFBF"/>
<stop offset="1" stop-color="white"/>
</linearGradient>
<linearGradient id="paint12_linear_930_6726" x1="6.90085" y1="12.9975" x2="20.9994" y2="12.9975" gradientUnits="userSpaceOnUse">
<stop stop-color="#DFDFDF"/>
<stop offset="0.021" stop-color="#E1E1E1"/>
<stop offset="0.244" stop-color="#F2F2F2"/>
<stop offset="0.487" stop-color="#FCFCFC"/>
<stop offset="0.791" stop-color="white"/>
<stop offset="0.841" stop-color="#FCFCFC"/>
<stop offset="0.882" stop-color="#F2F2F2"/>
<stop offset="0.919" stop-color="#E1E1E1"/>
<stop offset="0.954" stop-color="#C9C9C9"/>
<stop offset="0.966" stop-color="#BFBFBF"/>
<stop offset="1" stop-color="white"/>
</linearGradient>
<linearGradient id="paint13_linear_930_6726" x1="6.89991" y1="15.4112" x2="21.002" y2="15.4112" gradientUnits="userSpaceOnUse">
<stop stop-color="#DFDFDF"/>
<stop offset="0.021" stop-color="#E1E1E1"/>
<stop offset="0.244" stop-color="#F2F2F2"/>
<stop offset="0.487" stop-color="#FCFCFC"/>
<stop offset="0.791" stop-color="white"/>
<stop offset="0.841" stop-color="#FCFCFC"/>
<stop offset="0.882" stop-color="#F2F2F2"/>
<stop offset="0.919" stop-color="#E1E1E1"/>
<stop offset="0.954" stop-color="#C9C9C9"/>
<stop offset="0.966" stop-color="#BFBFBF"/>
<stop offset="1" stop-color="white"/>
</linearGradient>
<linearGradient id="paint14_linear_930_6726" x1="6.90079" y1="13.4754" x2="20.9986" y2="13.4754" gradientUnits="userSpaceOnUse">
<stop stop-color="#DFDFDF"/>
<stop offset="0.021" stop-color="#E1E1E1"/>
<stop offset="0.244" stop-color="#F2F2F2"/>
<stop offset="0.487" stop-color="#FCFCFC"/>
<stop offset="0.791" stop-color="white"/>
<stop offset="0.841" stop-color="#FCFCFC"/>
<stop offset="0.882" stop-color="#F2F2F2"/>
<stop offset="0.919" stop-color="#E1E1E1"/>
<stop offset="0.954" stop-color="#C9C9C9"/>
<stop offset="0.966" stop-color="#BFBFBF"/>
<stop offset="1" stop-color="white"/>
</linearGradient>
<linearGradient id="paint15_linear_930_6726" x1="6.90085" y1="14.9527" x2="20.9987" y2="14.9527" gradientUnits="userSpaceOnUse">
<stop stop-color="#DFDFDF"/>
<stop offset="0.021" stop-color="#E1E1E1"/>
<stop offset="0.244" stop-color="#F2F2F2"/>
<stop offset="0.487" stop-color="#FCFCFC"/>
<stop offset="0.791" stop-color="white"/>
<stop offset="0.841" stop-color="#FCFCFC"/>
<stop offset="0.882" stop-color="#F2F2F2"/>
<stop offset="0.919" stop-color="#E1E1E1"/>
<stop offset="0.954" stop-color="#C9C9C9"/>
<stop offset="0.966" stop-color="#BFBFBF"/>
<stop offset="1" stop-color="white"/>
</linearGradient>
<linearGradient id="paint16_linear_930_6726" x1="6.90087" y1="15.9621" x2="20.9987" y2="15.9621" gradientUnits="userSpaceOnUse">
<stop stop-color="#DFDFDF"/>
<stop offset="0.021" stop-color="#E1E1E1"/>
<stop offset="0.244" stop-color="#F2F2F2"/>
<stop offset="0.487" stop-color="#FCFCFC"/>
<stop offset="0.791" stop-color="white"/>
<stop offset="0.841" stop-color="#FCFCFC"/>
<stop offset="0.882" stop-color="#F2F2F2"/>
<stop offset="0.919" stop-color="#E1E1E1"/>
<stop offset="0.954" stop-color="#C9C9C9"/>
<stop offset="0.966" stop-color="#BFBFBF"/>
<stop offset="1" stop-color="white"/>
</linearGradient>
<linearGradient id="paint17_linear_930_6726" x1="6.90079" y1="12.466" x2="20.9986" y2="12.466" gradientUnits="userSpaceOnUse">
<stop stop-color="#DFDFDF"/>
<stop offset="0.021" stop-color="#E1E1E1"/>
<stop offset="0.244" stop-color="#F2F2F2"/>
<stop offset="0.487" stop-color="#FCFCFC"/>
<stop offset="0.791" stop-color="white"/>
<stop offset="0.841" stop-color="#FCFCFC"/>
<stop offset="0.882" stop-color="#F2F2F2"/>
<stop offset="0.919" stop-color="#E1E1E1"/>
<stop offset="0.954" stop-color="#C9C9C9"/>
<stop offset="0.966" stop-color="#BFBFBF"/>
<stop offset="1" stop-color="white"/>
</linearGradient>
<linearGradient id="paint18_linear_930_6726" x1="6.90082" y1="13.9436" x2="20.9991" y2="13.9436" gradientUnits="userSpaceOnUse">
<stop stop-color="#DFDFDF"/>
<stop offset="0.021" stop-color="#E1E1E1"/>
<stop offset="0.244" stop-color="#F2F2F2"/>
<stop offset="0.487" stop-color="#FCFCFC"/>
<stop offset="0.791" stop-color="white"/>
<stop offset="0.841" stop-color="#FCFCFC"/>
<stop offset="0.882" stop-color="#F2F2F2"/>
<stop offset="0.919" stop-color="#E1E1E1"/>
<stop offset="0.954" stop-color="#C9C9C9"/>
<stop offset="0.966" stop-color="#BFBFBF"/>
<stop offset="1" stop-color="white"/>
</linearGradient>
<linearGradient id="paint19_linear_930_6726" x1="6.90083" y1="16.0253" x2="20.9994" y2="16.0253" gradientUnits="userSpaceOnUse">
<stop stop-color="#DFDFDF"/>
<stop offset="0.021" stop-color="#E1E1E1"/>
<stop offset="0.244" stop-color="#F2F2F2"/>
<stop offset="0.487" stop-color="#FCFCFC"/>
<stop offset="0.791" stop-color="white"/>
<stop offset="0.841" stop-color="#FCFCFC"/>
<stop offset="0.882" stop-color="#F2F2F2"/>
<stop offset="0.919" stop-color="#E1E1E1"/>
<stop offset="0.954" stop-color="#C9C9C9"/>
<stop offset="0.966" stop-color="#BFBFBF"/>
<stop offset="1" stop-color="white"/>
</linearGradient>
<linearGradient id="paint20_linear_930_6726" x1="6.9006" y1="14.0371" x2="21.0018" y2="14.0371" gradientUnits="userSpaceOnUse">
<stop stop-color="#DFDFDF"/>
<stop offset="0.021" stop-color="#E1E1E1"/>
<stop offset="0.244" stop-color="#F2F2F2"/>
<stop offset="0.487" stop-color="#FCFCFC"/>
<stop offset="0.791" stop-color="white"/>
<stop offset="0.841" stop-color="#FCFCFC"/>
<stop offset="0.882" stop-color="#F2F2F2"/>
<stop offset="0.919" stop-color="#E1E1E1"/>
<stop offset="0.954" stop-color="#C9C9C9"/>
<stop offset="0.966" stop-color="#BFBFBF"/>
<stop offset="1" stop-color="white"/>
</linearGradient>
<linearGradient id="paint21_linear_930_6726" x1="6.9006" y1="13.0278" x2="21.0018" y2="13.0278" gradientUnits="userSpaceOnUse">
<stop stop-color="#DFDFDF"/>
<stop offset="0.021" stop-color="#E1E1E1"/>
<stop offset="0.244" stop-color="#F2F2F2"/>
<stop offset="0.487" stop-color="#FCFCFC"/>
<stop offset="0.791" stop-color="white"/>
<stop offset="0.841" stop-color="#FCFCFC"/>
<stop offset="0.882" stop-color="#F2F2F2"/>
<stop offset="0.919" stop-color="#E1E1E1"/>
<stop offset="0.954" stop-color="#C9C9C9"/>
<stop offset="0.966" stop-color="#BFBFBF"/>
<stop offset="1" stop-color="white"/>
</linearGradient>
<linearGradient id="paint22_linear_930_6726" x1="6.90065" y1="16.0556" x2="20.998" y2="16.0556" gradientUnits="userSpaceOnUse">
<stop stop-color="#DFDFDF"/>
<stop offset="0.021" stop-color="#E1E1E1"/>
<stop offset="0.244" stop-color="#F2F2F2"/>
<stop offset="0.487" stop-color="#FCFCFC"/>
<stop offset="0.791" stop-color="white"/>
<stop offset="0.841" stop-color="#FCFCFC"/>
<stop offset="0.882" stop-color="#F2F2F2"/>
<stop offset="0.919" stop-color="#E1E1E1"/>
<stop offset="0.954" stop-color="#C9C9C9"/>
<stop offset="0.966" stop-color="#BFBFBF"/>
<stop offset="1" stop-color="white"/>
</linearGradient>
<linearGradient id="paint23_linear_930_6726" x1="6.9008" y1="12.9344" x2="20.9987" y2="12.9344" gradientUnits="userSpaceOnUse">
<stop stop-color="#DFDFDF"/>
<stop offset="0.021" stop-color="#E1E1E1"/>
<stop offset="0.244" stop-color="#F2F2F2"/>
<stop offset="0.487" stop-color="#FCFCFC"/>
<stop offset="0.791" stop-color="white"/>
<stop offset="0.841" stop-color="#FCFCFC"/>
<stop offset="0.882" stop-color="#F2F2F2"/>
<stop offset="0.919" stop-color="#E1E1E1"/>
<stop offset="0.954" stop-color="#C9C9C9"/>
<stop offset="0.966" stop-color="#BFBFBF"/>
<stop offset="1" stop-color="white"/>
</linearGradient>
<linearGradient id="paint24_linear_930_6726" x1="6.9008" y1="11.9249" x2="20.9987" y2="11.9249" gradientUnits="userSpaceOnUse">
<stop stop-color="#DFDFDF"/>
<stop offset="0.021" stop-color="#E1E1E1"/>
<stop offset="0.244" stop-color="#F2F2F2"/>
<stop offset="0.487" stop-color="#FCFCFC"/>
<stop offset="0.791" stop-color="white"/>
<stop offset="0.841" stop-color="#FCFCFC"/>
<stop offset="0.882" stop-color="#F2F2F2"/>
<stop offset="0.919" stop-color="#E1E1E1"/>
<stop offset="0.954" stop-color="#C9C9C9"/>
<stop offset="0.966" stop-color="#BFBFBF"/>
<stop offset="1" stop-color="white"/>
</linearGradient>
<linearGradient id="paint25_linear_930_6726" x1="6.9006" y1="15.0462" x2="20.998" y2="15.0462" gradientUnits="userSpaceOnUse">
<stop stop-color="#DFDFDF"/>
<stop offset="0.021" stop-color="#E1E1E1"/>
<stop offset="0.244" stop-color="#F2F2F2"/>
<stop offset="0.487" stop-color="#FCFCFC"/>
<stop offset="0.791" stop-color="white"/>
<stop offset="0.841" stop-color="#FCFCFC"/>
<stop offset="0.882" stop-color="#F2F2F2"/>
<stop offset="0.919" stop-color="#E1E1E1"/>
<stop offset="0.954" stop-color="#C9C9C9"/>
<stop offset="0.966" stop-color="#BFBFBF"/>
<stop offset="1" stop-color="white"/>
</linearGradient>
<linearGradient id="paint26_linear_930_6726" x1="6.90057" y1="12.5124" x2="20.9984" y2="12.5124" gradientUnits="userSpaceOnUse">
<stop stop-color="#DFDFDF"/>
<stop offset="0.021" stop-color="#E1E1E1"/>
<stop offset="0.244" stop-color="#F2F2F2"/>
<stop offset="0.487" stop-color="#FCFCFC"/>
<stop offset="0.791" stop-color="white"/>
<stop offset="0.841" stop-color="#FCFCFC"/>
<stop offset="0.882" stop-color="#F2F2F2"/>
<stop offset="0.919" stop-color="#E1E1E1"/>
<stop offset="0.954" stop-color="#C9C9C9"/>
<stop offset="0.966" stop-color="#BFBFBF"/>
<stop offset="1" stop-color="white"/>
</linearGradient>
<linearGradient id="paint27_linear_930_6726" x1="6.90057" y1="13.5215" x2="20.9984" y2="13.5215" gradientUnits="userSpaceOnUse">
<stop stop-color="#DFDFDF"/>
<stop offset="0.021" stop-color="#E1E1E1"/>
<stop offset="0.244" stop-color="#F2F2F2"/>
<stop offset="0.487" stop-color="#FCFCFC"/>
<stop offset="0.791" stop-color="white"/>
<stop offset="0.841" stop-color="#FCFCFC"/>
<stop offset="0.882" stop-color="#F2F2F2"/>
<stop offset="0.919" stop-color="#E1E1E1"/>
<stop offset="0.954" stop-color="#C9C9C9"/>
<stop offset="0.966" stop-color="#BFBFBF"/>
<stop offset="1" stop-color="white"/>
</linearGradient>
<linearGradient id="paint28_linear_930_6726" x1="6.90066" y1="15.5397" x2="20.9985" y2="15.5397" gradientUnits="userSpaceOnUse">
<stop stop-color="#DFDFDF"/>
<stop offset="0.021" stop-color="#E1E1E1"/>
<stop offset="0.244" stop-color="#F2F2F2"/>
<stop offset="0.487" stop-color="#FCFCFC"/>
<stop offset="0.791" stop-color="white"/>
<stop offset="0.841" stop-color="#FCFCFC"/>
<stop offset="0.882" stop-color="#F2F2F2"/>
<stop offset="0.919" stop-color="#E1E1E1"/>
<stop offset="0.954" stop-color="#C9C9C9"/>
<stop offset="0.966" stop-color="#BFBFBF"/>
<stop offset="1" stop-color="white"/>
</linearGradient>
<linearGradient id="paint29_linear_930_6726" x1="6.90057" y1="14.5306" x2="20.9984" y2="14.5306" gradientUnits="userSpaceOnUse">
<stop stop-color="#DFDFDF"/>
<stop offset="0.021" stop-color="#E1E1E1"/>
<stop offset="0.244" stop-color="#F2F2F2"/>
<stop offset="0.487" stop-color="#FCFCFC"/>
<stop offset="0.791" stop-color="white"/>
<stop offset="0.841" stop-color="#FCFCFC"/>
<stop offset="0.882" stop-color="#F2F2F2"/>
<stop offset="0.919" stop-color="#E1E1E1"/>
<stop offset="0.954" stop-color="#C9C9C9"/>
<stop offset="0.966" stop-color="#BFBFBF"/>
<stop offset="1" stop-color="white"/>
</linearGradient>
<linearGradient id="paint30_linear_930_6726" x1="6.9006" y1="12.0184" x2="21.0013" y2="12.0184" gradientUnits="userSpaceOnUse">
<stop stop-color="#DFDFDF"/>
<stop offset="0.021" stop-color="#E1E1E1"/>
<stop offset="0.244" stop-color="#F2F2F2"/>
<stop offset="0.487" stop-color="#FCFCFC"/>
<stop offset="0.791" stop-color="white"/>
<stop offset="0.841" stop-color="#FCFCFC"/>
<stop offset="0.882" stop-color="#F2F2F2"/>
<stop offset="0.919" stop-color="#E1E1E1"/>
<stop offset="0.954" stop-color="#C9C9C9"/>
<stop offset="0.966" stop-color="#BFBFBF"/>
<stop offset="1" stop-color="white"/>
</linearGradient>
<linearGradient id="paint31_linear_930_6726" x1="6.89992" y1="14.4021" x2="21.002" y2="14.4021" gradientUnits="userSpaceOnUse">
<stop stop-color="#DFDFDF"/>
<stop offset="0.021" stop-color="#E1E1E1"/>
<stop offset="0.244" stop-color="#F2F2F2"/>
<stop offset="0.487" stop-color="#FCFCFC"/>
<stop offset="0.791" stop-color="white"/>
<stop offset="0.841" stop-color="#FCFCFC"/>
<stop offset="0.882" stop-color="#F2F2F2"/>
<stop offset="0.919" stop-color="#E1E1E1"/>
<stop offset="0.954" stop-color="#C9C9C9"/>
<stop offset="0.966" stop-color="#BFBFBF"/>
<stop offset="1" stop-color="white"/>
</linearGradient>
<linearGradient id="paint32_linear_930_6726" x1="6.90131" y1="14.1478" x2="20.9988" y2="14.1478" gradientUnits="userSpaceOnUse">
<stop stop-color="#DFDFDF"/>
<stop offset="0.021" stop-color="#E1E1E1"/>
<stop offset="0.244" stop-color="#F2F2F2"/>
<stop offset="0.487" stop-color="#FCFCFC"/>
<stop offset="0.791" stop-color="white"/>
<stop offset="0.841" stop-color="#FCFCFC"/>
<stop offset="0.882" stop-color="#F2F2F2"/>
<stop offset="0.919" stop-color="#E1E1E1"/>
<stop offset="0.954" stop-color="#C9C9C9"/>
<stop offset="0.966" stop-color="#BFBFBF"/>
<stop offset="1" stop-color="white"/>
</linearGradient>
<linearGradient id="paint33_linear_930_6726" x1="6.90128" y1="13.1387" x2="20.9989" y2="13.1387" gradientUnits="userSpaceOnUse">
<stop stop-color="#DFDFDF"/>
<stop offset="0.021" stop-color="#E1E1E1"/>
<stop offset="0.244" stop-color="#F2F2F2"/>
<stop offset="0.487" stop-color="#FCFCFC"/>
<stop offset="0.791" stop-color="white"/>
<stop offset="0.841" stop-color="#FCFCFC"/>
<stop offset="0.882" stop-color="#F2F2F2"/>
<stop offset="0.919" stop-color="#E1E1E1"/>
<stop offset="0.954" stop-color="#C9C9C9"/>
<stop offset="0.966" stop-color="#BFBFBF"/>
<stop offset="1" stop-color="white"/>
</linearGradient>
<linearGradient id="paint34_linear_930_6726" x1="6.90129" y1="15.1572" x2="20.9989" y2="15.1572" gradientUnits="userSpaceOnUse">
<stop stop-color="#DFDFDF"/>
<stop offset="0.021" stop-color="#E1E1E1"/>
<stop offset="0.244" stop-color="#F2F2F2"/>
<stop offset="0.487" stop-color="#FCFCFC"/>
<stop offset="0.791" stop-color="white"/>
<stop offset="0.841" stop-color="#FCFCFC"/>
<stop offset="0.882" stop-color="#F2F2F2"/>
<stop offset="0.919" stop-color="#E1E1E1"/>
<stop offset="0.954" stop-color="#C9C9C9"/>
<stop offset="0.966" stop-color="#BFBFBF"/>
<stop offset="1" stop-color="white"/>
</linearGradient>
<linearGradient id="paint35_linear_930_6726" x1="6.89855" y1="12.7073" x2="21.0034" y2="12.7073" gradientUnits="userSpaceOnUse">
<stop stop-color="#DFDFDF"/>
<stop offset="0.021" stop-color="#E1E1E1"/>
<stop offset="0.244" stop-color="#F2F2F2"/>
<stop offset="0.487" stop-color="#FCFCFC"/>
<stop offset="0.791" stop-color="white"/>
<stop offset="0.841" stop-color="#FCFCFC"/>
<stop offset="0.882" stop-color="#F2F2F2"/>
<stop offset="0.919" stop-color="#E1E1E1"/>
<stop offset="0.954" stop-color="#C9C9C9"/>
<stop offset="0.966" stop-color="#BFBFBF"/>
<stop offset="1" stop-color="white"/>
</linearGradient>
<linearGradient id="paint36_linear_930_6726" x1="6.9015" y1="12.1296" x2="20.9987" y2="12.1296" gradientUnits="userSpaceOnUse">
<stop stop-color="#DFDFDF"/>
<stop offset="0.021" stop-color="#E1E1E1"/>
<stop offset="0.244" stop-color="#F2F2F2"/>
<stop offset="0.487" stop-color="#FCFCFC"/>
<stop offset="0.791" stop-color="white"/>
<stop offset="0.841" stop-color="#FCFCFC"/>
<stop offset="0.882" stop-color="#F2F2F2"/>
<stop offset="0.919" stop-color="#E1E1E1"/>
<stop offset="0.954" stop-color="#C9C9C9"/>
<stop offset="0.966" stop-color="#BFBFBF"/>
<stop offset="1" stop-color="white"/>
</linearGradient>
<linearGradient id="paint37_linear_930_6726" x1="6.89855" y1="11.6983" x2="21.0034" y2="11.6983" gradientUnits="userSpaceOnUse">
<stop stop-color="#DFDFDF"/>
<stop offset="0.021" stop-color="#E1E1E1"/>
<stop offset="0.244" stop-color="#F2F2F2"/>
<stop offset="0.487" stop-color="#FCFCFC"/>
<stop offset="0.791" stop-color="white"/>
<stop offset="0.841" stop-color="#FCFCFC"/>
<stop offset="0.882" stop-color="#F2F2F2"/>
<stop offset="0.919" stop-color="#E1E1E1"/>
<stop offset="0.954" stop-color="#C9C9C9"/>
<stop offset="0.966" stop-color="#BFBFBF"/>
<stop offset="1" stop-color="white"/>
</linearGradient>
<linearGradient id="paint38_linear_930_6726" x1="6.90104" y1="13.5644" x2="20.9996" y2="13.5644" gradientUnits="userSpaceOnUse">
<stop stop-color="#DFDFDF"/>
<stop offset="0.021" stop-color="#E1E1E1"/>
<stop offset="0.244" stop-color="#F2F2F2"/>
<stop offset="0.487" stop-color="#FCFCFC"/>
<stop offset="0.791" stop-color="white"/>
<stop offset="0.841" stop-color="#FCFCFC"/>
<stop offset="0.882" stop-color="#F2F2F2"/>
<stop offset="0.919" stop-color="#E1E1E1"/>
<stop offset="0.954" stop-color="#C9C9C9"/>
<stop offset="0.966" stop-color="#BFBFBF"/>
<stop offset="1" stop-color="white"/>
</linearGradient>
<linearGradient id="paint39_linear_930_6726" x1="6.90106" y1="12.5554" x2="20.9996" y2="12.5554" gradientUnits="userSpaceOnUse">
<stop stop-color="#DFDFDF"/>
<stop offset="0.021" stop-color="#E1E1E1"/>
<stop offset="0.244" stop-color="#F2F2F2"/>
<stop offset="0.487" stop-color="#FCFCFC"/>
<stop offset="0.791" stop-color="white"/>
<stop offset="0.841" stop-color="#FCFCFC"/>
<stop offset="0.882" stop-color="#F2F2F2"/>
<stop offset="0.919" stop-color="#E1E1E1"/>
<stop offset="0.954" stop-color="#C9C9C9"/>
<stop offset="0.966" stop-color="#BFBFBF"/>
<stop offset="1" stop-color="white"/>
</linearGradient>
<linearGradient id="paint40_linear_930_6726" x1="6.90127" y1="15.5832" x2="20.9992" y2="15.5832" gradientUnits="userSpaceOnUse">
<stop stop-color="#DFDFDF"/>
<stop offset="0.021" stop-color="#E1E1E1"/>
<stop offset="0.244" stop-color="#F2F2F2"/>
<stop offset="0.487" stop-color="#FCFCFC"/>
<stop offset="0.791" stop-color="white"/>
<stop offset="0.841" stop-color="#FCFCFC"/>
<stop offset="0.882" stop-color="#F2F2F2"/>
<stop offset="0.919" stop-color="#E1E1E1"/>
<stop offset="0.954" stop-color="#C9C9C9"/>
<stop offset="0.966" stop-color="#BFBFBF"/>
<stop offset="1" stop-color="white"/>
</linearGradient>
<linearGradient id="paint41_linear_930_6726" x1="6.90107" y1="11.5457" x2="20.9996" y2="11.5457" gradientUnits="userSpaceOnUse">
<stop stop-color="#DFDFDF"/>
<stop offset="0.021" stop-color="#E1E1E1"/>
<stop offset="0.244" stop-color="#F2F2F2"/>
<stop offset="0.487" stop-color="#FCFCFC"/>
<stop offset="0.791" stop-color="white"/>
<stop offset="0.841" stop-color="#FCFCFC"/>
<stop offset="0.882" stop-color="#F2F2F2"/>
<stop offset="0.919" stop-color="#E1E1E1"/>
<stop offset="0.954" stop-color="#C9C9C9"/>
<stop offset="0.966" stop-color="#BFBFBF"/>
<stop offset="1" stop-color="white"/>
</linearGradient>
<linearGradient id="paint42_linear_930_6726" x1="6.90106" y1="14.5736" x2="20.9995" y2="14.5736" gradientUnits="userSpaceOnUse">
<stop stop-color="#DFDFDF"/>
<stop offset="0.021" stop-color="#E1E1E1"/>
<stop offset="0.244" stop-color="#F2F2F2"/>
<stop offset="0.487" stop-color="#FCFCFC"/>
<stop offset="0.791" stop-color="white"/>
<stop offset="0.841" stop-color="#FCFCFC"/>
<stop offset="0.882" stop-color="#F2F2F2"/>
<stop offset="0.919" stop-color="#E1E1E1"/>
<stop offset="0.954" stop-color="#C9C9C9"/>
<stop offset="0.966" stop-color="#BFBFBF"/>
<stop offset="1" stop-color="white"/>
</linearGradient>
<linearGradient id="paint43_linear_930_6726" x1="6.89853" y1="13.7167" x2="21.0034" y2="13.7167" gradientUnits="userSpaceOnUse">
<stop stop-color="#DFDFDF"/>
<stop offset="0.021" stop-color="#E1E1E1"/>
<stop offset="0.244" stop-color="#F2F2F2"/>
<stop offset="0.487" stop-color="#FCFCFC"/>
<stop offset="0.791" stop-color="white"/>
<stop offset="0.841" stop-color="#FCFCFC"/>
<stop offset="0.882" stop-color="#F2F2F2"/>
<stop offset="0.919" stop-color="#E1E1E1"/>
<stop offset="0.954" stop-color="#C9C9C9"/>
<stop offset="0.966" stop-color="#BFBFBF"/>
<stop offset="1" stop-color="white"/>
</linearGradient>
<linearGradient id="paint44_linear_930_6726" x1="6.89991" y1="12.3836" x2="21.002" y2="12.3836" gradientUnits="userSpaceOnUse">
<stop stop-color="#DFDFDF"/>
<stop offset="0.021" stop-color="#E1E1E1"/>
<stop offset="0.244" stop-color="#F2F2F2"/>
<stop offset="0.487" stop-color="#FCFCFC"/>
<stop offset="0.791" stop-color="white"/>
<stop offset="0.841" stop-color="#FCFCFC"/>
<stop offset="0.882" stop-color="#F2F2F2"/>
<stop offset="0.919" stop-color="#E1E1E1"/>
<stop offset="0.954" stop-color="#C9C9C9"/>
<stop offset="0.966" stop-color="#BFBFBF"/>
<stop offset="1" stop-color="white"/>
</linearGradient>
<linearGradient id="paint45_linear_930_6726" x1="6.901" y1="14.8521" x2="20.9988" y2="14.8521" gradientUnits="userSpaceOnUse">
<stop stop-color="#DFDFDF"/>
<stop offset="0.021" stop-color="#E1E1E1"/>
<stop offset="0.244" stop-color="#F2F2F2"/>
<stop offset="0.487" stop-color="#FCFCFC"/>
<stop offset="0.791" stop-color="white"/>
<stop offset="0.841" stop-color="#FCFCFC"/>
<stop offset="0.882" stop-color="#F2F2F2"/>
<stop offset="0.919" stop-color="#E1E1E1"/>
<stop offset="0.954" stop-color="#C9C9C9"/>
<stop offset="0.966" stop-color="#BFBFBF"/>
<stop offset="1" stop-color="white"/>
</linearGradient>
<linearGradient id="paint46_linear_930_6726" x1="6.89853" y1="14.7259" x2="21.0034" y2="14.7259" gradientUnits="userSpaceOnUse">
<stop stop-color="#DFDFDF"/>
<stop offset="0.021" stop-color="#E1E1E1"/>
<stop offset="0.244" stop-color="#F2F2F2"/>
<stop offset="0.487" stop-color="#FCFCFC"/>
<stop offset="0.791" stop-color="white"/>
<stop offset="0.841" stop-color="#FCFCFC"/>
<stop offset="0.882" stop-color="#F2F2F2"/>
<stop offset="0.919" stop-color="#E1E1E1"/>
<stop offset="0.954" stop-color="#C9C9C9"/>
<stop offset="0.966" stop-color="#BFBFBF"/>
<stop offset="1" stop-color="white"/>
</linearGradient>
<linearGradient id="paint47_linear_930_6726" x1="6.90101" y1="12.8339" x2="20.9988" y2="12.8339" gradientUnits="userSpaceOnUse">
<stop stop-color="#DFDFDF"/>
<stop offset="0.021" stop-color="#E1E1E1"/>
<stop offset="0.244" stop-color="#F2F2F2"/>
<stop offset="0.487" stop-color="#FCFCFC"/>
<stop offset="0.791" stop-color="white"/>
<stop offset="0.841" stop-color="#FCFCFC"/>
<stop offset="0.882" stop-color="#F2F2F2"/>
<stop offset="0.919" stop-color="#E1E1E1"/>
<stop offset="0.954" stop-color="#C9C9C9"/>
<stop offset="0.966" stop-color="#BFBFBF"/>
<stop offset="1" stop-color="white"/>
</linearGradient>
<linearGradient id="paint48_linear_930_6726" x1="6.901" y1="15.8617" x2="20.9988" y2="15.8617" gradientUnits="userSpaceOnUse">
<stop stop-color="#DFDFDF"/>
<stop offset="0.021" stop-color="#E1E1E1"/>
<stop offset="0.244" stop-color="#F2F2F2"/>
<stop offset="0.487" stop-color="#FCFCFC"/>
<stop offset="0.791" stop-color="white"/>
<stop offset="0.841" stop-color="#FCFCFC"/>
<stop offset="0.882" stop-color="#F2F2F2"/>
<stop offset="0.919" stop-color="#E1E1E1"/>
<stop offset="0.954" stop-color="#C9C9C9"/>
<stop offset="0.966" stop-color="#BFBFBF"/>
<stop offset="1" stop-color="white"/>
</linearGradient>
<linearGradient id="paint49_linear_930_6726" x1="6.89992" y1="13.3927" x2="21.002" y2="13.3927" gradientUnits="userSpaceOnUse">
<stop stop-color="#DFDFDF"/>
<stop offset="0.021" stop-color="#E1E1E1"/>
<stop offset="0.244" stop-color="#F2F2F2"/>
<stop offset="0.487" stop-color="#FCFCFC"/>
<stop offset="0.791" stop-color="white"/>
<stop offset="0.841" stop-color="#FCFCFC"/>
<stop offset="0.882" stop-color="#F2F2F2"/>
<stop offset="0.919" stop-color="#E1E1E1"/>
<stop offset="0.954" stop-color="#C9C9C9"/>
<stop offset="0.966" stop-color="#BFBFBF"/>
<stop offset="1" stop-color="white"/>
</linearGradient>
<linearGradient id="paint50_linear_930_6726" x1="6.90011" y1="11.8245" x2="21.0013" y2="11.8245" gradientUnits="userSpaceOnUse">
<stop stop-color="#DFDFDF"/>
<stop offset="0.021" stop-color="#E1E1E1"/>
<stop offset="0.244" stop-color="#F2F2F2"/>
<stop offset="0.487" stop-color="#FCFCFC"/>
<stop offset="0.791" stop-color="white"/>
<stop offset="0.841" stop-color="#FCFCFC"/>
<stop offset="0.882" stop-color="#F2F2F2"/>
<stop offset="0.919" stop-color="#E1E1E1"/>
<stop offset="0.954" stop-color="#C9C9C9"/>
<stop offset="0.966" stop-color="#BFBFBF"/>
<stop offset="1" stop-color="white"/>
</linearGradient>
<linearGradient id="paint51_linear_930_6726" x1="6.90101" y1="13.8432" x2="20.9988" y2="13.8432" gradientUnits="userSpaceOnUse">
<stop stop-color="#DFDFDF"/>
<stop offset="0.021" stop-color="#E1E1E1"/>
<stop offset="0.244" stop-color="#F2F2F2"/>
<stop offset="0.487" stop-color="#FCFCFC"/>
<stop offset="0.791" stop-color="white"/>
<stop offset="0.841" stop-color="#FCFCFC"/>
<stop offset="0.882" stop-color="#F2F2F2"/>
<stop offset="0.919" stop-color="#E1E1E1"/>
<stop offset="0.954" stop-color="#C9C9C9"/>
<stop offset="0.966" stop-color="#BFBFBF"/>
<stop offset="1" stop-color="white"/>
</linearGradient>
<linearGradient id="paint52_linear_930_6726" x1="6.89858" y1="15.7352" x2="21.0034" y2="15.7352" gradientUnits="userSpaceOnUse">
<stop stop-color="#DFDFDF"/>
<stop offset="0.021" stop-color="#E1E1E1"/>
<stop offset="0.244" stop-color="#F2F2F2"/>
<stop offset="0.487" stop-color="#FCFCFC"/>
<stop offset="0.791" stop-color="white"/>
<stop offset="0.841" stop-color="#FCFCFC"/>
<stop offset="0.882" stop-color="#F2F2F2"/>
<stop offset="0.919" stop-color="#E1E1E1"/>
<stop offset="0.954" stop-color="#C9C9C9"/>
<stop offset="0.966" stop-color="#BFBFBF"/>
<stop offset="1" stop-color="white"/>
</linearGradient>
<linearGradient id="paint53_linear_930_6726" x1="6.90106" y1="15.2969" x2="20.9991" y2="15.2969" gradientUnits="userSpaceOnUse">
<stop stop-color="#DFDFDF"/>
<stop offset="0.021" stop-color="#E1E1E1"/>
<stop offset="0.244" stop-color="#F2F2F2"/>
<stop offset="0.487" stop-color="#FCFCFC"/>
<stop offset="0.791" stop-color="white"/>
<stop offset="0.841" stop-color="#FCFCFC"/>
<stop offset="0.882" stop-color="#F2F2F2"/>
<stop offset="0.919" stop-color="#E1E1E1"/>
<stop offset="0.954" stop-color="#C9C9C9"/>
<stop offset="0.966" stop-color="#BFBFBF"/>
<stop offset="1" stop-color="white"/>
</linearGradient>
<linearGradient id="paint54_linear_930_6726" x1="6.90107" y1="12.2696" x2="20.9991" y2="12.2696" gradientUnits="userSpaceOnUse">
<stop stop-color="#DFDFDF"/>
<stop offset="0.021" stop-color="#E1E1E1"/>
<stop offset="0.244" stop-color="#F2F2F2"/>
<stop offset="0.487" stop-color="#FCFCFC"/>
<stop offset="0.791" stop-color="white"/>
<stop offset="0.841" stop-color="#FCFCFC"/>
<stop offset="0.882" stop-color="#F2F2F2"/>
<stop offset="0.919" stop-color="#E1E1E1"/>
<stop offset="0.954" stop-color="#C9C9C9"/>
<stop offset="0.966" stop-color="#BFBFBF"/>
<stop offset="1" stop-color="white"/>
</linearGradient>
<linearGradient id="paint55_linear_930_6726" x1="6.90105" y1="14.2878" x2="20.9991" y2="14.2878" gradientUnits="userSpaceOnUse">
<stop stop-color="#DFDFDF"/>
<stop offset="0.021" stop-color="#E1E1E1"/>
<stop offset="0.244" stop-color="#F2F2F2"/>
<stop offset="0.487" stop-color="#FCFCFC"/>
<stop offset="0.791" stop-color="white"/>
<stop offset="0.841" stop-color="#FCFCFC"/>
<stop offset="0.882" stop-color="#F2F2F2"/>
<stop offset="0.919" stop-color="#E1E1E1"/>
<stop offset="0.954" stop-color="#C9C9C9"/>
<stop offset="0.966" stop-color="#BFBFBF"/>
<stop offset="1" stop-color="white"/>
</linearGradient>
<linearGradient id="paint56_linear_930_6726" x1="6.90105" y1="13.2785" x2="20.9991" y2="13.2785" gradientUnits="userSpaceOnUse">
<stop stop-color="#DFDFDF"/>
<stop offset="0.021" stop-color="#E1E1E1"/>
<stop offset="0.244" stop-color="#F2F2F2"/>
<stop offset="0.487" stop-color="#FCFCFC"/>
<stop offset="0.791" stop-color="white"/>
<stop offset="0.841" stop-color="#FCFCFC"/>
<stop offset="0.882" stop-color="#F2F2F2"/>
<stop offset="0.919" stop-color="#E1E1E1"/>
<stop offset="0.954" stop-color="#C9C9C9"/>
<stop offset="0.966" stop-color="#BFBFBF"/>
<stop offset="1" stop-color="white"/>
</linearGradient>
</defs>
</svg>
