<svg width="24" height="24" viewBox="0 0 24 24" fill="none" xmlns="http://www.w3.org/2000/svg">
<circle cx="12" cy="12" r="12" fill="black"/>
<path d="M17.467 4.75128C17.5226 4.77063 17.5781 4.78996 17.6339 4.80801C17.6447 4.77693 17.6242 4.76674 17.6055 4.75747C17.5997 4.75461 17.5942 4.75183 17.5897 4.74855C17.5762 4.7385 17.5627 4.72845 17.5493 4.7184C17.4349 4.63312 17.3206 4.54786 17.2025 4.46808C16.0711 3.70177 14.8269 3.23439 13.4701 3.06592C12.7334 2.97408 11.9878 2.97822 11.2521 3.07825C10.4686 3.18516 9.70374 3.40095 8.97983 3.71938C9.01259 3.75214 9.05395 3.75842 9.0951 3.76466C9.11119 3.7671 9.12725 3.76954 9.14275 3.77355C9.52219 3.87193 9.70565 4.10664 9.67866 4.47356C9.6677 4.62377 9.61763 4.76478 9.55505 4.90169C9.40503 5.22695 9.1674 5.48513 8.90629 5.72179C8.34007 6.2352 7.68505 6.61307 7.0005 6.94087C6.99554 6.94323 6.99045 6.94545 6.98533 6.94767C6.96078 6.95834 6.93581 6.9692 6.92383 6.9972C6.98439 7.11557 7.05562 7.22818 7.13663 7.33361C7.41377 7.70073 7.76602 7.9853 8.14057 8.24504C8.16391 8.2346 8.17411 8.21391 8.18423 8.19339C8.187 8.18777 8.18976 8.18216 8.19279 8.17678C8.35943 7.88321 8.57477 7.6264 8.81339 7.3917C9.09743 7.11492 9.40683 6.86544 9.73753 6.64652C10.249 6.30326 10.7902 6.01458 11.3515 5.76247C12.0068 5.46923 12.6821 5.22295 13.3723 5.0255C14.1083 4.81349 14.8548 4.64919 15.6176 4.56939C16.0889 4.51745 16.5652 4.53564 17.0311 4.62338C17.1806 4.65155 17.3239 4.70145 17.467 4.75128Z" fill="#3F5CAA"/>
<path d="M12.9219 13.7007C12.7809 13.6464 12.6398 13.5921 12.4928 13.5556C12.0752 13.8288 11.6864 14.1379 11.3559 14.5149C10.7036 15.2584 10.4804 16.088 10.8325 17.0427C11.1118 17.799 11.5505 18.446 12.1312 18.9986C12.4695 19.3205 12.8421 19.5973 13.2775 19.7784C13.4918 19.8674 13.7142 19.9435 13.9489 19.8987C14.2388 19.8403 14.5233 19.7577 14.7993 19.6518C14.7473 19.5437 14.6986 19.4308 14.7082 19.309C14.7256 19.1139 14.7912 18.9263 14.8991 18.7629C15.1342 18.3958 15.4536 18.1098 15.8005 17.8556C16.5704 17.2909 17.417 16.8667 18.2997 16.5113C18.4904 16.4345 18.6834 16.3636 18.8764 16.2928C18.9635 16.2608 19.0507 16.2288 19.1376 16.1962C19.2933 15.9238 19.4435 15.6499 19.5568 15.3566C19.3194 15.3639 19.0819 15.3559 18.8456 15.3325C18.3494 15.2763 17.857 15.1904 17.3711 15.0751C15.9183 14.734 14.502 14.272 13.0991 13.7674C13.0397 13.746 12.9808 13.7234 12.9219 13.7007Z" fill="#3F5CAA"/>
<path d="M9.09377 3.76413C9.05315 3.75793 9.01245 3.75172 8.98064 3.71949C8.97149 3.72087 8.96224 3.723 8.953 3.72511C8.93342 3.72961 8.9139 3.73408 8.89556 3.73143C8.73674 3.70659 8.5791 3.71656 8.4197 3.73143C8.05161 3.76487 7.7062 3.86873 7.38857 4.05825C5.9226 4.93522 4.73567 6.21031 3.96582 7.73527C3.93413 7.79766 3.94019 7.81741 4.01393 7.8223C4.21988 7.8358 4.42153 7.80959 4.62181 7.76832C5.26353 7.63591 5.87923 7.42213 6.48379 7.17335C6.52858 7.15473 6.57249 7.13392 6.61639 7.11312C6.71586 7.06599 6.81526 7.0189 6.92464 6.99732C6.93662 6.96932 6.96159 6.95846 6.98615 6.94779C6.99126 6.94557 6.99636 6.94335 7.00131 6.94099C7.68684 6.61319 8.34088 6.23532 8.9071 5.7219C9.16821 5.48525 9.40584 5.22707 9.55586 4.90181C9.61845 4.76588 9.66852 4.62388 9.67947 4.47367C9.70646 4.10617 9.52339 3.87147 9.14356 3.77367C9.12741 3.76926 9.1106 3.7667 9.09377 3.76413Z" fill="#70A0D5"/>
<path d="M18.5585 5.6155C18.2977 5.33934 18.0316 5.06688 17.7174 4.84822C17.7138 4.84765 17.7101 4.84737 17.7063 4.84709C17.6921 4.84601 17.6778 4.84494 17.6709 4.82799C17.6538 4.82933 17.6386 4.82722 17.6322 4.80756C17.5769 4.78967 17.522 4.77054 17.467 4.7514C17.3239 4.70157 17.1806 4.65167 17.0311 4.62349C16.5652 4.53569 16.0889 4.51743 15.6176 4.56931C14.8539 4.64911 14.1093 4.81341 13.3719 5.02405C12.682 5.2216 12.0069 5.46794 11.3519 5.76122C10.7906 6.01333 10.2494 6.30201 9.73793 6.64526C9.40723 6.86418 9.09782 7.11367 8.81378 7.39045C8.57517 7.62554 8.35983 7.88215 8.19319 8.17553C8.19016 8.18091 8.18739 8.18652 8.18462 8.19214C8.1745 8.21266 8.1643 8.23335 8.14097 8.24379C8.13831 8.28993 8.11686 8.32858 8.09548 8.36709C8.08696 8.38245 8.07844 8.39778 8.07114 8.41356C7.85209 8.88883 7.80338 9.37917 7.93247 9.88632C8.08072 10.4688 8.41733 10.9388 8.82806 11.3606C9.1631 11.7045 9.54214 11.9963 9.9429 12.2586C10.6881 12.7464 11.4831 13.1383 12.3073 13.4726C12.3261 13.4802 12.3454 13.4864 12.3647 13.4926C12.4101 13.5071 12.4555 13.5216 12.4928 13.5543C12.6398 13.5909 12.7808 13.6452 12.9218 13.6994C12.9808 13.7221 13.0397 13.7448 13.0991 13.7662C14.502 14.2708 15.9182 14.7327 17.3711 15.0738C17.857 15.1891 18.3494 15.2751 18.8456 15.3312C19.0819 15.3546 19.3194 15.3626 19.5567 15.3553L19.6042 15.351C19.7498 15.3378 19.8948 15.3247 20.0357 15.2771C20.192 15.2243 20.3449 15.1714 20.414 14.9895C20.7476 14.1145 20.9412 13.1923 20.9876 12.257C21.0218 11.6011 20.9851 10.9435 20.8781 10.2955C20.675 9.07081 20.2192 7.9018 19.5399 6.86276C19.2511 6.41825 18.9226 6.00079 18.5585 5.6155Z" fill="#70A0D5"/>
<path d="M15.2484 19.8971C15.2828 19.9001 15.3174 19.9032 15.3464 19.9267L15.5809 19.9259C15.5862 19.9199 15.5928 19.9151 15.6003 19.9121C15.6078 19.909 15.6159 19.9078 15.6239 19.9085C15.8512 19.8909 16.0616 19.8182 16.2603 19.7098C17.0961 19.2574 17.8558 18.6766 18.5115 17.9887C19.0136 17.4605 19.452 16.8753 19.8176 16.245L19.8245 16.2335C19.8489 16.1927 19.8746 16.1497 19.8384 16.1015C19.8018 16.0528 19.7511 16.0601 19.6996 16.0675L19.6864 16.0694C19.5821 16.0837 19.4808 16.1109 19.3796 16.1381C19.2995 16.1596 19.2193 16.1812 19.1376 16.1963C19.0506 16.2289 18.9635 16.2609 18.8764 16.2929C18.6834 16.3637 18.4904 16.4346 18.2997 16.5114C17.417 16.8668 16.5703 17.291 15.8005 17.8557C15.4535 18.1105 15.1338 18.3959 14.8991 18.763C14.7911 18.9264 14.7255 19.114 14.7082 19.3091C14.6986 19.4309 14.7481 19.5432 14.7993 19.6519C14.9137 19.7636 15.0393 19.8538 15.1999 19.8905C15.2156 19.8942 15.232 19.8956 15.2484 19.8971Z" fill="#70A0D5"/>
<path d="M3.57228 8.67603C3.80542 8.97724 4.03934 9.26846 4.2803 9.55421C4.36022 9.64902 4.44048 9.74354 4.52074 9.83805C4.85704 10.2341 5.19344 10.6303 5.50448 11.0469C5.94864 11.6426 6.34762 12.2672 6.74695 12.8923L6.80766 12.9873C7.19082 13.587 7.5462 14.2023 7.84427 14.8491C8.11184 15.4244 8.3148 16.0275 8.44941 16.6475C8.56853 17.2053 8.56109 17.7698 8.54623 18.3341C8.5341 18.8013 8.51513 19.2688 8.45235 19.7329C8.42868 19.9072 8.40443 19.9265 8.23407 19.888C7.91488 19.8156 7.63714 19.6517 7.36098 19.4869C6.95908 19.2494 6.57761 18.9789 6.22052 18.6783C5.84659 18.3621 5.49857 18.0165 5.1798 17.6448C4.73501 17.123 4.34883 16.554 4.02819 15.9479C3.66437 15.2574 3.39354 14.5218 3.22277 13.7603C3.12767 13.3476 3.06547 12.9281 3.03677 12.5056L3.02794 12.3741C3.01043 12.1171 2.9929 11.8599 3.00293 11.6026C3.0354 10.7663 3.14845 9.94206 3.40232 9.14153C3.43578 9.03569 3.47173 8.93055 3.50769 8.8254C3.52216 8.78307 3.53665 8.74071 3.55096 8.69833C3.55203 8.69512 3.55483 8.69256 3.55981 8.68802C3.56302 8.68509 3.56714 8.68133 3.57228 8.67603Z" fill="#70A0D5"/>
</svg>
