<svg width="24" height="24" viewBox="0 0 24 24" fill="none" xmlns="http://www.w3.org/2000/svg">
<circle cx="12" cy="12" r="12" fill="#00BAFF"/>
<path d="M11.1106 16.5433L11.5991 17.5047C12.5656 18.3843 13.2411 17.4024 13.2307 17.4024L18.8428 6.30555C18.8428 6.30555 18.9467 6.12146 18.7181 6.02941C18.4894 5.93736 18.2192 6.09078 18.2192 6.09078C16.7746 8.95448 14.6545 13.1375 14.0933 14.2217C13.3866 15.0501 12.4928 14.2319 12.4928 14.2319L12.3204 13.8929L12.3058 13.833L12.2935 13.8191L8.63715 6.61237L8.64751 6.65367C8.50434 6.36904 8.41728 6.19417 8.40851 6.1726C8.34615 6.01918 8.26301 6.01918 8.26301 6.01918C8.0297 6.02266 7.7964 6.02496 7.56064 6.02728C7.10327 6.03178 6.63666 6.03637 6.1429 6.04987C5.91426 6.101 6.02858 6.43851 6.02858 6.43851L11.1106 16.5433Z" fill="white"/>
</svg>
