<svg width="24" height="24" viewBox="0 0 24 24" fill="none" xmlns="http://www.w3.org/2000/svg">
<circle cx="12" cy="12" r="12" fill="#F3BA2F"/>
<path d="M8.89393 10.723L12.0015 7.61678L15.1104 10.7255L16.9176 8.91715L12.0015 4L7.08548 8.91588L8.89393 10.723Z" fill="#121212"/>
<path d="M4 12.0003L5.80778 10.1926L7.61557 12.0003L5.80778 13.808L4 12.0003Z" fill="#121212"/>
<path d="M12.0015 16.3845L8.89395 13.277L7.08298 15.0829L12.0015 20L16.9188 15.0816L15.1104 13.2757L12.0015 16.3845Z" fill="#121212"/>
<path d="M16.3844 12.0007L18.1922 10.193L20 12.0007L18.1922 13.8084L16.3844 12.0007Z" fill="#121212"/>
<path d="M12.0015 10.1645L13.8353 11.9994H13.8365L12.0015 13.8356L10.1678 12.0032L10.1653 11.9994L10.4888 11.6759L10.6455 11.5204L12.0015 10.1645Z" fill="#121212"/>
</svg>
