<?xml version="1.0" encoding="UTF-8"?>
<svg width="24px" height="24px" viewBox="0 0 24 24" version="1.1" xmlns="http://www.w3.org/2000/svg" xmlns:xlink="http://www.w3.org/1999/xlink">
  <path d="M23.64,14.9 C22.4681085,19.6107303 18.5735379,23.1514209 13.7728017,23.8706159 C8.97206554,24.5898109 4.21089736,22.3458306 1.71001077,18.1853168 C-0.790875832,14.0248029 -0.538812129,8.76736686 2.34863382,4.86519243 C5.23607976,0.963018006 10.190088,-0.81517569 14.9,0.36 C21.3271078,1.96363523 25.2391537,8.47177563 23.64,14.9 Z" fill="#EB9B32"></path>
  <path d="M18.35,19.06 L19.02,19.8 C15.8628952,22.6333599 11.3139038,23.2956048 7.48,21.48 C6.85876485,21.1835726 6.2690984,20.8250822 5.72,20.41 C5.53196871,20.2842469 5.35164527,20.1473347 5.18,20 L4.92,19.77 L5.6,19 C5.83,19.21 6.07,19.41 6.31,19.59 C6.80550384,19.9803515 7.34199135,20.3156562 7.91,20.59 C11.3758387,22.2396856 15.4936272,21.644105 18.35,19.08 L18.35,19.06 Z M4.24,4.92 L5,5.6 C4.78962703,5.82843347 4.59263192,6.06883428 4.41,6.32 C4.02363602,6.8147355 3.68857943,7.34747548 3.41,7.91 C2.88032173,9.03762002 2.57142822,10.2562219 2.5,11.5 C2.37520571,13.9003589 3.16492428,16.2587945 4.71,18.1 L4.93,18.35 L4.2,19 C1.37518729,15.8468373 0.713358561,11.3085831 2.52,7.48 C2.81642737,6.85876485 3.17491777,6.2690984 3.59,5.72 C3.79258456,5.44219381 4.00954702,5.17516309 4.24,4.92 L4.24,4.92 Z M19.8,5 C22.6333599,8.15710479 23.2956048,12.7060962 21.48,16.54 C21.1798457,17.1592124 20.8215711,17.748524 20.41,18.3 C20.27,18.49 20.13,18.66 19.98,18.84 L19.75,19.1 L19,18.4 C19.21,18.17 19.4,17.93 19.59,17.68 C19.9766486,17.1854645 20.3117241,16.6526945 20.59,16.09 C22.1833483,12.7279031 21.6674257,8.74513697 19.27,5.9 L19.06,5.64 L19.8,5 Z M17.94,3.35 L18.28,3.59 C18.46,3.72 18.64,3.87 18.82,4.02 L19.07,4.24 L18.4,5 C18.1715665,4.78962703 17.9311657,4.59263192 17.68,4.41 C17.1880078,4.01974511 16.6548433,3.68442154 16.09,3.41 C12.7259118,1.81733535 8.74245256,2.32893648 5.89,4.72 L5.64,4.94 L5,4.2 C7.06816379,2.33156064 9.79703813,1.36673436 12.58,1.52 C13.9660493,1.58752951 15.3252367,1.92732635 16.58,2.52 C16.9505808,2.70033112 17.3111101,2.90062518 17.66,3.12 L17.94,3.35 Z" fill="#FFFFFF"></path>
  <path d="M10.85,5 L10.85,7.08 L11.85,7.08 L11.85,5 L13.13,5 L13.13,7.12 C14.7,7.26 15.97,7.74 16.2,9.12 L16.2,9.32 L16.2,9.51 C16.285363,10.3433403 15.8423379,11.1415837 15.09,11.51 C15.7067601,11.5784762 16.2659175,11.9042415 16.6296606,12.4070069 C16.9934038,12.9097722 17.1278996,13.5427737 17,14.15 C16.82,16.15 15.42,16.69 13.4,16.84 L13.17,16.84 L13.17,19 L11.87,19 L11.87,16.89 L10.87,16.89 L10.87,19 L9.57,19 L9.57,16.85 L7,16.85 L7.25,15.31 L8.18,15.31 C8.40782841,15.3237057 8.60983583,15.1646786 8.65,14.94 L8.65,11.49 L8.65,11.49 L8.65,9.07 C8.59830105,8.71532556 8.27662562,8.46415432 7.92,8.5 L7,8.5 L7,7.12 L9.57,7.12 L9.57,5 L10.85,5 Z M11.85,12.46 L10.85,12.46 L10.85,15.31 L11.77,15.31 L12.25,15.31 L12.25,15.31 L12.58,15.31 C13.51,15.19 14.43,14.87 14.43,13.94 C14.43,13.01 13.43,12.62 12.43,12.53 L12.11,12.53 L11.85,12.46 Z M11.64,8.58 L11.49,8.58 L10.88,8.58 L10.88,11.15 L12.08,11.15 C12.88,11.08 13.75,10.84 13.85,10.04 L13.85,9.73 C13.75,8.84 12.78,8.63 11.94,8.59 L11.64,8.58 Z" fill="#FFFFFF"></path>
</svg>
