<svg width="24" height="24" viewBox="0 0 24 24" fill="none" xmlns="http://www.w3.org/2000/svg">
<path d="M12.0002 24C18.6276 24 24.0002 18.6274 24.0002 12C24.0002 5.37258 18.6276 0 12.0002 0C5.37277 0 0.000183105 5.37258 0.000183105 12C0.000183105 18.6274 5.37277 24 12.0002 24Z" fill="white"/>
<path d="M4.00197 7.40746L6.67003 5.86755L14.6638 10.482L14.664 10.4907C14.4549 10.598 14.2559 10.7243 14.0508 10.8389L12.0025 12.021C11.9848 12.0149 11.9673 12.0082 11.9501 12.001L4.33824 7.60685C4.22548 7.54508 4.11729 7.47472 4.00124 7.41897L4.00197 7.40746ZM14.6656 7.406L17.3322 5.86755L19.9979 7.40618L20.0003 7.41623L17.3311 8.95066L15.2748 7.76512C15.0732 7.64285 14.8621 7.5363 14.6656 7.406Z" fill="#2B6DEF"/>
<path d="M14.6637 10.4222L14.6655 7.34618C14.862 7.47648 15.073 7.58303 15.2746 7.70529L17.331 8.89084L17.3325 17.5838C17.3301 17.7629 17.3378 17.9424 17.3266 18.1211L14.6651 16.586L14.6638 10.4309L14.6637 10.4222ZM4.0011 7.35915C4.11715 7.41489 4.22534 7.48526 4.3381 7.54703L11.9499 11.9412C11.9672 11.9484 11.9847 11.955 12.0024 11.9611C11.9907 12.0502 11.9969 12.1401 11.9958 12.2296L11.9954 15.0461L9.33777 13.5085C9.20253 13.417 9.05541 13.3443 8.91597 13.2593L6.77041 12.0207C6.73897 12.0021 6.70626 11.9862 6.67263 11.9721C6.66955 11.9969 6.66729 12.0218 6.66587 12.0467L6.66679 17.3461C6.66989 17.6043 6.65783 17.8635 6.67501 18.1211L6.67154 18.1323H6.66423C6.6635 18.1294 6.66185 18.1237 6.66112 18.1208L4.00018 16.584L4.0011 7.35915Z" fill="#2891F9"/>
<path d="M17.3132 8.89091L19.9823 7.35649L19.9834 16.5841L17.3225 18.1207L17.3196 18.1324H17.3124L17.3088 18.1212C17.3199 17.9425 17.3123 17.763 17.3146 17.5839L17.3132 8.89091ZM14.0329 10.7792C14.2379 10.6646 14.4369 10.5383 14.646 10.431L14.6464 13.5099L12.6392 14.6684L11.9776 15.0462L11.978 12.2297C11.979 12.1401 11.9728 12.0502 11.9845 11.9612L14.0329 10.7792ZM6.6548 11.9722C6.68843 11.9863 6.72114 12.0022 6.75257 12.0208L8.89814 13.2593C9.03758 13.3443 9.1847 13.4171 9.31994 13.5086L9.31829 16.5864L6.65717 18.1212C6.64 17.8635 6.65206 17.6044 6.64895 17.3461L6.64804 12.0468C6.64946 12.0218 6.65171 11.997 6.6548 11.9722Z" fill="#2BBDF7"/>
</svg>
