<svg width="24" height="24" viewBox="0 0 24 24" fill="none" xmlns="http://www.w3.org/2000/svg">
<circle cx="12" cy="12" r="12" fill="black"/>
<path d="M1.85157 12.0898C1.59876 11.9287 1.35868 11.7757 1.11901 11.6223C0.769886 11.3988 0.426301 11.1689 0.0921644 10.9259C0.0305534 10.8815 -0.00661863 10.8368 0.000980064 10.7532C0.0818959 9.83961 0.237361 8.94132 0.514405 8.06255C0.714042 7.42186 0.972425 6.80019 1.28639 6.20516C1.64767 5.52089 2.08221 4.87625 2.58269 4.28214C2.88508 3.91869 3.21143 3.57504 3.55963 3.25339C4.19725 2.67212 4.896 2.15883 5.64414 1.72214C6.40035 1.28393 7.20154 0.925011 8.03444 0.651313C8.6635 0.440732 9.30975 0.283196 9.96615 0.180423C10.3629 0.120026 10.7607 0.0700987 11.1614 0.0394978C11.6107 0.00141098 12.0621 -0.00914536 12.5127 0.00789041C12.9782 0.0284252 13.4422 0.0714408 13.9047 0.136937C14.616 0.240248 15.3163 0.405998 15.9973 0.632188C16.4142 0.771681 16.8223 0.935377 17.2194 1.1224C17.9074 1.44391 18.5602 1.83333 19.1676 2.28463C19.4508 2.4938 19.722 2.71969 19.9855 2.95221C20.2618 3.19733 20.5235 3.45773 20.7694 3.73213C21.1406 4.14296 21.4821 4.57867 21.7914 5.03609C22.4485 6.00444 22.9494 7.04447 23.3296 8.14409C23.5642 8.83146 23.7536 9.5329 23.8966 10.2441C23.933 10.4204 23.9519 10.6002 23.9896 10.7762C24.0044 10.845 23.9781 10.8716 23.928 10.9032C23.651 11.0753 23.3684 11.238 23.0821 11.395C22.7067 11.601 22.3302 11.8054 21.9526 12.0082C21.8815 12.0465 21.8852 12.0644 21.9526 12.1029C22.4527 12.3847 22.9517 12.6692 23.4495 12.9563C23.6173 13.0529 23.7808 13.1566 23.9465 13.2566C23.9794 13.2768 24.0052 13.2923 23.9991 13.3416C23.9292 13.9213 23.8208 14.496 23.6746 15.0619C23.4965 15.7494 23.2582 16.4205 22.9624 17.0679C22.703 17.6365 22.3977 18.1839 22.0493 18.7048C21.783 19.1058 21.4887 19.4883 21.1685 19.8495C20.9155 20.1314 20.6614 20.4116 20.384 20.6703C19.689 21.3199 18.9182 21.8868 18.0877 22.3594C17.2771 22.8191 16.4159 23.187 15.5206 23.4562C14.9318 23.6356 14.3297 23.7698 13.7197 23.8576C13.309 23.916 12.896 23.9572 12.4807 23.9812C12.1317 24.0018 11.7833 24.0054 11.4354 23.9923C10.6252 23.963 9.82002 23.8557 9.03131 23.672C8.08378 23.4505 7.16938 23.11 6.31077 22.6589C5.30865 22.128 4.39267 21.454 3.5929 20.6588C2.91153 19.9672 2.31845 19.1969 1.82672 18.365C1.31626 17.4969 0.904824 16.5764 0.599839 15.6201C0.362456 14.8882 0.182169 14.1396 0.0605374 13.3809C0.04534 13.2886 0.0324017 13.1958 0.00919487 13.1052C-0.00744011 13.0404 0.0102217 13.0088 0.0708059 12.9802C0.3727 12.8393 0.674594 12.6956 0.972791 12.5462C1.26442 12.4006 1.55111 12.2464 1.85157 12.0898ZM20.0529 11.9539C20.0907 11.9307 20.1133 11.9158 20.1369 11.9028C21.0715 11.385 22.0067 10.8682 22.9425 10.3526C23.0115 10.3147 23.0213 10.2791 23.0004 10.2117C22.9363 10.0035 22.8811 9.7925 22.8168 9.58434C22.4483 8.3893 21.9577 7.2464 21.2931 6.17899C20.3074 4.5964 19.0341 3.29869 17.3804 2.37402C15.9677 1.58444 14.4436 1.16609 12.8265 1.07509C12.0955 1.03452 11.3621 1.0648 10.6371 1.16549C9.67906 1.2959 8.74102 1.54127 7.84406 1.89608C6.16003 2.56326 4.69286 3.54188 3.47872 4.87362C2.73205 5.68847 2.12554 6.61694 1.68296 7.62266C1.31756 8.45805 1.07093 9.33867 0.949995 10.2398C0.941575 10.3002 0.970532 10.323 1.01366 10.3496C1.86595 10.8851 2.71803 11.4209 3.5699 11.9571C3.67505 12.0233 3.67546 12.0217 3.56846 12.0819C2.72645 12.5568 1.87868 13.0205 1.01715 13.4602C0.972997 13.4827 0.942807 13.4978 0.95554 13.5639C1.23115 14.9886 1.69261 16.3487 2.42332 17.6148C3.41444 19.3331 4.782 20.6794 6.5605 21.6131C7.99645 22.3668 9.53672 22.759 11.1608 22.8442C11.7308 22.8742 12.3023 22.8634 12.8707 22.8117C13.5786 22.7497 14.2795 22.6267 14.9655 22.4443C16.743 21.9674 18.3335 21.1484 19.6978 19.9278C20.8612 18.8858 21.7291 17.6414 22.2766 16.1895C22.5723 15.4066 22.7619 14.589 22.8406 13.7577C22.8474 13.6867 22.8248 13.6484 22.7656 13.6124C22.1379 13.2296 21.511 12.8458 20.8851 12.461C20.6134 12.2937 20.3402 12.1286 20.0529 11.9539Z" fill="#C3C3C0"/>
<path d="M20.0525 11.9539C20.34 12.1287 20.613 12.2938 20.8853 12.4607C21.5114 12.8444 22.1376 13.2283 22.764 13.6124C22.8232 13.6484 22.8462 13.6867 22.839 13.7578C22.7603 14.589 22.5707 15.4066 22.275 16.1895C21.7275 17.6415 20.8596 18.8858 19.6962 19.9279C18.3326 21.1491 16.7414 21.968 14.9639 22.4444C14.278 22.6268 13.577 22.7497 12.8691 22.8118C12.3007 22.8634 11.7292 22.8743 11.1592 22.8442C9.53679 22.759 7.99652 22.3669 6.55893 21.6131C4.78167 20.68 3.41411 19.3338 2.423 17.6149C1.69229 16.3488 1.23083 14.9886 0.955223 13.5631C0.94249 13.4971 0.972679 13.4826 1.01683 13.4594C1.87939 13.0197 2.72633 12.5561 3.56814 12.0812C3.67514 12.0208 3.67473 12.0226 3.56958 11.9563C2.71743 11.4204 1.86535 10.8846 1.01334 10.3488C0.970831 10.3222 0.941258 10.2997 0.949678 10.2391C1.07069 9.33817 1.31732 8.45783 1.68264 7.6227C2.12503 6.61701 2.73133 5.68855 3.47778 4.87366C4.69192 3.54252 6.15826 2.5633 7.84372 1.89612C8.74067 1.54131 9.67872 1.29594 10.6367 1.16553C11.3617 1.06458 12.095 1.03404 12.826 1.07433C14.4439 1.16693 15.9673 1.58367 17.3801 2.37325C19.0333 3.29711 20.3074 4.59483 21.2928 6.17822C21.9573 7.24523 22.448 8.38853 22.8164 9.58357C22.8807 9.79174 22.9359 10.0027 23 10.2109C23.0205 10.2789 23.0111 10.3146 22.9421 10.3518C22.0056 10.8665 21.0704 11.3832 20.1365 11.902C20.1129 11.9159 20.0903 11.9308 20.0525 11.9539ZM11.7911 13.1588C11.8102 13.1906 11.8221 13.2102 11.8336 13.2299C12.4558 14.2969 13.0775 15.3639 13.6988 16.4309C13.7331 16.4899 13.7682 16.5205 13.8413 16.5114C13.9192 16.5028 13.9986 16.5076 14.0773 16.5062C14.4979 16.499 14.9193 16.4901 15.3393 16.4861C15.4237 16.4861 15.4317 16.4599 15.389 16.3973C15.3769 16.3771 15.3658 16.3564 15.3559 16.3351C14.5236 14.7908 13.6899 13.2464 12.8547 11.7019C12.8153 11.629 12.8225 11.5793 12.8623 11.5118C13.6233 10.2218 14.3832 8.93102 15.1419 7.63961C15.183 7.57116 15.1791 7.55425 15.0933 7.55305C14.6688 7.54741 14.2448 7.53828 13.8212 7.52567C13.7584 7.52385 13.731 7.55224 13.7027 7.59794C13.2224 8.37048 12.7412 9.14221 12.2592 9.91313C12.153 10.0835 12.046 10.2534 11.9398 10.4229C11.8987 10.406 11.8922 10.374 11.8782 10.3492C11.3107 9.39815 10.7442 8.44637 10.1788 7.49386C10.127 7.40608 10.0749 7.38575 9.97772 7.39561C9.54932 7.4391 9.1201 7.47614 8.69108 7.51198C8.5656 7.52285 8.56498 7.51983 8.6305 7.62532C9.44034 8.92988 10.2507 10.2344 11.0615 11.5388C11.1075 11.6127 11.1146 11.6656 11.067 11.7454C10.1641 13.2569 9.26324 14.7697 8.36454 16.2837C8.34154 16.3226 8.32162 16.3631 8.29656 16.4094C8.32799 16.4146 8.3475 16.4196 8.36742 16.421C8.81081 16.4502 9.25441 16.4774 9.69759 16.5098C9.77255 16.5153 9.81178 16.4953 9.84998 16.4305C10.4074 15.4854 10.9666 14.5412 11.5278 13.5981C11.6133 13.4544 11.6999 13.3112 11.7911 13.1588Z" fill="#003663"/>
<path d="M11.7914 13.1586C11.7003 13.311 11.6136 13.4541 11.5282 13.5978C10.9682 14.5416 10.4089 15.4858 9.85029 16.4302C9.81209 16.4951 9.77287 16.515 9.69791 16.5096C9.25472 16.4771 8.81112 16.4492 8.36773 16.4208C8.34719 16.4194 8.3283 16.4143 8.29688 16.4091C8.32193 16.3628 8.34185 16.3223 8.36485 16.2835C9.26478 14.7702 10.1659 13.2574 11.0683 11.7451C11.116 11.6646 11.1094 11.6124 11.0628 11.5385C10.2501 10.2349 9.43942 8.93042 8.63081 7.62505C8.56529 7.51956 8.56591 7.52258 8.69139 7.51171C9.12041 7.47506 9.54963 7.43883 9.97803 7.39534C10.0752 7.38548 10.1273 7.40581 10.1791 7.49359C10.7421 8.44745 11.3085 9.39923 11.8783 10.3489C11.8931 10.3737 11.9005 10.4057 11.9399 10.4226C12.0461 10.2531 12.1531 10.0832 12.2593 9.91286C12.7407 9.14127 13.2218 8.36953 13.7026 7.59767C13.731 7.55197 13.7583 7.52358 13.8211 7.52539C14.2455 7.53761 14.6696 7.54673 15.0932 7.55277C15.179 7.55398 15.1821 7.57089 15.1418 7.63934C14.3812 8.92968 13.6213 10.2204 12.8622 11.5116C12.8224 11.579 12.8152 11.6287 12.8546 11.7016C13.6898 13.2451 14.5234 14.79 15.3554 16.3364C15.3653 16.3577 15.3764 16.3785 15.3885 16.3986C15.4312 16.4612 15.4232 16.4866 15.3388 16.4874C14.918 16.4918 14.4968 16.5007 14.0768 16.5075C13.9981 16.509 13.9187 16.5041 13.8408 16.5128C13.7677 16.5208 13.7326 16.4902 13.6983 16.4323C13.0778 15.3643 12.4561 14.2973 11.8331 13.2312C11.8225 13.2099 11.8105 13.1904 11.7914 13.1586Z" fill="white"/>
</svg>
