<svg width="24" height="24" viewBox="0 0 24 24" fill="none" xmlns="http://www.w3.org/2000/svg">
<circle cx="12" cy="12" r="12" fill="#67B2E8"/>
<path fill-rule="evenodd" clip-rule="evenodd" d="M5.00706 6.87428C5.94931 6.32868 6.93567 5.90138 7.97321 5.59239C9.38658 5.17216 10.8211 4.9744 12.2945 5.00265C12.9791 5.01677 14.119 5.12801 14.3113 5.20217C14.3184 5.2163 14.3043 5.22513 14.2884 5.22513C14.2549 5.24055 14.219 5.25364 14.1829 5.26679C14.1488 5.27924 14.1146 5.29175 14.082 5.30635C12.868 5.81487 12.0069 6.88311 11.7563 8.17912C11.7193 8.39277 11.6981 8.60642 11.691 8.82006C11.684 9.14495 11.654 9.46807 11.5587 9.78413C11.234 10.9265 10.3006 11.8164 9.14484 12.0831C7.62736 12.4274 6.09576 11.6769 5.43407 10.2697C5.39702 10.1885 5.36878 10.1073 5.3529 10.026C5.24174 9.54753 5.16234 9.06903 5.10234 8.5817C5.03705 8.04493 5 7.50639 5 6.96962C5.00706 6.93255 5.00706 6.91136 5.00706 6.87428ZM15.8415 15.7041C15.8451 15.6685 15.8488 15.6339 15.8525 15.5998V15.5998C15.8632 15.5002 15.8733 15.4054 15.8786 15.3068C15.9156 14.5776 15.7604 13.8854 15.4145 13.2445C15.0828 12.6335 14.6187 12.1462 14.0241 11.7789C13.9985 11.7604 13.9707 11.7441 13.9429 11.7277C13.9151 11.7114 13.8873 11.6951 13.8617 11.6765C13.0448 11.161 12.5437 10.4317 12.3672 9.48179C12.0514 7.7726 13.1259 6.12345 14.8111 5.71734C15.4075 5.57785 15.988 5.59198 16.5703 5.77561C17.0485 5.92393 17.5055 6.12168 17.9607 6.33533C18.2766 6.48365 18.5783 6.64433 18.8818 6.81383C18.8997 6.82491 18.9155 6.83393 18.9323 6.84348L18.9323 6.8435C18.9502 6.85372 18.9692 6.86456 18.993 6.87916C18.993 6.89417 18.9947 6.90697 18.9965 6.91977L18.9965 6.91979C18.9983 6.93259 19 6.94538 19 6.96038C19 7.3506 18.9771 7.74788 18.9488 8.1381C18.8977 8.71195 18.8094 9.28756 18.6912 9.84728C18.3295 11.5123 17.6907 13.052 16.7626 14.4804C16.505 14.8777 16.2262 15.2609 15.9315 15.6299C15.9205 15.6383 15.9114 15.6475 15.9021 15.6568C15.8861 15.6729 15.8695 15.6895 15.8415 15.7041ZM11.1911 18.5074C11.5528 18.7493 11.8899 18.9559 12.001 19C12.0228 18.9897 12.0484 18.9748 12.0749 18.9593C12.0849 18.9534 12.095 18.9475 12.1051 18.9417C13.0315 18.3961 13.8855 17.7481 14.6637 17.0101C14.7166 16.9659 14.7519 16.9059 14.7819 16.8476C14.8181 16.7825 14.8501 16.7165 14.8831 16.6486C14.8984 16.6171 14.9139 16.5852 14.9301 16.5528C15.306 15.7776 15.3801 14.9831 15.1366 14.1655C14.6584 12.5747 13.1268 11.6618 11.5881 11.8525C11.1541 11.9125 10.7412 12.052 10.3583 12.2657C9.6207 12.6788 8.84079 12.8483 8.0097 12.7671C7.59857 12.7318 7.20861 12.6206 6.83277 12.4581C6.5381 12.3345 6.26636 12.165 6.00874 11.9655C5.99891 11.9594 5.9907 11.9547 5.98161 11.9494C5.96949 11.9424 5.95581 11.9345 5.93463 11.9214C5.94054 11.9462 5.94567 11.9608 5.95052 11.9746C5.95292 11.9813 5.95524 11.9879 5.95757 11.9955C6.28224 12.836 6.68631 13.6305 7.17156 14.3898C7.68856 15.2073 8.29202 15.9648 8.96783 16.6587C9.6454 17.3508 10.3883 17.9706 11.1911 18.5074Z" fill="white"/>
</svg>
