<svg width="24" height="24" viewBox="0 0 24 24" fill="none" xmlns="http://www.w3.org/2000/svg">
<circle cx="12" cy="12" r="12" fill="black"/>
<path d="M20 5.61942V7.00172L4 15.1547V13.7717L4.58149 13.4752C4.79792 13.365 4.97689 13.1931 5.0959 12.9814C5.21491 12.7696 5.26863 12.5274 5.2503 12.2852C5.23721 12.1141 5.23067 11.9424 5.23067 11.77C5.23054 10.5218 5.57552 9.2979 6.2275 8.2335C6.87947 7.16911 7.81305 6.3057 8.92504 5.73871C10.037 5.17171 11.2841 4.92321 12.5285 5.02067C13.7729 5.11812 14.9661 5.55774 15.9763 6.29094L14.7091 6.93673C13.8661 6.46594 12.9148 6.22354 11.9493 6.23355C10.9839 6.24356 10.0378 6.50562 9.20474 6.99377C8.37172 7.48193 7.68069 8.17925 7.20008 9.01665C6.71948 9.85406 6.46599 10.8025 6.46471 11.768C6.46481 12.01 6.48064 12.2517 6.5121 12.4916L20 5.61942Z" fill="white"/>
<path d="M7.36977 14.8162L20 8.38537V9.76361L19.4178 10.0601C19.2016 10.1705 19.0228 10.3424 18.9039 10.5542C18.7851 10.7659 18.7314 11.008 18.7497 11.2502C18.7626 11.4221 18.7693 11.5961 18.7693 11.77C18.7689 13.0181 18.4235 14.2417 17.7713 15.3057C17.119 16.3697 16.1853 17.2327 15.0733 17.7993C13.9613 18.3659 12.7143 18.6141 11.4701 18.5164C10.2259 18.4187 9.03295 17.979 8.02302 17.2458L9.21848 16.6365L9.28617 16.6006C10.1293 17.0734 11.0814 17.3174 12.048 17.3084C13.0146 17.2994 13.9621 17.0378 14.7963 16.5495C15.6305 16.0612 16.3225 15.3632 16.8036 14.5248C17.2847 13.6863 17.5381 12.7367 17.5387 11.77C17.5386 11.5265 17.5228 11.2832 17.4913 11.0417L4 17.9159V16.5343L7.36977 14.8162Z" fill="white"/>
</svg>
