<svg width="24" height="25" viewBox="0 0 24 25" fill="none" xmlns="http://www.w3.org/2000/svg">
<circle cx="12" cy="12" r="12" fill="white"/>
<path d="M12.0005 0C5.37509 0 -0.00647132 5.38045 0.00196303 11.9997C0.00362434 13.324 0.214802 14.5979 0.611153 15.7895H4.20137V5.69475L12.0005 13.4937L19.7992 5.69475V15.7897H23.3901C23.7871 14.5982 23.9972 13.3243 23.9995 11.9999C24.0108 5.37374 18.6265 0.00159741 12.0005 0.00159741V0Z" fill="#F26822"/>
<path d="M10.2063 15.2865L6.80273 11.8828V18.2349H4.20057L1.74512 18.2353C3.85132 21.6908 7.65772 24.0022 11.9998 24.0022C16.3419 24.0022 20.1485 21.6902 22.2551 18.2348H17.1962V11.8828L13.7924 15.2865L11.9994 17.0795L10.2064 15.2865H10.2063Z" fill="#4D4D4D"/>
</svg>
