<svg width="24" height="24" viewBox="0 0 24 24" fill="none" xmlns="http://www.w3.org/2000/svg">
<circle cx="12" cy="12" r="12" fill="white"/>
<path d="M8.31296 14.3069C8.31296 12.5909 8.31596 10.8719 8.30996 9.1559C8.30996 9.0179 8.33395 8.9729 8.48395 8.9729C9.86695 8.9789 11.2499 8.9729 12.6299 8.9789C13.5389 8.9819 14.3999 9.1589 15.1559 9.7019C15.9359 10.2599 16.3169 11.0399 16.4189 11.9789C16.4969 12.7049 16.3919 13.4009 16.0469 14.0489C15.6479 14.7989 15.0059 15.2639 14.2229 15.5519C13.7039 15.7439 13.1579 15.8039 12.6089 15.8129C12.0959 15.8189 11.5799 15.8219 11.0669 15.8099C10.9199 15.8069 10.9019 15.8579 10.9019 15.9839C10.9079 17.1509 10.9019 18.3209 10.9079 19.4879C10.9079 19.6079 10.8839 19.6469 10.7549 19.6469C9.98995 19.6409 9.22795 19.6409 8.46296 19.6469C8.33996 19.6469 8.30396 19.6169 8.30396 19.4909C8.31296 17.7629 8.31296 16.0349 8.31296 14.3069ZM10.9079 12.4019C10.9079 12.8099 10.9109 13.2209 10.9049 13.6289C10.9049 13.7279 10.9319 13.7519 11.0309 13.7519C11.4899 13.7459 11.9489 13.7519 12.4079 13.7489C12.6179 13.7459 12.8249 13.7159 13.0229 13.6439C13.5629 13.4459 13.7789 13.0259 13.7999 12.4859C13.8299 11.7029 13.4459 11.1539 12.5879 11.0879C12.0659 11.0489 11.5409 11.0819 11.0159 11.0669C10.9139 11.0639 10.9049 11.1059 10.9049 11.1899C10.9109 11.5919 10.9079 11.9969 10.9079 12.4019Z" fill="#25262A"/>
<path d="M12.411 6.26406C13.725 6.26406 15.036 6.26406 16.35 6.26106C16.464 6.26106 16.503 6.28806 16.5 6.40806C16.494 6.88805 16.494 7.36505 16.5 7.84504C16.5 7.94104 16.485 7.98304 16.374 7.98304C13.728 7.98004 11.082 7.98004 8.43902 7.98304C8.32502 7.98304 8.31303 7.93804 8.31303 7.84204C8.31603 7.36205 8.31903 6.88505 8.31303 6.40506C8.31003 6.28206 8.34903 6.25806 8.46303 6.25806C9.77703 6.26706 11.094 6.26406 12.411 6.26406Z" fill="#ED1F25"/>
</svg>
