<svg width="24" height="24" viewBox="0 0 24 24" fill="none" xmlns="http://www.w3.org/2000/svg">
<circle cx="12" cy="12" r="12" fill="#1048E5"/>
<path d="M3.18343 16.6738C3.4399 16.6738 3.67244 16.6636 3.90156 16.6807C3.95627 16.6841 4.01783 16.7662 4.05202 16.8243C4.96165 18.3118 6.1893 19.4608 7.73498 20.261C8.76088 20.7911 9.84833 21.1228 10.9973 21.239C13.6852 21.5058 16.055 20.7466 18.1102 19.006C18.8317 18.3939 19.4336 17.6758 19.9158 16.8619C20.0081 16.708 20.1107 16.6465 20.2851 16.6601C20.4527 16.6738 20.6202 16.6636 20.8391 16.6636C20.2783 17.7407 19.5738 18.6367 18.7155 19.4095C17.0227 20.9313 15.0325 21.8033 12.7653 21.9709C7.97778 22.3265 4.49316 19.3617 3.18343 16.6738Z" fill="white"/>
<path d="M20.822 7.31766C20.5587 7.31766 20.3227 7.3245 20.0868 7.31082C20.0389 7.3074 19.9842 7.22875 19.95 7.17404C19.0643 5.73095 17.8777 4.60246 16.3867 3.79884C15.4018 3.2688 14.352 2.91658 13.2406 2.78663C10.0638 2.41389 7.36224 3.39191 5.16341 5.70701C4.74279 6.14814 4.41792 6.67819 4.05544 7.17404C3.98021 7.27663 3.91182 7.33476 3.78187 7.32792C3.59037 7.31766 3.40229 7.3245 3.15607 7.3245C3.6827 6.32254 4.32901 5.47789 5.10869 4.74267C6.69199 3.25854 8.55912 2.34891 10.7135 2.08218C15.7301 1.45981 19.4028 4.48619 20.822 7.31766Z" fill="white"/>
<path d="M8.34368 8.83941C8.28213 9.19505 8.22741 9.51991 8.1727 9.84136C8.14534 9.99183 8.11456 10.1423 8.09063 10.2928C8.01197 10.8228 7.73498 11.2229 7.28359 11.4965C6.78774 11.7974 6.28847 12.0949 5.77552 12.3616C4.98217 12.772 4.6231 13.4525 4.5 14.2972C4.4658 14.54 4.40767 14.7759 4.37689 15.0187C4.35979 15.1384 4.29824 15.1692 4.19565 15.1692C3.6827 15.1692 3.17317 15.1692 2.66023 15.1692C2.54738 15.1692 2.50634 15.1145 2.52686 15.0084C2.62261 14.4852 2.70468 13.9552 2.82437 13.4354C2.92696 12.9943 3.23131 12.6899 3.60747 12.4677C4.08964 12.1804 4.57523 11.8897 5.0745 11.6333C5.86786 11.2229 6.22692 10.5424 6.35345 9.69774C6.39106 9.45152 6.43552 9.20531 6.48681 8.96251C6.49707 8.91464 6.5552 8.84282 6.59282 8.84282C7.16048 8.83598 7.73156 8.83941 8.34368 8.83941Z" fill="white"/>
<path d="M17.9221 11.9957C17.9221 11.3289 17.929 10.6655 17.9187 9.99867C17.9153 9.8311 17.97 9.78665 18.1307 9.79349C18.6744 9.81401 19.225 9.78323 19.7653 9.83794C20.7399 9.93711 21.3862 10.6039 21.4649 11.5785C21.4922 11.9239 21.4888 12.2864 21.4273 12.625C21.2426 13.6167 20.5347 14.1159 19.6012 14.1877C19.1087 14.2254 18.6129 14.2048 18.117 14.2185C17.9597 14.2219 17.9153 14.1638 17.9153 14.0099C17.9255 13.3362 17.9221 12.666 17.9221 11.9957ZM19.1429 13.2029C19.6319 13.2508 20.0013 13.0627 20.1449 12.6728C20.3124 12.2146 20.309 11.7495 20.1415 11.2913C20.0047 10.9151 19.5362 10.7236 19.1429 10.816C19.1429 11.6059 19.1429 12.3993 19.1429 13.2029Z" fill="white"/>
<path d="M16.3593 11.0827C16.2738 11.0246 16.2055 10.9767 16.1336 10.9322C15.5694 10.5697 14.8581 10.8228 14.6563 11.4623C14.5332 11.8487 14.5435 12.2317 14.67 12.6181C14.8615 13.2029 15.436 13.2884 15.843 13.2337C15.9421 13.22 15.9832 13.1618 15.9832 13.0558C15.9729 12.5292 16.0481 12.6284 15.5728 12.6181C15.354 12.6147 15.3369 12.6044 15.3369 12.3856C15.3369 12.1804 15.3369 11.9752 15.3369 11.77C15.3369 11.6572 15.3813 11.6059 15.501 11.6059C15.9729 11.6093 16.4448 11.6093 16.9167 11.6059C17.0262 11.6059 17.0638 11.6538 17.0638 11.7598C17.0604 12.3787 17.0638 13.0011 17.0604 13.6201C17.0604 13.6782 17.0296 13.7569 16.9851 13.7945C16.0208 14.6118 14.0853 14.4442 13.5415 13.0798C13.1654 12.1359 13.2269 11.2092 13.9109 10.4056C14.6222 9.56779 15.9934 9.47546 16.8415 10.1731C16.9544 10.2654 16.9885 10.3406 16.8791 10.4603C16.6979 10.6621 16.5337 10.8707 16.3593 11.0827Z" fill="white"/>
<path d="M11.2367 14.3006C10.5494 14.2732 10.0227 14.1228 9.56107 13.7705C9.44481 13.6816 9.41061 13.6132 9.52688 13.4901C9.69102 13.3191 9.83807 13.1276 9.98511 12.9396C10.0603 12.8438 10.1287 12.8199 10.2382 12.9019C10.4775 13.0832 10.7477 13.2097 11.0486 13.2302C11.1751 13.2405 11.3119 13.2234 11.4282 13.1789C11.6163 13.1105 11.6368 12.8848 11.4727 12.772C11.3701 12.7036 11.2504 12.6592 11.1375 12.6079C10.9118 12.5121 10.6861 12.4198 10.4604 12.3274C9.96801 12.1257 9.5474 11.6982 9.58501 11.004C9.61237 10.5287 9.97143 10.0363 10.5117 9.84478C11.2675 9.57805 11.9651 9.70458 12.5943 10.2038C12.7003 10.2859 12.7003 10.3577 12.6182 10.4535C12.478 10.6176 12.3447 10.7886 12.2147 10.9596C12.1429 11.0553 12.0814 11.0724 11.9753 11.0006C11.7189 10.8296 11.435 10.7373 11.1204 10.7749C10.9871 10.792 10.8503 10.8125 10.8195 10.9733C10.7853 11.1442 10.8982 11.2195 11.0349 11.2742C11.329 11.3905 11.6265 11.5102 11.9206 11.6264C12.5601 11.8795 12.8405 12.2693 12.8303 12.8951C12.8234 13.4525 12.4541 13.9518 11.8693 14.1535C11.63 14.239 11.3735 14.2698 11.2367 14.3006Z" fill="white"/>
<path d="M8.31632 15.1589C8.24793 15.1658 8.1898 15.176 8.12824 15.176C7.65633 15.176 7.18442 15.1726 6.71251 15.1794C6.56546 15.1829 6.49023 15.1384 6.46287 14.9777C6.33977 14.2561 6.20298 13.538 6.07645 12.8165C6.03542 12.5942 6.04226 12.5873 6.27479 12.5942C6.54836 12.5976 6.82536 12.5737 7.08867 12.6284C7.62555 12.7344 7.95384 13.09 8.07011 13.6201C8.16928 14.068 8.23767 14.5229 8.31632 14.9743C8.32658 15.029 8.31632 15.0871 8.31632 15.1589Z" fill="white"/>
<path d="M2.52002 8.84966C2.57815 8.84282 2.61577 8.83941 2.65681 8.83941C3.16633 8.83941 3.67928 8.83941 4.18881 8.83599C4.29482 8.83599 4.34953 8.86334 4.37005 8.97961C4.5 9.73193 4.63678 10.4843 4.77357 11.24C4.79067 11.3323 4.7975 11.4212 4.66756 11.4144C4.34953 11.4041 4.02466 11.4281 3.72032 11.3631C3.20053 11.2537 2.88934 10.8912 2.77649 10.3782C2.68074 9.93711 2.61235 9.48572 2.5337 9.04116C2.52002 8.98303 2.52344 8.9249 2.52002 8.84966Z" fill="white"/>
</svg>
