<svg width="24" height="24" viewBox="0 0 24 24" fill="none" xmlns="http://www.w3.org/2000/svg">
<circle cx="12" cy="12" r="12" fill="#2C7DF7"/>
<path d="M13.5388 20.9999C12.2543 20.9999 11.3168 20.6905 10.7262 20.0718C10.1791 19.548 9.86164 18.829 9.84316 18.0718C9.83651 17.8418 9.88982 17.614 9.99785 17.4108C10.0986 17.2352 10.2442 17.0895 10.4197 16.9886C10.6236 16.8869 10.8485 16.834 11.0764 16.834C11.3043 16.834 11.5291 16.8869 11.7331 16.9886C11.9083 17.0892 12.0532 17.235 12.1525 17.4108C12.2637 17.613 12.319 17.8411 12.3128 18.0718C12.3242 18.3473 12.2452 18.6189 12.0878 18.8452C11.9566 19.03 11.769 19.1672 11.5532 19.2364C11.7642 19.5051 12.0628 19.6912 12.3969 19.7624C12.7708 19.871 13.158 19.9268 13.5472 19.9283C14.0626 19.9328 14.5674 19.7819 14.9957 19.4952C15.44 19.1813 15.7714 18.7326 15.9407 18.2155C16.1553 17.6002 16.26 16.9519 16.2501 16.3003C16.2674 15.6209 16.1527 14.9447 15.9125 14.309C15.7319 13.8006 15.3889 13.3657 14.9366 13.0715C14.5162 12.8054 14.0281 12.6658 13.5306 12.6693C13.0971 12.7061 12.6791 12.848 12.3128 13.0828L11.4097 13.5356V13.0828L15.4681 7.6384H9.84316V13.2881C9.82727 13.6958 9.93512 14.0988 10.1525 14.444C10.2577 14.5945 10.4 14.7152 10.5656 14.7945C10.7311 14.8739 10.9143 14.9091 11.0975 14.8968C11.4359 14.8899 11.7632 14.7746 12.0312 14.5677C12.3349 14.3452 12.5992 14.0733 12.8131 13.7633C12.8324 13.709 12.8679 13.6619 12.9148 13.6284C12.9525 13.5959 13.0006 13.5779 13.0504 13.5778C13.1481 13.5867 13.2406 13.6261 13.3148 13.6902C13.4088 13.7953 13.46 13.9318 13.4582 14.0727C13.4473 14.1675 13.4304 14.2614 13.4076 14.354C13.2078 14.8376 12.8728 15.2534 12.4428 15.5517C12.0435 15.8219 11.5718 15.9652 11.0896 15.9628C9.87175 15.9628 9.02806 15.7228 8.55853 15.2428C8.31719 14.9775 8.1312 14.6667 8.01143 14.3286C7.89166 13.9906 7.84053 13.632 7.86102 13.274V7.6384H5V6.58869H7.87435V4.19525L7.21627 3.53672V3H9.12588L9.84316 3.3713V6.58869L17.2737 6.56609L18.0134 7.30857L13.4572 11.887C13.7324 11.7763 14.0223 11.7062 14.3177 11.6788C14.9025 11.7044 15.4729 11.8673 15.9831 12.1542C16.5738 12.435 17.0716 12.8792 17.4175 13.4343C17.7275 13.9042 17.9469 14.4279 18.0644 14.9784C18.161 15.4126 18.2129 15.8556 18.2191 16.3004C18.2221 17.1493 18.0296 17.9875 17.6566 18.75C17.3028 19.4884 16.7074 20.0838 15.969 20.4376C15.2132 20.81 14.3814 21.0025 13.5388 20.9999Z" fill="white"/>
</svg>
