<svg width="24" height="24" viewBox="0 0 24 24" fill="none" xmlns="http://www.w3.org/2000/svg">
<circle cx="12" cy="12" r="12" fill="url(#paint0_linear)"/>
<path d="M5.57667 9.86562C5.47534 9.91039 5.39286 9.98226 5.31156 10.0553C5.17842 10.2167 5.1195 10.3994 5.13364 10.6115C5.14778 10.7953 5.22555 10.9473 5.34927 11.0733C5.47416 11.2018 5.63323 11.276 5.81704 11.2842C5.85828 11.2831 5.89951 11.2831 5.94075 11.2831H17.8212C17.8486 11.2831 17.876 11.2831 17.9035 11.2832C17.986 11.2834 18.0689 11.2837 18.1511 11.2819C18.6118 11.2713 18.957 10.8023 18.8321 10.357C18.7367 10.0164 18.4492 9.80081 18.0839 9.80081C17.483 9.80081 16.8833 9.80081 16.2824 9.80199C16.2352 9.80199 16.227 9.79492 16.2447 9.74779C16.6377 8.71292 17.03 7.67732 17.4222 6.64213C17.5297 6.35845 17.6371 6.07479 17.7446 5.79119C17.7976 5.65333 17.8094 5.51312 17.7835 5.36937C17.7246 5.05006 17.4618 4.81088 17.126 4.77199C16.8232 4.73783 16.4956 4.92988 16.3802 5.21856C16.3094 5.39419 16.2428 5.57159 16.1761 5.74909C16.1484 5.82284 16.1207 5.89662 16.0927 5.97029L14.9474 8.99253C14.9056 9.10154 14.8637 9.21025 14.8219 9.31897C14.7801 9.42764 14.7383 9.53631 14.6964 9.64528C14.693 9.65521 14.6894 9.66524 14.6857 9.67534C14.6768 9.7 14.6678 9.72507 14.6611 9.75015C14.6505 9.78785 14.6316 9.80081 14.5904 9.80081C12.7063 9.79963 10.8223 9.79963 8.93826 9.80081C8.90173 9.80081 8.88288 9.79021 8.86992 9.75486C8.47991 8.72153 8.08873 7.68819 7.69754 6.65486C7.64555 6.51745 7.59405 6.37976 7.54252 6.24202C7.41423 5.89905 7.28584 5.55582 7.14965 5.2162C6.94463 4.70601 6.23178 4.61529 5.8948 5.04889C5.76873 5.21149 5.7216 5.39294 5.73456 5.59442C5.74634 5.66983 5.76755 5.74288 5.79465 5.81476C5.83752 5.92802 5.88056 6.04146 5.92364 6.155C5.99305 6.33793 6.06257 6.52114 6.13163 6.70434C6.51103 7.70822 6.89043 8.71092 7.27101 9.7148C7.28771 9.75834 7.29596 9.77984 7.28857 9.79046C7.28136 9.80081 7.25927 9.80081 7.21564 9.80081C7.07027 9.80081 6.92504 9.80068 6.77985 9.80055C6.48961 9.80029 6.19954 9.80003 5.90894 9.80081C5.79465 9.80081 5.68271 9.81849 5.57667 9.86562Z" fill="#FFFEFE"/>
<path fill-rule="evenodd" clip-rule="evenodd" d="M18.8556 13.4711C18.8132 13.7834 18.6447 13.9966 18.3502 14.1097C18.2995 14.1298 18.2453 14.1404 18.1899 14.1427L18.1866 14.1428C18.1442 14.144 18.1028 14.1451 18.0603 14.1451H14.6492C14.6435 14.1451 14.6376 14.1445 14.6317 14.1438C14.6145 14.142 14.597 14.1402 14.5821 14.1533C14.5312 14.2643 14.4892 14.3787 14.4473 14.493C14.43 14.5401 14.4126 14.5873 14.3947 14.6341C14.1733 15.2155 13.9531 15.7978 13.733 16.3802C13.5936 16.749 13.4541 17.118 13.3143 17.4866C13.3113 17.4934 13.3092 17.5007 13.3072 17.5078C13.3061 17.5118 13.305 17.5158 13.3037 17.5196C13.2377 17.6934 13.1714 17.8669 13.1051 18.0404C13.0389 18.2139 12.9726 18.3874 12.9066 18.5612L12.772 18.9171C12.6822 19.1543 12.5924 19.3915 12.5036 19.6287C12.3823 19.9563 12.0795 20.1306 11.7778 20.1271C11.5363 20.1248 11.3325 20.0529 11.1687 19.8738C11.0811 19.7781 11.0363 19.6598 10.9914 19.5411L9.27758 15.0123C9.27268 14.9986 9.26615 14.9857 9.25934 14.9722L9.25519 14.964C9.20585 14.8904 9.17705 14.8079 9.14822 14.7253C9.13505 14.6875 9.12188 14.6498 9.10673 14.6129C9.07694 14.5411 9.05026 14.4681 9.02356 14.3951C9.00381 14.3411 8.98403 14.2871 8.96299 14.2335C8.93353 14.1604 8.93 14.1592 8.85105 14.1569C8.22474 14.1406 7.59843 14.1424 6.97241 14.1443C6.60327 14.1454 6.23423 14.1465 5.86535 14.1439C5.85945 14.1439 5.85355 14.1441 5.84766 14.1443C5.83006 14.145 5.81261 14.1457 5.79583 14.1404C5.38345 14.098 5.12541 13.761 5.12894 13.4004C5.13366 13.0175 5.39523 12.7111 5.79466 12.664C5.81051 12.6587 5.82636 12.6594 5.84271 12.66C5.84823 12.6603 5.85381 12.6605 5.85946 12.6605H18.1298C18.1351 12.6605 18.1404 12.6603 18.1458 12.66C18.1621 12.6594 18.1787 12.6587 18.1946 12.664C18.5622 12.7206 18.8167 12.9798 18.8568 13.338C18.8615 13.3851 18.8627 13.4287 18.8556 13.4711ZM11.6382 17.0622L10.562 14.2205C10.5337 14.1463 10.5337 14.1463 10.6126 14.1463H12.9208C12.9951 14.1463 12.9951 14.1463 12.9715 14.2104L12.9703 14.2134C12.7754 14.7288 12.5802 15.2444 12.3849 15.76C12.1896 16.2759 11.9942 16.7919 11.7991 17.3075C11.7939 17.3225 11.7877 17.3369 11.7797 17.3557C11.7751 17.3665 11.7698 17.3789 11.7638 17.3936C11.7205 17.2786 11.6789 17.1691 11.6382 17.0622Z" fill="#FFFEFE"/>
<defs>
<linearGradient id="paint0_linear" x1="24" y1="0" x2="0" y2="24" gradientUnits="userSpaceOnUse">
<stop stop-color="#F6CE75"/>
<stop offset="0.860346" stop-color="#FAC35F"/>
</linearGradient>
</defs>
</svg>
