<svg width="24" height="24" viewBox="0 0 24 24" fill="none" xmlns="http://www.w3.org/2000/svg">
<circle cx="12" cy="12" r="12" fill="#F0E7EA"/>
<path d="M18.9854 19.6624L18.8827 19.7712H18.5746C18.3209 19.5176 17.9451 19.5381 17.6565 19.3604C17.6922 19.3254 17.7335 19.2966 17.7787 19.2752C17.944 19.2279 18.2111 19.3235 18.2224 19.0554C18.2326 18.8408 17.9892 18.8151 17.8362 18.7165C17.5682 18.545 17.2416 18.6035 16.9797 18.4289C16.2135 17.9154 15.7308 17.1185 15.0284 16.5341C14.1174 15.7721 13.6697 14.6075 12.769 13.8321C12.5738 13.6647 12.6211 13.3915 12.4116 13.2498C11.59 12.687 11.1792 11.812 10.6996 10.9801C10.3737 10.3765 10.0022 9.79869 9.58835 9.25165C9.28025 8.86344 8.77804 8.55021 8.78523 7.95249C8.78499 7.91804 8.78809 7.88365 8.79448 7.84979L9.18166 7.79639C9.21247 7.89292 9.24944 7.98844 9.27306 8.086C9.41376 8.6755 9.99196 8.99695 10.1974 9.51456C10.4859 10.2602 11.0713 10.7942 11.3959 11.5347C11.7718 12.3861 12.5718 13.0577 13.1787 13.8136C13.5361 14.2603 14.1246 14.5325 14.1924 15.2072C14.2068 15.3407 14.3536 15.4866 14.5005 15.5954C15.2191 16.1223 15.8343 16.7772 16.3152 17.5272C16.5206 17.8446 16.7958 18.1609 17.2549 18.1342L17.7623 18.2482C18.0057 18.6097 18.3733 18.4146 18.6866 18.4413C19.3983 18.5008 19.655 18.1178 19.3942 17.4266C19.3942 17.2592 19.3942 17.0908 19.3942 16.9234C19.3748 16.7913 19.3624 16.6583 19.3572 16.5249C19.3644 15.9087 18.8036 15.4907 18.7862 14.8817C18.9012 14.8817 18.9392 14.9638 19.0019 15.0501C19.2904 15.4424 19.3325 15.9662 19.692 16.3174C19.692 16.3493 19.6992 16.3801 19.7033 16.4119V16.7046C19.5646 16.8186 19.6181 16.9747 19.6109 17.1154C19.5708 17.3311 19.6756 17.5262 19.7136 17.7316C19.7659 17.9668 19.5842 18.2451 19.8584 18.4392C19.9672 18.5655 19.9364 18.7114 19.921 18.8562C19.3254 18.811 19.1908 19.2731 18.9854 19.6624Z" fill="#C76575"/>
<path d="M8.79405 7.85409C8.78766 7.88795 8.78457 7.92234 8.7848 7.95679C8.76645 7.95985 8.7477 7.95985 8.72935 7.95679C8.02996 8.17554 7.31516 8.34705 6.64761 8.65721L5.83217 8.75991C5.79007 8.49905 5.61547 8.56067 5.44705 8.59867C4.96902 8.70791 4.47106 8.69378 4 8.55759V8.45489C4.27421 8.29776 4.36459 7.93009 4.69836 7.83869C4.78976 7.83869 4.87501 7.82636 4.91301 7.72469H4.90068C5.10608 7.76063 5.26937 7.67026 5.45834 7.57783C5.9472 7.33956 6.38265 6.96163 6.95982 6.92773C7.33365 7.3221 7.12106 7.40529 6.70923 7.44842C6.42783 7.47821 6.1567 7.60042 5.87839 7.67026C5.55694 7.75036 5.7685 8.06565 5.60726 8.22587C5.9852 8.05333 6.25427 7.69285 6.68664 7.68464C6.78934 7.95166 6.38778 7.89004 6.44735 8.14987C6.82323 8.1016 7.37165 8.08722 7.51748 7.91571C7.94472 7.40221 8.32471 7.48232 8.79199 7.73907L8.79405 7.85409Z" fill="#F3D66B"/>
<path d="M4 8.55762C4.47106 8.69381 4.96902 8.70794 5.44705 8.5987C5.61547 8.5607 5.79007 8.496 5.8332 8.75994C5.58364 8.83388 5.31354 8.86264 5.12149 9.06804L4.7302 9.14712L4.19 8.97561L4 8.86366V8.55762Z" fill="#E1BE61"/>
<path d="M8.72989 7.95557C8.74825 7.95863 8.76699 7.95863 8.78535 7.95557C8.77816 8.55328 9.27728 8.86652 9.58846 9.25472C10.0054 9.80112 10.38 10.3786 10.7089 10.9821C11.1865 11.813 11.5911 12.6942 12.4209 13.2518C12.6263 13.3935 12.5832 13.6626 12.7783 13.8341C13.679 14.6095 14.1268 15.7741 15.0377 16.5362C15.7361 17.1205 16.2188 17.9185 16.989 18.431C17.2509 18.6056 17.5775 18.547 17.8456 18.7186C17.9986 18.8213 18.242 18.8428 18.2317 19.0575C18.2204 19.3255 17.9534 19.23 17.788 19.2772C17.7428 19.2986 17.7015 19.3274 17.6658 19.3625C17.3937 19.3728 17.1215 19.4128 16.8504 19.343C16.7929 19.115 16.5731 19.0749 16.416 18.9578C15.9795 18.6323 15.389 18.5676 15.0182 18.1362C15.2668 18.1486 15.5102 18.1147 15.7495 18.2739C15.9887 18.433 16.0483 18.2461 16.0154 18.0397C15.9877 17.8631 15.8542 17.747 15.7299 17.6289C15.1055 17.0507 14.4893 16.4684 13.8259 15.9272C13.1224 15.3531 12.5349 14.6383 11.7945 14.0786C10.7089 13.257 10.1749 11.9937 9.39847 10.9257C9.01848 10.4039 8.80897 9.78363 8.33039 9.30299C8.09623 9.06781 7.71418 8.87679 7.66797 8.46496C8.03358 8.33042 8.42487 8.23183 8.72989 7.95557Z" fill="#B85867"/>
<path d="M15.013 18.1375C15.3869 18.5657 15.9743 18.6304 16.4108 18.9591C16.5679 19.0762 16.7877 19.1162 16.8452 19.3442C15.0603 18.4004 13.0607 17.9927 11.2429 17.1567C9.54322 16.3762 8.07768 15.2454 7.16468 13.4944C6.70047 12.6019 6.04422 11.8039 5.40645 11.0132C4.91535 10.3888 4.50635 9.70401 4.18945 8.97559L4.72966 9.14504C4.89161 9.55251 5.10194 9.93904 5.35613 10.2963C5.71455 10.7882 6.10687 11.2566 6.44167 11.7701C6.99214 12.6245 7.61759 13.4133 8.05509 14.3591C8.42173 15.1489 9.28133 15.5258 9.97456 16.0198C10.5548 16.4306 11.1166 16.8835 11.8334 17.0591C12.1476 17.1196 12.4567 17.2044 12.7577 17.3128C13.3873 17.5726 14.0251 17.8191 14.7029 17.929L15.013 18.1375Z" fill="#C25C5C"/>
<path d="M14.5179 5.49311L14.8167 5.78273L14.942 5.89467C15.9331 6.92167 16.6879 8.10786 17.3616 9.35464C17.3616 9.44912 17.3688 9.53847 17.4818 9.56826L17.4746 9.55799C17.4602 9.65555 17.4746 9.74079 17.5845 9.7716L17.5773 9.76133C17.5619 9.86403 17.5711 9.94517 17.6882 9.97495L17.68 9.96571C17.6338 10.2235 17.6235 10.4669 17.9244 10.5891C18.4541 11.7735 18.9113 12.9889 19.2934 14.2288C19.3602 14.4424 19.5327 14.6324 19.4988 14.8789C19.4988 14.9877 19.4896 15.0976 19.4844 15.2065C19.3006 15.1664 19.239 15.0319 19.1681 14.8686C19.0315 14.5544 18.9237 14.2196 18.6782 13.9618L18.6721 13.7646C18.6728 13.6313 18.657 13.4985 18.6248 13.3692C18.115 12.0427 17.5034 10.7575 16.7958 9.52512C16.5606 9.11432 16.4702 8.55461 15.9362 8.3492C15.9362 8.31634 15.9362 8.2845 15.931 8.25267C15.9546 7.56458 15.4802 7.15891 15.0447 6.74708C14.6688 6.39277 14.2621 6.05694 14.0177 5.59889C13.9082 5.35819 13.7518 5.14172 13.5576 4.96215C13.6028 4.8081 13.649 4.65405 13.6942 4.5H13.7322H13.7692L14.4008 5.40274L14.5179 5.49311Z" fill="#A7474E"/>
<path d="M6.95953 6.93074C6.38133 6.96361 5.94691 7.34154 5.45805 7.58083C5.26908 7.67326 5.1099 7.76364 4.90039 7.7277C4.99385 7.50484 5.20849 7.4083 5.39849 7.3169C6.46862 6.82907 7.42065 6.14509 8.41582 5.52786C9.75195 4.69907 11.2822 4.40842 12.7826 4.05308C13.0825 3.98222 13.5169 3.90827 13.6987 4.36118L13.6813 4.37659C13.5819 4.31162 13.468 4.27228 13.3497 4.26206C13.2314 4.25185 13.1125 4.27108 13.0034 4.31805C12.5926 4.49983 12.1315 4.55118 11.7464 4.80998C11.5554 4.93836 11.3089 5.04927 11.0778 4.9702C10.6095 4.80896 10.3589 5.08727 10.1145 5.39229C9.3812 5.80309 8.50106 5.86163 7.82119 6.4193C7.57265 6.62367 7.3272 6.89993 6.95953 6.93074Z" fill="#E1BE61"/>
<path d="M18.9854 19.6623C19.1908 19.2731 19.3263 18.8109 19.9097 18.8561C19.8665 19.4312 19.4044 19.5226 18.9854 19.6623Z" fill="#E27A85"/>
<path d="M19.6946 16.7066V16.4139L19.8918 16.4077C19.9754 16.622 20.0112 16.8518 19.9969 17.0814C19.9825 17.3109 19.9182 17.5345 19.8086 17.7367H19.6966C19.6638 17.5313 19.559 17.3402 19.5939 17.1205C19.8938 17.0403 19.8394 16.8832 19.6946 16.7066Z" fill="#B85867"/>
<path d="M19.8947 16.4081L19.6975 16.4142C19.6975 16.3824 19.6903 16.3516 19.6862 16.3197L19.5938 15.6008L19.6965 15.5957L19.8947 16.4081Z" fill="#9E4B57"/>
<path d="M17.9242 10.5887C17.6232 10.4665 17.6335 10.2231 17.6797 9.96533C17.8232 10.1432 17.9085 10.3608 17.9242 10.5887Z" fill="#903F4B"/>
<path d="M19.4824 15.2065C19.4824 15.0977 19.4927 14.9878 19.4968 14.8789L19.6878 15.4951H19.5851C19.4814 15.4232 19.4989 15.3102 19.4824 15.2065Z" fill="#9E4B57"/>
<path d="M19.7038 17.7319H19.8158C19.826 17.9661 19.837 18.2002 19.8486 18.4344C19.5703 18.2506 19.7521 17.9671 19.7038 17.7319Z" fill="#C25C5C"/>
<path d="M17.6879 9.97485C17.5708 9.94506 17.5616 9.8588 17.577 9.76123C17.6694 9.80334 17.6746 9.89166 17.6879 9.97485Z" fill="#903F4B"/>
<path d="M17.5838 9.77123C17.4688 9.74042 17.4596 9.65518 17.4739 9.55762C17.5674 9.59972 17.5705 9.68805 17.5838 9.77123Z" fill="#903F4B"/>
<path d="M4.91484 7.72774C4.87684 7.83044 4.7916 7.84071 4.7002 7.84173C4.71919 7.80237 4.75024 7.77009 4.78885 7.74958C4.82745 7.72908 4.87159 7.72143 4.91484 7.72774Z" fill="#E1BE61"/>
<path d="M17.4816 9.56811C17.3686 9.53833 17.3604 9.44898 17.3614 9.35449C17.3987 9.37613 17.4295 9.40735 17.4506 9.44491C17.4717 9.48248 17.4824 9.52502 17.4816 9.56811Z" fill="#903F4B"/>
<path d="M19.585 15.4937H19.6877C19.6877 15.5275 19.6969 15.5614 19.701 15.5964L19.5983 15.6015L19.585 15.4937Z" fill="#A7474E"/>
<path d="M14.9417 5.89466L14.8164 5.78271L14.9417 5.89466Z" fill="#903F4B"/>
<path d="M14.5175 5.49277L14.4004 5.4024C14.4723 5.39007 14.498 5.43629 14.5175 5.49277Z" fill="#903F4B"/>
<path d="M13.772 4.50172H13.735H13.697L13.6816 4.38259L13.6991 4.36719L13.772 4.50172Z" fill="#E1BE61"/>
<path d="M17.2571 18.1372C16.798 18.1639 16.5176 17.8476 16.3174 17.5302C15.8352 16.7798 15.2186 16.1249 14.4985 15.5984C14.3537 15.4896 14.2069 15.3437 14.1904 15.2102C14.1226 14.5365 13.5342 14.2633 13.1768 13.8166C12.5719 13.0576 11.7718 12.386 11.396 11.5346C11.0714 10.7941 10.486 10.2601 10.1954 9.51858C9.98999 9.00508 9.41384 8.67952 9.27109 8.09002C9.24747 7.98732 9.2105 7.89694 9.17969 7.80143L9.38509 7.69873C9.38509 7.90413 9.53811 8.03456 9.63157 8.19066C9.94891 8.71854 10.4408 9.12626 10.6853 9.70652C10.8434 10.0855 11.0416 10.4254 11.4432 10.6103C11.5839 10.675 11.627 10.8444 11.6486 11.0005C11.513 11.283 11.6178 11.4401 11.8756 11.6054C12.2627 11.8519 12.7044 12.0666 12.8194 12.5944C12.8389 12.6848 12.9745 12.7814 13.0761 12.8142C13.2877 12.883 13.374 13.0443 13.5034 13.2024C13.6513 13.3852 13.754 13.6944 14.0908 13.6523H14.2962C14.2253 14.1041 14.5591 14.4513 14.6187 14.8703C14.6259 14.9186 14.7214 14.9607 14.7758 14.9925C14.9473 15.0849 15.0398 15.2482 15.1579 15.3899C15.8963 16.2763 16.4519 17.3012 17.2571 18.1372Z" fill="#D16E7E"/>
<path d="M17.2568 18.1375C16.4516 17.3046 15.896 16.2797 15.1576 15.3954C15.0395 15.2537 14.9522 15.0873 14.7756 14.998C14.716 14.9661 14.6256 14.924 14.6184 14.8758C14.5589 14.4568 14.2251 14.1096 14.296 13.6577C14.3073 13.591 14.3432 13.4801 14.3915 13.5099C14.6328 13.6547 14.9214 13.7748 15.0303 14.0531C15.2835 14.6784 15.6455 15.2538 16.0994 15.7528C16.4804 16.1883 16.8059 16.6617 16.9579 17.244C17.0843 17.7329 17.8052 18.119 18.2171 17.9629C18.9801 17.6785 19.1568 17.3293 18.8969 16.6104C18.8343 16.4378 18.7542 16.2725 18.6813 16.1041C18.86 16.0876 18.9472 16.2499 19.0921 16.3095C19.2132 16.5046 19.0736 16.823 19.393 16.9257C19.393 17.0931 19.393 17.2615 19.393 17.4289C19.2482 18.1006 18.7357 18.2176 18.1606 18.2433C18.0271 18.2495 17.8935 18.2484 17.76 18.2505L17.2568 18.1375Z" fill="#E18391"/>
<path d="M19.3888 16.9237C19.0694 16.821 19.2091 16.5026 19.0879 16.3075C18.9382 15.6652 18.5808 15.0901 18.0712 14.6715C17.9993 14.538 17.9284 14.4045 17.8575 14.2709H18.2437C17.7939 14.0296 17.8278 13.6291 17.6768 13.3107C17.379 12.6945 17.0113 12.1029 16.6744 11.5001C16.5625 11.3009 16.4454 11.1088 16.2246 11.0092L16.24 10.9938C16.4372 10.9866 16.4454 10.85 16.4341 10.7042C16.4314 10.6761 16.4348 10.6479 16.444 10.6213C16.4533 10.5947 16.4682 10.5704 16.4877 10.5501C16.5072 10.5298 16.5309 10.514 16.5571 10.5037C16.5833 10.4934 16.6114 10.4889 16.6395 10.4906C16.8911 10.7658 16.8449 11.2413 17.2557 11.4149L17.2619 11.5176C17.2526 11.838 17.3707 12.0845 17.6727 12.2282C17.72 12.2451 17.763 12.2722 17.7986 12.3077C17.8341 12.3433 17.8613 12.3863 17.8781 12.4336C17.8679 12.5019 17.8696 12.5714 17.8832 12.639C18.1328 13.2953 18.4316 13.9351 18.5384 14.6407C18.5538 14.7434 18.6802 14.7732 18.786 14.7834L18.7931 14.8861C18.8106 15.4931 19.3713 15.9131 19.3642 16.5293C19.3654 16.6611 19.3737 16.7928 19.3888 16.9237Z" fill="#D16E7E"/>
<path d="M17.7637 18.2484C17.8972 18.2484 18.0307 18.2484 18.1642 18.2412C18.7362 18.2155 19.2487 18.0984 19.3966 17.4268C19.6575 18.1179 19.3966 18.501 18.689 18.4414C18.3747 18.4147 18.0071 18.6099 17.7637 18.2484Z" fill="#D16E7E"/>
<path d="M18.7793 14.8838C18.7793 14.8489 18.7793 14.8139 18.7721 14.7811C18.7834 14.5038 18.5277 14.2573 18.6745 13.9595C18.92 14.2173 19.0278 14.5521 19.1644 14.8663C19.2353 15.0296 19.2969 15.1641 19.4807 15.2042C19.493 15.3069 19.4807 15.4209 19.5834 15.4918L19.5927 15.5945L19.6851 16.3134C19.3256 15.9621 19.2835 15.4384 18.9949 15.046C18.9333 14.9659 18.8953 14.8879 18.7793 14.8838Z" fill="#C25C5C"/>
<path d="M9.39043 7.70414L9.18503 7.80684L8.79785 7.85922C8.79785 7.82225 8.79785 7.78425 8.79785 7.74728C8.86453 7.75106 8.93063 7.73307 8.9862 7.69602C9.04177 7.65898 9.0838 7.60488 9.10595 7.54188C9.29184 7.46588 9.47978 7.3981 9.66053 7.31285C10.0816 7.11464 10.4821 6.86816 10.9669 6.83838C10.9556 6.86816 10.9443 6.89692 10.932 6.9267L10.4185 7.19783L9.58043 7.6189L9.39043 7.70414Z" fill="#F3DD7B"/>
<path d="M19.6944 16.7065C19.8392 16.8832 19.8936 17.0403 19.602 17.1173C19.6091 16.9766 19.5557 16.8205 19.6944 16.7065Z" fill="#C25C5C"/>
<path d="M6.96019 6.93077C7.32785 6.89996 7.57639 6.62267 7.82184 6.41727C8.50172 5.86166 9.38186 5.80107 10.1151 5.39027C10.3005 5.39932 10.4863 5.38168 10.6666 5.33789C11.2448 5.16535 11.8302 5.01438 12.4125 4.85725C12.5152 4.8285 12.6446 4.71758 12.7206 4.8819C12.7679 4.99076 12.6518 5.06471 12.5799 5.12735C11.7902 5.80517 10.9973 6.47889 9.94773 6.7151C9.48456 6.8178 9.19597 7.0725 9.09635 7.5367C8.94743 7.5367 8.79955 7.5367 8.78825 7.7421C8.32096 7.48535 7.94097 7.40422 7.51374 7.91875C7.36996 8.09025 6.81949 8.10463 6.4436 8.1529C6.38404 7.89718 6.78457 7.95469 6.68289 7.68767C6.25053 7.69589 5.98145 8.05636 5.60352 8.2289C5.76475 8.06869 5.55319 7.7534 5.87464 7.67329C6.15296 7.60346 6.42409 7.48124 6.70549 7.45146C7.12142 7.40833 7.33401 7.32514 6.96019 6.93077ZM7.16559 7.52232C7.10805 7.54216 7.0545 7.57206 7.00743 7.61064C6.99993 7.62009 6.99559 7.63166 6.99503 7.64372C6.99446 7.65577 6.9977 7.66769 7.00429 7.6778C7.01088 7.68791 7.02048 7.69569 7.03173 7.70004C7.04298 7.70439 7.05532 7.70509 7.06699 7.70205C7.1393 7.67611 7.20826 7.64163 7.27239 7.59935L7.16559 7.52232Z" fill="#F3DD7B"/>
<path d="M8.72919 7.95557C8.42109 8.23183 8.03289 8.33042 7.66317 8.46907L6.66081 8.67139L6.64746 8.65598C7.31501 8.34583 8.02981 8.17534 8.72919 7.95557Z" fill="#F3DD7B"/>
<path d="M5.12012 9.06607C5.31217 8.86067 5.58227 8.83397 5.83183 8.75797L6.64624 8.65527L6.65959 8.66965C6.65664 8.69572 6.65149 8.72148 6.64419 8.74668L5.42822 9.08251L5.12012 9.06607Z" fill="#F3DD7B"/>
<path d="M5.12073 9.06592L5.42883 9.08235C5.40418 9.50137 5.66607 9.80639 5.83963 10.1484C6.58934 11.5923 7.88439 12.7046 8.36503 14.3108C8.39335 14.3721 8.43471 14.4264 8.48622 14.47C9.11577 15.1499 9.90348 15.6213 10.6676 16.1266C11.1811 16.4665 11.7973 16.5538 12.318 16.8455C12.9956 17.2085 13.7357 17.4405 14.4993 17.5294C14.5558 17.6712 14.7201 17.7595 14.7047 17.9402C14.0269 17.8262 13.3891 17.5798 12.7596 17.324C12.4585 17.2156 12.1495 17.1308 11.8353 17.0704C11.1164 16.8948 10.5567 16.4429 9.9764 16.031C9.28317 15.5371 8.42357 15.1601 8.05693 14.3704C7.6184 13.4132 6.99295 12.6265 6.44248 11.77C6.10768 11.2565 5.71536 10.7861 5.35694 10.2942C5.1029 9.93758 4.89257 9.55175 4.73047 9.145L5.12073 9.06592Z" fill="#A7474E"/>
<path d="M14.7034 17.9319C14.7198 17.7542 14.5555 17.6659 14.498 17.5211C14.1118 16.8956 13.9126 16.0833 12.9801 15.9806C12.8444 15.9657 12.7154 15.9138 12.6073 15.8306C11.6706 15.084 10.9065 14.1248 9.80046 13.5856C9.70023 13.5383 9.61192 13.4691 9.54206 13.383C9.4722 13.297 9.42257 13.1963 9.39685 13.0885C9.28798 12.6541 8.83508 12.3614 8.87718 11.8561C8.18807 11.699 8.31028 11.051 8.09255 10.5991C8.00526 10.4183 7.77316 10.3054 7.60165 10.1698C7.37776 9.99316 7.44965 9.62138 7.18366 9.49609C6.85194 9.34101 6.7174 9.07399 6.64551 8.7474C6.65281 8.72221 6.65796 8.69644 6.66091 8.67038L7.66327 8.47217C7.70743 8.88297 8.09153 9.07502 8.32568 9.3102C8.80427 9.79084 9.01377 10.4111 9.39377 10.9329C10.1702 12.0009 10.7042 13.2683 11.7898 14.0858C12.5302 14.6434 13.1177 15.3582 13.8212 15.9344C14.4846 16.4756 15.1008 17.0579 15.7252 17.6361C15.8495 17.7522 15.983 17.8682 16.0107 18.0469C16.0436 18.2523 15.9738 18.4331 15.7447 18.2811C15.5157 18.1291 15.2621 18.1558 15.0135 18.1434L14.7034 17.9319Z" fill="#9E4B57"/>
<path d="M9.09668 7.5388C9.19938 7.07254 9.48489 6.8199 9.94806 6.7172C10.9966 6.48098 11.7895 5.80727 12.5741 5.12945C12.646 5.0668 12.762 4.99286 12.7148 4.884C12.6439 4.71968 12.5156 4.83059 12.4067 4.85935C11.8244 5.01648 11.239 5.16745 10.6608 5.33998C10.4807 5.38585 10.295 5.40557 10.1093 5.39852C10.3578 5.09042 10.6043 4.81519 11.0726 4.97643C11.3037 5.05551 11.5502 4.94459 11.7412 4.81621C12.1263 4.55741 12.5854 4.50811 12.9983 4.32428C13.1073 4.27731 13.2263 4.25808 13.3445 4.26829C13.4628 4.27851 13.5767 4.31785 13.6761 4.38282L13.6915 4.50195C13.6463 4.656 13.6001 4.81005 13.5549 4.9641L13.3649 5.1808L13.0568 5.4889C12.8514 5.62241 12.5885 5.70765 12.5567 6.01062L12.2485 6.1277L10.9576 6.84044C10.4749 6.87022 10.0723 7.1167 9.65126 7.31491C9.47051 7.39502 9.28257 7.4628 9.09668 7.5388Z" fill="#F3D66B"/>
<path d="M13.0635 5.48486L13.3716 5.17676C13.8265 6.04149 14.4859 6.72445 15.2459 7.32422C15.3486 7.4033 15.4009 7.54297 15.4759 7.65491C15.6156 7.86032 15.6988 8.11296 15.9298 8.25058C15.9298 8.28241 15.9298 8.31425 15.935 8.34711C15.8559 9.03315 16.2431 9.53125 16.6344 10.018C16.964 10.435 17.2002 10.8787 17.2506 11.4127C16.8398 11.2422 16.8901 10.7667 16.6344 10.4884C16.6344 10.3713 16.5584 10.3282 16.4587 10.2748C15.9822 10.018 15.668 9.60725 15.6371 9.07423C15.6146 8.65419 15.4893 8.38614 15.1966 8.05545C14.4664 7.22563 13.6448 6.45127 13.0635 5.48486Z" fill="#C76575"/>
<path d="M17.2477 11.4147C17.1994 10.8807 16.9632 10.437 16.6315 10.0201C16.2454 9.53325 15.853 9.03516 15.9321 8.34912C16.4662 8.55452 16.5565 9.11526 16.7917 9.52504C17.4994 10.7574 18.1109 12.0426 18.6208 13.3691C18.6529 13.4984 18.6688 13.6313 18.6681 13.7645C18.4062 13.7101 18.4729 13.4472 18.3671 13.2941C18.1772 13.0199 18.2644 12.5835 17.8639 12.4335C17.8471 12.3862 17.8199 12.3431 17.7844 12.3076C17.7489 12.2721 17.7059 12.2449 17.6585 12.2281C17.5877 11.9529 17.6585 11.5965 17.2477 11.5174V11.4147Z" fill="#C25C5C"/>
<path d="M15.9284 8.25267C15.6983 8.11505 15.6141 7.86754 15.4744 7.66214C15.3995 7.5502 15.345 7.41052 15.2444 7.33144C14.4844 6.73167 13.8251 6.04872 13.3701 5.18398L13.5601 4.96729C13.7543 5.14686 13.9107 5.36332 14.0202 5.60403C14.2595 6.06207 14.6662 6.3979 15.0472 6.75221C15.4775 7.15891 15.952 7.56457 15.9284 8.25267Z" fill="#C25C5C"/>
<path d="M17.8659 12.4336C18.2664 12.5835 18.1791 13.02 18.3691 13.2942C18.4718 13.4472 18.4082 13.705 18.67 13.7646L18.6762 13.9618C18.5293 14.2555 18.7851 14.502 18.7738 14.7834C18.6711 14.7731 18.5417 14.7423 18.5263 14.6406C18.4236 13.9351 18.1206 13.2952 17.871 12.639C17.8575 12.5713 17.8557 12.5018 17.8659 12.4336Z" fill="#C76575"/>
<path d="M12.2605 6.12147L12.5686 6.00439C12.7083 6.09682 12.9424 6.16666 12.9702 6.28579C13.0893 6.79108 13.458 7.03448 13.7969 7.37339C14.1358 7.7123 14.677 7.98959 14.6534 8.60579C14.6534 8.6592 14.7633 8.72595 14.8321 8.76908C15.1813 8.98681 15.2522 9.31956 15.2152 9.69339C15.1556 10.3096 15.8314 10.8621 16.4394 10.706C16.4476 10.8518 16.4394 10.9884 16.2453 10.9956L16.1929 10.9802L16.2299 11.011C16.4507 11.1137 16.5677 11.3027 16.6797 11.5019C17.0165 12.1048 17.3842 12.6922 17.682 13.3125C17.833 13.6278 17.7991 14.0314 18.2489 14.2697H17.8556C17.6235 14.9455 17.7344 15.2967 18.2664 15.5894C18.4338 15.7332 18.3927 16.0423 18.671 16.1029C18.744 16.2713 18.8241 16.4367 18.8867 16.6092C19.1465 17.3281 18.9699 17.6773 18.2068 17.9618C17.796 18.1158 17.0771 17.7297 16.9477 17.2429C16.7957 16.6606 16.4702 16.1871 16.0892 15.7517C15.6387 15.2513 15.2802 14.6751 15.0303 14.0499C14.9215 13.7716 14.6329 13.6515 14.3915 13.5066C14.3433 13.4769 14.3073 13.5878 14.296 13.6545H14.0906C14.1081 13.0917 13.7825 12.6357 13.6346 12.1305C13.4292 11.427 12.9671 10.8981 12.5049 10.4688C11.7306 9.74987 11.2592 8.89335 10.8617 7.97932C10.7344 7.68868 10.3092 7.58803 10.4057 7.19161L10.9192 6.92048C11.1041 7.03961 11.3711 7.17723 11.3054 7.39906C11.2243 7.67122 11.3783 7.80986 11.4656 8.00089C11.671 8.43942 11.6556 9.00119 12.1845 9.25691C12.1913 9.26305 12.1968 9.27048 12.2007 9.27877C12.2045 9.28706 12.2067 9.29604 12.2071 9.30518C12.3098 9.81868 12.6251 10.1371 13.0759 10.3692C13.2166 10.4421 13.4046 10.5057 13.458 10.6875C13.6521 11.352 14.2139 11.8285 14.3823 12.5105C14.4367 12.7364 14.4922 12.9664 14.6575 13.1564C15.1525 13.7244 15.6075 14.3108 15.8807 15.0359C15.9553 15.212 16.085 15.3593 16.2503 15.4555C16.4157 15.5518 16.6077 15.5919 16.7978 15.5699C17.1778 15.5298 17.2261 15.1591 17.2692 14.8222C17.3 14.5727 17.3863 14.3303 17.4356 14.0828C17.4777 13.8774 17.492 13.672 17.2528 13.559C17.262 13.2068 17.2199 12.8966 16.7454 12.9428C16.6746 12.7374 16.9087 12.4355 16.54 12.3266L16.4373 12.2239C16.4373 12.0288 16.2905 11.9374 16.158 11.8265C15.8016 11.5327 15.3723 11.3746 14.98 11.1538C14.5538 10.9124 14.4059 10.59 14.5425 10.1432C14.6082 9.9296 14.6452 9.69955 14.486 9.57015C14.0814 9.24253 14.03 8.7773 13.8862 8.33261C13.7835 8.01835 13.5894 7.73079 13.4118 7.44733C13.3296 7.31382 13.1899 7.29739 13.0759 7.44733H12.7678C12.6282 6.98929 12.2738 6.62265 12.2605 6.12147ZM17.909 17.5274C18.3691 17.5582 18.4913 17.2295 18.5653 16.9019C18.6135 16.6852 17.9224 16.0156 17.6831 16.032C17.4068 16.0516 17.263 16.2374 17.2723 16.5075C17.3123 17.3415 17.4448 17.5325 17.909 17.5294V17.5274Z" fill="#EE929F"/>
<path d="M10.4046 7.19482C10.3081 7.59125 10.7333 7.69189 10.8606 7.98253C11.2612 8.89657 11.7326 9.75822 12.5038 10.472C12.967 10.8982 13.4281 11.4302 13.6335 12.1337C13.7825 12.639 14.107 13.095 14.0895 13.6577C13.7527 13.6999 13.65 13.3907 13.5021 13.2079C13.3727 13.0498 13.2864 12.8885 13.0748 12.8197C12.9721 12.7869 12.8376 12.6903 12.8181 12.5999C12.7031 12.0721 12.2615 11.8574 11.8743 11.6109C11.6165 11.4456 11.5118 11.2885 11.6473 11.006C12.0437 10.9126 11.9811 10.7123 11.7192 10.549C11.4461 10.3769 11.2313 10.1263 11.103 9.83011C10.7138 9.00851 10.0945 8.33685 9.5625 7.61076L10.4046 7.19482Z" fill="#E18391"/>
<path d="M9.56616 7.61572C10.1002 8.34181 10.7195 9.00936 11.1067 9.83507C11.235 10.1313 11.4498 10.3818 11.7229 10.554C11.9848 10.7173 12.0474 10.9175 11.651 11.011C11.6325 10.8549 11.5894 10.6854 11.4456 10.6207C11.044 10.4359 10.8458 10.0959 10.6876 9.71697C10.4463 9.13158 9.95437 8.72386 9.63908 8.19598C9.54562 8.03987 9.39054 7.90945 9.3926 7.70404L9.56616 7.61572Z" fill="#E27A85"/>
<path d="M18.0709 14.6714C18.5805 15.09 18.9379 15.6651 19.0876 16.3074C18.9469 16.2489 18.8596 16.0866 18.6768 16.102C18.6963 15.8103 18.6563 15.5649 18.2722 15.5885C18.3009 15.2619 17.9908 15.0103 18.0709 14.6714Z" fill="#E27A85"/>
<path d="M16.4342 10.7072C15.818 10.8633 15.1505 10.3057 15.2101 9.6946C15.247 9.32077 15.1762 8.98802 14.827 8.77029C14.7582 8.72716 14.6462 8.6604 14.6483 8.607C14.6719 7.9908 14.1173 7.70118 13.7918 7.3746C13.4662 7.04801 13.0842 6.79229 12.965 6.287C12.9373 6.16787 12.7031 6.09803 12.5635 6.0056C12.5953 5.70264 12.8551 5.6174 13.0636 5.48389C13.6439 6.4503 14.4634 7.22979 15.2008 8.05961C15.4935 8.3903 15.6188 8.65835 15.6414 9.07839C15.6691 9.61141 15.9834 10.0222 16.463 10.279C16.5657 10.3324 16.6345 10.3755 16.6386 10.4926C16.6105 10.4911 16.5824 10.4957 16.5562 10.5061C16.5301 10.5165 16.5065 10.5325 16.4871 10.5529C16.4676 10.5733 16.4529 10.5976 16.4438 10.6243C16.4346 10.6509 16.4314 10.6792 16.4342 10.7072Z" fill="#E27A85"/>
<path d="M18.0708 14.6713C17.9907 15.0102 18.3008 15.2628 18.2762 15.5956C17.7391 15.3008 17.6282 14.9516 17.8654 14.2759C17.928 14.4043 17.9989 14.5429 18.0708 14.6713Z" fill="#E18391"/>
<path d="M17.2534 11.5161C17.6642 11.5952 17.5913 11.9516 17.6642 12.2268C17.3623 12.083 17.2442 11.8365 17.2534 11.5161Z" fill="#C76575"/>
<path d="M8.79199 7.74202C8.80021 7.53662 8.9481 7.53662 9.10009 7.53662C9.07794 7.59963 9.03591 7.65372 8.98034 7.69077C8.92477 7.72782 8.85867 7.7458 8.79199 7.74202Z" fill="#F3D66B"/>
<path d="M7.16594 7.52246L7.26864 7.60257C7.20451 7.64485 7.13555 7.67933 7.06324 7.70527C7.05157 7.70831 7.03923 7.70761 7.02798 7.70326C7.01673 7.69891 7.00713 7.69113 7.00054 7.68102C6.99395 7.67091 6.99071 7.65899 6.99127 7.64694C6.99184 7.63488 6.99617 7.62331 7.00368 7.61386C7.05174 7.57376 7.10673 7.54278 7.16594 7.52246Z" fill="#F3D66B"/>
<path d="M6.64594 8.74756C6.71783 9.07415 6.85134 9.34117 7.18409 9.49624C7.45008 9.62154 7.37819 9.99331 7.60208 10.17C7.77359 10.3055 8.00569 10.4185 8.09298 10.5992C8.31071 11.0491 8.18849 11.6992 8.87761 11.8583C8.83551 12.3606 9.28841 12.6532 9.39728 13.0908C9.423 13.1986 9.47263 13.2992 9.54249 13.3852C9.61235 13.4713 9.70066 13.5405 9.80089 13.5878C10.907 14.127 11.6711 15.0862 12.6077 15.8328C12.7161 15.9153 12.845 15.9665 12.9805 15.9807C13.913 16.0834 14.1102 16.8968 14.5005 17.5284C13.7365 17.4397 12.9961 17.2076 12.3181 16.8444C11.7964 16.5538 11.1802 16.4665 10.6667 16.1266C9.90256 15.6213 9.11485 15.1499 8.4853 14.47C8.43379 14.4264 8.39243 14.3721 8.36411 14.3108C7.8845 12.7046 6.58945 11.5924 5.83974 10.1484C5.66207 9.8064 5.40018 9.50138 5.42894 9.08236L6.64594 8.74756Z" fill="#903F4B"/>
<path fill-rule="evenodd" clip-rule="evenodd" d="M13.5876 8.2256C13.3973 7.9767 13.2257 7.7141 13.0741 7.43994L12.768 7.4461C12.7188 7.7232 12.5695 7.64795 12.4046 7.5648C12.4008 7.5629 12.397 7.56099 12.3932 7.55907C12.3871 7.556 12.381 7.55291 12.3748 7.54982C12.2118 7.46744 12.0522 7.38683 11.8879 7.55907C11.8055 7.64489 11.7523 7.75455 11.7359 7.87239C11.7195 7.99024 11.7407 8.11025 11.7965 8.21533C12.1046 8.8798 12.6037 9.39638 13.1398 9.86983C13.3462 10.0526 13.7745 10.1348 13.8505 9.80821C13.9717 9.28033 13.9193 8.69494 13.5876 8.2256ZM17.229 13.7088C17.2367 13.6571 17.2444 13.6053 17.2529 13.5537C17.2621 13.2014 17.22 12.8913 16.7476 12.9457C16.4992 12.8773 16.5212 12.7177 16.5431 12.558C16.5541 12.478 16.5651 12.398 16.5422 12.3295L16.4395 12.2268C16.3381 12.2292 16.2649 12.1785 16.1879 12.1251C16.1675 12.1109 16.1468 12.0966 16.1252 12.083C15.8223 11.8838 15.471 11.8047 15.1845 12.0337C14.896 12.2651 14.9976 12.5838 15.0958 12.8917C15.1036 12.9159 15.1113 12.9401 15.1188 12.9642C15.2318 13.3163 15.4293 13.6222 15.6272 13.9287C15.7744 14.1567 15.9218 14.3851 16.0348 14.6331C16.1673 14.9257 16.4456 14.9504 16.7537 14.7275C17.1171 14.4609 17.1726 14.0877 17.229 13.7088Z" fill="#F0ABB5"/>
<path fill-rule="evenodd" clip-rule="evenodd" d="M17.4354 14.0778C17.4775 13.8713 17.4919 13.6659 17.2526 13.554C17.2443 13.6047 17.2367 13.6555 17.2291 13.7062C17.1725 14.0861 17.1168 14.46 16.7453 14.7227C16.4433 14.9456 16.1599 14.9209 16.0264 14.6282C15.9125 14.3784 15.7652 14.1488 15.6179 13.9193C15.4226 13.6149 15.2274 13.3107 15.1103 12.9594C15.1054 12.9443 15.1004 12.9292 15.0954 12.9141C14.9911 12.5978 14.882 12.2671 15.176 12.0289C15.4626 11.7999 15.8087 11.879 16.1168 12.0782C16.1346 12.0898 16.152 12.1018 16.1693 12.1138C16.2486 12.1687 16.3256 12.222 16.431 12.222C16.4273 12.0502 16.3127 11.9564 16.1937 11.8592C16.1797 11.8477 16.1656 11.8362 16.1517 11.8245C15.9115 11.6228 15.6344 11.4851 15.3577 11.3476C15.2273 11.2828 15.0969 11.2181 14.9706 11.1467C14.5444 10.9054 14.3965 10.5829 14.5331 10.1361C14.5988 9.92252 14.6348 9.69247 14.4766 9.56307C14.1531 9.3011 14.0554 8.95115 13.9558 8.59407C13.9308 8.50458 13.9057 8.41464 13.8769 8.32553C13.7887 8.05017 13.6272 7.7953 13.469 7.54574C13.4467 7.51049 13.4244 7.47534 13.4024 7.44025C13.3202 7.31188 13.1806 7.29545 13.0666 7.44025C13.2182 7.71441 13.3898 7.97701 13.5801 8.22591C13.9118 8.69525 13.9642 9.28064 13.8419 9.80852C13.7659 10.1351 13.3367 10.0529 13.1313 9.87014C12.6003 9.39669 12.0971 8.88011 11.7962 8.21564C11.7382 8.10954 11.7157 7.98762 11.7322 7.86783C11.7486 7.74803 11.8031 7.63668 11.8876 7.55014C12.0504 7.38334 12.2199 7.46589 12.3717 7.53987C12.3788 7.54332 12.3858 7.54675 12.3928 7.55014C12.3992 7.55321 12.4055 7.5563 12.4119 7.5594C12.5633 7.63315 12.7194 7.7092 12.7677 7.43717C12.7138 7.26344 12.6278 7.10212 12.5418 6.94078C12.4052 6.68438 12.2686 6.42794 12.2604 6.12158L10.9509 6.8374C10.9396 6.86719 10.9283 6.89594 10.916 6.92572C10.9369 6.93947 10.9589 6.95345 10.9815 6.96779C11.1548 7.07773 11.3603 7.20806 11.3022 7.40431C11.24 7.61298 11.316 7.74437 11.3942 7.87949C11.418 7.9206 11.442 7.96205 11.4624 8.00613C11.5218 8.13189 11.5631 8.26866 11.6044 8.40574C11.7057 8.74219 11.8077 9.08046 12.1813 9.26216C12.195 9.27279 12.2041 9.28819 12.207 9.30529C12.3097 9.8116 12.6291 10.1351 13.0768 10.3672C13.0978 10.3781 13.1198 10.3888 13.1423 10.3996C13.2706 10.4617 13.4134 10.5309 13.4589 10.6856C13.5533 11.0037 13.7313 11.2787 13.9093 11.5539C14.1031 11.8534 14.297 12.1531 14.3832 12.5085C14.4376 12.7345 14.4931 12.9645 14.6584 13.1545C15.1534 13.7224 15.6084 14.3088 15.8816 15.0339C15.9567 15.2093 16.0864 15.3558 16.2515 15.4514C16.4166 15.5471 16.6081 15.5869 16.7977 15.5649C17.1776 15.5248 17.2259 15.1511 17.269 14.8173L17.2691 14.8172C17.2875 14.6676 17.3259 14.5206 17.3643 14.3735C17.39 14.2752 17.4157 14.1769 17.4354 14.0778ZM17.2753 16.5097C17.3122 17.3416 17.4396 17.5295 17.9089 17.5295C18.369 17.5604 18.4912 17.2317 18.5683 16.9041C18.6165 16.6874 17.9254 16.0178 17.6861 16.0342C17.4067 16.0537 17.2629 16.2366 17.2753 16.5097Z" fill="#F3A0AA"/>
<path d="M16.7455 12.9409C16.3737 12.8382 16.6099 12.5301 16.5401 12.3247C16.9088 12.4336 16.6746 12.7376 16.7455 12.9409Z" fill="#F3A0AA"/>
<path d="M18.2754 15.5926C18.6595 15.5639 18.6995 15.8093 18.68 16.1061C18.4017 16.0455 18.4428 15.7364 18.2754 15.5926Z" fill="#E18391"/>
<path d="M16.2245 11.0123L16.1875 10.9814L16.2399 10.9969L16.2245 11.0123Z" fill="#D16E7E"/>
</svg>
