<svg width="24" height="24" viewBox="0 0 24 24" fill="none" xmlns="http://www.w3.org/2000/svg">
<circle cx="12" cy="12" r="12" fill="#006AE3"/>
<path d="M17.0403 10.4018L13.6828 11.2922L12.934 7.80742L13.9324 7.58182L14.326 9.23302C14.326 9.23302 15.2332 7.74502 14.0236 6.20422C13.3301 5.43373 12.991 5.381 12.2373 5.2638L12.1732 5.25382C11.47 5.15302 9.83555 5.39062 9.34835 7.29862C9.14195 8.52742 9.37475 9.43702 10.9588 10.6274L10.87 11.9522C10.87 11.9522 9.10115 10.7066 8.64515 9.83302C8.29235 9.14182 7.68755 7.77622 8.77955 5.87542C9.36755 4.92502 10.5268 4.01302 12.5692 4.10902C13.5964 4.15222 16.1044 5.40742 15.7156 8.34022C15.6484 8.88982 15.3628 9.62182 15.3628 9.62182L16.7404 9.31462L17.0403 10.4018Z" fill="white"/>
<path d="M11.506 17.0594V7.07542H12.5932V17.0594H11.506Z" fill="white"/>
<path d="M11.2876 19.8794C13.3252 20.0282 14.5084 19.1474 15.1228 18.2138C16.2628 16.3442 15.694 14.9618 15.3628 14.2586C14.9308 13.373 13.1956 12.0818 13.1956 12.0818L13.0708 13.4042C14.6212 14.6378 14.83 15.5546 14.5924 16.7762C14.0548 18.6698 12.4132 18.8666 11.7148 18.7466C11.6916 18.7424 11.6687 18.7382 11.6463 18.7341C10.8958 18.5972 10.5595 18.5359 9.88838 17.7482C8.72198 16.1738 9.66757 14.7122 9.66757 14.7122L10.018 16.3754L11.0236 16.1762L10.366 12.6722L6.98438 13.4738L7.25557 14.5658L8.64038 14.297C8.64038 14.297 8.33558 15.0194 8.25397 15.5666C7.78837 18.4874 10.2604 19.8098 11.2876 19.8794Z" fill="white"/>
</svg>
