<svg width="24" height="24" viewBox="0 0 24 24" fill="none" xmlns="http://www.w3.org/2000/svg">
<g clip-path="url(#clip0_2625_7021)">
<path d="M12 24C18.6274 24 24 18.6274 24 12C24 5.37259 18.6274 0 12 0C5.37259 0 0 5.37259 0 12C0 18.6274 5.37259 24 12 24Z" fill="#17438C"/>
<path d="M7.06635 9.04016C8.17216 9.04016 9.0686 8.14372 9.0686 7.0379C9.0686 5.93209 8.17216 5.03564 7.06635 5.03564C5.96053 5.03564 5.06409 5.93209 5.06409 7.0379C5.06409 8.14372 5.96053 9.04016 7.06635 9.04016Z" fill="#3682FF"/>
<path d="M7.06635 18.9648C8.17216 18.9648 9.0686 18.0684 9.0686 16.9626C9.0686 15.8568 8.17216 14.9603 7.06635 14.9603C5.96053 14.9603 5.06409 15.8568 5.06409 16.9626C5.06409 18.0684 5.96053 18.9648 7.06635 18.9648Z" fill="#3682FF"/>
<path d="M18.9358 16.9626C18.9358 18.0684 18.0393 18.9648 16.9335 18.9648C15.8277 18.9648 14.9313 18.0684 14.9313 16.9626C14.9313 15.8568 15.8277 14.9603 16.9335 14.9603C18.0393 14.9603 18.9358 15.8568 18.9358 16.9626Z" fill="#3682FF"/>
<path d="M16.9335 9.04016C18.0393 9.04016 18.9358 8.14372 18.9358 7.0379C18.9358 5.93209 18.0393 5.03564 16.9335 5.03564C15.8277 5.03564 14.9313 5.93209 14.9313 7.0379C14.9313 8.14372 15.8277 9.04016 16.9335 9.04016Z" fill="#3682FF"/>
<path d="M14.0023 7.0379C14.0023 8.14372 13.1058 9.04016 12 9.04016C10.8942 9.04016 9.99777 8.14372 9.99777 7.0379C9.99777 5.93209 10.8942 5.03564 12 5.03564C13.1058 5.03564 14.0023 5.93209 14.0023 7.0379Z" fill="#FFBF60"/>
<path d="M7.06635 14.0023C7.96315 14.0023 8.72224 13.4127 8.97716 12.6H10.0892C10.3441 13.4127 11.1032 14.0023 12 14.0023C12.8968 14.0023 13.6559 13.4127 13.9108 12.6H15.0227C15.2776 13.4127 16.0367 14.0023 16.9335 14.0023C18.0393 14.0023 18.9358 13.1059 18.9358 12.0001C18.9358 10.8942 18.0393 9.9978 16.9335 9.9978C16.0368 9.9978 15.2777 10.5874 15.0227 11.4H13.9108C13.6559 10.5874 12.8968 9.9978 12 9.9978C11.1033 9.9978 10.3442 10.5874 10.0892 11.4H8.97714C8.7222 10.5874 7.96312 9.9978 7.06635 9.9978C5.96053 9.9978 5.06409 10.8942 5.06409 12.0001C5.06409 13.1059 5.96053 14.0023 7.06635 14.0023Z" fill="#FFBF60"/>
<path d="M14.0023 16.9626C14.0023 18.0684 13.1058 18.9648 12 18.9648C10.8942 18.9648 9.99777 18.0684 9.99777 16.9626C9.99777 15.8568 10.8942 14.9603 12 14.9603C13.1058 14.9603 14.0023 15.8568 14.0023 16.9626Z" fill="#FFBF60"/>
</g>
<defs>
<clipPath id="clip0_2625_7021">
<rect width="24" height="24" fill="white"/>
</clipPath>
</defs>
</svg>
