<svg width="24" height="24" viewBox="0 0 24 24" fill="none" xmlns="http://www.w3.org/2000/svg">
<circle cx="12" cy="12" r="12" fill="url(#paint0_linear)"/>
<path d="M11.3259 14.5608H15.9025V16.8492H13.2022V18.7853H10.8538V16.9091H8.03751C8.03751 16.145 7.92151 15.3849 8.0975 14.6809C8.15749 14.3288 8.56558 13.9767 8.86155 13.6248C9.74169 12.5686 10.6218 11.5125 11.562 10.4564C11.9139 10.0443 12.266 9.69225 12.6781 9.22426H8.27755V6.93592H10.8578V5H13.1462V6.87568H15.9625C15.9625 7.63973 16.0785 8.39988 15.9025 9.10394C15.8425 9.45601 15.4344 9.808 15.1384 10.1601C14.2583 11.2162 13.3782 12.2723 12.438 13.3285C12.0859 13.7408 11.734 14.1488 11.3259 14.5608Z" fill="black"/>
<defs>
<linearGradient id="paint0_linear" x1="3.76063" y1="20.2287" x2="20.3263" y2="3.66307" gradientUnits="userSpaceOnUse">
<stop stop-color="#CF8724"/>
<stop offset="1" stop-color="#FDCE58"/>
</linearGradient>
</defs>
</svg>
