<svg width="24" height="24" viewBox="0 0 24 24" fill="none" xmlns="http://www.w3.org/2000/svg">
<circle cx="12" cy="12" r="12" fill="#041742"/>
<path d="M14.4775 11.7272C15.3353 11.7255 16.1908 11.8183 17.0283 12.0038C17.0287 11.3151 16.8876 10.6337 16.6136 10.0019C16.3397 9.37005 15.9387 8.80127 15.4358 8.33086C14.9328 7.86045 14.3385 7.49845 13.6897 7.26734C13.041 7.03622 12.3517 6.94093 11.6646 6.98737C10.9775 7.03381 10.3072 7.221 9.69548 7.5373C9.08374 7.85361 8.54355 8.29229 8.10844 8.8261C7.67333 9.35992 7.3526 9.97747 7.16615 10.6404C6.9797 11.3034 6.93151 11.9976 7.02458 12.68C6.33342 13.1943 5.69972 13.7816 5.13447 14.4318C4.86256 13.6563 4.72232 12.8409 4.71957 12.0192C4.71897 11.0645 4.90656 10.1191 5.27162 9.23694C5.63668 8.35482 6.17205 7.5533 6.84711 6.87824C7.52217 6.20318 8.32368 5.66781 9.2058 5.30275C10.0879 4.93769 11.0334 4.7501 11.988 4.75071C13.1261 4.74569 14.2488 5.01449 15.2612 5.53441L17.7967 3.89017C16.1182 2.65531 14.0872 1.99268 12.0034 2.00006C10.1529 1.99956 8.33853 2.5125 6.7622 3.48183C5.18587 4.45115 3.9094 5.83884 3.07482 7.49047C2.24024 9.1421 1.8803 10.9929 2.03502 12.8369C2.18975 14.681 2.8531 16.4459 3.95123 17.9354C4.4207 17.0844 4.99362 16.2947 5.65694 15.5843C5.65694 15.5843 6.64041 14.5547 7.39339 14.0322C9.44864 12.5283 11.9308 11.7207 14.4775 11.7272Z" fill="white"/>
<path d="M20.1168 6.18604L18.4848 8.72001C19.1769 10.0874 19.4195 11.6384 19.178 13.1517C18.9365 14.6651 18.2231 16.0636 17.1398 17.1476C16.0565 18.2316 14.6585 18.9458 13.1453 19.1883C11.632 19.4307 10.0809 19.1891 8.7131 18.4979L6.18066 20.1329C8.10525 21.5166 10.4592 22.1707 12.8217 21.9784C15.1843 21.7861 17.4014 20.7598 19.0769 19.0831C20.7523 17.4063 21.7769 15.1884 21.9674 12.8257C22.1579 10.463 21.5019 8.10956 20.1168 6.18604Z" fill="url(#paint0_radial)"/>
<path d="M11.9938 17.0104C13.1657 17.0105 14.3007 16.6007 15.2021 15.8519C16.1036 15.1031 16.7147 14.0625 16.9296 12.9105C15.3642 12.5722 13.7454 12.5651 12.1772 12.8895C10.6089 13.214 9.12585 13.8628 7.82324 14.7945C8.28302 15.4779 8.90402 16.0375 9.63139 16.424C10.3588 16.8105 11.1701 17.0119 11.9938 17.0104Z" fill="url(#paint1_radial)"/>
<defs>
<radialGradient id="paint0_radial" cx="0" cy="0" r="1" gradientUnits="userSpaceOnUse" gradientTransform="translate(20.1214 6.17528) scale(16.8189)">
<stop offset="0.1" stop-color="#08DC8A"/>
<stop offset="0.26" stop-color="#07D397"/>
<stop offset="0.54" stop-color="#04BCB8"/>
<stop offset="0.89" stop-color="#009BE7"/>
</radialGradient>
<radialGradient id="paint1_radial" cx="0" cy="0" r="1" gradientUnits="userSpaceOnUse" gradientTransform="translate(20.1213 6.17528) scale(16.8189)">
<stop offset="0.1" stop-color="#08DC8A"/>
<stop offset="0.26" stop-color="#07D397"/>
<stop offset="0.54" stop-color="#04BCB8"/>
<stop offset="0.89" stop-color="#009BE7"/>
</radialGradient>
</defs>
</svg>
