<svg width="24" height="24" viewBox="0 0 24 24" fill="none" xmlns="http://www.w3.org/2000/svg">
<circle cx="12" cy="12" r="12" fill="black"/>
<path d="M16.7314 3.41069C16.0217 3.92008 15.3119 4.42947 14.6022 4.91671C13.6467 5.59325 12.6912 6.28339 11.7463 6.96582C11.4849 7.15465 11.2243 7.34289 10.9647 7.53009C10.8094 7.64083 10.6985 7.66298 10.5655 7.50794C10.3659 7.29756 10.1607 7.09824 9.95555 6.89893C9.7504 6.69961 9.54519 6.50024 9.34558 6.28984C9.23468 6.17911 9.12378 6.15696 8.96852 6.2234C8.01479 6.71064 7.26068 7.39721 6.63965 8.26095C6.59529 8.30525 6.55093 8.37169 6.50657 8.43813C6.35974 8.2457 6.21671 8.06085 6.07591 7.87888C5.87639 7.62104 5.68135 7.36897 5.48631 7.10929C5.2817 6.84114 5.08447 6.57299 4.89036 6.30909C4.7478 6.11526 4.60692 5.92372 4.46604 5.73616C4.35514 5.58113 4.33296 5.47039 4.48822 5.31536C6.19606 3.43284 8.30313 2.32547 10.8316 2.05971C12.8278 1.83823 14.7352 2.23689 16.5096 3.18922C16.5429 3.21136 16.5762 3.22797 16.6094 3.24458C16.6427 3.26119 16.676 3.27781 16.7092 3.29996C16.7092 3.3664 16.7092 3.38855 16.7314 3.41069Z" fill="#F2F2F2"/>
<path d="M7.92207 17.5689C8.09682 17.4374 8.27559 17.3029 8.45839 17.1642C8.41125 17.1328 8.36968 17.1042 8.33072 17.0774C8.25968 17.0285 8.19731 16.9856 8.1257 16.9427C7.32723 16.3447 6.68402 15.6138 6.21824 14.728C6.12952 14.5729 6.1517 14.4622 6.28478 14.3293C6.75054 13.8864 7.19412 13.4213 7.6377 12.9562C7.67018 12.9238 7.6908 12.8913 7.71691 12.8502C7.72646 12.8352 7.73676 12.8189 7.74864 12.8011C7.0167 11.8377 6.27922 10.8743 5.54174 9.91089C4.80427 8.94749 4.0668 7.98409 3.33488 7.02069C3.32191 7.02717 3.31083 7.03175 3.30165 7.03555C3.27947 7.04472 3.26834 7.04932 3.26834 7.06499C3.25725 7.08713 3.24062 7.11481 3.22398 7.1425C3.20735 7.17018 3.19071 7.19787 3.17962 7.22002C2.11499 9.23542 1.76012 11.3616 2.15935 13.5984C2.55859 15.8132 3.62321 17.6735 5.30887 19.1796C5.48631 19.3346 5.59721 19.3346 5.75247 19.2017C5.941 19.0577 6.12954 18.9193 6.31807 18.7809C6.50659 18.6425 6.69511 18.5041 6.88363 18.3601C7.2253 18.0931 7.56707 17.836 7.92207 17.5689Z" fill="#F2F2F2"/>
<path d="M19.3486 18.1165C18.6167 17.142 17.8847 16.1675 17.175 15.2152C17.1417 15.2374 17.1195 15.2484 17.1085 15.254C17.1028 15.2568 17.1 15.2582 17.1001 15.2589C17.1002 15.2592 17.1011 15.2594 17.1027 15.2594C17.104 15.2595 17.106 15.2595 17.1085 15.2595C17.0974 15.2817 17.0807 15.3038 17.0641 15.3259C17.0475 15.3481 17.0308 15.3702 17.0197 15.3924C16.4874 16.1675 15.7999 16.8098 14.9792 17.2749C14.9192 17.3082 14.867 17.3379 14.8211 17.3641C14.6408 17.4667 14.559 17.5133 14.4887 17.4998C14.4304 17.4885 14.38 17.4357 14.2878 17.3391C14.2376 17.2865 14.175 17.2209 14.092 17.142C13.8787 16.9402 13.6654 16.7327 13.4492 16.5225C13.2384 16.3175 13.0244 16.1094 12.8056 15.9018C11.6169 16.782 10.4362 17.6622 9.24906 18.5473L9.24791 18.5481C8.46404 19.1326 7.67733 19.7191 6.88361 20.3091C9.12376 21.5493 11.4304 21.9258 13.8702 21.4165C16.066 20.9514 17.8847 19.844 19.3486 18.1165Z" fill="#F2F2F2"/>
<path d="M19.0381 14.9937C19.4595 15.5474 19.8809 16.1011 20.3467 16.6991C20.4132 16.544 20.4798 16.4333 20.5463 16.3447C21.3004 14.8609 21.6775 13.2884 21.6331 11.6273C21.5222 8.77034 20.3911 6.40058 18.284 4.49591C18.1287 4.34088 18.0178 4.38518 17.8848 4.49591C17.4633 4.81705 17.0419 5.13265 16.6205 5.44825C16.1991 5.76385 15.7777 6.07945 15.3563 6.40058C15.3363 6.42049 15.3119 6.4404 15.285 6.46232C15.2521 6.48917 15.2155 6.51904 15.1788 6.55561C15.2357 6.58401 15.2835 6.62151 15.328 6.65644C15.3529 6.676 15.3767 6.69475 15.4006 6.71064C16.2656 7.33077 16.931 8.10593 17.419 9.03611C17.5077 9.19114 17.4633 9.30188 17.3524 9.41262C17.1417 9.62302 16.9366 9.83342 16.7314 10.0438C16.5262 10.2542 16.3211 10.4646 16.1104 10.675C15.9551 10.83 15.9551 10.9408 16.0882 11.118C16.7861 12.0162 17.4732 12.9252 18.157 13.83C18.4511 14.2191 18.7446 14.6074 19.0381 14.9937Z" fill="#F2F2F2"/>
</svg>
