<svg width="24" height="24" viewBox="0 0 24 24" fill="none" xmlns="http://www.w3.org/2000/svg">
<circle cx="12" cy="12" r="12" fill="#003340"/>
<path d="M20.9981 12.1672C20.9981 13.5997 20.9939 15.0321 20.9981 16.4604C20.9981 17.058 20.7481 17.4945 20.2268 17.7954C17.756 19.2279 15.2852 20.6688 12.8186 22.1055C12.7932 22.1182 12.7677 22.1352 12.7466 22.1479C12.2592 22.4361 11.7718 22.4319 11.2844 22.1437C10.6021 21.7453 9.91974 21.3511 9.23317 20.9528C7.39808 19.889 5.55875 18.821 3.72365 17.7572C3.24051 17.4775 3.00318 17.0495 3.00318 16.5028C2.99894 13.6039 2.99894 10.7051 3.00318 7.8062C3.00318 7.24253 3.26594 6.82296 3.75332 6.54325C4.80013 5.94144 5.84694 5.34387 6.88951 4.74206C8.35589 3.89868 9.82651 3.0553 11.2929 2.21192C11.776 1.9322 12.2549 1.92796 12.7381 2.20768C15.0521 3.54692 17.3703 4.88191 19.6843 6.21691C19.8793 6.33134 20.0742 6.44153 20.2692 6.55596C20.7523 6.83567 20.9981 7.25101 20.9981 7.8062C21.0024 9.25986 20.9981 10.7135 20.9981 12.1672ZM19.4258 10.0948C19.4215 10.0948 19.4173 10.0948 19.4131 10.0948C19.4131 9.53958 19.4131 8.98015 19.4131 8.42496C19.4131 8.02234 19.2435 7.73415 18.8833 7.53072C16.7473 6.33982 14.6156 5.14468 12.4838 3.94106C12.0939 3.72068 11.7379 3.72068 11.3522 3.9453C9.71208 4.88615 8.0677 5.81006 6.42332 6.74244C5.88932 7.04334 5.35108 7.34001 4.82556 7.65363C4.29156 7.97148 4.30427 8.64958 4.83827 8.9632C4.96118 9.03524 5.08408 9.10305 5.20699 9.17086C8.67375 11.1119 12.1447 13.0572 15.6115 15.0025C15.6836 15.0449 15.7598 15.083 15.8234 15.1381C16.0735 15.35 16.1794 15.617 16.1285 15.9433C16.0819 16.257 15.8955 16.4604 15.6327 16.613C14.5605 17.219 13.484 17.825 12.416 18.4396C12.0557 18.6472 11.7167 18.643 11.3565 18.4396C10.1359 17.7488 8.91108 17.0664 7.68627 16.3799C7.27518 16.1468 6.85984 15.9221 6.45299 15.6848C6.14784 15.5026 5.99527 15.2271 6.03765 14.8669C6.08003 14.5109 6.2877 14.2778 6.62251 14.1591C6.89375 14.0659 7.14803 14.121 7.39384 14.2566C8.73308 15.011 10.0723 15.7611 11.4158 16.5155C11.4878 16.5579 11.5641 16.6002 11.6446 16.6257C11.954 16.7274 12.2295 16.6765 12.4626 16.4434C12.683 16.223 12.7423 15.9603 12.6364 15.6636C12.5686 15.4687 12.4202 15.3415 12.2422 15.2398C10.797 14.4303 9.35184 13.6209 7.90665 12.8071C7.22008 12.4215 6.52927 12.0358 5.8427 11.6501C5.65199 11.5442 5.45703 11.4764 5.23665 11.5103C4.73656 11.5866 4.43142 11.9468 4.43142 12.4639C4.43142 13.5234 4.43565 14.5787 4.42718 15.6382C4.42294 16.0493 4.5967 16.3332 4.9527 16.5282C7.07598 17.7149 9.19927 18.9015 11.3141 20.1009C11.704 20.3213 12.06 20.3213 12.4499 20.1051C14.5308 18.9481 16.6202 17.7996 18.7053 16.6511C18.8367 16.579 18.9681 16.5112 19.091 16.4265C19.3453 16.2527 19.4555 15.9476 19.3876 15.6467C19.3283 15.4009 19.163 15.2525 18.9511 15.1339C17.8789 14.5363 16.8109 13.9345 15.7429 13.3369C13.2085 11.9171 10.6784 10.4974 8.14398 9.07762C7.83884 8.9081 7.64813 8.66653 7.64389 8.30205C7.63965 7.93334 7.81341 7.67058 8.12703 7.49258C9.23317 6.86958 10.3393 6.25082 11.4497 5.63206C11.5345 5.58544 11.6277 5.5473 11.7252 5.5261C11.9879 5.47101 12.2253 5.53458 12.4541 5.66172C13.7637 6.39915 15.0733 7.13234 16.3828 7.86553C16.7388 8.06472 17.0991 8.25967 17.4508 8.46734C17.7941 8.67077 17.9425 9.04796 17.845 9.41243C17.7433 9.79386 17.4042 10.0524 17.0058 10.0651C16.8066 10.0736 16.6329 10.0058 16.4634 9.91253C15.1114 9.15391 13.7595 8.39529 12.4075 7.63667C12.3143 7.58582 12.2253 7.52648 12.1236 7.50105C11.8099 7.42053 11.5345 7.49258 11.3141 7.72991C11.1149 7.95029 11.0725 8.27239 11.1996 8.53939C11.2844 8.71315 11.4285 8.8191 11.5896 8.91234C13.1449 9.78539 14.7003 10.6584 16.2557 11.5315C16.8321 11.8578 17.4127 12.1799 17.9891 12.5062C18.1713 12.608 18.362 12.6842 18.5697 12.6631C19.0867 12.608 19.4215 12.2308 19.4215 11.7095C19.43 11.167 19.4258 10.633 19.4258 10.0948Z" fill="#00FFB0"/>
<path d="M19.4258 10.0948C19.4258 10.6288 19.4258 11.167 19.4258 11.701C19.4258 12.2223 19.091 12.5995 18.574 12.6546C18.3663 12.6758 18.1714 12.5995 17.9934 12.4978C17.417 12.1714 16.8364 11.8493 16.26 11.523C14.7046 10.65 13.1492 9.77691 11.5938 8.90386C11.4286 8.81063 11.2845 8.70467 11.2039 8.53091C11.0768 8.26391 11.1192 7.94182 11.3184 7.72144C11.5388 7.4841 11.8142 7.41206 12.1278 7.49258C12.2296 7.51801 12.3228 7.57734 12.4118 7.6282C13.7638 8.38682 15.1157 9.14543 16.4677 9.90405C16.6372 9.99729 16.8109 10.0651 17.0101 10.0566C17.4085 10.0439 17.7476 9.78115 17.8493 9.40396C17.9467 9.03948 17.7942 8.66229 17.4551 8.45886C17.1034 8.2512 16.7431 8.05625 16.3871 7.85705C15.0776 7.12386 13.768 6.38644 12.4584 5.65325C12.2296 5.52187 11.9922 5.45829 11.7295 5.51763C11.632 5.53882 11.543 5.57696 11.454 5.62358C10.3478 6.24234 9.23747 6.8611 8.13133 7.4841C7.81771 7.6621 7.64395 7.92486 7.64818 8.29358C7.65242 8.65805 7.84314 8.89963 8.14828 9.06915C10.6827 10.4889 13.2128 11.9087 15.7472 13.3284C16.8152 13.9302 17.8874 14.5278 18.9554 15.1254C19.1673 15.244 19.3326 15.3924 19.3919 15.6382C19.464 15.9391 19.3538 16.24 19.0953 16.418C18.9724 16.5028 18.841 16.5706 18.7096 16.6426C16.6245 17.7954 14.5351 18.9397 12.4542 20.0967C12.0643 20.3128 11.7083 20.3128 11.3184 20.0924C9.19933 18.8973 7.08028 17.7064 4.957 16.5197C4.601 16.3205 4.42723 16.0366 4.43147 15.6297C4.43995 14.5702 4.43571 13.5149 4.43571 12.4554C4.43571 11.9426 4.74085 11.5823 5.24095 11.5018C5.46133 11.4679 5.65628 11.5357 5.84699 11.6417C6.53357 12.0273 7.22437 12.413 7.91095 12.7987C9.35613 13.6081 10.7971 14.4219 12.2465 15.2313C12.4245 15.333 12.5728 15.456 12.6407 15.6551C12.7424 15.9476 12.683 16.2146 12.4669 16.435C12.238 16.668 11.9583 16.7189 11.6489 16.6172C11.5684 16.5918 11.4964 16.5451 11.4201 16.507C10.0808 15.7569 8.73737 15.0025 7.39814 14.2481C7.15233 14.1082 6.89804 14.0531 6.6268 14.1506C6.29199 14.265 6.08433 14.5024 6.04195 14.8584C5.99957 15.2144 6.1479 15.4941 6.45728 15.6763C6.86414 15.9137 7.27947 16.1425 7.69056 16.3714C8.91537 17.058 10.1402 17.7403 11.3608 18.4311C11.721 18.6345 12.06 18.6388 12.4203 18.4311C13.4883 17.8166 14.5647 17.2105 15.637 16.6045C15.904 16.4519 16.0862 16.2485 16.1328 15.9349C16.1837 15.6085 16.0777 15.3373 15.8277 15.1296C15.7641 15.0745 15.6878 15.0364 15.6158 14.994C12.149 13.0487 8.67804 11.1077 5.21128 9.16239C5.08838 9.09458 4.96547 9.02677 4.84257 8.95472C4.30857 8.6411 4.29585 7.96301 4.82985 7.64515C5.35538 7.33153 5.89361 7.0391 6.42761 6.73396C8.07199 5.80158 9.71637 4.87768 11.3565 3.93682C11.7464 3.7122 12.0982 3.7122 12.4881 3.93258C14.6156 5.1362 16.7516 6.33134 18.8876 7.52225C19.2478 7.72144 19.4174 8.01386 19.4174 8.41648C19.4174 8.97167 19.4174 9.5311 19.4174 10.0863C19.4216 10.0948 19.4258 10.0948 19.4258 10.0948Z" fill="#003340"/>
</svg>
